<?xml version="1.0" encoding="utf-8"?>
<!-- Generator: Adobe Illustrator 19.2.1, SVG Export Plug-In . SVG Version: 6.00 Build 0)  -->
<svg version="1.1" id="Layer_1" xmlns="http://www.w3.org/2000/svg" xmlns:xlink="http://www.w3.org/1999/xlink" x="0px" y="0px"
	 viewBox="0 0 180 180" style="enable-background:new 0 0 180 180;" xml:space="preserve">
<style type="text/css">
	.st0{fill:#C3D2DC;}
	.st1{display:none;}
	.st2{display:inline;fill:#C3D2DC;}
	.st3{fill:#FFFFFF;}
	.st4{fill-rule:evenodd;clip-rule:evenodd;fill:#C3D2DC;}
	.st5{clip-path:url(#SVGID_2_);}
	.st6{clip-path:url(#SVGID_4_);fill:#C3D2DC;}
	.st7{clip-path:url(#SVGID_6_);}
	.st8{clip-path:url(#SVGID_8_);fill:#C3D2DC;}
	.st9{fill-rule:evenodd;clip-rule:evenodd;fill:#FFFFFF;}
	.st10{clip-path:url(#SVGID_10_);}
	.st11{clip-path:url(#SVGID_12_);fill:#C3D2DC;}
</style>
<g>
	<g>
		<defs>
			<path id="SVGID_1_" d="M309.7-146.6l-6.3,6.3c-0.4,0.4-0.4,0.9,0,1.3l44.7,44.7c0.4,0.4,0.9,0.4,1.3,0l44.7-44.7
				c0.4-0.4,0.4-0.9,0-1.3l-6.3-6.3l-36.4,36.4c-1.4,1.4-3.7,1.4-5.2,0L309.7-146.6z"/>
		</defs>
		<use xlink:href="#SVGID_1_"  style="overflow:visible;fill-rule:evenodd;clip-rule:evenodd;fill:#C3D2DC;"/>
		<clipPath id="SVGID_2_">
			<use xlink:href="#SVGID_1_"  style="overflow:visible;"/>
		</clipPath>
		<g class="st5">
			<defs>
				<rect id="SVGID_3_" x="166.3" y="-264.8" width="364.8" height="273.6"/>
			</defs>
			<use xlink:href="#SVGID_3_"  style="overflow:visible;fill:#C3D2DC;"/>
			<clipPath id="SVGID_4_">
				<use xlink:href="#SVGID_3_"  style="overflow:visible;"/>
			</clipPath>
		</g>
	</g>
</g>
<g>
	<g>
		<defs>
			<path id="SVGID_5_" d="M45.4-119.1l-7.2,7.2c-0.4,0.4-0.4,1.1,0,1.5l51.1,51.1c0.4,0.4,1.1,0.4,1.5,0l51.1-51.1
				c0.4-0.4,0.4-1.1,0-1.5l-7.2-7.2L92.9-77.4c-1.6,1.6-4.3,1.6-5.9,0L45.4-119.1z"/>
		</defs>
		<use xlink:href="#SVGID_5_"  style="overflow:visible;fill-rule:evenodd;clip-rule:evenodd;fill:#C3D2DC;"/>
		<clipPath id="SVGID_6_">
			<use xlink:href="#SVGID_5_"  style="overflow:visible;"/>
		</clipPath>
		<g class="st7">
			<defs>
				<rect id="SVGID_7_" x="-118.4" y="-254.1" width="416.8" height="312.6"/>
			</defs>
			<use xlink:href="#SVGID_7_"  style="overflow:visible;fill:#C3D2DC;"/>
			<clipPath id="SVGID_8_">
				<use xlink:href="#SVGID_7_"  style="overflow:visible;"/>
			</clipPath>
		</g>
	</g>
</g>
<g>
	<path class="st0" d="M169.9,69l-1.7-10.4c-0.6-3.3-1.9-6.1-2.9-6.1c-1,0-1.9,2.8-1.9,6.1v2.7c0,3.4-2.8,6.1-6.2,6.1h-2.7
		c-0.2,0-0.4,0-0.6,0V75c0.2,0,0.4,0,0.6,0h10.2C168.2,75.1,170.5,72.3,169.9,69z M145.4,60.2h-16.6c-0.1,0-0.3,0-0.4,0h-17
		c-0.2,0-0.4,0-0.6,0v-1.6c0-3.4-0.8-6.1-1.9-6.1c-1,0-2.3,2.7-2.9,6.1L104.2,69c-0.6,3.3,1.8,6.1,5.1,6.1h10.2
		c1.1,0,2.1-0.2,2.9-0.5c-0.3,1.7-1.9,3.1-3.7,3.1h-14.4c-2.3,0-4.1-2.1-3.7-4.4l1.5-8.7c0.4-2.3-1.4-4.4-3.7-4.4H27
		c-1.5,0-2.8,0.9-3.4,2.2L10.2,82.9c-0.2,0.3-0.2,0.8,0.1,1.1l2.6,3.1c0.3,0.4,0.9,0.4,1.3,0.1l9.1-7.2v43.7c0,2.1,1.7,3.8,3.8,3.8
		h20.3c2.1,0,3.8-1.7,3.8-3.8v-15.2c0-2.1,1.7-3.8,3.8-3.8h50.7c2.1,0,3.8,1.7,3.8,3.8v15.2c0,2.1,1.7,3.8,3.8,3.8h20.3
		c2.1,0,3.8-1.7,3.8-3.8v-16.4h-10.8c-3.4,0-6.2-2.8-6.2-6.1V90.7c0-2,1-3.8,2.5-4.9v12.6c0,3.4,2.8,6.1,6.2,6.1h16.6
		c3.4,0,6.2-2.8,6.2-6.1v-32C151.5,63,148.8,60.2,145.4,60.2z"/>
</g>
</svg>
