<?xml version="1.0" encoding="utf-8"?>
<!-- Generator: Adobe Illustrator 19.2.1, SVG Export Plug-In . SVG Version: 6.00 Build 0)  -->
<svg version="1.1" xmlns="http://www.w3.org/2000/svg" xmlns:xlink="http://www.w3.org/1999/xlink" x="0px" y="0px"
	 viewBox="0 0 250 200" style="enable-background:new 0 0 250 200;" xml:space="preserve">
<style type="text/css">
	.st0{fill:none;stroke:#FF405E;stroke-width:1.5;stroke-linejoin:round;stroke-miterlimit:10;}
	.st1{opacity:0.5;}
	.st2{fill:#FF405E;}
	.st3{fill:#14283C;}
	.st4{fill:#36697F;}
	.st5{fill:#F9B32E;}
	.st6{fill:#D2D7DC;}
	.st7{fill:#FFFFFF;}
	.st8{fill:#193340;}
	.st9{fill:none;stroke:#193340;stroke-linejoin:round;stroke-miterlimit:10;stroke-dasharray:6;}
	.st10{clip-path:url(#SVGID_2_);}
	.st11{clip-path:url(#SVGID_4_);}
	.st12{fill:#F2F5F7;}
	.st13{fill:#264C5F;}
	.st14{fill-rule:evenodd;clip-rule:evenodd;fill:#C3D0DB;}
	.st15{clip-path:url(#SVGID_6_);}
	.st16{clip-path:url(#SVGID_8_);}
	.st17{fill:#C3D0DB;}
	.st18{fill-rule:evenodd;clip-rule:evenodd;fill:#FFFFFF;}
	.st19{display:none;}
	.st20{display:inline;}
	.st21{fill:#99B1C1;}
</style>
<g id="Layer_1">
	<g>
		<g>
			<g id="Square_40_">
				<path class="st14" d="M183.9,54.5c-0.1-0.1-0.2-0.1-0.3,0l-3.3,3.3c-0.1,0.1-0.1,0.2,0,0.3l3.3,3.3c0.1,0.1,0.2,0.1,0.3,0
					l3.3-3.3c0.1-0.1,0.1-0.2,0-0.3L183.9,54.5z"/>
			</g>
			<g id="Fourth_Row_5_">
				<g id="Square_39_">
					<path class="st14" d="M191.5,53.6l-3.3-3.3c-0.1-0.1-0.2-0.1-0.3,0l-3.3,3.3c-0.1,0.1-0.1,0.2,0,0.3l3.3,3.3
						c0.1,0.1,0.2,0.1,0.3,0l3.3-3.3C191.6,53.8,191.6,53.7,191.5,53.6z"/>
				</g>
				<g id="Square_38_">
					<path class="st14" d="M183,53.6l-3.3-3.3c-0.1-0.1-0.2-0.1-0.3,0l-3.3,3.3c-0.1,0.1-0.1,0.2,0,0.3l3.3,3.3
						c0.1,0.1,0.2,0.1,0.3,0l3.3-3.3C183.1,53.8,183.1,53.7,183,53.6z"/>
				</g>
			</g>
			<g id="Third_Row_5_">
				<g id="Square_37_">
					<path class="st14" d="M195.7,49.7l-3.3,3.3c-0.1,0.1-0.2,0.1-0.3,0l-3.3-3.3c-0.1-0.1-0.1-0.2,0-0.3l3.3-3.3
						c0.1-0.1,0.2-0.1,0.3,0l3.3,3.3C195.8,49.4,195.8,49.6,195.7,49.7z"/>
				</g>
				<g id="Square_36_">
					<path class="st14" d="M187.2,49.7l-3.3,3.3c-0.1,0.1-0.2,0.1-0.3,0l-3.3-3.3c-0.1-0.1-0.1-0.2,0-0.3l3.3-3.3
						c0.1-0.1,0.2-0.1,0.3,0l3.3,3.3C187.3,49.4,187.3,49.6,187.2,49.7z"/>
				</g>
				<g id="Square_35_">
					<path class="st14" d="M178.7,49.7l-3.3,3.3c-0.1,0.1-0.2,0.1-0.3,0l-3.3-3.3c-0.1-0.1-0.1-0.2,0-0.3l3.3-3.3
						c0.1-0.1,0.2-0.1,0.3,0l3.3,3.3C178.8,49.4,178.8,49.6,178.7,49.7z"/>
				</g>
			</g>
			<g id="Second_Row_5_">
				<g id="Square_34_">
					<path class="st14" d="M187.8,48.3c0.1,0.1,0.2,0.1,0.3,0l3.3-3.3c0.1-0.1,0.1-0.2,0-0.3l-3.3-3.3c-0.1-0.1-0.2-0.1-0.3,0
						l-3.3,3.3c-0.1,0.1-0.1,0.2,0,0.3L187.8,48.3z"/>
				</g>
				<g id="Square_33_">
					<path class="st14" d="M179.3,48.2c0.1,0.1,0.2,0.1,0.3,0L183,45c0.1-0.1,0.1-0.2,0-0.3l-3.3-3.3c-0.1-0.1-0.2-0.1-0.3,0
						l-3.3,3.3c-0.1,0.1-0.1,0.2,0,0.3L179.3,48.2z"/>
				</g>
			</g>
			<g id="Sqaure_5_">
				<path class="st14" d="M183.6,43.4c0.1,0.1,0.2,0.1,0.3,0l3.3-3.3c0.1-0.1,0.1-0.2,0-0.3l-3.3-3.3c-0.1-0.1-0.2-0.1-0.3,0
					l-3.3,3.3c-0.1,0.1-0.1,0.2,0,0.3L183.6,43.4z"/>
			</g>
			<g>
				<defs>
					<path id="SVGID_5_" d="M173.5,52.6l-1.7,1.7c-0.1,0.1-0.1,0.2,0,0.3l11.8,11.8c0.1,0.1,0.2,0.1,0.3,0l11.8-11.8
						c0.1-0.1,0.1-0.2,0-0.3l-1.7-1.7l-9.6,9.6c-0.4,0.4-1,0.4-1.4,0L173.5,52.6z"/>
				</defs>
				<use xlink:href="#SVGID_5_"  style="overflow:visible;fill-rule:evenodd;clip-rule:evenodd;fill:#C3D0DB;"/>
				<clipPath id="SVGID_2_">
					<use xlink:href="#SVGID_5_"  style="overflow:visible;"/>
				</clipPath>
				<g class="st10">
					<defs>
						<rect id="SVGID_7_" x="135.7" y="21.4" width="96.2" height="72.1"/>
					</defs>
					<use xlink:href="#SVGID_7_"  style="overflow:visible;fill:#C3D0DB;"/>
					<clipPath id="SVGID_4_">
						<use xlink:href="#SVGID_7_"  style="overflow:visible;"/>
					</clipPath>
					<g class="st11">
						<rect x="171.1" y="52" class="st17" width="25.2" height="15.1"/>
					</g>
				</g>
			</g>
		</g>
		<g>
			<g id="outline_20_">
				<path class="st18" d="M158.4,15h4.7v4.8h2.4c1.1,0,2.2-0.2,3.3-0.6c0.5-0.2,1.1-0.4,1.6-0.7c-0.7-0.9-1-2-1.1-3.1
					c-0.1-1.5,0.2-3.4,1.2-4.6l0.5-0.6l0.6,0.5c1.5,1.2,2.8,2.9,3,4.8c1.8-0.5,3.9-0.4,5.5,0.5l0.7,0.4l-0.3,0.7
					c-1.3,2.6-4.1,3.4-6.9,3.3c-4.1,10.2-13,15.1-23.9,15.1c-5.6,0-10.7-2.1-13.6-7.1l0-0.1l-0.4-0.9c-1-2.2-1.3-4.6-1.1-7l0.1-0.7
					h4.1V15h4.7v-4.7h9.5V5.6h5.7V15z"/>
			</g>
			<g id="body_colors_20_">
				<g>
					<path class="st17" d="M173.8,16.8c0.3-2.5-1.5-4.4-2.7-5.3c-1.3,1.5-1.5,5.5,0.5,7.2c-1.2,1-3.6,2-6.1,2h-30.4
						c-0.2,2.6,0.2,5,1.3,7.1l0.3,0.6c0.2,0.4,0.5,0.7,0.7,1.1h0c1.2,0.1,2.4,0.1,3.5,0.1h0c2.1,0,3.8-0.3,5-0.7
						c0.2-0.1,0.4,0,0.5,0.2c0.1,0.2,0,0.4-0.2,0.5c-0.2,0.1-0.3,0.1-0.5,0.2l0,0c-1,0.3-2.1,0.5-3.5,0.6c0.1,0-0.1,0-0.1,0
						c0,0-0.1,0-0.2,0c-0.5,0-1.1,0-1.7,0c-0.7,0-1.3,0-2,0l0,0c2.5,2.8,6.5,4.5,11.4,4.5c10.5,0,19.4-4.7,23.3-15.1
						c2.8,0.3,5.5-0.4,6.7-2.8C177.7,15.8,175.2,16.1,173.8,16.8z"/>
				</g>
				<g>
					<path class="st17" d="M173.8,16.8c0.3-2.5-1.5-4.4-2.7-5.3c-1.3,1.5-1.5,5.5,0.5,7.2c-1.2,1-3.6,2-6.1,2H137
						c-0.1,4,1.4,7,4,8.8h0c2.1,0,3.8-0.3,5-0.7c0.2-0.1,0.4,0,0.5,0.2c0.1,0.2,0,0.4-0.2,0.5c-0.2,0.1-0.3,0.1-0.5,0.2l0,0
						c-1,0.3-2.2,0.5-3.6,0.6l0,0c3.6,1.8,8.7,1.8,14.7-0.5c6.7-2.6,12.8-7.4,17.2-13C173.9,16.8,173.8,16.8,173.8,16.8z"/>
				</g>
				<g>
					<path class="st17" d="M135.2,23.8c0.2,1.4,0.6,2.7,1.2,3.9l0.3,0.6c0.2,0.4,0.5,0.7,0.7,1.1c1.2,0.1,2.4,0.1,3.5,0.1
						c2.1,0,3.8-0.3,5-0.7c0.2-0.1,0.4,0,0.5,0.2c0.1,0.2,0,0.4-0.2,0.5c-0.2,0.1-0.3,0.1-0.5,0.2l0,0c-1,0.3-2.2,0.5-3.6,0.6
						c0,0-0.1,0-0.2,0c-0.5,0-1.1,0-1.7,0c-0.7,0-1.3,0-2.1,0c2.5,2.8,6.5,4.6,11.5,4.6c9,0,16.8-3.4,21.3-10.9H135.2z"/>
				</g>
				<g>
					<path class="st17" d="M137.3,23.8c0.5,2.4,1.8,4.4,3.7,5.7c2.1,0,3.8-0.3,5-0.7c0.2-0.1,0.4,0,0.5,0.2c0.1,0.2,0,0.4-0.2,0.5
						c-0.2,0.1-0.3,0.1-0.5,0.2l0,0c-1,0.3-2.2,0.5-3.6,0.6c3.6,1.8,8.7,1.8,14.7-0.5c3.6-1.4,7-3.4,10.1-5.9H137.3z"/>
				</g>
			</g>
			<g class="st19">
				<g class="st20">
					<path class="st17" d="M140.2,30.3c0.6,0,1.2,0,1.7,0c0,0,0.1,0,0.1,0l0,0c1.4-0.1,2.6-0.3,3.6-0.6l0,0c0.2-0.1,0.4-0.1,0.5-0.2
						c0.2-0.1,0.3-0.3,0.2-0.5c-0.1-0.2-0.3-0.3-0.5-0.2c-1.3,0.4-3,0.7-5,0.7h0c-1.1,0-2.2,0-3.5-0.1h0c-0.1,0-0.1,0-0.2,0
						c-0.2,0-0.4,0.1-0.4,0.3c0,0.2,0.1,0.4,0.3,0.4c0.3,0,0.5,0,0.8,0c0,0,0.1,0,0.1,0l0,0C138.9,30.2,139.6,30.3,140.2,30.3z"/>
				</g>
			</g>
			<g id="Containers_20_">
				<g>
					<path class="st14" d="M142.7,16.2h0.3v3.4h-0.3V16.2z M142.1,16.2h0.3v3.4h-0.3V16.2z M141.5,16.2h0.3v3.4h-0.3V16.2z
						 M140.9,16.2h0.3v3.4h-0.3V16.2z M140.3,16.2h0.3v3.4h-0.3V16.2z M139.6,16.2h0.3v3.4h-0.3V16.2z M139.3,15.8h4.1v4.1h-4.1
						V15.8z"/>
				</g>
				<g>
					<path class="st14" d="M147.5,11.4h0.3v3.4h-0.3V11.4z M146.9,11.4h0.3v3.4h-0.3V11.4z M146.2,11.4h0.3v3.4h-0.3V11.4z
						 M145.6,11.4h0.3v3.4h-0.3V11.4z M145,11.4h0.3v3.4H145V11.4z M144.4,11.4h0.3v3.4h-0.3V11.4z M144,11.1h4.1v4.1H144V11.1z"/>
				</g>
				<g>
					<path class="st14" d="M147.5,16.2h0.3v3.4h-0.3V16.2z M146.9,16.2h0.3v3.4h-0.3V16.2z M146.2,16.2h0.3v3.4h-0.3V16.2z
						 M145.6,16.2h0.3v3.4h-0.3V16.2z M145,16.2h0.3v3.4H145V16.2z M144.4,16.2h0.3v3.4h-0.3V16.2z M144,15.8h4.1v4.1H144V15.8z"/>
				</g>
				<g>
					<path class="st14" d="M152.2,16.2h0.3v3.4h-0.3V16.2z M151.6,16.2h0.3v3.4h-0.3V16.2z M151,16.2h0.3v3.4H151V16.2z M150.3,16.2
						h0.3v3.4h-0.3V16.2z M149.7,16.2h0.3v3.4h-0.3V16.2z M149.1,16.2h0.3v3.4h-0.3V16.2z M148.8,15.8h4.1v4.1h-4.1V15.8z"/>
				</g>
				<g>
					<path class="st14" d="M152.2,11.4h0.3v3.4h-0.3V11.4z M151.6,11.4h0.3v3.4h-0.3V11.4z M151,11.4h0.3v3.4H151V11.4z M150.3,11.4
						h0.3v3.4h-0.3V11.4z M149.7,11.4h0.3v3.4h-0.3V11.4z M149.1,11.4h0.3v3.4h-0.3V11.4z M148.8,11.1h4.1v4.1h-4.1V11.1z"/>
				</g>
				<g>
					<path class="st14" d="M157,16.2h0.3v3.4H157V16.2z M156.3,16.2h0.3v3.4h-0.3V16.2z M155.7,16.2h0.3v3.4h-0.3V16.2z M155.1,16.2
						h0.3v3.4h-0.3V16.2z M154.5,16.2h0.3v3.4h-0.3V16.2z M153.9,16.2h0.3v3.4h-0.3V16.2z M153.5,15.8h4.1v4.1h-4.1V15.8z"/>
				</g>
				<g>
					<path class="st14" d="M157,11.4h0.3v3.4H157V11.4z M156.3,11.4h0.3v3.4h-0.3V11.4z M155.7,11.4h0.3v3.4h-0.3V11.4z M155.1,11.4
						h0.3v3.4h-0.3V11.4z M154.5,11.4h0.3v3.4h-0.3V11.4z M153.9,11.4h0.3v3.4h-0.3V11.4z M153.5,11.1h4.1v4.1h-4.1V11.1z"/>
				</g>
				<g>
					<path class="st14" d="M157,6.7h0.3v3.4H157V6.7z M156.3,6.7h0.3v3.4h-0.3V6.7z M155.7,6.7h0.3v3.4h-0.3V6.7z M155.1,6.7h0.3
						v3.4h-0.3V6.7z M154.5,6.7h0.3v3.4h-0.3V6.7z M153.9,6.7h0.3v3.4h-0.3V6.7z M153.5,6.4h4.1v4.1h-4.1V6.4z"/>
				</g>
				<g>
					<path class="st14" d="M161.7,16.2h0.3v3.4h-0.3V16.2z M161.1,16.2h0.3v3.4h-0.3V16.2z M160.4,16.2h0.3v3.4h-0.3V16.2z
						 M159.8,16.2h0.3v3.4h-0.3V16.2z M159.2,16.2h0.3v3.4h-0.3V16.2z M158.6,16.2h0.3v3.4h-0.3V16.2z M158.2,15.8h4.1v4.1h-4.1
						V15.8z"/>
				</g>
			</g>
			<g>
				<path class="st17" d="M150.9,34.8c-2.8-1.3-4.3-3.1-5.2-5.1c-1,0.3-2.3,0.5-3.7,0.6c-0.5,0-1.1,0-1.7,0c-0.7,0-1.4,0-2.2-0.1
					c2.6,2.6,5.7,4.5,11.6,4.6C150,34.8,150.5,34.8,150.9,34.8z"/>
			</g>
			<g>
				<path class="st17" d="M146.7,31.5c-0.4-0.5-0.8-1.2-1-1.8c-1,0.3-2.3,0.5-3.8,0.6C142.9,30.8,144.4,31.3,146.7,31.5z"/>
			</g>
		</g>
		<g>
			<g>
				<path class="st17" d="M101.4,30.4c-0.7,0-1.4-0.3-1.9-0.9l-7-8.7c-0.5-0.6-0.6-1.3-0.5-2L94.7,8c0.2-0.7,0.6-1.3,1.3-1.6
					L106,1.5c0.3-0.2,0.7-0.2,1-0.2s0.7,0.1,1,0.2l10.1,4.8c0.7,0.3,1.1,0.9,1.3,1.6l2.5,10.8c0.2,0.7,0,1.5-0.5,2l-7,8.7
					c-0.5,0.6-1.1,0.9-1.9,0.9L101.4,30.4L101.4,30.4z"/>
			</g>
			<g>
				<path class="st7" d="M107,1.8c0.3,0,0.6,0.1,0.8,0.2l10.1,4.8c0.5,0.3,0.9,0.7,1,1.3l2.5,10.8c0.1,0.6,0,1.2-0.4,1.6l-7,8.7
					c-0.4,0.5-0.9,0.7-1.5,0.7h-11.2c-0.6,0-1.1-0.3-1.5-0.7l-7-8.7c-0.4-0.5-0.5-1.1-0.4-1.6l2.5-10.8c0.1-0.6,0.5-1.1,1-1.3
					l10.1-4.8C106.5,1.8,106.8,1.8,107,1.8L107,1.8z M107,0.8L107,0.8c-0.4,0-0.8,0.1-1.2,0.3L95.7,5.9c-0.8,0.4-1.4,1.1-1.6,1.9
					l-2.5,10.8c-0.2,0.9,0,1.7,0.6,2.4l7,8.7c0.5,0.7,1.4,1.1,2.2,1.1h11.2c0.9,0,1.7-0.4,2.2-1.1l7-8.7c0.6-0.7,0.8-1.6,0.6-2.4
					l-2.5-10.8c-0.2-0.9-0.8-1.6-1.6-1.9l-10-4.8C107.9,0.9,107.5,0.8,107,0.8L107,0.8L107,0.8z"/>
			</g>
			<g>
				<path class="st7" d="M117.1,18L117.1,18L117.1,18C117.1,18,117.1,18,117.1,18L117.1,18C117.1,18,117.1,18,117.1,18
					c-0.1,0-0.1,0-0.2,0c-0.1,0-0.3,0-0.4,0c-0.1,0-0.1,0-0.2,0h0c-0.4,0-0.8-0.1-1.1-0.2c-0.1-0.1-0.2-0.1-0.2-0.2c0,0,0,0,0,0l0,0
					l-0.3-0.1c0.1-0.9,0.1-1.9-0.1-2.8c-0.2-0.9-0.6-1.8-1.1-2.6l0.2-0.2v0c0-0.1,0-0.2,0.1-0.3c0.2-0.2,0.5-0.4,0.9-0.6l0,0
					c0.1,0,0.1-0.1,0.2-0.1c0.1-0.1,0.2-0.1,0.3-0.2c0,0,0.1,0,0.1-0.1c0,0,0,0,0,0l0,0c0.3-0.2,0.3-0.6,0.1-0.9
					c-0.1-0.1-0.3-0.2-0.5-0.2c-0.2,0-0.3,0.1-0.4,0.2l0,0l0,0c0,0,0,0,0,0c0,0-0.1,0.1-0.1,0.1c-0.1,0.1-0.2,0.2-0.3,0.3
					c0,0-0.1,0.1-0.1,0.1l0,0c-0.3,0.3-0.5,0.5-0.8,0.7c-0.1,0-0.1,0.1-0.2,0.1c0,0-0.1,0-0.1,0h0l0,0l-0.2,0.2
					c-0.3-0.3-0.5-0.5-0.8-0.8c-1.2-0.9-2.6-1.5-4.2-1.7l0-0.3c0,0,0,0,0,0c-0.1-0.1-0.1-0.1-0.2-0.3c0-0.3,0-0.7,0.1-1.1v0
					c0-0.1,0-0.1,0-0.2c0-0.1,0-0.2,0.1-0.4V6.2V6.1l0,0l0,0c0-0.4-0.3-0.7-0.6-0.7c-0.2,0-0.3,0.1-0.4,0.2
					c-0.1,0.1-0.2,0.3-0.2,0.5l0,0l0,0v0v0.1c0,0.1,0,0.3,0.1,0.4c0,0.1,0,0.1,0,0.2v0c0,0.4,0.1,0.8,0.1,1.1c0,0.1-0.1,0.2-0.2,0.3
					c0,0,0,0,0,0l0,0l0,0.3c-0.4,0-0.7,0.1-1.1,0.2c-1.5,0.3-2.9,1.1-3.9,2.2l-0.2-0.1h0c0,0-0.1,0-0.1,0c-0.1,0-0.1,0-0.2-0.1
					c-0.3-0.2-0.5-0.4-0.8-0.7l0,0c0,0-0.1-0.1-0.1-0.1c-0.1-0.1-0.2-0.2-0.3-0.3c0,0-0.1,0-0.1-0.1c0,0,0,0,0,0l0,0
					c-0.1-0.1-0.3-0.2-0.4-0.2c-0.2,0-0.4,0.1-0.5,0.2c-0.2,0.3-0.1,0.7,0.1,0.9l0,0l0,0c0,0,0,0,0,0c0,0,0.1,0.1,0.1,0.1
					c0.1,0.1,0.2,0.1,0.3,0.2c0.1,0,0.1,0.1,0.2,0.1l0,0c0.4,0.2,0.7,0.4,0.9,0.6c0.1,0.1,0.1,0.2,0.1,0.3v0l0,0l0.2,0.2
					c0,0.1-0.1,0.1-0.1,0.2c-1,1.6-1.4,3.4-1.1,5.3l-0.3,0.1c0,0,0,0,0,0c0,0.1-0.1,0.2-0.2,0.2c-0.3,0.1-0.7,0.1-1.1,0.2h0
					c-0.1,0-0.1,0-0.2,0c-0.1,0-0.2,0-0.4,0c0,0-0.1,0-0.1,0c0,0,0,0-0.1,0l0,0l0,0c-0.4,0.1-0.6,0.4-0.5,0.7
					c0.1,0.3,0.3,0.5,0.6,0.5c0.1,0,0.1,0,0.2,0l0,0l0,0c0,0,0,0,0,0c0,0,0.1,0,0.1,0c0.1,0,0.2-0.1,0.4-0.1c0.1,0,0.1-0.1,0.2-0.1
					h0c0.4-0.1,0.7-0.3,1-0.3h0c0.1,0,0.2,0.1,0.3,0.1c0,0,0,0,0,0l0,0l0.3,0c0.5,1.5,1.4,2.8,2.6,3.7c0.3,0.2,0.6,0.4,0.9,0.6
					l-0.1,0.3c0,0,0,0,0,0c0,0.1,0.1,0.2,0,0.3c-0.1,0.3-0.3,0.6-0.5,0.9v0c0,0.1-0.1,0.1-0.1,0.2c-0.1,0.1-0.1,0.2-0.2,0.3
					c0,0,0,0.1-0.1,0.1c0,0,0,0,0,0l0,0l0,0c-0.2,0.3,0,0.7,0.3,0.9c0.1,0,0.2,0.1,0.2,0.1c0.2,0,0.5-0.2,0.6-0.4l0,0l0,0
					c0,0,0,0,0,0c0,0,0-0.1,0.1-0.1c0.1-0.1,0.1-0.2,0.1-0.4c0-0.1,0-0.1,0.1-0.2l0,0c0.1-0.4,0.2-0.7,0.4-1
					c0.1-0.1,0.2-0.1,0.3-0.2c0,0,0,0,0,0l0,0l0.1-0.3c0.9,0.3,1.8,0.5,2.8,0.5c0.6,0,1.2-0.1,1.7-0.2c0.4-0.1,0.7-0.2,1-0.3
					l0.1,0.2c0,0,0,0,0,0c0.1,0,0.2,0.1,0.3,0.2c0.2,0.3,0.3,0.6,0.4,1v0c0,0.1,0,0.1,0.1,0.2c0,0.1,0.1,0.2,0.1,0.4
					c0,0,0,0.1,0.1,0.1c0,0,0,0,0,0l0,0l0,0c0.1,0.2,0.4,0.4,0.6,0.4c0.1,0,0.2,0,0.2-0.1c0.1-0.1,0.3-0.2,0.3-0.4s0-0.3,0-0.5l0,0
					l0,0c0,0,0,0,0,0c0,0,0-0.1-0.1-0.1c-0.1-0.1-0.1-0.2-0.2-0.3c0-0.1-0.1-0.1-0.1-0.2v0c-0.2-0.3-0.4-0.6-0.5-0.9
					c0-0.1,0-0.2,0-0.3c0,0,0,0,0,0l0,0l-0.1-0.2c1.1-0.6,2-1.5,2.6-2.6c0.4-0.6,0.6-1.2,0.8-1.8l0.2,0c0,0,0,0,0,0
					c0.1,0,0.1-0.1,0.3-0.1h0c0.3,0,0.7,0.2,1,0.3h0c0.1,0,0.1,0.1,0.2,0.1c0.1,0.1,0.2,0.1,0.4,0.1c0,0,0.1,0,0.1,0c0,0,0,0,0.1,0
					l0,0c0.1,0,0.1,0,0.2,0c0.3,0,0.6-0.2,0.6-0.5C117.7,18.4,117.5,18.1,117.1,18L117.1,18z M107.9,17l-0.9,0.4l-0.9-0.4l-0.2-0.9
					l0.6-0.8h1l0.6,0.8L107.9,17L107.9,17z M113.1,15c0.2,0.7,0.2,1.4,0.1,2l-3-0.9c-0.3-0.1-0.4-0.4-0.4-0.6c0-0.1,0.1-0.2,0.1-0.2
					l2.4-2.2C112.7,13.6,113,14.3,113.1,15L113.1,15z M111.4,11.9l-2.6,1.9c-0.2,0.1-0.5,0.1-0.7-0.1c-0.1-0.1-0.1-0.1-0.1-0.2
					l-0.2-3.2C109.2,10.3,110.4,10.9,111.4,11.9L111.4,11.9z M105.6,10.2c0.2,0,0.4-0.1,0.6-0.1l-0.2,3.2c0,0.3-0.2,0.5-0.5,0.5
					c-0.1,0-0.2,0-0.2-0.1l-2.6-1.9C103.5,11.1,104.5,10.5,105.6,10.2L105.6,10.2z M101.7,13.1l2.4,2.1c0.2,0.2,0.2,0.5,0.1,0.7
					c-0.1,0.1-0.1,0.1-0.2,0.2l-3.1,0.9C100.7,15.6,101,14.2,101.7,13.1L101.7,13.1z M101.2,18.5l3.2-0.5c0.3,0,0.5,0.2,0.6,0.4
					c0,0.1,0,0.2,0,0.3l0,0l-1.2,2.9C102.5,20.9,101.6,19.8,101.2,18.5L101.2,18.5z M108.4,22.4c-0.5,0.1-0.9,0.2-1.4,0.2
					c-0.7,0-1.4-0.1-2-0.3l1.6-2.8c0.2-0.2,0.4-0.3,0.6-0.1c0.1,0.1,0.2,0.1,0.2,0.2l0,0l1.5,2.8C108.8,22.3,108.6,22.4,108.4,22.4
					L108.4,22.4z M112.3,19.7c-0.5,0.8-1.2,1.4-1.9,1.9l-1.3-3c-0.1-0.2,0-0.5,0.3-0.6c0.1,0,0.2-0.1,0.3-0.1l3.2,0.5
					C112.8,18.9,112.6,19.3,112.3,19.7L112.3,19.7z"/>
			</g>
		</g>
		<g>
			<g>
				<g>
					<polygon class="st14" points="56.7,61 52,59.3 52,52.3 56.7,53.9 					"/>
				</g>
				<g>
					<polygon class="st14" points="57.6,61 62.3,59.3 62.3,52.3 57.6,53.9 					"/>
				</g>
				<g>
					<polygon class="st14" points="52.4,51.8 57.3,50.4 61.7,51.9 57.3,53.4 					"/>
				</g>
			</g>
			<g>
				<g>
					<polygon class="st14" points="51.1,51.2 46.3,49.5 46.3,42.6 51.1,44.2 					"/>
				</g>
				<g>
					<polygon class="st14" points="51.9,51.2 56.7,49.5 56.7,42.6 51.9,44.2 					"/>
				</g>
				<g>
					<polygon class="st14" points="46.8,42.1 51.6,40.7 56.1,42.1 51.6,43.7 					"/>
				</g>
			</g>
			<g>
				<g>
					<polygon class="st14" points="62.1,51.2 57.4,49.5 57.4,42.6 62.1,44.2 					"/>
				</g>
				<g>
					<polygon class="st14" points="63,51.2 67.8,49.5 67.8,42.6 63,44.2 					"/>
				</g>
				<g>
					<polygon class="st14" points="57.9,42.1 62.7,40.7 67.1,42.1 62.7,43.7 					"/>
				</g>
			</g>
			<g>
				<g>
					<polygon class="st14" points="67.8,41.5 63,39.8 63,32.8 67.8,34.5 					"/>
				</g>
				<g>
					<polygon class="st14" points="68.7,41.5 73.4,39.8 73.4,32.8 68.7,34.5 					"/>
				</g>
				<g>
					<polygon class="st14" points="63.5,32.3 68.3,31 72.8,32.4 68.3,33.9 					"/>
				</g>
			</g>
			<g>
				<g>
					<polygon class="st14" points="78.9,41.5 74.1,39.8 74.1,32.8 78.9,34.5 					"/>
				</g>
				<g>
					<polygon class="st14" points="79.8,41.5 84.5,39.8 84.5,32.8 79.8,34.5 					"/>
				</g>
				<g>
					<polygon class="st14" points="74.6,32.3 79.4,31 83.9,32.4 79.4,33.9 					"/>
				</g>
			</g>
		</g>
		<g>
			<polygon class="st7" points="75.7,61.6 125,33.2 174.3,61.6 174.3,118.6 125,147 75.7,118.6 			"/>
		</g>
		<g>
			<path class="st12" d="M124.9,160.9c-0.1,0-0.2,0-0.3-0.1l-72.5-42c-0.2-0.1-0.2-0.3-0.2-0.4c0-0.2,0.1-0.3,0.2-0.4l72.7-42
				c0.2-0.1,0.3-0.1,0.5,0l72.5,42c0.2,0.1,0.2,0.3,0.2,0.4c0,0.2-0.1,0.3-0.2,0.4l-72.7,42C125,160.9,125,160.9,124.9,160.9z
				 M53.3,118.5l71.5,41.4l71.7-41.4L125.1,77L53.3,118.5z"/>
		</g>
		<g>
			<path class="st21" d="M124.9,152.1c-0.1,0-0.2,0-0.3-0.1l-57.2-33.1c-0.2-0.1-0.2-0.3-0.2-0.4c0-0.2,0.1-0.3,0.2-0.4l57.4-33.1
				c0.2-0.1,0.3-0.1,0.5,0l57.2,33.1c0.2,0.1,0.2,0.3,0.2,0.4c0,0.2-0.1,0.3-0.2,0.4L125.1,152C125.1,152,125,152.1,124.9,152.1z
				 M68.7,118.4l56.2,32.5l56.4-32.6L125,85.9L68.7,118.4z"/>
		</g>
		<g>
			<path class="st17" d="M124.9,156.3c-0.1,0-0.2,0-0.3-0.1l-64.5-37.3c-0.2-0.1-0.2-0.3-0.2-0.4c0-0.2,0.1-0.3,0.2-0.4l64.7-37.4
				c0.2-0.1,0.3-0.1,0.5,0l64.5,37.3c0.2,0.1,0.2,0.3,0.2,0.4c0,0.2-0.1,0.3-0.2,0.4l-64.7,37.4C125,156.2,125,156.3,124.9,156.3z
				 M61.4,118.4l63.5,36.7l63.7-36.8L125,81.7L61.4,118.4z"/>
		</g>
		<g>
			<path class="st2" d="M125,147.5c-0.1,0-0.2,0-0.2-0.1L75.4,119c-0.2-0.1-0.2-0.3-0.2-0.4V61.6c0-0.2,0.1-0.3,0.2-0.4l49.3-28.5
				c0.2-0.1,0.3-0.1,0.5,0l49.3,28.5c0.2,0.1,0.2,0.3,0.2,0.4v56.9c0,0.2-0.1,0.3-0.2,0.4l-49.3,28.5
				C125.1,147.5,125,147.5,125,147.5z M76.2,118.3l48.8,28.2l48.8-28.2V61.9L125,33.8L76.2,61.9V118.3z"/>
		</g>
		<g>
			<g>
				<polygon class="st7" points="104.6,76.9 124.3,65.6 144,76.9 144,99.7 124.3,111.1 104.6,99.7 				"/>
				<path class="st3" d="M124.3,111.6c-0.1,0-0.2,0-0.2-0.1l-19.7-11.4c-0.2-0.1-0.2-0.3-0.2-0.4V76.9c0-0.2,0.1-0.3,0.2-0.4
					l19.7-11.4c0.2-0.1,0.3-0.1,0.5,0l19.7,11.4c0.2,0.1,0.2,0.3,0.2,0.4v22.7c0,0.2-0.1,0.3-0.2,0.4l-19.7,11.4
					C124.5,111.5,124.4,111.6,124.3,111.6z M105.1,99.4l19.2,11.1l19.2-11.1V77.2l-19.2-11.1l-19.2,11.1V99.4z"/>
			</g>
			<g>
				<polygon class="st12" points="143.9,76.9 124.4,88.3 124.3,111.1 144.1,99.6 				"/>
			</g>
			<g>
				<path class="st3" d="M124.4,111.5c-0.1,0-0.2,0-0.2-0.1l-19.7-11.4c-0.2-0.1-0.2-0.3-0.2-0.4V76.9c0-0.2,0.1-0.3,0.2-0.4
					l19.7-11.4c0.2-0.1,0.3-0.1,0.5,0l19.7,11.4c0.2,0.1,0.2,0.3,0.2,0.4v22.7c0,0.2-0.1,0.3-0.2,0.4l-19.7,11.4
					C124.6,111.5,124.5,111.5,124.4,111.5z M105.2,99.4l19.2,11.1l19.2-11.1V77.2l-19.2-11.1l-19.2,11.1V99.4z"/>
			</g>
			<g>
				<polygon class="st7" points="129.8,91.3 149.5,80 169.2,91.3 169.2,114.1 149.5,125.4 129.8,114.1 				"/>
				<path class="st3" d="M149.5,125.9c-0.1,0-0.2,0-0.2-0.1l-19.7-11.4c-0.2-0.1-0.2-0.3-0.2-0.4V91.3c0-0.2,0.1-0.3,0.2-0.4
					l19.7-11.4c0.2-0.1,0.3-0.1,0.5,0l19.7,11.4c0.2,0.1,0.2,0.3,0.2,0.4v22.7c0,0.2-0.1,0.3-0.2,0.4l-19.7,11.4
					C149.6,125.9,149.6,125.9,149.5,125.9z M130.3,113.8l19.2,11.1l19.2-11.1V91.6l-19.2-11.1l-19.2,11.1V113.8z"/>
			</g>
			<g>
				<polygon class="st12" points="169,91.5 149.5,102.8 149.3,125.6 169.2,114.2 				"/>
			</g>
			<g>
				<path class="st3" d="M149.5,126c-0.1,0-0.2,0-0.2-0.1l-19.7-11.4c-0.2-0.1-0.2-0.3-0.2-0.4V91.4c0-0.2,0.1-0.3,0.2-0.4
					l19.7-11.4c0.2-0.1,0.3-0.1,0.5,0L169.4,91c0.2,0.1,0.2,0.3,0.2,0.4v22.7c0,0.2-0.1,0.3-0.2,0.4L149.7,126
					C149.6,126,149.6,126,149.5,126z M130.3,113.9l19.2,11.1l19.2-11.1V91.7l-19.2-11.1l-19.2,11.1V113.9z"/>
			</g>
			<g>
				<polygon class="st7" points="79.4,92.9 99.1,81.6 118.8,92.9 118.8,115.7 99.1,127 79.4,115.7 				"/>
				<path class="st3" d="M99.1,127.5c-0.1,0-0.2,0-0.2-0.1l-19.7-11.4c-0.2-0.1-0.2-0.3-0.2-0.4V92.9c0-0.2,0.1-0.3,0.2-0.4
					l19.7-11.4c0.2-0.1,0.3-0.1,0.5,0L119,92.5c0.2,0.1,0.2,0.3,0.2,0.4v22.7c0,0.2-0.1,0.3-0.2,0.4l-19.7,11.4
					C99.2,127.5,99.1,127.5,99.1,127.5z M79.9,115.4l19.2,11.1l19.2-11.1V93.2L99.1,82.1L79.9,93.2V115.4z"/>
			</g>
			<g>
				<polygon class="st12" points="118.6,93 99,104.3 98.9,127.2 118.7,115.7 				"/>
			</g>
			<g>
				<path class="st3" d="M99,127.6c-0.1,0-0.2,0-0.2-0.1l-19.7-11.4c-0.2-0.1-0.2-0.3-0.2-0.4V93c0-0.2,0.1-0.3,0.2-0.4l19.7-11.4
					c0.2-0.1,0.3-0.1,0.5,0L119,92.5c0.2,0.1,0.2,0.3,0.2,0.4v22.7c0,0.2-0.1,0.3-0.2,0.4l-19.7,11.4
					C99.2,127.6,99.1,127.6,99,127.6z M79.8,115.4L99,126.5l19.2-11.1V93.3L99,82.2L79.8,93.3V115.4z"/>
			</g>
			<g>
				<polygon class="st7" points="104.6,107.5 124.3,96.1 144,107.5 144,130.2 124.3,141.6 104.6,130.2 				"/>
				<path class="st3" d="M124.3,142.1c-0.1,0-0.2,0-0.2-0.1l-19.7-11.4c-0.2-0.1-0.2-0.3-0.2-0.4v-22.7c0-0.2,0.1-0.3,0.2-0.4
					l19.7-11.4c0.2-0.1,0.3-0.1,0.5,0l19.7,11.4c0.2,0.1,0.2,0.3,0.2,0.4v22.7c0,0.2-0.1,0.3-0.2,0.4L124.6,142
					C124.5,142.1,124.4,142.1,124.3,142.1z M105.1,130l19.2,11.1l19.2-11.1v-22.2l-19.2-11.1l-19.2,11.1V130z"/>
			</g>
			<g>
				<polygon class="st12" points="143.9,107.6 124.4,118.9 124.3,141.8 144.1,130.3 				"/>
			</g>
			<g>
				<path class="st3" d="M124.4,142.2c-0.1,0-0.2,0-0.2-0.1l-19.7-11.4c-0.2-0.1-0.2-0.3-0.2-0.4v-22.7c0-0.2,0.1-0.3,0.2-0.4
					l19.7-11.4c0.2-0.1,0.3-0.1,0.5,0l19.7,11.4c0.2,0.1,0.2,0.3,0.2,0.4v22.7c0,0.2-0.1,0.3-0.2,0.4l-19.7,11.4
					C124.6,142.2,124.5,142.2,124.4,142.2z M105.2,130l19.2,11.1l19.2-11.1v-22.2l-19.2-11.1l-19.2,11.1V130z"/>
			</g>
		</g>
		<g>
			<g>
				<polygon class="st7" points="104.6,50.2 124.3,38.9 144,50.2 144,73 124.3,84.3 104.6,73 				"/>
				<path class="st3" d="M124.3,84.8c-0.1,0-0.2,0-0.2-0.1l-19.7-11.4c-0.2-0.1-0.2-0.3-0.2-0.4V50.2c0-0.2,0.1-0.3,0.2-0.4
					l19.7-11.4c0.2-0.1,0.3-0.1,0.5,0l19.7,11.4c0.2,0.1,0.2,0.3,0.2,0.4V73c0,0.2-0.1,0.3-0.2,0.4l-19.7,11.4
					C124.5,84.8,124.4,84.8,124.3,84.8z M105.1,72.7l19.2,11.1l19.2-11.1V50.5l-19.2-11.1l-19.2,11.1V72.7z"/>
			</g>
			<g>
				<polygon class="st12" points="143.9,50.2 124.4,61.6 124.3,84.4 144.1,72.9 				"/>
			</g>
			<g>
				<path class="st3" d="M124.4,84.8c-0.1,0-0.2,0-0.2-0.1l-19.7-11.4c-0.2-0.1-0.2-0.3-0.2-0.4V50.2c0-0.2,0.1-0.3,0.2-0.4
					l19.7-11.4c0.2-0.1,0.3-0.1,0.5,0l19.7,11.4c0.2,0.1,0.2,0.3,0.2,0.4v22.7c0,0.2-0.1,0.3-0.2,0.4l-19.7,11.4
					C124.6,84.8,124.5,84.8,124.4,84.8z M105.2,72.6l19.2,11.1l19.2-11.1V50.5l-19.2-11.1l-19.2,11.1V72.6z"/>
			</g>
			<g>
				<polygon class="st7" points="129.8,64.6 149.5,53.2 169.2,64.6 169.2,87.4 149.5,98.7 129.8,87.4 				"/>
				<path class="st3" d="M149.5,99.2c-0.1,0-0.2,0-0.2-0.1l-19.7-11.4c-0.2-0.1-0.2-0.3-0.2-0.4V64.6c0-0.2,0.1-0.3,0.2-0.4
					l19.7-11.4c0.2-0.1,0.3-0.1,0.5,0l19.7,11.4c0.2,0.1,0.2,0.3,0.2,0.4v22.7c0,0.2-0.1,0.3-0.2,0.4l-19.7,11.4
					C149.6,99.2,149.6,99.2,149.5,99.2z M130.3,87.1l19.2,11.1l19.2-11.1V64.9l-19.2-11.1l-19.2,11.1V87.1z"/>
			</g>
			<g>
				<polygon class="st12" points="169,64.8 149.5,76.1 149.3,98.9 169.2,87.5 				"/>
			</g>
			<g>
				<path class="st3" d="M149.5,99.3c-0.1,0-0.2,0-0.2-0.1l-19.7-11.4c-0.2-0.1-0.2-0.3-0.2-0.4V64.7c0-0.2,0.1-0.3,0.2-0.4
					l19.7-11.4c0.2-0.1,0.3-0.1,0.5,0l19.7,11.4c0.2,0.1,0.2,0.3,0.2,0.4v22.7c0,0.2-0.1,0.3-0.2,0.4l-19.7,11.4
					C149.6,99.3,149.6,99.3,149.5,99.3z M130.3,87.2l19.2,11.1l19.2-11.1V65l-19.2-11.1L130.3,65V87.2z"/>
			</g>
			<g>
				<polygon class="st7" points="79.4,66.2 99.1,54.8 118.8,66.2 118.8,89 99.1,100.3 79.4,89 				"/>
				<path class="st3" d="M99.1,100.8c-0.1,0-0.2,0-0.2-0.1L79.1,89.4c-0.2-0.1-0.2-0.3-0.2-0.4V66.2c0-0.2,0.1-0.3,0.2-0.4
					l19.7-11.4c0.2-0.1,0.3-0.1,0.5,0L119,65.8c0.2,0.1,0.2,0.3,0.2,0.4V89c0,0.2-0.1,0.3-0.2,0.4l-19.7,11.4
					C99.2,100.8,99.1,100.8,99.1,100.8z M79.9,88.7l19.2,11.1l19.2-11.1V66.5L99.1,55.4L79.9,66.5V88.7z"/>
			</g>
			<g>
				<polygon class="st12" points="118.6,66.3 99,77.6 98.9,100.5 118.7,89 				"/>
			</g>
			<g>
				<path class="st3" d="M99,100.9c-0.1,0-0.2,0-0.2-0.1L79.1,89.4c-0.2-0.1-0.2-0.3-0.2-0.4V66.3c0-0.2,0.1-0.3,0.2-0.4l19.7-11.4
					c0.2-0.1,0.3-0.1,0.5,0L119,65.8c0.2,0.1,0.2,0.3,0.2,0.4V89c0,0.2-0.1,0.3-0.2,0.4l-19.7,11.4C99.2,100.9,99.1,100.9,99,100.9z
					 M79.8,88.7L99,99.8l19.2-11.1V66.5L99,55.5L79.8,66.5V88.7z"/>
			</g>
			<g>
				<polygon class="st7" points="104.6,80.8 124.3,69.4 144,80.8 144,103.5 124.3,114.9 104.6,103.5 				"/>
				<path class="st3" d="M124.3,115.4c-0.1,0-0.2,0-0.2-0.1L104.4,104c-0.2-0.1-0.2-0.3-0.2-0.4V80.8c0-0.2,0.1-0.3,0.2-0.4
					L124.1,69c0.2-0.1,0.3-0.1,0.5,0l19.7,11.4c0.2,0.1,0.2,0.3,0.2,0.4v22.7c0,0.2-0.1,0.3-0.2,0.4l-19.7,11.4
					C124.5,115.4,124.4,115.4,124.3,115.4z M105.1,103.2l19.2,11.1l19.2-11.1V81.1L124.3,70l-19.2,11.1V103.2z"/>
			</g>
			<g>
				<polygon class="st12" points="143.9,80.9 124.4,92.2 124.3,115.1 144.1,103.6 				"/>
			</g>
			<g>
				<path class="st3" d="M124.4,115.5c-0.1,0-0.2,0-0.2-0.1L104.4,104c-0.2-0.1-0.2-0.3-0.2-0.4V80.9c0-0.2,0.1-0.3,0.2-0.4
					l19.7-11.4c0.2-0.1,0.3-0.1,0.5,0l19.7,11.4c0.2,0.1,0.2,0.3,0.2,0.4v22.7c0,0.2-0.1,0.3-0.2,0.4l-19.7,11.4
					C124.6,115.5,124.5,115.5,124.4,115.5z M105.2,103.3l19.2,11.1l19.2-11.1V81.2l-19.2-11.1l-19.2,11.1V103.3z"/>
			</g>
		</g>
		<g>
			<g>
				<path class="st3" d="M75.6,77.6c-8.8,0-16-7.2-16-16s7.2-16,16-16s16,7.2,16,16S84.4,77.6,75.6,77.6z"/>
			</g>
			<g>
				<path class="st7" d="M75.6,46.6c8.3,0,15,6.7,15,15s-6.7,15-15,15c-8.3,0-15-6.7-15-15S67.3,46.6,75.6,46.6 M75.6,44.6
					c-9.4,0-17,7.6-17,17s7.6,17,17,17s17-7.6,17-17S85,44.6,75.6,44.6L75.6,44.6z"/>
			</g>
		</g>
		<g>
			<g>
				<path class="st7" d="M78.6,70.4h-6c-1.1,0-2-0.9-2-2v-6c0-1.1,0.9-2,2-2h6c1.1,0,2,0.9,2,2v6C80.6,69.5,79.7,70.4,78.6,70.4z"/>
			</g>
			<g>
				<path class="st7" d="M73.1,61.4c-0.3,0-0.5-0.2-0.5-0.5v-6c0-1.4,1.1-2.5,2.5-2.5h1c1.4,0,2.5,1.1,2.5,2.5v3
					c0,0.3-0.2,0.5-0.5,0.5s-0.5-0.2-0.5-0.5v-3c0-0.8-0.7-1.5-1.5-1.5h-1c-0.8,0-1.5,0.7-1.5,1.5v6C73.6,61.1,73.4,61.4,73.1,61.4z
					"/>
			</g>
		</g>
	</g>
</g>
<g id="Layer_2">
</g>
</svg>
