<?xml version="1.0" encoding="utf-8"?>
<!-- Generator: Adobe Illustrator 19.2.1, SVG Export Plug-In . SVG Version: 6.00 Build 0)  -->
<svg version="1.1" xmlns="http://www.w3.org/2000/svg" xmlns:xlink="http://www.w3.org/1999/xlink" x="0px" y="0px"
	 viewBox="0 0 250 200" style="enable-background:new 0 0 250 200;" xml:space="preserve">
<style type="text/css">
	.st0{fill:none;stroke:#FF405E;stroke-width:1.5;stroke-linejoin:round;stroke-miterlimit:10;}
	.st1{opacity:0.5;}
	.st2{fill:#FF405E;}
	.st3{fill:#14283C;}
	.st4{fill:#36697F;}
	.st5{fill:#F9B32E;}
	.st6{fill:#D2D7DC;}
	.st7{fill:#FFFFFF;}
	.st8{fill:#193340;}
	.st9{fill:none;stroke:#193340;stroke-linejoin:round;stroke-miterlimit:10;stroke-dasharray:6;}
	.st10{clip-path:url(#SVGID_2_);}
	.st11{clip-path:url(#SVGID_4_);}
	.st12{fill:#F2F5F7;}
	.st13{fill:#264C5F;}
	.st14{fill-rule:evenodd;clip-rule:evenodd;fill:#C3D0DB;}
	.st15{clip-path:url(#SVGID_6_);}
	.st16{clip-path:url(#SVGID_8_);}
	.st17{fill:#C3D0DB;}
	.st18{fill-rule:evenodd;clip-rule:evenodd;fill:#FFFFFF;}
	.st19{display:none;}
	.st20{display:inline;}
	.st21{fill:#99B1C1;}
</style>
<g id="Layer_1">
	<g>
		<g class="st1">
			<g>
				<path class="st2" d="M79.7,9.3h-3.8V7.9h3.8V9.3z"/>
				<path class="st2" d="M85.4,9.3h-3.8V7.9h3.8V9.3z"/>
				<path class="st2" d="M91.1,9.3h-3.8V7.9h3.8V9.3z"/>
			</g>
			<g>
				<g>
					<path class="st3" d="M98.6,14.9H76.3c-0.6,0-1-0.4-1-1v0c0-0.6,0.4-1,1-1h22.2c0.6,0,1,0.4,1,1v0
						C99.6,14.4,99.1,14.9,98.6,14.9z"/>
				</g>
				<g>
					<path class="st2" d="M156.1,14.9l-51.5,0c-0.6,0-1-0.4-1-1v0c0-0.6,0.4-1,1-1l51.5,0c0.6,0,1,0.4,1,1v0
						C157.1,14.4,156.7,14.9,156.1,14.9z"/>
				</g>
				<g>
					<path class="st3" d="M112.9,18.9H76.3c-0.6,0-1-0.4-1-1v0c0-0.6,0.4-1,1-1h36.5c0.6,0,1,0.4,1,1v0
						C113.9,18.4,113.4,18.9,112.9,18.9z"/>
				</g>
				<g>
					<path class="st3" d="M112.9,28.8H81.3c-0.6,0-1-0.4-1-1v0c0-0.6,0.4-1,1-1h31.5c0.6,0,1,0.4,1,1v0
						C113.9,28.4,113.4,28.8,112.9,28.8z"/>
				</g>
				<g>
					<path class="st3" d="M103.9,32.9H81.3c-0.6,0-1-0.4-1-1v0c0-0.6,0.4-1,1-1h22.6c0.6,0,1,0.4,1,1v0
						C104.9,32.4,104.4,32.9,103.9,32.9z"/>
				</g>
				<g>
					<path class="st3" d="M112.9,24.8H76.3c-0.6,0-1-0.4-1-1v0c0-0.6,0.4-1,1-1h36.5c0.6,0,1,0.4,1,1v0
						C113.9,24.4,113.4,24.8,112.9,24.8z"/>
				</g>
				<g>
					<path class="st2" d="M173.7,18.9h-54.4c-0.6,0-1-0.4-1-1v0c0-0.6,0.4-1,1-1h54.4c0.6,0,1,0.4,1,1v0
						C174.7,18.4,174.2,18.9,173.7,18.9z"/>
				</g>
				<g>
					<path class="st2" d="M154.6,28.8h-35.3c-0.6,0-1-0.4-1-1v0c0-0.6,0.4-1,1-1l35.3,0c0.6,0,1,0.4,1,1v0
						C155.6,28.4,155.1,28.8,154.6,28.8z"/>
				</g>
				<g>
					<path class="st2" d="M144.3,32.9h-35.3c-0.6,0-1-0.4-1-1v0c0-0.6,0.4-1,1-1h35.3c0.6,0,1,0.4,1,1v0
						C145.3,32.4,144.9,32.9,144.3,32.9z"/>
				</g>
			</g>
			<g>
				<g>
					<path class="st3" d="M98.6,36.8l-22.2,0c-0.6,0-1-0.4-1-1l0,0c0-0.6,0.4-1,1-1h22.2c0.6,0,1,0.4,1,1v0
						C99.6,36.4,99.1,36.8,98.6,36.8z"/>
				</g>
				<g>
					<path class="st4" d="M156.1,36.8h-51.5c-0.6,0-1-0.4-1-1v0c0-0.6,0.4-1,1-1h51.5c0.6,0,1,0.4,1,1v0
						C157.1,36.4,156.7,36.8,156.1,36.8z"/>
				</g>
				<g>
					<path class="st3" d="M112.9,40.8H76.3c-0.6,0-1-0.4-1-1v0c0-0.6,0.4-1,1-1h36.5c0.6,0,1,0.4,1,1l0,0
						C113.9,40.4,113.4,40.8,112.9,40.8z"/>
				</g>
				<g>
					<path class="st3" d="M112.9,50.8H81.3c-0.6,0-1-0.4-1-1l0,0c0-0.6,0.4-1,1-1h31.5c0.6,0,1,0.4,1,1v0
						C113.9,50.3,113.4,50.8,112.9,50.8z"/>
				</g>
				<g>
					<path class="st3" d="M103.9,54.8H81.3c-0.6,0-1-0.4-1-1v0c0-0.6,0.4-1,1-1h22.6c0.6,0,1,0.4,1,1l0,0
						C104.9,54.4,104.4,54.8,103.9,54.8z"/>
				</g>
				<g>
					<path class="st3" d="M112.9,46.8H76.3c-0.6,0-1-0.4-1-1v0c0-0.6,0.4-1,1-1h36.5c0.6,0,1,0.4,1,1v0
						C113.9,46.4,113.4,46.8,112.9,46.8z"/>
				</g>
				<g>
					<path class="st4" d="M173.7,40.8h-54.4c-0.6,0-1-0.4-1-1v0c0-0.6,0.4-1,1-1h54.4c0.6,0,1,0.4,1,1v0
						C174.7,40.4,174.2,40.8,173.7,40.8z"/>
				</g>
				<g>
					<path class="st2" d="M154.6,50.8h-35.3c-0.6,0-1-0.4-1-1v0c0-0.6,0.4-1,1-1h35.3c0.6,0,1,0.4,1,1l0,0
						C155.6,50.3,155.1,50.8,154.6,50.8z"/>
				</g>
				<g>
					<path class="st5" d="M144.3,54.8h-35.3c-0.6,0-1-0.4-1-1v0c0-0.6,0.4-1,1-1h35.3c0.6,0,1,0.4,1,1v0
						C145.3,54.4,144.9,54.8,144.3,54.8z"/>
				</g>
			</g>
		</g>
		<g>
			<rect x="125" y="124" class="st6" width="1" height="68"/>
		</g>
		<g>
			<path class="st6" d="M246.6,153.5h-1v-0.2L125,83.1L4.4,153.4v0.2h-1v-0.5c0-0.2,0.1-0.3,0.2-0.4L124.7,82c0.2-0.1,0.3-0.1,0.5,0
				l121.1,70.6c0.2,0.1,0.2,0.3,0.2,0.4V153.5z"/>
		</g>
		<g>
			<g>
				<path class="st2" d="M43.2,133.6l-2.6-1.5c-0.2-0.1-0.2-0.3-0.2-0.4v-0.3c0-0.2,0.1-0.3,0.2-0.4l2.6-1.5l0.5,0.9l-2.1,1.2
					l2.1,1.2L43.2,133.6z"/>
			</g>
			<g>
				<path class="st2" d="M49,127.2l-0.5-0.9l5.3-3l0.5,0.9L49,127.2z M59.5,121.1l-0.5-0.9l5.3-3l0.5,0.9L59.5,121.1z M70.1,115.1
					l-0.5-0.9l5.3-3l0.5,0.9L70.1,115.1z M80.6,109l-0.5-0.9l5.3-3l0.5,0.9L80.6,109z M91.1,102.9l-0.5-0.9l5.3-3l0.5,0.9
					L91.1,102.9z M101.6,96.8l-0.5-0.9l5.3-3l0.5,0.9L101.6,96.8z M112.1,90.8l-0.5-0.9l5.3-3l0.5,0.9L112.1,90.8z"/>
			</g>
			<g>
				<path class="st2" d="M127.3,84.7l-2.3-1.4l-2.3,1.4l-0.5-0.9l2.6-1.5c0.2-0.1,0.3-0.1,0.5,0l2.6,1.5L127.3,84.7z"/>
			</g>
			<g>
				<path class="st2" d="M201,127.2l-5.3-3l0.5-0.9l5.3,3L201,127.2z M190.5,121.1l-5.3-3l0.5-0.9l5.3,3L190.5,121.1z M179.9,115.1
					l-5.3-3l0.5-0.9l5.3,3L179.9,115.1z M169.4,109l-5.3-3l0.5-0.9l5.3,3L169.4,109z M158.9,102.9l-5.3-3l0.5-0.9l5.3,3L158.9,102.9
					z M148.4,96.8l-5.3-3l0.5-0.9l5.3,3L148.4,96.8z M137.9,90.8l-5.3-3l0.5-0.9l5.3,3L137.9,90.8z"/>
			</g>
			<g>
				<path class="st2" d="M206.8,133.6l-0.5-0.9l2.1-1.2l-2.1-1.2l0.5-0.9l2.6,1.5c0.2,0.1,0.2,0.3,0.2,0.4v0.3
					c0,0.2-0.1,0.3-0.2,0.4L206.8,133.6z"/>
			</g>
			<g>
				<path class="st2" d="M133.4,176.3l-0.5-0.9l5.2-3.1l0.5,0.9L133.4,176.3z M143.9,170.2l-0.5-0.9l5.2-3.1l0.5,0.9L143.9,170.2z
					 M154.4,164.1l-0.5-0.9l5.2-3.1l0.5,0.9L154.4,164.1z M164.9,158l-0.5-0.9l5.2-3.1l0.5,0.9L164.9,158z M175.3,151.9l-0.5-0.9
					l5.2-3.1l0.5,0.9L175.3,151.9z M185.8,145.8l-0.5-0.9l5.2-3.1l0.5,0.9L185.8,145.8z M196.3,139.7l-0.5-0.9l5.2-3.1l0.5,0.9
					L196.3,139.7z"/>
			</g>
			<g>
				<path class="st2" d="M125.3,180.9c-0.1,0-0.2,0-0.3-0.1l-2.6-1.5l0.5-0.9l2.3,1.4l2.3-1.4l0.5,0.9l-2.6,1.5
					C125.5,180.9,125.4,180.9,125.3,180.9z"/>
			</g>
			<g>
				<path class="st2" d="M117.2,176.3l-5.3-3.1l0.5-0.9l5.3,3.1L117.2,176.3z M106.6,170.2l-5.3-3.1l0.5-0.9l5.3,3.1L106.6,170.2z
					 M96.1,164.1l-5.3-3.1l0.5-0.9l5.3,3.1L96.1,164.1z M85.5,158l-5.3-3.1l0.5-0.9l5.3,3.1L85.5,158z M74.9,151.9l-5.3-3.1l0.5-0.9
					l5.3,3.1L74.9,151.9z M64.4,145.8l-5.3-3.1l0.5-0.9l5.3,3.1L64.4,145.8z M53.8,139.7l-5.3-3.1l0.5-0.9l5.3,3.1L53.8,139.7z"/>
			</g>
		</g>
		<g>
			<path class="st2" d="M125,156.7c-0.1,0-0.2,0-0.2-0.1l-63.4-36.6c-0.2-0.1-0.2-0.3-0.2-0.4v-0.2c0-0.2,0.1-0.3,0.2-0.4l63.4-36.6
				c0.2-0.1,0.3-0.1,0.5,0l63.4,36.6c0.2,0.1,0.2,0.3,0.2,0.4v0.2c0,0.2-0.1,0.3-0.2,0.4l-63.4,36.6
				C125.2,156.7,125.1,156.7,125,156.7z M62.4,119.5l62.6,36.2l62.6-36.2L125,83.3L62.4,119.5z"/>
		</g>
		<g>
			<polygon class="st7" points="75.7,61.8 125,33.4 174.3,61.8 174.3,118.7 125,147.2 75.7,118.7 			"/>
			<path class="st8" d="M125,147.7c-0.1,0-0.2,0-0.2-0.1l-49.3-28.5c-0.2-0.1-0.2-0.3-0.2-0.4V61.8c0-0.2,0.1-0.3,0.2-0.4l49.3-28.5
				c0.2-0.1,0.3-0.1,0.5,0l49.3,28.5c0.2,0.1,0.2,0.3,0.2,0.4v56.9c0,0.2-0.1,0.3-0.2,0.4l-49.3,28.5
				C125.2,147.7,125.1,147.7,125,147.7z M76.2,118.4l48.8,28.2l48.8-28.2V62.1L125,33.9L76.2,62.1V118.4z"/>
		</g>
		<g>
			<polygon class="st6" points="174.3,61.8 125,90.3 125,147.2 174.3,118.7 			"/>
		</g>
		<g>
			<polygon class="st7" points="130,87.3 125,90.2 125,95.9 130,93 			"/>
		</g>
		<g>
			<polygon class="st7" points="135,90.1 130,93 130,98.8 135,95.9 			"/>
		</g>
		<g>
			<polygon class="st7" points="135,84.4 130,87.3 130,93 135,90.2 			"/>
		</g>
		<g>
			<polygon class="st7" points="140,87.3 135,90.2 135,95.9 140,93 			"/>
		</g>
		<g>
			<polygon class="st7" points="145,78.6 140,81.5 140,87.3 145,84.4 			"/>
		</g>
		<g>
			<polygon class="st7" points="140,93 135,95.9 135,101.7 140,98.8 			"/>
		</g>
		<g>
			<polygon class="st7" points="130,98.8 125,101.7 125,107.5 130,104.6 			"/>
		</g>
		<g>
			<polygon class="st7" points="145,95.9 140,98.8 140,104.6 145,101.7 			"/>
		</g>
		<g>
			<path class="st8" d="M125,147.7c-0.1,0-0.2,0-0.2-0.1l-49.3-28.5c-0.2-0.1-0.2-0.3-0.2-0.4V61.8c0-0.2,0.1-0.3,0.2-0.4l49.3-28.5
				c0.2-0.1,0.3-0.1,0.5,0l49.3,28.5c0.2,0.1,0.2,0.3,0.2,0.4v56.9c0,0.2-0.1,0.3-0.2,0.4l-49.3,28.5
				C125.2,147.7,125.1,147.7,125,147.7z M76.2,118.4l48.8,28.2l48.8-28.2V62.1L125,33.9L76.2,62.1V118.4z"/>
		</g>
		<g>
			<g>
				
					<rect x="21.7" y="108.6" transform="matrix(0.8688 -0.4952 0.4952 0.8688 -48.6445 34.5361)" class="st3" width="38.3" height="1"/>
			</g>
			<g>
				<g>
					<polygon class="st3" points="56.6,102 57.2,99.7 54.9,99.1 56.2,98.4 58.5,99 57.8,101.3 					"/>
				</g>
			</g>
		</g>
		<g>
			<g>
				
					<rect x="209.3" y="89.9" transform="matrix(0.4953 -0.8687 0.8687 0.4953 11.1721 237.3425)" class="st3" width="1" height="38.3"/>
			</g>
			<g>
				<g>
					<polygon class="st3" points="195.8,99.1 193.5,99.7 194.1,102 192.8,101.3 192.2,99 194.5,98.4 					"/>
				</g>
			</g>
		</g>
		<g>
			<g>
				<g>
					<path class="st3" d="M75.7,77.8c-8.8,0-16-7.2-16-16s7.2-16,16-16s16,7.2,16,16S84.5,77.8,75.7,77.8z"/>
				</g>
				<g>
					<path class="st7" d="M75.7,46.8c8.3,0,15,6.7,15,15s-6.7,15-15,15c-8.3,0-15-6.7-15-15S67.4,46.8,75.7,46.8 M75.7,44.8
						c-9.4,0-17,7.6-17,17s7.6,17,17,17s17-7.6,17-17S85.1,44.8,75.7,44.8L75.7,44.8z"/>
				</g>
			</g>
			<g>
				<path class="st7" d="M84.7,64.6c-0.6,0-1-0.4-1-1c0-4.4-3.6-8-8-8c-4.4,0-8,3.6-8,8c0,0.6-0.4,1-1,1s-1-0.4-1-1
					c0-5.5,4.5-10,10-10s10,4.5,10,10C85.7,64.1,85.2,64.6,84.7,64.6z"/>
			</g>
			<g>
				<path class="st7" d="M74.1,62.8c-0.4,0.9,0,1.9,0.9,2.3c0.9,0.4,1.9,0,2.3-0.9l3-11L74.1,62.8z"/>
				<path class="st7" d="M75.7,65.8c-0.3,0-0.6-0.1-0.9-0.2c-1.1-0.5-1.7-1.9-1.1-3c0,0,0,0,0-0.1l6.2-9.5c0.1-0.2,0.4-0.3,0.6-0.2
					c0.2,0.1,0.3,0.3,0.3,0.6l-3,11c-0.3,0.6-0.7,1-1.3,1.3C76.3,65.8,76,65.8,75.7,65.8z M74.5,63.1c-0.3,0.6,0,1.4,0.7,1.6
					c0.3,0.1,0.7,0.1,1,0c0.3-0.1,0.6-0.4,0.7-0.7l2.1-7.8L74.5,63.1z"/>
			</g>
		</g>
		<g>
			<rect x="56.9" y="114.8" class="st2" width="9.4" height="9.4"/>
			<path class="st7" d="M67.3,125.2H55.9v-11.4h11.4V125.2z M57.9,123.2h7.4v-7.4h-7.4V123.2z"/>
		</g>
		<g>
			<rect x="120.3" y="151.6" class="st2" width="9.4" height="9.4"/>
			<path class="st7" d="M130.7,161.9h-11.4v-11.4h11.4V161.9z M121.3,159.9h7.4v-7.4h-7.4V159.9z"/>
		</g>
		<g>
			<rect x="183" y="114.8" class="st2" width="9.4" height="9.4"/>
			<path class="st7" d="M193.4,125.2H182v-11.4h11.4V125.2z M184,123.2h7.4v-7.4H184V123.2z"/>
		</g>
	</g>
</g>
<g id="Layer_2">
</g>
</svg>
