<?xml version="1.0" encoding="utf-8"?>
<!-- Generator: Adobe Illustrator 19.2.1, SVG Export Plug-In . SVG Version: 6.00 Build 0)  -->
<svg version="1.1" xmlns="http://www.w3.org/2000/svg" xmlns:xlink="http://www.w3.org/1999/xlink" x="0px" y="0px"
	 viewBox="0 0 250 200" style="enable-background:new 0 0 250 200;" xml:space="preserve">
<style type="text/css">
	.st0{fill:none;stroke:#FF405E;stroke-width:1.5;stroke-linejoin:round;stroke-miterlimit:10;}
	.st1{opacity:0.5;}
	.st2{fill:#FF405E;}
	.st3{fill:#14283C;}
	.st4{fill:#36697F;}
	.st5{fill:#F9B32E;}
	.st6{fill:#D2D7DC;}
	.st7{fill:#FFFFFF;}
	.st8{fill:#193340;}
	.st9{fill:none;stroke:#193340;stroke-linejoin:round;stroke-miterlimit:10;stroke-dasharray:6;}
	.st10{clip-path:url(#SVGID_2_);}
	.st11{clip-path:url(#SVGID_4_);}
	.st12{fill:#F2F5F7;}
	.st13{fill:#264C5F;}
	.st14{fill-rule:evenodd;clip-rule:evenodd;fill:#C3D0DB;}
	.st15{clip-path:url(#SVGID_6_);}
	.st16{clip-path:url(#SVGID_8_);}
	.st17{fill:#C3D0DB;}
	.st18{fill-rule:evenodd;clip-rule:evenodd;fill:#FFFFFF;}
	.st19{display:none;}
	.st20{display:inline;}
	.st21{fill:#99B1C1;}
</style>
<g id="Layer_1">
	<g>
		<g>
			<path class="st6" d="M111.9,151.3c-0.1,0-0.2,0-0.2-0.1l-55.4-32c-0.2-0.1-0.2-0.3-0.2-0.4s0.1-0.3,0.2-0.4l55.9-32.3
				c0.2-0.1,0.3-0.1,0.5,0l55.4,32c0.2,0.1,0.2,0.3,0.2,0.4s-0.1,0.3-0.2,0.4l-55.9,32.3C112.1,151.3,112,151.3,111.9,151.3z
				 M57.5,118.8l54.4,31.4l54.9-31.7l-54.4-31.4L57.5,118.8z"/>
		</g>
		<g>
			<path class="st6" d="M165.1,190.8c-0.1,0-0.2,0-0.2-0.1L40.4,119.3c-0.2-0.1-0.3-0.3-0.3-0.4c0-0.2,0.1-0.3,0.2-0.4l72.7-42
				c0.2-0.1,0.3-0.1,0.5,0l124.4,71.4c0.2,0.1,0.3,0.3,0.3,0.4c0,0.2-0.1,0.3-0.2,0.4l-72.7,42C165.3,190.8,165.2,190.8,165.1,190.8
				z M41.7,118.9l123.4,70.9l71.7-41.4L113.4,77.5L41.7,118.9z"/>
		</g>
		<g>
			<path class="st6" d="M111.9,156.1c-0.1,0-0.2,0-0.2-0.1l-64.1-37c-0.2-0.1-0.2-0.3-0.2-0.4s0.1-0.3,0.2-0.4l64.6-37.3
				c0.2-0.1,0.3-0.1,0.5,0l64.1,37c0.2,0.1,0.2,0.3,0.2,0.4s-0.1,0.3-0.2,0.4L112.2,156C112.1,156.1,112,156.1,111.9,156.1z
				 M48.9,118.6l63.1,36.4l63.6-36.7l-63.1-36.4L48.9,118.6z"/>
		</g>
		<g>
			<polygon class="st7" points="62.9,62 112.2,33.6 161.5,62 161.5,118.9 112.2,147.4 62.9,118.9 			"/>
			<path class="st8" d="M112.2,147.9c-0.1,0-0.2,0-0.2-0.1l-49.3-28.5c-0.2-0.1-0.2-0.3-0.2-0.4V62c0-0.2,0.1-0.3,0.2-0.4l49.3-28.5
				c0.2-0.1,0.3-0.1,0.5,0l49.3,28.5c0.2,0.1,0.2,0.3,0.2,0.4v56.9c0,0.2-0.1,0.3-0.2,0.4l-49.3,28.5
				C112.4,147.9,112.3,147.9,112.2,147.9z M63.4,118.7l48.8,28.2l48.8-28.2V62.3l-48.8-28.2L63.4,62.3V118.7z"/>
		</g>
		<g>
			<polygon class="st6" points="161.5,62 112.2,90.5 112.2,147.4 161.5,118.9 			"/>
		</g>
		<g>
			<polygon class="st7" points="117.2,87.5 112.2,90.4 112.2,96.2 117.2,93.3 			"/>
		</g>
		<g>
			<polygon class="st7" points="122.2,90.4 117.2,93.2 117.2,99 122.2,96.1 			"/>
		</g>
		<g>
			<polygon class="st7" points="122.2,84.6 117.2,87.5 117.2,93.3 122.2,90.4 			"/>
		</g>
		<g>
			<polygon class="st7" points="127.2,87.5 122.2,90.4 122.2,96.2 127.2,93.3 			"/>
		</g>
		<g>
			<polygon class="st7" points="132.2,78.8 127.2,81.7 127.2,87.5 132.2,84.6 			"/>
		</g>
		<g>
			<polygon class="st7" points="127.2,93.3 122.2,96.2 122.2,101.9 127.2,99 			"/>
		</g>
		<g>
			<line class="st3" x1="112.8" y1="160.2" x2="185.7" y2="118.5"/>
			
				<rect x="107.3" y="138.8" transform="matrix(0.8677 -0.4971 0.4971 0.8677 -49.5019 92.6394)" class="st6" width="84" height="1"/>
		</g>
		<g>
			<polygon class="st7" points="117.2,99 112.2,101.9 112.2,107.7 117.2,104.8 			"/>
		</g>
		<g>
			<polygon class="st7" points="132.2,96.2 127.2,99 127.2,104.8 132.2,101.9 			"/>
		</g>
		<g>
			<path class="st8" d="M111.9,147.7c-0.1,0-0.2,0-0.2-0.1l-49.3-28.5c-0.2-0.1-0.2-0.3-0.2-0.4V61.8c0-0.2,0.1-0.3,0.2-0.4
				L111.6,33c0.2-0.1,0.3-0.1,0.5,0l49.3,28.5c0.2,0.1,0.2,0.3,0.2,0.4v56.9c0,0.2-0.1,0.3-0.2,0.4l-49.3,28.5
				C112,147.7,112,147.7,111.9,147.7z M63.1,118.5l48.8,28.2l48.8-28.2V62.1L111.9,34L63.1,62.1V118.5z"/>
		</g>
		<g>
			<rect x="172" y="123.6" class="st7" width="6.1" height="6.1"/>
			<path class="st2" d="M178.6,130.3h-7.1v-7.1h7.1V130.3z M172.5,129.3h5.1v-5.1h-5.1V129.3z"/>
		</g>
		<g>
			<g>
				<polygon class="st7" points="142.8,120 172.9,102.6 203.1,120 203.1,154.7 172.9,172.1 142.8,154.7 				"/>
				<path class="st6" d="M172.9,172.7L142.3,155v-35.3l30.6-17.7l30.6,17.7V155L172.9,172.7z M143.3,154.4l29.6,17.1l29.6-17.1
					v-34.2l-29.6-17.1l-29.6,17.1V154.4z"/>
			</g>
			<g>
				<polygon class="st6" points="172.9,172.1 172.9,137.4 203.1,120 203.1,154.7 				"/>
			</g>
			<g>
				<path class="st3" d="M172.9,172.7L142.3,155v-35.3l30.6-17.7l30.6,17.7V155L172.9,172.7z M143.3,154.4l29.6,17.1l29.6-17.1
					v-34.2l-29.6-17.1l-29.6,17.1V154.4z"/>
			</g>
		</g>
		<g>
			<polygon class="st7" points="182.9,137.2 177.9,140.1 177.9,145.9 182.9,143 			"/>
		</g>
		<g>
			<polygon class="st7" points="182.9,131.5 177.9,134.4 177.9,140.2 182.9,137.3 			"/>
		</g>
		<g>
			<polygon class="st7" points="192.9,125.7 187.9,128.6 187.9,134.4 192.9,131.5 			"/>
		</g>
		<g>
			<polygon class="st7" points="187.9,140.2 182.9,143 182.9,148.8 187.9,145.9 			"/>
		</g>
		<g>
			<polygon class="st7" points="177.9,140.2 172.9,143 172.9,148.8 177.9,145.9 			"/>
		</g>
		<g>
			<polygon class="st7" points="177.9,145.9 172.9,148.8 172.9,154.6 177.9,151.7 			"/>
		</g>
		<g>
			<g>
				<path class="st3" d="M62.7,78c-8.8,0-16-7.2-16-16s7.2-16,16-16s16,7.2,16,16S71.5,78,62.7,78z"/>
			</g>
			<g>
				<path class="st7" d="M62.7,47c8.3,0,15,6.7,15,15s-6.7,15-15,15c-8.3,0-15-6.7-15-15S54.4,47,62.7,47 M62.7,45
					c-9.4,0-17,7.6-17,17s7.6,17,17,17s17-7.6,17-17S72,45,62.7,45L62.7,45z"/>
			</g>
		</g>
		<g>
			<defs>
				<polygon id="SVGID_1_" points="203,120.7 172.9,103.3 172.9,68.7 203,86.1 				"/>
			</defs>
			<clipPath id="SVGID_2_">
				<use xlink:href="#SVGID_1_"  style="overflow:visible;"/>
			</clipPath>
			<g class="st10">
				<g>
					<path class="st3" d="M181.4,96.2l-7.2-4.1v-1.2l3.6-1.8c0.5-0.3,0.9-0.5,1.1-0.8c0.2-0.3,0.3-0.6,0.3-1c0-0.5-0.1-1-0.4-1.5
						c-0.3-0.5-0.7-0.9-1.2-1.1c-0.6-0.3-1-0.4-1.3-0.2c-0.3,0.2-0.5,0.6-0.5,1.2l-1.8-1c0-0.6,0.1-1.1,0.4-1.5
						c0.3-0.3,0.7-0.5,1.3-0.5c0.5,0,1.2,0.3,1.9,0.7c1,0.6,1.9,1.3,2.5,2.2c0.6,0.9,0.9,1.8,0.9,2.7c0,0.5-0.1,1-0.5,1.4
						c-0.3,0.4-0.8,0.8-1.5,1.1l-2.6,1.3l5,2.9V96.2z"/>
				</g>
				<g>
					<path class="st3" d="M184,92.4l0.6-5l5.7,3.3v1.5l-4.2-2.5l-0.3,2.4c0.5,0,1,0.2,1.7,0.5c1,0.6,1.8,1.4,2.4,2.3
						c0.6,1,0.8,2,0.8,3.1c0,1.1-0.3,1.8-0.9,2c-0.6,0.3-1.5,0.1-2.6-0.5c-1-0.6-1.8-1.3-2.4-2.2c-0.6-0.9-1-1.9-1-2.8l1.7,1
						c0.1,0.6,0.3,1.1,0.6,1.5s0.7,0.8,1.2,1.1c0.5,0.3,1,0.4,1.3,0.2c0.3-0.2,0.5-0.7,0.5-1.3c0-0.6-0.2-1.3-0.5-1.8
						c-0.3-0.6-0.8-1-1.4-1.4c-0.3-0.2-0.6-0.3-0.8-0.3s-0.5,0-0.7,0.1L184,92.4z"/>
				</g>
				<g>
					<path class="st3" d="M192.7,94.1c0-0.6,0.2-1.1,0.6-1.2c0.4-0.2,1-0.1,1.6,0.3c0.7,0.4,1.2,0.9,1.6,1.6c0.4,0.7,0.6,1.3,0.6,2
						v0.5c0,0.6-0.2,1-0.6,1.2c-0.4,0.2-1,0.1-1.6-0.3c-0.7-0.4-1.2-0.9-1.6-1.5c-0.4-0.6-0.6-1.3-0.6-2V94.1z M194,95.4
						c0,0.3,0.1,0.7,0.3,1c0.2,0.3,0.4,0.6,0.7,0.7c0.3,0.2,0.5,0.2,0.7,0.1c0.2-0.1,0.3-0.3,0.3-0.7V96c0-0.3-0.1-0.7-0.3-1
						c-0.2-0.3-0.4-0.6-0.7-0.7c-0.3-0.2-0.6-0.2-0.7-0.1c-0.2,0.1-0.3,0.3-0.3,0.7V95.4z M195.4,103.5l-0.9-1.1l5.2-5.3l0.9,1.1
						L195.4,103.5z M197.9,103.1c0-0.7,0.2-1.1,0.6-1.2s1,0,1.6,0.3c0.7,0.4,1.2,0.9,1.6,1.5c0.4,0.6,0.6,1.3,0.6,2v0.5
						c0,0.6-0.2,1-0.6,1.2c-0.4,0.2-1,0.1-1.6-0.3c-0.7-0.4-1.2-0.9-1.7-1.6c-0.4-0.6-0.6-1.3-0.6-2V103.1z M199.1,104.4
						c0,0.3,0.1,0.7,0.3,1c0.2,0.3,0.4,0.6,0.7,0.7c0.3,0.2,0.6,0.2,0.7,0.1c0.2-0.1,0.3-0.3,0.3-0.7V105c0-0.3-0.1-0.7-0.3-1
						c-0.2-0.3-0.4-0.6-0.7-0.7c-0.3-0.2-0.5-0.2-0.7-0.1c-0.2,0.1-0.3,0.3-0.3,0.7V104.4z"/>
				</g>
			</g>
		</g>
		<g>
			<defs>
				<polygon id="SVGID_3_" points="151.2,54.3 113.2,32.4 113.2,1.6 151.2,23.5 				"/>
			</defs>
			<clipPath id="SVGID_4_">
				<use xlink:href="#SVGID_3_"  style="overflow:visible;"/>
			</clipPath>
			<g class="st11">
				<g>
					<path class="st3" d="M128.4,22.3l-4.3,7.2l-1.9-1.1l4.3-6.8l-5.5-3.2v-1.4l7.4,4.3V22.3z"/>
				</g>
				<g>
					<path class="st3" d="M131.1,28.2l0.6-5l5.7,3.3V28l-4.2-2.5l-0.3,2.4c0.5,0,1,0.2,1.7,0.5c1,0.6,1.8,1.4,2.4,2.3
						c0.6,1,0.8,2,0.8,3.1c0,1.1-0.3,1.8-0.9,2s-1.5,0.1-2.6-0.5c-1-0.6-1.8-1.3-2.4-2.2c-0.6-0.9-1-1.9-1-2.8l1.7,1
						c0.1,0.6,0.3,1.1,0.6,1.5c0.3,0.5,0.7,0.8,1.2,1.1c0.5,0.3,1,0.4,1.3,0.2c0.3-0.2,0.5-0.7,0.5-1.3c0-0.6-0.2-1.3-0.5-1.8
						c-0.3-0.6-0.8-1-1.4-1.4c-0.3-0.2-0.6-0.3-0.8-0.3s-0.5,0-0.7,0.1L131.1,28.2z"/>
				</g>
				<g>
					<path class="st3" d="M139.8,29.9c0-0.6,0.2-1.1,0.6-1.2c0.4-0.2,1-0.1,1.6,0.3c0.7,0.4,1.2,0.9,1.6,1.6c0.4,0.7,0.6,1.3,0.6,2
						v0.5c0,0.6-0.2,1-0.6,1.2c-0.4,0.2-1,0.1-1.6-0.3c-0.7-0.4-1.2-0.9-1.6-1.5c-0.4-0.6-0.6-1.3-0.6-2V29.9z M141,31.2
						c0,0.3,0.1,0.7,0.3,1c0.2,0.3,0.4,0.6,0.7,0.7c0.3,0.2,0.5,0.2,0.7,0.1c0.2-0.1,0.3-0.3,0.3-0.7v-0.5c0-0.3-0.1-0.7-0.3-1
						c-0.2-0.3-0.4-0.6-0.7-0.7c-0.3-0.2-0.6-0.2-0.7-0.1c-0.2,0.1-0.3,0.3-0.3,0.7V31.2z M142.4,39.3l-0.9-1.1l5.2-5.3l0.9,1.1
						L142.4,39.3z M144.9,38.9c0-0.7,0.2-1.1,0.6-1.2c0.4-0.2,1,0,1.6,0.3c0.7,0.4,1.2,0.9,1.6,1.5c0.4,0.6,0.6,1.3,0.6,2v0.5
						c0,0.6-0.2,1-0.6,1.2c-0.4,0.2-1,0.1-1.6-0.3s-1.2-0.9-1.7-1.6c-0.4-0.6-0.6-1.3-0.6-2V38.9z M146.2,40.2c0,0.3,0.1,0.7,0.3,1
						c0.2,0.3,0.4,0.6,0.7,0.7c0.3,0.2,0.6,0.2,0.7,0.1c0.2-0.1,0.3-0.3,0.3-0.7v-0.5c0-0.3-0.1-0.7-0.3-1c-0.2-0.3-0.4-0.6-0.7-0.7
						c-0.3-0.2-0.5-0.2-0.7-0.1c-0.2,0.1-0.3,0.3-0.3,0.7V40.2z"/>
				</g>
			</g>
		</g>
		<g>
			<line class="st3" x1="109.3" y1="175.3" x2="74.4" y2="155.5"/>
			
				<rect x="91.4" y="145.3" transform="matrix(0.4944 -0.8693 0.8693 0.4944 -97.3208 163.5023)" class="st2" width="1" height="40.1"/>
		</g>
		<g>
			<line class="st12" x1="16.5" y1="149.3" x2="87.4" y2="108.6"/>
			
				<rect x="11.1" y="128.4" transform="matrix(0.8672 -0.498 0.498 0.8672 -57.3227 42.9874)" class="st2" width="81.7" height="1"/>
		</g>
		<g>
			<line class="st2" x1="12.2" y1="191.5" x2="74.4" y2="155.5"/>
			<rect x="7.3" y="172.5" transform="matrix(0.8657 -0.5005 0.5005 0.8657 -81.0227 44.9653)" class="st3" width="72" height="2"/>
		</g>
		<g>
			<line class="st12" x1="109.3" y1="175.3" x2="159" y2="146.8"/>
			
				<rect x="105.5" y="160.6" transform="matrix(0.8677 -0.4971 0.4971 0.8677 -62.3187 87.9975)" class="st2" width="57.3" height="1"/>
		</g>
		<g>
			<circle class="st7" cx="87.4" cy="108.6" r="2.5"/>
			<path class="st2" d="M87.4,111.6c-1.6,0-3-1.3-3-3s1.3-3,3-3s3,1.3,3,3S89,111.6,87.4,111.6z M87.4,106.6c-1.1,0-2,0.9-2,2
				s0.9,2,2,2s2-0.9,2-2S88.4,106.6,87.4,106.6z"/>
		</g>
		<g>
			<circle class="st7" cx="159" cy="146.8" r="2.5"/>
			<path class="st2" d="M159,149.8c-1.6,0-3-1.3-3-3s1.3-3,3-3s3,1.3,3,3S160.6,149.8,159,149.8z M159,144.9c-1.1,0-2,0.9-2,2
				s0.9,2,2,2s2-0.9,2-2S160.1,144.9,159,144.9z"/>
		</g>
		<g>
			<circle class="st4" cx="74.4" cy="155.8" r="5"/>
			<path class="st7" d="M74.4,161.8c-3.3,0-6-2.7-6-6s2.7-6,6-6s6,2.7,6,6S77.8,161.8,74.4,161.8z M74.4,151.8c-2.2,0-4,1.8-4,4
				s1.8,4,4,4s4-1.8,4-4S76.7,151.8,74.4,151.8z"/>
		</g>
		<g>
			<line class="st3" x1="49.9" y1="169.7" x2="16.5" y2="149.3"/>
			
				<rect x="32.7" y="139.9" transform="matrix(0.5217 -0.8531 0.8531 0.5217 -120.2111 104.5908)" class="st2" width="1" height="39.1"/>
		</g>
		<g>
			<line class="st12" x1="62.2" y1="162.3" x2="28.9" y2="142.1"/>
			
				<rect x="45.1" y="132.8" transform="matrix(0.5186 -0.855 0.855 0.5186 -108.2316 112.2589)" class="st2" width="1" height="38.9"/>
		</g>
		<g>
			<circle class="st13" cx="62.2" cy="162.3" r="5"/>
			<path class="st7" d="M62.2,168.3c-3.3,0-6-2.7-6-6s2.7-6,6-6s6,2.7,6,6S65.5,168.3,62.2,168.3z M62.2,158.3c-2.2,0-4,1.8-4,4
				s1.8,4,4,4s4-1.8,4-4S64.4,158.3,62.2,158.3z"/>
		</g>
		<g>
			<circle class="st2" cx="50" cy="169.4" r="5"/>
			<path class="st7" d="M50,175.4c-3.3,0-6-2.7-6-6s2.7-6,6-6s6,2.7,6,6S53.3,175.4,50,175.4z M50,165.4c-2.2,0-4,1.8-4,4s1.8,4,4,4
				s4-1.8,4-4S52.2,165.4,50,165.4z"/>
		</g>
		<g>
			<path class="st7" d="M62.7,71.7c-5.3,0-9.7-4.3-9.7-9.7s4.3-9.7,9.7-9.7c0.6,0,1,0.4,1,1s-0.4,1-1,1c-4.2,0-7.7,3.4-7.7,7.7
				s3.4,7.7,7.7,7.7s7.7-3.4,7.7-7.7c0-0.6,0.4-1,1-1s1,0.4,1,1C72.3,67.4,68,71.7,62.7,71.7z"/>
		</g>
		<g>
			<g>
				<path class="st7" d="M58.5,59.1c0-0.5,0.2-1,0.5-1.4c0.4-0.4,0.8-0.5,1.4-0.5c0.6,0,1.1,0.2,1.4,0.5c0.4,0.4,0.5,0.8,0.5,1.4
					v0.4c0,0.5-0.2,1-0.5,1.3c-0.4,0.3-0.8,0.5-1.4,0.5c-0.6,0-1-0.2-1.4-0.5c-0.4-0.3-0.5-0.8-0.5-1.4V59.1z M59.6,59.6
					c0,0.3,0.1,0.5,0.2,0.7c0.2,0.2,0.4,0.3,0.6,0.3c0.3,0,0.5-0.1,0.6-0.3c0.2-0.2,0.2-0.4,0.2-0.7v-0.5c0-0.3-0.1-0.5-0.2-0.7
					c-0.2-0.2-0.4-0.3-0.6-0.3c-0.3,0-0.5,0.1-0.6,0.3c-0.2,0.2-0.2,0.4-0.2,0.7V59.6z M60.8,65.8L60,65.3l4.4-7.1l0.8,0.4
					L60.8,65.8z M62.9,64.2c0-0.6,0.2-1,0.5-1.4c0.4-0.3,0.8-0.5,1.4-0.5c0.6,0,1,0.2,1.4,0.5c0.4,0.3,0.5,0.8,0.5,1.4v0.4
					c0,0.5-0.2,1-0.5,1.3c-0.3,0.4-0.8,0.5-1.4,0.5c-0.6,0-1.1-0.2-1.4-0.5c-0.4-0.3-0.5-0.8-0.5-1.4V64.2z M64,64.7
					c0,0.3,0.1,0.5,0.2,0.7c0.2,0.2,0.4,0.3,0.6,0.3c0.3,0,0.5-0.1,0.6-0.3c0.2-0.2,0.2-0.4,0.2-0.7v-0.5c0-0.3-0.1-0.5-0.2-0.7
					s-0.4-0.3-0.6-0.3c-0.3,0-0.5,0.1-0.6,0.3c-0.2,0.2-0.2,0.4-0.2,0.7V64.7z"/>
			</g>
		</g>
	</g>
</g>
<g id="Layer_2">
</g>
</svg>
