<?xml version="1.0" encoding="utf-8"?>
<!-- Generator: Adobe Illustrator 19.2.1, SVG Export Plug-In . SVG Version: 6.00 Build 0)  -->
<svg version="1.1" xmlns="http://www.w3.org/2000/svg" xmlns:xlink="http://www.w3.org/1999/xlink" x="0px" y="0px"
	 viewBox="0 0 45 45" style="enable-background:new 0 0 45 45;" xml:space="preserve">
<style type="text/css">
	.st0{fill:none;stroke:#FF405E;stroke-width:1.5;stroke-linejoin:round;stroke-miterlimit:10;}
	.st1{fill:#FF405E;}
	.st2{fill:#264C5F;}
	.st3{fill:#FFFFFF;}
	.st4{fill:#C3D0DB;}
	.st5{fill:#99B1C1;}
	.st6{fill:#F2F5F7;}
	.st7{fill:#14283C;}
	.st8{fill:#6A94A8;}
</style>
<g id="Layer_1">
	<g>
		<g>
			<path class="st2" d="M40.5,28.7H4.5c-1.4,0-2.5-1.1-2.5-2.5V4.5C2,3.2,3.2,2,4.5,2h35.9C41.8,2,43,3.2,43,4.5v21.6
				C43,27.6,41.8,28.7,40.5,28.7z M4.5,3C3.7,3,3,3.7,3,4.5v21.6c0,0.8,0.7,1.5,1.5,1.5h35.9c0.8,0,1.5-0.7,1.5-1.5V4.5
				C42,3.7,41.3,3,40.5,3H4.5z"/>
		</g>
		<g>
			<path class="st2" d="M10.5,43h-6C3.2,43,2,41.8,2,40.5v-6C2,33.1,3.2,32,4.5,32h6c1.4,0,2.5,1.1,2.5,2.5v6
				C13,41.8,11.9,43,10.5,43z M4.5,33C3.7,33,3,33.6,3,34.5v6C3,41.3,3.7,42,4.5,42h6c0.8,0,1.5-0.7,1.5-1.5v-6
				c0-0.8-0.7-1.5-1.5-1.5H4.5z"/>
		</g>
		<g>
			<path class="st2" d="M25.5,43h-6c-1.4,0-2.5-1.1-2.5-2.5v-6c0-1.4,1.1-2.5,2.5-2.5h6c1.4,0,2.5,1.1,2.5,2.5v6
				C28,41.8,26.9,43,25.5,43z M19.5,33c-0.8,0-1.5,0.7-1.5,1.5v6c0,0.8,0.7,1.5,1.5,1.5h6c0.8,0,1.5-0.7,1.5-1.5v-6
				c0-0.8-0.7-1.5-1.5-1.5H19.5z"/>
		</g>
		<g>
			<path class="st2" d="M40.5,43h-6c-1.4,0-2.5-1.1-2.5-2.5v-6c0-1.4,1.1-2.5,2.5-2.5h6c1.4,0,2.5,1.1,2.5,2.5v6
				C43,41.8,41.8,43,40.5,43z M34.5,33c-0.8,0-1.5,0.7-1.5,1.5v6c0,0.8,0.7,1.5,1.5,1.5h6c0.8,0,1.5-0.7,1.5-1.5v-6
				c0-0.8-0.7-1.5-1.5-1.5H34.5z"/>
		</g>
		<g>
			<rect x="7" y="28.5" class="st2" width="1" height="4"/>
		</g>
		<g>
			<rect x="22" y="28.5" class="st2" width="1" height="4"/>
		</g>
		<g>
			<rect x="37" y="28.5" class="st2" width="1" height="4"/>
		</g>
		<g>
			<path class="st1" d="M6.7,22.7c-0.1,0-0.2,0-0.3-0.1c-0.2-0.2-0.2-0.5,0-0.7l7.4-7.9c0.1-0.1,0.2-0.2,0.4-0.2
				c0.1,0,0.3,0.1,0.4,0.2l3.6,4.6l6.4-5.4c0.2-0.2,0.5-0.2,0.6,0l3.7,3.2l7.5-7.8c0.2-0.2,0.5-0.2,0.7,0c0.2,0.2,0.2,0.5,0,0.7
				l-7.8,8.1c-0.2,0.2-0.5,0.2-0.7,0l-3.7-3.2l-6.5,5.5c-0.1,0.1-0.2,0.1-0.4,0.1c-0.1,0-0.3-0.1-0.3-0.2L14,15.1l-7,7.5
				C7,22.7,6.8,22.7,6.7,22.7z"/>
		</g>
		<g>
			<path class="st2" d="M35.3,25.2c-1.9,0-3.4-1.5-3.4-3.4c0-0.3,0.2-0.5,0.5-0.5s0.5,0.2,0.5,0.5c0,1.3,1.1,2.4,2.4,2.4
				s2.4-1.1,2.4-2.4s-1.1-2.4-2.4-2.4c-0.3,0-0.5-0.2-0.5-0.5s0.2-0.5,0.5-0.5c1.9,0,3.4,1.5,3.4,3.4S37.2,25.2,35.3,25.2z"/>
		</g>
		<g>
			<circle class="st3" cx="36.6" cy="8.9" r="1"/>
			<path class="st1" d="M36.6,10.4c-0.8,0-1.5-0.7-1.5-1.5s0.7-1.5,1.5-1.5s1.5,0.7,1.5,1.5S37.5,10.4,36.6,10.4z M36.6,8.4
				c-0.3,0-0.5,0.2-0.5,0.5s0.2,0.5,0.5,0.5s0.5-0.2,0.5-0.5S36.9,8.4,36.6,8.4z"/>
		</g>
		<g>
			<circle class="st3" cx="6.7" cy="22" r="1"/>
			<path class="st1" d="M6.7,23.5c-0.8,0-1.5-0.7-1.5-1.5s0.7-1.5,1.5-1.5s1.5,0.7,1.5,1.5S7.5,23.5,6.7,23.5z M6.7,21.5
				c-0.3,0-0.5,0.2-0.5,0.5s0.2,0.5,0.5,0.5s0.5-0.2,0.5-0.5S7,21.5,6.7,21.5z"/>
		</g>
		<g>
			<path class="st2" d="M13,39.3H2v-3.8h11V39.3z M3,38.3h9v-1.8H3V38.3z"/>
		</g>
		<g>
			<path class="st2" d="M28,39.3H17v-3.8h11V39.3z M18,38.3h9v-1.8h-9V38.3z"/>
		</g>
		<g>
			<path class="st2" d="M43,39.3H32v-3.8h11V39.3z M33,38.3h9v-1.8h-9V38.3z"/>
		</g>
	</g>
</g>
<g id="Layer_2">
</g>
</svg>
