<?xml version="1.0" encoding="utf-8"?>
<!-- Generator: Adobe Illustrator 19.2.1, SVG Export Plug-In . SVG Version: 6.00 Build 0)  -->
<svg version="1.1" xmlns="http://www.w3.org/2000/svg" xmlns:xlink="http://www.w3.org/1999/xlink" x="0px" y="0px"
	 viewBox="0 0 45 45" style="enable-background:new 0 0 45 45;" xml:space="preserve">
<style type="text/css">
	.st0{fill:none;stroke:#FF405E;stroke-width:1.5;stroke-linejoin:round;stroke-miterlimit:10;}
	.st1{fill:#FF405E;}
	.st2{fill:#264C5F;}
	.st3{fill:#FFFFFF;}
	.st4{fill:#C3D0DB;}
	.st5{fill:#99B1C1;}
	.st6{fill:#F2F5F7;}
	.st7{fill:#14283C;}
	.st8{fill:#6A94A8;}
</style>
<g id="Layer_1">
	<g>
		<g>
			<path class="st4" d="M40.5,42.5H4.6c-1.1,0-2-0.9-2-2V4.5c0-1.1,0.9-2,2-2h35.9c1.1,0,2,0.9,2,2v35.9
				C42.5,41.6,41.6,42.5,40.5,42.5z"/>
			<path class="st2" d="M40.5,43H4.6c-1.4,0-2.5-1.1-2.5-2.5V4.5C2.1,3.2,3.2,2,4.6,2h35.9C41.8,2,43,3.2,43,4.5v35.9
				C43,41.8,41.8,43,40.5,43z M4.6,3C3.7,3,3.1,3.7,3.1,4.5v35.9c0,0.8,0.7,1.5,1.5,1.5h35.9c0.8,0,1.5-0.7,1.5-1.5V4.5
				C42,3.7,41.3,3,40.5,3H4.6z"/>
		</g>
		<g>
			<path class="st3" d="M42.5,12.5H2.6v-8c0-1.1,0.9-2,2-2h35.9c1.1,0,2,0.9,2,2V12.5z"/>
			<path class="st2" d="M43,13H2.1V4.5C2.1,3.2,3.2,2,4.6,2h35.9C41.8,2,43,3.2,43,4.5V13z M3.1,12H42V4.5C42,3.7,41.3,3,40.5,3H4.6
				C3.7,3,3.1,3.7,3.1,4.5V12z"/>
		</g>
		<g>
			<path class="st2" d="M21.7,17.4h-10c-0.3,0-0.5-0.2-0.5-0.5s0.2-0.5,0.5-0.5h10c0.3,0,0.5,0.2,0.5,0.5S21.9,17.4,21.7,17.4z"/>
		</g>
		<g>
			<path class="st3" d="M30.5,21.4h-9.8c-0.3,0-0.5-0.2-0.5-0.5s0.2-0.5,0.5-0.5h9.8c0.3,0,0.5,0.2,0.5,0.5S30.7,21.4,30.5,21.4z"/>
		</g>
		<g>
			<path class="st1" d="M16.7,21.4h-5c-0.3,0-0.5-0.2-0.5-0.5s0.2-0.5,0.5-0.5h5c0.3,0,0.5,0.2,0.5,0.5S16.9,21.4,16.7,21.4z"/>
		</g>
		<g>
			<path class="st3" d="M24.3,25.4h-5.6c-0.3,0-0.5-0.2-0.5-0.5s0.2-0.5,0.5-0.5h5.6c0.3,0,0.5,0.2,0.5,0.5S24.6,25.4,24.3,25.4z"/>
		</g>
		<g>
			<path class="st8" d="M14.7,25.4h-3c-0.3,0-0.5-0.2-0.5-0.5s0.2-0.5,0.5-0.5h3c0.3,0,0.5,0.2,0.5,0.5S14.9,25.4,14.7,25.4z"/>
		</g>
		<g>
			<path class="st3" d="M27.7,29.4h-5c-0.3,0-0.5-0.2-0.5-0.5s0.2-0.5,0.5-0.5h5c0.3,0,0.5,0.2,0.5,0.5S27.9,29.4,27.7,29.4z"/>
		</g>
		<g>
			<path class="st2" d="M18.7,29.4h-7c-0.3,0-0.5-0.2-0.5-0.5s0.2-0.5,0.5-0.5h7c0.3,0,0.5,0.2,0.5,0.5S18.9,29.4,18.7,29.4z"/>
		</g>
		<g>
			<path class="st3" d="M30.5,33.4H11.7c-0.3,0-0.5-0.2-0.5-0.5s0.2-0.5,0.5-0.5h18.8c0.3,0,0.5,0.2,0.5,0.5S30.7,33.4,30.5,33.4z"
				/>
		</g>
		<g>
			<path class="st3" d="M30.5,37.4H11.7c-0.3,0-0.5-0.2-0.5-0.5s0.2-0.5,0.5-0.5h18.8c0.3,0,0.5,0.2,0.5,0.5S30.7,37.4,30.5,37.4z"
				/>
		</g>
		<g>
			<path class="st1" d="M8.8,8.5h-3c-0.6,0-1-0.4-1-1s0.4-1,1-1h3c0.6,0,1,0.4,1,1S9.3,8.5,8.8,8.5z"/>
		</g>
		<g>
			<path class="st4" d="M31.4,8h-3c-0.3,0-0.5-0.2-0.5-0.5S28.2,7,28.4,7h3c0.3,0,0.5,0.2,0.5,0.5S31.7,8,31.4,8z"/>
		</g>
		<g>
			<path class="st2" d="M38.4,8h-3c-0.3,0-0.5-0.2-0.5-0.5S35.2,7,35.4,7h3c0.3,0,0.5,0.2,0.5,0.5S38.7,8,38.4,8z"/>
		</g>
		<g>
			<circle class="st3" cx="7.6" cy="16.9" r="1"/>
		</g>
		<g>
			<circle class="st3" cx="7.6" cy="20.9" r="1"/>
		</g>
		<g>
			<circle class="st3" cx="7.6" cy="24.9" r="1"/>
		</g>
		<g>
			<circle class="st3" cx="7.6" cy="28.9" r="1"/>
		</g>
		<g>
			<circle class="st3" cx="7.6" cy="32.9" r="1"/>
		</g>
		<g>
			<circle class="st3" cx="7.6" cy="36.9" r="1"/>
		</g>
	</g>
</g>
<g id="Layer_2">
</g>
</svg>
