<?xml version="1.0" encoding="utf-8"?>
<!-- Generator: Adobe Illustrator 19.2.1, SVG Export Plug-In . SVG Version: 6.00 Build 0)  -->
<svg version="1.1" xmlns="http://www.w3.org/2000/svg" xmlns:xlink="http://www.w3.org/1999/xlink" x="0px" y="0px"
	 viewBox="0 0 250 200" style="enable-background:new 0 0 250 200;" xml:space="preserve">
<style type="text/css">
	.st0{fill:url(#SVGID_1_);}
	.st1{clip-path:url(#SVGID_3_);}
	.st2{fill:#FFFFFF;}
	.st3{fill:#F0F5FA;}
	.st4{fill:#C3D2DC;}
	.st5{fill:#FF405E;}
	.st6{fill:#C3D0DB;}
	.st7{fill:#C3D0DB;stroke:#234B5F;stroke-miterlimit:10;}
	.st8{fill:#142D3C;}
	.st9{fill:#F2F5F7;stroke:#C3D2DC;stroke-miterlimit:10;}
	.st10{fill:#1A3442;}
	.st11{fill:url(#SVGID_4_);}
	.st12{fill:#F2F5F7;}
	.st13{fill:none;stroke:#F2F5F7;stroke-miterlimit:10;}
	.st14{fill:#F2F2F2;}
	.st15{fill:#264C5F;}
	.st16{fill:#14283C;}
	.st17{fill:none;stroke:#C3D0DB;stroke-width:2;stroke-miterlimit:10;}
	.st18{fill:none;stroke:#C3D0DB;stroke-width:2;stroke-linecap:round;stroke-miterlimit:10;}
	.st19{fill:none;stroke:#FF405E;stroke-width:1.5;stroke-linejoin:round;stroke-miterlimit:10;}
	.st20{fill:#6996AA;}
	.st21{fill:#333333;}
	.st22{fill:#FFFFFF;stroke:#F2F2F2;stroke-miterlimit:10;}
	.st23{fill:none;stroke:#FF405E;stroke-miterlimit:10;}
	.st24{fill:#4D4D4D;}
	.st25{fill:none;stroke:#666666;stroke-width:2;stroke-miterlimit:10;}
	.st26{fill:none;stroke:#666666;stroke-width:2;stroke-linecap:round;stroke-miterlimit:10;}
	.st27{fill:#CCCCCC;}
	.st28{fill:#999999;}
	.st29{fill:#E6E6E6;}
	.st30{fill:#808080;}
	.st31{fill:#B3B3B3;}
	.st32{fill:none;stroke:#FFFFFF;stroke-miterlimit:10;}
	.st33{fill:none;stroke:#999999;stroke-width:4;stroke-miterlimit:10;}
	.st34{fill:none;stroke:#234B5F;stroke-miterlimit:10;}
	.st35{fill:#234B5F;}
	.st36{fill:#6A94A8;}
	.st37{clip-path:url(#SVGID_6_);}
	.st38{clip-path:url(#SVGID_8_);}
	.st39{clip-path:url(#SVGID_10_);}
	.st40{clip-path:url(#SVGID_12_);}
	.st41{clip-path:url(#SVGID_14_);}
	.st42{fill-rule:evenodd;clip-rule:evenodd;fill:#C3D0DB;}
	.st43{opacity:0.5;fill:#C3D0DB;}
	.st44{fill:#6991AA;}
	.st45{opacity:0.25;}
	.st46{fill:#F9B32E;}
	.st47{opacity:0.2;}
	.st48{fill:#96A0AA;}
	.st49{fill:#698CAA;}
	.st50{fill:#375F7D;}
	.st51{fill:#23465F;}
	.st52{fill:#37647D;}
	.st53{opacity:0.5;}
	.st54{fill:#36697F;}
	.st55{fill:none;stroke:#D2D7DC;stroke-linejoin:round;stroke-miterlimit:10;}
	.st56{fill:none;stroke:#FF405E;stroke-linejoin:round;}
	.st57{fill:none;stroke:#FF405E;stroke-linejoin:round;stroke-dasharray:6.0738,6.0738;}
	.st58{fill:none;stroke:#FF405E;stroke-linejoin:round;stroke-dasharray:6.0629,6.0629;}
	.st59{fill:none;stroke:#FF405E;stroke-linejoin:round;stroke-dasharray:6.1023,6.1023;}
	.st60{fill:none;stroke:#FF405E;stroke-linejoin:round;stroke-miterlimit:10;}
	.st61{fill:#FFFFFF;stroke:#193340;stroke-linejoin:round;stroke-miterlimit:10;}
	.st62{fill:#D2D7DC;}
	.st63{fill:none;stroke:#193340;stroke-linejoin:round;stroke-miterlimit:10;}
	.st64{fill:none;stroke:#193340;stroke-linejoin:round;stroke-miterlimit:10;stroke-dasharray:6;}
	.st65{fill:none;stroke:#14283C;stroke-linejoin:round;}
	.st66{fill:none;stroke:#FFFFFF;stroke-width:2;stroke-linecap:round;stroke-linejoin:round;stroke-miterlimit:10;}
	.st67{fill:#FFFFFF;stroke:#FFFFFF;stroke-linejoin:round;stroke-miterlimit:10;}
	.st68{fill:#FF405E;stroke:#FFFFFF;stroke-width:2;stroke-miterlimit:10;}
	.st69{fill:#14283C;stroke:#D2D7DC;stroke-linejoin:round;stroke-miterlimit:10;}
	.st70{fill:#FFFFFF;stroke:#FF405E;stroke-miterlimit:10;}
	.st71{fill:#FFFFFF;stroke:#D2D7DC;stroke-miterlimit:10;}
	.st72{fill:none;stroke:#14283C;stroke-miterlimit:10;}
	.st73{clip-path:url(#SVGID_16_);}
	.st74{clip-path:url(#SVGID_18_);}
	.st75{fill:#14283C;stroke:#FF405E;stroke-linejoin:round;stroke-miterlimit:10;}
	.st76{fill:#F2F5F7;stroke:#FF405E;stroke-linejoin:round;stroke-miterlimit:10;}
	.st77{fill:#FF405E;stroke:#14283C;stroke-width:2;stroke-linejoin:round;stroke-miterlimit:10;}
	.st78{fill:#FFFFFF;stroke:#FF405E;stroke-linejoin:round;stroke-miterlimit:10;}
	.st79{fill:#36697F;stroke:#FFFFFF;stroke-width:2;stroke-linejoin:round;stroke-miterlimit:10;}
	.st80{fill:#264C5F;stroke:#FFFFFF;stroke-width:2;stroke-linejoin:round;stroke-miterlimit:10;}
	.st81{fill:#FF405E;stroke:#FFFFFF;stroke-width:2;stroke-linejoin:round;stroke-miterlimit:10;}
	.st82{fill:none;stroke:#FFFFFF;stroke-width:2;stroke-linecap:round;stroke-miterlimit:10;}
	.st83{opacity:0.2;fill:#FF405E;}
	.st84{clip-path:url(#SVGID_20_);}
	.st85{clip-path:url(#SVGID_22_);fill:#C3D0DB;}
	.st86{fill-rule:evenodd;clip-rule:evenodd;fill:#FFFFFF;}
	.st87{display:none;}
	.st88{display:inline;fill:#C3D0DB;}
	.st89{fill:none;stroke:#F2F5F7;stroke-linejoin:round;stroke-miterlimit:10;}
	.st90{fill:none;stroke:#99B1C1;stroke-linejoin:round;stroke-miterlimit:10;}
	.st91{fill:none;stroke:#C3D0DB;stroke-linejoin:round;stroke-miterlimit:10;}
	.st92{fill:#FFFFFF;stroke:#14283C;stroke-linejoin:round;stroke-miterlimit:10;}
	.st93{fill:none;stroke:#14283C;stroke-linejoin:round;stroke-miterlimit:10;}
	.st94{fill:none;stroke:#FFFFFF;stroke-linecap:round;stroke-miterlimit:10;}
	.st95{fill-rule:evenodd;clip-rule:evenodd;fill:#234B5F;}
	.st96{fill-rule:evenodd;clip-rule:evenodd;fill:#F2F5F7;}
	.st97{display:inline;fill:#234B5F;}
	.st98{fill:none;stroke:#FF405E;stroke-linecap:round;stroke-linejoin:round;stroke-miterlimit:10;}
	.st99{fill:#FFFFFF;stroke:#234B5F;stroke-width:2;stroke-linecap:round;stroke-miterlimit:10;}
	.st100{fill:#234B5F;stroke:#C3D0DB;stroke-width:2;stroke-linecap:round;stroke-miterlimit:10;}
	.st101{fill:#234B5F;stroke:#FF405E;stroke-width:2;stroke-linecap:round;stroke-miterlimit:10;}
	.st102{fill:#6996AA;stroke:#C3D0DB;stroke-linecap:round;stroke-miterlimit:10;}
	.st103{fill:#F2F5F7;stroke:#234B5F;stroke-linecap:round;stroke-miterlimit:10;}
	.st104{fill:#37697D;}
	.st105{fill:#FFFFFF;stroke:#1A3442;stroke-linejoin:round;stroke-miterlimit:10;}
	.st106{fill:none;stroke:#1A3442;stroke-linejoin:round;stroke-miterlimit:10;}
	.st107{fill:none;stroke:#1A3442;stroke-linejoin:round;stroke-miterlimit:10;stroke-dasharray:6;}
	.st108{fill:none;stroke:#1A3442;stroke-linejoin:round;}
	.st109{fill:#1A3442;stroke:#D2D7DC;stroke-linejoin:round;stroke-miterlimit:10;}
	.st110{fill:none;stroke:#1A3442;stroke-miterlimit:10;}
	.st111{clip-path:url(#SVGID_24_);}
	.st112{clip-path:url(#SVGID_26_);}
	.st113{fill:#1A3442;stroke:#FF405E;stroke-linejoin:round;stroke-miterlimit:10;}
	.st114{fill:#FF405E;stroke:#1A3442;stroke-width:2;stroke-linejoin:round;stroke-miterlimit:10;}
	.st115{fill:#37697D;stroke:#FFFFFF;stroke-width:2;stroke-linejoin:round;stroke-miterlimit:10;}
	.st116{fill:#234B5F;stroke:#FFFFFF;stroke-width:2;stroke-linejoin:round;stroke-miterlimit:10;}
	.st117{clip-path:url(#SVGID_28_);}
	.st118{clip-path:url(#SVGID_30_);fill:#C3D0DB;}
	.st119{fill:none;stroke:#6996AA;stroke-linejoin:round;stroke-miterlimit:10;}
	.st120{fill:none;stroke:#234B5F;stroke-linecap:round;stroke-linejoin:round;stroke-miterlimit:10;}
	.st121{fill:#FFFFFF;stroke:#FF405E;stroke-linecap:round;stroke-linejoin:round;stroke-miterlimit:10;}
	.st122{fill:#FFFFFF;stroke:#234B5F;stroke-miterlimit:10;}
	.st123{fill:#C3D0DB;stroke:#234B5F;stroke-linecap:round;stroke-miterlimit:10;}
	.st124{fill:#234B5F;stroke:#FFFFFF;stroke-linecap:round;stroke-miterlimit:10;}
	.st125{fill:#FFFFFF;stroke:#FF405E;stroke-linecap:round;stroke-miterlimit:10;}
	.st126{fill:#FFFFFF;stroke:#6996AA;stroke-linecap:round;stroke-miterlimit:10;}
	.st127{fill:none;stroke:#234B5F;stroke-linejoin:round;stroke-miterlimit:10;}
	.st128{fill:none;stroke:#234B5F;stroke-linecap:round;stroke-miterlimit:10;}
	.st129{fill:none;stroke:#FF405E;stroke-linecap:round;stroke-miterlimit:10;}
	.st130{fill:#234B5F;stroke:#234B5F;stroke-linecap:round;stroke-linejoin:round;stroke-miterlimit:10;}
	.st131{fill:#FFFFFF;stroke:#234B5F;stroke-linejoin:round;stroke-miterlimit:10;}
	.st132{fill:none;stroke:#234B5F;stroke-linejoin:round;}
	.st133{fill:none;stroke:#234B5F;stroke-linejoin:round;stroke-dasharray:2.8412,2.8412;}
	.st134{fill:none;stroke:#FF405E;stroke-width:2;stroke-miterlimit:10;}
	.st135{fill:none;stroke:#1A3442;stroke-width:2;stroke-linecap:round;stroke-miterlimit:10;}
	.st136{fill:none;stroke:#FF405E;stroke-width:2;stroke-linecap:round;stroke-miterlimit:10;}
	.st137{fill:none;stroke:#264C5F;stroke-miterlimit:10;}
	.st138{fill:#FFFFFF;stroke:#264C5F;stroke-width:2;stroke-linecap:round;stroke-miterlimit:10;}
	.st139{fill:#264C5F;stroke:#C3D0DB;stroke-width:2;stroke-linecap:round;stroke-miterlimit:10;}
	.st140{fill:#264C5F;stroke:#FF405E;stroke-width:2;stroke-linecap:round;stroke-miterlimit:10;}
	.st141{fill:#99B1C1;stroke:#C3D0DB;stroke-linecap:round;stroke-miterlimit:10;}
	.st142{fill:#F2F5F7;stroke:#264C5F;stroke-linecap:round;stroke-miterlimit:10;}
	.st143{fill:#FFFFFF;stroke:#264C5F;stroke-linejoin:round;stroke-miterlimit:10;}
	.st144{fill:none;stroke:#264C5F;stroke-linejoin:round;stroke-miterlimit:10;}
	.st145{fill:none;stroke:#264C5F;stroke-linejoin:round;}
	.st146{fill:none;stroke:#264C5F;stroke-linejoin:round;stroke-dasharray:2.8412,2.8412;}
	.st147{fill:none;stroke:#14283C;stroke-width:2;stroke-linecap:round;stroke-miterlimit:10;}
	.st148{fill:none;stroke:#264C5F;stroke-linecap:round;stroke-miterlimit:10;}
	.st149{fill:#264C5F;stroke:#264C5F;stroke-linecap:round;stroke-linejoin:round;stroke-miterlimit:10;}
	.st150{fill:#C3D0DB;stroke:#264C5F;stroke-miterlimit:10;}
	.st151{fill:none;stroke:#264C5F;stroke-linecap:round;stroke-linejoin:round;stroke-miterlimit:10;}
	.st152{fill:#FFFFFF;stroke:#264C5F;stroke-miterlimit:10;}
	.st153{fill:#C3D0DB;stroke:#264C5F;stroke-linecap:round;stroke-miterlimit:10;}
	.st154{fill:#264C5F;stroke:#FFFFFF;stroke-linecap:round;stroke-miterlimit:10;}
	.st155{fill:#FFFFFF;stroke:#6A94A8;stroke-linecap:round;stroke-miterlimit:10;}
	.st156{fill:#99B1C1;}
	.st157{fill:url(#SVGID_31_);}
	.st158{fill:url(#SVGID_32_);}
	.st159{clip-path:url(#SVGID_34_);}
	.st160{clip-path:url(#SVGID_36_);}
	.st161{clip-path:url(#SVGID_38_);}
	.st162{clip-path:url(#SVGID_40_);fill:#C3D0DB;}
	.st163{fill:#CED9E2;}
	.st164{fill:none;stroke:#C3D0DB;stroke-miterlimit:10;}
	.st165{clip-path:url(#SVGID_46_);}
	.st166{fill:url(#SVGID_47_);}
	.st167{fill:url(#SVGID_48_);}
	.st168{clip-path:url(#SVGID_50_);}
	.st169{clip-path:url(#SVGID_52_);}
	.st170{clip-path:url(#SVGID_54_);}
	.st171{clip-path:url(#SVGID_56_);fill:#C3D0DB;}
	.st172{opacity:0.5;fill:#FFFFFF;}
	.st173{opacity:0.5;fill:#6991AA;}
	.st174{fill:none;stroke:#EEF1F4;stroke-linejoin:round;stroke-miterlimit:10;}
	.st175{fill:none;stroke:#87A0B3;stroke-linejoin:round;stroke-miterlimit:10;}
	.st176{fill:none;stroke:#B6C4D2;stroke-linejoin:round;stroke-miterlimit:10;}
	.st177{fill:#FFFFFF;stroke:#FB254C;stroke-linejoin:round;stroke-miterlimit:10;}
	.st178{fill:#FFFFFF;stroke:#142D3C;stroke-linejoin:round;stroke-miterlimit:10;}
	.st179{fill:#FFFFFF;stroke:#111E2E;stroke-linejoin:round;stroke-miterlimit:10;}
	.st180{opacity:0.5;fill:#FB415E;}
	.st181{fill:none;stroke:#FB415E;stroke-linejoin:round;stroke-miterlimit:10;}
	.st182{fill:none;stroke:#FB254C;stroke-linejoin:round;}
	.st183{fill:none;stroke:#FB254C;stroke-linejoin:round;stroke-dasharray:5.6571,5.6571;}
	.st184{fill:none;stroke:#142D3C;stroke-miterlimit:10;}
	.st185{fill:none;stroke:#142D3C;stroke-miterlimit:10;stroke-dasharray:5.6571,5.6571;}
	.st186{fill:#EEF1F4;}
	.st187{fill:none;stroke:#111E2E;stroke-linejoin:round;stroke-miterlimit:10;}
	.st188{fill:#FB415E;}
	.st189{fill:#698FA8;}
	.st190{fill:none;stroke:#142D3C;stroke-linejoin:round;stroke-miterlimit:10;}
	.st191{fill:#939EA7;}
	.st192{fill:#193340;}
	.st193{clip-path:url(#SVGID_60_);}
	.st194{clip-path:url(#SVGID_62_);}
	.st195{clip-path:url(#SVGID_64_);}
	.st196{clip-path:url(#SVGID_66_);}
	.st197{display:inline;}
</style>
<g id="Layer_1">
	<g>
		<g>
			<path class="st62" d="M111.9,154.3c-0.1,0-0.2,0-0.2-0.1l-55.4-32c-0.2-0.1-0.2-0.3-0.2-0.4s0.1-0.3,0.2-0.4l55.9-32.3
				c0.2-0.1,0.3-0.1,0.5,0l55.4,32c0.2,0.1,0.2,0.3,0.2,0.4s-0.1,0.3-0.2,0.4l-55.9,32.3C112.1,154.3,112,154.3,111.9,154.3z
				 M57.5,121.8l54.4,31.4l54.9-31.7l-54.4-31.4L57.5,121.8z"/>
		</g>
		<g>
			<path class="st62" d="M165.1,193.8c-0.1,0-0.2,0-0.2-0.1L40.4,122.3c-0.2-0.1-0.3-0.3-0.3-0.4c0-0.2,0.1-0.3,0.2-0.4l72.7-42
				c0.2-0.1,0.3-0.1,0.5,0l124.4,71.4c0.2,0.1,0.3,0.3,0.3,0.4c0,0.2-0.1,0.3-0.2,0.4l-72.7,42C165.3,193.8,165.2,193.8,165.1,193.8
				z M41.7,121.9l123.4,70.9l71.7-41.4L113.4,80.5L41.7,121.9z"/>
		</g>
		<g>
			<path class="st62" d="M111.9,159.1c-0.1,0-0.2,0-0.2-0.1l-64.1-37c-0.2-0.1-0.2-0.3-0.2-0.4s0.1-0.3,0.2-0.4l64.6-37.3
				c0.2-0.1,0.3-0.1,0.5,0l64.1,37c0.2,0.1,0.2,0.3,0.2,0.4s-0.1,0.3-0.2,0.4L112.2,159C112.1,159.1,112,159.1,111.9,159.1z
				 M48.9,121.6l63.1,36.4l63.6-36.7l-63.1-36.4L48.9,121.6z"/>
		</g>
		<g>
			<polygon class="st2" points="62.9,65 112.2,36.6 161.5,65 161.5,121.9 112.2,150.4 62.9,121.9 			"/>
			<path class="st192" d="M112.2,150.9c-0.1,0-0.2,0-0.2-0.1l-49.3-28.5c-0.2-0.1-0.2-0.3-0.2-0.4V65c0-0.2,0.1-0.3,0.2-0.4
				l49.3-28.5c0.2-0.1,0.3-0.1,0.5,0l49.3,28.5c0.2,0.1,0.2,0.3,0.2,0.4v56.9c0,0.2-0.1,0.3-0.2,0.4l-49.3,28.5
				C112.4,150.9,112.3,150.9,112.2,150.9z M63.4,121.7l48.8,28.2l48.8-28.2V65.3l-48.8-28.2L63.4,65.3V121.7z"/>
		</g>
		<g>
			<polygon class="st62" points="161.5,65 112.2,93.5 112.2,150.4 161.5,121.9 			"/>
		</g>
		<g>
			<polygon class="st2" points="117.2,90.5 112.2,93.4 112.2,99.2 117.2,96.3 			"/>
		</g>
		<g>
			<polygon class="st2" points="122.2,93.4 117.2,96.2 117.2,102 122.2,99.1 			"/>
		</g>
		<g>
			<polygon class="st2" points="122.2,87.6 117.2,90.5 117.2,96.3 122.2,93.4 			"/>
		</g>
		<g>
			<polygon class="st2" points="127.2,90.5 122.2,93.4 122.2,99.2 127.2,96.3 			"/>
		</g>
		<g>
			<polygon class="st2" points="132.2,81.8 127.2,84.7 127.2,90.5 132.2,87.6 			"/>
		</g>
		<g>
			<polygon class="st2" points="127.2,96.3 122.2,99.2 122.2,104.9 127.2,102 			"/>
		</g>
		<g>
			<line class="st16" x1="112.8" y1="163.2" x2="185.7" y2="121.5"/>
			
				<rect x="107.3" y="141.8" transform="matrix(0.8677 -0.4971 0.4971 0.8677 -50.9931 93.0363)" class="st62" width="84" height="1"/>
		</g>
		<g>
			<polygon class="st2" points="117.2,102 112.2,104.9 112.2,110.7 117.2,107.8 			"/>
		</g>
		<g>
			<polygon class="st2" points="132.2,99.2 127.2,102 127.2,107.8 132.2,104.9 			"/>
		</g>
		<g>
			<path class="st192" d="M111.9,150.7c-0.1,0-0.2,0-0.2-0.1l-49.3-28.5c-0.2-0.1-0.2-0.3-0.2-0.4V64.8c0-0.2,0.1-0.3,0.2-0.4
				L111.6,36c0.2-0.1,0.3-0.1,0.5,0l49.3,28.5c0.2,0.1,0.2,0.3,0.2,0.4v56.9c0,0.2-0.1,0.3-0.2,0.4l-49.3,28.5
				C112,150.7,112,150.7,111.9,150.7z M63.1,121.5l48.8,28.2l48.8-28.2V65.1L111.9,37L63.1,65.1V121.5z"/>
		</g>
		<g>
			<rect x="172" y="126.6" class="st2" width="6.1" height="6.1"/>
			<path class="st5" d="M178.6,133.3h-7.1v-7.1h7.1V133.3z M172.5,132.3h5.1v-5.1h-5.1V132.3z"/>
		</g>
		<g>
			<g>
				<polygon class="st2" points="142.8,123 172.9,105.6 203.1,123 203.1,157.7 172.9,175.1 142.8,157.7 				"/>
				<path class="st62" d="M172.9,175.7L142.3,158v-35.3l30.6-17.7l30.6,17.7V158L172.9,175.7z M143.3,157.4l29.6,17.1l29.6-17.1
					v-34.2l-29.6-17.1l-29.6,17.1V157.4z"/>
			</g>
			<g>
				<polygon class="st62" points="172.9,175.1 172.9,140.4 203.1,123 203.1,157.7 				"/>
			</g>
			<g>
				<path class="st16" d="M172.9,175.7L142.3,158v-35.3l30.6-17.7l30.6,17.7V158L172.9,175.7z M143.3,157.4l29.6,17.1l29.6-17.1
					v-34.2l-29.6-17.1l-29.6,17.1V157.4z"/>
			</g>
		</g>
		<g>
			<polygon class="st2" points="182.9,140.2 177.9,143.1 177.9,148.9 182.9,146 			"/>
		</g>
		<g>
			<polygon class="st2" points="182.9,134.5 177.9,137.4 177.9,143.2 182.9,140.3 			"/>
		</g>
		<g>
			<polygon class="st2" points="192.9,128.7 187.9,131.6 187.9,137.4 192.9,134.5 			"/>
		</g>
		<g>
			<polygon class="st2" points="187.9,143.2 182.9,146 182.9,151.8 187.9,148.9 			"/>
		</g>
		<g>
			<polygon class="st2" points="177.9,143.2 172.9,146 172.9,151.8 177.9,148.9 			"/>
		</g>
		<g>
			<polygon class="st2" points="177.9,148.9 172.9,151.8 172.9,157.6 177.9,154.7 			"/>
		</g>
		<g>
			<g>
				<path class="st16" d="M62.7,81c-8.8,0-16-7.2-16-16s7.2-16,16-16s16,7.2,16,16S71.5,81,62.7,81z"/>
			</g>
			<g>
				<path class="st2" d="M62.7,50c8.3,0,15,6.7,15,15s-6.7,15-15,15c-8.3,0-15-6.7-15-15S54.4,50,62.7,50 M62.7,48
					c-9.4,0-17,7.6-17,17s7.6,17,17,17s17-7.6,17-17S72,48,62.7,48L62.7,48z"/>
			</g>
		</g>
		<g>
			<defs>
				<polygon id="SVGID_59_" points="203,123.7 172.9,106.3 172.9,71.7 203,89.1 				"/>
			</defs>
			<clipPath id="SVGID_1_">
				<use xlink:href="#SVGID_59_"  style="overflow:visible;"/>
			</clipPath>
			<g style="clip-path:url(#SVGID_1_);">
				<g>
					<path class="st16" d="M181.4,99.2l-7.2-4.1v-1.2l3.6-1.8c0.5-0.3,0.9-0.5,1.1-0.8c0.2-0.3,0.3-0.6,0.3-1c0-0.5-0.1-1-0.4-1.5
						c-0.3-0.5-0.7-0.9-1.2-1.1c-0.6-0.3-1-0.4-1.3-0.2c-0.3,0.2-0.5,0.6-0.5,1.2l-1.8-1c0-0.6,0.1-1.1,0.4-1.5
						c0.3-0.3,0.7-0.5,1.3-0.5c0.5,0,1.2,0.3,1.9,0.7c1,0.6,1.9,1.3,2.5,2.2c0.6,0.9,0.9,1.8,0.9,2.7c0,0.5-0.1,1-0.5,1.4
						c-0.3,0.4-0.8,0.8-1.5,1.1l-2.6,1.3l5,2.9V99.2z"/>
				</g>
				<g>
					<path class="st16" d="M184,95.4l0.6-5l5.7,3.3v1.5l-4.2-2.5l-0.3,2.4c0.5,0,1,0.2,1.7,0.5c1,0.6,1.8,1.4,2.4,2.3
						c0.6,1,0.8,2,0.8,3.1c0,1.1-0.3,1.8-0.9,2c-0.6,0.3-1.5,0.1-2.6-0.5c-1-0.6-1.8-1.3-2.4-2.2c-0.6-0.9-1-1.9-1-2.8l1.7,1
						c0.1,0.6,0.3,1.1,0.6,1.5s0.7,0.8,1.2,1.1c0.5,0.3,1,0.4,1.3,0.2c0.3-0.2,0.5-0.7,0.5-1.3c0-0.6-0.2-1.3-0.5-1.8
						c-0.3-0.6-0.8-1-1.4-1.4c-0.3-0.2-0.6-0.3-0.8-0.3s-0.5,0-0.7,0.1L184,95.4z"/>
				</g>
				<g>
					<path class="st16" d="M192.7,97.1c0-0.6,0.2-1.1,0.6-1.2c0.4-0.2,1-0.1,1.6,0.3c0.7,0.4,1.2,0.9,1.6,1.6c0.4,0.7,0.6,1.3,0.6,2
						v0.5c0,0.6-0.2,1-0.6,1.2c-0.4,0.2-1,0.1-1.6-0.3c-0.7-0.4-1.2-0.9-1.6-1.5c-0.4-0.6-0.6-1.3-0.6-2V97.1z M194,98.4
						c0,0.3,0.1,0.7,0.3,1c0.2,0.3,0.4,0.6,0.7,0.7c0.3,0.2,0.5,0.2,0.7,0.1c0.2-0.1,0.3-0.3,0.3-0.7V99c0-0.3-0.1-0.7-0.3-1
						c-0.2-0.3-0.4-0.6-0.7-0.7c-0.3-0.2-0.6-0.2-0.7-0.1c-0.2,0.1-0.3,0.3-0.3,0.7V98.4z M195.4,106.5l-0.9-1.1l5.2-5.3l0.9,1.1
						L195.4,106.5z M197.9,106.1c0-0.7,0.2-1.1,0.6-1.2s1,0,1.6,0.3c0.7,0.4,1.2,0.9,1.6,1.5c0.4,0.6,0.6,1.3,0.6,2v0.5
						c0,0.6-0.2,1-0.6,1.2c-0.4,0.2-1,0.1-1.6-0.3c-0.7-0.4-1.2-0.9-1.7-1.6c-0.4-0.6-0.6-1.3-0.6-2V106.1z M199.1,107.4
						c0,0.3,0.1,0.7,0.3,1c0.2,0.3,0.4,0.6,0.7,0.7c0.3,0.2,0.6,0.2,0.7,0.1c0.2-0.1,0.3-0.3,0.3-0.7V108c0-0.3-0.1-0.7-0.3-1
						c-0.2-0.3-0.4-0.6-0.7-0.7c-0.3-0.2-0.5-0.2-0.7-0.1c-0.2,0.1-0.3,0.3-0.3,0.7V107.4z"/>
				</g>
			</g>
		</g>
		<g>
			<defs>
				<polygon id="SVGID_61_" points="151.2,57.3 113.2,35.4 113.2,4.6 151.2,26.5 				"/>
			</defs>
			<clipPath id="SVGID_3_">
				<use xlink:href="#SVGID_61_"  style="overflow:visible;"/>
			</clipPath>
			<g class="st1">
				<g>
					<path class="st16" d="M128.4,25.3l-4.3,7.2l-1.9-1.1l4.3-6.8l-5.5-3.2v-1.4l7.4,4.3V25.3z"/>
				</g>
				<g>
					<path class="st16" d="M131.1,31.2l0.6-5l5.7,3.3V31l-4.2-2.5l-0.3,2.4c0.5,0,1,0.2,1.7,0.5c1,0.6,1.8,1.4,2.4,2.3
						c0.6,1,0.8,2,0.8,3.1c0,1.1-0.3,1.8-0.9,2s-1.5,0.1-2.6-0.5c-1-0.6-1.8-1.3-2.4-2.2c-0.6-0.9-1-1.9-1-2.8l1.7,1
						c0.1,0.6,0.3,1.1,0.6,1.5c0.3,0.5,0.7,0.8,1.2,1.1c0.5,0.3,1,0.4,1.3,0.2c0.3-0.2,0.5-0.7,0.5-1.3c0-0.6-0.2-1.3-0.5-1.8
						c-0.3-0.6-0.8-1-1.4-1.4c-0.3-0.2-0.6-0.3-0.8-0.3s-0.5,0-0.7,0.1L131.1,31.2z"/>
				</g>
				<g>
					<path class="st16" d="M139.8,32.9c0-0.6,0.2-1.1,0.6-1.2c0.4-0.2,1-0.1,1.6,0.3c0.7,0.4,1.2,0.9,1.6,1.6c0.4,0.7,0.6,1.3,0.6,2
						v0.5c0,0.6-0.2,1-0.6,1.2c-0.4,0.2-1,0.1-1.6-0.3c-0.7-0.4-1.2-0.9-1.6-1.5c-0.4-0.6-0.6-1.3-0.6-2V32.9z M141,34.2
						c0,0.3,0.1,0.7,0.3,1c0.2,0.3,0.4,0.6,0.7,0.7c0.3,0.2,0.5,0.2,0.7,0.1c0.2-0.1,0.3-0.3,0.3-0.7v-0.5c0-0.3-0.1-0.7-0.3-1
						c-0.2-0.3-0.4-0.6-0.7-0.7c-0.3-0.2-0.6-0.2-0.7-0.1c-0.2,0.1-0.3,0.3-0.3,0.7V34.2z M142.4,42.3l-0.9-1.1l5.2-5.3l0.9,1.1
						L142.4,42.3z M144.9,41.9c0-0.7,0.2-1.1,0.6-1.2c0.4-0.2,1,0,1.6,0.3c0.7,0.4,1.2,0.9,1.6,1.5c0.4,0.6,0.6,1.3,0.6,2v0.5
						c0,0.6-0.2,1-0.6,1.2c-0.4,0.2-1,0.1-1.6-0.3s-1.2-0.9-1.7-1.6c-0.4-0.6-0.6-1.3-0.6-2V41.9z M146.2,43.2c0,0.3,0.1,0.7,0.3,1
						c0.2,0.3,0.4,0.6,0.7,0.7c0.3,0.2,0.6,0.2,0.7,0.1c0.2-0.1,0.3-0.3,0.3-0.7v-0.5c0-0.3-0.1-0.7-0.3-1c-0.2-0.3-0.4-0.6-0.7-0.7
						c-0.3-0.2-0.5-0.2-0.7-0.1c-0.2,0.1-0.3,0.3-0.3,0.7V43.2z"/>
				</g>
			</g>
		</g>
		<g>
			<line class="st16" x1="109.3" y1="178.3" x2="74.4" y2="158.5"/>
			
				<rect x="91.4" y="148.3" transform="matrix(0.4944 -0.8693 0.8693 0.4944 -99.9286 165.0192)" class="st5" width="1" height="40.1"/>
		</g>
		<g>
			<line class="st12" x1="16.5" y1="152.3" x2="87.4" y2="111.6"/>
			<rect x="11.1" y="131.4" transform="matrix(0.8672 -0.498 0.498 0.8672 -58.8168 43.386)" class="st5" width="81.7" height="1"/>
		</g>
		<g>
			<line class="st5" x1="12.2" y1="194.5" x2="74.4" y2="158.5"/>
			
				<rect x="7.3" y="175.5" transform="matrix(0.8657 -0.5005 0.5005 0.8657 -82.5242 45.3681)" class="st16" width="72" height="2"/>
		</g>
		<g>
			<line class="st12" x1="109.3" y1="178.3" x2="159" y2="149.8"/>
			
				<rect x="105.5" y="163.6" transform="matrix(0.8677 -0.4971 0.4971 0.8677 -63.81 88.3944)" class="st5" width="57.3" height="1"/>
		</g>
		<g>
			<circle class="st2" cx="87.4" cy="111.6" r="2.5"/>
			<path class="st5" d="M87.4,114.6c-1.6,0-3-1.3-3-3s1.3-3,3-3s3,1.3,3,3S89,114.6,87.4,114.6z M87.4,109.6c-1.1,0-2,0.9-2,2
				s0.9,2,2,2s2-0.9,2-2S88.4,109.6,87.4,109.6z"/>
		</g>
		<g>
			<circle class="st2" cx="159" cy="149.8" r="2.5"/>
			<path class="st5" d="M159,152.8c-1.6,0-3-1.3-3-3s1.3-3,3-3s3,1.3,3,3S160.6,152.8,159,152.8z M159,147.9c-1.1,0-2,0.9-2,2
				s0.9,2,2,2s2-0.9,2-2S160.1,147.9,159,147.9z"/>
		</g>
		<g>
			<circle class="st54" cx="74.4" cy="158.8" r="5"/>
			<path class="st2" d="M74.4,164.8c-3.3,0-6-2.7-6-6s2.7-6,6-6s6,2.7,6,6S77.8,164.8,74.4,164.8z M74.4,154.8c-2.2,0-4,1.8-4,4
				s1.8,4,4,4s4-1.8,4-4S76.7,154.8,74.4,154.8z"/>
		</g>
		<g>
			<line class="st16" x1="49.9" y1="172.7" x2="16.5" y2="152.3"/>
			
				<rect x="32.7" y="142.9" transform="matrix(0.5217 -0.8531 0.8531 0.5217 -122.7705 106.0257)" class="st5" width="1" height="39.1"/>
		</g>
		<g>
			<line class="st12" x1="62.2" y1="165.3" x2="28.9" y2="145.1"/>
			
				<rect x="45.1" y="135.8" transform="matrix(0.5186 -0.855 0.855 0.5186 -110.7966 113.703)" class="st5" width="1" height="38.9"/>
		</g>
		<g>
			<circle class="st15" cx="62.2" cy="165.3" r="5"/>
			<path class="st2" d="M62.2,171.3c-3.3,0-6-2.7-6-6s2.7-6,6-6s6,2.7,6,6S65.5,171.3,62.2,171.3z M62.2,161.3c-2.2,0-4,1.8-4,4
				s1.8,4,4,4s4-1.8,4-4S64.4,161.3,62.2,161.3z"/>
		</g>
		<g>
			<circle class="st5" cx="50" cy="172.4" r="5"/>
			<path class="st2" d="M50,178.4c-3.3,0-6-2.7-6-6s2.7-6,6-6s6,2.7,6,6S53.3,178.4,50,178.4z M50,168.4c-2.2,0-4,1.8-4,4s1.8,4,4,4
				s4-1.8,4-4S52.2,168.4,50,168.4z"/>
		</g>
		<g>
			<path class="st2" d="M62.7,74.7c-5.3,0-9.7-4.3-9.7-9.7s4.3-9.7,9.7-9.7c0.6,0,1,0.4,1,1s-0.4,1-1,1c-4.2,0-7.7,3.4-7.7,7.7
				s3.4,7.7,7.7,7.7s7.7-3.4,7.7-7.7c0-0.6,0.4-1,1-1s1,0.4,1,1C72.3,70.4,68,74.7,62.7,74.7z"/>
		</g>
		<g>
			<g>
				<path class="st2" d="M58.5,62.1c0-0.5,0.2-1,0.5-1.4c0.4-0.4,0.8-0.5,1.4-0.5c0.6,0,1.1,0.2,1.4,0.5c0.4,0.4,0.5,0.8,0.5,1.4
					v0.4c0,0.5-0.2,1-0.5,1.3c-0.4,0.3-0.8,0.5-1.4,0.5c-0.6,0-1-0.2-1.4-0.5c-0.4-0.3-0.5-0.8-0.5-1.4V62.1z M59.6,62.6
					c0,0.3,0.1,0.5,0.2,0.7c0.2,0.2,0.4,0.3,0.6,0.3c0.3,0,0.5-0.1,0.6-0.3c0.2-0.2,0.2-0.4,0.2-0.7v-0.5c0-0.3-0.1-0.5-0.2-0.7
					c-0.2-0.2-0.4-0.3-0.6-0.3c-0.3,0-0.5,0.1-0.6,0.3c-0.2,0.2-0.2,0.4-0.2,0.7V62.6z M60.8,68.8L60,68.3l4.4-7.1l0.8,0.4
					L60.8,68.8z M62.9,67.2c0-0.6,0.2-1,0.5-1.4c0.4-0.3,0.8-0.5,1.4-0.5c0.6,0,1,0.2,1.4,0.5c0.4,0.3,0.5,0.8,0.5,1.4v0.4
					c0,0.5-0.2,1-0.5,1.3c-0.3,0.4-0.8,0.5-1.4,0.5c-0.6,0-1.1-0.2-1.4-0.5c-0.4-0.3-0.5-0.8-0.5-1.4V67.2z M64,67.7
					c0,0.3,0.1,0.5,0.2,0.7c0.2,0.2,0.4,0.3,0.6,0.3c0.3,0,0.5-0.1,0.6-0.3c0.2-0.2,0.2-0.4,0.2-0.7v-0.5c0-0.3-0.1-0.5-0.2-0.7
					c-0.2-0.2-0.4-0.3-0.6-0.3c-0.3,0-0.5,0.1-0.6,0.3c-0.2,0.2-0.2,0.4-0.2,0.7V67.7z"/>
			</g>
		</g>
	</g>
</g>
<g id="Layer_2">
</g>
</svg>
