<?xml version="1.0" encoding="utf-8"?>
<!-- Generator: Adobe Illustrator 19.2.1, SVG Export Plug-In . SVG Version: 6.00 Build 0)  -->
<svg version="1.1" xmlns="http://www.w3.org/2000/svg" xmlns:xlink="http://www.w3.org/1999/xlink" x="0px" y="0px"
	 viewBox="0 0 250 200" style="enable-background:new 0 0 250 200;" xml:space="preserve">
<style type="text/css">
	.st0{fill:url(#SVGID_1_);}
	.st1{clip-path:url(#SVGID_3_);}
	.st2{fill:#FFFFFF;}
	.st3{fill:#F0F5FA;}
	.st4{fill:#C3D2DC;}
	.st5{fill:#FF405E;}
	.st6{fill:#C3D0DB;}
	.st7{fill:#C3D0DB;stroke:#234B5F;stroke-miterlimit:10;}
	.st8{fill:#142D3C;}
	.st9{fill:#F2F5F7;stroke:#C3D2DC;stroke-miterlimit:10;}
	.st10{fill:#1A3442;}
	.st11{fill:url(#SVGID_4_);}
	.st12{fill:#F2F5F7;}
	.st13{fill:none;stroke:#F2F5F7;stroke-miterlimit:10;}
	.st14{fill:#F2F2F2;}
	.st15{fill:#264C5F;}
	.st16{fill:#14283C;}
	.st17{fill:none;stroke:#C3D0DB;stroke-width:2;stroke-miterlimit:10;}
	.st18{fill:none;stroke:#C3D0DB;stroke-width:2;stroke-linecap:round;stroke-miterlimit:10;}
	.st19{fill:none;stroke:#FF405E;stroke-width:1.5;stroke-linejoin:round;stroke-miterlimit:10;}
	.st20{fill:#6996AA;}
	.st21{fill:#333333;}
	.st22{fill:#FFFFFF;stroke:#F2F2F2;stroke-miterlimit:10;}
	.st23{fill:none;stroke:#FF405E;stroke-miterlimit:10;}
	.st24{fill:#4D4D4D;}
	.st25{fill:none;stroke:#666666;stroke-width:2;stroke-miterlimit:10;}
	.st26{fill:none;stroke:#666666;stroke-width:2;stroke-linecap:round;stroke-miterlimit:10;}
	.st27{fill:#CCCCCC;}
	.st28{fill:#999999;}
	.st29{fill:#E6E6E6;}
	.st30{fill:#808080;}
	.st31{fill:#B3B3B3;}
	.st32{fill:none;stroke:#FFFFFF;stroke-miterlimit:10;}
	.st33{fill:none;stroke:#999999;stroke-width:4;stroke-miterlimit:10;}
	.st34{fill:none;stroke:#234B5F;stroke-miterlimit:10;}
	.st35{fill:#234B5F;}
	.st36{fill:#6A94A8;}
	.st37{clip-path:url(#SVGID_6_);}
	.st38{clip-path:url(#SVGID_8_);}
	.st39{clip-path:url(#SVGID_10_);}
	.st40{clip-path:url(#SVGID_12_);}
	.st41{clip-path:url(#SVGID_14_);}
	.st42{fill-rule:evenodd;clip-rule:evenodd;fill:#C3D0DB;}
	.st43{opacity:0.5;fill:#C3D0DB;}
	.st44{fill:#6991AA;}
	.st45{opacity:0.25;}
	.st46{fill:#F9B32E;}
	.st47{opacity:0.2;}
	.st48{fill:#96A0AA;}
	.st49{fill:#698CAA;}
	.st50{fill:#375F7D;}
	.st51{fill:#23465F;}
	.st52{fill:#37647D;}
	.st53{opacity:0.5;}
	.st54{fill:#36697F;}
	.st55{fill:none;stroke:#D2D7DC;stroke-linejoin:round;stroke-miterlimit:10;}
	.st56{fill:none;stroke:#FF405E;stroke-linejoin:round;}
	.st57{fill:none;stroke:#FF405E;stroke-linejoin:round;stroke-dasharray:6.0738,6.0738;}
	.st58{fill:none;stroke:#FF405E;stroke-linejoin:round;stroke-dasharray:6.0629,6.0629;}
	.st59{fill:none;stroke:#FF405E;stroke-linejoin:round;stroke-dasharray:6.1023,6.1023;}
	.st60{fill:none;stroke:#FF405E;stroke-linejoin:round;stroke-miterlimit:10;}
	.st61{fill:#FFFFFF;stroke:#193340;stroke-linejoin:round;stroke-miterlimit:10;}
	.st62{fill:#D2D7DC;}
	.st63{fill:none;stroke:#193340;stroke-linejoin:round;stroke-miterlimit:10;}
	.st64{fill:none;stroke:#193340;stroke-linejoin:round;stroke-miterlimit:10;stroke-dasharray:6;}
	.st65{fill:none;stroke:#14283C;stroke-linejoin:round;}
	.st66{fill:none;stroke:#FFFFFF;stroke-width:2;stroke-linecap:round;stroke-linejoin:round;stroke-miterlimit:10;}
	.st67{fill:#FFFFFF;stroke:#FFFFFF;stroke-linejoin:round;stroke-miterlimit:10;}
	.st68{fill:#FF405E;stroke:#FFFFFF;stroke-width:2;stroke-miterlimit:10;}
	.st69{fill:#14283C;stroke:#D2D7DC;stroke-linejoin:round;stroke-miterlimit:10;}
	.st70{fill:#FFFFFF;stroke:#FF405E;stroke-miterlimit:10;}
	.st71{fill:#FFFFFF;stroke:#D2D7DC;stroke-miterlimit:10;}
	.st72{fill:none;stroke:#14283C;stroke-miterlimit:10;}
	.st73{clip-path:url(#SVGID_16_);}
	.st74{clip-path:url(#SVGID_18_);}
	.st75{fill:#14283C;stroke:#FF405E;stroke-linejoin:round;stroke-miterlimit:10;}
	.st76{fill:#F2F5F7;stroke:#FF405E;stroke-linejoin:round;stroke-miterlimit:10;}
	.st77{fill:#FF405E;stroke:#14283C;stroke-width:2;stroke-linejoin:round;stroke-miterlimit:10;}
	.st78{fill:#FFFFFF;stroke:#FF405E;stroke-linejoin:round;stroke-miterlimit:10;}
	.st79{fill:#36697F;stroke:#FFFFFF;stroke-width:2;stroke-linejoin:round;stroke-miterlimit:10;}
	.st80{fill:#264C5F;stroke:#FFFFFF;stroke-width:2;stroke-linejoin:round;stroke-miterlimit:10;}
	.st81{fill:#FF405E;stroke:#FFFFFF;stroke-width:2;stroke-linejoin:round;stroke-miterlimit:10;}
	.st82{fill:none;stroke:#FFFFFF;stroke-width:2;stroke-linecap:round;stroke-miterlimit:10;}
	.st83{opacity:0.2;fill:#FF405E;}
	.st84{clip-path:url(#SVGID_20_);}
	.st85{clip-path:url(#SVGID_22_);fill:#C3D0DB;}
	.st86{fill-rule:evenodd;clip-rule:evenodd;fill:#FFFFFF;}
	.st87{display:none;}
	.st88{display:inline;fill:#C3D0DB;}
	.st89{fill:none;stroke:#F2F5F7;stroke-linejoin:round;stroke-miterlimit:10;}
	.st90{fill:none;stroke:#99B1C1;stroke-linejoin:round;stroke-miterlimit:10;}
	.st91{fill:none;stroke:#C3D0DB;stroke-linejoin:round;stroke-miterlimit:10;}
	.st92{fill:#FFFFFF;stroke:#14283C;stroke-linejoin:round;stroke-miterlimit:10;}
	.st93{fill:none;stroke:#14283C;stroke-linejoin:round;stroke-miterlimit:10;}
	.st94{fill:none;stroke:#FFFFFF;stroke-linecap:round;stroke-miterlimit:10;}
	.st95{fill-rule:evenodd;clip-rule:evenodd;fill:#234B5F;}
	.st96{fill-rule:evenodd;clip-rule:evenodd;fill:#F2F5F7;}
	.st97{display:inline;fill:#234B5F;}
	.st98{fill:none;stroke:#FF405E;stroke-linecap:round;stroke-linejoin:round;stroke-miterlimit:10;}
	.st99{fill:#FFFFFF;stroke:#234B5F;stroke-width:2;stroke-linecap:round;stroke-miterlimit:10;}
	.st100{fill:#234B5F;stroke:#C3D0DB;stroke-width:2;stroke-linecap:round;stroke-miterlimit:10;}
	.st101{fill:#234B5F;stroke:#FF405E;stroke-width:2;stroke-linecap:round;stroke-miterlimit:10;}
	.st102{fill:#6996AA;stroke:#C3D0DB;stroke-linecap:round;stroke-miterlimit:10;}
	.st103{fill:#F2F5F7;stroke:#234B5F;stroke-linecap:round;stroke-miterlimit:10;}
	.st104{fill:#37697D;}
	.st105{fill:#FFFFFF;stroke:#1A3442;stroke-linejoin:round;stroke-miterlimit:10;}
	.st106{fill:none;stroke:#1A3442;stroke-linejoin:round;stroke-miterlimit:10;}
	.st107{fill:none;stroke:#1A3442;stroke-linejoin:round;stroke-miterlimit:10;stroke-dasharray:6;}
	.st108{fill:none;stroke:#1A3442;stroke-linejoin:round;}
	.st109{fill:#1A3442;stroke:#D2D7DC;stroke-linejoin:round;stroke-miterlimit:10;}
	.st110{fill:none;stroke:#1A3442;stroke-miterlimit:10;}
	.st111{clip-path:url(#SVGID_24_);}
	.st112{clip-path:url(#SVGID_26_);}
	.st113{fill:#1A3442;stroke:#FF405E;stroke-linejoin:round;stroke-miterlimit:10;}
	.st114{fill:#FF405E;stroke:#1A3442;stroke-width:2;stroke-linejoin:round;stroke-miterlimit:10;}
	.st115{fill:#37697D;stroke:#FFFFFF;stroke-width:2;stroke-linejoin:round;stroke-miterlimit:10;}
	.st116{fill:#234B5F;stroke:#FFFFFF;stroke-width:2;stroke-linejoin:round;stroke-miterlimit:10;}
	.st117{clip-path:url(#SVGID_28_);}
	.st118{clip-path:url(#SVGID_30_);fill:#C3D0DB;}
	.st119{fill:none;stroke:#6996AA;stroke-linejoin:round;stroke-miterlimit:10;}
	.st120{fill:none;stroke:#234B5F;stroke-linecap:round;stroke-linejoin:round;stroke-miterlimit:10;}
	.st121{fill:#FFFFFF;stroke:#FF405E;stroke-linecap:round;stroke-linejoin:round;stroke-miterlimit:10;}
	.st122{fill:#FFFFFF;stroke:#234B5F;stroke-miterlimit:10;}
	.st123{fill:#C3D0DB;stroke:#234B5F;stroke-linecap:round;stroke-miterlimit:10;}
	.st124{fill:#234B5F;stroke:#FFFFFF;stroke-linecap:round;stroke-miterlimit:10;}
	.st125{fill:#FFFFFF;stroke:#FF405E;stroke-linecap:round;stroke-miterlimit:10;}
	.st126{fill:#FFFFFF;stroke:#6996AA;stroke-linecap:round;stroke-miterlimit:10;}
	.st127{fill:none;stroke:#234B5F;stroke-linejoin:round;stroke-miterlimit:10;}
	.st128{fill:none;stroke:#234B5F;stroke-linecap:round;stroke-miterlimit:10;}
	.st129{fill:none;stroke:#FF405E;stroke-linecap:round;stroke-miterlimit:10;}
	.st130{fill:#234B5F;stroke:#234B5F;stroke-linecap:round;stroke-linejoin:round;stroke-miterlimit:10;}
	.st131{fill:#FFFFFF;stroke:#234B5F;stroke-linejoin:round;stroke-miterlimit:10;}
	.st132{fill:none;stroke:#234B5F;stroke-linejoin:round;}
	.st133{fill:none;stroke:#234B5F;stroke-linejoin:round;stroke-dasharray:2.8412,2.8412;}
	.st134{fill:none;stroke:#FF405E;stroke-width:2;stroke-miterlimit:10;}
	.st135{fill:none;stroke:#1A3442;stroke-width:2;stroke-linecap:round;stroke-miterlimit:10;}
	.st136{fill:none;stroke:#FF405E;stroke-width:2;stroke-linecap:round;stroke-miterlimit:10;}
	.st137{fill:none;stroke:#264C5F;stroke-miterlimit:10;}
	.st138{fill:#FFFFFF;stroke:#264C5F;stroke-width:2;stroke-linecap:round;stroke-miterlimit:10;}
	.st139{fill:#264C5F;stroke:#C3D0DB;stroke-width:2;stroke-linecap:round;stroke-miterlimit:10;}
	.st140{fill:#264C5F;stroke:#FF405E;stroke-width:2;stroke-linecap:round;stroke-miterlimit:10;}
	.st141{fill:#99B1C1;stroke:#C3D0DB;stroke-linecap:round;stroke-miterlimit:10;}
	.st142{fill:#F2F5F7;stroke:#264C5F;stroke-linecap:round;stroke-miterlimit:10;}
	.st143{fill:#FFFFFF;stroke:#264C5F;stroke-linejoin:round;stroke-miterlimit:10;}
	.st144{fill:none;stroke:#264C5F;stroke-linejoin:round;stroke-miterlimit:10;}
	.st145{fill:none;stroke:#264C5F;stroke-linejoin:round;}
	.st146{fill:none;stroke:#264C5F;stroke-linejoin:round;stroke-dasharray:2.8412,2.8412;}
	.st147{fill:none;stroke:#14283C;stroke-width:2;stroke-linecap:round;stroke-miterlimit:10;}
	.st148{fill:none;stroke:#264C5F;stroke-linecap:round;stroke-miterlimit:10;}
	.st149{fill:#264C5F;stroke:#264C5F;stroke-linecap:round;stroke-linejoin:round;stroke-miterlimit:10;}
	.st150{fill:#C3D0DB;stroke:#264C5F;stroke-miterlimit:10;}
	.st151{fill:none;stroke:#264C5F;stroke-linecap:round;stroke-linejoin:round;stroke-miterlimit:10;}
	.st152{fill:#FFFFFF;stroke:#264C5F;stroke-miterlimit:10;}
	.st153{fill:#C3D0DB;stroke:#264C5F;stroke-linecap:round;stroke-miterlimit:10;}
	.st154{fill:#264C5F;stroke:#FFFFFF;stroke-linecap:round;stroke-miterlimit:10;}
	.st155{fill:#FFFFFF;stroke:#6A94A8;stroke-linecap:round;stroke-miterlimit:10;}
	.st156{fill:#99B1C1;}
	.st157{fill:url(#SVGID_31_);}
	.st158{fill:url(#SVGID_32_);}
	.st159{clip-path:url(#SVGID_34_);}
	.st160{clip-path:url(#SVGID_36_);}
	.st161{clip-path:url(#SVGID_38_);}
	.st162{clip-path:url(#SVGID_40_);fill:#C3D0DB;}
	.st163{fill:#CED9E2;}
	.st164{fill:none;stroke:#C3D0DB;stroke-miterlimit:10;}
	.st165{clip-path:url(#SVGID_46_);}
	.st166{fill:url(#SVGID_47_);}
	.st167{fill:url(#SVGID_48_);}
	.st168{clip-path:url(#SVGID_50_);}
	.st169{clip-path:url(#SVGID_52_);}
	.st170{clip-path:url(#SVGID_54_);}
	.st171{clip-path:url(#SVGID_56_);fill:#C3D0DB;}
	.st172{opacity:0.5;fill:#FFFFFF;}
	.st173{opacity:0.5;fill:#6991AA;}
	.st174{fill:none;stroke:#EEF1F4;stroke-linejoin:round;stroke-miterlimit:10;}
	.st175{fill:none;stroke:#87A0B3;stroke-linejoin:round;stroke-miterlimit:10;}
	.st176{fill:none;stroke:#B6C4D2;stroke-linejoin:round;stroke-miterlimit:10;}
	.st177{fill:#FFFFFF;stroke:#FB254C;stroke-linejoin:round;stroke-miterlimit:10;}
	.st178{fill:#FFFFFF;stroke:#142D3C;stroke-linejoin:round;stroke-miterlimit:10;}
	.st179{fill:#FFFFFF;stroke:#111E2E;stroke-linejoin:round;stroke-miterlimit:10;}
	.st180{opacity:0.5;fill:#FB415E;}
	.st181{fill:none;stroke:#FB415E;stroke-linejoin:round;stroke-miterlimit:10;}
	.st182{fill:none;stroke:#FB254C;stroke-linejoin:round;}
	.st183{fill:none;stroke:#FB254C;stroke-linejoin:round;stroke-dasharray:5.6571,5.6571;}
	.st184{fill:none;stroke:#142D3C;stroke-miterlimit:10;}
	.st185{fill:none;stroke:#142D3C;stroke-miterlimit:10;stroke-dasharray:5.6571,5.6571;}
	.st186{fill:#EEF1F4;}
	.st187{fill:none;stroke:#111E2E;stroke-linejoin:round;stroke-miterlimit:10;}
	.st188{fill:#FB415E;}
	.st189{fill:#698FA8;}
	.st190{fill:none;stroke:#142D3C;stroke-linejoin:round;stroke-miterlimit:10;}
	.st191{fill:#939EA7;}
	.st192{fill:#193340;}
	.st193{clip-path:url(#SVGID_60_);}
	.st194{clip-path:url(#SVGID_62_);}
	.st195{clip-path:url(#SVGID_64_);}
	.st196{clip-path:url(#SVGID_66_);}
	.st197{display:inline;}
</style>
<g id="Layer_1">
	<g>
		<g class="st53">
			<g>
				<path class="st5" d="M79.7,9.3h-3.8V7.9h3.8V9.3z"/>
				<path class="st5" d="M85.4,9.3h-3.8V7.9h3.8V9.3z"/>
				<path class="st5" d="M91.1,9.3h-3.8V7.9h3.8V9.3z"/>
			</g>
			<g>
				<g>
					<path class="st16" d="M98.6,14.9H76.3c-0.6,0-1-0.4-1-1v0c0-0.6,0.4-1,1-1h22.2c0.6,0,1,0.4,1,1v0
						C99.6,14.4,99.1,14.9,98.6,14.9z"/>
				</g>
				<g>
					<path class="st5" d="M156.1,14.9l-51.5,0c-0.6,0-1-0.4-1-1v0c0-0.6,0.4-1,1-1l51.5,0c0.6,0,1,0.4,1,1v0
						C157.1,14.4,156.7,14.9,156.1,14.9z"/>
				</g>
				<g>
					<path class="st16" d="M112.9,18.9H76.3c-0.6,0-1-0.4-1-1v0c0-0.6,0.4-1,1-1h36.5c0.6,0,1,0.4,1,1v0
						C113.9,18.4,113.4,18.9,112.9,18.9z"/>
				</g>
				<g>
					<path class="st16" d="M112.9,28.8H81.3c-0.6,0-1-0.4-1-1v0c0-0.6,0.4-1,1-1h31.5c0.6,0,1,0.4,1,1v0
						C113.9,28.4,113.4,28.8,112.9,28.8z"/>
				</g>
				<g>
					<path class="st16" d="M103.9,32.9H81.3c-0.6,0-1-0.4-1-1v0c0-0.6,0.4-1,1-1h22.6c0.6,0,1,0.4,1,1v0
						C104.9,32.4,104.4,32.9,103.9,32.9z"/>
				</g>
				<g>
					<path class="st16" d="M112.9,24.8H76.3c-0.6,0-1-0.4-1-1v0c0-0.6,0.4-1,1-1h36.5c0.6,0,1,0.4,1,1v0
						C113.9,24.4,113.4,24.8,112.9,24.8z"/>
				</g>
				<g>
					<path class="st5" d="M173.7,18.9h-54.4c-0.6,0-1-0.4-1-1v0c0-0.6,0.4-1,1-1h54.4c0.6,0,1,0.4,1,1v0
						C174.7,18.4,174.2,18.9,173.7,18.9z"/>
				</g>
				<g>
					<path class="st5" d="M154.6,28.8h-35.3c-0.6,0-1-0.4-1-1v0c0-0.6,0.4-1,1-1l35.3,0c0.6,0,1,0.4,1,1v0
						C155.6,28.4,155.1,28.8,154.6,28.8z"/>
				</g>
				<g>
					<path class="st5" d="M144.3,32.9h-35.3c-0.6,0-1-0.4-1-1v0c0-0.6,0.4-1,1-1h35.3c0.6,0,1,0.4,1,1v0
						C145.3,32.4,144.9,32.9,144.3,32.9z"/>
				</g>
			</g>
			<g>
				<g>
					<path class="st16" d="M98.6,36.8l-22.2,0c-0.6,0-1-0.4-1-1l0,0c0-0.6,0.4-1,1-1h22.2c0.6,0,1,0.4,1,1v0
						C99.6,36.4,99.1,36.8,98.6,36.8z"/>
				</g>
				<g>
					<path class="st54" d="M156.1,36.8h-51.5c-0.6,0-1-0.4-1-1v0c0-0.6,0.4-1,1-1h51.5c0.6,0,1,0.4,1,1v0
						C157.1,36.4,156.7,36.8,156.1,36.8z"/>
				</g>
				<g>
					<path class="st16" d="M112.9,40.8H76.3c-0.6,0-1-0.4-1-1v0c0-0.6,0.4-1,1-1h36.5c0.6,0,1,0.4,1,1l0,0
						C113.9,40.4,113.4,40.8,112.9,40.8z"/>
				</g>
				<g>
					<path class="st16" d="M112.9,50.8H81.3c-0.6,0-1-0.4-1-1l0,0c0-0.6,0.4-1,1-1h31.5c0.6,0,1,0.4,1,1v0
						C113.9,50.3,113.4,50.8,112.9,50.8z"/>
				</g>
				<g>
					<path class="st16" d="M103.9,54.8H81.3c-0.6,0-1-0.4-1-1v0c0-0.6,0.4-1,1-1h22.6c0.6,0,1,0.4,1,1l0,0
						C104.9,54.4,104.4,54.8,103.9,54.8z"/>
				</g>
				<g>
					<path class="st16" d="M112.9,46.8H76.3c-0.6,0-1-0.4-1-1v0c0-0.6,0.4-1,1-1h36.5c0.6,0,1,0.4,1,1v0
						C113.9,46.4,113.4,46.8,112.9,46.8z"/>
				</g>
				<g>
					<path class="st54" d="M173.7,40.8h-54.4c-0.6,0-1-0.4-1-1v0c0-0.6,0.4-1,1-1h54.4c0.6,0,1,0.4,1,1v0
						C174.7,40.4,174.2,40.8,173.7,40.8z"/>
				</g>
				<g>
					<path class="st5" d="M154.6,50.8h-35.3c-0.6,0-1-0.4-1-1v0c0-0.6,0.4-1,1-1h35.3c0.6,0,1,0.4,1,1l0,0
						C155.6,50.3,155.1,50.8,154.6,50.8z"/>
				</g>
				<g>
					<path class="st46" d="M144.3,54.8h-35.3c-0.6,0-1-0.4-1-1v0c0-0.6,0.4-1,1-1h35.3c0.6,0,1,0.4,1,1v0
						C145.3,54.4,144.9,54.8,144.3,54.8z"/>
				</g>
			</g>
		</g>
		<g>
			<rect x="125" y="124" class="st62" width="1" height="68"/>
		</g>
		<g>
			<path class="st62" d="M246.6,153.5h-1v-0.2L125,83.1L4.4,153.4v0.2h-1v-0.5c0-0.2,0.1-0.3,0.2-0.4L124.7,82
				c0.2-0.1,0.3-0.1,0.5,0l121.1,70.6c0.2,0.1,0.2,0.3,0.2,0.4V153.5z"/>
		</g>
		<g>
			<g>
				<path class="st5" d="M43.2,133.6l-2.6-1.5c-0.2-0.1-0.2-0.3-0.2-0.4v-0.3c0-0.2,0.1-0.3,0.2-0.4l2.6-1.5l0.5,0.9l-2.1,1.2
					l2.1,1.2L43.2,133.6z"/>
			</g>
			<g>
				<path class="st5" d="M49,127.2l-0.5-0.9l5.3-3l0.5,0.9L49,127.2z M59.5,121.1l-0.5-0.9l5.3-3l0.5,0.9L59.5,121.1z M70.1,115.1
					l-0.5-0.9l5.3-3l0.5,0.9L70.1,115.1z M80.6,109l-0.5-0.9l5.3-3l0.5,0.9L80.6,109z M91.1,102.9l-0.5-0.9l5.3-3l0.5,0.9
					L91.1,102.9z M101.6,96.8l-0.5-0.9l5.3-3l0.5,0.9L101.6,96.8z M112.1,90.8l-0.5-0.9l5.3-3l0.5,0.9L112.1,90.8z"/>
			</g>
			<g>
				<path class="st5" d="M127.3,84.7l-2.3-1.4l-2.3,1.4l-0.5-0.9l2.6-1.5c0.2-0.1,0.3-0.1,0.5,0l2.6,1.5L127.3,84.7z"/>
			</g>
			<g>
				<path class="st5" d="M201,127.2l-5.3-3l0.5-0.9l5.3,3L201,127.2z M190.5,121.1l-5.3-3l0.5-0.9l5.3,3L190.5,121.1z M179.9,115.1
					l-5.3-3l0.5-0.9l5.3,3L179.9,115.1z M169.4,109l-5.3-3l0.5-0.9l5.3,3L169.4,109z M158.9,102.9l-5.3-3l0.5-0.9l5.3,3L158.9,102.9
					z M148.4,96.8l-5.3-3l0.5-0.9l5.3,3L148.4,96.8z M137.9,90.8l-5.3-3l0.5-0.9l5.3,3L137.9,90.8z"/>
			</g>
			<g>
				<path class="st5" d="M206.8,133.6l-0.5-0.9l2.1-1.2l-2.1-1.2l0.5-0.9l2.6,1.5c0.2,0.1,0.2,0.3,0.2,0.4v0.3
					c0,0.2-0.1,0.3-0.2,0.4L206.8,133.6z"/>
			</g>
			<g>
				<path class="st5" d="M133.4,176.3l-0.5-0.9l5.2-3.1l0.5,0.9L133.4,176.3z M143.9,170.2l-0.5-0.9l5.2-3.1l0.5,0.9L143.9,170.2z
					 M154.4,164.1l-0.5-0.9l5.2-3.1l0.5,0.9L154.4,164.1z M164.9,158l-0.5-0.9l5.2-3.1l0.5,0.9L164.9,158z M175.3,151.9l-0.5-0.9
					l5.2-3.1l0.5,0.9L175.3,151.9z M185.8,145.8l-0.5-0.9l5.2-3.1l0.5,0.9L185.8,145.8z M196.3,139.7l-0.5-0.9l5.2-3.1l0.5,0.9
					L196.3,139.7z"/>
			</g>
			<g>
				<path class="st5" d="M125.3,180.9c-0.1,0-0.2,0-0.3-0.1l-2.6-1.5l0.5-0.9l2.3,1.4l2.3-1.4l0.5,0.9l-2.6,1.5
					C125.5,180.9,125.4,180.9,125.3,180.9z"/>
			</g>
			<g>
				<path class="st5" d="M117.2,176.3l-5.3-3.1l0.5-0.9l5.3,3.1L117.2,176.3z M106.6,170.2l-5.3-3.1l0.5-0.9l5.3,3.1L106.6,170.2z
					 M96.1,164.1l-5.3-3.1l0.5-0.9l5.3,3.1L96.1,164.1z M85.5,158l-5.3-3.1l0.5-0.9l5.3,3.1L85.5,158z M74.9,151.9l-5.3-3.1l0.5-0.9
					l5.3,3.1L74.9,151.9z M64.4,145.8l-5.3-3.1l0.5-0.9l5.3,3.1L64.4,145.8z M53.8,139.7l-5.3-3.1l0.5-0.9l5.3,3.1L53.8,139.7z"/>
			</g>
		</g>
		<g>
			<path class="st5" d="M125,156.7c-0.1,0-0.2,0-0.2-0.1l-63.4-36.6c-0.2-0.1-0.2-0.3-0.2-0.4v-0.2c0-0.2,0.1-0.3,0.2-0.4l63.4-36.6
				c0.2-0.1,0.3-0.1,0.5,0l63.4,36.6c0.2,0.1,0.2,0.3,0.2,0.4v0.2c0,0.2-0.1,0.3-0.2,0.4l-63.4,36.6
				C125.2,156.7,125.1,156.7,125,156.7z M62.4,119.5l62.6,36.2l62.6-36.2L125,83.3L62.4,119.5z"/>
		</g>
		<g>
			<polygon class="st2" points="75.7,61.8 125,33.4 174.3,61.8 174.3,118.7 125,147.2 75.7,118.7 			"/>
			<path class="st192" d="M125,147.7c-0.1,0-0.2,0-0.2-0.1l-49.3-28.5c-0.2-0.1-0.2-0.3-0.2-0.4V61.8c0-0.2,0.1-0.3,0.2-0.4
				l49.3-28.5c0.2-0.1,0.3-0.1,0.5,0l49.3,28.5c0.2,0.1,0.2,0.3,0.2,0.4v56.9c0,0.2-0.1,0.3-0.2,0.4l-49.3,28.5
				C125.2,147.7,125.1,147.7,125,147.7z M76.2,118.4l48.8,28.2l48.8-28.2V62.1L125,33.9L76.2,62.1V118.4z"/>
		</g>
		<g>
			<polygon class="st62" points="174.3,61.8 125,90.3 125,147.2 174.3,118.7 			"/>
		</g>
		<g>
			<polygon class="st2" points="130,87.3 125,90.2 125,95.9 130,93 			"/>
		</g>
		<g>
			<polygon class="st2" points="135,90.1 130,93 130,98.8 135,95.9 			"/>
		</g>
		<g>
			<polygon class="st2" points="135,84.4 130,87.3 130,93 135,90.2 			"/>
		</g>
		<g>
			<polygon class="st2" points="140,87.3 135,90.2 135,95.9 140,93 			"/>
		</g>
		<g>
			<polygon class="st2" points="145,78.6 140,81.5 140,87.3 145,84.4 			"/>
		</g>
		<g>
			<polygon class="st2" points="140,93 135,95.9 135,101.7 140,98.8 			"/>
		</g>
		<g>
			<polygon class="st2" points="130,98.8 125,101.7 125,107.5 130,104.6 			"/>
		</g>
		<g>
			<polygon class="st2" points="145,95.9 140,98.8 140,104.6 145,101.7 			"/>
		</g>
		<g>
			<path class="st192" d="M125,147.7c-0.1,0-0.2,0-0.2-0.1l-49.3-28.5c-0.2-0.1-0.2-0.3-0.2-0.4V61.8c0-0.2,0.1-0.3,0.2-0.4
				l49.3-28.5c0.2-0.1,0.3-0.1,0.5,0l49.3,28.5c0.2,0.1,0.2,0.3,0.2,0.4v56.9c0,0.2-0.1,0.3-0.2,0.4l-49.3,28.5
				C125.2,147.7,125.1,147.7,125,147.7z M76.2,118.4l48.8,28.2l48.8-28.2V62.1L125,33.9L76.2,62.1V118.4z"/>
		</g>
		<g>
			<g>
				
					<rect x="21.7" y="108.6" transform="matrix(0.8688 -0.4952 0.4952 0.8688 -48.6445 34.5361)" class="st16" width="38.3" height="1"/>
			</g>
			<g>
				<g>
					<polygon class="st16" points="56.6,102 57.2,99.7 54.9,99.1 56.2,98.4 58.5,99 57.8,101.3 					"/>
				</g>
			</g>
		</g>
		<g>
			<g>
				
					<rect x="209.3" y="89.9" transform="matrix(0.4953 -0.8687 0.8687 0.4953 11.1721 237.3425)" class="st16" width="1" height="38.3"/>
			</g>
			<g>
				<g>
					<polygon class="st16" points="195.8,99.1 193.5,99.7 194.1,102 192.8,101.3 192.2,99 194.5,98.4 					"/>
				</g>
			</g>
		</g>
		<g>
			<g>
				<g>
					<path class="st16" d="M75.7,77.8c-8.8,0-16-7.2-16-16s7.2-16,16-16s16,7.2,16,16S84.5,77.8,75.7,77.8z"/>
				</g>
				<g>
					<path class="st2" d="M75.7,46.8c8.3,0,15,6.7,15,15s-6.7,15-15,15c-8.3,0-15-6.7-15-15S67.4,46.8,75.7,46.8 M75.7,44.8
						c-9.4,0-17,7.6-17,17s7.6,17,17,17s17-7.6,17-17S85.1,44.8,75.7,44.8L75.7,44.8z"/>
				</g>
			</g>
			<g>
				<path class="st2" d="M84.7,64.6c-0.6,0-1-0.4-1-1c0-4.4-3.6-8-8-8c-4.4,0-8,3.6-8,8c0,0.6-0.4,1-1,1s-1-0.4-1-1
					c0-5.5,4.5-10,10-10s10,4.5,10,10C85.7,64.1,85.2,64.6,84.7,64.6z"/>
			</g>
			<g>
				<path class="st2" d="M74.1,62.8c-0.4,0.9,0,1.9,0.9,2.3c0.9,0.4,1.9,0,2.3-0.9l3-11L74.1,62.8z"/>
				<path class="st2" d="M75.7,65.8c-0.3,0-0.6-0.1-0.9-0.2c-1.1-0.5-1.7-1.9-1.1-3c0,0,0,0,0-0.1l6.2-9.5c0.1-0.2,0.4-0.3,0.6-0.2
					c0.2,0.1,0.3,0.3,0.3,0.6l-3,11c-0.3,0.6-0.7,1-1.3,1.3C76.3,65.8,76,65.8,75.7,65.8z M74.5,63.1c-0.3,0.6,0,1.4,0.7,1.6
					c0.3,0.1,0.7,0.1,1,0c0.3-0.1,0.6-0.4,0.7-0.7l2.1-7.8L74.5,63.1z"/>
			</g>
		</g>
		<g>
			<rect x="56.9" y="114.8" class="st5" width="9.4" height="9.4"/>
			<path class="st2" d="M67.3,125.2H55.9v-11.4h11.4V125.2z M57.9,123.2h7.4v-7.4h-7.4V123.2z"/>
		</g>
		<g>
			<rect x="120.3" y="151.6" class="st5" width="9.4" height="9.4"/>
			<path class="st2" d="M130.7,161.9h-11.4v-11.4h11.4V161.9z M121.3,159.9h7.4v-7.4h-7.4V159.9z"/>
		</g>
		<g>
			<rect x="183" y="114.8" class="st5" width="9.4" height="9.4"/>
			<path class="st2" d="M193.4,125.2H182v-11.4h11.4V125.2z M184,123.2h7.4v-7.4H184V123.2z"/>
		</g>
	</g>
</g>
<g id="Layer_2">
</g>
</svg>
