<?xml version="1.0" encoding="UTF-8" standalone="no"?>
<svg width="273px" height="269px" viewBox="0 0 273 269" version="1.1" xmlns="http://www.w3.org/2000/svg" xmlns:xlink="http://www.w3.org/1999/xlink" xmlns:sketch="http://www.bohemiancoding.com/sketch/ns">
    <!-- Generator: Sketch 3.3.2 (12043) - http://www.bohemiancoding.com/sketch -->
    <title>gce + Shape + Shape + Shape + Shape</title>
    <desc>Created with Sketch.</desc>
    <defs></defs>
    <g id="Page-1" stroke="none" stroke-width="1" fill="none" fill-rule="evenodd" sketch:type="MSPage">
        <g id="gce-+-Shape-+-Shape-+-Shape-+-Shape" sketch:type="MSLayerGroup" transform="translate(-185.000000, -106.000000)">
            <g id="gce-+-Shape-+-Shape-+-Shape" sketch:type="MSShapeGroup">
                <g id="gce">
                    <g id="Page-1">
                        <g id="gce-+-Rectangle-1-+-Shape-+-Shape-+-Shape-+-gce-+-Rectangle-1-+-Shape-+-Shape-+-Shape">
                            <g id="gce-+-Rectangle-1-+-Shape-+-Shape-+-Shape">
                                <rect id="Rectangle-1" x="0" y="0" width="643" height="436"></rect>
                            </g>
                        </g>
                    </g>
                </g>
                <g id="Shape-+-Shape-+-Shape" transform="translate(206.000000, 106.000000)">
                    <path d="M75.2047978,219.549669 C69.8740286,219.549669 64.8394132,217.176159 61.433644,212.874172 L9.60672092,148.344371 C6.20095169,144.042384 4.86825939,138.553642 6.20095169,133.213245 L24.7105671,52.6622517 C25.8951825,47.3218543 29.4490286,43.0198675 34.3355671,40.6463576 L109.26249,4.74701987 C111.631721,3.5602649 114.297106,2.96688742 116.96249,2.96688742 C119.627875,2.96688742 122.293259,3.5602649 124.66249,4.74701987 L199.589413,40.4980132 C204.475952,42.8715232 208.029798,47.1735099 209.214413,52.5139073 L227.724029,133.064901 C228.908644,138.405298 227.724029,143.89404 224.318259,148.196026 L172.491336,212.725828 C169.085567,216.87947 164.050952,219.401325 158.720182,219.401325 L75.2047978,219.549669 L75.2047978,219.549669 Z" id="Shape" fill="#326DE6"></path>
                    <path d="M115.976534,6.97218543 C118.049611,6.97218543 120.122687,7.41721854 122.047687,8.30728477 L196.974611,44.0582781 C200.824611,45.986755 203.786149,49.5470199 204.674611,53.7006623 L223.184226,134.251656 C224.220764,138.553642 223.184226,143.003974 220.370764,146.415894 L168.543841,210.945695 C165.878457,214.357616 161.732303,216.286093 157.438072,216.286093 L74.3669182,216.286093 C70.0726874,216.286093 65.9265336,214.357616 63.261149,210.945695 L11.4342259,146.415894 C8.76884129,143.003974 7.73230283,138.553642 8.62076437,134.251656 L27.1303798,53.7006623 C28.1669182,49.3986755 30.9803798,45.8384106 34.8303798,44.0582781 L109.757303,8.1589404 C111.682303,7.41721854 113.903457,6.97218543 115.976534,6.97218543 L115.976534,6.97218543 Z M115.976534,-1.42108547e-14 L115.976534,-1.42108547e-14 C112.866918,-1.42108547e-14 109.757303,0.741721854 106.795764,2.07682119 L31.8688413,37.9761589 C25.9457644,40.794702 21.7996105,45.986755 20.3188413,52.3655629 L1.80922591,132.916556 C0.328456675,139.295364 1.80922591,145.822517 5.95537975,151.01457 L57.7823028,215.544371 C61.7803798,220.588079 67.8515336,223.406623 74.2188413,223.406623 L157.289995,223.406623 C163.657303,223.406623 169.728457,220.588079 173.726534,215.544371 L225.553457,151.01457 C229.699611,145.970861 231.18038,139.295364 229.699611,132.916556 L211.189995,52.3655629 C209.709226,45.986755 205.563072,40.794702 199.639995,37.9761589 L125.009226,2.07682119 C122.195764,0.741721854 119.086149,-1.42108547e-14 115.976534,-1.42108547e-14 L115.976534,-1.42108547e-14 L115.976534,-1.42108547e-14 Z" id="Shape" fill="#FFFFFF"></path>
                    <path d="M191.748867,127.724503 L191.748867,127.724503 L191.748867,127.724503 C191.60079,127.724503 191.60079,127.724503 191.748867,127.724503 L191.60079,127.724503 C191.452714,127.724503 191.304637,127.724503 191.304637,127.576159 C191.008483,127.576159 190.712329,127.427815 190.416175,127.427815 C189.379637,127.27947 188.491175,127.131126 187.602714,127.131126 C187.158483,127.131126 186.714252,127.131126 186.121944,126.982781 L185.973867,126.982781 C182.864252,126.686093 180.346944,126.389404 177.977714,125.647682 C176.941175,125.202649 176.645021,124.609272 176.348867,124.015894 C176.348867,123.86755 176.20079,123.86755 176.20079,123.719205 L176.20079,123.719205 L174.27579,123.125828 C175.164252,116.301987 174.868098,109.181457 173.239252,102.209272 C171.610406,95.2370861 168.796944,88.7099338 164.946944,82.7761589 L166.427714,81.4410596 L166.427714,81.1443709 C166.427714,80.402649 166.57579,79.6609272 167.168098,78.9192053 C168.945021,77.2874172 171.166175,75.9523179 173.83156,74.3205298 L173.83156,74.3205298 C174.27579,74.0238411 174.720021,73.8754967 175.164252,73.5788079 C176.052714,73.1337748 176.793098,72.6887417 177.68156,72.0953642 C177.829637,71.9470199 178.12579,71.7986755 178.421944,71.5019868 C178.570021,71.3536424 178.718098,71.3536424 178.718098,71.205298 L178.718098,71.205298 C180.791175,69.4251656 181.235406,66.4582781 179.754637,64.5298013 C179.014252,63.4913907 177.68156,62.8980132 176.348867,62.8980132 C175.164252,62.8980132 174.127714,63.3430464 173.091175,64.0847682 L173.091175,64.0847682 L173.091175,64.0847682 C172.943098,64.2331126 172.943098,64.2331126 172.795021,64.381457 C172.498867,64.5298013 172.35079,64.8264901 172.054637,64.9748344 C171.314252,65.7165563 170.721944,66.3099338 170.129637,67.0516556 C169.833483,67.3483444 169.537329,67.7933775 169.093098,68.0900662 L169.093098,68.0900662 C167.020021,70.3152318 165.095021,72.0953642 163.170021,73.4304636 C162.72579,73.7271523 162.28156,73.8754967 161.837329,73.8754967 C161.541175,73.8754967 161.245021,73.8754967 160.948867,73.7271523 L160.652714,73.7271523 L160.652714,73.7271523 L158.87579,74.9139073 C156.95079,72.8370861 154.877714,71.0569536 152.804637,69.2768212 C143.920021,62.3046358 133.110406,58.002649 121.85656,56.9642384 L121.708483,55.0357616 C121.560406,54.8874172 121.560406,54.8874172 121.412329,54.7390728 C120.968098,54.2940397 120.37579,53.8490066 120.227714,52.810596 C120.079637,50.4370861 120.37579,47.7668874 120.671944,44.8 L120.671944,44.6516556 C120.671944,44.2066225 120.820021,43.613245 120.968098,43.1682119 C121.116175,42.2781457 121.264252,41.3880795 121.412329,40.3496689 L121.412329,39.4596026 L121.412329,39.0145695 L121.412329,39.0145695 L121.412329,39.0145695 C121.412329,36.3443709 119.339252,34.1192053 116.821944,34.1192053 C115.637329,34.1192053 114.452714,34.7125828 113.564252,35.602649 C112.67579,36.4927152 112.23156,37.6794702 112.23156,39.0145695 L112.23156,39.0145695 L112.23156,39.0145695 L112.23156,39.3112583 L112.23156,40.2013245 C112.23156,41.2397351 112.379637,42.1298013 112.67579,43.0198675 C112.823867,43.4649007 112.823867,43.9099338 112.971944,44.5033113 L112.971944,44.6516556 C113.268098,47.618543 113.712329,50.2887417 113.416175,52.6622517 C113.268098,53.7006623 112.67579,54.1456954 112.23156,54.5907285 C112.083483,54.7390728 112.083483,54.7390728 111.935406,54.8874172 L111.935406,54.8874172 L111.787329,56.815894 C109.121944,57.1125828 106.45656,57.4092715 103.791175,58.002649 C92.389252,60.5245033 82.3200212,66.3099338 74.4719443,74.6172185 L72.9911751,73.5788079 L72.6950212,73.5788079 C72.3988674,73.5788079 72.1027136,73.7271523 71.8065597,73.7271523 C71.3623289,73.7271523 70.9180982,73.5788079 70.4738674,73.2821192 C68.5488674,71.9470199 66.6238674,70.018543 64.5507905,67.7933775 L64.5507905,67.7933775 C64.2546366,67.4966887 63.9584828,67.0516556 63.514252,66.7549669 C62.9219443,66.013245 62.3296366,65.4198675 61.589252,64.6781457 C61.4411751,64.5298013 61.1450212,64.381457 60.8488674,64.0847682 C60.7007905,63.9364238 60.5527136,63.9364238 60.5527136,63.7880795 L60.5527136,63.7880795 C59.664252,63.0463576 58.4796366,62.6013245 57.2950212,62.6013245 C55.9623289,62.6013245 54.6296366,63.194702 53.889252,64.2331126 C52.4084828,66.1615894 52.8527136,69.1284768 54.9257905,70.9086093 L54.9257905,70.9086093 L54.9257905,70.9086093 C55.0738674,70.9086093 55.0738674,71.0569536 55.2219443,71.0569536 C55.5180982,71.205298 55.6661751,71.5019868 55.9623289,71.6503311 C56.8507905,72.2437086 57.5911751,72.6887417 58.4796366,73.1337748 C58.9238674,73.2821192 59.3680982,73.5788079 59.8123289,73.8754967 L59.8123289,73.8754967 C62.4777136,75.5072848 64.6988674,76.8423841 66.4757905,78.4741722 C67.2161751,79.215894 67.2161751,79.9576159 67.2161751,80.6993377 L67.2161751,80.9960265 L67.2161751,80.9960265 L68.6969443,82.3311258 C68.4007905,82.7761589 68.1046366,83.0728477 67.9565597,83.5178808 C60.5527136,95.2370861 57.739252,109.033113 59.664252,122.680795 L57.739252,123.274172 C57.739252,123.422517 57.5911751,123.422517 57.5911751,123.570861 C57.2950212,124.164238 56.8507905,124.757616 55.9623289,125.202649 C53.7411751,125.944371 51.0757905,126.24106 47.9661751,126.537748 L47.8180982,126.537748 C47.3738674,126.537748 46.7815597,126.537748 46.3373289,126.686093 C45.4488674,126.686093 44.5604059,126.834437 43.5238674,126.982781 C43.2277136,126.982781 42.9315597,127.131126 42.6354059,127.131126 C42.4873289,127.131126 42.339252,127.131126 42.1911751,127.27947 L42.1911751,127.27947 L42.1911751,127.27947 C39.5257905,127.872848 37.8969443,130.394702 38.3411751,132.768212 C38.7854059,134.845033 40.7104059,136.180132 43.0796366,136.180132 C43.5238674,136.180132 43.8200212,136.180132 44.264252,136.031788 L44.264252,136.031788 L44.264252,136.031788 C44.4123289,136.031788 44.5604059,136.031788 44.5604059,135.883444 C44.8565597,135.883444 45.1527136,135.735099 45.4488674,135.735099 C46.4854059,135.438411 47.2257905,135.141722 48.114252,134.696689 C48.5584828,134.548344 49.0027136,134.251656 49.4469443,134.103311 L49.5950212,134.103311 C52.4084828,133.064901 54.9257905,132.174834 57.2950212,131.878146 L57.5911751,131.878146 C58.4796366,131.878146 59.0719443,132.323179 59.5161751,132.619868 C59.664252,132.619868 59.664252,132.768212 59.8123289,132.768212 L59.8123289,132.768212 L61.8854059,132.471523 C65.439252,143.449007 72.2507905,153.239735 81.2834828,160.360265 C83.3565597,161.992053 85.4296366,163.327152 87.6507905,164.662252 L86.7623289,166.590728 C86.7623289,166.739073 86.9104059,166.739073 86.9104059,166.887417 C87.2065597,167.480795 87.5027136,168.222517 87.2065597,169.260927 C86.3180982,171.486093 84.9854059,173.711258 83.3565597,176.233113 L83.3565597,176.381457 C83.0604059,176.82649 82.764252,177.123179 82.4680982,177.568212 C81.8757905,178.309934 81.4315597,179.051656 80.839252,179.941722 C80.6911751,180.090066 80.5430982,180.386755 80.3950212,180.683444 C80.3950212,180.831788 80.2469443,180.980132 80.2469443,180.980132 L80.2469443,180.980132 L80.2469443,180.980132 C79.0623289,183.501987 79.9507905,186.32053 82.1719443,187.35894 C82.764252,187.655629 83.3565597,187.803974 83.9488674,187.803974 C85.7257905,187.803974 87.5027136,186.617219 88.3911751,184.98543 L88.3911751,184.98543 L88.3911751,184.98543 C88.3911751,184.837086 88.539252,184.688742 88.539252,184.688742 C88.6873289,184.392053 88.8354059,184.095364 88.9834828,183.94702 C89.4277136,182.908609 89.5757905,182.166887 89.8719443,181.276821 C90.0200212,180.831788 90.1680982,180.386755 90.3161751,179.941722 L90.3161751,179.941722 C91.3527136,176.974834 92.0930982,174.601325 93.4257905,172.524503 C94.0180982,171.634437 94.7584828,171.486093 95.3507905,171.189404 C95.4988674,171.189404 95.4988674,171.189404 95.6469443,171.04106 L95.6469443,171.04106 L96.6834828,169.112583 C103.198867,171.634437 110.30656,172.969536 117.414252,172.969536 C121.708483,172.969536 126.15079,172.524503 130.296944,171.486093 C132.962329,170.892715 135.479637,170.150993 137.996944,169.260927 L138.885406,170.892715 C139.033483,170.892715 139.033483,170.892715 139.18156,171.04106 C139.921944,171.189404 140.514252,171.486093 141.10656,172.376159 C142.291175,174.45298 143.179637,176.974834 144.216175,179.793377 L144.216175,179.941722 C144.364252,180.386755 144.512329,180.831788 144.660406,181.276821 C144.95656,182.166887 145.104637,183.056954 145.548867,183.94702 C145.696944,184.243709 145.845021,184.392053 145.993098,184.688742 C145.993098,184.837086 146.141175,184.98543 146.141175,184.98543 L146.141175,184.98543 L146.141175,184.98543 C147.029637,186.765563 148.80656,187.803974 150.583483,187.803974 C151.17579,187.803974 151.768098,187.655629 152.360406,187.35894 C153.396944,186.765563 154.285406,185.875497 154.58156,184.688742 C154.877714,183.501987 154.877714,182.166887 154.285406,180.980132 L154.285406,180.980132 L154.285406,180.980132 C154.285406,180.831788 154.137329,180.831788 154.137329,180.683444 C153.989252,180.386755 153.841175,180.090066 153.693098,179.941722 C153.248867,179.051656 152.65656,178.309934 152.064252,177.568212 C151.768098,177.123179 151.471944,176.82649 151.17579,176.381457 L151.17579,176.233113 C149.546944,173.711258 148.066175,171.486093 147.32579,169.260927 C147.029637,168.222517 147.32579,167.629139 147.473867,166.887417 C147.473867,166.739073 147.621944,166.739073 147.621944,166.590728 L147.621944,166.590728 L146.88156,164.810596 C154.729637,160.211921 161.393098,153.684768 166.427714,145.674172 C169.093098,141.52053 171.166175,136.921854 172.646944,132.323179 L174.423867,132.619868 C174.571944,132.619868 174.571944,132.471523 174.720021,132.471523 C175.312329,132.174834 175.75656,131.729801 176.645021,131.729801 L176.941175,131.729801 C179.310406,132.02649 181.827714,132.916556 184.641175,133.954967 L184.789252,133.954967 C185.233483,134.103311 185.677714,134.4 186.121944,134.548344 C187.010406,134.993377 187.75079,135.290066 188.787329,135.586755 C189.083483,135.586755 189.379637,135.735099 189.67579,135.735099 C189.823867,135.735099 189.971944,135.735099 190.120021,135.883444 L190.120021,135.883444 C190.564252,136.031788 190.860406,136.031788 191.304637,136.031788 C193.52579,136.031788 195.45079,134.548344 196.043098,132.619868 C196.043098,130.839735 194.414252,128.466225 191.748867,127.724503 L191.748867,127.724503 Z M123.189252,120.455629 L116.673867,123.570861 L110.158483,120.455629 L108.529637,113.483444 L112.971944,107.846358 L120.227714,107.846358 L124.670021,113.483444 L123.189252,120.455629 L123.189252,120.455629 Z M161.837329,105.027815 C163.021944,110.071523 163.318098,115.115232 162.873867,120.010596 L140.218098,113.483444 C138.145021,112.890066 136.960406,110.813245 137.404637,108.736424 C137.552714,108.143046 137.848867,107.549669 138.293098,107.104636 L156.210406,90.9350993 C158.727714,95.0887417 160.652714,99.8357616 161.837329,105.027815 L161.837329,105.027815 Z M149.102714,82.0344371 L129.704637,95.8304636 C128.07579,96.8688742 125.854637,96.5721854 124.521944,94.9403974 C124.077714,94.4953642 123.929637,93.9019868 123.78156,93.3086093 L122.448867,69.1284768 C132.666175,70.3152318 141.995021,74.9139073 149.102714,82.0344371 L149.102714,82.0344371 Z M106.160406,69.8701987 C107.789252,69.5735099 109.270021,69.2768212 110.898867,68.9801325 L109.566175,92.7152318 C109.418098,94.792053 107.789252,96.5721854 105.568098,96.5721854 C104.97579,96.5721854 104.235406,96.4238411 103.791175,96.1271523 L84.0969443,82.0344371 C90.1680982,75.9523179 97.7200212,71.7986755 106.160406,69.8701987 L106.160406,69.8701987 Z M76.989252,90.9350993 L94.6104059,106.659603 C96.239252,107.994702 96.3873289,110.516556 95.0546366,112.148344 C94.6104059,112.741722 94.0180982,113.186755 93.2777136,113.335099 L70.3257905,120.010596 C69.4373289,109.923179 71.6584828,99.6874172 76.989252,90.9350993 L76.989252,90.9350993 Z M72.9911751,131.136424 L96.5354059,127.131126 C98.4604059,126.982781 100.237329,128.317881 100.68156,130.246358 C100.829637,131.136424 100.829637,131.878146 100.533483,132.619868 L100.533483,132.619868 L91.5007905,154.42649 C83.2084828,149.086093 76.5450212,140.927152 72.9911751,131.136424 L72.9911751,131.136424 Z M127.039252,160.656954 C123.633483,161.398675 120.227714,161.843709 116.673867,161.843709 C111.491175,161.843709 106.45656,160.953642 101.718098,159.470199 L113.416175,138.256954 C114.60079,136.921854 116.52579,136.328477 118.154637,137.218543 C118.895021,137.663576 119.487329,138.256954 119.93156,138.850331 L119.93156,138.850331 L131.333483,159.470199 C130.00079,159.915232 128.520021,160.211921 127.039252,160.656954 L127.039252,160.656954 Z M155.914252,140.037086 C152.212329,145.970861 147.32579,150.717881 141.698867,154.42649 L132.370021,132.02649 C131.92579,130.246358 132.666175,128.317881 134.443098,127.427815 C135.035406,127.131126 135.77579,126.982781 136.516175,126.982781 L160.208483,130.988079 C159.320021,134.251656 157.839252,137.218543 155.914252,140.037086 L155.914252,140.037086 Z" id="Shape" fill="#FFFFFF"></path>
                </g>
            </g>
            <path d="M192.6,357.9 C193.3,357.1 193.9,356.3 194.6,355.4 C195.3,354.5 196,353.6 196.6,352.7 C197.2,351.8 197.9,350.9 198.5,350 C199.1,349.1 199.6,348.3 200.1,347.5 L208.3,347.5 C207.6,348.4 206.9,349.3 206,350.3 C205.1,351.3 204.3,352.3 203.4,353.4 C202.5,354.4 201.6,355.4 200.7,356.4 C199.8,357.4 199,358.3 198.2,359.1 C199.1,360 200.1,361.1 201.2,362.3 C202.3,363.5 203.3,364.8 204.4,366.2 C205.4,367.5 206.4,368.9 207.3,370.2 C208.2,371.5 208.9,372.7 209.4,373.8 L201.5,373.8 C201.1,372.9 200.5,371.8 199.7,370.7 C199,369.5 198.2,368.4 197.4,367.2 C196.6,366.1 195.8,365 194.9,364 C194.1,363 193.3,362.1 192.6,361.5 L192.6,373.9 L185.7,373.9 L185.7,336.4 L192.6,335.2 L192.6,357.9 L192.6,357.9 L192.6,357.9 Z M234.4,372.8 L234.4,347.5 L227.5,347.5 L227.5,368.1 C226.5,368.3 225.4,368.4 224.4,368.4 C222.7,368.4 221.6,367.8 221,366.6 C220.4,365.4 220.1,363.6 220.1,361.2 L220.1,347.5 L213.2,347.5 L213.2,362.1 C213.2,363.9 213.3,365.5 213.6,367 C213.9,368.5 214.4,369.8 215.2,370.9 C216,372 217.1,372.8 218.5,373.4 C219.9,374 221.6,374.3 223.8,374.3 C225.9,374.3 227.9,374.1 229.7,373.8 C231.6,373.5 233.2,373.1 234.4,372.8 L234.4,372.8 L234.4,372.8 Z M257.1,360.4 C257.1,363.3 256.6,365.3 255.5,366.6 C254.4,367.9 253,368.4 251.3,368.4 C250.9,368.4 250.4,368.4 249.8,368.3 C249.2,368.3 248.7,368.2 248.2,368.1 L248.2,353.9 C248.7,353.6 249.3,353.4 250.1,353.1 C250.8,352.9 251.6,352.8 252.3,352.8 C253.9,352.8 255.2,353.5 255.9,354.8 C256.7,356.1 257.1,358 257.1,360.4 L257.1,360.4 L257.1,360.4 Z M264.1,360.6 C264.1,358.6 263.9,356.7 263.4,355 C263,353.3 262.3,351.9 261.4,350.7 C260.5,349.5 259.4,348.6 258.1,347.9 C256.8,347.3 255.3,346.9 253.6,346.9 C252.7,346.9 251.8,347 250.9,347.2 C250,347.4 249.1,347.7 248.1,348.1 L248.1,335 L241.2,336.2 L241.2,372.9 C242.5,373.3 244,373.6 245.9,373.9 C247.8,374.2 249.6,374.3 251.4,374.3 C253.4,374.3 255.2,374 256.7,373.3 C258.3,372.7 259.6,371.7 260.7,370.5 C261.8,369.3 262.6,367.9 263.2,366.2 C263.8,364.6 264.1,362.7 264.1,360.6 L264.1,360.6 Z M267.5,360.8 C267.5,363 267.8,365 268.5,366.6 C269.2,368.3 270.1,369.7 271.4,370.8 C272.6,371.9 274.1,372.8 275.9,373.4 C277.7,374 279.7,374.3 281.9,374.3 C283.6,374.3 285.1,374.2 286.4,373.9 C287.7,373.6 289,373.3 290.2,372.9 L289.3,367.1 C288.4,367.4 287.4,367.7 286.2,368 C285,368.3 283.6,368.4 282.3,368.4 C280.1,368.4 278.3,367.9 276.8,366.9 C275.4,365.9 274.7,364.6 274.7,362.9 L291.7,362.9 C291.7,362.6 291.8,362.2 291.8,361.7 L291.8,360.3 C291.8,355.9 290.8,352.6 288.8,350.3 C286.8,348 283.9,346.9 280,346.9 C278.4,346.9 276.9,347.2 275.4,347.8 C273.9,348.4 272.6,349.3 271.4,350.4 C270.2,351.6 269.3,353 268.6,354.8 C267.8,356.5 267.5,358.5 267.5,360.8 L267.5,360.8 L267.5,360.8 Z M285,358.1 L274.5,358.1 C274.6,357.4 274.7,356.7 275,356 C275.2,355.3 275.6,354.7 276,354.2 C276.4,353.7 277,353.3 277.6,353 C278.2,352.7 279,352.6 279.9,352.6 C280.8,352.6 281.6,352.8 282.2,353.1 C282.8,353.4 283.4,353.8 283.8,354.4 C284.2,354.9 284.5,355.5 284.7,356.2 C284.9,356.7 285,357.4 285,358.1 L285,358.1 L285,358.1 Z M317.9,354.5 L319.1,348.1 C318.5,347.9 317.8,347.7 317,347.6 C316.2,347.5 315.4,347.4 314.6,347.3 C313.8,347.2 313.1,347.1 312.4,347.1 C311.7,347.1 311.2,347 310.8,347 C308.2,347 306,347.2 304.1,347.6 C302.2,348 300.3,348.5 298.5,349.2 L298.5,373.7 L305.4,373.7 L305.4,354.3 C306.4,354 307.3,353.9 308.2,353.8 C309.1,353.7 310.1,353.7 311,353.7 C311.4,353.7 311.9,353.7 312.5,353.8 C313.1,353.8 313.7,353.9 314.3,354 C314.9,354.1 315.6,354.2 316.2,354.3 C317,354.3 317.5,354.4 317.9,354.5 L317.9,354.5 L317.9,354.5 Z M325,373.7 L331.9,373.7 L331.9,353.1 C332.5,353 333,353 333.5,352.9 C334,352.9 334.5,352.8 335,352.8 C336.7,352.8 337.8,353.3 338.4,354.4 C339,355.5 339.2,357.2 339.2,359.7 L339.2,373.6 L346.1,373.6 L346.1,358.8 C346.1,357 345.9,355.4 345.6,353.9 C345.3,352.4 344.7,351.2 343.9,350.1 C343.1,349 342,348.2 340.6,347.6 C339.2,347 337.5,346.7 335.4,346.7 C333.3,346.7 331.3,346.8 329.5,347.1 C327.7,347.4 326.2,347.7 325,348 L325,373.7 L325,373.7 Z M351,360.8 C351,363 351.3,365 352,366.6 C352.7,368.3 353.6,369.7 354.9,370.8 C356.1,371.9 357.6,372.8 359.4,373.4 C361.2,374 363.2,374.3 365.4,374.3 C367.1,374.3 368.6,374.2 369.9,373.9 C371.2,373.6 372.5,373.3 373.7,372.9 L372.8,367.1 C371.9,367.4 370.9,367.7 369.7,368 C368.5,368.3 367.1,368.4 365.8,368.4 C363.6,368.4 361.8,367.9 360.3,366.9 C358.9,365.9 358.2,364.6 358.2,362.9 L375.2,362.9 C375.2,362.6 375.3,362.2 375.3,361.7 L375.3,360.3 C375.3,355.9 374.3,352.6 372.3,350.3 C370.3,348 367.4,346.9 363.5,346.9 C361.9,346.9 360.4,347.2 358.9,347.8 C357.4,348.4 356.1,349.3 354.9,350.4 C353.7,351.6 352.8,353 352.1,354.8 C351.4,356.5 351,358.5 351,360.8 L351,360.8 L351,360.8 Z M358.1,358.1 C358.2,357.4 358.3,356.7 358.6,356 C358.8,355.3 359.2,354.7 359.6,354.2 C360,353.7 360.6,353.3 361.2,353 C361.9,352.7 362.6,352.6 363.5,352.6 C364.4,352.6 365.2,352.8 365.8,353.1 C366.4,353.4 367,353.8 367.4,354.4 C367.8,354.9 368.1,355.5 368.3,356.2 C368.5,356.8 368.6,357.5 368.6,358.2 L358.1,358.2 L358.1,358.1 Z M385.1,353.2 L385.1,364 C385.1,366.2 385.3,368 385.8,369.3 C386.2,370.7 386.9,371.7 387.8,372.4 C388.7,373.1 389.7,373.6 390.9,373.9 C392.1,374.2 393.5,374.3 395.1,374.3 C396.5,374.3 397.9,374.2 399.4,374 C400.9,373.8 402.2,373.4 403.5,372.9 L402.6,367 C402,367.3 401.4,367.5 400.8,367.7 C400.3,367.9 399.7,368 399.2,368.1 C398.7,368.2 398.2,368.3 397.6,368.3 C397.1,368.3 396.5,368.4 395.8,368.4 C395.2,368.4 394.7,368.3 394.2,368.2 C393.7,368.1 393.3,367.9 393,367.5 C392.7,367.2 392.4,366.7 392.2,366.1 C392,365.5 391.9,364.7 391.9,363.8 L391.9,353.2 L402.9,353.2 L402.9,347.5 L391.9,347.5 L391.9,339.8 L385,340.9 L385,347.5 L379,347.5 L379,353.2 L385.1,353.2 L385.1,353.2 Z M406.7,360.8 C406.7,363 407,365 407.7,366.6 C408.4,368.3 409.3,369.7 410.6,370.8 C411.8,371.9 413.3,372.8 415.1,373.4 C416.9,374 418.9,374.3 421.1,374.3 C422.8,374.3 424.3,374.2 425.6,373.9 C426.9,373.6 428.2,373.3 429.4,372.9 L428.5,367.1 C427.6,367.4 426.6,367.7 425.4,368 C424.2,368.3 422.8,368.4 421.5,368.4 C419.3,368.4 417.5,367.9 416,366.9 C414.6,365.9 413.9,364.6 413.9,362.9 L430.9,362.9 C430.9,362.6 431,362.2 431,361.7 L431,360.3 C431,355.9 430,352.6 428,350.3 C426,348 423.1,346.9 419.2,346.9 C417.6,346.9 416.1,347.2 414.6,347.8 C413.1,348.4 411.8,349.3 410.6,350.4 C409.4,351.6 408.5,353 407.8,354.8 C407.1,356.5 406.7,358.5 406.7,360.8 L406.7,360.8 L406.7,360.8 Z M424.3,358.1 L413.8,358.1 C413.9,357.4 414,356.7 414.3,356 C414.5,355.3 414.9,354.7 415.3,354.2 C415.7,353.7 416.3,353.3 416.9,353 C417.5,352.7 418.3,352.6 419.2,352.6 C420.1,352.6 420.9,352.8 421.5,353.1 C422.1,353.4 422.7,353.8 423.1,354.4 C423.5,354.9 423.8,355.5 424,356.2 C424.2,356.7 424.3,357.4 424.3,358.1 L424.3,358.1 L424.3,358.1 Z M445.6,368.5 C444.1,368.5 442.6,368.3 441.1,367.8 C439.6,367.4 438.2,366.9 436.9,366.4 L435.8,372.1 C436.8,372.5 438,373 439.6,373.5 C441.2,374 443.1,374.3 445.4,374.3 C447.6,374.3 449.5,374.1 451,373.7 C452.5,373.3 453.8,372.7 454.7,372 C455.6,371.3 456.3,370.5 456.7,369.5 C457.1,368.5 457.3,367.5 457.3,366.4 C457.3,365 457,363.9 456.5,362.9 C455.9,362 455.2,361.2 454.4,360.6 C453.5,360 452.6,359.5 451.5,359.1 C450.4,358.7 449.4,358.3 448.4,358 C447.7,357.8 447,357.5 446.4,357.3 C445.8,357.1 445.2,356.8 444.8,356.5 C444.3,356.2 444,356 443.7,355.6 C443.4,355.3 443.3,354.9 443.3,354.5 C443.3,354 443.6,353.6 444.2,353.1 C444.8,352.7 446,352.5 447.7,352.5 C449.4,352.5 450.9,352.7 452.2,353.1 C453.5,353.5 454.5,353.8 455.2,354 L456.3,348.2 C455.2,347.7 454,347.3 452.5,347.1 C451,346.8 449.4,346.7 447.7,346.7 C445.7,346.7 444,346.9 442.6,347.3 C441.2,347.7 440,348.3 439.1,349.1 C438.2,349.9 437.5,350.7 437.1,351.7 C436.7,352.7 436.5,353.7 436.5,354.8 C436.5,356.2 436.8,357.3 437.3,358.2 C437.9,359.1 438.6,359.9 439.4,360.5 C440.3,361.1 441.2,361.6 442.2,362 C443.2,362.4 444.3,362.7 445.3,363 C446,363.2 446.7,363.4 447.3,363.7 C447.9,363.9 448.5,364.2 449,364.4 C449.5,364.6 449.9,364.9 450.2,365.3 C450.5,365.6 450.6,366 450.6,366.5 C450.6,367.2 450.2,367.7 449.3,368 C448.5,368.4 447.2,368.5 445.6,368.5 L445.6,368.5 Z" id="Shape" fill="#326DE6" sketch:type="MSShapeGroup"></path>
        </g>
    </g>
</svg>