<?xml version="1.0" encoding="UTF-8" standalone="no"?>
<svg width="2108px" height="1152px" viewBox="0 0 2108 1152" version="1.1" xmlns="http://www.w3.org/2000/svg" xmlns:xlink="http://www.w3.org/1999/xlink" xmlns:sketch="http://www.bohemiancoding.com/sketch/ns">
    <!-- Generator: Sketch 3.2.2 (9983) - http://www.bohemiancoding.com/sketch -->
    <title>Slice 1</title>
    <desc>Created with Sketch.</desc>
    <defs></defs>
    <g id="Page-1" stroke="none" stroke-width="1" fill="none" fill-rule="evenodd" sketch:type="MSPage">
        <g id="Oval-4-+-5151e0c8492e5103c096af88a528db77" sketch:type="MSLayerGroup" transform="translate(411.000000, 421.000000)">
            <circle id="Oval-4" stroke-opacity="0.866140172" stroke="#000000" stroke-width="8" sketch:type="MSShapeGroup" cx="124" cy="124" r="124"></circle>
            <g id="5151e0c8492e5103c096af88a528db77" transform="translate(66.000000, 66.000000)" fill-opacity="0.87" fill="#000000" sketch:type="MSShapeGroup">
                <path d="M75.8621176,0.11328125 L0.0554705882,10.9443281 L0.0554705882,94.8986484 L37.9587941,115.886719 L114.944529,104.715148 L114.944529,21.4393828 L75.8621176,0.11328125 L75.8621176,0.11328125 Z M109.199941,26.1133672 L109.03601,24.784125 L109.199941,24.8731641 L109.199941,26.1133672 L109.199941,26.1133672 Z M38.6875784,29.2956641 L12.4463824,15.003875 L74.1386961,6.18946094 L74.1386961,9.94564063 L77.5853137,9.94564063 L77.5853137,7.62110938 L102.754304,21.3562344 L38.6875784,29.2956641 L38.6875784,29.2956641 Z M9.19954902,90.6646484 L5.80005882,91.1596875 L5.80005882,17.9494141 L35.0865,33.8996406 L35.0865,107.706 L9.62369608,93.6070156 L9.19954902,90.6646484 L9.19954902,90.6646484 Z M107.861431,99.9106641 L108.622235,98.4935156 L103.565392,95.754375 L101.929686,98.8025469 L104.797471,100.355859 L40.8310882,109.638125 L40.8310882,89.5587969 L43.8037255,89.1258359 L43.3101275,85.6988516 L40.8310882,86.0595391 L40.8310882,34.8453125 L74.1386961,30.71825 L74.1386961,33.0325859 L77.5853137,33.0325859 L77.5853137,30.2909531 L109.199941,26.3725547 L109.199941,99.7167266 L107.861431,99.9106641 L107.861431,99.9106641 Z M20.5701176,89.0096094 L21.0637157,92.4365938 L15.3782059,93.264 L14.8846078,89.8370156 L20.5701176,89.0096094 L20.5701176,89.0096094 Z M76.1784804,80.9147578 L78.2854608,82.0566328 L76.6497549,85.1048047 L75.5457549,84.506 L72.2292451,84.9885781 L71.7356471,81.5615938 L76.1784804,80.9147578 L76.1784804,80.9147578 Z M32.4336078,90.7817812 L26.748549,91.6091875 L26.254951,88.1822031 L31.9397843,87.3547969 L32.4336078,90.7817812 L32.4336078,90.7817812 Z M93.4544118,90.2756406 L98.509902,93.0150078 L96.8739706,96.0631797 L91.8184804,93.3238125 L93.4544118,90.2756406 L93.4544118,90.2756406 Z M54.6804706,84.0440391 L55.1740686,87.4707969 L49.4890098,88.2982031 L48.9954118,84.8712187 L54.6804706,84.0440391 L54.6804706,84.0440391 Z M66.0505882,82.389 L66.5439608,85.8159844 L60.8591275,86.6433906 L60.3655294,83.2164063 L66.0505882,82.389 L66.0505882,82.389 Z M83.3411765,84.7957734 L88.3977941,87.5351406 L86.7620882,90.5833125 L81.7052451,87.8439453 L83.3411765,84.7957734 L83.3411765,84.7957734 Z M74.1386961,15.7173203 L77.5853137,15.7173203 L77.5853137,21.4892266 L74.1386961,21.4892266 L74.1386961,15.7173203 L74.1386961,15.7173203 Z M77.5853137,67.6631172 L74.1386961,67.6631172 L74.1386961,61.8912109 L77.5853137,61.8912109 L77.5853137,67.6631172 L77.5853137,67.6631172 Z M77.5853137,79.2069297 L74.1386961,79.2069297 L74.1386961,73.4350234 L77.5853137,73.4350234 L77.5853137,79.2069297 L77.5853137,79.2069297 Z M77.5853137,44.5761719 L74.1386961,44.5761719 L74.1386961,38.8042656 L77.5853137,38.8042656 L77.5853137,44.5761719 L77.5853137,44.5761719 Z M77.5853137,56.1197578 L74.1386961,56.1197578 L74.1386961,50.3478516 L77.5853137,50.3478516 L77.5853137,56.1197578 L77.5853137,56.1197578 Z" id="Shape"></path>
            </g>
        </g>
        <g id="Oval-4-+-5151e0c8492e5103c096af88a528db77-2" sketch:type="MSLayerGroup" transform="translate(859.000000, 421.000000)">
            <circle id="Oval-4" stroke-opacity="0.866140172" stroke="#000000" stroke-width="8" sketch:type="MSShapeGroup" cx="124" cy="124" r="124"></circle>
            <g id="5151e0c8492e5103c096af88a528db77" transform="translate(66.000000, 66.000000)" fill-opacity="0.87" fill="#000000" sketch:type="MSShapeGroup">
                <path d="M75.8621176,0.11328125 L0.0554705882,10.9443281 L0.0554705882,94.8986484 L37.9587941,115.886719 L114.944529,104.715148 L114.944529,21.4393828 L75.8621176,0.11328125 L75.8621176,0.11328125 Z M109.199941,26.1133672 L109.03601,24.784125 L109.199941,24.8731641 L109.199941,26.1133672 L109.199941,26.1133672 Z M38.6875784,29.2956641 L12.4463824,15.003875 L74.1386961,6.18946094 L74.1386961,9.94564063 L77.5853137,9.94564063 L77.5853137,7.62110938 L102.754304,21.3562344 L38.6875784,29.2956641 L38.6875784,29.2956641 Z M9.19954902,90.6646484 L5.80005882,91.1596875 L5.80005882,17.9494141 L35.0865,33.8996406 L35.0865,107.706 L9.62369608,93.6070156 L9.19954902,90.6646484 L9.19954902,90.6646484 Z M107.861431,99.9106641 L108.622235,98.4935156 L103.565392,95.754375 L101.929686,98.8025469 L104.797471,100.355859 L40.8310882,109.638125 L40.8310882,89.5587969 L43.8037255,89.1258359 L43.3101275,85.6988516 L40.8310882,86.0595391 L40.8310882,34.8453125 L74.1386961,30.71825 L74.1386961,33.0325859 L77.5853137,33.0325859 L77.5853137,30.2909531 L109.199941,26.3725547 L109.199941,99.7167266 L107.861431,99.9106641 L107.861431,99.9106641 Z M20.5701176,89.0096094 L21.0637157,92.4365938 L15.3782059,93.264 L14.8846078,89.8370156 L20.5701176,89.0096094 L20.5701176,89.0096094 Z M76.1784804,80.9147578 L78.2854608,82.0566328 L76.6497549,85.1048047 L75.5457549,84.506 L72.2292451,84.9885781 L71.7356471,81.5615938 L76.1784804,80.9147578 L76.1784804,80.9147578 Z M32.4336078,90.7817812 L26.748549,91.6091875 L26.254951,88.1822031 L31.9397843,87.3547969 L32.4336078,90.7817812 L32.4336078,90.7817812 Z M93.4544118,90.2756406 L98.509902,93.0150078 L96.8739706,96.0631797 L91.8184804,93.3238125 L93.4544118,90.2756406 L93.4544118,90.2756406 Z M54.6804706,84.0440391 L55.1740686,87.4707969 L49.4890098,88.2982031 L48.9954118,84.8712187 L54.6804706,84.0440391 L54.6804706,84.0440391 Z M66.0505882,82.389 L66.5439608,85.8159844 L60.8591275,86.6433906 L60.3655294,83.2164063 L66.0505882,82.389 L66.0505882,82.389 Z M83.3411765,84.7957734 L88.3977941,87.5351406 L86.7620882,90.5833125 L81.7052451,87.8439453 L83.3411765,84.7957734 L83.3411765,84.7957734 Z M74.1386961,15.7173203 L77.5853137,15.7173203 L77.5853137,21.4892266 L74.1386961,21.4892266 L74.1386961,15.7173203 L74.1386961,15.7173203 Z M77.5853137,67.6631172 L74.1386961,67.6631172 L74.1386961,61.8912109 L77.5853137,61.8912109 L77.5853137,67.6631172 L77.5853137,67.6631172 Z M77.5853137,79.2069297 L74.1386961,79.2069297 L74.1386961,73.4350234 L77.5853137,73.4350234 L77.5853137,79.2069297 L77.5853137,79.2069297 Z M77.5853137,44.5761719 L74.1386961,44.5761719 L74.1386961,38.8042656 L77.5853137,38.8042656 L77.5853137,44.5761719 L77.5853137,44.5761719 Z M77.5853137,56.1197578 L74.1386961,56.1197578 L74.1386961,50.3478516 L77.5853137,50.3478516 L77.5853137,56.1197578 L77.5853137,56.1197578 Z" id="Shape"></path>
            </g>
        </g>
        <g id="Oval-4-+-5151e0c8492e5103c096af88a528db77-3" sketch:type="MSLayerGroup" transform="translate(1389.000000, 421.000000)">
            <circle id="Oval-4" stroke-opacity="0.866140172" stroke="#000000" stroke-width="8" sketch:type="MSShapeGroup" cx="124" cy="124" r="124"></circle>
            <g id="5151e0c8492e5103c096af88a528db77" transform="translate(66.000000, 66.000000)" fill-opacity="0.87" fill="#000000" sketch:type="MSShapeGroup">
                <path d="M75.8621176,0.11328125 L0.0554705882,10.9443281 L0.0554705882,94.8986484 L37.9587941,115.886719 L114.944529,104.715148 L114.944529,21.4393828 L75.8621176,0.11328125 L75.8621176,0.11328125 Z M109.199941,26.1133672 L109.03601,24.784125 L109.199941,24.8731641 L109.199941,26.1133672 L109.199941,26.1133672 Z M38.6875784,29.2956641 L12.4463824,15.003875 L74.1386961,6.18946094 L74.1386961,9.94564063 L77.5853137,9.94564063 L77.5853137,7.62110938 L102.754304,21.3562344 L38.6875784,29.2956641 L38.6875784,29.2956641 Z M9.19954902,90.6646484 L5.80005882,91.1596875 L5.80005882,17.9494141 L35.0865,33.8996406 L35.0865,107.706 L9.62369608,93.6070156 L9.19954902,90.6646484 L9.19954902,90.6646484 Z M107.861431,99.9106641 L108.622235,98.4935156 L103.565392,95.754375 L101.929686,98.8025469 L104.797471,100.355859 L40.8310882,109.638125 L40.8310882,89.5587969 L43.8037255,89.1258359 L43.3101275,85.6988516 L40.8310882,86.0595391 L40.8310882,34.8453125 L74.1386961,30.71825 L74.1386961,33.0325859 L77.5853137,33.0325859 L77.5853137,30.2909531 L109.199941,26.3725547 L109.199941,99.7167266 L107.861431,99.9106641 L107.861431,99.9106641 Z M20.5701176,89.0096094 L21.0637157,92.4365938 L15.3782059,93.264 L14.8846078,89.8370156 L20.5701176,89.0096094 L20.5701176,89.0096094 Z M76.1784804,80.9147578 L78.2854608,82.0566328 L76.6497549,85.1048047 L75.5457549,84.506 L72.2292451,84.9885781 L71.7356471,81.5615938 L76.1784804,80.9147578 L76.1784804,80.9147578 Z M32.4336078,90.7817812 L26.748549,91.6091875 L26.254951,88.1822031 L31.9397843,87.3547969 L32.4336078,90.7817812 L32.4336078,90.7817812 Z M93.4544118,90.2756406 L98.509902,93.0150078 L96.8739706,96.0631797 L91.8184804,93.3238125 L93.4544118,90.2756406 L93.4544118,90.2756406 Z M54.6804706,84.0440391 L55.1740686,87.4707969 L49.4890098,88.2982031 L48.9954118,84.8712187 L54.6804706,84.0440391 L54.6804706,84.0440391 Z M66.0505882,82.389 L66.5439608,85.8159844 L60.8591275,86.6433906 L60.3655294,83.2164063 L66.0505882,82.389 L66.0505882,82.389 Z M83.3411765,84.7957734 L88.3977941,87.5351406 L86.7620882,90.5833125 L81.7052451,87.8439453 L83.3411765,84.7957734 L83.3411765,84.7957734 Z M74.1386961,15.7173203 L77.5853137,15.7173203 L77.5853137,21.4892266 L74.1386961,21.4892266 L74.1386961,15.7173203 L74.1386961,15.7173203 Z M77.5853137,67.6631172 L74.1386961,67.6631172 L74.1386961,61.8912109 L77.5853137,61.8912109 L77.5853137,67.6631172 L77.5853137,67.6631172 Z M77.5853137,79.2069297 L74.1386961,79.2069297 L74.1386961,73.4350234 L77.5853137,73.4350234 L77.5853137,79.2069297 L77.5853137,79.2069297 Z M77.5853137,44.5761719 L74.1386961,44.5761719 L74.1386961,38.8042656 L77.5853137,38.8042656 L77.5853137,44.5761719 L77.5853137,44.5761719 Z M77.5853137,56.1197578 L74.1386961,56.1197578 L74.1386961,50.3478516 L77.5853137,50.3478516 L77.5853137,56.1197578 L77.5853137,56.1197578 Z" id="Shape"></path>
            </g>
        </g>
        <g id="Oval-4-+-5151e0c8492e5103c096af88a528db77-5" sketch:type="MSLayerGroup" transform="translate(1839.000000, 808.000000)">
            <circle id="Oval-4" stroke-opacity="0.866140172" stroke="#000000" stroke-width="8" sketch:type="MSShapeGroup" cx="124" cy="124" r="124"></circle>
            <g id="5151e0c8492e5103c096af88a528db77" transform="translate(66.000000, 66.000000)" fill-opacity="0.87" fill="#000000" sketch:type="MSShapeGroup">
                <path d="M75.8621176,0.11328125 L0.0554705882,10.9443281 L0.0554705882,94.8986484 L37.9587941,115.886719 L114.944529,104.715148 L114.944529,21.4393828 L75.8621176,0.11328125 L75.8621176,0.11328125 Z M109.199941,26.1133672 L109.03601,24.784125 L109.199941,24.8731641 L109.199941,26.1133672 L109.199941,26.1133672 Z M38.6875784,29.2956641 L12.4463824,15.003875 L74.1386961,6.18946094 L74.1386961,9.94564063 L77.5853137,9.94564063 L77.5853137,7.62110938 L102.754304,21.3562344 L38.6875784,29.2956641 L38.6875784,29.2956641 Z M9.19954902,90.6646484 L5.80005882,91.1596875 L5.80005882,17.9494141 L35.0865,33.8996406 L35.0865,107.706 L9.62369608,93.6070156 L9.19954902,90.6646484 L9.19954902,90.6646484 Z M107.861431,99.9106641 L108.622235,98.4935156 L103.565392,95.754375 L101.929686,98.8025469 L104.797471,100.355859 L40.8310882,109.638125 L40.8310882,89.5587969 L43.8037255,89.1258359 L43.3101275,85.6988516 L40.8310882,86.0595391 L40.8310882,34.8453125 L74.1386961,30.71825 L74.1386961,33.0325859 L77.5853137,33.0325859 L77.5853137,30.2909531 L109.199941,26.3725547 L109.199941,99.7167266 L107.861431,99.9106641 L107.861431,99.9106641 Z M20.5701176,89.0096094 L21.0637157,92.4365938 L15.3782059,93.264 L14.8846078,89.8370156 L20.5701176,89.0096094 L20.5701176,89.0096094 Z M76.1784804,80.9147578 L78.2854608,82.0566328 L76.6497549,85.1048047 L75.5457549,84.506 L72.2292451,84.9885781 L71.7356471,81.5615938 L76.1784804,80.9147578 L76.1784804,80.9147578 Z M32.4336078,90.7817812 L26.748549,91.6091875 L26.254951,88.1822031 L31.9397843,87.3547969 L32.4336078,90.7817812 L32.4336078,90.7817812 Z M93.4544118,90.2756406 L98.509902,93.0150078 L96.8739706,96.0631797 L91.8184804,93.3238125 L93.4544118,90.2756406 L93.4544118,90.2756406 Z M54.6804706,84.0440391 L55.1740686,87.4707969 L49.4890098,88.2982031 L48.9954118,84.8712187 L54.6804706,84.0440391 L54.6804706,84.0440391 Z M66.0505882,82.389 L66.5439608,85.8159844 L60.8591275,86.6433906 L60.3655294,83.2164063 L66.0505882,82.389 L66.0505882,82.389 Z M83.3411765,84.7957734 L88.3977941,87.5351406 L86.7620882,90.5833125 L81.7052451,87.8439453 L83.3411765,84.7957734 L83.3411765,84.7957734 Z M74.1386961,15.7173203 L77.5853137,15.7173203 L77.5853137,21.4892266 L74.1386961,21.4892266 L74.1386961,15.7173203 L74.1386961,15.7173203 Z M77.5853137,67.6631172 L74.1386961,67.6631172 L74.1386961,61.8912109 L77.5853137,61.8912109 L77.5853137,67.6631172 L77.5853137,67.6631172 Z M77.5853137,79.2069297 L74.1386961,79.2069297 L74.1386961,73.4350234 L77.5853137,73.4350234 L77.5853137,79.2069297 L77.5853137,79.2069297 Z M77.5853137,44.5761719 L74.1386961,44.5761719 L74.1386961,38.8042656 L77.5853137,38.8042656 L77.5853137,44.5761719 L77.5853137,44.5761719 Z M77.5853137,56.1197578 L74.1386961,56.1197578 L74.1386961,50.3478516 L77.5853137,50.3478516 L77.5853137,56.1197578 L77.5853137,56.1197578 Z" id="Shape"></path>
            </g>
        </g>
        <g id="Oval-4-+-5151e0c8492e5103c096af88a528db77-6" sketch:type="MSLayerGroup" transform="translate(1846.000000, 419.000000)">
            <circle id="Oval-4" stroke-opacity="0.866140172" stroke="#000000" stroke-width="8" sketch:type="MSShapeGroup" cx="124" cy="124" r="124"></circle>
            <g id="5151e0c8492e5103c096af88a528db77" transform="translate(66.000000, 66.000000)" fill-opacity="0.87" fill="#000000" sketch:type="MSShapeGroup">
                <path d="M75.8621176,0.11328125 L0.0554705882,10.9443281 L0.0554705882,94.8986484 L37.9587941,115.886719 L114.944529,104.715148 L114.944529,21.4393828 L75.8621176,0.11328125 L75.8621176,0.11328125 Z M109.199941,26.1133672 L109.03601,24.784125 L109.199941,24.8731641 L109.199941,26.1133672 L109.199941,26.1133672 Z M38.6875784,29.2956641 L12.4463824,15.003875 L74.1386961,6.18946094 L74.1386961,9.94564063 L77.5853137,9.94564063 L77.5853137,7.62110938 L102.754304,21.3562344 L38.6875784,29.2956641 L38.6875784,29.2956641 Z M9.19954902,90.6646484 L5.80005882,91.1596875 L5.80005882,17.9494141 L35.0865,33.8996406 L35.0865,107.706 L9.62369608,93.6070156 L9.19954902,90.6646484 L9.19954902,90.6646484 Z M107.861431,99.9106641 L108.622235,98.4935156 L103.565392,95.754375 L101.929686,98.8025469 L104.797471,100.355859 L40.8310882,109.638125 L40.8310882,89.5587969 L43.8037255,89.1258359 L43.3101275,85.6988516 L40.8310882,86.0595391 L40.8310882,34.8453125 L74.1386961,30.71825 L74.1386961,33.0325859 L77.5853137,33.0325859 L77.5853137,30.2909531 L109.199941,26.3725547 L109.199941,99.7167266 L107.861431,99.9106641 L107.861431,99.9106641 Z M20.5701176,89.0096094 L21.0637157,92.4365938 L15.3782059,93.264 L14.8846078,89.8370156 L20.5701176,89.0096094 L20.5701176,89.0096094 Z M76.1784804,80.9147578 L78.2854608,82.0566328 L76.6497549,85.1048047 L75.5457549,84.506 L72.2292451,84.9885781 L71.7356471,81.5615938 L76.1784804,80.9147578 L76.1784804,80.9147578 Z M32.4336078,90.7817812 L26.748549,91.6091875 L26.254951,88.1822031 L31.9397843,87.3547969 L32.4336078,90.7817812 L32.4336078,90.7817812 Z M93.4544118,90.2756406 L98.509902,93.0150078 L96.8739706,96.0631797 L91.8184804,93.3238125 L93.4544118,90.2756406 L93.4544118,90.2756406 Z M54.6804706,84.0440391 L55.1740686,87.4707969 L49.4890098,88.2982031 L48.9954118,84.8712187 L54.6804706,84.0440391 L54.6804706,84.0440391 Z M66.0505882,82.389 L66.5439608,85.8159844 L60.8591275,86.6433906 L60.3655294,83.2164063 L66.0505882,82.389 L66.0505882,82.389 Z M83.3411765,84.7957734 L88.3977941,87.5351406 L86.7620882,90.5833125 L81.7052451,87.8439453 L83.3411765,84.7957734 L83.3411765,84.7957734 Z M74.1386961,15.7173203 L77.5853137,15.7173203 L77.5853137,21.4892266 L74.1386961,21.4892266 L74.1386961,15.7173203 L74.1386961,15.7173203 Z M77.5853137,67.6631172 L74.1386961,67.6631172 L74.1386961,61.8912109 L77.5853137,61.8912109 L77.5853137,67.6631172 L77.5853137,67.6631172 Z M77.5853137,79.2069297 L74.1386961,79.2069297 L74.1386961,73.4350234 L77.5853137,73.4350234 L77.5853137,79.2069297 L77.5853137,79.2069297 Z M77.5853137,44.5761719 L74.1386961,44.5761719 L74.1386961,38.8042656 L77.5853137,38.8042656 L77.5853137,44.5761719 L77.5853137,44.5761719 Z M77.5853137,56.1197578 L74.1386961,56.1197578 L74.1386961,50.3478516 L77.5853137,50.3478516 L77.5853137,56.1197578 L77.5853137,56.1197578 Z" id="Shape"></path>
            </g>
        </g>
        <g id="Oval-4-+-5151e0c8492e5103c096af88a528db77-4" sketch:type="MSLayerGroup" transform="translate(1141.000000, 807.000000)" stroke-opacity="0.26">
            <path d="M124,248 C192.483309,248 248,192.483309 248,124 C248,55.516691 192.483309,0 124,0 C55.516691,0 0,55.516691 0,124 C0,192.483309 55.516691,248 124,248 Z" id="Oval-4" stroke="#000000" stroke-width="8" stroke-dasharray="12,18" sketch:type="MSShapeGroup"></path>
            <g id="5151e0c8492e5103c096af88a528db77" transform="translate(66.000000, 66.000000)" stroke="#979797" fill="#000000" sketch:type="MSShapeGroup" fill-opacity="0.26">
                <path d="M75.8621176,0.11328125 L0.0554705882,10.9443281 L0.0554705882,94.8986484 L37.9587941,115.886719 L114.944529,104.715148 L114.944529,21.4393828 L75.8621176,0.11328125 L75.8621176,0.11328125 Z M109.199941,26.1133672 L109.03601,24.784125 L109.199941,24.8731641 L109.199941,26.1133672 L109.199941,26.1133672 Z M38.6875784,29.2956641 L12.4463824,15.003875 L74.1386961,6.18946094 L74.1386961,9.94564063 L77.5853137,9.94564063 L77.5853137,7.62110938 L102.754304,21.3562344 L38.6875784,29.2956641 L38.6875784,29.2956641 Z M9.19954902,90.6646484 L5.80005882,91.1596875 L5.80005882,17.9494141 L35.0865,33.8996406 L35.0865,107.706 L9.62369608,93.6070156 L9.19954902,90.6646484 L9.19954902,90.6646484 Z M107.861431,99.9106641 L108.622235,98.4935156 L103.565392,95.754375 L101.929686,98.8025469 L104.797471,100.355859 L40.8310882,109.638125 L40.8310882,89.5587969 L43.8037255,89.1258359 L43.3101275,85.6988516 L40.8310882,86.0595391 L40.8310882,34.8453125 L74.1386961,30.71825 L74.1386961,33.0325859 L77.5853137,33.0325859 L77.5853137,30.2909531 L109.199941,26.3725547 L109.199941,99.7167266 L107.861431,99.9106641 L107.861431,99.9106641 Z M20.5701176,89.0096094 L21.0637157,92.4365938 L15.3782059,93.264 L14.8846078,89.8370156 L20.5701176,89.0096094 L20.5701176,89.0096094 Z M76.1784804,80.9147578 L78.2854608,82.0566328 L76.6497549,85.1048047 L75.5457549,84.506 L72.2292451,84.9885781 L71.7356471,81.5615938 L76.1784804,80.9147578 L76.1784804,80.9147578 Z M32.4336078,90.7817812 L26.748549,91.6091875 L26.254951,88.1822031 L31.9397843,87.3547969 L32.4336078,90.7817812 L32.4336078,90.7817812 Z M93.4544118,90.2756406 L98.509902,93.0150078 L96.8739706,96.0631797 L91.8184804,93.3238125 L93.4544118,90.2756406 L93.4544118,90.2756406 Z M54.6804706,84.0440391 L55.1740686,87.4707969 L49.4890098,88.2982031 L48.9954118,84.8712187 L54.6804706,84.0440391 L54.6804706,84.0440391 Z M66.0505882,82.389 L66.5439608,85.8159844 L60.8591275,86.6433906 L60.3655294,83.2164063 L66.0505882,82.389 L66.0505882,82.389 Z M83.3411765,84.7957734 L88.3977941,87.5351406 L86.7620882,90.5833125 L81.7052451,87.8439453 L83.3411765,84.7957734 L83.3411765,84.7957734 Z M74.1386961,15.7173203 L77.5853137,15.7173203 L77.5853137,21.4892266 L74.1386961,21.4892266 L74.1386961,15.7173203 L74.1386961,15.7173203 Z M77.5853137,67.6631172 L74.1386961,67.6631172 L74.1386961,61.8912109 L77.5853137,61.8912109 L77.5853137,67.6631172 L77.5853137,67.6631172 Z M77.5853137,79.2069297 L74.1386961,79.2069297 L74.1386961,73.4350234 L77.5853137,73.4350234 L77.5853137,79.2069297 L77.5853137,79.2069297 Z M77.5853137,44.5761719 L74.1386961,44.5761719 L74.1386961,38.8042656 L77.5853137,38.8042656 L77.5853137,44.5761719 L77.5853137,44.5761719 Z M77.5853137,56.1197578 L74.1386961,56.1197578 L74.1386961,50.3478516 L77.5853137,50.3478516 L77.5853137,56.1197578 L77.5853137,56.1197578 Z" id="Shape"></path>
            </g>
        </g>
        <g id="Oval-4-+-5151e0c8492e5103c096af88a528db77-7" sketch:type="MSLayerGroup" transform="translate(413.000000, 4.000000)" stroke-opacity="0.26">
            <path d="M124,248 C192.483309,248 248,192.483309 248,124 C248,55.516691 192.483309,0 124,0 C55.516691,0 0,55.516691 0,124 C0,192.483309 55.516691,248 124,248 Z" id="Oval-4" stroke="#000000" stroke-width="8" stroke-dasharray="12,18" sketch:type="MSShapeGroup"></path>
            <g id="5151e0c8492e5103c096af88a528db77" transform="translate(66.000000, 66.000000)" stroke="#979797" fill="#000000" sketch:type="MSShapeGroup" fill-opacity="0.26">
                <path d="M75.8621176,0.11328125 L0.0554705882,10.9443281 L0.0554705882,94.8986484 L37.9587941,115.886719 L114.944529,104.715148 L114.944529,21.4393828 L75.8621176,0.11328125 L75.8621176,0.11328125 Z M109.199941,26.1133672 L109.03601,24.784125 L109.199941,24.8731641 L109.199941,26.1133672 L109.199941,26.1133672 Z M38.6875784,29.2956641 L12.4463824,15.003875 L74.1386961,6.18946094 L74.1386961,9.94564063 L77.5853137,9.94564063 L77.5853137,7.62110938 L102.754304,21.3562344 L38.6875784,29.2956641 L38.6875784,29.2956641 Z M9.19954902,90.6646484 L5.80005882,91.1596875 L5.80005882,17.9494141 L35.0865,33.8996406 L35.0865,107.706 L9.62369608,93.6070156 L9.19954902,90.6646484 L9.19954902,90.6646484 Z M107.861431,99.9106641 L108.622235,98.4935156 L103.565392,95.754375 L101.929686,98.8025469 L104.797471,100.355859 L40.8310882,109.638125 L40.8310882,89.5587969 L43.8037255,89.1258359 L43.3101275,85.6988516 L40.8310882,86.0595391 L40.8310882,34.8453125 L74.1386961,30.71825 L74.1386961,33.0325859 L77.5853137,33.0325859 L77.5853137,30.2909531 L109.199941,26.3725547 L109.199941,99.7167266 L107.861431,99.9106641 L107.861431,99.9106641 Z M20.5701176,89.0096094 L21.0637157,92.4365938 L15.3782059,93.264 L14.8846078,89.8370156 L20.5701176,89.0096094 L20.5701176,89.0096094 Z M76.1784804,80.9147578 L78.2854608,82.0566328 L76.6497549,85.1048047 L75.5457549,84.506 L72.2292451,84.9885781 L71.7356471,81.5615938 L76.1784804,80.9147578 L76.1784804,80.9147578 Z M32.4336078,90.7817812 L26.748549,91.6091875 L26.254951,88.1822031 L31.9397843,87.3547969 L32.4336078,90.7817812 L32.4336078,90.7817812 Z M93.4544118,90.2756406 L98.509902,93.0150078 L96.8739706,96.0631797 L91.8184804,93.3238125 L93.4544118,90.2756406 L93.4544118,90.2756406 Z M54.6804706,84.0440391 L55.1740686,87.4707969 L49.4890098,88.2982031 L48.9954118,84.8712187 L54.6804706,84.0440391 L54.6804706,84.0440391 Z M66.0505882,82.389 L66.5439608,85.8159844 L60.8591275,86.6433906 L60.3655294,83.2164063 L66.0505882,82.389 L66.0505882,82.389 Z M83.3411765,84.7957734 L88.3977941,87.5351406 L86.7620882,90.5833125 L81.7052451,87.8439453 L83.3411765,84.7957734 L83.3411765,84.7957734 Z M74.1386961,15.7173203 L77.5853137,15.7173203 L77.5853137,21.4892266 L74.1386961,21.4892266 L74.1386961,15.7173203 L74.1386961,15.7173203 Z M77.5853137,67.6631172 L74.1386961,67.6631172 L74.1386961,61.8912109 L77.5853137,61.8912109 L77.5853137,67.6631172 L77.5853137,67.6631172 Z M77.5853137,79.2069297 L74.1386961,79.2069297 L74.1386961,73.4350234 L77.5853137,73.4350234 L77.5853137,79.2069297 L77.5853137,79.2069297 Z M77.5853137,44.5761719 L74.1386961,44.5761719 L74.1386961,38.8042656 L77.5853137,38.8042656 L77.5853137,44.5761719 L77.5853137,44.5761719 Z M77.5853137,56.1197578 L74.1386961,56.1197578 L74.1386961,50.3478516 L77.5853137,50.3478516 L77.5853137,56.1197578 L77.5853137,56.1197578 Z" id="Shape"></path>
            </g>
        </g>
        <path d="M661.5,543 L853.5,543" id="Line" stroke-opacity="0.866140172" stroke="#000000" stroke-width="8" stroke-linecap="square" sketch:type="MSShapeGroup"></path>
        <path d="M1107.5,543 L1390,543" id="Line-2" stroke-opacity="0.866140172" stroke="#000000" stroke-width="8" stroke-linecap="square" sketch:type="MSShapeGroup"></path>
        <path d="M125.5,538 L408,538" id="Line-8" stroke-opacity="0.866140172" stroke="#000000" stroke-width="8" stroke-linecap="square" sketch:type="MSShapeGroup"></path>
        <path d="M1072,649 L1197,807" id="Line-5" stroke-opacity="0.26" stroke="#000000" stroke-width="8" stroke-linecap="square" stroke-dasharray="6,27" sketch:type="MSShapeGroup"></path>
        <path d="M665,179 L897,450" id="Line-7" stroke-opacity="0.26" stroke="#000000" stroke-width="8" stroke-linecap="square" stroke-dasharray="6,27" sketch:type="MSShapeGroup"></path>
        <path d="M406,183 L133,518" id="Line-9" stroke-opacity="0.26" stroke="#000000" stroke-width="8" stroke-linecap="square" stroke-dasharray="6,27" sketch:type="MSShapeGroup"></path>
        <path d="M1411.99529,928 L1837,928" id="Line-6" stroke-opacity="0.26" stroke="#000000" stroke-width="8" stroke-linecap="square" stroke-dasharray="6,27" sketch:type="MSShapeGroup"></path>
        <path d="M1639,535 L1842,535" id="Line-3" stroke-opacity="0.866140172" stroke="#000000" stroke-width="8" stroke-linecap="square" sketch:type="MSShapeGroup"></path>
        <path d="M1874,844 L1632,585" id="Line-4" stroke-opacity="0.866140172" stroke="#000000" stroke-width="8" stroke-linecap="square" sketch:type="MSShapeGroup"></path>
        <text id="mobile-api-2.0-2" sketch:type="MSTextLayer" font-family="Roboto, Helvetica, Arial, sans-serif" font-size="48" font-weight="260" fill="#000000">
            <tspan x="390" y="760">mobile api 2.0</tspan>
        </text>
        <text id="search-1.1" sketch:type="MSTextLayer" font-family="Roboto, Helvetica, Arial, sans-serif" font-size="48" font-weight="260" fill="#000000">
            <tspan x="874" y="760">search 1.1</tspan>
        </text>
        <text id="cache" sketch:type="MSTextLayer" font-family="Roboto, Helvetica, Arial, sans-serif" font-size="48" font-weight="260" fill="#000000">
            <tspan x="1450" y="760">cache</tspan>
        </text>
        <text id="products" sketch:type="MSTextLayer" font-family="Roboto, Helvetica, Arial, sans-serif" font-size="48" font-weight="260" fill="#000000">
            <tspan x="1874" y="1130">products</tspan>
        </text>
        <text id="customers" sketch:type="MSTextLayer" font-family="Roboto, Helvetica, Arial, sans-serif" font-size="48" font-weight="260" fill="#000000">
            <tspan x="1872" y="760">customers</tspan>
        </text>
        <text id="search-1.2" sketch:type="MSTextLayer" font-family="Roboto, Helvetica, Arial, sans-serif" font-size="48" font-weight="260" fill="#000000">
            <tspan x="1156" y="1129">search 1.2</tspan>
        </text>
        <text id="mobile-api-2.2" sketch:type="MSTextLayer" font-family="Roboto, Helvetica, Arial, sans-serif" font-size="48" font-weight="260" fill="#000000">
            <tspan x="390" y="344">mobile api 2.2</tspan>
        </text>
        <g id="afcae5a789ccd549f9c6e2a2f8160154" sketch:type="MSLayerGroup" transform="translate(0.000000, 471.000000)" fill="#000000">
            <path d="M10.287274,80.931125 L111.712726,80.931125 L111.712726,10.2378672 L10.287274,10.2378672 L10.287274,80.931125 L10.287274,80.931125 Z M20.4299863,15.2871875 C23.2309726,15.2871875 25.5013425,17.5475391 25.5013425,20.3367852 C25.5013425,23.1260313 23.2312511,25.3863828 20.4299863,25.3863828 C17.6287215,25.3863828 15.3586301,23.1260313 15.3586301,20.3367852 C15.3586301,17.5475391 17.6287215,15.2871875 20.4299863,15.2871875 L20.4299863,15.2871875 Z M116.783804,0.138671875 L5.21619635,0.138671875 C2.42690868,0.138671875 0.144840183,2.41094922 0.144840183,5.18826953 L0.144840183,85.9807227 L0.144840183,96.0796406 L121.85516,96.0796406 L121.85516,85.9807227 L121.85516,5.18826953 C121.85516,2.41094922 119.573091,0.138671875 116.783804,0.138671875 L116.783804,0.138671875 Z M116.783804,80.931125 C116.783804,83.7084453 114.502014,85.9807227 111.712726,85.9807227 L10.287274,85.9807227 C7.4979863,85.9807227 5.21591781,83.7084453 5.21591781,80.931125 L5.21591781,10.2378672 C5.21591781,7.46054688 7.4979863,5.18826953 10.287274,5.18826953 L111.712726,5.18826953 C114.502014,5.18826953 116.783804,7.46054688 116.783804,10.2378672 L116.783804,80.931125 L116.783804,80.931125 Z M5.21619635,101.129238 L0.144840183,101.129238 L0.144840183,106.178559 L0.144840183,111.101965 L0.144840183,136.812008 C0.144840183,139.589328 2.42690868,141.861328 5.21619635,141.861328 L116.784082,141.861328 C119.57337,141.861328 121.855438,139.589328 121.855438,136.812008 L121.855438,111.101965 L121.855438,106.178559 L121.855438,101.129238 L116.784082,101.129238 L5.21619635,101.129238 L5.21619635,101.129238 Z M45.78621,126.376672 L10.287274,126.376672 L10.287274,121.327074 L45.78621,121.327074 L45.78621,126.376672 L45.78621,126.376672 Z M45.78621,116.277754 L10.287274,116.277754 L10.287274,111.228156 L45.78621,111.228156 L45.78621,116.277754 L45.78621,116.277754 Z M71.1424338,126.376672 L55.9286438,126.376672 L55.9286438,111.228156 L71.1424338,111.228156 L71.1424338,126.376672 L71.1424338,126.376672 Z M109.177187,126.376672 C107.776694,126.376672 106.64137,125.246496 106.64137,123.851734 C106.64137,122.456973 107.776416,121.326797 109.177187,121.326797 C110.577959,121.326797 111.713005,122.456973 111.713005,123.851734 C111.713005,125.246496 110.57768,126.376672 109.177187,126.376672 L109.177187,126.376672 Z M109.177187,116.277754 C107.776694,116.277754 106.64137,115.147578 106.64137,113.752816 C106.64137,112.358055 107.776416,111.227879 109.177187,111.227879 C110.577959,111.227879 111.713005,112.358055 111.713005,113.752816 C111.713005,115.147578 110.57768,116.277754 109.177187,116.277754 L109.177187,116.277754 Z" id="Shape" sketch:type="MSShapeGroup"></path>
        </g>
    </g>
</svg>