<?xml version="1.0" encoding="UTF-8" standalone="no"?>
<svg
   xmlns:sketch="http://www.bohemiancoding.com/sketch/ns"
   xmlns:dc="http://purl.org/dc/elements/1.1/"
   xmlns:cc="http://creativecommons.org/ns#"
   xmlns:rdf="http://www.w3.org/1999/02/22-rdf-syntax-ns#"
   xmlns:svg="http://www.w3.org/2000/svg"
   xmlns="http://www.w3.org/2000/svg"
   xmlns:xlink="http://www.w3.org/1999/xlink"
   xmlns:sodipodi="http://sodipodi.sourceforge.net/DTD/sodipodi-0.dtd"
   xmlns:inkscape="http://www.inkscape.org/namespaces/inkscape"
   width="308px"
   height="734px"
   viewBox="0 0 308 734"
   version="1.1"
   id="svg3543"
   inkscape:version="0.48.5 r10040"
   sodipodi:docname="services_bg_blue.svg">
  <metadata
     id="metadata3616">
    <rdf:RDF>
      <cc:Work
         rdf:about="">
        <dc:format>image/svg+xml</dc:format>
        <dc:type
           rdf:resource="http://purl.org/dc/dcmitype/StillImage" />
      </cc:Work>
    </rdf:RDF>
  </metadata>
  <sodipodi:namedview
     pagecolor="#ffffff"
     bordercolor="#666666"
     borderopacity="1"
     objecttolerance="10"
     gridtolerance="10"
     guidetolerance="10"
     inkscape:pageopacity="0"
     inkscape:pageshadow="2"
     inkscape:window-width="1280"
     inkscape:window-height="754"
     id="namedview3614"
     showgrid="false"
     inkscape:zoom="0.64305177"
     inkscape:cx="-368.56663"
     inkscape:cy="326.3089"
     inkscape:window-x="0"
     inkscape:window-y="0"
     inkscape:window-maximized="0"
     inkscape:current-layer="svg3543" />
  <!-- Generator: Sketch 3.2.2 (9983) - http://www.bohemiancoding.com/sketch -->
  <title
     id="title3545">Services</title>
  <defs
     id="defs3547">
    <linearGradient
       id="linearGradient4553">
      <stop
         style="stop-color:#03a9f4;stop-opacity:1;"
         offset="0"
         id="stop4555" />
      <stop
         style="stop-color:#ffffff;stop-opacity:1;"
         offset="1"
         id="stop4557" />
    </linearGradient>
    <linearGradient
       id="linearGradient4441">
      <stop
         style="stop-color:#03a9f4;stop-opacity:0;"
         offset="0"
         id="stop4443" />
      <stop
         style="stop-color:#333333;stop-opacity:0;"
         offset="1"
         id="stop4445" />
    </linearGradient>
    <linearGradient
       inkscape:collect="always"
       xlink:href="#linearGradient4441"
       id="linearGradient4447"
       x1="148.89856"
       y1="729.83691"
       x2="151.10275"
       y2="31.603832"
       gradientUnits="userSpaceOnUse" />
    <linearGradient
       inkscape:collect="always"
       xlink:href="#linearGradient4553"
       id="linearGradient4559"
       x1="148.89856"
       y1="729.83691"
       x2="151.10275"
       y2="31.603832"
       gradientUnits="userSpaceOnUse" />
    <linearGradient
       inkscape:collect="always"
       xlink:href="#linearGradient4441"
       id="linearGradient4573"
       gradientUnits="userSpaceOnUse"
       x1="148.89856"
       y1="729.83691"
       x2="151.10275"
       y2="31.603832" />
    <linearGradient
       inkscape:collect="always"
       xlink:href="#linearGradient4441"
       id="linearGradient4577"
       gradientUnits="userSpaceOnUse"
       x1="148.89856"
       y1="729.83691"
       x2="151.10275"
       y2="31.603832" />
    <linearGradient
       inkscape:collect="always"
       xlink:href="#linearGradient4441"
       id="linearGradient4589"
       gradientUnits="userSpaceOnUse"
       x1="148.89856"
       y1="729.83691"
       x2="151.10275"
       y2="31.603832" />
    <linearGradient
       inkscape:collect="always"
       xlink:href="#linearGradient4441"
       id="linearGradient4593"
       gradientUnits="userSpaceOnUse"
       x1="148.89856"
       y1="729.83691"
       x2="151.10275"
       y2="31.603832" />
    <linearGradient
       inkscape:collect="always"
       xlink:href="#linearGradient4441"
       id="linearGradient4597"
       gradientUnits="userSpaceOnUse"
       x1="148.89856"
       y1="729.83691"
       x2="151.10275"
       y2="31.603832" />
    <linearGradient
       inkscape:collect="always"
       xlink:href="#linearGradient4441"
       id="linearGradient4601"
       gradientUnits="userSpaceOnUse"
       x1="148.89856"
       y1="729.83691"
       x2="151.10275"
       y2="31.603832" />
    <linearGradient
       inkscape:collect="always"
       xlink:href="#linearGradient4441"
       id="linearGradient4633"
       gradientUnits="userSpaceOnUse"
       x1="148.89856"
       y1="729.83691"
       x2="151.10275"
       y2="31.603832" />
    <linearGradient
       inkscape:collect="always"
       xlink:href="#linearGradient4441"
       id="linearGradient4637"
       gradientUnits="userSpaceOnUse"
       x1="148.89856"
       y1="729.83691"
       x2="151.10275"
       y2="31.603832" />
    <linearGradient
       inkscape:collect="always"
       xlink:href="#linearGradient4441"
       id="linearGradient4661"
       gradientUnits="userSpaceOnUse"
       x1="148.89856"
       y1="729.83691"
       x2="151.10275"
       y2="31.603832" />
    <linearGradient
       inkscape:collect="always"
       xlink:href="#linearGradient4441"
       id="linearGradient4665"
       gradientUnits="userSpaceOnUse"
       x1="148.89856"
       y1="729.83691"
       x2="151.10275"
       y2="31.603832" />
    <linearGradient
       inkscape:collect="always"
       xlink:href="#linearGradient4441"
       id="linearGradient4709"
       gradientUnits="userSpaceOnUse"
       x1="148.89856"
       y1="729.83691"
       x2="151.10275"
       y2="31.603832" />
    <linearGradient
       inkscape:collect="always"
       xlink:href="#linearGradient4441"
       id="linearGradient4713"
       gradientUnits="userSpaceOnUse"
       x1="148.89856"
       y1="729.83691"
       x2="151.10275"
       y2="31.603832" />
    <linearGradient
       inkscape:collect="always"
       xlink:href="#linearGradient4441"
       id="linearGradient4757"
       gradientUnits="userSpaceOnUse"
       x1="148.89856"
       y1="729.83691"
       x2="151.10275"
       y2="31.603832" />
    <linearGradient
       inkscape:collect="always"
       xlink:href="#linearGradient4441"
       id="linearGradient4761"
       gradientUnits="userSpaceOnUse"
       x1="148.89856"
       y1="729.83691"
       x2="151.10275"
       y2="31.603832" />
    <linearGradient
       inkscape:collect="always"
       xlink:href="#linearGradient4441"
       id="linearGradient4778"
       gradientUnits="userSpaceOnUse"
       x1="148.89856"
       y1="729.83691"
       x2="151.10275"
       y2="31.603832"
       gradientTransform="translate(4,4)" />
    <linearGradient
       inkscape:collect="always"
       xlink:href="#linearGradient4441"
       id="linearGradient4800"
       gradientUnits="userSpaceOnUse"
       x1="148.89856"
       y1="729.83691"
       x2="151.10275"
       y2="31.603832"
       gradientTransform="translate(4,4)" />
    <linearGradient
       inkscape:collect="always"
       xlink:href="#linearGradient4441"
       id="linearGradient4815"
       gradientUnits="userSpaceOnUse"
       x1="148.89856"
       y1="729.83691"
       x2="151.10275"
       y2="31.603832"
       gradientTransform="translate(4,4)" />
    <linearGradient
       inkscape:collect="always"
       xlink:href="#linearGradient4441"
       id="linearGradient4820"
       gradientUnits="userSpaceOnUse"
       x1="148.89856"
       y1="729.83691"
       x2="151.10275"
       y2="31.603832"
       gradientTransform="translate(4,4)" />
    <linearGradient
       inkscape:collect="always"
       xlink:href="#linearGradient4441"
       id="linearGradient4830"
       gradientUnits="userSpaceOnUse"
       x1="148.89856"
       y1="729.83691"
       x2="151.10275"
       y2="31.603832"
       gradientTransform="translate(4,4)" />
    <linearGradient
       inkscape:collect="always"
       xlink:href="#linearGradient4441"
       id="linearGradient4835"
       gradientUnits="userSpaceOnUse"
       x1="148.89856"
       y1="729.83691"
       x2="151.10275"
       y2="31.603832"
       gradientTransform="translate(4,4)" />
    <linearGradient
       inkscape:collect="always"
       xlink:href="#linearGradient4441"
       id="linearGradient4840"
       gradientUnits="userSpaceOnUse"
       x1="148.89856"
       y1="729.83691"
       x2="151.10275"
       y2="31.603832"
       gradientTransform="translate(4,4)" />
    <linearGradient
       inkscape:collect="always"
       xlink:href="#linearGradient4441"
       id="linearGradient4857"
       gradientUnits="userSpaceOnUse"
       x1="148.89856"
       y1="729.83691"
       x2="151.10275"
       y2="31.603832"
       gradientTransform="translate(4,4)" />
    <linearGradient
       inkscape:collect="always"
       xlink:href="#linearGradient4441"
       id="linearGradient4862"
       gradientUnits="userSpaceOnUse"
       x1="148.89856"
       y1="729.83691"
       x2="151.10275"
       y2="31.603832"
       gradientTransform="translate(4,4)" />
    <linearGradient
       inkscape:collect="always"
       xlink:href="#linearGradient4441"
       id="linearGradient4867"
       gradientUnits="userSpaceOnUse"
       x1="148.89856"
       y1="729.83691"
       x2="151.10275"
       y2="31.603832"
       gradientTransform="translate(4,4)" />
    <linearGradient
       inkscape:collect="always"
       xlink:href="#linearGradient4441"
       id="linearGradient4877"
       gradientUnits="userSpaceOnUse"
       x1="148.89856"
       y1="729.83691"
       x2="151.10275"
       y2="31.603832"
       gradientTransform="translate(4,4)" />
    <linearGradient
       inkscape:collect="always"
       xlink:href="#linearGradient4441"
       id="linearGradient4882"
       gradientUnits="userSpaceOnUse"
       x1="148.89856"
       y1="729.83691"
       x2="151.10275"
       y2="31.603832"
       gradientTransform="translate(4,4)" />
    <linearGradient
       inkscape:collect="always"
       xlink:href="#linearGradient4441"
       id="linearGradient4892"
       gradientUnits="userSpaceOnUse"
       x1="148.89856"
       y1="729.83691"
       x2="151.10275"
       y2="31.603832"
       gradientTransform="translate(4,4)" />
    <linearGradient
       inkscape:collect="always"
       xlink:href="#linearGradient4441"
       id="linearGradient4899"
       gradientUnits="userSpaceOnUse"
       x1="148.89856"
       y1="729.83691"
       x2="151.10275"
       y2="31.603832"
       gradientTransform="translate(4,4)" />
    <linearGradient
       inkscape:collect="always"
       xlink:href="#linearGradient4441"
       id="linearGradient4904"
       gradientUnits="userSpaceOnUse"
       x1="148.89856"
       y1="729.83691"
       x2="151.10275"
       y2="31.603832"
       gradientTransform="translate(4,4)" />
    <linearGradient
       inkscape:collect="always"
       xlink:href="#linearGradient4441"
       id="linearGradient4919"
       gradientUnits="userSpaceOnUse"
       x1="148.89856"
       y1="729.83691"
       x2="151.10275"
       y2="31.603832"
       gradientTransform="translate(4,4)" />
    <linearGradient
       inkscape:collect="always"
       xlink:href="#linearGradient4441"
       id="linearGradient4931"
       gradientUnits="userSpaceOnUse"
       x1="148.89856"
       y1="729.83691"
       x2="151.10275"
       y2="31.603832"
       gradientTransform="translate(4,4)" />
    <linearGradient
       inkscape:collect="always"
       xlink:href="#linearGradient4441"
       id="linearGradient4936"
       gradientUnits="userSpaceOnUse"
       x1="148.89856"
       y1="729.83691"
       x2="151.10275"
       y2="31.603832"
       gradientTransform="translate(4,4)" />
    <linearGradient
       inkscape:collect="always"
       xlink:href="#linearGradient4441"
       id="linearGradient4946"
       gradientUnits="userSpaceOnUse"
       x1="148.89856"
       y1="729.83691"
       x2="151.10275"
       y2="31.603832"
       gradientTransform="translate(4,4)" />
    <linearGradient
       inkscape:collect="always"
       xlink:href="#linearGradient4441"
       id="linearGradient4956"
       gradientUnits="userSpaceOnUse"
       x1="148.89856"
       y1="729.83691"
       x2="151.10275"
       y2="31.603832"
       gradientTransform="translate(4,4)" />
    <linearGradient
       inkscape:collect="always"
       xlink:href="#linearGradient4441"
       id="linearGradient4965"
       gradientUnits="userSpaceOnUse"
       x1="148.89856"
       y1="729.83691"
       x2="151.10275"
       y2="31.603832"
       gradientTransform="translate(4,4)" />
    <linearGradient
       inkscape:collect="always"
       xlink:href="#linearGradient4441"
       id="linearGradient4970"
       gradientUnits="userSpaceOnUse"
       x1="148.89856"
       y1="729.83691"
       x2="151.10275"
       y2="31.603832"
       gradientTransform="translate(4,4)" />
    <linearGradient
       inkscape:collect="always"
       xlink:href="#linearGradient4441"
       id="linearGradient4982"
       gradientUnits="userSpaceOnUse"
       x1="148.89856"
       y1="729.83691"
       x2="151.10275"
       y2="31.603832"
       gradientTransform="translate(4,4)" />
    <linearGradient
       inkscape:collect="always"
       xlink:href="#linearGradient4441"
       id="linearGradient4987"
       gradientUnits="userSpaceOnUse"
       x1="148.89856"
       y1="729.83691"
       x2="151.10275"
       y2="31.603832"
       gradientTransform="translate(4,4)" />
  </defs>
  <path
     d="m 62.868999,400.64824 c -0.008,-14.92301 7.912044,-28.71587 20.774845,-36.1797 12.862801,-7.46382 28.712736,-7.46382 41.575536,0 12.8628,7.46383 20.78284,21.25669 20.77484,36.1797 0.008,14.923 -7.91204,28.71587 -20.77484,36.17969 -12.8628,7.46382 -28.712735,7.46382 -41.575536,0 -12.862801,-7.46382 -20.782841,-21.25669 -20.774845,-36.17969 l 0,0 z"
     id="path3969-65-91"
     sketch:type="MSShapeGroup"
     inkscape:connector-curvature="0"
     style="fill:url(#linearGradient4877);fill-opacity:1;stroke:#03a9f4;stroke-opacity:0.75;opacity:1" />
  <style
     type="text/css"
     id="style3549">
              a.animated {
                animation-name: animKeys;
                animation-iteration-count: infinite;
                animation-duration: 2s;
                animation-direction: alternate;
                animation-play-state: paused;
                -webkit-animation-name: webAnimKeys;
                -webkit-animation-iteration-count: infinite;
                -webkit-animation-duration: 2s;
                -webkit-animation-direction: alternate;
                -webkit-animation-play-state: paused;
              }

              a.animated2{
                  animation-name: animKeys2;
                  animation-iteration-count: infinite;
                  animation-duration: 1.5s;
                  animation-direction: alternate;
                  animation-play-state: paused;
                  -webkit-animation-name: webAnimKeys2;
                  -webkit-animation-iteration-count: infinite;
                  -webkit-animation-duration: 1.5s;
                  -webkit-animation-direction: alternate;
                  -webkit-animation-play-state: paused;
              }

              a.animated {
                animation-play-state: running;
                -webkit-animation-play-state: running;
              }

              a.animated2 {
                animation-play-state: running;
                -webkit-animation-play-state: running;
              }


              @keyframes animKeys {
                0% {fill-opacity: 0.3;}
                100% {fill-opacity: 1.0;}
              }

              @-webkit-keyframes webAnimKeys {
                0% {fill-opacity: 0.3;}
                100% {fill-opacity: 1.0;}
              }

                @keyframes animKeys2 {
                  0% {stroke-width: 5.3;}
                  100% {stroke-width: 10.6;}
                }

                @-webkit-keyframes webAnimKeys2 {
                  0% {stroke-width: 5.3;}
                  100% {stroke-width: 10.6;}
                }

              </style>
  <path
     style="fill:url(#linearGradient4987);fill-opacity:1;stroke:#03a9f4;stroke-opacity:0.75"
     d="m 180.75062,160.25804 -33.27506,4.75366 0,36.84687 16.63754,9.21151 33.79261,-4.90314 0,-36.54904 -17.15509,-9.35986 0,0 z m 14.63353,11.41122 -0.072,-0.58339 0.072,0.0391 0,0.5443 0,0 z m -30.95116,1.39668 -11.51848,-6.27254 27.07963,-3.86859 0,1.64858 1.51287,0 0,-1.02023 11.04784,6.02825 -28.12186,3.48453 0,0 z m -12.94367,26.93436 -1.49219,0.21727 0,-32.13141 12.85518,7.00043 0,32.39304 -11.17681,-6.18794 -0.18618,-1.29139 0,0 z m 43.30729,4.058 0.33395,-0.62196 -2.21968,-1.20219 -0.71799,1.3378 1.2588,0.68174 -28.07781,4.07393 0,-8.81265 1.30483,-0.19004 -0.21667,-1.50408 -1.08816,0.15832 0,-22.47752 14.62026,-1.81135 0,1.01575 1.51287,0 0,-1.20327 13.87714,-1.71975 0,32.19016 -0.58754,0.0851 0,0 z m -38.31621,-4.78439 0.21666,1.50408 -2.49564,0.36315 -0.21666,-1.50408 2.49564,-0.36315 0,0 z m 24.40909,-3.55275 0.92485,0.50116 -0.71798,1.33782 -0.4846,-0.26281 -1.45577,0.2118 -0.21666,-1.50408 1.95016,-0.28389 0,0 z m -19.20166,4.33057 -2.49543,0.36312 -0.21667,-1.50406 2.49534,-0.36314 0.21676,1.50408 0,0 z m 26.78487,-0.22216 2.21909,1.20228 -0.71809,1.33782 -2.21909,-1.20228 0.71809,-1.33782 0,0 z m -17.01969,-2.73499 0.21667,1.50398 -2.49544,0.36313 -0.21666,-1.50408 2.49543,-0.36303 0,0 z m 4.99088,-0.72638 0.21656,1.50407 -2.49534,0.36315 -0.21666,-1.50408 2.49544,-0.36314 0,0 z m 7.58964,1.0563 2.21959,1.20231 -0.71799,1.3378 -2.21969,-1.20228 0.71809,-1.33783 0,0 z m -4.03939,-30.31798 1.51287,0 0,2.53326 -1.51287,0 0,-2.53326 0,0 z m 1.51287,22.79861 -1.51287,0 0,-2.53326 1.51287,0 0,2.53326 0,0 z m 0,5.06648 -1.51287,0 0,-2.53325 1.51287,0 0,2.53325 0,0 z m 0,-15.19917 -1.51287,0 0,-2.53323 1.51287,0 0,2.53323 0,0 z m 0,5.06639 -1.51287,0 0,-2.53325 1.51287,0 0,2.53325 0,0 z"
     id="path3172"
     sketch:type="MSShapeGroup"
     inkscape:connector-curvature="0" />
  <path
     style="fill:url(#linearGradient4982);fill-opacity:1;stroke:#03a9f4;stroke-opacity:0.75"
     d="m 213.91617,184.57558 c 0.007,-14.92244 -7.91307,-28.71442 -20.77552,-36.17771 -12.86246,-7.4633 -28.71172,-7.4633 -41.57418,0 -12.86245,7.46329 -20.78268,21.25527 -20.77552,36.17771 -0.007,14.92245 7.91307,28.71442 20.77552,36.17772 12.86246,7.4633 28.71172,7.4633 41.57418,0 12.86245,-7.4633 20.78268,-21.25527 20.77552,-36.17772 l 0,0 z"
     id="path3969"
     sketch:type="MSShapeGroup"
     inkscape:connector-curvature="0" />
  <path
     style="fill:#ffffff;fill-opacity:1;stroke:#03a9f4;stroke-opacity:0.75"
     d="m 193.56757,147.00808 c 0,-2.56915 -2.07311,-4.65185 -4.63041,-4.65185 -2.55731,0 -4.63042,2.0827 -4.63042,4.65185 0,2.56915 2.07311,4.65186 4.63042,4.65186 2.5573,0 4.63041,-2.08271 4.63041,-4.65186 l 0,0 z"
     id="path3969-6"
     sketch:type="MSShapeGroup"
     inkscape:connector-curvature="0" />
  <a
     style="fill:url(#linearGradient4577);fill-opacity:1;stroke:#03a9f4;stroke-opacity:0.75"
     class="animated"
     id="a3556"
     transform="translate(4,4)">
    <path
       style="fill:url(#linearGradient4573);fill-opacity:1;stroke:#03a9f4;stroke-opacity:0.75"
       d="m 207.96677,18.633782 -33.27506,4.753679 0,36.846871 16.63753,9.211488 33.79263,-4.903113 0,-36.549067 -17.1551,-9.359858 0,0 z m 14.63352,11.411244 -0.072,-0.583389 0.072,0.03906 0,0.544331 0,0 z m -30.95115,1.396679 -11.51848,-6.272543 27.07963,-3.868588 0,1.648552 1.51288,0 0,-1.020199 11.04783,6.02822 -28.12186,3.484558 0,0 z m -12.94367,26.934358 -1.49219,0.217267 0,-32.131404 12.85518,7.00043 0,32.393007 -11.17681,-6.187916 -0.18618,-1.291384 0,0 z m 43.3073,4.058001 0.33394,-0.621964 -2.21968,-1.202208 -0.71798,1.337825 1.25879,0.681738 -28.07782,4.073925 0,-8.812672 1.30483,-0.190019 -0.21665,-1.504078 -1.08818,0.158316 0,-22.477541 14.62027,-1.811321 0,1.015746 1.51288,0 0,-1.203272 13.87712,-1.719773 0,32.190187 -0.58752,0.08511 0,0 z m -38.31622,-4.784388 0.21666,1.504078 -2.49564,0.363145 -0.21666,-1.504078 2.49564,-0.363145 0,0 z m 24.40909,-3.552754 0.92485,0.501158 -0.71798,1.337824 -0.48461,-0.262812 -1.45576,0.211799 -0.21666,-1.504079 1.95016,-0.28389 0,0 z m -19.20165,4.330542 -2.49544,0.363145 -0.21666,-1.504079 2.49533,-0.363145 0.21677,1.504079 0,0 z m 26.78486,-0.222132 2.21908,1.20228 -0.71808,1.337824 -2.2191,-1.20228 0.7181,-1.337824 0,0 z m -17.01969,-2.735012 0.21667,1.503982 -2.49544,0.363145 -0.21665,-1.504078 2.49542,-0.363049 0,0 z m 4.99088,-0.726363 0.21656,1.504055 -2.49533,0.363145 -0.21667,-1.504079 2.49544,-0.363121 0,0 z m 7.58965,1.056306 2.21958,1.20228 -0.71798,1.337825 -2.2197,-1.20228 0.7181,-1.337825 0,0 z m -4.0394,-30.317978 1.51288,0 0,2.533232 -1.51288,0 0,-2.533232 0,0 z m 1.51288,22.798603 -1.51288,0 0,-2.533256 1.51288,0 0,2.533256 0,0 z m 0,5.066463 -1.51288,0 0,-2.533232 1.51288,0 0,2.533232 0,0 z m 0,-15.199149 -1.51288,0 0,-2.533256 1.51288,0 0,2.533256 0,0 z m 0,5.066391 -1.51288,0 0,-2.533256 1.51288,0 0,2.533256 0,0 z"
       id="path3172-6"
       sketch:type="MSShapeGroup"
       inkscape:connector-curvature="0" />
  </a>
  <path
     d="m 245.13233,46.951346 c 0.008,-14.923007 -7.91205,-28.715871 -20.77485,-36.179694 -12.8628,-7.4638236 -28.71273,-7.4638236 -41.57554,0 -12.8628,7.463823 -20.78284,21.256687 -20.77484,36.179694 -0.008,14.923006 7.91204,28.715871 20.77484,36.179694 12.86281,7.463823 28.71274,7.463823 41.57554,0 12.8628,-7.463823 20.78284,-21.256688 20.77485,-36.179694 l 0,0 z"
     id="path3969-65"
     sketch:type="MSShapeGroup"
     inkscape:connector-curvature="0"
     style="opacity:1;fill:url(#linearGradient4970);fill-opacity:1;stroke:#03a9f4;stroke-opacity:0.75" />
  <path
     style="fill:url(#linearGradient4965);fill-opacity:1;stroke:#03a9f4;stroke-opacity:0.75"
     d="m 200.72127,88.43893 c 0,-2.569151 -2.07311,-4.651859 -4.63042,-4.651859 -2.55731,0 -4.63042,2.082708 -4.63042,4.651859 0,2.569152 2.07311,4.65186 4.63042,4.65186 2.55731,0 4.63042,-2.082708 4.63042,-4.65186 l 0,0 z"
     id="path3969-6-8"
     sketch:type="MSShapeGroup"
     inkscape:connector-curvature="0" />
  <a
     style="fill:url(#linearGradient4593);fill-opacity:1;stroke:#03a9f4;stroke-opacity:0.75;stroke-width:1;stroke-miterlimit:4;stroke-dasharray:6, 6;stroke-dashoffset:0"
     class="animated2"
     id="a3561"
     transform="translate(4,4)">
    <path
       style="fill:url(#linearGradient4589);fill-opacity:1;stroke:#03a9f4;stroke-opacity:0.75;stroke-width:1;stroke-miterlimit:4;stroke-dasharray:6, 6;stroke-dashoffset:0"
       d="m 192.41602,89.106893 c 0,0 2.60135,27.440597 -6.50337,49.001077"
       id="path4051"
       sketch:type="MSShapeGroup"
       inkscape:connector-curvature="0" />
  </a>
  <a
     style="fill:url(#linearGradient4601);fill-opacity:1;stroke:#03a9f4;stroke-opacity:0.75;stroke-width:1;stroke-miterlimit:4;stroke-dasharray:6, 6;stroke-dashoffset:0"
     class="animated2"
     id="a3564"
     transform="translate(4,4)">
    <path
       style="fill:url(#linearGradient4597);fill-opacity:1;stroke:#03a9f4;stroke-opacity:0.75;stroke-width:1;stroke-miterlimit:4;stroke-dasharray:6, 6;stroke-dashoffset:0"
       d="m 298.83296,329.02552 c 0.008,-14.923 -7.91204,-28.71587 -20.77484,-36.17969 -12.8628,-7.46382 -28.71274,-7.46382 -41.57554,0 -12.8628,7.46382 -20.78284,21.25669 -20.77484,36.17969 -0.008,14.92301 7.91204,28.71587 20.77484,36.1797 12.8628,7.46382 28.71274,7.46382 41.57554,0 12.8628,-7.46383 20.78284,-21.25669 20.77484,-36.1797 l 0,0 z"
       id="path3969-7"
       sketch:type="MSShapeGroup"
       inkscape:connector-curvature="0" />
  </a>
  <path
     style="fill:url(#linearGradient4956);fill-opacity:1;stroke:#03a9f4;stroke-opacity:0.75"
     d="m 281.83051,315.24077 c 0,-3.87599 -9.31785,-7.01843 -20.81226,-7.01843 -11.49438,0 -20.81223,3.14244 -20.81223,7.01843 l 0,37.36807 0.006,0 c 0.13347,3.83713 9.39473,6.93446 20.80594,6.93446 11.41123,0 20.67249,-3.09733 20.80584,-6.93446 l 0.006,0 0,-37.19603 -0.0135,0.006 c 0.005,-0.0594 0.0135,-0.11841 0.0135,-0.17816 l 1.7e-4,7e-5 z m -3.46855,37.36807 c -0.22833,0.41348 -0.38127,1.57779 -3.86092,2.67212 -3.63989,1.14562 -8.42833,1.77676 -13.48279,1.77676 -5.05436,0 -9.84278,-0.63114 -13.48286,-1.77676 -3.47955,-1.09433 -3.63271,-2.25864 -3.86063,-2.67212 l 0,-8.46925 c 3.72617,1.89346 10.09951,3.14264 17.34349,3.14264 7.244,0 13.61735,-1.24918 17.34371,-3.14264 l 0,8.46925 0,0 z m 0,-12.26158 c -0.22833,0.41437 -0.38127,1.57779 -3.86092,2.67301 -3.63989,1.14563 -8.42833,1.77645 -13.48279,1.77645 -5.05436,0 -9.84278,-0.63073 -13.48286,-1.77645 -3.47955,-1.09522 -3.63271,-2.25864 -3.86063,-2.67301 l 0,-8.63568 c 3.72617,1.89334 10.09951,3.14274 17.34349,3.14274 7.244,0 13.61735,-1.2494 17.34371,-3.14274 l 0,8.63568 0,0 z m 0,-12.42791 c -0.22833,0.41399 -0.38127,1.57779 -3.86092,2.67282 -3.63989,1.14553 -8.42833,1.77644 -13.48279,1.77644 -5.05436,0 -9.84278,-0.63091 -13.48286,-1.77644 -3.47955,-1.09503 -3.63271,-2.25886 -3.86063,-2.67282 l 0,-8.79978 c 3.72826,1.89206 10.10291,3.13961 17.34349,3.13961 7.2406,0 13.61506,-1.24755 17.34371,-3.13961 l 0,8.79978 0,0 z m -3.86092,-9.92251 c -3.63989,1.14563 -8.42833,1.77655 -13.48279,1.77655 -5.05436,0 -9.84278,-0.63092 -13.48286,-1.77655 -3.74886,-1.17968 -4.79704,-2.44052 -4.89742,-2.75607 0.10038,-0.31556 1.14895,-1.57648 4.8978,-2.75626 3.64008,-1.14574 8.42834,-1.77645 13.48248,-1.77645 5.05417,0 9.84221,0.63071 13.48238,1.77645 3.74896,1.17978 4.79775,2.4407 4.89781,2.75626 -0.10006,0.31555 -1.14844,1.57649 -4.8974,2.75607 l 0,0 z"
     id="path4241"
     sketch:type="MSShapeGroup"
     inkscape:connector-curvature="0" />
  <path
     style="fill:#ffffff;fill-opacity:1;stroke:#03a9f4;stroke-opacity:0.75"
     d="m 249.1445,294.09716 c 0.001,-1.66289 -0.88083,-3.20008 -2.31407,-4.03193 -1.43323,-0.83186 -3.19946,-0.83186 -4.63269,0 -1.43324,0.83185 -2.31548,2.36904 -2.31407,4.03193 -0.001,1.6629 0.88083,3.20008 2.31407,4.03194 1.43323,0.83185 3.19946,0.83185 4.63269,0 1.43324,-0.83186 2.31548,-2.36904 2.31407,-4.03194 l 0,0 z"
     id="path3969-6-85"
     sketch:type="MSShapeGroup"
     inkscape:connector-curvature="0" />
  <path
     style="fill:url(#linearGradient4946);fill-opacity:1;stroke:#03a9f4;stroke-opacity:0.75"
     d="m 38.533011,246.45005 c 0,0 22.830893,-32.42311 90.716679,-47.29406"
     id="path4051-8"
     sketch:type="MSShapeGroup"
     inkscape:connector-curvature="0" />
  <path
     style="fill:#ffffff;fill-opacity:1;stroke:#03a9f4;stroke-opacity:0.75"
     d="m 210.65744,209.1387 c 7.5e-4,-1.66245 -0.88163,-3.19894 -2.3146,-4.03039 -1.43296,-0.83145 -3.19867,-0.83145 -4.63163,0 -1.43297,0.83145 -2.31535,2.36794 -2.3146,4.03039 -7.5e-4,1.66246 0.88163,3.19895 2.3146,4.0304 1.43296,0.83145 3.19867,0.83145 4.63163,0 1.43297,-0.83145 2.31535,-2.36794 2.3146,-4.0304 l 0,0 z"
     id="path3969-6-85-4"
     sketch:type="MSShapeGroup"
     inkscape:connector-curvature="0" />
  <path
     style="fill:url(#linearGradient4936);fill-opacity:1;stroke:#03a9f4;stroke-opacity:0.75"
     d="m 31.248745,259.09803 -17.372453,2.48183 0,19.23724 8.686228,4.80919 17.642658,-2.55985 0,-19.0818 -8.956433,-4.88663 0,2e-5 z m 7.639961,5.95765 -0.03757,-0.3046 0.03757,0.0203 0,0.28418 0,9e-5 z m -16.159173,0.7292 -6.013639,-3.27482 14.137896,-2.01973 0,0.86067 0.789853,0 0,-0.53264 5.767928,3.14728 -14.682038,1.81921 0,3e-5 z m -6.75771,14.06204 -0.779054,0.11345 0,-16.77537 6.71151,3.65483 0,16.91193 -5.835256,-3.2306 -0.0972,-0.67424 0,0 z m 22.610136,2.11864 0.174352,-0.32472 -1.158864,-0.62765 -0.374853,0.69846 0.657205,0.35593 -14.659043,2.12694 0,-4.60098 0.681234,-0.0992 -0.113119,-0.78529 -0.568115,0.0827 0,-11.73524 7.633034,-0.94564 0,0.5303 0.789853,0 0,-0.62821 7.245063,-0.89789 0,16.80605 -0.306747,0.0445 0,0 z m -20.00437,-2.49785 0.11312,0.78526 -1.302938,0.18958 -0.113114,-0.78526 1.302932,-0.18958 0,0 z m 12.743655,-1.85486 0.482853,0.26165 -0.374853,0.69843 -0.252998,-0.13721 -0.760042,0.11062 -0.113114,-0.78527 1.018154,-0.14822 0,0 z m -10.024924,2.26093 -1.302828,0.18956 -0.11312,-0.78522 1.302783,-0.18963 0.113165,0.78529 0,0 z m 13.984015,-0.11599 1.158556,0.6277 -0.374903,0.69846 -1.158559,-0.6277 0.374906,-0.69846 0,0 z m -8.885744,-1.4279 0.113114,0.78522 -1.302831,0.18958 -0.113117,-0.78526 1.302834,-0.18954 0,0 z m 2.605665,-0.37926 0.113066,0.78529 -1.302783,0.18956 -0.113117,-0.78522 1.302834,-0.18963 0,0 z m 3.962449,0.55152 1.158812,0.6277 -0.37485,0.69846 -1.158865,-0.6277 0.374903,-0.69846 0,0 z m -2.108915,-15.82859 0.789853,0 0,1.32255 -0.789853,0 0,-1.32255 0,0 z m 0.789853,11.90282 -0.789853,0 0,-1.32261 0.789853,0 0,1.32261 0,0 z m 0,2.64515 -0.789853,0 0,-1.3226 0.789853,0 0,1.3226 0,0 z m 0,-7.9353 -0.789853,0 0,-1.3226 0.789853,0 0,1.3226 0,0 z m 0,2.64509 -0.789853,0 0,-1.32258 0.789853,0 0,1.32258 0,0 z"
     id="path3172-6-2"
     sketch:type="MSShapeGroup"
     inkscape:connector-curvature="0" />
  <path
     style="fill:url(#linearGradient4931);fill-opacity:1;stroke:#03a9f4;stroke-opacity:0.75"
     d="m 48.564042,271.79388 c 0.0023,-7.78981 -4.133094,-14.98888 -10.847802,-18.88445 -6.714708,-3.89556 -14.988224,-3.89556 -21.702933,0 -6.7147078,3.89557 -10.8500692,11.09464 -10.8478022,18.88445 -0.00227,7.78982 4.1330944,14.98889 10.8478022,18.88446 6.714709,3.89556 14.988225,3.89556 21.702933,0 6.714708,-3.89557 10.850069,-11.09464 10.847802,-18.88446 l 0,0 z"
     id="path3969-65-9"
     sketch:type="MSShapeGroup"
     inkscape:connector-curvature="0" />
  <path
     style="fill:#ffffff;fill-opacity:1;stroke:#03a9f4;stroke-opacity:0.75"
     d="m 40.396971,250.22549 c 0,-2.56915 -2.073108,-4.65186 -4.630417,-4.65186 -2.557308,0 -4.630416,2.08271 -4.630416,4.65186 0,2.56915 2.073108,4.65186 4.630416,4.65186 2.557309,0 4.630417,-2.08271 4.630417,-4.65186 l 0,0 z"
     id="path3969-6-85-4-8"
     sketch:type="MSShapeGroup"
     inkscape:connector-curvature="0" />
  <a
     style="fill:url(#linearGradient4637);fill-opacity:1;stroke:#03a9f4;stroke-opacity:0.75"
     class="animated"
     id="a3574"
     transform="translate(4,4)">
    <path
       style="fill:url(#linearGradient4633);fill-opacity:1;stroke:#03a9f4;stroke-opacity:0.75"
       d="m 96.933466,255.90687 -17.372455,2.48183 0,19.23723 8.686229,4.80917 17.64266,-2.55983 0,-19.08179 -8.956434,-4.88666 0,5e-5 z m 7.639964,5.95765 -0.0376,-0.30458 0.0376,0.0203 0,0.28418 0,7e-5 z m -16.159175,0.7292 -6.013639,-3.27485 14.137896,-2.0197 0,0.86067 0.78985,0 0,-0.53262 5.767928,3.14724 -14.682035,1.81923 0,3e-5 z m -6.757712,14.06203 -0.779052,0.11343 0,-16.77534 6.711508,3.6548 0,16.91198 -5.835257,-3.23065 -0.0972,-0.67422 0,0 z m 22.610137,2.11864 0.17435,-0.32474 -1.15886,-0.62762 -0.37485,0.69846 0.6572,0.35591 -14.659042,2.12693 0,-4.60097 0.681232,-0.0992 -0.113117,-0.78527 -0.568115,0.0827 0,-11.73521 7.633034,-0.94566 0,0.53027 0.78985,0 0,-0.62818 7.245068,-0.89787 0,16.80605 -0.30675,0.0444 0,0 z m -20.004369,-2.49787 0.113117,0.78526 -1.302937,0.18959 -0.113112,-0.78525 1.302932,-0.1896 0,0 z m 12.743654,-1.85484 0.482853,0.26165 -0.374855,0.69846 -0.252996,-0.13721 -0.760044,0.11057 -0.113112,-0.78527 1.018154,-0.1482 0,0 z m -10.024923,2.26091 -1.302831,0.18961 -0.113117,-0.78527 1.302783,-0.18958 0.113165,0.78524 0,0 z m 13.984008,-0.11599 1.15856,0.62773 -0.3749,0.69846 -1.15856,-0.62773 0.3749,-0.69846 0,0 z m -8.885737,-1.42787 0.113112,0.78519 -1.302829,0.18959 -0.113119,-0.78525 1.302836,-0.18953 0,0 z m 2.605662,-0.37924 0.113069,0.78524 -1.302783,0.18961 -0.113119,-0.78527 1.302833,-0.18958 0,0 z m 3.962449,0.55147 1.158814,0.6277 -0.37485,0.69846 -1.158864,-0.6277 0.3749,-0.69846 0,0 z m -2.108912,-15.82859 0.78985,0 0,1.32258 -0.78985,0 0,-1.32258 0,0 z m 0.78985,11.90284 -0.78985,0 0,-1.32258 0.78985,0 0,1.32258 0,0 z m 0,2.64514 -0.78985,0 0,-1.32258 0.78985,0 0,1.32258 0,0 z m 0,-7.93528 -0.78985,0 0,-1.3226 0.78985,0 0,1.3226 0,0 z m 0,2.64506 -0.78985,0 0,-1.32253 0.78985,0 0,1.32253 0,0 z"
       id="path3172-6-2-2"
       sketch:type="MSShapeGroup"
       inkscape:connector-curvature="0" />
  </a>
  <path
     style="fill:url(#linearGradient4919);fill-opacity:1;stroke:#03a9f4;stroke-opacity:0.75"
     d="m 118.24874,272.60275 c 0.003,-7.79004 -4.13271,-14.98943 -10.84754,-18.8852 -6.71484,-3.89576 -14.98861,-3.89576 -21.703448,0 -6.714838,3.89577 -10.85013,11.09516 -10.847547,18.8852 -0.0026,7.79003 4.132709,14.98942 10.847547,18.88519 6.714838,3.89576 14.988608,3.89576 21.703448,0 6.71483,-3.89577 10.85013,-11.09516 10.84754,-18.88519 l 0,0 z"
     id="path3969-65-9-3"
     sketch:type="MSShapeGroup"
     inkscape:connector-curvature="0" />
  <path
     style="fill:#ffffff;fill-opacity:1;stroke:#03a9f4;stroke-opacity:0.75"
     d="m 110.08166,251.03428 c 0,-2.56915 -2.07311,-4.65186 -4.63041,-4.65186 -2.55731,0 -4.63042,2.08271 -4.63042,4.65186 0,2.56915 2.07311,4.65186 4.63042,4.65186 2.5573,0 4.63041,-2.08271 4.63041,-4.65186 l 0,0 z"
     id="path3969-6-85-4-8-7"
     sketch:type="MSShapeGroup"
     inkscape:connector-curvature="0" />
  <path
     style="fill:#ffffff;fill-opacity:1;stroke:#03a9f4;stroke-opacity:0.75"
     d="m 138.13415,197.30239 c 0,-2.56915 -2.0731,-4.65186 -4.63041,-4.65186 -2.55731,0 -4.63042,2.08271 -4.63042,4.65186 0,2.56915 2.07311,4.65186 4.63042,4.65186 2.55731,0 4.63041,-2.08271 4.63041,-4.65186 l 0,0 z"
     id="path3969-6-85-4-5"
     sketch:type="MSShapeGroup"
     inkscape:connector-curvature="0" />
  <path
     style="fill:url(#linearGradient4904);fill-opacity:1;stroke:#03a9f4;stroke-opacity:0.75"
     d="m 208.95142,213.57139 c 1.78065,-3.25255 26.20383,33.35508 34.47096,75.8301"
     id="path4051-8-8"
     sketch:type="MSShapeGroup"
     inkscape:connector-curvature="0" />
  <path
     style="fill:url(#linearGradient4899);fill-opacity:1;stroke:#03a9f4;stroke-opacity:0.75"
     d="m 105.80521,246.05416 c 0,0 2.46633,-23.12366 23.32846,-46.36415"
     id="path4051-8-3"
     sketch:type="MSShapeGroup"
     inkscape:connector-curvature="0" />
  <a
     style="fill:url(#linearGradient4665);fill-opacity:1;stroke:#03a9f4;stroke-opacity:0.75"
     class="animated"
     id="a3582"
     transform="translate(4,4)">
    <path
       style="fill:url(#linearGradient4661);fill-opacity:1;stroke:#03a9f4;stroke-opacity:0.75"
       d="m 123.2507,509.95494 33.27506,4.75365 0,36.84687 -16.63753,9.21151 -33.79262,-4.90313 0,-36.54905 17.15509,-9.35985 0,0 z m -14.63352,11.41122 0.072,-0.58339 -0.072,0.0391 0,0.54431 0,0 z m 30.95115,1.39667 11.51848,-6.27254 -27.07962,-3.86859 0,1.64858 -1.51288,0 0,-1.02022 -11.04784,6.02824 28.12186,3.48453 0,0 z m 12.94367,26.93436 1.49219,0.21727 0,-32.13141 -12.85518,7.00044 0,32.39303 11.17681,-6.18794 0.18618,-1.29139 0,0 z m -43.30728,4.058 -0.33396,-0.62196 2.21969,-1.20218 0.71799,1.3378 -1.25881,0.68173 28.07782,4.07393 0,-8.81265 -1.30483,-0.19004 0.21666,-1.50408 1.08817,0.15832 0,-22.47752 -14.62026,-1.81135 0,1.01575 -1.51288,0 0,-1.20327 -13.87713,-1.71975 0,32.19016 0.58754,0.0851 0,0 z m 38.31621,-4.78438 -0.21666,1.50407 2.49563,0.36315 0.21666,-1.50408 -2.49563,-0.36314 0,0 z m -24.4091,-3.55276 -0.92485,0.50116 0.71799,1.33782 0.4846,-0.26281 1.45577,0.2118 0.21666,-1.50408 -1.95017,-0.28389 0,0 z m 19.20166,4.33057 2.49544,0.36312 0.21666,-1.50406 -2.49534,-0.36314 -0.21676,1.50408 0,0 z m -26.78486,-0.22216 -2.21909,1.20228 0.71808,1.33783 2.21909,-1.20229 -0.71808,-1.33782 0,0 z m 17.01968,-2.73499 -0.21667,1.50398 2.49544,0.36313 0.21666,-1.50408 -2.49543,-0.36303 0,0 z m -4.99087,-0.72638 -0.21657,1.50407 2.49534,0.36315 0.21666,-1.50408 -2.49543,-0.36314 0,0 z m -7.58965,1.0563 -2.21958,1.20231 0.71798,1.3378 2.21969,-1.20228 -0.71809,-1.33783 0,0 z m 4.0394,-30.31798 -1.51288,0 0,2.53326 1.51288,0 0,-2.53326 0,0 z m -1.51288,22.79861 1.51288,0 0,-2.53326 -1.51288,0 0,2.53326 0,0 z m 0,5.06648 1.51288,0 0,-2.53325 -1.51288,0 0,2.53325 0,0 z m 0,-15.19917 1.51288,0 0,-2.53323 -1.51288,0 0,2.53323 0,0 z m 0,5.06639 1.51288,0 0,-2.53325 -1.51288,0 0,2.53325 0,0 z"
       id="path3172-9"
       sketch:type="MSShapeGroup"
       inkscape:connector-curvature="0" />
  </a>
  <path
     style="fill:url(#linearGradient4892);fill-opacity:1;stroke:#03a9f4;stroke-opacity:0.75"
     d="m 94.08515,538.27247 c -0.0072,-14.92244 7.91307,-28.71442 20.77553,-36.17771 12.86245,-7.4633 28.71171,-7.4633 41.57417,0 12.86245,7.46329 20.78268,21.25527 20.77553,36.17771 0.007,14.92245 -7.91308,28.71443 -20.77553,36.17772 -12.86246,7.4633 -28.71172,7.4633 -41.57417,0 -12.86246,-7.46329 -20.782681,-21.25527 -20.77553,-36.17772 l 0,0 z"
     id="path3969-71"
     sketch:type="MSShapeGroup"
     inkscape:connector-curvature="0" />
  <path
     style="fill:#ffffff;fill-opacity:1;stroke:#03a9f4;stroke-opacity:0.75"
     d="m 114.43375,500.70498 c 0,-2.56916 2.07311,-4.65186 4.63042,-4.65186 2.55731,0 4.63042,2.0827 4.63042,4.65186 0,2.56915 -2.07311,4.65185 -4.63042,4.65185 -2.55731,0 -4.63042,-2.0827 -4.63042,-4.65185 l 0,0 z"
     id="path3969-6-1"
     sketch:type="MSShapeGroup"
     inkscape:connector-curvature="0" />
  <path
     d="m 96.034556,376.33067 33.275054,4.75368 0,36.84687 -16.63753,9.21149 -33.792621,-4.90311 0,-36.54907 17.155097,-9.35986 0,0 z m -14.633518,11.41125 0.07195,-0.58339 -0.07195,0.0391 0,0.54433 0,0 z m 30.951142,1.39668 11.51848,-6.27255 -27.07963,-3.86859 0,1.64856 -1.512875,0 0,-1.0202 -11.047832,6.02822 28.121857,3.48456 0,0 z m 12.94367,26.93435 1.49219,0.21727 0,-32.1314 -12.85517,7.00043 0,32.393 11.1768,-6.18791 0.18618,-1.29139 0,0 z m -43.307294,4.058 -0.333939,-0.62196 2.219679,-1.20221 0.71798,1.33783 -1.25879,0.68174 28.077814,4.07392 0,-8.81267 -1.30482,-0.19002 0.21665,-1.50408 1.08817,0.15832 0,-22.47754 -14.62027,-1.81132 0,1.01574 -1.512875,0 0,-1.20327 -13.877117,-1.71977 0,32.19018 0.587518,0.0851 0,0 z m 38.316224,-4.78438 -0.21666,1.50407 2.49563,0.36315 0.21666,-1.50408 -2.49563,-0.36314 0,0 z m -24.409093,-3.55276 -0.924853,0.50116 0.717981,1.33782 0.484611,-0.26281 1.455762,0.2118 0.216651,-1.50408 -1.950152,-0.28389 0,0 z m 19.201653,4.33054 2.49544,0.36315 0.21666,-1.50408 -2.49533,-0.36314 -0.21677,1.50407 0,0 z m -26.784867,-0.22213 -2.219076,1.20228 0.718076,1.33783 2.219101,-1.20228 -0.718101,-1.33783 0,0 z m 17.019697,-2.73501 -0.21668,1.50398 2.49545,0.36315 0.21665,-1.50408 -2.49542,-0.36305 0,0 z m -4.99089,-0.72636 -0.21655,1.50405 2.49532,0.36315 0.21668,-1.50408 -2.49545,-0.36312 0,0 z m -7.589642,1.0563 -2.219583,1.20228 0.717981,1.33783 2.219703,-1.20228 -0.718101,-1.33783 0,0 z m 4.039392,-30.31797 -1.512875,0 0,2.53323 1.512875,0 0,-2.53323 0,0 z m -1.512875,22.7986 1.512875,0 0,-2.53326 -1.512875,0 0,2.53326 0,0 z m 0,5.06646 1.512875,0 0,-2.53323 -1.512875,0 0,2.53323 0,0 z m 0,-15.19915 1.512875,0 0,-2.53325 -1.512875,0 0,2.53325 0,0 z m 0,5.06639 1.512875,0 0,-2.53325 -1.512875,0 0,2.53325 0,0 z"
     id="path3172-6-4"
     sketch:type="MSShapeGroup"
     inkscape:connector-curvature="0"
     style="opacity:1;fill:url(#linearGradient4882);fill-opacity:1;stroke:#03a9f4;stroke-opacity:0.75" />
  <path
     style="fill:#ffffff;fill-opacity:1;stroke:#03a9f4;stroke-opacity:0.75"
     d="m 107.28006,442.13582 c 0,-2.56915 2.07311,-4.65186 4.63042,-4.65186 2.5573,0 4.63041,2.08271 4.63041,4.65186 0,2.56915 -2.07311,4.65186 -4.63041,4.65186 -2.55731,0 -4.63042,-2.08271 -4.63042,-4.65186 l 0,0 z"
     id="path3969-6-8-1"
     sketch:type="MSShapeGroup"
     inkscape:connector-curvature="0" />
  <path
     style="fill:url(#linearGradient4867);fill-opacity:1;stroke:#03a9f4;stroke-opacity:0.75"
     d="m 111.58531,446.80378 c 0,0 -2.60136,27.4406 6.50336,49.00108"
     id="path4051-5"
     sketch:type="MSShapeGroup"
     inkscape:connector-curvature="0" />
  <path
     style="fill:url(#linearGradient4862);fill-opacity:1;stroke:#03a9f4;stroke-opacity:0.75"
     d="m 5.1683622,686.72241 c -0.008,-14.923 7.9120438,-28.71587 20.7748448,-36.17969 12.862801,-7.46382 28.712735,-7.46382 41.575536,0 12.862801,7.46382 20.782841,21.25669 20.774845,36.17969 0.008,14.92301 -7.912044,28.71587 -20.774845,36.1797 -12.862801,7.46382 -28.712735,7.46382 -41.575536,0 C 13.080406,715.43828 5.160366,701.64542 5.1683622,686.72241 l 0,0 z"
     id="path3969-7-5"
     sketch:type="MSShapeGroup"
     inkscape:connector-curvature="0" />
  <path
     style="fill:url(#linearGradient4857);fill-opacity:1;stroke:#03a9f4;stroke-opacity:0.75"
     d="m 26.170819,668.93767 c 0,-3.876 9.317847,-7.01844 20.812255,-7.01844 11.494383,0 20.812228,3.14244 20.812228,7.01844 l 0,37.36806 -0.0063,0 c -0.133474,3.83713 -9.394735,6.93446 -20.805941,6.93446 -11.41123,0 -20.672494,-3.09733 -20.805847,-6.93446 l -0.0063,0 0,-37.19603 0.01349,0.006 c -0.0046,-0.0594 -0.01349,-0.11841 -0.01349,-0.17816 l -1.69e-4,8e-5 z m 3.468545,37.36806 c 0.228334,0.41348 0.381272,1.57779 3.860921,2.67212 3.639886,1.14562 8.428333,1.77676 13.482789,1.77676 5.054359,0 9.842782,-0.63114 13.482861,-1.77676 3.47955,-1.09433 3.632705,-2.25864 3.86063,-2.67212 l 0,-8.46925 c -3.726168,1.89346 -10.099515,3.14264 -17.343491,3.14264 -7.244,0 -13.617347,-1.24918 -17.34371,-3.14264 l 0,8.46925 0,0 z m 0,-12.26158 c 0.228334,0.41437 0.381272,1.57779 3.860921,2.67301 3.639886,1.14563 8.428333,1.77645 13.482789,1.77645 5.054359,0 9.842782,-0.63073 13.482861,-1.77645 3.47955,-1.09522 3.632705,-2.25864 3.86063,-2.67301 l 0,-8.63568 c -3.726168,1.89334 -10.099515,3.14274 -17.343491,3.14274 -7.244,0 -13.617347,-1.2494 -17.34371,-3.14274 l 0,8.63568 0,0 z m 0,-12.42791 c 0.228334,0.41399 0.381272,1.57779 3.860921,2.67282 3.639886,1.14553 8.428333,1.77645 13.482789,1.77645 5.054359,0 9.842782,-0.63092 13.482861,-1.77645 3.47955,-1.09503 3.632705,-2.25886 3.86063,-2.67282 l 0,-8.79978 c -3.728264,1.89206 -10.102912,3.13962 -17.343491,3.13962 -7.240604,0 -13.615059,-1.24756 -17.34371,-3.13962 l 0,8.79978 0,0 z m 3.860921,-9.92251 c 3.639886,1.14563 8.428333,1.77655 13.482789,1.77655 5.054359,0 9.842782,-0.63092 13.482861,-1.77655 3.748859,-1.17968 4.797044,-2.44052 4.897421,-2.75606 -0.100377,-0.31557 -1.148947,-1.57649 -4.897806,-2.75626 -3.640079,-1.14575 -8.428333,-1.77645 -13.482476,-1.77645 -5.054167,0 -9.842205,0.6307 -13.482379,1.77645 -3.748959,1.17977 -4.797746,2.44069 -4.897809,2.75626 0.100063,0.31554 1.148441,1.57648 4.897399,2.75606 l 0,0 z"
     id="path4241-0"
     sketch:type="MSShapeGroup"
     inkscape:connector-curvature="0" />
  <path
     style="fill:#ffffff;fill-opacity:1;stroke:#03a9f4;stroke-opacity:0.75"
     d="m 58.856826,647.79405 c -0.0014,-1.66289 0.88083,-3.20008 2.314066,-4.03193 1.433235,-0.83186 3.199461,-0.83186 4.632696,0 1.433235,0.83185 2.315478,2.36904 2.314066,4.03193 0.0014,1.6629 -0.880831,3.20008 -2.314066,4.03194 -1.433235,0.83185 -3.199461,0.83185 -4.632696,0 -1.433236,-0.83186 -2.315478,-2.36904 -2.314066,-4.03194 l 0,0 z"
     id="path3969-6-85-1"
     sketch:type="MSShapeGroup"
     inkscape:connector-curvature="0" />
  <path
     style="fill:#ffffff;fill-opacity:1;stroke:#03a9f4;stroke-opacity:0.75"
     d="m 97.343884,562.8356 c -7.54e-4,-1.66246 0.881632,-3.19895 2.314598,-4.0304 1.432968,-0.83145 3.198668,-0.83145 4.631638,0 1.43296,0.83145 2.31535,2.36794 2.31459,4.0304 7.6e-4,1.66245 -0.88163,3.19894 -2.31459,4.03039 -1.43297,0.83145 -3.19867,0.83145 -4.631638,0 -1.432966,-0.83145 -2.315352,-2.36794 -2.314598,-4.03039 l 0,0 z"
     id="path3969-6-85-4-7"
     sketch:type="MSShapeGroup"
     inkscape:connector-curvature="0" />
  <a
     style="fill:url(#linearGradient4713);fill-opacity:1;stroke:#03a9f4;stroke-opacity:0.75;stroke-width:1;stroke-miterlimit:4;stroke-dasharray:6, 6;stroke-dashoffset:0"
     class="animated2"
     id="a3595"
     transform="translate(4,4)">
    <path
       style="fill:url(#linearGradient4709);fill-opacity:1;stroke:#03a9f4;stroke-opacity:0.75;stroke-width:1;stroke-miterlimit:4;stroke-dasharray:6, 6;stroke-dashoffset:0"
       d="m 95.049901,563.26829 c -1.780643,-3.25256 -26.203829,33.35507 -34.470962,75.83009"
       id="path4051-8-8-8"
       sketch:type="MSShapeGroup"
       inkscape:connector-curvature="0" />
  </a>
  <path
     style="fill:url(#linearGradient4840);fill-opacity:1;stroke:#03a9f4;stroke-opacity:0.75"
     d="m 269.46831,600.14694 c 0,0 -22.83089,-32.42311 -90.71668,-47.29406"
     id="path4051-8-4"
     sketch:type="MSShapeGroup"
     inkscape:connector-curvature="0" />
  <path
     style="fill:url(#linearGradient4835);fill-opacity:1;stroke:#03a9f4;stroke-opacity:0.75"
     d="m 276.75259,612.79492 17.37245,2.48183 0,19.23724 -8.68623,4.80919 -17.64267,-2.55985 0,-19.0818 8.95645,-4.88663 0,2e-5 z m -7.63997,5.95766 0.0376,-0.30461 -0.0376,0.0203 0,0.28418 0,1e-4 z m 16.15916,0.72919 6.01366,-3.27482 -14.1379,-2.01973 0,0.86068 -0.78986,0 0,-0.53265 -5.76793,3.14729 14.68203,1.81921 0,2e-5 z m 6.75773,14.06204 0.77904,0.11345 0,-16.77537 -6.7115,3.65483 0,16.91193 5.83526,-3.2306 0.0972,-0.67424 0,0 z m -22.61015,2.11864 -0.17435,-0.32472 1.15887,-0.62765 0.37484,0.69846 -0.6572,0.35593 14.65905,2.12694 0,-4.60098 -0.68124,-0.0992 0.11311,-0.78529 0.56813,0.0827 0,-11.73524 -7.63303,-0.94564 0,0.5303 -0.78986,0 0,-0.62821 -7.24506,-0.89789 0,16.80605 0.30674,0.0445 0,0 z m 20.00438,-2.49786 -0.11312,0.78527 1.30294,0.18958 0.1131,-0.78526 -1.30292,-0.18959 0,0 z m -12.74366,-1.85485 -0.48285,0.26165 0.37486,0.69843 0.25298,-0.13721 0.76006,0.11062 0.1131,-0.78527 -1.01815,-0.14822 0,0 z m 10.02492,2.26093 1.30284,0.18956 0.11312,-0.78522 -1.3028,-0.18963 -0.11316,0.78529 0,0 z m -13.984,-0.11599 -1.15856,0.6277 0.37489,0.69846 1.15856,-0.6277 -0.37489,-0.69846 0,0 z m 8.88572,-1.4279 -0.11309,0.78522 1.30282,0.18958 0.11312,-0.78526 -1.30285,-0.18954 0,0 z m -2.60564,-0.37926 -0.11307,0.78529 1.30277,0.18956 0.11312,-0.78522 -1.30282,-0.18963 0,0 z m -3.96246,0.55152 -1.15882,0.6277 0.37486,0.69846 1.15887,-0.6277 -0.37491,-0.69846 0,0 z m 2.10892,-15.82859 -0.78986,0 0,1.32255 0.78986,0 0,-1.32255 0,0 z m -0.78986,11.90282 0.78986,0 0,-1.32261 -0.78986,0 0,1.32261 0,0 z m 0,2.64515 0.78986,0 0,-1.3226 -0.78986,0 0,1.3226 0,0 z m 0,-7.9353 0.78986,0 0,-1.3226 -0.78986,0 0,1.3226 0,0 z m 0,2.64509 0.78986,0 0,-1.32258 -0.78986,0 0,1.32258 0,0 z"
     id="path3172-6-2-4"
     sketch:type="MSShapeGroup"
     inkscape:connector-curvature="0" />
  <path
     style="fill:url(#linearGradient4830);fill-opacity:1;stroke:#03a9f4;stroke-opacity:0.75"
     d="m 259.43728,625.49077 c 0,-12.03967 9.71509,-21.79975 21.69927,-21.79975 11.98418,0 21.69928,9.76008 21.69928,21.79975 0,12.03968 -9.7151,21.79976 -21.69928,21.79976 -11.98418,0 -21.69927,-9.76008 -21.69927,-21.79976 l 0,0 z"
     id="path3969-65-9-9"
     sketch:type="MSShapeGroup"
     inkscape:connector-curvature="0" />
  <path
     style="fill:#ffffff;fill-opacity:1;stroke:#03a9f4;stroke-opacity:0.75"
     d="m 267.60435,603.92238 c -0.001,-1.66275 0.88109,-3.1997 2.31424,-4.03142 1.43315,-0.83172 3.1992,-0.83172 4.63234,0 1.43315,0.83172 2.31544,2.36867 2.31425,4.03142 -0.002,2.56784 -2.07441,4.6485 -4.63042,4.6485 -2.556,0 -4.62857,-2.08066 -4.63041,-4.6485 l 0,0 z"
     id="path3969-6-85-4-8-2"
     sketch:type="MSShapeGroup"
     inkscape:connector-curvature="0" />
  <path
     style="fill:url(#linearGradient4820);fill-opacity:1;stroke:#03a9f4;stroke-opacity:0.75"
     d="m 207.06786,613.60376 17.37245,2.48183 0,19.23723 -8.68623,4.80917 -17.64266,-2.55982 0,-19.0818 8.95644,-4.88666 0,5e-5 z m -7.63996,5.95765 0.0376,-0.30458 -0.0376,0.0203 0,0.28418 0,7e-5 z m 16.15917,0.7292 6.01364,-3.27484 -14.1379,-2.01971 0,0.86067 -0.78985,0 0,-0.53262 -5.76793,3.14724 14.68204,1.81923 0,3e-5 z m 6.75771,14.06204 0.77905,0.11342 0,-16.77534 -6.7115,3.6548 0,16.91198 5.83525,-3.23065 0.0972,-0.67421 0,0 z m -22.61013,2.11863 -0.17436,-0.32474 1.15887,-0.62762 0.37485,0.69846 -0.65721,0.35591 14.65905,2.12693 0,-4.60097 -0.68124,-0.0992 0.11312,-0.78526 0.56812,0.0827 0,-11.73521 -7.63304,-0.94566 0,0.53027 -0.78985,0 0,-0.62818 -7.24506,-0.89787 0,16.80605 0.30675,0.0444 0,0 z m 20.00436,-2.49787 -0.11311,0.78526 1.30293,0.18959 0.11312,-0.78525 -1.30294,-0.1896 0,0 z m -12.74365,-1.85484 -0.48285,0.26165 0.37485,0.69846 0.253,-0.13721 0.76004,0.11057 0.11311,-0.78526 -1.01815,-0.14821 0,0 z m 10.02492,2.26091 1.30283,0.18961 0.11312,-0.78527 -1.30278,-0.18958 -0.11317,0.78524 0,0 z m -13.98401,-0.11599 -1.15856,0.62773 0.37491,0.69846 1.15856,-0.62773 -0.37491,-0.69846 0,0 z m 8.88574,-1.42787 -0.11311,0.78519 1.30283,0.18959 0.11312,-0.78524 -1.30284,-0.18954 0,0 z m -2.60566,-0.37924 -0.11307,0.78524 1.30278,0.18961 0.11312,-0.78526 -1.30283,-0.18959 0,0 z m -3.96245,0.55147 -1.15881,0.6277 0.37485,0.69846 1.15886,-0.6277 -0.3749,-0.69846 0,0 z m 2.10891,-15.82859 -0.78985,0 0,1.32258 0.78985,0 0,-1.32258 0,0 z m -0.78985,11.90284 0.78985,0 0,-1.32257 -0.78985,0 0,1.32257 0,0 z m 0,2.64514 0.78985,0 0,-1.32258 -0.78985,0 0,1.32258 0,0 z m 0,-7.93528 0.78985,0 0,-1.3226 -0.78985,0 0,1.3226 0,0 z m 0,2.64506 0.78985,0 0,-1.32253 -0.78985,0 0,1.32253 0,0 z"
     id="path3172-6-2-2-8"
     sketch:type="MSShapeGroup"
     inkscape:connector-curvature="0" />
  <path
     style="fill:url(#linearGradient4815);fill-opacity:1;stroke:#03a9f4;stroke-opacity:0.75"
     d="m 189.75258,626.29964 c -0.003,-7.79004 4.13271,-14.98943 10.84755,-18.8852 6.71484,-3.89576 14.98861,-3.89576 21.70344,0 6.71484,3.89577 10.85013,11.09516 10.84755,18.8852 0.003,7.79003 -4.13271,14.98942 -10.84755,18.88519 -6.71483,3.89576 -14.9886,3.89576 -21.70344,0 -6.71484,-3.89577 -10.85013,-11.09516 -10.84755,-18.88519 l 0,0 z"
     id="path3969-65-9-3-6"
     sketch:type="MSShapeGroup"
     inkscape:connector-curvature="0" />
  <path
     style="fill:#ffffff;fill-opacity:1;stroke:#03a9f4;stroke-opacity:0.75"
     d="m 197.91966,604.73117 c 0,-2.56915 2.07311,-4.65186 4.63042,-4.65186 2.55731,0 4.63042,2.08271 4.63042,4.65186 0,2.56915 -2.07311,4.65186 -4.63042,4.65186 -2.55731,0 -4.63042,-2.08271 -4.63042,-4.65186 l 0,0 z"
     id="path3969-6-85-4-8-7-4"
     sketch:type="MSShapeGroup"
     inkscape:connector-curvature="0" />
  <path
     style="fill:#ffffff;fill-opacity:1;stroke:#03a9f4;stroke-opacity:0.75"
     d="m 169.86717,550.99928 c 0,-2.56915 2.07311,-4.65186 4.63042,-4.65186 2.5573,0 4.63041,2.08271 4.63041,4.65186 0,2.56915 -2.07311,4.65186 -4.63041,4.65186 -2.55731,0 -4.63042,-2.08271 -4.63042,-4.65186 l 0,0 z"
     id="path3969-6-85-4-5-6"
     sketch:type="MSShapeGroup"
     inkscape:connector-curvature="0" />
  <path
     style="fill:url(#linearGradient4800);fill-opacity:1;stroke:#03a9f4;stroke-opacity:0.75"
     d="m 202.19611,599.75105 c 0,0 -2.46632,-23.12366 -23.32846,-46.36415"
     id="path4051-8-3-6"
     sketch:type="MSShapeGroup"
     inkscape:connector-curvature="0" />
  <path
     style="fill:#ffffff;fill-opacity:1;stroke:#03a9f4;stroke-opacity:0.75"
     d="m 84.76521,361.5037 c 0,-2.56915 2.073108,-4.65186 4.630417,-4.65186 2.557309,0 4.630417,2.08271 4.630417,4.65186 0,1.66194 -0.882552,3.19765 -2.315208,4.02863 -1.432656,0.83097 -3.197761,0.83097 -4.630418,0 -1.432656,-0.83098 -2.315208,-2.36669 -2.315208,-4.02863 l 0,0 z"
     id="path3969-6-8-1-6"
     sketch:type="MSShapeGroup"
     inkscape:connector-curvature="0" />
  <a
     style="fill:url(#linearGradient4761);fill-opacity:1;stroke:#03a9f4;stroke-opacity:0.75;stroke-width:1;stroke-miterlimit:4;stroke-dasharray:6, 6;stroke-dashoffset:0"
     class="animated2"
     id="a3608"
     transform="translate(4,4)">
    <path
       style="fill:url(#linearGradient4757);fill-opacity:1;stroke:#03a9f4;stroke-opacity:0.75;stroke-width:1;stroke-miterlimit:4;stroke-dasharray:6, 6;stroke-dashoffset:0"
       d="m 30.373879,292.56263 c 0,0 16.417177,36.27742 52.623297,60.70389"
       id="path4051-5-6"
       sketch:type="MSShapeGroup"
       inkscape:connector-curvature="0" />
  </a>
  <path
     style="fill:#ffffff;fill-opacity:1;stroke:#03a9f4;stroke-opacity:0.75"
     d="m 27.946859,292.60063 c -5.34e-4,-1.6623 0.881902,-3.19857 2.314777,-4.02988 1.432875,-0.8313 3.198405,-0.8313 4.63128,0 1.432875,0.83131 2.315311,2.36758 2.314777,4.02988 -8.25e-4,2.56857 -2.073691,4.65036 -4.630417,4.65036 -2.556726,0 -4.629592,-2.08179 -4.630417,-4.65036 l 0,0 z"
     id="path3969-6-8-1-6-2"
     sketch:type="MSShapeGroup"
     inkscape:connector-curvature="0" />
  <path
     style="fill:#ffffff;fill-opacity:1;stroke:#03a9f4;stroke-opacity:0.75"
     d="m 97.339948,292.40236 c -0.0012,-1.66274 0.881098,-3.1997 2.314244,-4.03142 1.433148,-0.83172 3.199198,-0.83172 4.632348,0 1.43314,0.83172 2.31543,2.36868 2.31424,4.03142 -0.002,2.56784 -2.07441,4.64851 -4.63042,4.64851 -2.556,0 -4.628568,-2.08067 -4.630412,-4.64851 l 0,0 z"
     id="path3969-6-8-1-6-2-0"
     sketch:type="MSShapeGroup"
     inkscape:connector-curvature="0" />
  <path
     style="fill:url(#linearGradient4778);fill-opacity:1;stroke:#03a9f4;stroke-opacity:0.75"
     d="m 99.644666,296.26001 c 0,0 -14.250201,26.24643 -10.37558,60.22618"
     id="path4051-5-6-2"
     sketch:type="MSShapeGroup"
     inkscape:connector-curvature="0" />
</svg>
