<?xml version="1.0" encoding="UTF-8" standalone="no"?>
<svg width="308px" height="734px" viewBox="0 0 308 734" version="1.1" xmlns="http://www.w3.org/2000/svg" xmlns:xlink="http://www.w3.org/1999/xlink" xmlns:sketch="http://www.bohemiancoding.com/sketch/ns">
    <!-- Generator: Sketch 3.2.2 (9983) - http://www.bohemiancoding.com/sketch -->
    <title>Services</title>
    <defs></defs>
        <style type="text/css">
         <![CDATA[
              a.animated {
                animation-name: animKeys;
                animation-iteration-count: infinite;
                animation-duration: 2s;
                animation-direction: alternate;
                animation-play-state: paused;
                -webkit-animation-name: webAnimKeys;
                -webkit-animation-iteration-count: infinite;
                -webkit-animation-duration: 2s;
                -webkit-animation-direction: alternate;
                -webkit-animation-play-state: paused;
              }

              a.animated2{
                  animation-name: animKeys2;
                  animation-iteration-count: infinite;
                  animation-duration: 1.5s;
                  animation-direction: alternate;
                  animation-play-state: paused;
                  -webkit-animation-name: webAnimKeys2;
                  -webkit-animation-iteration-count: infinite;
                  -webkit-animation-duration: 1.5s;
                  -webkit-animation-direction: alternate;
                  -webkit-animation-play-state: paused;
              }

              a.animated {
                animation-play-state: running;
                -webkit-animation-play-state: running;
              }

              a.animated2 {
                animation-play-state: running;
                -webkit-animation-play-state: running;
              }


              @keyframes animKeys {
                0% {fill-opacity: 0.3;}
                100% {fill-opacity: 1.0;}
              }

              @-webkit-keyframes webAnimKeys {
                0% {fill-opacity: 0.3;}
                100% {fill-opacity: 1.0;}
              }

                @keyframes animKeys2 {
                  0% {stroke-width: 5.3;}
                  100% {stroke-width: 10.6;}
                }

                @-webkit-keyframes webAnimKeys2 {
                  0% {stroke-width: 5.3;}
                  100% {stroke-width: 10.6;}
                }

              ]]>
        </style>
    <g id="Page-1" stroke="none" stroke-width="1" fill="none" fill-rule="evenodd" sketch:type="MSPage">
        <g id="services_bg" sketch:type="MSLayerGroup" transform="translate(4.000000, 4.000000)" stroke="rgba(255, 255, 255, 0.5)" stroke-opacity="0.2">
            <path d="M176.750622,156.258045 L143.475563,161.011699 L143.475563,197.858571 L160.113096,207.070083 L193.905712,202.166945 L193.905712,165.617903 L176.750622,156.258045 L176.750622,156.258045 Z M191.384147,167.669264 L191.312188,167.085875 L191.384147,167.124958 L191.384147,167.669264 L191.384147,167.669264 Z M160.432993,169.065943 L148.914512,162.7934 L175.994136,158.924812 L175.994136,160.573389 L177.507014,160.573389 L177.507014,159.553165 L188.554855,165.581409 L160.432993,169.065943 L160.432993,169.065943 Z M147.489323,196.000301 L145.997133,196.217569 L145.997133,164.086164 L158.852311,171.086595 L158.852311,203.479626 L147.675503,197.291686 L147.489323,196.000301 L147.489323,196.000301 Z M190.796608,200.058302 L191.130561,199.436338 L188.910878,198.234155 L188.19289,199.571955 L189.451695,200.253693 L161.373876,204.327618 L161.373876,195.51497 L162.678707,195.324928 L162.462043,193.820849 L161.373876,193.979166 L161.373876,171.501649 L175.994136,169.690303 L175.994136,170.70605 L177.507014,170.70605 L177.507014,169.502777 L191.384147,167.783029 L191.384147,199.973191 L190.796608,200.058302 L190.796608,200.058302 Z M152.480398,195.273914 L152.697059,196.777992 L150.201423,197.141138 L149.984762,195.637059 L152.480398,195.273914 L152.480398,195.273914 Z M176.889492,191.72116 L177.814344,192.222318 L177.096356,193.560143 L176.611759,193.297331 L175.155988,193.509129 L174.939327,192.005051 L176.889492,191.72116 L176.889492,191.72116 Z M157.687835,196.051726 L155.192398,196.414847 L154.975735,194.910793 L157.47107,194.547648 L157.687835,196.051726 L157.687835,196.051726 Z M184.472698,195.82957 L186.691789,197.03185 L185.973703,198.369675 L183.754614,197.167395 L184.472698,195.82957 L184.472698,195.82957 Z M167.453014,193.094583 L167.66968,194.598565 L165.174241,194.961686 L164.95758,193.457607 L167.453014,193.094583 L167.453014,193.094583 Z M172.443888,192.368196 L172.660453,193.872274 L170.165113,194.235419 L169.94845,192.731341 L172.443888,192.368196 L172.443888,192.368196 Z M180.033531,193.424502 L182.253118,194.626806 L181.535131,195.964606 L179.315445,194.762326 L180.033531,193.424502 L180.033531,193.424502 Z M175.994136,163.106524 L177.507014,163.106524 L177.507014,165.63978 L175.994136,165.63978 L175.994136,163.106524 L175.994136,163.106524 Z M177.507014,185.905126 L175.994136,185.905126 L175.994136,183.37187 L177.507014,183.37187 L177.507014,185.905126 L177.507014,185.905126 Z M177.507014,190.971614 L175.994136,190.971614 L175.994136,188.438358 L177.507014,188.438358 L177.507014,190.971614 L177.507014,190.971614 Z M177.507014,175.772441 L175.994136,175.772441 L175.994136,173.239209 L177.507014,173.239209 L177.507014,175.772441 L177.507014,175.772441 Z M177.507014,180.838832 L175.994136,180.838832 L175.994136,178.305576 L177.507014,178.305576 L177.507014,180.838832 L177.507014,180.838832 Z" id="path3172" fill="rgba(255, 255, 255, 0.5)" sketch:type="MSShapeGroup"></path>
            <path d="M209.916175,180.575584 C209.923326,165.653143 202.003101,151.861163 189.140647,144.397867 C176.278192,136.934572 160.428929,136.934572 147.566475,144.397867 C134.70402,151.861163 126.783795,165.653143 126.790947,180.575584 C126.783795,195.498026 134.70402,209.290005 147.566475,216.753301 C160.428929,224.216597 176.278192,224.216597 189.140647,216.753301 C202.003101,209.290005 209.923326,195.498026 209.916175,180.575584 L209.916175,180.575584 Z" id="path3969" stroke-width="9.70045948" fill-opacity="0" fill="rgba(255, 255, 255, 0.5)" sketch:type="MSShapeGroup"></path>
            <path d="M189.567572,143.008085 C189.567572,140.438935 187.494464,138.356227 184.937156,138.356227 C182.379848,138.356227 180.30674,140.438935 180.30674,143.008085 C180.30674,145.577235 182.379848,147.659943 184.937156,147.659943 C187.494464,147.659943 189.567572,145.577235 189.567572,143.008085 L189.567572,143.008085 Z" id="path3969-6" stroke-width="9.70045853" fill="rgba(255, 255, 255, 0.5)" sketch:type="MSShapeGroup"></path>
            <a class="animated">
            <path d="M207.966768,18.6337822 L174.691714,23.3874608 L174.691714,60.2343324 L191.329245,69.4458204 L225.121866,64.5427068 L225.121866,27.9936404 L207.966768,18.6337822 L207.966768,18.6337822 Z M222.600287,30.045026 L222.528334,29.4616366 L222.600287,29.5006954 L222.600287,30.045026 L222.600287,30.045026 Z M191.649142,31.4417048 L180.130663,25.1691616 L207.210295,21.3005738 L207.210295,22.9491262 L208.72317,22.9491262 L208.72317,21.9289268 L219.771002,27.9571468 L191.649142,31.4417048 L191.649142,31.4417048 Z M178.705475,58.3760628 L177.213282,58.5933304 L177.213282,26.4619256 L190.06846,33.4623564 L190.06846,65.8553632 L178.891652,59.6674474 L178.705475,58.3760628 L178.705475,58.3760628 Z M222.012769,62.434064 L222.346708,61.8120998 L220.127029,60.6098922 L219.409048,61.9477166 L220.667839,62.6294548 L192.590025,66.7033796 L192.590025,57.8907076 L193.894848,57.7006892 L193.678197,56.1966108 L192.590025,56.3549272 L192.590025,33.8773864 L207.210295,32.0660648 L207.210295,33.0818114 L208.72317,33.0818114 L208.72317,31.878539 L222.600287,30.158766 L222.600287,62.3489526 L222.012769,62.434064 L222.012769,62.434064 Z M183.696547,57.6496756 L183.913208,59.153754 L181.417574,59.5168992 L181.200911,58.0128208 L183.696547,57.6496756 L183.696547,57.6496756 Z M208.105638,54.096922 L209.03049,54.5980798 L208.31251,55.9359042 L207.827898,55.6730922 L206.372137,55.8848906 L206.155485,54.3808122 L208.105638,54.096922 L208.105638,54.096922 Z M188.903986,58.4274636 L186.408547,58.7906088 L186.191886,57.2865304 L188.687219,56.9233852 L188.903986,58.4274636 L188.903986,58.4274636 Z M215.688852,58.2053318 L217.907928,59.407612 L217.189852,60.7454364 L214.970751,59.5431562 L215.688852,58.2053318 L215.688852,58.2053318 Z M198.669156,55.4703204 L198.885831,56.974302 L196.390388,57.3374472 L196.173736,55.8333688 L198.669156,55.4703204 L198.669156,55.4703204 Z M203.660042,54.7439574 L203.876597,56.2480116 L201.381274,56.6111568 L201.164599,55.1070784 L203.660042,54.7439574 L203.660042,54.7439574 Z M211.249687,55.8002632 L213.46927,57.0025434 L212.751289,58.3403678 L210.531586,57.1380876 L211.249687,55.8002632 L211.249687,55.8002632 Z M207.210295,25.4822854 L208.72317,25.4822854 L208.72317,28.0155172 L207.210295,28.0155172 L207.210295,25.4822854 L207.210295,25.4822854 Z M208.72317,48.2808876 L207.210295,48.2808876 L207.210295,45.7476316 L208.72317,45.7476316 L208.72317,48.2808876 L208.72317,48.2808876 Z M208.72317,53.3473512 L207.210295,53.3473512 L207.210295,50.8141194 L208.72317,50.8141194 L208.72317,53.3473512 L208.72317,53.3473512 Z M208.72317,38.1482024 L207.210295,38.1482024 L207.210295,35.6149464 L208.72317,35.6149464 L208.72317,38.1482024 L208.72317,38.1482024 Z M208.72317,43.2145934 L207.210295,43.2145934 L207.210295,40.6813374 L208.72317,40.6813374 L208.72317,43.2145934 L208.72317,43.2145934 Z" id="path3172-6" fill="rgba(255, 255, 255, 0.5)" sketch:type="MSShapeGroup"></path>
            </a>
            <path d="M241.132326,42.9513458 C241.140322,28.0283394 233.220282,14.2354747 220.357481,6.77165156 C207.49468,-0.692171594 191.644747,-0.692171594 178.781945,6.77165156 C165.919144,14.2354747 157.999104,28.0283394 158.0071,42.9513458 C157.999104,57.8743522 165.919144,71.6672169 178.781945,79.13104 C191.644747,86.5948632 207.49468,86.5948632 220.357481,79.13104 C233.220282,71.6672169 241.140322,57.8743522 241.132326,42.9513458 L241.132326,42.9513458 Z" id="path3969-65" stroke-width="9.7007103" opacity="0.13"  fill="rgba(255, 255, 255, 0.5)" sketch:type="MSShapeGroup"></path>
            <path d="M196.721267,84.4389304 C196.721267,81.8697793 194.648158,79.7870709 192.09085,79.7870709 C189.533541,79.7870709 187.460432,81.8697793 187.460432,84.4389304 C187.460432,87.0080815 189.533541,89.0907899 192.09085,89.0907899 C194.648158,89.0907899 196.721267,87.0080815 196.721267,84.4389304 L196.721267,84.4389304 Z" id="path3969-6-8" stroke-width="9.70045853" fill="rgba(255, 255, 255, 0.5)" sketch:type="MSShapeGroup"></path>
            <a class="animated2">
            <path d="M192.416017,89.1068926 C192.416017,89.1068926 195.01737,116.54749 185.912653,138.107972" id="path4051"  stroke-dasharray="10.77828803,10.77828803" sketch:type="MSShapeGroup"></path>
            </a>
            <a class="animated2">
            <path d="M298.832963,329.025523 C298.840959,314.102517 290.920919,300.309652 278.058118,292.845829 C265.195317,285.382006 249.345383,285.382006 236.482582,292.845829 C223.619781,300.309652 215.699741,314.102517 215.707737,329.025523 C215.699741,343.94853 223.619781,357.741394 236.482582,365.205217 C249.345383,372.669041 265.195317,372.669041 278.058118,365.205217 C290.920919,357.741394 298.840959,343.94853 298.832963,329.025523 L298.832963,329.025523 Z" id="path3969-7"  fill-opacity="0" fill="rgba(255, 255, 255, 0.5)" sketch:type="MSShapeGroup"></path>
            </a>
            <path d="M277.830506,311.240774 C277.830506,307.364781 268.512658,304.222338 257.018251,304.222338 C245.523868,304.222338 236.206023,307.364781 236.206023,311.240774 L236.206023,348.608841 L236.212286,348.608841 C236.34576,352.445969 245.607021,355.543302 257.018227,355.543302 C268.429457,355.543302 277.69072,352.445969 277.824074,348.608841 L277.830337,348.608841 L277.830337,311.412812 L277.816847,311.418862 C277.821424,311.359426 277.830337,311.300451 277.830337,311.240701 L277.830506,311.240774 Z M274.361961,348.608841 C274.133627,349.022322 273.980689,350.186632 270.50104,351.280956 C266.861154,352.426584 262.072707,353.05772 257.018251,353.05772 C251.963891,353.05772 247.175468,352.426584 243.53539,351.280956 C240.055839,350.186632 239.902685,349.022322 239.67476,348.608841 L239.67476,340.139591 C243.400928,342.033047 249.774275,343.282227 257.018251,343.282227 C264.262251,343.282227 270.635598,342.033047 274.361961,340.139591 L274.361961,348.608841 L274.361961,348.608841 Z M274.361961,336.347257 C274.133627,336.761634 273.980689,337.925049 270.50104,339.020268 C266.861154,340.165896 262.072707,340.796718 257.018251,340.796718 C251.963891,340.796718 247.175468,340.165993 243.53539,339.020268 C240.055839,337.925049 239.902685,336.761634 239.67476,336.347257 L239.67476,327.711584 C243.400928,329.60492 249.774275,330.854317 257.018251,330.854317 C264.262251,330.854317 270.635598,329.60492 274.361961,327.711584 L274.361961,336.347257 L274.361961,336.347257 Z M274.361961,323.919347 C274.133627,324.333337 273.980689,325.497139 270.50104,326.592165 C266.861154,327.737696 262.072707,328.368614 257.018251,328.368614 C251.963891,328.368614 247.175468,327.737696 243.53539,326.592165 C240.055839,325.497139 239.902685,324.333313 239.67476,323.919347 L239.67476,315.119574 C243.403024,317.011627 249.777672,318.259185 257.018251,318.259185 C264.258855,318.259185 270.63331,317.011627 274.361961,315.119574 L274.361961,323.919347 L274.361961,323.919347 Z M270.50104,313.996839 C266.861154,315.142467 262.072707,315.773385 257.018251,315.773385 C251.963891,315.773385 247.175468,315.142467 243.53539,313.996839 C239.786531,312.817162 238.738346,311.556318 238.637969,311.240774 C238.738346,310.925206 239.786916,309.664289 243.535775,308.484515 C247.175854,307.338766 251.964108,306.708065 257.018251,306.708065 C262.072418,306.708065 266.860456,307.338766 270.50063,308.484515 C274.249588,309.664289 275.298376,310.925206 275.398439,311.240774 C275.298376,311.556318 274.249998,312.817259 270.50104,313.996839 L270.50104,313.996839 Z" id="path4241" fill="rgba(255, 255, 255, 0.5)" sketch:type="MSShapeGroup"></path>
            <path d="M245.144499,290.097161 C245.145911,288.434268 244.263668,286.897083 242.830433,286.065226 C241.397198,285.233369 239.630972,285.233369 238.197737,286.065226 C236.764501,286.897083 235.882259,288.434268 235.883671,290.097161 C235.882259,291.760055 236.764501,293.297239 238.197737,294.129096 C239.630972,294.960953 241.397198,294.960953 242.830433,294.129096 C244.263668,293.297239 245.145911,291.760055 245.144499,290.097161 L245.144499,290.097161 Z" id="path3969-6-85" stroke-width="9.70045853" fill="rgba(255, 255, 255, 0.5)" sketch:type="MSShapeGroup"></path>
            <path d="M34.5330108,242.450047 C34.5330108,242.450047 57.3639043,210.026936 125.24969,195.155987" id="path4051-8" stroke-width="5.38914394" stroke-dasharray="10.77828803,10.77828803" sketch:type="MSShapeGroup"></path>
            <path d="M206.657441,205.138705 C206.658195,203.476251 205.775808,201.939756 204.342843,201.10831 C202.909878,200.276864 201.144174,200.276864 199.711208,201.10831 C198.278243,201.939756 197.395856,203.476251 197.396611,205.138705 C197.395856,206.801159 198.278243,208.337654 199.711208,209.1691 C201.144174,210.000546 202.909878,210.000546 204.342843,209.1691 C205.775808,208.337654 206.658195,206.801159 206.657441,205.138705 L206.657441,205.138705 Z" id="path3969-6-85-4" stroke-width="9.70045853" fill="rgba(255, 255, 255, 0.5)" sketch:type="MSShapeGroup"></path>
            <path d="M27.2487446,255.098032 L9.87629166,257.579863 L9.87629166,276.817097 L18.5625203,281.62629 L36.2051782,279.066438 L36.2051782,259.984641 L27.2487446,255.098008 L27.2487446,255.098032 Z M34.8887057,261.055685 L34.851135,260.75108 L34.8887057,260.771408 L34.8887057,261.055588 L34.8887057,261.055685 Z M18.7295328,261.784879 L12.7158939,258.510063 L26.8537903,256.490331 L26.8537903,257.351004 L27.6436435,257.351004 L27.6436435,256.818362 L33.4115705,259.965644 L18.7295328,261.784855 L18.7295328,261.784879 Z M11.9718233,275.846919 L11.192769,275.960368 L11.192769,259.185001 L17.9042792,262.83983 L17.9042792,279.751758 L12.0690226,276.521155 L11.9718233,275.846919 L11.9718233,275.846919 Z M34.5819586,277.965556 L34.7563108,277.64084 L33.5974466,277.013189 L33.2225942,277.71165 L33.8797994,278.067583 L19.2207565,280.194521 L19.2207565,275.593545 L19.90199,275.494349 L19.7888707,274.709059 L19.2207565,274.791726 L19.2207565,263.056493 L26.8537903,262.110853 L26.8537903,262.641148 L27.6436435,262.641148 L27.6436435,262.01294 L34.8887057,261.115048 L34.8887057,277.921101 L34.5819586,277.965556 L34.5819586,277.965556 Z M14.5775892,275.467705 L14.6907086,276.25297 L13.3877714,276.442553 L13.2746569,275.657287 L14.5775892,275.467705 L14.5775892,275.467705 Z M27.3212436,273.612847 L27.8040966,273.874498 L27.4292442,274.572934 L27.1762456,274.43572 L26.4162043,274.546338 L26.3030897,273.761072 L27.3212436,273.612847 L27.3212436,273.612847 Z M17.2963204,275.873781 L15.9934916,276.063339 L15.8803722,275.278122 L17.1831553,275.088491 L17.2963204,275.873781 L17.2963204,275.873781 Z M31.280335,275.75779 L32.4388908,276.38549 L32.0639878,277.08395 L30.9054295,276.45625 L31.280335,275.75779 L31.280335,275.75779 Z M22.3945909,274.329893 L22.5077054,275.115111 L21.2048742,275.304693 L21.0917573,274.519428 L22.3945909,274.329893 L22.3945909,274.329893 Z M25.0002561,273.950631 L25.1133225,274.735921 L23.810539,274.925479 L23.6974221,274.140262 L25.0002561,273.950631 L25.0002561,273.950631 Z M28.9627055,274.502149 L30.1215166,275.129848 L29.7466666,275.828309 L28.5878024,275.200609 L28.9627055,274.502149 L28.9627055,274.502149 Z M26.8537903,258.673558 L27.6436435,258.673558 L27.6436435,259.996112 L26.8537903,259.996112 L26.8537903,258.673558 L26.8537903,258.673558 Z M27.6436435,270.576376 L26.8537903,270.576376 L26.8537903,269.253774 L27.6436435,269.253774 L27.6436435,270.576376 L27.6436435,270.576376 Z M27.6436435,273.221533 L26.8537903,273.221533 L26.8537903,271.898931 L27.6436435,271.898931 L27.6436435,273.221533 L27.6436435,273.221533 Z M27.6436435,265.286232 L26.8537903,265.286232 L26.8537903,263.96363 L27.6436435,263.96363 L27.6436435,265.286232 L27.6436435,265.286232 Z M27.6436435,267.931316 L26.8537903,267.931316 L26.8537903,266.608738 L27.6436435,266.608738 L27.6436435,267.931316 L27.6436435,267.931316 Z" id="path3172-6-2" fill="rgba(255, 255, 255, 0.5)" sketch:type="MSShapeGroup"></path>
            <path d="M44.5640424,267.793885 C44.5663093,260.004065 40.4309479,252.805001 33.7162398,248.909433 C27.0015316,245.013866 18.7280155,245.013866 12.0133074,248.909433 C5.29859921,252.805001 1.1632378,260.004065 1.16550478,267.793885 C1.1632378,275.583704 5.29859921,282.782769 12.0133074,286.678336 C18.7280155,290.573903 27.0015316,290.573903 33.7162398,286.678336 C40.4309479,282.782769 44.5663093,275.583704 44.5640424,267.793885 L44.5640424,267.793885 Z" id="path3969-65-9" stroke-width="9.7007103" fill-opacity="0" fill="rgba(255, 255, 255, 0.5)" sketch:type="MSShapeGroup"></path>
            <path d="M36.3969705,246.225489 C36.3969705,243.656339 34.3238626,241.573631 31.7665544,241.573631 C29.2092462,241.573631 27.1361383,243.656339 27.1361383,246.225489 C27.1361383,248.79464 29.2092462,250.877348 31.7665544,250.877348 C34.3238626,250.877348 36.3969705,248.79464 36.3969705,246.225489 L36.3969705,246.225489 Z" id="path3969-6-85-4-8" stroke-width="9.70045853" fill="rgba(255, 255, 255, 0.5)" sketch:type="MSShapeGroup"></path>
                        <a class="animated">

            <path d="M96.9334661,255.906869 L79.5610112,258.3887 L79.5610112,277.625933 L88.2472399,282.435102 L105.8899,279.875275 L105.8899,260.793478 L96.9334661,255.90682 L96.9334661,255.906869 Z M104.573425,261.864522 L104.535856,261.55994 L104.573425,261.580268 L104.573425,261.864449 L104.573425,261.864522 Z M88.4142547,262.593716 L82.4006159,259.318875 L96.5385118,257.299167 L96.5385118,258.15984 L97.3283625,258.15984 L97.3283625,257.627223 L103.096292,260.774457 L88.4142547,262.593692 L88.4142547,262.593716 Z M81.6565428,276.655755 L80.8774909,276.769181 L80.8774909,259.993837 L87.5889988,263.648642 L87.5889988,280.560619 L81.7537421,277.329967 L81.6565428,276.655755 L81.6565428,276.655755 Z M104.266678,278.774393 L104.44103,278.449653 L103.282166,277.822026 L102.907316,278.520486 L103.564521,278.876396 L88.9054785,281.003334 L88.9054785,276.402357 L89.5867096,276.303161 L89.4735926,275.517895 L88.9054785,275.600563 L88.9054785,263.865353 L96.5385118,262.91969 L96.5385118,263.44996 L97.3283625,263.44996 L97.3283625,262.821777 L104.573425,261.923908 L104.573425,278.729961 L104.266678,278.774393 L104.266678,278.774393 Z M84.2623112,276.276517 L84.3754282,277.061783 L83.072491,277.251366 L82.9593788,276.466124 L84.2623112,276.276517 L84.2623112,276.276517 Z M97.0059651,274.421684 L97.4888181,274.683334 L97.1139633,275.381795 L96.8609671,275.244581 L96.1009234,275.35515 L95.9878112,274.569885 L97.0059651,274.421684 L97.0059651,274.421684 Z M86.9810424,276.682593 L85.6782112,276.8722 L85.5650942,276.086934 L86.8678772,275.897351 L86.9810424,276.682593 L86.9810424,276.682593 Z M100.965054,276.566602 L102.12361,277.194326 L101.748709,277.892787 L100.590149,277.265063 L100.965054,276.566602 L100.965054,276.566602 Z M92.0793128,275.13873 L92.192425,275.923923 L90.8895962,276.113506 L90.7764768,275.328264 L92.0793128,275.13873 L92.0793128,275.13873 Z M94.6849752,274.759492 L94.798044,275.544733 L93.495261,275.73434 L93.3821416,274.949074 L94.6849752,274.759492 L94.6849752,274.759492 Z M98.6474245,275.310961 L99.8062381,275.938661 L99.4313881,276.637121 L98.2725239,276.009422 L98.6474245,275.310961 L98.6474245,275.310961 Z M96.5385118,259.48237 L97.3283625,259.48237 L97.3283625,260.804949 L96.5385118,260.804949 L96.5385118,259.48237 L96.5385118,259.48237 Z M97.3283625,271.385213 L96.5385118,271.385213 L96.5385118,270.062635 L97.3283625,270.062635 L97.3283625,271.385213 L97.3283625,271.385213 Z M97.3283625,274.030346 L96.5385118,274.030346 L96.5385118,272.707767 L97.3283625,272.707767 L97.3283625,274.030346 L97.3283625,274.030346 Z M97.3283625,266.095069 L96.5385118,266.095069 L96.5385118,264.772466 L97.3283625,264.772466 L97.3283625,266.095069 L97.3283625,266.095069 Z M97.3283625,268.740129 L96.5385118,268.740129 L96.5385118,267.417599 L97.3283625,267.417599 L97.3283625,268.740129 L97.3283625,268.740129 Z" id="path3172-6-2-2" fill="rgba(255, 255, 255, 0.5)" sketch:type="MSShapeGroup"></path>
            </a>
            <path d="M114.248742,268.602745 C114.251326,260.812714 110.116034,253.613318 103.401196,249.717553 C96.6863574,245.821788 88.4125899,245.821788 81.6977518,249.717553 C74.9829137,253.613318 70.8476216,260.812714 70.8502052,268.602745 C70.8476216,276.392777 74.9829137,283.592173 81.6977518,287.487938 C88.4125899,291.383703 96.6863574,291.383703 103.401196,287.487938 C110.116034,283.592173 114.251326,276.392777 114.248742,268.602745 L114.248742,268.602745 Z" id="path3969-65-9-3" stroke-width="9.7007103" fill-opacity="0" fill="rgba(255, 255, 255, 0.5)" sketch:type="MSShapeGroup"></path>
            <path d="M106.081661,247.034278 C106.081661,244.465127 104.008553,242.382419 101.451245,242.382419 C98.8939364,242.382419 96.8208285,244.465127 96.8208285,247.034278 C96.8208285,249.603428 98.8939364,251.686136 101.451245,251.686136 C104.008553,251.686136 106.081661,249.603428 106.081661,247.034278 L106.081661,247.034278 Z" id="path3969-6-85-4-8-7" stroke-width="9.70045853" fill="rgba(255, 255, 255, 0.5)" sketch:type="MSShapeGroup"></path>
            <path d="M134.134155,193.302388 C134.134155,190.733238 132.061047,188.65053 129.503739,188.65053 C126.946431,188.65053 124.873323,190.733238 124.873323,193.302388 C124.873323,195.871539 126.946431,197.954247 129.503739,197.954247 C132.061047,197.954247 134.134155,195.871539 134.134155,193.302388 L134.134155,193.302388 Z" id="path3969-6-85-4-5" stroke-width="9.70045853" fill="rgba(255, 255, 255, 0.5)" sketch:type="MSShapeGroup"></path>
            <path d="M204.951424,209.571395 C206.732067,206.318842 231.155252,242.926473 239.422385,285.40149" id="path4051-8-8" stroke-width="5.38914394" stroke-dasharray="10.77828803,10.77828803" sketch:type="MSShapeGroup"></path>
            <path d="M101.805211,242.05416 C101.805211,242.05416 104.271536,218.930503 125.133673,195.690009" id="path4051-8-3" stroke-width="5.38914394" stroke-dasharray="10.77828803,10.77828803" sketch:type="MSShapeGroup"></path>
            <a class="animated">
            <path d="M123.250703,509.954936 L156.525762,514.70859 L156.525762,551.555462 L139.888229,560.766974 L106.095613,555.863836 L106.095613,519.314794 L123.250703,509.954936 L123.250703,509.954936 Z M108.617177,521.366155 L108.689137,520.782766 L108.617177,520.821849 L108.617177,521.366155 L108.617177,521.366155 Z M139.568332,522.762834 L151.086813,516.490291 L124.007189,512.621703 L124.007189,514.27028 L122.494311,514.27028 L122.494311,513.250056 L111.44647,519.2783 L139.568332,522.762834 L139.568332,522.762834 Z M152.512002,549.697192 L154.004192,549.91446 L154.004192,517.783055 L141.149014,524.783486 L141.149014,557.176517 L152.325822,550.988577 L152.512002,549.697192 L152.512002,549.697192 Z M109.204717,553.755193 L108.870764,553.133229 L111.090447,551.931046 L111.808435,553.268846 L110.54963,553.950584 L138.627449,558.024509 L138.627449,549.211861 L137.322618,549.021818 L137.539282,547.51774 L138.627449,547.676056 L138.627449,525.19854 L124.007189,523.387194 L124.007189,524.402941 L122.494311,524.402941 L122.494311,523.199668 L108.617177,521.479919 L108.617177,553.670082 L109.204717,553.755193 L109.204717,553.755193 Z M147.520927,548.970805 L147.304266,550.474883 L149.799902,550.838028 L150.016563,549.33395 L147.520927,548.970805 L147.520927,548.970805 Z M123.111833,545.418051 L122.186981,545.919209 L122.904969,547.257033 L123.389566,546.994221 L124.845337,547.20602 L125.061998,545.701941 L123.111833,545.418051 L123.111833,545.418051 Z M142.31349,549.748617 L144.808926,550.111738 L145.02559,548.607684 L142.530255,548.244539 L142.31349,549.748617 L142.31349,549.748617 Z M115.528627,549.526461 L113.309536,550.728741 L114.027622,552.066566 L116.246711,550.864285 L115.528627,549.526461 L115.528627,549.526461 Z M132.548311,546.791474 L132.331645,548.295455 L134.827083,548.658576 L135.043745,547.154498 L132.548311,546.791474 L132.548311,546.791474 Z M127.557437,546.065087 L127.340872,547.569165 L129.836211,547.93231 L130.052875,546.428232 L127.557437,546.065087 L127.557437,546.065087 Z M119.967794,547.121392 L117.748207,548.323697 L118.466194,549.661497 L120.68588,548.459217 L119.967794,547.121392 L119.967794,547.121392 Z M124.007189,516.803415 L122.494311,516.803415 L122.494311,519.336671 L124.007189,519.336671 L124.007189,516.803415 L124.007189,516.803415 Z M122.494311,539.602017 L124.007189,539.602017 L124.007189,537.068761 L122.494311,537.068761 L122.494311,539.602017 L122.494311,539.602017 Z M122.494311,544.668505 L124.007189,544.668505 L124.007189,542.135249 L122.494311,542.135249 L122.494311,544.668505 L122.494311,544.668505 Z M122.494311,529.469332 L124.007189,529.469332 L124.007189,526.9361 L122.494311,526.9361 L122.494311,529.469332 L122.494311,529.469332 Z M122.494311,534.535723 L124.007189,534.535723 L124.007189,532.002467 L122.494311,532.002467 L122.494311,534.535723 L122.494311,534.535723 Z" id="path3172-9" fill="rgba(255, 255, 255, 0.5)" sketch:type="MSShapeGroup"></path>
            </a>
            <path d="M90.0851503,534.272475 C90.0779985,519.350033 97.9982235,505.558054 110.860678,498.094758 C123.723133,490.631462 139.572395,490.631462 152.43485,498.094758 C165.297305,505.558054 173.21753,519.350033 173.210378,534.272475 C173.21753,549.194917 165.297305,562.986896 152.43485,570.450192 C139.572395,577.913488 123.723133,577.913488 110.860678,570.450192 C97.9982235,562.986896 90.0779985,549.194917 90.0851503,534.272475 L90.0851503,534.272475 Z" id="path3969-71" stroke-width="9.70045948" fill-opacity="0" fill="rgba(255, 255, 255, 0.5)" sketch:type="MSShapeGroup"></path>
            <path d="M110.433753,496.704976 C110.433753,494.135825 112.506861,492.053117 115.064169,492.053117 C117.621477,492.053117 119.694585,494.135825 119.694585,496.704976 C119.694585,499.274126 117.621477,501.356834 115.064169,501.356834 C112.506861,501.356834 110.433753,499.274126 110.433753,496.704976 L110.433753,496.704976 Z" id="path3969-6-1" stroke-width="9.70045853" fill="rgba(255, 255, 255, 0.5)" sketch:type="MSShapeGroup"></path>
            <path d="M92.0345565,372.330673 L125.30961,377.084352 L125.30961,413.931223 L108.67208,423.142711 L74.879459,418.239598 L74.879459,381.690531 L92.0345565,372.330673 L92.0345565,372.330673 Z M77.4010382,383.741917 L77.4729904,383.158527 L77.4010382,383.197586 L77.4010382,383.741917 L77.4010382,383.741917 Z M108.352183,385.138596 L119.870662,378.866052 L92.7910303,374.997465 L92.7910303,376.646017 L91.278155,376.646017 L91.278155,375.625818 L80.2303233,381.654038 L108.352183,385.138596 L108.352183,385.138596 Z M121.29585,412.072954 L122.788043,412.290221 L122.788043,380.158816 L109.932865,387.159247 L109.932865,419.552254 L121.109673,413.364338 L121.29585,412.072954 L121.29585,412.072954 Z M77.9885556,416.130955 L77.6546174,415.508991 L79.874296,414.306783 L80.5922764,415.644607 L79.3334862,416.326346 L107.4113,420.40027 L107.4113,411.587598 L106.106477,411.39758 L106.323128,409.893502 L107.4113,410.051818 L107.4113,387.574277 L92.7910303,385.762956 L92.7910303,386.778702 L91.278155,386.778702 L91.278155,385.57543 L77.4010382,383.855657 L77.4010382,416.045843 L77.9885556,416.130955 L77.9885556,416.130955 Z M116.304778,411.346566 L116.088117,412.850645 L118.583751,413.21379 L118.800414,411.709712 L116.304778,411.346566 L116.304778,411.346566 Z M91.8956866,407.793813 L90.9708345,408.294971 L91.6888149,409.632795 L92.1734264,409.369983 L93.629188,409.581781 L93.8458395,408.077703 L91.8956866,407.793813 L91.8956866,407.793813 Z M111.097339,412.124354 L113.592777,412.4875 L113.809439,410.983421 L111.314106,410.620276 L111.097339,412.124354 L111.097339,412.124354 Z M84.312473,411.902223 L82.0933966,413.104503 L82.8114733,414.442327 L85.0305739,413.240047 L84.312473,411.902223 L84.312473,411.902223 Z M101.332169,409.167211 L101.115494,410.671193 L103.610937,411.034338 L103.827589,409.53026 L101.332169,409.167211 L101.332169,409.167211 Z M96.3412828,408.440848 L96.1247276,409.944902 L98.6200504,410.308048 L98.8367261,408.803969 L96.3412828,408.440848 L96.3412828,408.440848 Z M88.7516376,409.497154 L86.5320553,410.699434 L87.2500357,412.037259 L89.4697385,410.834978 L88.7516376,409.497154 L88.7516376,409.497154 Z M92.7910303,379.179176 L91.278155,379.179176 L91.278155,381.712408 L92.7910303,381.712408 L92.7910303,379.179176 L92.7910303,379.179176 Z M91.278155,401.977778 L92.7910303,401.977778 L92.7910303,399.444522 L91.278155,399.444522 L91.278155,401.977778 L91.278155,401.977778 Z M91.278155,407.044242 L92.7910303,407.044242 L92.7910303,404.51101 L91.278155,404.51101 L91.278155,407.044242 L91.278155,407.044242 Z M91.278155,391.845093 L92.7910303,391.845093 L92.7910303,389.311837 L91.278155,389.311837 L91.278155,391.845093 L91.278155,391.845093 Z M91.278155,396.911484 L92.7910303,396.911484 L92.7910303,394.378228 L91.278155,394.378228 L91.278155,396.911484 L91.278155,396.911484 Z" id="path3172-6-4" opacity="0.13" fill="rgba(255, 255, 255, 0.5)" sketch:type="MSShapeGroup"></path>
            <path d="M58.868999,396.648237 C58.8610027,381.72523 66.7810427,367.932366 79.6438439,360.468542 C92.506645,353.004719 108.356578,353.004719 121.219379,360.468542 C134.082181,367.932366 142.002221,381.72523 141.994224,396.648237 C142.002221,411.571243 134.082181,425.364108 121.219379,432.827931 C108.356578,440.291754 92.506645,440.291754 79.6438439,432.827931 C66.7810427,425.364108 58.8610027,411.571243 58.868999,396.648237 L58.868999,396.648237 Z" id="path3969-65-91" stroke-width="9.7007103" opacity="0.13" fill-opacity="0" fill="rgba(255, 255, 255, 0.5)" sketch:type="MSShapeGroup"></path>
            <path d="M103.280058,438.135821 C103.280058,435.56667 105.353166,433.483962 107.910475,433.483962 C110.467784,433.483962 112.540893,435.56667 112.540893,438.135821 C112.540893,440.704972 110.467784,442.787681 107.910475,442.787681 C105.353166,442.787681 103.280058,440.704972 103.280058,438.135821 L103.280058,438.135821 Z" id="path3969-6-8-1" stroke-width="9.70045853" fill="rgba(255, 255, 255, 0.5)" sketch:type="MSShapeGroup"></path>
            <path d="M107.585308,442.803783 C107.585308,442.803783 104.983955,470.244381 114.088672,491.804863" id="path4051-5" stroke-width="5.38914394" stroke-dasharray="10.77828803,10.77828803" sketch:type="MSShapeGroup"></path>
            <path d="M1.16836223,682.722414 C1.16036595,667.799408 9.08040595,654.006543 21.9432071,646.54272 C34.8060083,639.078897 50.6559416,639.078897 63.5187428,646.54272 C76.3815439,654.006543 84.3015839,667.799408 84.2935877,682.722414 C84.3015839,697.64542 76.3815439,711.438285 63.5187428,718.902108 C50.6559416,726.365931 34.8060083,726.365931 21.9432071,718.902108 C9.08040595,711.438285 1.16036595,697.64542 1.16836223,682.722414 L1.16836223,682.722414 Z" id="path3969-7-5" stroke-width="9.70045948" fill-opacity="0" fill="rgba(255, 255, 255, 0.5)" sketch:type="MSShapeGroup"></path>
            <path d="M22.1708192,664.937665 C22.1708192,661.061672 31.4886664,657.919229 42.9830738,657.919229 C54.4774572,657.919229 63.7953019,661.061672 63.7953019,664.937665 L63.7953019,702.305732 L63.789039,702.305732 C63.6555648,706.142859 54.3943039,709.240193 42.9830979,709.240193 C31.5718679,709.240193 22.3106045,706.142859 22.1772509,702.305732 L22.1709879,702.305732 L22.1709879,665.109702 L22.1844774,665.115752 C22.1799006,665.056317 22.1709879,664.997342 22.1709879,664.937592 L22.1708192,664.937665 Z M25.6393637,702.305732 C25.8676982,702.719213 26.0206358,703.883523 29.500285,704.977847 C33.1401707,706.123475 37.9286179,706.754611 42.9830738,706.754611 C48.0374335,706.754611 52.8258565,706.123475 56.4659349,704.977847 C59.9454854,703.883523 60.0986398,702.719213 60.3265647,702.305732 L60.3265647,693.836482 C56.6003967,695.729938 50.2270497,696.979118 42.9830738,696.979118 C35.7390739,696.979118 29.3657269,695.729938 25.6393637,693.836482 L25.6393637,702.305732 L25.6393637,702.305732 Z M25.6393637,690.044148 C25.8676982,690.458525 26.0206358,691.62194 29.500285,692.717159 C33.1401707,693.862787 37.9286179,694.493609 42.9830738,694.493609 C48.0374335,694.493609 52.8258565,693.862884 56.4659349,692.717159 C59.9454854,691.62194 60.0986398,690.458525 60.3265647,690.044148 L60.3265647,681.408475 C56.6003967,683.30181 50.2270497,684.551208 42.9830738,684.551208 C35.7390739,684.551208 29.3657269,683.30181 25.6393637,681.408475 L25.6393637,690.044148 L25.6393637,690.044148 Z M25.6393637,677.616238 C25.8676982,678.030228 26.0206358,679.19403 29.500285,680.289056 C33.1401707,681.434587 37.9286179,682.065505 42.9830738,682.065505 C48.0374335,682.065505 52.8258565,681.434587 56.4659349,680.289056 C59.9454854,679.19403 60.0986398,678.030203 60.3265647,677.616238 L60.3265647,668.816465 C56.598301,670.708518 50.2236533,671.956076 42.9830738,671.956076 C35.7424704,671.956076 29.3680154,670.708518 25.6393637,668.816465 L25.6393637,677.616238 L25.6393637,677.616238 Z M29.500285,667.69373 C33.1401707,668.839358 37.9286179,669.470276 42.9830738,669.470276 C48.0374335,669.470276 52.8258565,668.839358 56.4659349,667.69373 C60.2147943,666.514053 61.2629793,665.253208 61.3633558,664.937665 C61.2629793,664.622097 60.2144089,663.36118 56.4655495,662.181406 C52.8254711,661.035657 48.0372167,660.404956 42.9830738,660.404956 C37.9289069,660.404956 33.1408693,661.035657 29.5006946,662.181406 C25.7517364,663.36118 24.7029492,664.622097 24.6028858,664.937665 C24.7029492,665.253208 25.7513269,666.514149 29.500285,667.69373 L29.500285,667.69373 Z" id="path4241-0" fill="rgba(255, 255, 255, 0.5)" sketch:type="MSShapeGroup"></path>
            <path d="M54.8568263,643.794052 C54.8554137,642.131158 55.7376565,640.593974 57.1708916,639.762117 C58.6041268,638.93026 60.3703531,638.93026 61.8035883,639.762117 C63.2368234,640.593974 64.1190662,642.131158 64.1176536,643.794052 C64.1190662,645.456946 63.2368234,646.99413 61.8035883,647.825987 C60.3703531,648.657844 58.6041268,648.657844 57.1708916,647.825987 C55.7376565,646.99413 54.8554137,645.456946 54.8568263,643.794052 L54.8568263,643.794052 Z" id="path3969-6-85-1" stroke-width="9.70045853" fill="rgba(255, 255, 255, 0.5)" sketch:type="MSShapeGroup"></path>
            <path d="M93.3438843,558.835596 C93.3431295,557.173142 94.2255164,555.636647 95.6584818,554.805201 C97.0914472,553.973755 98.8571513,553.973755 100.290117,554.805201 C101.723082,555.636647 102.605469,557.173142 102.604714,558.835596 C102.605469,560.49805 101.723082,562.034545 100.290117,562.865991 C98.8571513,563.697437 97.0914472,563.697437 95.6584818,562.865991 C94.2255164,562.034545 93.3431295,560.49805 93.3438843,558.835596 L93.3438843,558.835596 Z" id="path3969-6-85-4-7" stroke-width="9.70045853" fill="rgba(255, 255, 255, 0.5)" sketch:type="MSShapeGroup"></path>
            <a class="animated2">
            <path d="M95.0499008,563.268286 C93.2692583,560.015733 68.8460724,596.623364 60.5789395,639.098381" id="path4051-8-8-8" stroke-dasharray="10.77828803,10.77828803" sketch:type="MSShapeGroup"></path>
            </a>
            <path d="M265.468312,596.146938 C265.468312,596.146938 242.637421,563.723827 174.751634,548.852878" id="path4051-8-4" stroke-width="5.38914394" stroke-dasharray="10.77828803,10.77828803" sketch:type="MSShapeGroup"></path>
            <path d="M272.752588,608.794923 L290.125035,611.276754 L290.125035,630.513987 L281.438811,635.323181 L263.796139,632.763329 L263.796139,613.681532 L272.752588,608.794899 L272.752588,608.794923 Z M265.112622,614.752576 L265.1502,614.44797 L265.112622,614.468298 L265.112622,614.752479 L265.112622,614.752576 Z M281.271782,615.48177 L287.28544,612.206954 L273.147542,610.187222 L273.147542,611.047895 L272.357681,611.047895 L272.357681,610.515253 L266.58975,613.662535 L281.271782,615.481746 L281.271782,615.48177 Z M288.029508,629.543809 L288.808553,629.657259 L288.808553,612.881892 L282.097052,616.536721 L282.097052,633.448649 L287.932311,630.218046 L288.029508,629.543809 L288.029508,629.543809 Z M265.419364,631.662447 L265.245012,631.337731 L266.403883,630.71008 L266.778723,631.40854 L266.121518,631.764474 L280.78057,633.891412 L280.78057,629.290435 L280.099325,629.19124 L280.212444,628.40595 L280.78057,628.488617 L280.78057,616.753383 L273.147542,615.807744 L273.147542,616.338039 L272.357681,616.338039 L272.357681,615.709831 L265.112622,614.811938 L265.112622,631.617991 L265.419364,631.662447 L265.419364,631.662447 Z M285.42374,629.164595 L285.310621,629.949861 L286.613565,630.139444 L286.72666,629.354178 L285.42374,629.164595 L285.42374,629.164595 Z M272.680081,627.309738 L272.197228,627.571388 L272.572093,628.269825 L272.82507,628.132611 L273.585133,628.243229 L273.698228,627.457963 L272.680081,627.309738 L272.680081,627.309738 Z M282.704997,629.570671 L284.007845,629.76023 L284.120964,628.975013 L282.818164,628.785381 L282.704997,629.570671 L282.704997,629.570671 Z M268.721,629.454681 L267.562441,630.08238 L267.93733,630.780841 L269.095888,630.153141 L268.721,629.454681 L268.721,629.454681 Z M277.606724,628.026784 L277.493629,628.812001 L278.796453,629.001584 L278.909572,628.216318 L277.606724,628.026784 L277.606724,628.026784 Z M275.001076,627.647522 L274.888005,628.432812 L276.190781,628.62237 L276.3039,627.837153 L275.001076,627.647522 L275.001076,627.647522 Z M271.038622,628.19904 L269.879799,628.826739 L270.254663,629.5252 L271.413534,628.8975 L271.038622,628.19904 L271.038622,628.19904 Z M273.147542,612.370449 L272.357681,612.370449 L272.357681,613.693003 L273.147542,613.693003 L273.147542,612.370449 L273.147542,612.370449 Z M272.357681,624.273267 L273.147542,624.273267 L273.147542,622.950665 L272.357681,622.950665 L272.357681,624.273267 L272.357681,624.273267 Z M272.357681,626.918424 L273.147542,626.918424 L273.147542,625.595821 L272.357681,625.595821 L272.357681,626.918424 L272.357681,626.918424 Z M272.357681,618.983123 L273.147542,618.983123 L273.147542,617.66052 L272.357681,617.66052 L272.357681,618.983123 L272.357681,618.983123 Z M272.357681,621.628207 L273.147542,621.628207 L273.147542,620.305629 L272.357681,620.305629 L272.357681,621.628207 L272.357681,621.628207 Z" id="path3172-6-2-4" fill="rgba(255, 255, 255, 0.5)" sketch:type="MSShapeGroup"></path>
            <path d="M255.437278,621.490775 C255.437278,609.451101 265.152374,599.691016 277.136553,599.691016 C289.120732,599.691016 298.835829,609.451101 298.835829,621.490775 C298.835829,633.53045 289.120732,643.290535 277.136553,643.290535 C265.152374,643.290535 255.437278,633.53045 255.437278,621.490775 L255.437278,621.490775 Z" id="path3969-65-9-9" stroke-width="9.7007103" fill-opacity="0" fill="rgba(255, 255, 255, 0.5)" sketch:type="MSShapeGroup"></path>
            <path d="M263.604347,599.92238 C263.603153,598.259633 264.485444,596.722677 265.91859,595.890957 C267.351736,595.059237 269.117788,595.059237 270.550934,595.890957 C271.98408,596.722677 272.866371,598.259633 272.865177,599.92238 C272.863333,602.49022 270.790766,604.570883 268.234762,604.570883 C265.678758,604.570883 263.606191,602.49022 263.604347,599.92238 L263.604347,599.92238 Z" id="path3969-6-85-4-8-2" stroke-width="9.70045853" fill="rgba(255, 255, 255, 0.5)" sketch:type="MSShapeGroup"></path>
            <path d="M203.067859,609.60376 L220.440314,612.085591 L220.440314,631.322824 L211.754085,636.131993 L194.111425,633.572166 L194.111425,614.490369 L203.067859,609.603711 L203.067859,609.60376 Z M195.4279,615.561412 L195.465468,615.256831 L195.4279,615.277159 L195.4279,615.56134 L195.4279,615.561412 Z M211.58707,616.290607 L217.600709,613.015766 L203.462813,610.996058 L203.462813,611.856731 L202.672962,611.856731 L202.672962,611.324113 L196.905033,614.471348 L211.58707,616.290583 L211.58707,616.290607 Z M218.344782,630.352646 L219.123834,630.466071 L219.123834,613.690728 L212.412326,617.345533 L212.412326,634.25751 L218.247583,631.026858 L218.344782,630.352646 L218.344782,630.352646 Z M195.734647,632.471283 L195.560295,632.146544 L196.719159,631.518917 L197.094009,632.217377 L196.436804,632.573286 L211.095846,634.700224 L211.095846,630.099248 L210.414615,630.000052 L210.527732,629.214786 L211.095846,629.297453 L211.095846,617.562244 L203.462813,616.616581 L203.462813,617.146851 L202.672962,617.146851 L202.672962,616.518668 L195.4279,615.620799 L195.4279,632.426852 L195.734647,632.471283 L195.734647,632.471283 Z M215.739014,629.973408 L215.625897,630.758674 L216.928834,630.948256 L217.041946,630.163015 L215.739014,629.973408 L215.739014,629.973408 Z M202.99536,628.118575 L202.512507,628.380225 L202.887362,629.078685 L203.140358,628.941471 L203.900401,629.052041 L204.013514,628.266775 L202.99536,628.118575 L202.99536,628.118575 Z M213.020282,630.379484 L214.323114,630.569091 L214.436231,629.783825 L213.133448,629.594242 L213.020282,630.379484 L213.020282,630.379484 Z M199.036271,630.263493 L197.877715,630.891217 L198.252616,631.589677 L199.411176,630.961954 L199.036271,630.263493 L199.036271,630.263493 Z M207.922012,628.835621 L207.8089,629.620814 L209.111729,629.810397 L209.224848,629.025155 L207.922012,628.835621 L207.922012,628.835621 Z M205.31635,628.456382 L205.203281,629.241624 L206.506064,629.431231 L206.619183,628.645965 L205.31635,628.456382 L205.31635,628.456382 Z M201.3539,629.007852 L200.195087,629.635552 L200.569937,630.334012 L201.728801,629.706312 L201.3539,629.007852 L201.3539,629.007852 Z M203.462813,613.179261 L202.672962,613.179261 L202.672962,614.50184 L203.462813,614.50184 L203.462813,613.179261 L203.462813,613.179261 Z M202.672962,625.082104 L203.462813,625.082104 L203.462813,623.759525 L202.672962,623.759525 L202.672962,625.082104 L202.672962,625.082104 Z M202.672962,627.727236 L203.462813,627.727236 L203.462813,626.404658 L202.672962,626.404658 L202.672962,627.727236 L202.672962,627.727236 Z M202.672962,619.79196 L203.462813,619.79196 L203.462813,618.469357 L202.672962,618.469357 L202.672962,619.79196 L202.672962,619.79196 Z M202.672962,622.43702 L203.462813,622.43702 L203.462813,621.11449 L202.672962,621.11449 L202.672962,622.43702 L202.672962,622.43702 Z" id="path3172-6-2-2-8" fill="rgba(255, 255, 255, 0.5)" sketch:type="MSShapeGroup"></path>
            <path d="M185.752583,622.299636 C185.749999,614.509605 189.885291,607.310209 196.600129,603.414443 C203.314967,599.518678 211.588735,599.518678 218.303573,603.414443 C225.018411,607.310209 229.153703,614.509605 229.15112,622.299636 C229.153703,630.089667 225.018411,637.289064 218.303573,641.184829 C211.588735,645.080594 203.314967,645.080594 196.600129,641.184829 C189.885291,637.289064 185.749999,630.089667 185.752583,622.299636 L185.752583,622.299636 Z" id="path3969-65-9-3-6" stroke-width="9.7007103" fill-opacity="0" fill="rgba(255, 255, 255, 0.5)" sketch:type="MSShapeGroup"></path>
            <path d="M193.919664,600.731168 C193.919664,598.162018 195.992772,596.07931 198.55008,596.07931 C201.107388,596.07931 203.180496,598.162018 203.180496,600.731168 C203.180496,603.300319 201.107388,605.383027 198.55008,605.383027 C195.992772,605.383027 193.919664,603.300319 193.919664,600.731168 L193.919664,600.731168 Z" id="path3969-6-85-4-8-7-4" stroke-width="9.70045853" fill="rgba(255, 255, 255, 0.5)" sketch:type="MSShapeGroup"></path>
            <path d="M165.86717,546.999279 C165.86717,544.430129 167.940278,542.347421 170.497586,542.347421 C173.054894,542.347421 175.128002,544.430129 175.128002,546.999279 C175.128002,549.56843 173.054894,551.651138 170.497586,551.651138 C167.940278,551.651138 165.86717,549.56843 165.86717,546.999279 L165.86717,546.999279 Z" id="path3969-6-85-4-5-6" stroke-width="9.70045853" fill="rgba(255, 255, 255, 0.5)" sketch:type="MSShapeGroup"></path>
            <path d="M198.196114,595.75105 C198.196114,595.75105 195.729789,572.627394 174.867652,549.3869" id="path4051-8-3-6" stroke-width="5.38914394" stroke-dasharray="10.77828803,10.77828803" sketch:type="MSShapeGroup"></path>
            <path d="M80.7652099,357.503696 C80.7652099,354.934545 82.8383183,352.851836 85.3956271,352.851836 C87.952936,352.851836 90.0260444,354.934545 90.0260444,357.503696 C90.0260445,359.165645 89.143492,360.70135 87.7108359,361.532325 C86.2781797,362.363299 84.5130746,362.363299 83.0804184,361.532325 C81.6477623,360.70135 80.7652098,359.165645 80.7652099,357.503696 L80.7652099,357.503696 Z" id="path3969-6-8-1-6" stroke-width="9.70045853" fill="rgba(255, 255, 255, 0.5)" sketch:type="MSShapeGroup"></path>
            <a class="animated2">
            <path d="M30.3738793,292.562633 C30.3738793,292.562633 46.791056,328.840054 82.997176,353.266518" id="path4051-5-6" stroke-dasharray="10.77828803,10.77828803" sketch:type="MSShapeGroup"></path>
            </a>
            <path d="M23.9468589,288.600633 C23.9463252,286.938327 24.828761,285.402062 26.2616362,284.570754 C27.6945114,283.739446 29.4600406,283.739446 30.8929158,284.570754 C32.325791,285.402062 33.2082268,286.938327 33.207693,288.600633 C33.2068684,291.169198 31.1340016,293.250992 28.577276,293.250992 C26.0205504,293.250992 23.9476836,291.169198 23.9468589,288.600633 L23.9468589,288.600633 Z" id="path3969-6-8-1-6-2" stroke-width="9.70045853" fill="rgba(255, 255, 255, 0.5)" sketch:type="MSShapeGroup"></path>
            <path d="M93.3399483,288.402363 C93.3387545,286.739615 94.2210457,285.202659 95.6541917,284.370938 C97.0873377,283.539218 98.8533911,283.539218 100.286537,284.370938 C101.719683,285.202659 102.601974,286.739615 102.60078,288.402363 C102.598937,290.970203 100.526369,293.050867 97.9703644,293.050867 C95.4143597,293.050867 93.3417918,290.970203 93.3399483,288.402363 L93.3399483,288.402363 Z" id="path3969-6-8-1-6-2-0" stroke-width="9.70045853" fill="rgba(255, 255, 255, 0.5)" sketch:type="MSShapeGroup"></path>
            <path d="M95.6446664,292.260012 C95.6446664,292.260012 81.3944653,318.506437 85.2690857,352.486189" id="path4051-5-6-2" stroke-width="5.38914394" stroke-dasharray="10.77828803,10.77828803" sketch:type="MSShapeGroup"></path>
        </g>
    </g>
</svg>