<?xml version="1.0" encoding="UTF-8" standalone="no"?>
<svg width="717px" height="109px" viewBox="0 0 717 109" version="1.1" xmlns="http://www.w3.org/2000/svg" xmlns:xlink="http://www.w3.org/1999/xlink" xmlns:sketch="http://www.bohemiancoding.com/sketch/ns">
    <!-- Generator: Sketch 3.3.1 (12002) - http://www.bohemiancoding.com/sketch -->
    <title>Group</title>
    <desc>Created with Sketch.</desc>
    <defs></defs>
    <g id="Page-1" stroke="none" stroke-width="1" fill="none" fill-rule="evenodd" sketch:type="MSPage">
        <g id="Group" sketch:type="MSLayerGroup" transform="translate(-2.000000, 0.000000)">
            <text id="microservices" sketch:type="MSTextLayer" font-family="Helvetica" font-size="40.5581395" font-weight="normal" fill="#333333">
                <tspan x="0" y="69.4186047">microservices</tspan>
            </text>
            <g id="vamp_logo_blue" transform="translate(571.902998, 36.755814)" fill="#303747" sketch:type="MSShapeGroup">
                <g id="text2995" transform="translate(0.090252, 0.367237)">
                    <path d="M12.0554672,32.7007421 L0.271165948,1.20639618 L9.25380705,1.20639618 L16.0124509,20.8499287 L22.7422104,1.20639618 L31.7537349,1.20639618 L19.9694336,32.7007421 L12.0554672,32.7007421" id="path3036"></path>
                    <path d="M63.8428521,32.7007421 L61.9365654,32.7007421 L58.8749551,28.377989 C58.123971,29.0641437 57.3248726,29.7110858 56.4776609,30.3188165 C55.6496549,30.9069483 54.7735356,31.4264619 53.8492999,31.8773605 C52.9250188,32.308656 51.9718776,32.6517312 50.9898741,32.9065872 C50.0270847,33.1614432 49.0450612,33.2888707 48.0437983,33.2888718 C45.8679238,33.2888707 43.8172267,32.9163898 41.8917007,32.1714259 C39.9854077,31.4264619 38.31019,30.3482254 36.8660423,28.9367119 C35.4411382,27.5056019 34.3146989,25.7608179 33.4867203,23.702358 C32.6587375,21.6439143 32.2447466,19.3012002 32.2447477,16.6742072 C32.2447466,14.2236859 32.6587375,11.9789926 33.4867203,9.94012285 C34.3146989,7.88169306 35.4411382,6.11730576 36.8660423,4.64695493 C38.31019,3.17666023 39.9854077,2.0396106 41.8917007,1.23580261 C43.8172267,0.412453282 45.8679238,0.000762915138 48.0437983,0.000730221847 C49.0450612,0.000762915138 50.0367128,0.128190929 51.0187575,0.383014587 C52.0007609,0.637902771 52.9539022,0.990780274 53.8781833,1.44164806 C54.8024179,1.89257823 55.6785372,2.42189454 56.5065443,3.02959828 C57.3537517,3.63736138 58.1432273,4.29410549 58.8749551,4.99983275 L61.9365654,1.26520915 L63.8428521,1.26520915 L63.8428521,32.7007421 M55.8999991,16.6742072 C55.8999748,15.5763827 55.6881653,14.5177503 55.2645716,13.4983068 C54.8601846,12.4592979 54.301778,11.5476982 53.5893518,10.7635044 C52.8768802,9.95974958 52.0392714,9.32261004 51.0765231,8.85208262 C50.13299,8.36199837 49.1220821,8.11694495 48.0437983,8.11692021 C46.9654807,8.11694495 45.9449457,8.30318593 44.9821912,8.67564317 C44.0386633,9.0481488 43.2106826,9.59707022 42.4982448,10.3224064 C41.80504,11.0477887 41.2562616,11.9495858 40.8519094,13.027803 C40.4475361,14.0864559 40.2453547,15.3019225 40.2453642,16.6742072 C40.2453547,18.0465253 40.4475361,19.2717935 40.8519094,20.3500182 C41.2562616,21.4086635 41.80504,22.300659 42.4982448,23.0260081 C43.2106826,23.7513776 44.0386633,24.3002979 44.9821912,24.6727713 C45.9449457,25.0452618 46.9654807,25.2315017 48.0437983,25.2314953 C49.1220821,25.2315017 50.13299,24.9962509 51.0765231,24.5257396 C52.0392714,24.0356393 52.8768802,23.3984997 53.5893518,22.6143178 C54.301778,21.8105511 54.8601846,20.8989514 55.2645716,19.8795144 C55.6881653,18.840499 55.8999748,17.772064 55.8999991,16.6742072" id="path3038"></path>
                    <path d="M109.275956,32.7007421 L101.419755,32.7007421 L101.419755,12.7043319 C101.419713,12.155431 101.313809,11.6359174 101.102042,11.1457879 C100.909448,10.6557026 100.630248,10.2244071 100.264431,9.85190259 C99.8985411,9.47944428 99.4749242,9.19518149 98.9935702,8.99911531 C98.5121527,8.78349123 98.0018879,8.6756679 97.462765,8.67564317 C96.9235893,8.6756679 96.4133245,8.78349123 95.9319599,8.99911531 C95.4698093,9.19518149 95.0558152,9.47944428 94.6899883,9.85190259 C94.3433648,10.2244071 94.0641646,10.6557026 93.8523773,11.1457879 C93.659804,11.6359174 93.5635226,12.155431 93.5635543,12.7043319 L93.5635543,32.7007421 L85.6784638,32.7007421 L85.6784638,12.7043319 C85.6784427,12.155431 85.5725384,11.6359174 85.3607511,11.1457879 C85.1681778,10.6557026 84.8889777,10.2244071 84.5231401,9.85190259 C84.1572709,9.47944428 83.733654,9.19518149 83.2522894,8.99911531 C82.7708826,8.78349123 82.2606177,8.6756679 81.7214843,8.67564317 C81.1823191,8.6756679 80.6720543,8.78349123 80.1906791,8.99911531 C79.7285391,9.19518149 79.314545,9.47944428 78.9487075,9.85190259 C78.6020946,10.2244071 78.3228944,10.6557026 78.1110965,11.1457879 C77.9185338,11.6359174 77.8222524,12.155431 77.822263,12.7043319 L77.822263,32.7007421 L69.937183,32.7007421 L69.937183,1.20639618 L71.8434697,1.20639618 L73.9808105,3.61772799 C75.0783654,2.67675046 76.2818244,1.9513912 77.5911982,1.44164806 C78.9198072,0.912363051 80.2965728,0.64770495 81.7214843,0.647672902 C83.1656203,0.64770495 84.571265,0.92216523 85.9384182,1.4710545 C87.3247855,2.02000624 88.5378674,2.97081499 89.5776851,4.32348364 C90.0590497,3.65696564 90.6078271,3.08844082 91.2240173,2.61790748 C91.8401653,2.14743426 92.4852241,1.76515032 93.1591831,1.4710545 C93.8523562,1.17702115 94.5648066,0.971176022 95.2965345,0.853518354 C96.0282095,0.716319993 96.7502934,0.64770495 97.462765,0.647672902 C99.0994427,0.64770495 100.630248,0.961373842 102.05518,1.58868044 C103.499295,2.2160493 104.7509,3.07863864 105.809985,4.17645116 C106.888241,5.25471642 107.735475,6.52899624 108.351697,7.99929427 C108.967824,9.46964167 109.275914,11.0379861 109.275956,12.7043319 L109.275956,32.7007421" id="path3040"></path>
                    <path d="M122.937654,44.6985881 L114.994805,44.6985881 L114.994805,1.20639618 L116.901092,1.20639618 L120.04935,4.99983275 C120.76179,4.31370985 121.541632,3.66676782 122.388877,3.05900471 C123.2361,2.45130097 124.112223,1.93178684 125.017237,1.50046103 C125.941485,1.04959324 126.894623,0.696715741 127.876661,0.441827558 C128.858668,0.187003793 129.850319,0.0595758861 130.851624,0.0595431928 C133.027456,0.0595758861 135.068526,0.461464073 136.974834,1.26520915 C138.900345,2.04941268 140.575567,3.16685805 142.0005,4.61754849 C143.444615,6.06829508 144.580682,7.82288063 145.408702,9.88130934 C146.236648,11.9201802 146.650642,14.1844766 146.650673,16.6742072 C146.650642,19.2619919 146.236648,21.5949034 145.408702,23.6729513 C144.580682,25.7314123 143.444615,27.4859977 142.0005,28.9367119 C140.575567,30.3678295 138.900345,31.4656713 136.974834,32.2302383 C135.068526,32.9948064 133.027456,33.377091 130.851624,33.377091 C130.158408,33.377091 129.465214,33.2986701 128.772041,33.1418391 C128.098082,32.9850048 127.424144,32.7791597 126.750227,32.5243037 C126.095525,32.2498435 125.440843,31.9459766 124.786172,31.6127018 C124.150736,31.2794303 123.534556,30.9363551 122.937654,30.5834751 L122.937654,44.6985881 M138.736704,16.6742072 C138.736683,15.3411308 138.524874,14.1452683 138.101278,13.0866165 C137.696886,12.0280035 137.138486,11.1360079 136.426056,10.4106266 C135.713585,9.66568526 134.875974,9.0971597 133.913234,8.70504992 C132.950441,8.31298747 131.929901,8.11694495 130.851624,8.11692021 C129.773304,8.11694495 128.752764,8.31298747 127.790013,8.70504992 C126.846488,9.0971597 126.0185,9.66568526 125.30607,10.4106266 C124.593609,11.1360079 124.025576,12.0280035 123.601969,13.0866165 C123.197587,14.1452683 122.995412,15.3411308 122.995423,16.6742072 C122.995412,17.9485035 123.197587,19.1149592 123.601969,20.1735798 C124.025576,21.232224 124.593609,22.1340222 125.30607,22.8789765 C126.0185,23.623949 126.846488,24.2022761 127.790013,24.6139588 C128.752764,25.0256566 129.773304,25.2315017 130.851624,25.2314953 C131.929901,25.2315017 132.950441,25.0256566 133.913234,24.6139588 C134.875974,24.2022761 135.713585,23.623949 136.426056,22.8789765 C137.138486,22.1340222 137.696886,21.232224 138.101278,20.1735798 C138.524874,19.1149592 138.736683,17.9485035 138.736704,16.6742072" id="path3042"></path>
                </g>
            </g>
            <g transform="translate(315.751323, 0.000000)" id="Shape" sketch:type="MSShapeGroup">
                <path d="M109.2453,34.5886067 L126.144613,34.5886067 L126.144613,52.0620333 L134.68946,52.0620333 C138.635723,52.0620333 142.694058,51.3513533 146.431261,50.07024 C148.266815,49.4409467 150.327953,48.5645867 152.139081,47.4622333 C149.753938,44.3114067 148.536222,40.33436 148.177013,36.4132667 C147.690645,31.0795333 148.753902,24.1376867 152.322995,19.9637133 L154.098921,17.8854467 L156.216095,19.6061933 C161.545309,23.9371267 166.02751,29.9895333 166.817769,36.8885067 C173.235384,34.9795533 180.769419,35.4308133 186.426231,38.7327867 L188.746716,40.0872933 L187.525408,42.4991 C182.741472,51.94286 172.740395,54.8676933 162.962745,54.3503067 C148.331473,91.2104733 116.4776,108.6621 77.8540872,108.6621 C57.9000665,108.6621 39.5926566,101.116393 29.1677135,83.2098733 L28.9974487,82.9170267 L27.4779977,79.7916333 C23.9541643,71.90948 22.7838637,63.2745 23.577714,54.6467867 L23.8162283,52.0620333 L38.267178,52.0620333 L38.267178,34.5886067 L55.1657729,34.5886067 L55.1657729,17.4952267 L88.9651182,17.4952267 L88.9651182,0.40112 L109.2453,0.40112 L109.2453,34.5886067 L109.2453,34.5886067 Z" fill="#3A4E55"></path>
                <path d="M163.996547,41.0530333 C165.12949,32.1455533 158.539454,25.1492067 154.452382,21.8276133 C149.742443,27.3357467 149.010377,41.7702533 156.40001,47.8473667 C152.276298,51.55264 143.58705,54.9112933 134.68946,54.9112933 L26.3831308,54.9112933 C25.5181572,64.30564 27.1482444,72.95588 30.872516,80.36134 L32.1046005,82.6401667 C32.8848009,83.9794133 33.736843,85.2721533 34.657853,86.5162067 L34.6585714,86.5162067 C39.110599,86.8061467 43.2163498,86.9057 46.9722318,86.8221333 L46.974387,86.8221333 C54.3546806,86.6564533 60.3771669,85.7757333 64.9419859,84.1756133 C65.621608,83.93654 66.3622955,84.3013267 66.5972177,84.9880267 C66.8314215,85.6747267 66.4722132,86.4246467 65.7933095,86.6622667 C65.1869659,86.87518 64.5540409,87.0742867 63.9002818,87.2624933 C63.8995634,87.26322 63.898845,87.26322 63.8981266,87.26322 C60.3038884,88.3009 56.4503018,88.9999533 51.4774222,89.31024 C51.7726914,89.3146 51.1699399,89.3552933 51.1685031,89.3552933 C50.9996752,89.3654667 50.7863054,89.3901733 50.6167591,89.39962 C48.6597923,89.5108 46.5476476,89.5340533 44.3880873,89.5340533 C42.026652,89.5340533 39.6997006,89.489 37.0990326,89.3552933 L37.0329383,89.39962 C46.056969,99.6587 60.1673892,105.812113 77.8533688,105.812113 C115.286465,105.812113 147.036886,89.02902 161.096299,51.34772 C171.070795,52.3824933 180.657346,49.8100933 185.018134,41.2005467 C178.072483,37.1457467 169.139691,38.4384867 163.996547,41.0530333" fill="#00AADA"></path>
                <path d="M163.996547,41.0530333 C165.12949,32.1455533 158.539454,25.1492067 154.452382,21.8276133 C149.742443,27.3357467 149.010377,41.7702533 156.40001,47.8473667 C152.276298,51.55264 143.58705,54.9112933 134.68946,54.9112933 L32.7964357,54.9112933 C32.3546095,69.29784 37.6328161,80.21964 46.9722318,86.8221333 L46.974387,86.8221333 C54.3546806,86.6564533 60.3771669,85.7757333 64.9419859,84.1756133 C65.621608,83.93654 66.3622955,84.3013267 66.5972177,84.9880267 C66.8314215,85.6747267 66.4722132,86.4246467 65.7933095,86.6622667 C65.1869659,86.87518 64.5540409,87.0742867 63.9002818,87.2624933 C63.8995634,87.26322 63.898845,87.26322 63.8981266,87.26322 C60.3038884,88.3009 56.1191118,89.0893333 51.1469506,89.39962 C51.1455137,89.39962 51.0262566,89.2833533 51.0248197,89.2833533 C63.7637827,95.8931133 82.23571,95.86986 103.413194,87.6410867 C127.160454,78.4146 149.256075,60.8343533 164.674732,40.7274867 C164.441965,40.83358 164.215664,40.9418533 163.996547,41.0530333" fill="#27B9EC"></path>
                <path d="M26.5857243,66.3250467 C27.2588806,71.3572133 28.7136742,76.06892 30.872516,80.36134 L32.1046005,82.6408933 C32.8848009,83.9794133 33.736843,85.2721533 34.6585714,86.5162067 C39.1120359,86.8061467 43.2177867,86.9057 46.974387,86.8221333 C54.3546806,86.6564533 60.3771669,85.7757333 64.9419859,84.1756133 C65.621608,83.9372667 66.3622955,84.3013267 66.5972177,84.9880267 C66.8321399,85.6747267 66.4722132,86.4246467 65.7933095,86.6622667 C65.1869659,86.87518 64.5540409,87.0742867 63.9002818,87.2624933 C63.8995634,87.26322 63.898845,87.26322 63.8981266,87.26322 C60.3038884,88.3009 56.1413827,89.0450067 51.1685031,89.3552933 C50.9982383,89.3654667 50.7000954,89.3676467 50.5283939,89.37782 C48.5721455,89.489 46.4815532,89.55658 44.3212746,89.55658 C41.9605576,89.55658 39.5452411,89.5108 36.9452914,89.37782 C45.9693222,99.6369 60.1673892,105.812113 77.8533688,105.812113 C109.899778,105.812113 137.780088,93.50892 153.961704,66.3250467 L26.5857243,66.3250467 L26.5857243,66.3250467 Z" fill="#088CB9"></path>
                <path d="M33.771327,66.3250467 C35.687344,75.1613133 40.2909575,82.0973467 46.974387,86.8221333 C54.3546806,86.6564533 60.3771669,85.7757333 64.9419859,84.1756133 C65.621608,83.9372667 66.3622955,84.3013267 66.5972177,84.9880267 C66.8321399,85.6747267 66.4722132,86.4246467 65.7933095,86.6622667 C65.1869659,86.87518 64.5540409,87.0742867 63.9002818,87.2624933 C63.8995634,87.26322 63.898845,87.26322 63.8981266,87.26322 C60.3038884,88.3009 56.0530174,89.0450067 51.0808562,89.3552933 C63.8183823,95.9643267 82.2371468,95.8691333 103.413194,87.6418133 C116.224717,82.6626933 128.554183,75.25142 139.615643,66.3250467 L33.771327,66.3250467 L33.771327,66.3250467 Z" fill="#039CC7"></path>
                <path d="M53.3532079,38.6717467 L54.5098586,38.6717467 L54.5098586,51.0178133 L53.3532079,51.0178133 L53.3532079,38.6717467 L53.3532079,38.6717467 Z M51.1340191,38.6717467 L52.33593,38.6717467 L52.33593,51.0178133 L51.1340191,51.0178133 L51.1340191,38.6717467 L51.1340191,38.6717467 Z M48.9148302,38.6717467 L50.1167412,38.6717467 L50.1167412,51.0178133 L48.9148302,51.0178133 L48.9148302,38.6717467 L48.9148302,38.6717467 Z M46.694923,38.6717467 L47.8975523,38.6717467 L47.8975523,51.0178133 L46.694923,51.0178133 L46.694923,38.6717467 L46.694923,38.6717467 Z M44.4764525,38.6717467 L45.6783635,38.6717467 L45.6783635,51.0178133 L44.4764525,51.0178133 L44.4764525,38.6717467 L44.4764525,38.6717467 Z M42.3032424,38.6717467 L43.4591747,38.6717467 L43.4591747,51.0178133 L42.3032424,51.0178133 L42.3032424,38.6717467 L42.3032424,38.6717467 Z M41.083371,37.43714 L55.7290116,37.43714 L55.7290116,52.25242 L41.083371,52.25242 L41.083371,37.43714 L41.083371,37.43714 Z" fill="#00ACD3"></path>
                <path d="M70.2525213,21.5783667 L71.4098904,21.5783667 L71.4098904,33.9237067 L70.2525213,33.9237067 L70.2525213,21.5783667 L70.2525213,21.5783667 Z M68.0340509,21.5783667 L69.2359618,21.5783667 L69.2359618,33.9237067 L68.0340509,33.9237067 L68.0340509,21.5783667 L68.0340509,21.5783667 Z M65.8141436,21.5783667 L67.0160546,21.5783667 L67.0160546,33.9237067 L65.8141436,33.9237067 L65.8141436,21.5783667 L65.8141436,21.5783667 Z M63.5949548,21.5783667 L64.7968657,21.5783667 L64.7968657,33.9237067 L63.5949548,33.9237067 L63.5949548,21.5783667 L63.5949548,21.5783667 Z M61.3764844,21.5783667 L62.5776769,21.5783667 L62.5776769,33.9237067 L61.3764844,33.9237067 L61.3764844,21.5783667 L61.3764844,21.5783667 Z M59.2032742,21.5783667 L60.358488,21.5783667 L60.358488,33.9237067 L59.2032742,33.9237067 L59.2032742,21.5783667 L59.2032742,21.5783667 Z M57.981966,20.34376 L72.6297618,20.34376 L72.6297618,35.1583133 L57.981966,35.1583133 L57.981966,20.34376 L57.981966,20.34376 Z" fill="#00ACD3"></path>
                <path d="M70.2525213,38.6717467 L71.4098904,38.6717467 L71.4098904,51.0178133 L70.2525213,51.0178133 L70.2525213,38.6717467 L70.2525213,38.6717467 Z M68.0340509,38.6717467 L69.2359618,38.6717467 L69.2359618,51.0178133 L68.0340509,51.0178133 L68.0340509,38.6717467 L68.0340509,38.6717467 Z M65.8141436,38.6717467 L67.0160546,38.6717467 L67.0160546,51.0178133 L65.8141436,51.0178133 L65.8141436,38.6717467 L65.8141436,38.6717467 Z M63.5949548,38.6717467 L64.7968657,38.6717467 L64.7968657,51.0178133 L63.5949548,51.0178133 L63.5949548,38.6717467 L63.5949548,38.6717467 Z M61.3764844,38.6717467 L62.5776769,38.6717467 L62.5776769,51.0178133 L61.3764844,51.0178133 L61.3764844,38.6717467 L61.3764844,38.6717467 Z M59.2032742,38.6717467 L60.358488,38.6717467 L60.358488,51.0178133 L59.2032742,51.0178133 L59.2032742,38.6717467 L59.2032742,38.6717467 Z M57.981966,37.43714 L72.6297618,37.43714 L72.6297618,52.25242 L57.981966,52.25242 L57.981966,37.43714 L57.981966,37.43714 Z" fill="#26C2EE"></path>
                <path d="M87.1525531,38.6717467 L88.3084854,38.6717467 L88.3084854,51.0178133 L87.1525531,51.0178133 L87.1525531,38.6717467 L87.1525531,38.6717467 Z M84.9333643,38.6717467 L86.1359936,38.6717467 L86.1359936,51.0178133 L84.9333643,51.0178133 L84.9333643,38.6717467 L84.9333643,38.6717467 Z M82.7141754,38.6717467 L83.9168048,38.6717467 L83.9168048,51.0178133 L82.7141754,51.0178133 L82.7141754,38.6717467 L82.7141754,38.6717467 Z M80.4949866,38.6717467 L81.6968975,38.6717467 L81.6968975,51.0178133 L80.4949866,51.0178133 L80.4949866,38.6717467 L80.4949866,38.6717467 Z M78.2757977,38.6717467 L79.4777087,38.6717467 L79.4777087,51.0178133 L78.2757977,51.0178133 L78.2757977,38.6717467 L78.2757977,38.6717467 Z M76.1025876,38.6717467 L77.2578014,38.6717467 L77.2578014,51.0178133 L76.1025876,51.0178133 L76.1025876,38.6717467 L76.1025876,38.6717467 Z M74.8819978,37.43714 L89.5290752,37.43714 L89.5290752,52.25242 L74.8819978,52.25242 L74.8819978,37.43714 L74.8819978,37.43714 Z" fill="#00ACD3"></path>
                <path d="M87.1525531,21.5783667 L88.3084854,21.5783667 L88.3084854,33.9237067 L87.1525531,33.9237067 L87.1525531,21.5783667 L87.1525531,21.5783667 Z M84.9333643,21.5783667 L86.1359936,21.5783667 L86.1359936,33.9237067 L84.9333643,33.9237067 L84.9333643,21.5783667 L84.9333643,21.5783667 Z M82.7141754,21.5783667 L83.9168048,21.5783667 L83.9168048,33.9237067 L82.7141754,33.9237067 L82.7141754,21.5783667 L82.7141754,21.5783667 Z M80.4949866,21.5783667 L81.6968975,21.5783667 L81.6968975,33.9237067 L80.4949866,33.9237067 L80.4949866,21.5783667 L80.4949866,21.5783667 Z M78.2757977,21.5783667 L79.4777087,21.5783667 L79.4777087,33.9237067 L78.2757977,33.9237067 L78.2757977,21.5783667 L78.2757977,21.5783667 Z M76.1025876,21.5783667 L77.2578014,21.5783667 L77.2578014,33.9237067 L76.1025876,33.9237067 L76.1025876,21.5783667 L76.1025876,21.5783667 Z M74.8819978,20.34376 L89.5290752,20.34376 L89.5290752,35.1583133 L74.8819978,35.1583133 L74.8819978,20.34376 L74.8819978,20.34376 Z" fill="#26C2EE"></path>
                <path d="M104.052585,38.6717467 L105.209236,38.6717467 L105.209236,51.0178133 L104.052585,51.0178133 L104.052585,38.6717467 L104.052585,38.6717467 Z M101.833396,38.6717467 L103.035307,38.6717467 L103.035307,51.0178133 L101.833396,51.0178133 L101.833396,38.6717467 L101.833396,38.6717467 Z M99.6142072,38.6717467 L100.816118,38.6717467 L100.816118,51.0178133 L99.6142072,51.0178133 L99.6142072,38.6717467 L99.6142072,38.6717467 Z M97.3943,38.6717467 L98.5962109,38.6717467 L98.5962109,51.0178133 L97.3943,51.0178133 L97.3943,38.6717467 L97.3943,38.6717467 Z M95.1758296,38.6717467 L96.3777405,38.6717467 L96.3777405,51.0178133 L95.1758296,51.0178133 L95.1758296,38.6717467 L95.1758296,38.6717467 Z M93.0026194,38.6717467 L94.1585517,38.6717467 L94.1585517,51.0178133 L93.0026194,51.0178133 L93.0026194,38.6717467 L93.0026194,38.6717467 Z M91.7820296,37.43714 L106.429107,37.43714 L106.429107,52.25242 L91.7820296,52.25242 L91.7820296,37.43714 L91.7820296,37.43714 Z" fill="#26C2EE"></path>
                <path d="M104.052585,21.5783667 L105.209236,21.5783667 L105.209236,33.9237067 L104.052585,33.9237067 L104.052585,21.5783667 L104.052585,21.5783667 Z M101.833396,21.5783667 L103.035307,21.5783667 L103.035307,33.9237067 L101.833396,33.9237067 L101.833396,21.5783667 L101.833396,21.5783667 Z M99.6142072,21.5783667 L100.816118,21.5783667 L100.816118,33.9237067 L99.6142072,33.9237067 L99.6142072,21.5783667 L99.6142072,21.5783667 Z M97.3943,21.5783667 L98.5962109,21.5783667 L98.5962109,33.9237067 L97.3943,33.9237067 L97.3943,21.5783667 L97.3943,21.5783667 Z M95.1758296,21.5783667 L96.3777405,21.5783667 L96.3777405,33.9237067 L95.1758296,33.9237067 L95.1758296,21.5783667 L95.1758296,21.5783667 Z M93.0026194,21.5783667 L94.1585517,21.5783667 L94.1585517,33.9237067 L93.0026194,33.9237067 L93.0026194,21.5783667 L93.0026194,21.5783667 Z M91.7820296,20.34376 L106.429107,20.34376 L106.429107,35.1583133 L91.7820296,35.1583133 L91.7820296,20.34376 L91.7820296,20.34376 Z" fill="#00ACD3"></path>
                <path d="M104.052585,4.48426 L105.209236,4.48426 L105.209236,16.8303267 L104.052585,16.8303267 L104.052585,4.48426 L104.052585,4.48426 Z M101.833396,4.48426 L103.035307,4.48426 L103.035307,16.8303267 L101.833396,16.8303267 L101.833396,4.48426 L101.833396,4.48426 Z M99.6142072,4.48426 L100.816118,4.48426 L100.816118,16.8303267 L99.6142072,16.8303267 L99.6142072,4.48426 L99.6142072,4.48426 Z M97.3943,4.48426 L98.5962109,4.48426 L98.5962109,16.8303267 L97.3943,16.8303267 L97.3943,4.48426 L97.3943,4.48426 Z M95.1758296,4.48426 L96.3777405,4.48426 L96.3777405,16.8303267 L95.1758296,16.8303267 L95.1758296,4.48426 L95.1758296,4.48426 Z M93.0026194,4.48426 L94.1585517,4.48426 L94.1585517,16.8303267 L93.0026194,16.8303267 L93.0026194,4.48426 L93.0026194,4.48426 Z M91.7820296,3.25038 L106.429107,3.25038 L106.429107,18.0649333 L91.7820296,18.0649333 L91.7820296,3.25038 L91.7820296,3.25038 Z" fill="#26C2EE"></path>
                <path d="M120.951898,38.6717467 L122.107831,38.6717467 L122.107831,51.0178133 L120.951898,51.0178133 L120.951898,38.6717467 L120.951898,38.6717467 Z M118.733428,38.6717467 L119.93462,38.6717467 L119.93462,51.0178133 L118.733428,51.0178133 L118.733428,38.6717467 L118.733428,38.6717467 Z M116.512802,38.6717467 L117.714713,38.6717467 L117.714713,51.0178133 L116.512802,51.0178133 L116.512802,38.6717467 L116.512802,38.6717467 Z M114.294332,38.6717467 L115.496243,38.6717467 L115.496243,51.0178133 L114.294332,51.0178133 L114.294332,38.6717467 L114.294332,38.6717467 Z M112.074425,38.6717467 L113.276335,38.6717467 L113.276335,51.0178133 L112.074425,51.0178133 L112.074425,38.6717467 L112.074425,38.6717467 Z M109.901214,38.6717467 L111.057865,38.6717467 L111.057865,51.0178133 L109.901214,51.0178133 L109.901214,38.6717467 L109.901214,38.6717467 Z M108.681343,37.43714 L123.32842,37.43714 L123.32842,52.25242 L108.681343,52.25242 L108.681343,37.43714 L108.681343,37.43714 Z" fill="#00ACD3"></path>
                <path d="M71.7130622,76.27166 C73.9437457,76.27166 75.7534371,78.10286 75.7534371,80.35916 C75.7534371,82.61546 73.9437457,84.4452067 71.7130622,84.4452067 C69.4809419,84.4452067 67.6719689,82.61546 67.6719689,80.35916 C67.6719689,78.10286 69.4809419,76.27166 71.7130622,76.27166" fill="#D5EEF2"></path>
                <path d="M71.7130622,77.43142 C72.0823283,77.43142 72.4350709,77.5019067 72.7605136,77.6290733 C72.4077711,77.8354467 72.1692568,78.2220333 72.1692568,78.6638467 C72.1692568,79.32366 72.6980114,79.85776 73.3503336,79.85776 C73.7971887,79.85776 74.1851337,79.6063333 74.3862903,79.23646 C74.5278184,79.5816267 74.6061258,79.9609467 74.6061258,80.35916 C74.6061258,81.9752667 73.3108207,83.2861733 71.7130622,83.2861733 C70.1145853,83.2861733 68.8185618,81.9752667 68.8185618,80.35916 C68.8185618,78.7416 70.1145853,77.43142 71.7130622,77.43142" fill="#3A4E55"></path>
                <path d="M0.24210639,67.80236 L88.7517484,67.80236 L99.6989804,67.80236 L188.206467,67.80236 C184.113648,66.7523267 175.257008,65.3338733 176.717549,59.90858 C169.27619,68.6184067 151.328707,66.0198467 146.799809,61.7237933 C141.755806,69.1241667 112.392683,66.31124 110.345196,60.5465933 C104.021693,68.0523333 84.4283174,68.0523333 78.1040962,60.5465933 C76.0551721,66.31124 46.6934861,69.1241667 41.6487648,61.7237933 C37.1191483,66.0198467 19.1738203,68.6184067 11.7317429,59.90858 C13.1922838,65.3338733 4.33564411,66.7523267 0.24210639,67.80236" fill="#3A4E55"></path>
                <path d="M82.4533902,105.724187 C72.4465656,100.92092 66.9542707,94.39182 63.8981266,87.26322 C60.1810391,88.3372333 55.7132064,89.02248 50.5212097,89.3175067 C48.5656798,89.4286867 46.5088531,89.4853667 44.3492928,89.4853667 C41.8606977,89.4853667 39.2377588,89.4112467 36.4847864,89.2630067 C45.6611215,98.5396333 56.9503198,105.68204 77.8533688,105.812113 C79.3965276,105.812113 80.9289102,105.781593 82.4533902,105.724187" fill="#C0DBE1"></path>
                <path d="M67.615214,93.84028 C66.2308252,91.93932 64.8873862,89.5507667 63.9002818,87.2624933 C60.1831944,88.33578 55.7139248,89.02248 50.5212097,89.31678 C54.0881481,91.2758733 59.1889058,93.0896333 67.615214,93.84028" fill="#D5EEF2"></path>
            </g>
            <text id="+" sketch:type="MSTextLayer" font-family="Hiragino Kaku Gothic ProN" font-size="40.5581395" font-weight="313" fill="#333333">
                <tspan x="268.832451" y="70.2209302">+</tspan>
            </text>
            <text id="+-copy" sketch:type="MSTextLayer" font-family="Hiragino Kaku Gothic ProN" font-size="40.5581395" font-weight="313" fill="#333333">
                <tspan x="524.984127" y="66.4186047">+</tspan>
            </text>
        </g>
    </g>
</svg>