<?xml version="1.0" encoding="utf-8"?>
<!-- Generator: Adobe Illustrator 19.2.1, SVG Export Plug-In . SVG Version: 6.00 Build 0)  -->
<svg version="1.1" id="Layer_1" xmlns="http://www.w3.org/2000/svg" xmlns:xlink="http://www.w3.org/1999/xlink" x="0px" y="0px"
	 viewBox="0 0 360 180" style="enable-background:new 0 0 360 180;" xml:space="preserve">
<style type="text/css">
	.st0{fill:#234B5F;}
	.st1{display:none;}
	.st2{display:inline;fill:#234B5F;}
	.st3{fill:#FFFFFF;}
	.st4{fill-rule:evenodd;clip-rule:evenodd;fill:#234B5F;}
	.st5{clip-path:url(#SVGID_2_);}
	.st6{clip-path:url(#SVGID_4_);fill:#234B5F;}
	.st7{clip-path:url(#SVGID_6_);}
	.st8{clip-path:url(#SVGID_8_);fill:#234B5F;}
	.st9{fill-rule:evenodd;clip-rule:evenodd;fill:#FFFFFF;}
	.st10{clip-path:url(#SVGID_10_);}
	.st11{clip-path:url(#SVGID_12_);fill:#234B5F;}
</style>
<g>
	<path class="st0" d="M135.9,80.6c0.8-6.2-3.9-11.1-6.8-13.5c-3.3,3.9-3.9,14,1.4,18.2c-2.9,2.6-9.1,4.9-15.4,4.9H38.5
		c-0.6,6.6,0.5,12.6,3.2,17.8l0.9,1.6c0.6,0.9,1.2,1.8,1.8,2.7l0,0c3.2,0.2,6.1,0.3,8.7,0.2c0,0,0,0,0,0c5.2-0.1,9.5-0.7,12.7-1.9
		c0.5-0.2,1,0.1,1.2,0.6c0.2,0.5-0.1,1-0.6,1.2c-0.4,0.1-0.9,0.3-1.3,0.4c0,0,0,0,0,0c-2.5,0.7-5.3,1.2-8.8,1.4c0.2,0-0.2,0-0.2,0
		c-0.1,0-0.3,0-0.4,0c-1.4,0.1-2.9,0.1-4.4,0.1c-1.7,0-3.3,0-5.2-0.1l0,0c6.4,7.2,16.4,11.5,28.9,11.5c26.5,0,49-11.7,58.9-38.1
		c7.1,0.7,13.8-1.1,16.9-7.1C145.8,77.8,139.5,78.7,135.9,80.6z"/>
	<path class="st4" d="M57.6,78.9h0.8v8.6h-0.8V78.9z M56,78.9h0.9v8.6H56V78.9z M54.4,78.9h0.9v8.6h-0.9V78.9z M52.9,78.9h0.9v8.6
		h-0.9V78.9z M51.3,78.9h0.9v8.6h-0.9V78.9z M49.8,78.9h0.8v8.6h-0.8V78.9z M48.9,78h10.4v10.4H48.9V78z"/>
	<path class="st4" d="M69.5,66.9h0.8v8.6h-0.8V66.9z M68,66.9h0.9v8.6H68V66.9z M66.4,66.9h0.8v8.6h-0.8V66.9z M64.8,66.9h0.9v8.6
		h-0.9V66.9z M63.3,66.9h0.8v8.6h-0.8V66.9z M61.7,66.9h0.8v8.6h-0.8V66.9z M60.9,66.1h10.4v10.4H60.9V66.1z"/>
	<path class="st4" d="M69.5,78.9h0.8v8.6h-0.8V78.9z M68,78.9h0.9v8.6H68V78.9z M66.4,78.9h0.8v8.6h-0.8V78.9z M64.8,78.9h0.9v8.6
		h-0.9V78.9z M63.3,78.9h0.8v8.6h-0.8V78.9z M61.7,78.9h0.8v8.6h-0.8V78.9z M60.9,78h10.4v10.4H60.9V78z"/>
	<path class="st4" d="M81.5,78.9h0.8v8.6h-0.8V78.9z M79.9,78.9h0.9v8.6h-0.9V78.9z M78.4,78.9h0.8v8.6h-0.8V78.9z M76.8,78.9h0.8
		v8.6h-0.8V78.9z M75.2,78.9h0.9v8.6h-0.9V78.9z M73.7,78.9h0.8v8.6h-0.8V78.9z M72.8,78h10.4v10.4H72.8V78z"/>
	<path class="st4" d="M81.5,66.9h0.8v8.6h-0.8V66.9z M79.9,66.9h0.9v8.6h-0.9V66.9z M78.4,66.9h0.8v8.6h-0.8V66.9z M76.8,66.9h0.8
		v8.6h-0.8V66.9z M75.2,66.9h0.9v8.6h-0.9V66.9z M73.7,66.9h0.8v8.6h-0.8V66.9z M72.8,66.1h10.4v10.4H72.8V66.1z"/>
	<path class="st4" d="M93.5,78.9h0.8v8.6h-0.8V78.9z M91.9,78.9h0.9v8.6h-0.9V78.9z M90.3,78.9h0.9v8.6h-0.9V78.9z M88.8,78.9h0.9
		v8.6h-0.9V78.9z M87.2,78.9H88v8.6h-0.9V78.9z M85.6,78.9h0.8v8.6h-0.8V78.9z M84.8,78h10.4v10.4H84.8V78z"/>
	<path class="st4" d="M93.5,66.9h0.8v8.6h-0.8V66.9z M91.9,66.9h0.9v8.6h-0.9V66.9z M90.3,66.9h0.9v8.6h-0.9V66.9z M88.8,66.9h0.9
		v8.6h-0.9V66.9z M87.2,66.9H88v8.6h-0.9V66.9z M85.6,66.9h0.8v8.6h-0.8V66.9z M84.8,66.1h10.4v10.4H84.8V66.1z"/>
	<path class="st4" d="M93.5,55h0.8v8.6h-0.8V55z M91.9,55h0.9v8.6h-0.9V55z M90.3,55h0.9v8.6h-0.9V55z M88.8,55h0.9v8.6h-0.9V55z
		 M87.2,55H88v8.6h-0.9V55z M85.6,55h0.8v8.6h-0.8V55z M84.8,54.1h10.4v10.4H84.8V54.1z"/>
	<path class="st4" d="M105.4,78.9h0.8v8.6h-0.8V78.9z M103.9,78.9h0.8v8.6h-0.8V78.9z M102.3,78.9h0.9v8.6h-0.9V78.9z M100.7,78.9
		h0.9v8.6h-0.9V78.9z M99.1,78.9h0.8v8.6h-0.8V78.9z M97.6,78.9h0.8v8.6h-0.8V78.9z M96.7,78h10.4v10.4H96.7V78z"/>
	<path class="st9" d="M70.6,105.2c1.6,0,2.9,1.3,2.9,2.9c0,1.6-1.3,2.9-2.9,2.9c-1.6,0-2.9-1.3-2.9-2.9
		C67.7,106.5,69,105.2,70.6,105.2"/>
	<path class="st4" d="M70.6,106c0.3,0,0.5,0.1,0.7,0.1c-0.2,0.1-0.4,0.4-0.4,0.7c0,0.5,0.4,0.8,0.8,0.8c0.3,0,0.6-0.2,0.7-0.4
		c0.1,0.2,0.2,0.5,0.2,0.8c0,1.1-0.9,2-2,2c-1.1,0-2-0.9-2-2C68.5,106.9,69.4,106,70.6,106"/>
	<path class="st4" d="M20,99.3h62.6h7.7H153c-2.9-0.7-9.2-1.7-8.1-5.5c-5.3,6.1-18,4.3-21.2,1.3c-3.6,5.2-24.3,3.2-25.8-0.8
		c-4.5,5.3-18.3,5.3-22.8,0c-1.4,4-22.2,6-25.8,0.8c-3.2,3-15.9,4.8-21.2-1.3C29.2,97.6,22.9,98.5,20,99.3"/>
	<path class="st0" d="M78.2,125.8c-7.1-3.4-11-7.9-13.1-12.9c-2.6,0.8-5.8,1.2-9.5,1.4c-1.4,0.1-2.8,0.1-4.4,0.1
		c-1.8,0-3.6-0.1-5.6-0.2c6.5,6.5,14.5,11.5,29.3,11.6C76,125.9,77.1,125.9,78.2,125.8z"/>
	<path class="st4" d="M292.8,104.8c4.1-3.5,8.2-7,12.3-10.5c1.4-1.2,2.9-2.4,4.3-3.7c-1.1-1.4-3-2.4-4.5-3c-3.2-1.2-6.3-0.8-9.2,0.9
		c-3.8,2.2-5.4,5.7-5.3,10.1c0.1,1.7,0.5,3.4,1.4,4.8C292,103.8,292.4,104.3,292.8,104.8 M297.5,108.1c2,0.7,4.3,0.6,6.4,0.2
		c1.1-0.4,3.7-1.6,4.7-1.5l0.2,0l0.1,0.1c0.6,0.3,1.2,0.7,1.5,1.3c0.7,1.4,0.4,2.9-1,3.7l-0.5,0.3c-5.2,3-10.8,2.6-16-0.2
		c-2.5-1.3-4.4-3.3-5.8-5.8l-0.3-0.6c-3.4-5.8-2.9-11.9,0.9-17.5c1.3-1.9,3-3.4,5-4.5l0.8-0.4c4.9-2.8,10.2-2.6,15.3-0.2
		c2.7,1.3,4.9,3.3,6.4,6l0.3,0.5c1.1,1.9-0.3,3.6-1.8,4.7c-1.7,1.3-3.4,2.9-5.1,4.3C304.8,101.8,301.2,105,297.5,108.1z M336.7,81.7
		h0.5c1.7,0,2.8,1.1,2.8,2.8c0,2.3-2.2,2.9-4.1,2.9c-2.5,0-4.8,1.5-6.5,3.2c-2.1,2.1-3.1,4.8-3.1,7.7v13.3c0,1.5-1,2.8-2.5,2.8h-0.4
		c-1.6,0-2.5-1.2-2.5-2.8V97.4c0-5.4,2.6-9.8,7-12.9C330.5,82.6,333.5,81.7,336.7,81.7z M268,91.1c2.1-2.1,4.3-4.3,6.5-6.4
		c0.6-0.6,2.9-3.1,3.8-3.1h1l0.1,0c1.3,0.3,2.2,1.1,2.2,2.4v0.5c0,0.9-1.1,2-1.7,2.6c-1.3,1.3-2.6,2.6-3.9,4l-6.7,6.8
		c2.9,2.9,5.7,5.8,8.6,8.6c0.8,0.8,1.6,1.6,2.3,2.4c0.3,0.3,0.7,0.6,0.9,1c0.2,0.4,0.4,0.8,0.4,1.2v0.6l0,0.1
		c-0.3,1.3-1.1,2.3-2.5,2.3h-0.4c-0.9,0-1.9-1-2.6-1.6c-1.3-1.2-2.5-2.5-3.8-3.7l-4.2-4.2v6.6c0,1.5-1,2.8-2.5,2.8H265
		c-1.6,0-2.5-1.2-2.5-2.8V74c0-1.5,1-2.8,2.5-2.8h0.4c1.6,0,2.5,1.2,2.5,2.8V91.1z M250.1,87.4c-0.8-0.4-2.4-0.5-3.3-0.6
		c-4.6-0.2-7.9,2.4-9.9,6.5c-0.7,1.4-1,2.9-1,4.4c0,4.7,2.5,8,6.7,10c1.5,0.7,3.5,0.9,5.2,0.9c1.5,0,3.6-0.9,4.9-1.5l0.2-0.1h1
		l0.1,0c1.3,0.3,2.2,1.1,2.2,2.4v0.5c0,3.4-6.1,4.1-8.5,4.3c-8.3,0.6-14.4-4-16.8-11.8c-0.4-1.4-0.6-2.7-0.6-4.2v-1.1
		c0-6,3-10.7,8.1-13.8c2.4-1.4,5-2.1,7.8-2.1h1.1c2.9,0,5.6,0.8,8.1,2.5l0.2,0.1l0.1,0.2c0.3,0.4,0.5,0.9,0.5,1.5v0.5
		c0,1.4-1.1,2.2-2.3,2.4l-0.1,0h-0.3C252.7,88.6,250.8,87.8,250.1,87.4z M199.8,97.9c0,4.2,2.1,7.3,5.6,9.4c1.7,1,3.5,1.5,5.4,1.5
		c4.1,0,7.2-2.1,9.3-5.6c1-1.7,1.5-3.5,1.5-5.4c0-3.9-1.9-6.9-5.1-9c-1.8-1.2-3.7-1.8-5.8-1.8c-4.6,0-7.9,2.3-9.9,6.5
		C200.1,94.8,199.8,96.3,199.8,97.9z M210.2,81.4h0.8c6.4,0,11.2,3.1,14.3,8.7c1.2,2.2,1.9,4.7,1.9,7.2v1.1c0,6-2.9,10.7-8.1,13.8
		c-2.4,1.4-5,2.1-7.8,2.1h-1.1c-6,0-10.7-3-13.8-8.1c-1.4-2.4-2.1-5-2.1-7.8v-1.1c0-6,3-10.7,8.1-13.8
		C204.8,82.2,207.4,81.4,210.2,81.4z M163.7,97.9c0,4.3,2.1,7.6,5.9,9.6c1.5,0.8,3.2,1.3,4.9,1.3c4.2,0,7.4-2,9.5-5.6
		c1-1.7,1.5-3.5,1.5-5.4c0-3.7-1.8-6.7-4.8-8.8c-1.8-1.3-3.9-2-6.1-2c-4.6,0-7.9,2.3-9.9,6.5C164,94.8,163.7,96.3,163.7,97.9z
		 M185.6,85.6V73.9c0-1.5,1-2.8,2.5-2.8h0.4c1.6,0,2.5,1.2,2.5,2.8v24.5c0,6-3,10.7-8.1,13.8c-2.4,1.4-5,2.1-7.8,2.1h-1.1
		c-6,0-10.7-3-13.8-8.1c-1.4-2.4-2.1-5-2.1-7.8v-1.1c0-6,3-10.7,8.1-13.8c2.4-1.4,5-2.1,7.8-2.1h1.1C179.2,81.4,182.7,83,185.6,85.6
		z"/>
</g>
</svg>
