<svg id="Layer_1" xmlns="http://www.w3.org/2000/svg" xmlns:xlink="http://www.w3.org/1999/xlink" viewBox="0 0 180 180"><style>.st0{fill:#c3d2dc}.st1{display:none}.st2{display:inline;fill:#c3d2dc}.st3{fill:#fff}.st4{fill-rule:evenodd;clip-rule:evenodd;fill:#c3d2dc}.st5{clip-path:url(#SVGID_2_)}.st6{clip-path:url(#SVGID_4_);fill:#c3d2dc}.st7{clip-path:url(#SVGID_6_)}.st8{clip-path:url(#SVGID_8_);fill:#c3d2dc}.st9{fill-rule:evenodd;clip-rule:evenodd;fill:#fff}.st10{clip-path:url(#SVGID_10_)}.st11{clip-path:url(#SVGID_12_);fill:#c3d2dc}</style><path class="st0" d="M66.1 153.5c-3.1 0-6-1.4-8-3.9L27.9 112c-2-2.5-2.8-5.7-2-8.8l10.8-46.9c.7-3.1 2.8-5.6 5.6-7L86 28.5c1.4-.7 2.9-1 4.5-1s3.1.3 4.5 1l43.7 20.8c2.8 1.4 4.9 3.9 5.6 7l10.8 46.9c.7 3.1 0 6.3-2 8.8l-30.2 37.5c-2 2.4-4.9 3.9-8 3.9l-48.8.1z"/><path class="st3" d="M134.1 99.9c-.2 0-.3 0-.3-.1-.2 0-.3-.1-.5-.1-.6-.1-1.1-.2-1.6-.2-.3 0-.5 0-.9-.1h-.1c-1.8-.2-3.3-.3-4.7-.8-.6-.3-.8-.6-.9-.9 0-.1-.1-.1-.1-.2l-1.1-.3c.5-4 .3-8.1-.6-12.2-.9-4.1-2.6-7.9-4.8-11.3l.9-.8v-.2c0-.4.1-.9.4-1.3 1-.9 2.3-1.7 3.9-2.7.3-.2.5-.3.8-.4.5-.3.9-.5 1.5-.9.1-.1.3-.2.4-.3.1-.1.2-.1.2-.2 1.2-1 1.5-2.8.6-3.9-.4-.6-1.2-.9-2-.9-.7 0-1.3.3-1.9.7l-.2.2c-.2.1-.3.3-.4.3-.4.4-.8.8-1.1 1.2-.2.2-.3.4-.6.6-1.2 1.3-2.3 2.3-3.5 3.1-.3.2-.5.3-.8.3-.2 0-.3 0-.5-.1h-.2l-1 .7c-1.1-1.2-2.3-2.2-3.5-3.3-5.2-4.1-11.5-6.6-18-7.2l-.1-1.1-.2-.2c-.3-.3-.6-.5-.7-1.1-.1-1.4.1-2.9.3-4.7v-.1c0-.3.1-.6.2-.9.1-.5.2-1 .3-1.6v-.8c0-1.6-1.2-2.8-2.7-2.8-.7 0-1.4.3-1.9.9-.5.5-.8 1.2-.8 2v.8c0 .6.1 1.1.3 1.6.1.3.1.5.2.9v.1c.2 1.7.4 3.3.3 4.7-.1.6-.4.9-.7 1.1l-.2.2-.1 1.1c-1.6.2-3.1.3-4.7.7-6.6 1.5-12.5 4.8-17.1 9.7l-.9-.6h-.2c-.2 0-.3.1-.5.1-.3 0-.5-.1-.8-.3-1.1-.8-2.2-1.9-3.5-3.2-.2-.2-.3-.4-.6-.6-.3-.4-.7-.8-1.1-1.2-.1-.1-.3-.2-.4-.3-.1-.1-.2-.1-.2-.2-.5-.4-1.2-.7-1.9-.7-.8 0-1.6.3-2 .9-.9 1.1-.6 2.8.6 3.9.1 0 .1.1.2.1.2.1.3.3.4.3.5.3.9.6 1.5.9.3.1.5.3.8.4 1.6.9 2.8 1.7 3.9 2.7.4.4.4.9.4 1.3v.2l.9.8c-.2.3-.3.4-.4.7-4.4 6.7-6.1 14.8-5 22.7l-1.1.4c0 .1-.1.1-.1.2-.2.3-.4.7-.9.9-1.3.4-2.8.6-4.7.8h-.1c-.3 0-.6 0-.9.1-.5 0-1 .1-1.6.2-.2 0-.3.1-.5.1-.1 0-.2 0-.3.1-1.6.3-2.5 1.8-2.2 3.2.3 1.2 1.4 2 2.8 2 .3 0 .4 0 .7-.1.1 0 .2 0 .2-.1.2 0 .3-.1.5-.1.6-.2 1-.3 1.6-.6.3-.1.5-.3.8-.3h.1c1.6-.6 3.1-1.1 4.5-1.3h.2c.5 0 .9.3 1.1.4.1 0 .1.1.2.1l1.2-.2c2.1 6.4 6 12.1 11.3 16.2 1.2.9 2.4 1.7 3.7 2.5l-.5 1.1c0 .1.1.1.1.2.2.3.3.8.2 1.4-.5 1.3-1.3 2.6-2.2 4.1v.1c-.2.3-.3.4-.5.7-.3.4-.6.9-.9 1.4-.1.1-.2.3-.3.4 0 .1-.1.2-.1.2-.7 1.5-.2 3.1 1.1 3.7.3.2.7.3 1 .3 1 0 2.1-.7 2.6-1.6 0-.1.1-.2.1-.2.1-.2.2-.3.3-.4.3-.6.3-1 .5-1.6.1-.3.2-.5.3-.8.6-1.7 1-3.1 1.8-4.3.3-.5.8-.6 1.1-.8.1 0 .1 0 .2-.1l.6-1.1c3.8 1.5 7.9 2.2 12.1 2.2 2.5 0 5.1-.3 7.5-.9 1.6-.3 3-.8 4.5-1.3l.5.9c.1 0 .1 0 .2.1.4.1.8.3 1.1.8.7 1.2 1.2 2.7 1.8 4.3v.1c.1.3.2.5.3.8.2.5.3 1 .5 1.6.1.2.2.3.3.4 0 .1.1.2.1.2.5 1 1.6 1.6 2.6 1.6.3 0 .7-.1 1-.3.6-.3 1.1-.9 1.3-1.6.2-.7.2-1.5-.2-2.2 0-.1-.1-.1-.1-.2-.1-.2-.2-.3-.3-.4-.3-.5-.6-.9-.9-1.4-.2-.3-.3-.4-.5-.7v-.1c-.9-1.5-1.8-2.8-2.2-4.1-.2-.6 0-.9.1-1.4 0-.1.1-.1.1-.2l-.4-1c4.6-2.7 8.5-6.5 11.4-11.1 1.6-2.4 2.8-5.1 3.6-7.8l1 .2c.1 0 .1-.1.2-.1.3-.2.6-.4 1.1-.4h.2c1.4.2 2.8.7 4.5 1.3h.1c.3.1.5.3.8.3.5.3.9.4 1.6.6.2 0 .3.1.5.1.1 0 .2 0 .3.1.3.1.4.1.7.1 1.3 0 2.4-.9 2.8-2-.6-.9-1.5-2.3-3.1-2.8zm-39.9-4.2l-3.8 1.8-3.8-1.8-.9-4.1 2.6-3.3h4.2l2.6 3.3-.9 4.1zm22.5-9c.7 2.9.9 5.9.6 8.7l-13.2-3.8c-1.2-.3-1.9-1.6-1.6-2.8.1-.3.3-.7.5-.9l10.4-9.4c1.5 2.4 2.6 5.2 3.3 8.2zm-7.4-13.3l-11.3 8c-.9.6-2.2.4-3-.5-.3-.3-.3-.6-.4-.9l-.8-14.1c5.9.6 11.3 3.3 15.5 7.5zm-25.1-7.1c.9-.2 1.8-.3 2.8-.5l-.8 13.8c-.1 1.2-1 2.2-2.3 2.2-.3 0-.8-.1-1-.3l-11.5-8.2c3.5-3.5 7.9-5.9 12.8-7zm-17 12.2l10.3 9.2c.9.8 1 2.2.3 3.2-.3.3-.6.6-1 .7l-13.4 3.9c-.6-5.9.7-11.9 3.8-17zm-2.3 23.4l13.7-2.3c1.1-.1 2.2.7 2.4 1.8.1.5.1.9-.1 1.4l-5.3 12.7c-4.7-3.1-8.6-7.9-10.7-13.6zm31.5 17.2c-2 .4-4 .7-6 .7-3 0-6-.5-8.7-1.4l6.8-12.3c.7-.8 1.8-1.1 2.8-.6.4.3.8.6 1 .9l6.6 12c-.8.3-1.6.4-2.5.7zm16.9-12c-2.2 3.5-5 6.2-8.3 8.4l-5.4-13c-.3-1 .2-2.2 1.2-2.7.3-.2.8-.3 1.2-.3l13.8 2.3c-.6 1.9-1.4 3.7-2.5 5.3z"/><defs><path id="SVGID_1_" d="M309.7 283.4l-6.3 6.3c-.4.4-.4.9 0 1.3l44.7 44.7c.4.4.9.4 1.3 0l44.7-44.7c.4-.4.4-.9 0-1.3l-6.3-6.3-36.4 36.4c-1.4 1.4-3.7 1.4-5.2 0l-36.5-36.4z"/></defs><use xlink:href="#SVGID_1_" overflow="visible" fill-rule="evenodd" clip-rule="evenodd" fill="#c3d2dc"/><clipPath id="SVGID_2_"><use xlink:href="#SVGID_1_" overflow="visible"/></clipPath><g class="st5"><defs><path id="SVGID_3_" d="M166.3 165.2h364.8v273.6H166.3z"/></defs><use xlink:href="#SVGID_3_" overflow="visible" fill="#c3d2dc"/><clipPath id="SVGID_4_"><use xlink:href="#SVGID_3_" overflow="visible"/></clipPath></g><defs><path id="SVGID_5_" d="M45.4 310.9l-7.2 7.2c-.4.4-.4 1.1 0 1.5l51.1 51.1c.4.4 1.1.4 1.5 0l51.1-51.1c.4-.4.4-1.1 0-1.5l-7.2-7.2-41.6 41.6c-1.6 1.6-4.3 1.6-5.9 0l-41.8-41.6z"/></defs><use xlink:href="#SVGID_5_" overflow="visible" fill-rule="evenodd" clip-rule="evenodd" fill="#c3d2dc"/><clipPath id="SVGID_6_"><use xlink:href="#SVGID_5_" overflow="visible"/></clipPath><g class="st7"><defs><path id="SVGID_7_" d="M-118.4 175.9h416.8v312.6h-416.8z"/></defs><use xlink:href="#SVGID_7_" overflow="visible" fill="#c3d2dc"/><clipPath id="SVGID_8_"><use xlink:href="#SVGID_7_" overflow="visible"/></clipPath></g></svg>