<?xml version="1.0" encoding="utf-8"?>
<!-- Generator: Adobe Illustrator 19.2.1, SVG Export Plug-In . SVG Version: 6.00 Build 0)  -->
<svg version="1.1" id="Layer_1" xmlns="http://www.w3.org/2000/svg" xmlns:xlink="http://www.w3.org/1999/xlink" x="0px" y="0px"
	 viewBox="0 0 400 80" style="enable-background:new 0 0 400 80;" xml:space="preserve">
<style type="text/css">
	.st0{fill:#FF405E;}
	.st1{fill:#CDDAE2;}
	.st2{fill:#183B4D;}
	.st3{fill:#A5AFB7;}
	.st4{fill:#F2F6FA;}
	.st5{fill:#7BA1B8;}
	.st6{fill:#45778F;}
	.st7{fill:#2D5E72;}
	.st8{fill:#FFFFFF;}
	.st9{clip-path:url(#SVGID_2_);fill:none;stroke:#F0F5FA;}
	.st10{fill:none;stroke:#F0F5FA;}
	.st11{fill:#173B4D;}
	.st12{clip-path:url(#SVGID_4_);fill:#173B4D;}
	.st13{fill:#F0F5FA;}
	.st14{clip-path:url(#SVGID_6_);fill:#F0F5FA;}
	.st15{clip-path:url(#SVGID_8_);fill:#173B4D;}
	.st16{clip-path:url(#SVGID_8_);fill:#FF405E;}
	.st17{clip-path:url(#SVGID_8_);fill:none;stroke:#F0F5FA;}
	.st18{fill:#96A1AB;}
	.st19{clip-path:url(#SVGID_10_);fill:none;stroke:#F0F5FA;}
	.st20{clip-path:url(#SVGID_12_);fill:#F0F5FA;}
	.st21{fill:#19364D;}
	.st22{fill:#174D60;}
	.st23{fill:#BACAD4;}
	.st24{opacity:0.5;fill:#BACAD4;}
</style>
<g>
	<path class="st22" d="M12.7,69.4c-1.2,0-2.4-0.3-3.4-0.9c-2.4-1.4-3.7-4.1-3.7-7.8V19.2c0-3.6,1.3-6.4,3.7-7.8
		c2.4-1.4,5.4-1.2,8.6,0.7l20.3,11.7l20.3-11.7c3.1-1.8,6.2-2,8.6-0.7c2.4,1.4,3.7,4.1,3.7,7.8v41.6c0,3.6-1.3,6.4-3.7,7.8
		c-2.4,1.4-5.4,1.2-8.6-0.7L38.1,56.2L17.9,67.9C16.1,68.9,14.3,69.4,12.7,69.4z M12.7,14.3c-0.6,0-1.1,0.1-1.6,0.4
		c-1.2,0.7-1.9,2.4-1.9,4.6v41.6c0,2.2,0.7,3.9,1.9,4.6c1.2,0.7,3,0.5,4.9-0.7l18.4-10.6l-12-7c-2.9-1.7-4.7-4.1-4.8-6.6v-7.4
		c0-1.6,0.7-3,1.9-3.6c1.2-0.7,2.7-0.6,4.1,0.2l31.1,17.5c0.2,0.1,0.3,0.2,0.4,0.2c0-0.1,0-0.2,0-0.4l0-7.3c-0.1-1.2-1.2-2.5-3-3.6
		L16,15.3C14.8,14.6,13.7,14.3,12.7,14.3z M21.3,32.7c0,0.1,0,0.2,0,0.4l0,7.3c0.1,1.2,1.2,2.5,3,3.6l36,20.8
		c1.9,1.1,3.7,1.3,4.9,0.7c1.2-0.7,1.9-2.4,1.9-4.6V19.2c0-2.2-0.7-3.9-1.9-4.6c-1.2-0.7-3-0.5-4.9,0.7L41.8,25.9l12,7
		c2.9,1.7,4.7,4.1,4.8,6.6l0,7.4c0,1.6-0.7,3-1.9,3.6c-1.2,0.7-2.7,0.6-4.1-0.2L21.7,32.8C21.5,32.7,21.4,32.7,21.3,32.7z"/>
</g>
<g>
	<path class="st23" d="M105.5,34.1h4.1v3.6h0.1c0.1-0.3,0.3-0.7,0.8-1.2c0.4-0.5,0.9-0.9,1.6-1.4c0.6-0.4,1.4-0.8,2.2-1.1
		c0.9-0.3,1.8-0.5,2.8-0.5c1.7,0,3.2,0.4,4.3,1.1c1.2,0.7,2.1,1.8,2.9,3.2c0.7-1.4,1.8-2.5,3.2-3.2c1.4-0.7,2.7-1.1,4.1-1.1
		c1.8,0,3.2,0.3,4.4,0.9c1.1,0.6,2,1.4,2.7,2.3c0.6,1,1.1,2,1.3,3.3c0.2,1.2,0.4,2.5,0.4,3.8v13.4h-4.4V44.3c0-0.9-0.1-1.7-0.2-2.5
		c-0.1-0.8-0.3-1.5-0.7-2.1c-0.4-0.6-0.9-1.1-1.5-1.5c-0.6-0.4-1.5-0.6-2.6-0.6c-2.1,0-3.6,0.6-4.5,1.9c-0.9,1.3-1.4,3-1.4,5v12.6
		h-4.4v-12c0-1.1-0.1-2.1-0.2-3c-0.1-0.9-0.3-1.7-0.7-2.4c-0.3-0.7-0.8-1.2-1.5-1.6c-0.6-0.4-1.5-0.6-2.5-0.6
		c-0.8,0-1.5,0.2-2.3,0.5c-0.7,0.3-1.4,0.8-1.9,1.4c-0.6,0.6-1,1.4-1.3,2.4c-0.3,1-0.5,2.1-0.5,3.4v11.9h-4.4V34.1z"/>
	<path class="st23" d="M205.6,57c0,1.7-0.3,3.3-0.9,4.8c-0.6,1.4-1.4,2.7-2.5,3.7c-1.1,1.1-2.4,1.9-4,2.5c-1.6,0.6-3.3,0.9-5.1,0.9
		c-2.2,0-4.2-0.3-6-0.9c-1.8-0.6-3.6-1.7-5.2-3.2l3-3.7c1.1,1.2,2.4,2.2,3.7,2.8c1.3,0.6,2.8,0.9,4.5,0.9c1.6,0,3-0.2,4-0.7
		c1.1-0.5,1.9-1.1,2.6-1.8c0.6-0.7,1.1-1.6,1.3-2.5c0.3-1,0.4-1.9,0.4-2.9v-3.4H201c-0.8,1.4-2,2.4-3.4,3.1c-1.4,0.7-3,1-4.5,1
		c-1.7,0-3.2-0.3-4.7-0.9c-1.4-0.6-2.7-1.4-3.7-2.5c-1-1.1-1.8-2.3-2.4-3.7c-0.6-1.4-0.9-3-0.9-4.7c0-1.7,0.3-3.3,0.8-4.7
		c0.5-1.5,1.3-2.8,2.4-3.9c1-1.1,2.3-2,3.7-2.6c1.4-0.6,3.1-0.9,4.8-0.9c1.6,0,3.1,0.3,4.5,1c1.5,0.7,2.6,1.6,3.5,2.9h0.1v-3.3h4.4
		V57z M193.6,37.6c-1.2,0-2.2,0.2-3.2,0.6c-0.9,0.4-1.7,1-2.4,1.7c-0.6,0.7-1.2,1.5-1.5,2.5c-0.4,1-0.5,2.1-0.5,3.2
		c0,2.3,0.7,4.2,2,5.6c1.4,1.4,3.2,2.1,5.5,2.1c2.3,0,4.2-0.7,5.5-2.1c1.4-1.4,2-3.3,2-5.6c0-1.2-0.2-2.2-0.5-3.2
		c-0.4-1-0.9-1.8-1.5-2.5c-0.6-0.7-1.4-1.2-2.4-1.7C195.8,37.8,194.8,37.6,193.6,37.6z"/>
	<path class="st23" d="M215.4,34.1h4.4v3.5h0.1c0.6-1.2,1.5-2.2,2.9-3s2.9-1.1,4.7-1.1c1.1,0,2.2,0.2,3.2,0.5c1,0.3,1.9,0.9,2.7,1.6
		c0.8,0.7,1.4,1.6,1.8,2.7c0.5,1.1,0.7,2.4,0.7,4v14.8h-4.4V43.6c0-1.1-0.1-2-0.4-2.7c-0.3-0.8-0.7-1.4-1.2-1.8
		c-0.5-0.5-1-0.8-1.7-1c-0.6-0.2-1.3-0.3-2-0.3c-0.9,0-1.7,0.1-2.5,0.4c-0.8,0.3-1.5,0.8-2,1.4c-0.6,0.6-1,1.4-1.4,2.4
		c-0.3,1-0.5,2.1-0.5,3.4v11.9h-4.4V34.1z"/>
	<path class="st23" d="M248.9,47.3c0,1,0.2,1.9,0.7,2.7s1,1.5,1.7,2.1c0.7,0.6,1.5,1,2.5,1.4c0.9,0.3,1.9,0.5,2.9,0.5
		c1.4,0,2.5-0.3,3.5-0.9c1-0.6,1.9-1.5,2.8-2.5l3.3,2.5c-2.4,3.1-5.8,4.7-10.2,4.7c-1.8,0-3.5-0.3-4.9-0.9c-1.5-0.6-2.7-1.5-3.7-2.5
		c-1-1.1-1.8-2.4-2.4-3.8c-0.6-1.5-0.8-3.1-0.8-4.8c0-1.7,0.3-3.3,0.9-4.8c0.6-1.5,1.4-2.8,2.5-3.8c1.1-1.1,2.3-1.9,3.8-2.5
		c1.5-0.6,3-0.9,4.8-0.9c2,0,3.8,0.4,5.2,1.1c1.4,0.7,2.6,1.6,3.5,2.8c0.9,1.1,1.6,2.4,2,3.9c0.4,1.4,0.6,2.9,0.6,4.4v1.6H248.9z
		 M262.7,43.8c0-1-0.2-1.9-0.5-2.7c-0.3-0.8-0.7-1.5-1.2-2.1c-0.6-0.6-1.2-1.1-2.1-1.4s-1.8-0.5-2.9-0.5c-1.1,0-2,0.2-2.9,0.6
		c-0.9,0.4-1.6,0.9-2.3,1.6c-0.6,0.6-1.1,1.4-1.4,2.2c-0.3,0.8-0.5,1.6-0.5,2.4H262.7z"/>
	<path class="st23" d="M288.2,37.9h-6.3v10.4c0,0.6,0,1.3,0,1.9c0,0.6,0.2,1.2,0.4,1.7c0.2,0.5,0.5,0.9,1,1.2
		c0.4,0.3,1.1,0.5,1.9,0.5c0.5,0,1.1,0,1.6-0.1c0.6-0.1,1.1-0.3,1.5-0.5v4c-0.5,0.3-1.2,0.5-2,0.6c-0.8,0.1-1.5,0.2-1.9,0.2
		c-1.7,0-3-0.2-3.9-0.7c-0.9-0.5-1.6-1.1-2-1.8c-0.4-0.7-0.7-1.6-0.8-2.5c-0.1-0.9-0.1-1.9-0.1-2.8v-12h-5.1v-3.8h5.1v-6.5h4.4v6.5
		h6.3V37.9z"/>
	<path class="st23" d="M297.3,25.9c0-0.9,0.3-1.6,0.9-2.3c0.6-0.6,1.4-0.9,2.3-0.9c0.9,0,1.6,0.3,2.3,0.9c0.6,0.6,0.9,1.4,0.9,2.3
		s-0.3,1.6-0.9,2.3c-0.6,0.6-1.4,0.9-2.3,0.9c-0.9,0-1.6-0.3-2.3-0.9C297.6,27.5,297.3,26.8,297.3,25.9z M298.3,34.1h4.4v23h-4.4
		V34.1z"/>
	<path class="st23" d="M329.3,40.3c-0.8-0.8-1.7-1.5-2.6-1.9c-0.9-0.4-2-0.7-3.2-0.7c-1.2,0-2.2,0.2-3.1,0.7c-0.9,0.4-1.6,1-2.2,1.8
		c-0.6,0.8-1.1,1.6-1.4,2.6c-0.3,1-0.5,2-0.5,3.1c0,1.1,0.2,2.1,0.5,3c0.4,1,0.9,1.8,1.5,2.5c0.6,0.7,1.4,1.3,2.3,1.7
		c0.9,0.4,1.9,0.6,3.1,0.6c1.2,0,2.3-0.2,3.2-0.7c0.9-0.4,1.7-1.1,2.4-1.9l3.1,3.1c-1.1,1.3-2.5,2.2-4,2.7c-1.5,0.6-3.1,0.8-4.8,0.8
		c-1.8,0-3.4-0.3-4.9-0.9c-1.5-0.6-2.7-1.4-3.8-2.5c-1.1-1.1-1.9-2.3-2.5-3.8c-0.6-1.5-0.9-3.1-0.9-4.9c0-1.8,0.3-3.4,0.9-4.9
		c0.6-1.5,1.4-2.8,2.5-3.8c1.1-1.1,2.3-1.9,3.8-2.5c1.5-0.6,3.1-0.9,4.9-0.9c1.7,0,3.3,0.3,4.8,0.9c1.5,0.6,2.9,1.5,4,2.7
		L329.3,40.3z"/>
	<path class="st24" d="M342.9,57.5c-0.9,0-1.6-0.3-2.3-0.9c-0.6-0.6-0.9-1.4-0.9-2.3c0-0.9,0.3-1.6,0.9-2.3c0.6-0.6,1.4-0.9,2.3-0.9
		c0.9,0,1.6,0.3,2.3,0.9c0.6,0.6,0.9,1.4,0.9,2.3c0,0.9-0.3,1.6-0.9,2.3C344.6,57.1,343.8,57.5,342.9,57.5z"/>
	<path class="st24" d="M355.5,25.9c0-0.9,0.3-1.6,0.9-2.3c0.6-0.6,1.4-0.9,2.3-0.9c0.9,0,1.6,0.3,2.3,0.9c0.6,0.6,0.9,1.4,0.9,2.3
		s-0.3,1.6-0.9,2.3c-0.6,0.6-1.4,0.9-2.3,0.9c-0.9,0-1.6-0.3-2.3-0.9C355.8,27.5,355.5,26.8,355.5,25.9z M356.5,34.1h4.4v23h-4.4
		V34.1z"/>
	<path class="st24" d="M370,45.7c0-1.7,0.3-3.3,0.9-4.7c0.6-1.5,1.5-2.7,2.6-3.8c1.1-1.1,2.4-2,3.9-2.6c1.5-0.6,3.1-0.9,4.8-0.9
		c1.7,0,3.3,0.3,4.8,0.9c1.5,0.6,2.8,1.5,3.9,2.6c1.1,1.1,2,2.4,2.6,3.8c0.6,1.5,0.9,3,0.9,4.7c0,1.7-0.3,3.3-0.9,4.7
		c-0.6,1.5-1.5,2.8-2.6,3.8c-1.1,1.1-2.4,1.9-3.9,2.6c-1.5,0.6-3.1,0.9-4.8,0.9c-1.7,0-3.3-0.3-4.8-0.9c-1.5-0.6-2.8-1.5-3.9-2.6
		c-1.1-1.1-2-2.4-2.6-3.8C370.3,48.9,370,47.3,370,45.7z M374.6,45.7c0,1.2,0.2,2.2,0.5,3.2c0.4,1,0.9,1.8,1.5,2.5
		c0.6,0.7,1.4,1.2,2.4,1.7c0.9,0.4,2,0.6,3.2,0.6c1.2,0,2.2-0.2,3.2-0.6c0.9-0.4,1.7-1,2.4-1.7c0.6-0.7,1.1-1.5,1.5-2.5
		c0.4-1,0.5-2.1,0.5-3.2c0-1.2-0.2-2.2-0.5-3.2c-0.4-1-0.9-1.8-1.5-2.5c-0.6-0.7-1.4-1.2-2.4-1.7c-0.9-0.4-2-0.6-3.2-0.6
		c-1.2,0-2.2,0.2-3.2,0.6c-0.9,0.4-1.7,1-2.4,1.7c-0.6,0.7-1.2,1.5-1.5,2.5C374.8,43.4,374.6,44.5,374.6,45.7z"/>
	<path class="st23" d="M159.4,58.1c3.4,0,6.8-1.5,8.8-4v3.3h4V33.7h-4v3.6c-2-2.4-5.4-4-8.8-4c-6.5,0-11.8,5.5-11.8,12.4
		C147.6,52.5,152.9,58.1,159.4,58.1z M160,37.4c4.3-0.1,7.8,3.7,7.8,8.3c0,4.6-3.5,8.3-7.8,8.3c-4.9,0-7.8-3.7-7.8-8.3
		C152.2,41.1,155.3,37.5,160,37.4z"/>
</g>
</svg>
