<svg xmlns="http://www.w3.org/2000/svg" viewBox="0 0 250 200"><style>.st0{fill:url(#SVGID_1_)}.st1{clip-path:url(#SVGID_3_)}.st2{fill:#fff}.st3{fill:#f0f5fa}.st4{fill:#c3d2dc}.st5{fill:#ff405e}.st6,.st7{fill:#c3d0db}.st7{stroke:#234b5f;stroke-miterlimit:10}.st8{fill:#142d3c}.st9{fill:#f2f5f7;stroke:#c3d2dc;stroke-miterlimit:10}.st10{fill:#1a3442}.st11{fill:url(#SVGID_4_)}.st12{fill:#f2f5f7}.st13{fill:none;stroke:#f2f5f7;stroke-miterlimit:10}.st14{fill:#f2f2f2}.st15{fill:#264c5f}.st16{fill:#14283c}.st17{stroke:#c3d0db;stroke-width:2}.st17,.st18,.st19{fill:none;stroke-miterlimit:10}.st18{stroke-linecap:round;stroke:#c3d0db;stroke-width:2}.st19{stroke:#ff405e;stroke-width:1.5;stroke-linejoin:round}.st20{fill:#6996aa}.st21{fill:#333}.st22,.st23{fill:#fff;stroke:#f2f2f2;stroke-miterlimit:10}.st23{fill:none;stroke:#ff405e}.st24{fill:#4d4d4d}.st25,.st26{fill:none;stroke:#666;stroke-width:2;stroke-miterlimit:10}.st26{stroke-linecap:round}.st27{fill:#ccc}.st28{fill:#999}.st29{fill:#e6e6e6}.st30{fill:gray}.st31{fill:#b3b3b3}.st32{stroke:#fff}.st32,.st33,.st34{fill:none;stroke-miterlimit:10}.st33{stroke-width:4;stroke:#999}.st34{stroke:#234b5f}.st35{fill:#234b5f}.st36{fill:#6a94a8}.st37{clip-path:url(#SVGID_6_)}.st38{clip-path:url(#SVGID_8_)}.st39{clip-path:url(#SVGID_10_)}.st40{clip-path:url(#SVGID_12_)}.st41{clip-path:url(#SVGID_14_)}.st42{fill-rule:evenodd;clip-rule:evenodd;fill:#c3d0db}.st43{opacity:.5;fill:#c3d0db}.st44{fill:#6991aa}.st45{opacity:.25}.st46{fill:#f9b32e}.st47{opacity:.2}.st48{fill:#96a0aa}.st49{fill:#698caa}.st50{fill:#375f7d}.st51{fill:#23465f}.st52{fill:#37647d}.st53{opacity:.5}.st54{fill:#36697f}.st55,.st56,.st57{fill:none;stroke-linejoin:round}.st55{stroke-miterlimit:10;stroke:#d2d7dc}.st56,.st57{stroke:#ff405e}.st57{stroke-dasharray:6.0738,6.0738}.st58{stroke-dasharray:6.0629,6.0629;stroke-linejoin:round}.st58,.st59,.st60{fill:none;stroke:#ff405e}.st59,.st60,.st61{stroke-linejoin:round}.st59{stroke-dasharray:6.1023,6.1023}.st60,.st61{stroke-miterlimit:10}.st61{fill:#fff;stroke:#193340}.st62{fill:#d2d7dc}.st63,.st64{fill:none;stroke:#193340;stroke-miterlimit:10}.st63{stroke-linejoin:round}.st64{stroke-dasharray:6}.st64,.st65,.st66,.st67{stroke-linejoin:round}.st65{fill:none;stroke:#14283c}.st66,.st67{stroke:#fff}.st66{stroke-width:2;stroke-linecap:round;stroke-miterlimit:10;fill:none}.st67{fill:#fff}.st67,.st68,.st69{stroke-miterlimit:10}.st68{stroke-width:2;fill:#ff405e;stroke:#fff}.st69{fill:#14283c;stroke:#d2d7dc;stroke-linejoin:round}.st70{stroke:#ff405e;stroke-miterlimit:10}.st70,.st71{fill:#fff}.st71,.st72{stroke-miterlimit:10}.st71{stroke:#d2d7dc}.st72{fill:none;stroke:#14283c}.st73{clip-path:url(#SVGID_16_)}.st74{clip-path:url(#SVGID_18_)}.st75,.st76{stroke:#ff405e;stroke-linejoin:round}.st75{stroke-miterlimit:10;fill:#14283c}.st76{fill:#f2f5f7}.st76,.st77,.st78{stroke-miterlimit:10}.st77{stroke-width:2;stroke-linejoin:round;fill:#ff405e;stroke:#14283c}.st78{fill:#fff;stroke:#ff405e}.st78,.st79,.st80{stroke-linejoin:round}.st79{stroke:#fff;stroke-width:2;stroke-miterlimit:10;fill:#36697f}.st80{fill:#264c5f}.st80,.st81,.st82{stroke:#fff;stroke-width:2;stroke-miterlimit:10}.st81{stroke-linejoin:round;fill:#ff405e}.st82{fill:none;stroke-linecap:round}.st83{opacity:.2;fill:#ff405e}.st84{clip-path:url(#SVGID_20_)}.st85{clip-path:url(#SVGID_22_);fill:#c3d0db}.st86{fill-rule:evenodd;clip-rule:evenodd;fill:#fff}.st87{display:none}.st88{display:inline;fill:#c3d0db}.st89{stroke:#f2f5f7;stroke-miterlimit:10}.st89,.st90,.st91{fill:none;stroke-linejoin:round}.st90{stroke-miterlimit:10;stroke:#99b1c1}.st91{stroke:#c3d0db}.st91,.st92,.st93,.st94{stroke-miterlimit:10}.st92{stroke:#14283c;stroke-linejoin:round;fill:#fff}.st93,.st94{fill:none}.st93{stroke-linejoin:round;stroke:#14283c}.st94{stroke:#fff;stroke-linecap:round}.st95,.st96{fill-rule:evenodd;clip-rule:evenodd;fill:#234b5f}.st96{fill:#f2f5f7}.st97{display:inline;fill:#234b5f}.st98{fill:none;stroke:#ff405e;stroke-linecap:round;stroke-linejoin:round;stroke-miterlimit:10}.st100,.st99{stroke-width:2}.st99{stroke-linecap:round;stroke-miterlimit:10;fill:#fff;stroke:#234b5f}.st100{fill:#234b5f;stroke:#c3d0db}.st100,.st101,.st102,.st103{stroke-linecap:round;stroke-miterlimit:10}.st101{stroke-width:2;fill:#234b5f;stroke:#ff405e}.st102{fill:#6996aa;stroke:#c3d0db}.st103{fill:#f2f5f7;stroke:#234b5f}.st104{fill:#37697d}.st105{fill:#fff;stroke:#1a3442;stroke-linejoin:round}.st105,.st106,.st107{stroke-miterlimit:10}.st106{fill:none;stroke:#1a3442;stroke-linejoin:round}.st107{stroke-dasharray:6}.st107,.st108{fill:none;stroke:#1a3442;stroke-linejoin:round}.st109,.st110{stroke-miterlimit:10}.st109{stroke-linejoin:round;fill:#1a3442;stroke:#d2d7dc}.st110{fill:none;stroke:#1a3442}.st111{clip-path:url(#SVGID_24_)}.st112{clip-path:url(#SVGID_26_)}.st113,.st114,.st115,.st116{fill:#1a3442;stroke:#ff405e;stroke-linejoin:round;stroke-miterlimit:10}.st114,.st115,.st116{fill:#ff405e;stroke:#1a3442;stroke-width:2}.st115,.st116{fill:#37697d;stroke:#fff}.st116{fill:#234b5f}.st117{clip-path:url(#SVGID_28_)}.st118{clip-path:url(#SVGID_30_);fill:#c3d0db}.st119,.st120{fill:none;stroke:#6996aa;stroke-linejoin:round;stroke-miterlimit:10}.st120{stroke:#234b5f;stroke-linecap:round}.st121,.st122{fill:#fff}.st121,.st122,.st123{stroke-miterlimit:10}.st121{stroke-linecap:round;stroke-linejoin:round;stroke:#ff405e}.st122,.st123{stroke:#234b5f}.st123{fill:#c3d0db}.st123,.st124,.st125{stroke-linecap:round}.st124{stroke-miterlimit:10;fill:#234b5f;stroke:#fff}.st125{fill:#fff;stroke:#ff405e}.st125,.st126,.st127{stroke-miterlimit:10}.st126{fill:#fff;stroke:#6996aa;stroke-linecap:round}.st127{stroke-linejoin:round}.st127,.st128{fill:none;stroke:#234b5f}.st128,.st129,.st130{stroke-linecap:round;stroke-miterlimit:10}.st129{stroke:#ff405e;fill:none}.st130{fill:#234b5f}.st130,.st131,.st132,.st133{stroke:#234b5f;stroke-linejoin:round}.st131{stroke-miterlimit:10;fill:#fff}.st132,.st133{fill:none}.st133{stroke-dasharray:2.8412,2.8412}.st134,.st135{stroke-width:2;stroke-miterlimit:10}.st134{fill:none;stroke:#ff405e}.st135{stroke:#1a3442;stroke-linecap:round}.st135,.st136,.st137{fill:none}.st136,.st137,.st138{stroke-miterlimit:10}.st136{stroke-width:2;stroke-linecap:round;stroke:#ff405e}.st137,.st138{stroke:#264c5f}.st138{fill:#fff;stroke-width:2;stroke-linecap:round}.st139{fill:#264c5f;stroke:#c3d0db;stroke-width:2}.st139,.st140,.st141,.st142{stroke-linecap:round;stroke-miterlimit:10}.st140{stroke-width:2;fill:#264c5f;stroke:#ff405e}.st141{fill:#99b1c1;stroke:#c3d0db}.st142,.st143{fill:#f2f5f7;stroke:#264c5f}.st143{fill:#fff;stroke-linejoin:round}.st143,.st144{stroke-miterlimit:10}.st144,.st145,.st146{fill:none;stroke:#264c5f;stroke-linejoin:round}.st146{stroke-dasharray:2.8412,2.8412}.st147{stroke:#14283c;stroke-width:2;stroke-miterlimit:10}.st147,.st148{fill:none;stroke-linecap:round}.st148,.st149,.st150,.st151{stroke:#264c5f;stroke-miterlimit:10}.st149{stroke-linecap:round;stroke-linejoin:round;fill:#264c5f}.st150{fill:#c3d0db}.st151{fill:none;stroke-linecap:round;stroke-linejoin:round}.st152{fill:#fff;stroke-miterlimit:10}.st152,.st153{stroke:#264c5f}.st153,.st154,.st155{stroke-miterlimit:10}.st153{fill:#c3d0db}.st153,.st154,.st155{stroke-linecap:round}.st154{fill:#264c5f;stroke:#fff}.st155{fill:#fff;stroke:#6a94a8}.st156{fill:#99b1c1}.st157{fill:url(#SVGID_31_)}.st158{fill:url(#SVGID_32_)}.st159{clip-path:url(#SVGID_34_)}.st160{clip-path:url(#SVGID_36_)}.st161{clip-path:url(#SVGID_38_)}.st162{clip-path:url(#SVGID_40_);fill:#c3d0db}.st163{fill:#ced9e2}.st164{fill:none;stroke:#c3d0db;stroke-miterlimit:10}.st165{clip-path:url(#SVGID_46_)}.st166{fill:url(#SVGID_47_)}.st167{fill:url(#SVGID_48_)}.st168{clip-path:url(#SVGID_50_)}.st169{clip-path:url(#SVGID_52_)}.st170{clip-path:url(#SVGID_54_)}.st171{clip-path:url(#SVGID_56_);fill:#c3d0db}.st172,.st173{opacity:.5;fill:#fff}.st173{fill:#6991aa}.st174{stroke:#eef1f4;stroke-linejoin:round;stroke-miterlimit:10}.st174,.st175,.st176{fill:none}.st175,.st176,.st177,.st178,.st179{stroke-linejoin:round;stroke-miterlimit:10}.st175{stroke:#87a0b3}.st176{stroke:#b6c4d2}.st177{stroke:#fb254c}.st177,.st178,.st179{fill:#fff}.st178{stroke:#142d3c}.st179{stroke:#111e2e}.st180{opacity:.5;fill:#fb415e}.st181,.st182,.st183{fill:none;stroke-linejoin:round}.st181{stroke-miterlimit:10;stroke:#fb415e}.st182,.st183{stroke:#fb254c}.st183{stroke-dasharray:5.6571,5.6571}.st184,.st185{fill:none;stroke:#142d3c;stroke-miterlimit:10}.st185{stroke-dasharray:5.6571,5.6571}.st186{fill:#eef1f4}.st187{fill:none;stroke:#111e2e;stroke-linejoin:round;stroke-miterlimit:10}.st188{fill:#fb415e}.st189{fill:#698fa8}.st190{fill:none;stroke:#142d3c;stroke-linejoin:round;stroke-miterlimit:10}.st191{fill:#939ea7}.st192{fill:#193340}.st193{clip-path:url(#SVGID_60_)}.st194{clip-path:url(#SVGID_62_)}.st195{clip-path:url(#SVGID_64_)}.st196{clip-path:url(#SVGID_66_)}.st197{display:inline}</style><g id="Layer_1"><g class="st53"><path class="st5" d="M79.7 9.3h-3.8V7.9h3.8v1.4zm5.7 0h-3.8V7.9h3.8v1.4zm5.7 0h-3.8V7.9h3.8v1.4z"/><path class="st16" d="M98.6 14.9H76.3c-.6 0-1-.4-1-1s.4-1 1-1h22.2c.6 0 1 .4 1 1 .1.5-.4 1-.9 1z"/><path class="st5" d="M156.1 14.9h-51.5c-.6 0-1-.4-1-1s.4-1 1-1h51.5c.6 0 1 .4 1 1 0 .5-.4 1-1 1z"/><path class="st16" d="M112.9 18.9H76.3c-.6 0-1-.4-1-1s.4-1 1-1h36.5c.6 0 1 .4 1 1 .1.5-.4 1-.9 1zm0 9.9H81.3c-.6 0-1-.4-1-1s.4-1 1-1h31.5c.6 0 1 .4 1 1 .1.6-.4 1-.9 1zm-9 4.1H81.3c-.6 0-1-.4-1-1s.4-1 1-1h22.6c.6 0 1 .4 1 1 0 .5-.5 1-1 1zm9-8.1H76.3c-.6 0-1-.4-1-1s.4-1 1-1h36.5c.6 0 1 .4 1 1 .1.6-.4 1-.9 1z"/><path class="st5" d="M173.7 18.9h-54.4c-.6 0-1-.4-1-1s.4-1 1-1h54.4c.6 0 1 .4 1 1 0 .5-.5 1-1 1zm-19.1 9.9h-35.3c-.6 0-1-.4-1-1s.4-1 1-1h35.3c.6 0 1 .4 1 1s-.5 1-1 1zm-10.3 4.1H109c-.6 0-1-.4-1-1s.4-1 1-1h35.3c.6 0 1 .4 1 1 0 .5-.4 1-1 1z"/><path class="st16" d="M98.6 36.8H76.4c-.6 0-1-.4-1-1s.4-1 1-1h22.2c.6 0 1 .4 1 1s-.5 1-1 1z"/><path class="st54" d="M156.1 36.8h-51.5c-.6 0-1-.4-1-1s.4-1 1-1h51.5c.6 0 1 .4 1 1s-.4 1-1 1z"/><path class="st16" d="M112.9 40.8H76.3c-.6 0-1-.4-1-1s.4-1 1-1h36.5c.6 0 1 .4 1 1 .1.6-.4 1-.9 1zm0 10H81.3c-.6 0-1-.4-1-1s.4-1 1-1h31.5c.6 0 1 .4 1 1 .1.5-.4 1-.9 1zm-9 4H81.3c-.6 0-1-.4-1-1s.4-1 1-1h22.6c.6 0 1 .4 1 1s-.5 1-1 1zm9-8H76.3c-.6 0-1-.4-1-1s.4-1 1-1h36.5c.6 0 1 .4 1 1 .1.6-.4 1-.9 1z"/><path class="st54" d="M173.7 40.8h-54.4c-.6 0-1-.4-1-1s.4-1 1-1h54.4c.6 0 1 .4 1 1s-.5 1-1 1z"/><path class="st5" d="M154.6 50.8h-35.3c-.6 0-1-.4-1-1s.4-1 1-1h35.3c.6 0 1 .4 1 1 0 .5-.5 1-1 1z"/><path class="st46" d="M144.3 54.8H109c-.6 0-1-.4-1-1s.4-1 1-1h35.3c.6 0 1 .4 1 1s-.4 1-1 1z"/></g><path class="st62" d="M125 124h1v68h-1z"/><path class="st62" d="M246.6 153.5h-1v-.2L125 83.1 4.4 153.4v.2h-1v-.5c0-.2.1-.3.2-.4L124.7 82c.2-.1.3-.1.5 0l121.1 70.6c.2.1.2.3.2.4v.5z"/><path class="st5" d="M43.2 133.6l-2.6-1.5c-.2-.1-.2-.3-.2-.4v-.3c0-.2.1-.3.2-.4l2.6-1.5.5.9-2.1 1.2 2.1 1.2-.5.8zm5.8-6.4l-.5-.9 5.3-3 .5.9-5.3 3zm10.5-6.1l-.5-.9 5.3-3 .5.9-5.3 3zm10.6-6l-.5-.9 5.3-3 .5.9-5.3 3zm10.5-6.1l-.5-.9 5.3-3 .5.9-5.3 3zm10.5-6.1l-.5-.9 5.3-3 .5.9-5.3 3zm10.5-6.1l-.5-.9 5.3-3 .5.9-5.3 3zm10.5-6l-.5-.9 5.3-3 .5.9-5.3 3zm15.2-6.1l-2.3-1.4-2.3 1.4-.5-.9 2.6-1.5c.2-.1.3-.1.5 0l2.6 1.5-.6.9zm73.7 42.5l-5.3-3 .5-.9 5.3 3-.5.9zm-10.5-6.1l-5.3-3 .5-.9 5.3 3-.5.9zm-10.6-6l-5.3-3 .5-.9 5.3 3-.5.9zm-10.5-6.1l-5.3-3 .5-.9 5.3 3-.5.9zm-10.5-6.1l-5.3-3 .5-.9 5.3 3-.5.9zm-10.5-6.1l-5.3-3 .5-.9 5.3 3-.5.9zm-10.5-6l-5.3-3 .5-.9 5.3 3-.5.9zm68.9 42.8l-.5-.9 2.1-1.2-2.1-1.2.5-.9 2.6 1.5c.2.1.2.3.2.4v.3c0 .2-.1.3-.2.4l-2.6 1.6zm-73.4 42.7l-.5-.9 5.2-3.1.5.9-5.2 3.1zm10.5-6.1l-.5-.9 5.2-3.1.5.9-5.2 3.1zm10.5-6.1l-.5-.9 5.2-3.1.5.9-5.2 3.1zm10.5-6.1l-.5-.9 5.2-3.1.5.9-5.2 3.1zm10.4-6.1l-.5-.9 5.2-3.1.5.9-5.2 3.1zm10.5-6.1l-.5-.9 5.2-3.1.5.9-5.2 3.1zm10.5-6.1l-.5-.9 5.2-3.1.5.9-5.2 3.1zm-71 41.2c-.1 0-.2 0-.3-.1l-2.6-1.5.5-.9 2.3 1.4 2.3-1.4.5.9-2.6 1.5c.1.1 0 .1-.1.1zm-8.1-4.6l-5.3-3.1.5-.9 5.3 3.1-.5.9zm-10.6-6.1l-5.3-3.1.5-.9 5.3 3.1-.5.9zm-10.5-6.1l-5.3-3.1.5-.9 5.3 3.1-.5.9zM85.5 158l-5.3-3.1.5-.9 5.3 3.1-.5.9zm-10.6-6.1l-5.3-3.1.5-.9 5.3 3.1-.5.9zm-10.5-6.1l-5.3-3.1.5-.9 5.3 3.1-.5.9zm-10.6-6.1l-5.3-3.1.5-.9 5.3 3.1-.5.9z"/><path class="st5" d="M125 156.7c-.1 0-.2 0-.2-.1L61.4 120c-.2-.1-.2-.3-.2-.4v-.2c0-.2.1-.3.2-.4l63.4-36.6c.2-.1.3-.1.5 0l63.4 36.6c.2.1.2.3.2.4v.2c0 .2-.1.3-.2.4l-63.4 36.6c-.1.1-.2.1-.3.1zm-62.6-37.2l62.6 36.2 62.6-36.2L125 83.3l-62.6 36.2z"/><path class="st2" d="M75.7 61.8L125 33.4l49.3 28.4v56.9L125 147.2l-49.3-28.5z"/><path class="st192" d="M125 147.7c-.1 0-.2 0-.2-.1l-49.3-28.5c-.2-.1-.2-.3-.2-.4V61.8c0-.2.1-.3.2-.4l49.3-28.5c.2-.1.3-.1.5 0l49.3 28.5c.2.1.2.3.2.4v56.9c0 .2-.1.3-.2.4l-49.3 28.5c-.1.1-.2.1-.3.1zm-48.8-29.3l48.8 28.2 48.8-28.2V62.1L125 33.9 76.2 62.1v56.3z"/><path class="st62" d="M174.3 61.8L125 90.3v56.9l49.3-28.5z"/><path class="st2" d="M130 87.3l-5 2.9v5.7l5-2.9zm5 2.8l-5 2.9v5.8l5-2.9z"/><path class="st2" d="M135 84.4l-5 2.9V93l5-2.8zm5 2.9l-5 2.9v5.7l5-2.9zm5-8.7l-5 2.9v5.8l5-2.9z"/><path class="st2" d="M140 93l-5 2.9v5.8l5-2.9zm-10 5.8l-5 2.9v5.8l5-2.9zm15-2.9l-5 2.9v5.8l5-2.9z"/><path class="st192" d="M125 147.7c-.1 0-.2 0-.2-.1l-49.3-28.5c-.2-.1-.2-.3-.2-.4V61.8c0-.2.1-.3.2-.4l49.3-28.5c.2-.1.3-.1.5 0l49.3 28.5c.2.1.2.3.2.4v56.9c0 .2-.1.3-.2.4l-49.3 28.5c-.1.1-.2.1-.3.1zm-48.8-29.3l48.8 28.2 48.8-28.2V62.1L125 33.9 76.2 62.1v56.3z"/><path transform="rotate(-29.681 40.848 109.055)" class="st16" d="M21.7 108.6H60v1H21.7z"/><path class="st16" d="M56.6 102l.6-2.3-2.3-.6 1.3-.7 2.3.6-.7 2.3z"/><path transform="rotate(-60.31 209.853 109.06)" class="st16" d="M209.3 89.9h1v38.3h-1z"/><path class="st16" d="M195.8 99.1l-2.3.6.6 2.3-1.3-.7-.6-2.3 2.3-.6zM75.7 77.8c-8.8 0-16-7.2-16-16s7.2-16 16-16 16 7.2 16 16-7.2 16-16 16z"/><path class="st2" d="M75.7 46.8c8.3 0 15 6.7 15 15s-6.7 15-15 15-15-6.7-15-15 6.7-15 15-15m0-2c-9.4 0-17 7.6-17 17s7.6 17 17 17 17-7.6 17-17-7.6-17-17-17z"/><path class="st2" d="M84.7 64.6c-.6 0-1-.4-1-1 0-4.4-3.6-8-8-8s-8 3.6-8 8c0 .6-.4 1-1 1s-1-.4-1-1c0-5.5 4.5-10 10-10s10 4.5 10 10c0 .5-.5 1-1 1z"/><path class="st2" d="M74.1 62.8c-.4.9 0 1.9.9 2.3.9.4 1.9 0 2.3-.9l3-11-6.2 9.6z"/><path class="st2" d="M75.7 65.8c-.3 0-.6-.1-.9-.2-1.1-.5-1.7-1.9-1.1-3v-.1l6.2-9.5c.1-.2.4-.3.6-.2.2.1.3.3.3.6l-3 11c-.3.6-.7 1-1.3 1.3-.2.1-.5.1-.8.1zm-1.2-2.7c-.3.6 0 1.4.7 1.6.3.1.7.1 1 0 .3-.1.6-.4.7-.7l2.1-7.8-4.5 6.9z"/><path class="st5" d="M56.9 114.8h9.4v9.4h-9.4z"/><path class="st2" d="M67.3 125.2H55.9v-11.4h11.4v11.4zm-9.4-2h7.4v-7.4h-7.4v7.4z"/><path class="st5" d="M120.3 151.6h9.4v9.4h-9.4z"/><path class="st2" d="M130.7 161.9h-11.4v-11.4h11.4v11.4zm-9.4-2h7.4v-7.4h-7.4v7.4z"/><path class="st5" d="M183 114.8h9.4v9.4H183z"/><path class="st2" d="M193.4 125.2H182v-11.4h11.4v11.4zm-9.4-2h7.4v-7.4H184v7.4z"/></g></svg>