<svg id="Layer_1" xmlns="http://www.w3.org/2000/svg" xmlns:xlink="http://www.w3.org/1999/xlink" viewBox="0 0 250 200"><style>.st0{fill:#c3d0db}.st1{clip-path:url(#SVGID_2_)}.st2{clip-path:url(#SVGID_4_)}.st3{fill:#fff}.st4{display:none}.st5{display:inline}.st6{fill:#f2f5f7}.st7{fill:#99b1c1}.st8{fill:#ff405e}.st9{fill:#14283c}.st10{fill:none;stroke:#fff;stroke-width:2;stroke-linecap:round;stroke-linejoin:round;stroke-miterlimit:10}</style><g id="Layer_1_1_"><path class="st0" d="M190.9 54.5c-.1-.1-.2-.1-.3 0l-3.3 3.3c-.1.1-.1.2 0 .3l3.3 3.3c.1.1.2.1.3 0l3.3-3.3c.1-.1.1-.2 0-.3l-3.3-3.3z" id="Square_40_"/><g id="Fourth_Row_5_"><path class="st0" d="M198.5 53.6l-3.3-3.3c-.1-.1-.2-.1-.3 0l-3.3 3.3c-.1.1-.1.2 0 .3l3.3 3.3c.1.1.2.1.3 0l3.3-3.3c.1-.1.1-.2 0-.3z" id="Square_39_"/><path class="st0" d="M190 53.6l-3.3-3.3c-.1-.1-.2-.1-.3 0l-3.3 3.3c-.1.1-.1.2 0 .3l3.3 3.3c.1.1.2.1.3 0l3.3-3.3c.1-.1.1-.2 0-.3z" id="Square_38_"/></g><g id="Third_Row_5_"><path class="st0" d="M202.7 49.7l-3.3 3.3c-.1.1-.2.1-.3 0l-3.3-3.3c-.1-.1-.1-.2 0-.3l3.3-3.3c.1-.1.2-.1.3 0l3.3 3.3c.1 0 .1.2 0 .3z" id="Square_37_"/><path class="st0" d="M194.2 49.7l-3.3 3.3c-.1.1-.2.1-.3 0l-3.3-3.3c-.1-.1-.1-.2 0-.3l3.3-3.3c.1-.1.2-.1.3 0l3.3 3.3c.1 0 .1.2 0 .3z" id="Square_36_"/><path class="st0" d="M185.7 49.7l-3.3 3.3c-.1.1-.2.1-.3 0l-3.3-3.3c-.1-.1-.1-.2 0-.3l3.3-3.3c.1-.1.2-.1.3 0l3.3 3.3c.1 0 .1.2 0 .3z" id="Square_35_"/></g><g id="Second_Row_5_"><path class="st0" d="M194.8 48.3c.1.1.2.1.3 0l3.3-3.3c.1-.1.1-.2 0-.3l-3.3-3.3c-.1-.1-.2-.1-.3 0l-3.3 3.3c-.1.1-.1.2 0 .3l3.3 3.3z" id="Square_34_"/><path class="st0" d="M186.3 48.2c.1.1.2.1.3 0L190 45c.1-.1.1-.2 0-.3l-3.3-3.3c-.1-.1-.2-.1-.3 0l-3.3 3.3c-.1.1-.1.2 0 .3l3.2 3.2z" id="Square_33_"/></g><path class="st0" d="M190.6 43.4c.1.1.2.1.3 0l3.3-3.3c.1-.1.1-.2 0-.3l-3.3-3.3c-.1-.1-.2-.1-.3 0l-3.3 3.3c-.1.1-.1.2 0 .3l3.3 3.3z" id="Sqaure_5_"/><path id="SVGID_63_" class="st0" d="M180.5 52.6l-1.7 1.7c-.1.1-.1.2 0 .3l11.8 11.8c.1.1.2.1.3 0l11.8-11.8c.1-.1.1-.2 0-.3l-1.7-1.7-9.6 9.6c-.4.4-1 .4-1.4 0l-9.5-9.6z"/><defs><path id="SVGID_1_" d="M180.5 52.6l-1.7 1.7c-.1.1-.1.2 0 .3l11.8 11.8c.1.1.2.1.3 0l11.8-11.8c.1-.1.1-.2 0-.3l-1.7-1.7-9.6 9.6c-.4.4-1 .4-1.4 0l-9.5-9.6z"/></defs><clipPath id="SVGID_2_"><use xlink:href="#SVGID_1_" overflow="visible"/></clipPath><g class="st1"><path id="SVGID_65_" class="st0" d="M142.6 21.4h96.2v72.1h-96.2z"/><defs><path id="SVGID_3_" d="M142.6 21.4h96.2v72.1h-96.2z"/></defs><clipPath id="SVGID_4_"><use xlink:href="#SVGID_3_" overflow="visible"/></clipPath><g class="st2"><path class="st0" d="M178.1 52h25.2v15.1h-25.2z"/></g></g><path class="st3" d="M165.4 15h4.7v4.8h2.4c1.1 0 2.2-.2 3.3-.6.5-.2 1.1-.4 1.6-.7-.7-.9-1-2-1.1-3.1-.1-1.5.2-3.4 1.2-4.6l.5-.6.6.5c1.5 1.2 2.8 2.9 3 4.8 1.8-.5 3.9-.4 5.5.5l.7.4-.3.7c-1.3 2.6-4.1 3.4-6.9 3.3-4.1 10.2-13 15.1-23.9 15.1-5.6 0-10.7-2.1-13.6-7.1v-.1l-.4-.9c-1-2.2-1.3-4.6-1.1-7l.1-.7h4.1V15h4.7v-4.7h9.5V5.6h5.7V15h-.3z" id="outline_20_"/><g id="body_colors_20_"><path class="st0" d="M180.7 16.8c.3-2.5-1.5-4.4-2.7-5.3-1.3 1.5-1.5 5.5.5 7.2-1.2 1-3.6 2-6.1 2H142c-.2 2.6.2 5 1.3 7.1l.3.6c.2.4.5.7.7 1.1 1.2.1 2.4.1 3.5.1 2.1 0 3.8-.3 5-.7.2-.1.4 0 .5.2s0 .4-.2.5-.3.1-.5.2c-1 .3-2.1.5-3.5.6h-4c2.5 2.8 6.5 4.5 11.4 4.5 10.5 0 19.4-4.7 23.3-15.1 2.8.3 5.5-.4 6.7-2.8-1.8-1.2-4.3-.9-5.8-.2z"/><path class="st0" d="M180.7 16.8c.3-2.5-1.5-4.4-2.7-5.3-1.3 1.5-1.5 5.5.5 7.2-1.2 1-3.6 2-6.1 2H144c-.1 4 1.4 7 4 8.8 2.1 0 3.8-.3 5-.7.2-.1.4 0 .5.2s0 .4-.2.5-.3.1-.5.2c-1 .3-2.2.5-3.6.6 3.6 1.8 8.7 1.8 14.7-.5 6.7-2.6 12.8-7.4 17.2-13h-.4z"/><path class="st0" d="M142.2 23.8c.2 1.4.6 2.7 1.2 3.9l.3.6c.2.4.5.7.7 1.1 1.2.1 2.4.1 3.5.1 2.1 0 3.8-.3 5-.7.2-.1.4 0 .5.2s0 .4-.2.5-.3.1-.5.2c-1 .3-2.2.5-3.6.6h-4c2.5 2.8 6.5 4.6 11.5 4.6 9 0 16.8-3.4 21.3-10.9h-35.7v-.2z"/><path class="st0" d="M144.2 23.8c.5 2.4 1.8 4.4 3.7 5.7 2.1 0 3.8-.3 5-.7.2-.1.4 0 .5.2s0 .4-.2.5-.3.1-.5.2c-1 .3-2.2.5-3.6.6 3.6 1.8 8.7 1.8 14.7-.5 3.6-1.4 7-3.4 10.1-5.9h-29.7v-.1z"/></g><g class="st4"><g class="st5"><path class="st0" d="M147.2 30.3h1.8c1.4-.1 2.6-.3 3.6-.6.2-.1.4-.1.5-.2.2-.1.3-.3.2-.5s-.3-.3-.5-.2c-1.3.4-3 .7-5 .7-1.1 0-2.2 0-3.5-.1h-.2c-.2 0-.4.1-.4.3 0 .2.1.4.3.4h.9c.9.1 1.6.2 2.3.2z"/></g></g><path class="st0" d="M149.7 16.2h.3v3.4h-.3v-3.4zm-.6 0h.3v3.4h-.3v-3.4zm-.6 0h.3v3.4h-.3v-3.4zm-.6 0h.3v3.4h-.3v-3.4zm-.7 0h.3v3.4h-.3v-3.4zm-.6 0h.3v3.4h-.3v-3.4zm-.3-.4h4.1v4.1h-4.1v-4.1zm8.2-4.4h.3v3.4h-.3v-3.4zm-.7 0h.3v3.4h-.3v-3.4zm-.6 0h.3v3.4h-.3v-3.4zm-.6 0h.3v3.4h-.3v-3.4zm-.6 0h.3v3.4h-.3v-3.4zm-.6 0h.3v3.4h-.3v-3.4zm-.4-.3h4.1v4.1H151v-4.1zm3.5 5.1h.3v3.4h-.3v-3.4zm-.7 0h.3v3.4h-.3v-3.4zm-.6 0h.3v3.4h-.3v-3.4zm-.6 0h.3v3.4h-.3v-3.4zm-.6 0h.3v3.4h-.3v-3.4zm-.6 0h.3v3.4h-.3v-3.4zm-.4-.4h4.1v4.1H151v-4.1zm8.2.4h.3v3.4h-.3v-3.4zm-.6 0h.3v3.4h-.3v-3.4zm-.6 0h.3v3.4h-.3v-3.4zm-.7 0h.3v3.4h-.3v-3.4zm-.6 0h.3v3.4h-.3v-3.4zm-.6 0h.3v3.4h-.3v-3.4zm-.3-.4h4.1v4.1h-4.1v-4.1zm3.4-4.4h.3v3.4h-.3v-3.4zm-.6 0h.3v3.4h-.3v-3.4zm-.6 0h.3v3.4h-.3v-3.4zm-.7 0h.3v3.4h-.3v-3.4zm-.6 0h.3v3.4h-.3v-3.4zm-.6 0h.3v3.4h-.3v-3.4zm-.3-.3h4.1v4.1h-4.1v-4.1zm8.1 5.1h.3v3.4h-.3v-3.4zm-.6 0h.3v3.4h-.3v-3.4zm-.6 0h.3v3.4h-.3v-3.4zm-.6 0h.3v3.4h-.3v-3.4zm-.6 0h.3v3.4h-.3v-3.4zm-.7 0h.3v3.4h-.3v-3.4zm-.3-.4h4.1v4.1h-4.1v-4.1zm3.4-4.4h.3v3.4h-.3v-3.4zm-.6 0h.3v3.4h-.3v-3.4zm-.6 0h.3v3.4h-.3v-3.4zm-.6 0h.3v3.4h-.3v-3.4zm-.6 0h.3v3.4h-.3v-3.4zm-.7 0h.3v3.4h-.3v-3.4zm-.3-.3h4.1v4.1h-4.1v-4.1zm3.4-4.4h.3v3.4h-.3V6.7zm-.6 0h.3v3.4h-.3V6.7zm-.6 0h.3v3.4h-.3V6.7zm-.6 0h.3v3.4h-.3V6.7zm-.6 0h.3v3.4h-.3V6.7zm-.7 0h.3v3.4h-.3V6.7zm-.3-.3h4.1v4.1h-4.1V6.4zm8.2 9.8h.3v3.4h-.3v-3.4zm-.6 0h.3v3.4h-.3v-3.4zm-.7 0h.3v3.4h-.3v-3.4zm-.6 0h.3v3.4h-.3v-3.4zm-.6 0h.3v3.4h-.3v-3.4zm-.6 0h.3v3.4h-.3v-3.4zm-.4-.4h4.1v4.1h-4.1v-4.1z" id="Containers_20_"/><path class="st0" d="M157.9 34.8c-2.8-1.3-4.3-3.1-5.2-5.1-1 .3-2.3.5-3.7.6h-1.7c-.7 0-1.4 0-2.2-.1 2.6 2.6 5.7 4.5 11.6 4.6h1.2z"/><path class="st0" d="M153.7 31.5c-.4-.5-.8-1.2-1-1.8-1 .3-2.3.5-3.8.6 1 .5 2.5 1 4.8 1.2zm-45.3-1.1c-.7 0-1.4-.3-1.9-.9l-7-8.7c-.5-.6-.6-1.3-.5-2L101.6 8c.2-.7.6-1.3 1.3-1.6L113 1.5c.3-.2.7-.2 1-.2s.7.1 1 .2l10.1 4.8c.7.3 1.1.9 1.3 1.6l2.5 10.8c.2.7 0 1.5-.5 2l-7 8.7c-.5.6-1.1.9-1.9.9l-11.1.1z"/><path class="st3" d="M114 1.8c.3 0 .6.1.8.2l10.1 4.8c.5.3.9.7 1 1.3l2.5 10.8c.1.6 0 1.2-.4 1.6l-7 8.7c-.4.5-.9.7-1.5.7h-11.2c-.6 0-1.1-.3-1.5-.7l-7-8.7c-.4-.5-.5-1.1-.4-1.6l2.5-10.8c.1-.6.5-1.1 1-1.3L113 2c.5-.2.8-.2 1-.2zm0-1c-.4 0-.8.1-1.2.3l-10.1 4.8c-.8.4-1.4 1.1-1.6 1.9l-2.5 10.8c-.2.9 0 1.7.6 2.4l7 8.7c.5.7 1.4 1.1 2.2 1.1h11.2c.9 0 1.7-.4 2.2-1.1l7-8.7c.6-.7.8-1.6.6-2.4l-2.5-10.8c-.2-.9-.8-1.6-1.6-1.9l-10-4.8c-.4-.2-.9-.3-1.3-.3z"/><path class="st3" d="M124.1 18h-.8c-.4 0-.8-.1-1.1-.2-.1-.1-.2-.1-.2-.2l-.3-.1c.1-.9.1-1.9-.1-2.8-.2-.9-.6-1.8-1.1-2.6l.2-.2c0-.1 0-.2.1-.3.2-.2.5-.4.9-.6.1 0 .1-.1.2-.1.1-.1.2-.1.3-.2 0 0 .1 0 .1-.1.3-.2.3-.6.1-.9-.1-.1-.3-.2-.5-.2s-.3.1-.4.2l-.1.1-.3.3-.1.1c-.3.3-.5.5-.8.7-.1 0-.1.1-.2.1h-.1l-.2.2-.8-.8c-1.2-.9-2.6-1.5-4.2-1.7v-.3c-.1-.1-.1-.1-.2-.3 0-.3 0-.7.1-1.1v-.2c0-.1 0-.2.1-.4v-.3c0-.4-.3-.7-.6-.7-.2 0-.3.1-.4.2s-.2.3-.2.5v.1c0 .1 0 .3.1.4v.2c0 .4.1.8.1 1.1 0 .1-.1.2-.2.3v.3c-.4 0-.7.1-1.1.2-1.5.3-2.9 1.1-3.9 2.2l-.2-.1h-.1c-.1 0-.1 0-.2-.1-.3-.2-.5-.4-.8-.7l-.1-.1-.3-.3s-.1 0-.1-.1c-.1-.1-.3-.2-.4-.2-.2 0-.4.1-.5.2-.2.3-.1.7.1.9l.1.1c.1.1.2.1.3.2.1 0 .1.1.2.1.4.2.7.4.9.6.1.1.1.2.1.3l.2.2c0 .1-.1.1-.1.2-1 1.6-1.4 3.4-1.1 5.3l-.3.1c0 .1-.1.2-.2.2-.3.1-.7.1-1.1.2h-.8c-.4.1-.6.4-.5.7.1.3.3.5.6.5h.3c.1 0 .2-.1.4-.1.1 0 .1-.1.2-.1.4-.1.7-.3 1-.3.1 0 .2.1.3.1h.3c.5 1.5 1.4 2.8 2.6 3.7l.9.6-.1.3c0 .1.1.2 0 .3-.1.3-.3.6-.5.9 0 .1-.1.1-.1.2-.1.1-.1.2-.2.3 0 0 0 .1-.1.1-.2.3 0 .7.3.9.1 0 .2.1.2.1.2 0 .5-.2.6-.4 0 0 0-.1.1-.1.1-.1.1-.2.1-.4 0-.1 0-.1.1-.2.1-.4.2-.7.4-1 .1-.1.2-.1.3-.2l.1-.3c.9.3 1.8.5 2.8.5.6 0 1.2-.1 1.7-.2.4-.1.7-.2 1-.3l.1.2c.1 0 .2.1.3.2.2.3.3.6.4 1 0 .1 0 .1.1.2 0 .1.1.2.1.4 0 0 0 .1.1.1.1.2.4.4.6.4.1 0 .2 0 .2-.1.1-.1.3-.2.3-.4V25s0-.1-.1-.1c-.1-.1-.1-.2-.2-.3 0-.1-.1-.1-.1-.2-.2-.3-.4-.6-.5-.9v-.3l-.1-.2c1.1-.6 2-1.5 2.6-2.6.4-.6.6-1.2.8-1.8h.2c.1 0 .1-.1.3-.1.3 0 .7.2 1 .3.1 0 .1.1.2.1.1.1.2.1.4.1h.4c.3 0 .6-.2.6-.5.1-.1-.1-.4-.5-.5zm-9.2-1l-.9.4-.9-.4-.2-.9.6-.8h1l.6.8-.2.9zm5.2-2c.2.7.2 1.4.1 2l-3-.9c-.3-.1-.4-.4-.4-.6 0-.1.1-.2.1-.2l2.4-2.2c.4.5.6 1.2.8 1.9zm-1.7-3.1l-2.6 1.9c-.2.1-.5.1-.7-.1-.1-.1-.1-.1-.1-.2l-.2-3.2c1.4 0 2.6.6 3.6 1.6zm-5.8-1.7c.2 0 .4-.1.6-.1l-.2 3.2c0 .3-.2.5-.5.5-.1 0-.2 0-.2-.1l-2.6-1.9c.8-.7 1.8-1.3 2.9-1.6zm-3.9 2.9l2.4 2.1c.2.2.2.5.1.7l-.2.2-3.1.9c-.2-1.4.1-2.8.8-3.9zm-.5 5.4l3.2-.5c.3 0 .5.2.6.4v.3l-1.2 2.9c-1.3-.7-2.2-1.8-2.6-3.1zm7.2 3.9c-.5.1-.9.2-1.4.2-.7 0-1.4-.1-2-.3l1.6-2.8c.2-.2.4-.3.6-.1.1.1.2.1.2.2l1.5 2.8c-.1-.1-.3 0-.5 0zm3.9-2.7c-.5.8-1.2 1.4-1.9 1.9l-1.3-3c-.1-.2 0-.5.3-.6.1 0 .2-.1.3-.1l3.2.5c-.1.5-.3.9-.6 1.3z"/><path class="st0" d="M63.7 61l-4.8-1.7v-7l4.8 1.6zm.9 0l4.7-1.7v-7l-4.7 1.6zm-5.2-9.2l4.8-1.4 4.5 1.5-4.5 1.5zm-1.4-.6l-4.7-1.7v-6.9l4.7 1.6zm.9 0l4.8-1.7v-6.9l-4.8 1.6zm-5.1-9.1l4.8-1.4 4.4 1.4-4.4 1.6zm15.3 9.1l-4.7-1.7v-6.9l4.7 1.6zm.9 0l4.7-1.7v-6.9L70 44.2zm-5.1-9.1l4.8-1.4 4.4 1.4-4.4 1.6zm9.9-.6L70 39.8v-7l4.8 1.7zm.9 0l4.7-1.7v-7l-4.7 1.7zm-5.2-9.2l4.8-1.3 4.5 1.4-4.5 1.5zm15.4 9.2l-4.8-1.7v-7l4.8 1.7zm.8 0l4.8-1.7v-7l-4.8 1.7zm-5.1-9.2l4.8-1.3 4.5 1.4-4.5 1.5z"/><path class="st3" d="M82.7 61.6l49.2-28.4 49.3 28.4v57L131.9 147l-49.2-28.4z"/><path class="st6" d="M131.8 160.9c-.1 0-.2 0-.3-.1l-72.5-42c-.2-.1-.2-.3-.2-.4 0-.2.1-.3.2-.4l72.7-42c.2-.1.3-.1.5 0l72.5 42c.2.1.2.3.2.4 0 .2-.1.3-.2.4l-72.7 42c0 .1-.1.1-.2.1zm-71.5-42.4l71.5 41.4 71.7-41.4L132 77l-71.7 41.5z"/><path class="st7" d="M131.9 152.1c-.1 0-.2 0-.3-.1l-57.2-33.1c-.2-.1-.2-.3-.2-.4 0-.2.1-.3.2-.4L131.8 85c.2-.1.3-.1.5 0l57.2 33.1c.2.1.2.3.2.4 0 .2-.1.3-.2.4L132.1 152c-.1 0-.1.1-.2.1zm-56.3-33.7l56.2 32.5 56.4-32.6L132 85.9l-56.4 32.5z"/><path class="st0" d="M131.9 156.3c-.1 0-.2 0-.3-.1l-64.5-37.3c-.2-.1-.2-.3-.2-.4 0-.2.1-.3.2-.4l64.7-37.4c.2-.1.3-.1.5 0l64.5 37.3c.2.1.2.3.2.4 0 .2-.1.3-.2.4l-64.7 37.4c-.1 0-.2.1-.2.1zm-63.6-37.9l63.5 36.7 63.7-36.8L132 81.7l-63.7 36.7z"/><path class="st8" d="M131.9 147.5c-.1 0-.2 0-.2-.1L82.4 119c-.2-.1-.2-.3-.2-.4v-57c0-.2.1-.3.2-.4l49.3-28.5c.2-.1.3-.1.5 0l49.3 28.5c.2.1.2.3.2.4v56.9c0 .2-.1.3-.2.4l-49.3 28.5c-.1.1-.2.1-.3.1zm-48.7-29.2l48.8 28.2 48.8-28.2V61.9L132 33.7 83.2 61.9v56.4z"/><path class="st3" d="M111.6 76.9l19.7-11.3L151 76.9v22.8l-19.7 11.4-19.7-11.4z"/><path class="st9" d="M131.3 111.6c-.1 0-.2 0-.2-.1l-19.7-11.4c-.2-.1-.2-.3-.2-.4V76.9c0-.2.1-.3.2-.4L131 65.1c.2-.1.3-.1.5 0l19.7 11.4c.2.1.2.3.2.4v22.7c0 .2-.1.3-.2.4l-19.7 11.4c0 .1-.1.2-.2.2zm-19.2-12.2l19.2 11.1 19.2-11.1V77.2l-19.2-11.1-19.2 11.1v22.2z"/><path class="st6" d="M150.9 76.9l-19.5 11.4-.2 22.8 19.9-11.5z"/><path class="st9" d="M131.4 111.5c-.1 0-.2 0-.2-.1L111.5 100c-.2-.1-.2-.3-.2-.4V76.9c0-.2.1-.3.2-.4l19.7-11.4c.2-.1.3-.1.5 0l19.7 11.4c.2.1.2.3.2.4v22.7c0 .2-.1.3-.2.4l-19.7 11.4c-.2.1-.2.1-.3.1zm-19.2-12.1l19.2 11.1 19.2-11.1V77.2l-19.2-11.1-19.2 11.1v22.2z"/><path class="st3" d="M136.8 91.3L156.5 80l19.7 11.3v22.8l-19.7 11.3-19.7-11.3z"/><path class="st9" d="M156.5 125.9c-.1 0-.2 0-.2-.1l-19.7-11.4c-.2-.1-.2-.3-.2-.4V91.3c0-.2.1-.3.2-.4l19.7-11.4c.2-.1.3-.1.5 0l19.7 11.4c.2.1.2.3.2.4V114c0 .2-.1.3-.2.4l-19.7 11.4c-.2.1-.3.1-.3.1zm-19.2-12.1l19.2 11.1 19.2-11.1V91.6l-19.2-11.1-19.2 11.1v22.2z"/><path class="st6" d="M176 91.5l-19.5 11.3-.2 22.8 19.9-11.4z"/><path class="st9" d="M156.5 126c-.1 0-.2 0-.2-.1l-19.7-11.4c-.2-.1-.2-.3-.2-.4V91.4c0-.2.1-.3.2-.4l19.7-11.4c.2-.1.3-.1.5 0L176.4 91c.2.1.2.3.2.4v22.7c0 .2-.1.3-.2.4L156.7 126h-.2zm-19.2-12.1l19.2 11.1 19.2-11.1V91.7l-19.2-11.1-19.2 11.1v22.2z"/><path class="st3" d="M86.3 92.9L106 81.6l19.7 11.3v22.8L106 127l-19.7-11.3z"/><path class="st9" d="M106 127.5c-.1 0-.2 0-.2-.1L86.1 116c-.2-.1-.2-.3-.2-.4V92.9c0-.2.1-.3.2-.4l19.7-11.4c.2-.1.3-.1.5 0L126 92.5c.2.1.2.3.2.4v22.7c0 .2-.1.3-.2.4l-19.7 11.4c-.1.1-.2.1-.3.1zm-19.2-12.1l19.2 11.1 19.2-11.1V93.2L106 82.1 86.8 93.2v22.2z"/><path class="st6" d="M125.6 93L106 104.3l-.1 22.9 19.8-11.5z"/><path class="st9" d="M106 127.6c-.1 0-.2 0-.2-.1L86 116.1c-.2-.1-.2-.3-.2-.4V93c0-.2.1-.3.2-.4l19.7-11.4c.2-.1.3-.1.5 0l19.7 11.4c.2.1.2.3.2.4v22.7c0 .2-.1.3-.2.4l-19.7 11.4c0 .1-.1.1-.2.1zm-19.2-12.2l19.2 11.1 19.2-11.1V93.3L106 82.2 86.8 93.3v22.1z"/><path class="st3" d="M111.6 107.5l19.7-11.4 19.7 11.4v22.7l-19.7 11.4-19.7-11.4z"/><path class="st9" d="M131.3 142.1c-.1 0-.2 0-.2-.1l-19.7-11.4c-.2-.1-.2-.3-.2-.4v-22.7c0-.2.1-.3.2-.4L131 95.7c.2-.1.3-.1.5 0l19.7 11.4c.2.1.2.3.2.4v22.7c0 .2-.1.3-.2.4L131.5 142c0 .1-.1.1-.2.1zM112.1 130l19.2 11.1 19.2-11.1v-22.2l-19.2-11.1-19.2 11.1V130z"/><path class="st6" d="M150.9 107.6l-19.5 11.3-.2 22.9 19.9-11.5z"/><path class="st9" d="M131.4 142.2c-.1 0-.2 0-.2-.1l-19.7-11.4c-.2-.1-.2-.3-.2-.4v-22.7c0-.2.1-.3.2-.4l19.7-11.4c.2-.1.3-.1.5 0l19.7 11.4c.2.1.2.3.2.4v22.7c0 .2-.1.3-.2.4l-19.7 11.4c-.2.1-.2.1-.3.1zM112.2 130l19.2 11.1 19.2-11.1v-22.2l-19.2-11.1-19.2 11.1V130z"/><path class="st3" d="M111.6 50.2l19.7-11.3L151 50.2V73l-19.7 11.3L111.6 73z"/><path class="st9" d="M131.3 84.8c-.1 0-.2 0-.2-.1l-19.7-11.4c-.2-.1-.2-.3-.2-.4V50.2c0-.2.1-.3.2-.4L131 38.4c.2-.1.3-.1.5 0l19.7 11.4c.2.1.2.3.2.4V73c0 .2-.1.3-.2.4l-19.7 11.4h-.2zm-19.2-12.1l19.2 11.1 19.2-11.1V50.5l-19.2-11.1-19.2 11.1v22.2z"/><path class="st6" d="M150.9 50.2l-19.5 11.4-.2 22.8 19.9-11.5z"/><path class="st9" d="M131.4 84.8c-.1 0-.2 0-.2-.1l-19.7-11.4c-.2-.1-.2-.3-.2-.4V50.2c0-.2.1-.3.2-.4l19.7-11.4c.2-.1.3-.1.5 0l19.7 11.4c.2.1.2.3.2.4v22.7c0 .2-.1.3-.2.4l-19.7 11.4c-.2.1-.2.1-.3.1zm-19.2-12.2l19.2 11.1 19.2-11.1V50.5l-19.2-11.1-19.2 11.1v22.1z"/><path class="st3" d="M136.8 64.6l19.7-11.4 19.7 11.4v22.8l-19.7 11.3-19.7-11.3z"/><path class="st9" d="M156.5 99.2c-.1 0-.2 0-.2-.1l-19.7-11.4c-.2-.1-.2-.3-.2-.4V64.6c0-.2.1-.3.2-.4l19.7-11.4c.2-.1.3-.1.5 0l19.7 11.4c.2.1.2.3.2.4v22.7c0 .2-.1.3-.2.4l-19.7 11.4c-.2.1-.3.1-.3.1zm-19.2-12.1l19.2 11.1 19.2-11.1V64.9l-19.2-11.1-19.2 11.1v22.2z"/><path class="st6" d="M176 64.8l-19.5 11.3-.2 22.8 19.9-11.4z"/><path class="st9" d="M156.5 99.3c-.1 0-.2 0-.2-.1l-19.7-11.4c-.2-.1-.2-.3-.2-.4V64.7c0-.2.1-.3.2-.4l19.7-11.4c.2-.1.3-.1.5 0l19.7 11.4c.2.1.2.3.2.4v22.7c0 .2-.1.3-.2.4l-19.7 11.4c-.2.1-.3.1-.3.1zm-19.2-12.1l19.2 11.1 19.2-11.1V65l-19.2-11.1L137.3 65v22.2z"/><path class="st3" d="M86.3 66.2L106 54.8l19.7 11.4V89L106 100.3 86.3 89z"/><path class="st9" d="M106 100.8c-.1 0-.2 0-.2-.1L86.1 89.4c-.2-.1-.2-.3-.2-.4V66.2c0-.2.1-.3.2-.4l19.7-11.4c.2-.1.3-.1.5 0L126 65.8c.2.1.2.3.2.4V89c0 .2-.1.3-.2.4l-19.7 11.4h-.3zM86.8 88.7L106 99.8l19.2-11.1V66.5L106 55.4 86.8 66.5v22.2z"/><path class="st6" d="M125.6 66.3L106 77.6l-.1 22.9L125.7 89z"/><path class="st9" d="M106 100.9c-.1 0-.2 0-.2-.1L86 89.4c-.2-.1-.2-.3-.2-.4V66.3c0-.2.1-.3.2-.4l19.7-11.4c.2-.1.3-.1.5 0l19.7 11.4c.2.1.2.3.2.4V89c0 .2-.1.3-.2.4l-19.7 11.4c0 .1-.1.1-.2.1zM86.8 88.7L106 99.8l19.2-11.1V66.5l-19.2-11-19.2 11v22.2z"/><path class="st3" d="M111.6 80.8l19.7-11.4L151 80.8v22.7l-19.7 11.4-19.7-11.4z"/><path class="st9" d="M131.3 115.4c-.1 0-.2 0-.2-.1L111.3 104c-.2-.1-.2-.3-.2-.4V80.8c0-.2.1-.3.2-.4L131 69c.2-.1.3-.1.5 0l19.7 11.4c.2.1.2.3.2.4v22.7c0 .2-.1.3-.2.4l-19.7 11.4c0 .1-.1.1-.2.1zm-19.2-12.2l19.2 11.1 19.2-11.1V81.1L131.3 70l-19.2 11.1v22.1z"/><path class="st6" d="M150.9 80.9l-19.5 11.3-.2 22.9 19.9-11.5z"/><path class="st9" d="M131.4 115.5c-.1 0-.2 0-.2-.1L111.4 104c-.2-.1-.2-.3-.2-.4V80.9c0-.2.1-.3.2-.4l19.7-11.4c.2-.1.3-.1.5 0l19.7 11.4c.2.1.2.3.2.4v22.7c0 .2-.1.3-.2.4l-19.7 11.4c-.1.1-.1.1-.2.1zm-19.2-12.2l19.2 11.1 19.2-11.1V81.2l-19.2-11.1-19.2 11.1v22.1zM82.6 77.6c-8.8 0-16-7.2-16-16s7.2-16 16-16 16 7.2 16 16-7.2 16-16 16z"/><path class="st3" d="M82.6 46.6c8.3 0 15 6.7 15 15s-6.7 15-15 15-15-6.7-15-15 6.7-15 15-15m0-2c-9.4 0-17 7.6-17 17s7.6 17 17 17 17-7.6 17-17-7.6-17-17-17z"/></g><path class="st10" d="M89.4 62.6h-.1c.2-.6.4-1.3.4-2 0-3.4-2.8-6.2-6.2-6.2-2.7 0-5 1.8-5.9 4.2H77c-2.3 0-4.1 1.9-4.1 4.1 0 2.2 1.8 4 4 4.1h12.6c1.1 0 2.1-.9 2.1-2.1-.1-1.2-1-2.1-2.2-2.1z"/></svg>