<svg xmlns="http://www.w3.org/2000/svg" xmlns:xlink="http://www.w3.org/1999/xlink" viewBox="0 0 250 200"><style>.st0{fill:url(#SVGID_1_)}.st1{clip-path:url(#SVGID_3_)}.st2{fill:#fff}.st3{fill:#f0f5fa}.st4{fill:#c3d2dc}.st5{fill:#ff405e}.st6,.st7{fill:#c3d0db}.st7{stroke:#234b5f;stroke-miterlimit:10}.st8{fill:#142d3c}.st9{fill:#f2f5f7;stroke:#c3d2dc;stroke-miterlimit:10}.st10{fill:#1a3442}.st11{fill:url(#SVGID_4_)}.st12{fill:#f2f5f7}.st13{fill:none;stroke:#f2f5f7;stroke-miterlimit:10}.st14{fill:#f2f2f2}.st15{fill:#264c5f}.st16{fill:#14283c}.st17{stroke:#c3d0db;stroke-width:2}.st17,.st18,.st19{fill:none;stroke-miterlimit:10}.st18{stroke-linecap:round;stroke:#c3d0db;stroke-width:2}.st19{stroke:#ff405e;stroke-width:1.5;stroke-linejoin:round}.st20{fill:#6996aa}.st21{fill:#333}.st22,.st23{fill:#fff;stroke:#f2f2f2;stroke-miterlimit:10}.st23{fill:none;stroke:#ff405e}.st24{fill:#4d4d4d}.st25,.st26{fill:none;stroke:#666;stroke-width:2;stroke-miterlimit:10}.st26{stroke-linecap:round}.st27{fill:#ccc}.st28{fill:#999}.st29{fill:#e6e6e6}.st30{fill:gray}.st31{fill:#b3b3b3}.st32{stroke:#fff}.st32,.st33,.st34{fill:none;stroke-miterlimit:10}.st33{stroke-width:4;stroke:#999}.st34{stroke:#234b5f}.st35{fill:#234b5f}.st36{fill:#6a94a8}.st37{clip-path:url(#SVGID_6_)}.st38{clip-path:url(#SVGID_8_)}.st39{clip-path:url(#SVGID_10_)}.st40{clip-path:url(#SVGID_12_)}.st41{clip-path:url(#SVGID_14_)}.st42{fill-rule:evenodd;clip-rule:evenodd;fill:#c3d0db}.st43{opacity:.5;fill:#c3d0db}.st44{fill:#6991aa}.st45{opacity:.25}.st46{fill:#f9b32e}.st47{opacity:.2}.st48{fill:#96a0aa}.st49{fill:#698caa}.st50{fill:#375f7d}.st51{fill:#23465f}.st52{fill:#37647d}.st53{opacity:.5}.st54{fill:#36697f}.st55,.st56,.st57{fill:none;stroke-linejoin:round}.st55{stroke-miterlimit:10;stroke:#d2d7dc}.st56,.st57{stroke:#ff405e}.st57{stroke-dasharray:6.0738,6.0738}.st58{stroke-dasharray:6.0629,6.0629;stroke-linejoin:round}.st58,.st59,.st60{fill:none;stroke:#ff405e}.st59,.st60,.st61{stroke-linejoin:round}.st59{stroke-dasharray:6.1023,6.1023}.st60,.st61{stroke-miterlimit:10}.st61{fill:#fff;stroke:#193340}.st62{fill:#d2d7dc}.st63,.st64{fill:none;stroke:#193340;stroke-miterlimit:10}.st63{stroke-linejoin:round}.st64{stroke-dasharray:6}.st64,.st65,.st66,.st67{stroke-linejoin:round}.st65{fill:none;stroke:#14283c}.st66,.st67{stroke:#fff}.st66{stroke-width:2;stroke-linecap:round;stroke-miterlimit:10;fill:none}.st67{fill:#fff}.st67,.st68,.st69{stroke-miterlimit:10}.st68{stroke-width:2;fill:#ff405e;stroke:#fff}.st69{fill:#14283c;stroke:#d2d7dc;stroke-linejoin:round}.st70{stroke:#ff405e;stroke-miterlimit:10}.st70,.st71{fill:#fff}.st71,.st72{stroke-miterlimit:10}.st71{stroke:#d2d7dc}.st72{fill:none;stroke:#14283c}.st73{clip-path:url(#SVGID_16_)}.st74{clip-path:url(#SVGID_18_)}.st75,.st76{stroke:#ff405e;stroke-linejoin:round}.st75{stroke-miterlimit:10;fill:#14283c}.st76{fill:#f2f5f7}.st76,.st77,.st78{stroke-miterlimit:10}.st77{stroke-width:2;stroke-linejoin:round;fill:#ff405e;stroke:#14283c}.st78{fill:#fff;stroke:#ff405e}.st78,.st79,.st80{stroke-linejoin:round}.st79{stroke:#fff;stroke-width:2;stroke-miterlimit:10;fill:#36697f}.st80{fill:#264c5f}.st80,.st81,.st82{stroke:#fff;stroke-width:2;stroke-miterlimit:10}.st81{stroke-linejoin:round;fill:#ff405e}.st82{fill:none;stroke-linecap:round}.st83{opacity:.2;fill:#ff405e}.st84{clip-path:url(#SVGID_20_)}.st85{clip-path:url(#SVGID_22_);fill:#c3d0db}.st86{fill-rule:evenodd;clip-rule:evenodd;fill:#fff}.st87{display:none}.st88{display:inline;fill:#c3d0db}.st89{stroke:#f2f5f7;stroke-miterlimit:10}.st89,.st90,.st91{fill:none;stroke-linejoin:round}.st90{stroke-miterlimit:10;stroke:#99b1c1}.st91{stroke:#c3d0db}.st91,.st92,.st93,.st94{stroke-miterlimit:10}.st92{stroke:#14283c;stroke-linejoin:round;fill:#fff}.st93,.st94{fill:none}.st93{stroke-linejoin:round;stroke:#14283c}.st94{stroke:#fff;stroke-linecap:round}.st95,.st96{fill-rule:evenodd;clip-rule:evenodd;fill:#234b5f}.st96{fill:#f2f5f7}.st97{display:inline;fill:#234b5f}.st98{fill:none;stroke:#ff405e;stroke-linecap:round;stroke-linejoin:round;stroke-miterlimit:10}.st100,.st99{stroke-width:2}.st99{stroke-linecap:round;stroke-miterlimit:10;fill:#fff;stroke:#234b5f}.st100{fill:#234b5f;stroke:#c3d0db}.st100,.st101,.st102,.st103{stroke-linecap:round;stroke-miterlimit:10}.st101{stroke-width:2;fill:#234b5f;stroke:#ff405e}.st102{fill:#6996aa;stroke:#c3d0db}.st103{fill:#f2f5f7;stroke:#234b5f}.st104{fill:#37697d}.st105{fill:#fff;stroke:#1a3442;stroke-linejoin:round}.st105,.st106,.st107{stroke-miterlimit:10}.st106{fill:none;stroke:#1a3442;stroke-linejoin:round}.st107{stroke-dasharray:6}.st107,.st108{fill:none;stroke:#1a3442;stroke-linejoin:round}.st109,.st110{stroke-miterlimit:10}.st109{stroke-linejoin:round;fill:#1a3442;stroke:#d2d7dc}.st110{fill:none;stroke:#1a3442}.st111{clip-path:url(#SVGID_24_)}.st112{clip-path:url(#SVGID_26_)}.st113,.st114,.st115,.st116{fill:#1a3442;stroke:#ff405e;stroke-linejoin:round;stroke-miterlimit:10}.st114,.st115,.st116{fill:#ff405e;stroke:#1a3442;stroke-width:2}.st115,.st116{fill:#37697d;stroke:#fff}.st116{fill:#234b5f}.st117{clip-path:url(#SVGID_28_)}.st118{clip-path:url(#SVGID_30_);fill:#c3d0db}.st119,.st120{fill:none;stroke:#6996aa;stroke-linejoin:round;stroke-miterlimit:10}.st120{stroke:#234b5f;stroke-linecap:round}.st121,.st122{fill:#fff}.st121,.st122,.st123{stroke-miterlimit:10}.st121{stroke-linecap:round;stroke-linejoin:round;stroke:#ff405e}.st122,.st123{stroke:#234b5f}.st123{fill:#c3d0db}.st123,.st124,.st125{stroke-linecap:round}.st124{stroke-miterlimit:10;fill:#234b5f;stroke:#fff}.st125{fill:#fff;stroke:#ff405e}.st125,.st126,.st127{stroke-miterlimit:10}.st126{fill:#fff;stroke:#6996aa;stroke-linecap:round}.st127{stroke-linejoin:round}.st127,.st128{fill:none;stroke:#234b5f}.st128,.st129,.st130{stroke-linecap:round;stroke-miterlimit:10}.st129{stroke:#ff405e;fill:none}.st130{fill:#234b5f}.st130,.st131,.st132,.st133{stroke:#234b5f;stroke-linejoin:round}.st131{stroke-miterlimit:10;fill:#fff}.st132,.st133{fill:none}.st133{stroke-dasharray:2.8412,2.8412}.st134,.st135{stroke-width:2;stroke-miterlimit:10}.st134{fill:none;stroke:#ff405e}.st135{stroke:#1a3442;stroke-linecap:round}.st135,.st136,.st137{fill:none}.st136,.st137,.st138{stroke-miterlimit:10}.st136{stroke-width:2;stroke-linecap:round;stroke:#ff405e}.st137,.st138{stroke:#264c5f}.st138{fill:#fff;stroke-width:2;stroke-linecap:round}.st139{fill:#264c5f;stroke:#c3d0db;stroke-width:2}.st139,.st140,.st141,.st142{stroke-linecap:round;stroke-miterlimit:10}.st140{stroke-width:2;fill:#264c5f;stroke:#ff405e}.st141{fill:#99b1c1;stroke:#c3d0db}.st142,.st143{fill:#f2f5f7;stroke:#264c5f}.st143{fill:#fff;stroke-linejoin:round}.st143,.st144{stroke-miterlimit:10}.st144,.st145,.st146{fill:none;stroke:#264c5f;stroke-linejoin:round}.st146{stroke-dasharray:2.8412,2.8412}.st147{stroke:#14283c;stroke-width:2;stroke-miterlimit:10}.st147,.st148{fill:none;stroke-linecap:round}.st148,.st149,.st150,.st151{stroke:#264c5f;stroke-miterlimit:10}.st149{stroke-linecap:round;stroke-linejoin:round;fill:#264c5f}.st150{fill:#c3d0db}.st151{fill:none;stroke-linecap:round;stroke-linejoin:round}.st152{fill:#fff;stroke-miterlimit:10}.st152,.st153{stroke:#264c5f}.st153,.st154,.st155{stroke-miterlimit:10}.st153{fill:#c3d0db}.st153,.st154,.st155{stroke-linecap:round}.st154{fill:#264c5f;stroke:#fff}.st155{fill:#fff;stroke:#6a94a8}.st156{fill:#99b1c1}.st157{fill:url(#SVGID_31_)}.st158{fill:url(#SVGID_32_)}.st159{clip-path:url(#SVGID_34_)}.st160{clip-path:url(#SVGID_36_)}.st161{clip-path:url(#SVGID_38_)}.st162{clip-path:url(#SVGID_40_);fill:#c3d0db}.st163{fill:#ced9e2}.st164{fill:none;stroke:#c3d0db;stroke-miterlimit:10}.st165{clip-path:url(#SVGID_46_)}.st166{fill:url(#SVGID_47_)}.st167{fill:url(#SVGID_48_)}.st168{clip-path:url(#SVGID_50_)}.st169{clip-path:url(#SVGID_52_)}.st170{clip-path:url(#SVGID_54_)}.st171{clip-path:url(#SVGID_56_);fill:#c3d0db}.st172,.st173{opacity:.5;fill:#fff}.st173{fill:#6991aa}.st174{stroke:#eef1f4;stroke-linejoin:round;stroke-miterlimit:10}.st174,.st175,.st176{fill:none}.st175,.st176,.st177,.st178,.st179{stroke-linejoin:round;stroke-miterlimit:10}.st175{stroke:#87a0b3}.st176{stroke:#b6c4d2}.st177{stroke:#fb254c}.st177,.st178,.st179{fill:#fff}.st178{stroke:#142d3c}.st179{stroke:#111e2e}.st180{opacity:.5;fill:#fb415e}.st181,.st182,.st183{fill:none;stroke-linejoin:round}.st181{stroke-miterlimit:10;stroke:#fb415e}.st182,.st183{stroke:#fb254c}.st183{stroke-dasharray:5.6571,5.6571}.st184,.st185{fill:none;stroke:#142d3c;stroke-miterlimit:10}.st185{stroke-dasharray:5.6571,5.6571}.st186{fill:#eef1f4}.st187{fill:none;stroke:#111e2e;stroke-linejoin:round;stroke-miterlimit:10}.st188{fill:#fb415e}.st189{fill:#698fa8}.st190{fill:none;stroke:#142d3c;stroke-linejoin:round;stroke-miterlimit:10}.st191{fill:#939ea7}.st192{fill:#193340}.st193{clip-path:url(#SVGID_60_)}.st194{clip-path:url(#SVGID_62_)}.st195{clip-path:url(#SVGID_64_)}.st196{clip-path:url(#SVGID_66_)}.st197{display:inline}</style><g id="Layer_1"><path class="st62" d="M111.9 154.3c-.1 0-.2 0-.2-.1l-55.4-32c-.2-.1-.2-.3-.2-.4s.1-.3.2-.4l55.9-32.3c.2-.1.3-.1.5 0l55.4 32c.2.1.2.3.2.4s-.1.3-.2.4l-55.9 32.3c-.1.1-.2.1-.3.1zm-54.4-32.5l54.4 31.4 54.9-31.7-54.4-31.4-54.9 31.7z"/><path class="st62" d="M165.1 193.8c-.1 0-.2 0-.2-.1L40.4 122.3c-.2-.1-.3-.3-.3-.4 0-.2.1-.3.2-.4l72.7-42c.2-.1.3-.1.5 0l124.4 71.4c.2.1.3.3.3.4 0 .2-.1.3-.2.4l-72.7 42c0 .1-.1.1-.2.1zM41.7 121.9l123.4 70.9 71.7-41.4-123.4-70.9-71.7 41.4z"/><path class="st62" d="M111.9 159.1c-.1 0-.2 0-.2-.1l-64.1-37c-.2-.1-.2-.3-.2-.4s.1-.3.2-.4l64.6-37.3c.2-.1.3-.1.5 0l64.1 37c.2.1.2.3.2.4s-.1.3-.2.4L112.2 159c-.1.1-.2.1-.3.1zm-63-37.5L112 158l63.6-36.7-63.1-36.4-63.6 36.7z"/><path class="st2" d="M62.9 65l49.3-28.4L161.5 65v56.9l-49.3 28.5-49.3-28.5z"/><path class="st192" d="M112.2 150.9c-.1 0-.2 0-.2-.1l-49.3-28.5c-.2-.1-.2-.3-.2-.4V65c0-.2.1-.3.2-.4L112 36.1c.2-.1.3-.1.5 0l49.3 28.5c.2.1.2.3.2.4v56.9c0 .2-.1.3-.2.4l-49.3 28.5c-.1.1-.2.1-.3.1zm-48.8-29.2l48.8 28.2 48.8-28.2V65.3l-48.8-28.2-48.8 28.2v56.4z"/><path class="st62" d="M161.5 65l-49.3 28.5v56.9l49.3-28.5z"/><path class="st2" d="M117.2 90.5l-5 2.9v5.8l5-2.9zm5 2.9l-5 2.8v5.8l5-2.9z"/><path class="st2" d="M122.2 87.6l-5 2.9v5.8l5-2.9zm5 2.9l-5 2.9v5.8l5-2.9zm5-8.7l-5 2.9v5.8l5-2.9z"/><path class="st2" d="M127.2 96.3l-5 2.9v5.7l5-2.9z"/><path class="st16" d="M112.8 163.2l72.9-41.7"/><path transform="rotate(-29.808 149.283 142.312)" class="st62" d="M107.3 141.8h84v1h-84z"/><path class="st2" d="M117.2 102l-5 2.9v5.8l5-2.9zm15-2.8l-5 2.8v5.8l5-2.9z"/><path class="st192" d="M111.9 150.7c-.1 0-.2 0-.2-.1l-49.3-28.5c-.2-.1-.2-.3-.2-.4V64.8c0-.2.1-.3.2-.4L111.6 36c.2-.1.3-.1.5 0l49.3 28.5c.2.1.2.3.2.4v56.9c0 .2-.1.3-.2.4l-49.3 28.5h-.2zm-48.8-29.2l48.8 28.2 48.8-28.2V65.1L111.9 37 63.1 65.1v56.4z"/><path class="st2" d="M172 126.6h6.1v6.1H172z"/><path class="st5" d="M178.6 133.3h-7.1v-7.1h7.1v7.1zm-6.1-1h5.1v-5.1h-5.1v5.1z"/><path class="st2" d="M142.8 123l30.1-17.4 30.2 17.4v34.7l-30.2 17.4-30.1-17.4z"/><path class="st62" d="M172.9 175.7L142.3 158v-35.3l30.6-17.7 30.6 17.7V158l-30.6 17.7zm-29.6-18.3l29.6 17.1 29.6-17.1v-34.2l-29.6-17.1-29.6 17.1v34.2z"/><path class="st62" d="M172.9 175.1v-34.7l30.2-17.4v34.7z"/><path class="st16" d="M172.9 175.7L142.3 158v-35.3l30.6-17.7 30.6 17.7V158l-30.6 17.7zm-29.6-18.3l29.6 17.1 29.6-17.1v-34.2l-29.6-17.1-29.6 17.1v34.2z"/><path class="st2" d="M182.9 140.2l-5 2.9v5.8l5-2.9z"/><path class="st2" d="M182.9 134.5l-5 2.9v5.8l5-2.9zm10-5.8l-5 2.9v5.8l5-2.9zm-5 14.5l-5 2.8v5.8l5-2.9zm-10 0l-5 2.8v5.8l5-2.9z"/><path class="st2" d="M177.9 148.9l-5 2.9v5.8l5-2.9z"/><path class="st16" d="M62.7 81c-8.8 0-16-7.2-16-16s7.2-16 16-16 16 7.2 16 16-7.2 16-16 16z"/><path class="st2" d="M62.7 50c8.3 0 15 6.7 15 15s-6.7 15-15 15-15-6.7-15-15 6.7-15 15-15m0-2c-9.4 0-17 7.6-17 17s7.6 17 17 17 17-7.6 17-17-7.7-17-17-17z"/><defs><path id="SVGID_59_" d="M203 123.7l-30.1-17.4V71.7L203 89.1z"/></defs><clipPath id="SVGID_1_"><use xlink:href="#SVGID_59_" overflow="visible"/></clipPath><g clip-path="url(#SVGID_1_)"><path class="st16" d="M181.4 99.2l-7.2-4.1v-1.2l3.6-1.8c.5-.3.9-.5 1.1-.8.2-.3.3-.6.3-1 0-.5-.1-1-.4-1.5-.3-.5-.7-.9-1.2-1.1-.6-.3-1-.4-1.3-.2-.3.2-.5.6-.5 1.2l-1.8-1c0-.6.1-1.1.4-1.5.3-.3.7-.5 1.3-.5.5 0 1.2.3 1.9.7 1 .6 1.9 1.3 2.5 2.2.6.9.9 1.8.9 2.7 0 .5-.1 1-.5 1.4-.3.4-.8.8-1.5 1.1l-2.6 1.3 5 2.9v1.2zm2.6-3.8l.6-5 5.7 3.3v1.5l-4.2-2.5-.3 2.4c.5 0 1 .2 1.7.5 1 .6 1.8 1.4 2.4 2.3.6 1 .8 2 .8 3.1s-.3 1.8-.9 2c-.6.3-1.5.1-2.6-.5-1-.6-1.8-1.3-2.4-2.2-.6-.9-1-1.9-1-2.8l1.7 1c.1.6.3 1.1.6 1.5s.7.8 1.2 1.1c.5.3 1 .4 1.3.2.3-.2.5-.7.5-1.3 0-.6-.2-1.3-.5-1.8-.3-.6-.8-1-1.4-1.4-.3-.2-.6-.3-.8-.3s-.5 0-.7.1l-1.7-1.2zm8.7 1.7c0-.6.2-1.1.6-1.2.4-.2 1-.1 1.6.3.7.4 1.2.9 1.6 1.6.4.7.6 1.3.6 2v.5c0 .6-.2 1-.6 1.2-.4.2-1 .1-1.6-.3-.7-.4-1.2-.9-1.6-1.5-.4-.6-.6-1.3-.6-2v-.6zm1.3 1.3c0 .3.1.7.3 1 .2.3.4.6.7.7.3.2.5.2.7.1.2-.1.3-.3.3-.7V99c0-.3-.1-.7-.3-1-.2-.3-.4-.6-.7-.7-.3-.2-.6-.2-.7-.1-.2.1-.3.3-.3.7v.5zm1.4 8.1l-.9-1.1 5.2-5.3.9 1.1-5.2 5.3zm2.5-.4c0-.7.2-1.1.6-1.2s1 0 1.6.3c.7.4 1.2.9 1.6 1.5.4.6.6 1.3.6 2v.5c0 .6-.2 1-.6 1.2-.4.2-1 .1-1.6-.3-.7-.4-1.2-.9-1.7-1.6-.4-.6-.6-1.3-.6-2v-.4zm1.2 1.3c0 .3.1.7.3 1 .2.3.4.6.7.7.3.2.6.2.7.1.2-.1.3-.3.3-.7v-.5c0-.3-.1-.7-.3-1-.2-.3-.4-.6-.7-.7-.3-.2-.5-.2-.7-.1-.2.1-.3.3-.3.7v.5z"/></g><defs><path id="SVGID_61_" d="M151.2 57.3l-38-21.9V4.6l38 21.9z"/></defs><clipPath id="SVGID_3_"><use xlink:href="#SVGID_61_" overflow="visible"/></clipPath><g class="st1"><path class="st16" d="M128.4 25.3l-4.3 7.2-1.9-1.1 4.3-6.8-5.5-3.2V20l7.4 4.3v1zm2.7 5.9l.6-5 5.7 3.3V31l-4.2-2.5-.3 2.4c.5 0 1 .2 1.7.5 1 .6 1.8 1.4 2.4 2.3.6 1 .8 2 .8 3.1s-.3 1.8-.9 2-1.5.1-2.6-.5c-1-.6-1.8-1.3-2.4-2.2-.6-.9-1-1.9-1-2.8l1.7 1c.1.6.3 1.1.6 1.5.3.5.7.8 1.2 1.1.5.3 1 .4 1.3.2.3-.2.5-.7.5-1.3 0-.6-.2-1.3-.5-1.8-.3-.6-.8-1-1.4-1.4-.3-.2-.6-.3-.8-.3s-.5 0-.7.1l-1.7-1.2zm8.7 1.7c0-.6.2-1.1.6-1.2.4-.2 1-.1 1.6.3.7.4 1.2.9 1.6 1.6.4.7.6 1.3.6 2v.5c0 .6-.2 1-.6 1.2-.4.2-1 .1-1.6-.3-.7-.4-1.2-.9-1.6-1.5-.4-.6-.6-1.3-.6-2v-.6zm1.2 1.3c0 .3.1.7.3 1 .2.3.4.6.7.7.3.2.5.2.7.1.2-.1.3-.3.3-.7v-.5c0-.3-.1-.7-.3-1-.2-.3-.4-.6-.7-.7-.3-.2-.6-.2-.7-.1-.2.1-.3.3-.3.7v.5zm1.4 8.1l-.9-1.1 5.2-5.3.9 1.1-5.2 5.3zm2.5-.4c0-.7.2-1.1.6-1.2.4-.2 1 0 1.6.3.7.4 1.2.9 1.6 1.5.4.6.6 1.3.6 2v.5c0 .6-.2 1-.6 1.2-.4.2-1 .1-1.6-.3s-1.2-.9-1.7-1.6c-.4-.6-.6-1.3-.6-2v-.4zm1.3 1.3c0 .3.1.7.3 1 .2.3.4.6.7.7.3.2.6.2.7.1.2-.1.3-.3.3-.7v-.5c0-.3-.1-.7-.3-1-.2-.3-.4-.6-.7-.7-.3-.2-.5-.2-.7-.1-.2.1-.3.3-.3.7v.5z"/></g><path class="st16" d="M109.3 178.3l-34.9-19.8"/><path transform="rotate(-60.372 91.877 168.396)" class="st5" d="M91.4 148.3h1v40.1h-1z"/><path class="st12" d="M16.5 152.3l70.9-40.7"/><path transform="rotate(-29.865 51.933 131.955)" class="st5" d="M11.1 131.4h81.7v1H11.1z"/><path class="st5" d="M12.2 194.5l62.2-36"/><path transform="rotate(-30.034 43.297 176.499)" class="st16" d="M7.3 175.5h72v2h-72z"/><path class="st12" d="M109.3 178.3l49.7-28.5"/><path transform="rotate(-29.808 134.154 164.069)" class="st5" d="M105.5 163.6h57.3v1h-57.3z"/><circle class="st2" cx="87.4" cy="111.6" r="2.5"/><path class="st5" d="M87.4 114.6c-1.6 0-3-1.3-3-3s1.3-3 3-3 3 1.3 3 3-1.4 3-3 3zm0-5c-1.1 0-2 .9-2 2s.9 2 2 2 2-.9 2-2-1-2-2-2z"/><circle class="st2" cx="159" cy="149.8" r="2.5"/><path class="st5" d="M159 152.8c-1.6 0-3-1.3-3-3s1.3-3 3-3 3 1.3 3 3-1.4 3-3 3zm0-4.9c-1.1 0-2 .9-2 2s.9 2 2 2 2-.9 2-2-.9-2-2-2z"/><circle class="st54" cx="74.4" cy="158.8" r="5"/><path class="st2" d="M74.4 164.8c-3.3 0-6-2.7-6-6s2.7-6 6-6 6 2.7 6 6-2.6 6-6 6zm0-10c-2.2 0-4 1.8-4 4s1.8 4 4 4 4-1.8 4-4-1.7-4-4-4z"/><g><path class="st16" d="M49.9 172.7l-33.4-20.4"/><path transform="rotate(-58.554 33.17 162.509)" class="st5" d="M32.7 142.9h1V182h-1z"/></g><g><path class="st12" d="M62.2 165.3l-33.3-20.2"/><path transform="rotate(-58.762 45.575 155.247)" class="st5" d="M45.1 135.8h1v38.9h-1z"/></g><g><circle class="st15" cx="62.2" cy="165.3" r="5"/><path class="st2" d="M62.2 171.3c-3.3 0-6-2.7-6-6s2.7-6 6-6 6 2.7 6 6-2.7 6-6 6zm0-10c-2.2 0-4 1.8-4 4s1.8 4 4 4 4-1.8 4-4-1.8-4-4-4z"/></g><g><circle class="st5" cx="50" cy="172.4" r="5"/><path class="st2" d="M50 178.4c-3.3 0-6-2.7-6-6s2.7-6 6-6 6 2.7 6 6-2.7 6-6 6zm0-10c-2.2 0-4 1.8-4 4s1.8 4 4 4 4-1.8 4-4-1.8-4-4-4z"/></g><g><path class="st2" d="M62.7 74.7c-5.3 0-9.7-4.3-9.7-9.7s4.3-9.7 9.7-9.7c.6 0 1 .4 1 1s-.4 1-1 1c-4.2 0-7.7 3.4-7.7 7.7s3.4 7.7 7.7 7.7 7.7-3.4 7.7-7.7c0-.6.4-1 1-1s1 .4 1 1c-.1 5.4-4.4 9.7-9.7 9.7z"/></g><g><path class="st2" d="M58.5 62.1c0-.5.2-1 .5-1.4.4-.4.8-.5 1.4-.5.6 0 1.1.2 1.4.5.4.4.5.8.5 1.4v.4c0 .5-.2 1-.5 1.3-.4.3-.8.5-1.4.5-.6 0-1-.2-1.4-.5-.4-.3-.5-.8-.5-1.4v-.3zm1.1.5c0 .3.1.5.2.7.2.2.4.3.6.3.3 0 .5-.1.6-.3.2-.2.2-.4.2-.7v-.5c0-.3-.1-.5-.2-.7-.2-.2-.4-.3-.6-.3-.3 0-.5.1-.6.3-.2.2-.2.4-.2.7v.5zm1.2 6.2l-.8-.5 4.4-7.1.8.4-4.4 7.2zm2.1-1.6c0-.6.2-1 .5-1.4.4-.3.8-.5 1.4-.5.6 0 1 .2 1.4.5.4.3.5.8.5 1.4v.4c0 .5-.2 1-.5 1.3-.3.4-.8.5-1.4.5-.6 0-1.1-.2-1.4-.5-.4-.3-.5-.8-.5-1.4v-.3zm1.1.5c0 .3.1.5.2.7.2.2.4.3.6.3.3 0 .5-.1.6-.3.2-.2.2-.4.2-.7v-.5c0-.3-.1-.5-.2-.7-.2-.2-.4-.3-.6-.3-.3 0-.5.1-.6.3-.2.2-.2.4-.2.7v.5z"/></g></g></svg>