<svg id="Layer_1" data-name="Layer 1" xmlns="http://www.w3.org/2000/svg" viewBox="0 0 16.08 28.1"><defs><style>.cls-1{fill:#6991aa;}</style></defs><title>tip</title><rect class="cls-1" x="8.04" y="24.08" width="2.01" height="2.01"/><rect class="cls-1" x="8.04" y="26.09" width="2.01" height="2.01"/><rect class="cls-1" x="6.03" y="26.09" width="2.01" height="2.01"/><rect class="cls-1" x="6.03" y="24.08" width="2.01" height="2.01"/><rect class="cls-1" x="1722.75" y="5985.51" width="2.01" height="2.01" transform="translate(5997.57 -1710.7) rotate(90)"/><rect class="cls-1" x="1722.75" y="5983.5" width="2.01" height="2.01" transform="translate(5995.56 -1712.71) rotate(90)"/><rect class="cls-1" x="1724.76" y="5983.5" width="2.01" height="2.01" transform="translate(5997.57 -1714.72) rotate(90)"/><rect class="cls-1" x="1724.76" y="5985.51" width="2.01" height="2.01" transform="translate(5999.58 -1712.71) rotate(90)"/><rect class="cls-1" x="1722.75" y="5987.52" width="2.01" height="2.01" transform="translate(5999.59 -1708.69) rotate(90)"/><rect class="cls-1" x="1720.74" y="5987.52" width="2.01" height="2.01" transform="translate(5997.57 -1706.68) rotate(90)"/><rect class="cls-1" x="1720.74" y="5985.51" width="2.01" height="2.01" transform="translate(5995.56 -1708.69) rotate(90)"/><rect class="cls-1" x="1724.76" y="5981.49" width="2.01" height="2.01" transform="translate(5995.56 -1716.73) rotate(90)"/><rect class="cls-1" x="1726.78" y="5981.49" width="2.01" height="2.01" transform="translate(5997.57 -1718.74) rotate(90)"/><rect class="cls-1" x="1726.78" y="5983.5" width="2.01" height="2.01" transform="translate(5999.58 -1716.74) rotate(90)"/><rect class="cls-1" x="1716.72" y="5977.47" width="2.01" height="2.01" transform="translate(5983.5 -1712.71) rotate(90)"/><rect class="cls-1" x="1714.71" y="5975.47" width="2.01" height="2.01" transform="translate(5979.49 -1712.7) rotate(90)"/><rect class="cls-1" x="1716.72" y="5973.46" width="2.01" height="2.01" transform="translate(5979.49 -1716.72) rotate(90)"/><rect class="cls-1" x="1720.92" y="5971.27" width="2.01" height="6.39" transform="translate(5983.69 -1720.92) rotate(90)"/><rect class="cls-1" x="1720.74" y="5971.45" width="2.01" height="10.05" transform="translate(5985.52 -1718.73) rotate(90)"/><rect class="cls-1" x="1714.71" y="5977.47" width="2.01" height="2.01" transform="translate(5981.49 -1710.7) rotate(90)"/><rect class="cls-1" x="1712.7" y="5979.48" width="2.01" height="2.01" transform="translate(5981.49 -1706.68) rotate(90)"/><rect class="cls-1" x="1712.7" y="5977.47" width="2.01" height="2.01" transform="translate(5979.48 -1708.69) rotate(90)"/><rect class="cls-1" x="1726.78" y="5979.48" width="2.01" height="2.01" transform="translate(5995.56 -1720.76) rotate(90)"/><rect class="cls-1" x="1726.78" y="5977.47" width="2.01" height="2.01" transform="translate(5993.55 -1722.76) rotate(90)"/><rect class="cls-1" x="1714.71" y="5979.48" width="2.01" height="2.01" transform="translate(5983.5 -1708.69) rotate(90)"/><rect class="cls-1" x="1724.76" y="5977.47" width="2.01" height="2.01" transform="translate(5991.54 -1720.75) rotate(90)"/><rect class="cls-1" x="1724.76" y="5979.48" width="2.01" height="2.01" transform="translate(5993.55 -1718.74) rotate(90)"/><rect class="cls-1" x="1722.75" y="5977.47" width="2.01" height="2.01" transform="translate(5989.53 -1718.74) rotate(90)"/><rect class="cls-1" x="1720.74" y="5991.54" width="2.01" height="2.01" transform="translate(6001.6 -1702.66) rotate(90)"/><rect class="cls-1" x="1720.74" y="5989.53" width="2.01" height="2.01" transform="translate(5999.59 -1704.67) rotate(90)"/><rect class="cls-1" x="1718.73" y="5987.52" width="2.01" height="2.01" transform="translate(5995.56 -1704.67) rotate(90)"/><rect class="cls-1" x="1718.73" y="5989.53" width="2.01" height="2.01" transform="translate(5997.57 -1702.66) rotate(90)"/><rect class="cls-1" x="1718.73" y="5991.54" width="2.01" height="2.01" transform="translate(5999.59 -1700.65) rotate(90)"/></svg>