<?xml version="1.0" encoding="utf-8"?>
<!-- Generator: Adobe Illustrator 19.2.1, SVG Export Plug-In . SVG Version: 6.00 Build 0)  -->
<svg version="1.1" id="Layer_1" xmlns="http://www.w3.org/2000/svg" xmlns:xlink="http://www.w3.org/1999/xlink" x="0px" y="0px"
	 viewBox="0 0 800 360" style="enable-background:new 0 0 800 360;" xml:space="preserve">
<style type="text/css">
	.st0{fill:#F2F6FA;}
	.st1{fill:#183B4D;}
	.st2{fill:#FFFFFF;}
	.st3{fill:#14283C;}
	.st4{fill:#FF405E;}
	.st5{fill:#CDDAE2;}
	.st6{fill:none;}
	.st7{enable-background:new    ;}
	.st8{fill:#7BA1B8;}
</style>
<g>
	<path class="st0" d="M779,342.3H305.7c-5.5,0-10-4.5-10-10V100.1c0-5.5,4.5-10,10-10H779c5.5,0,10,4.5,10,10v232.2
		C789,337.8,784.5,342.3,779,342.3z"/>
</g>
<g>
	<path class="st0" d="M234.5,90.6h-52.8c-1.4,0-2.5-1.1-2.5-2.5V74.2c0-1.4,1.1-2.5,2.5-2.5h52.8c1.4,0,2.5,1.1,2.5,2.5v13.9
		C237,89.4,235.9,90.6,234.5,90.6z"/>
</g>
<g>
	<path class="st1" d="M687,117c0-0.3,0.2-0.5,0.5-0.5l0,0c0.3,0,0.5,0.2,0.5,0.5l0,0c0,0.3-0.2,0.5-0.5,0.5l0,0
		C687.2,117.5,687,117.3,687,117z M687,111c0-0.3,0.2-0.5,0.5-0.5l0,0c0.3,0,0.5,0.2,0.5,0.5l0,0c0,0.3-0.2,0.5-0.5,0.5l0,0
		C687.2,111.5,687,111.3,687,111z M687,105c0-0.3,0.2-0.5,0.5-0.5l0,0c0.3,0,0.5,0.2,0.5,0.5l0,0c0,0.3-0.2,0.5-0.5,0.5l0,0
		C687.2,105.5,687,105.3,687,105z M687,99c0-0.3,0.2-0.5,0.5-0.5l0,0c0.3,0,0.5,0.2,0.5,0.5l0,0c0,0.3-0.2,0.5-0.5,0.5l0,0
		C687.2,99.5,687,99.3,687,99z M687,93c0-0.3,0.2-0.5,0.5-0.5l0,0c0.3,0,0.5,0.2,0.5,0.5l0,0c0,0.3-0.2,0.5-0.5,0.5l0,0
		C687.2,93.5,687,93.3,687,93z M687,87c0-0.3,0.2-0.5,0.5-0.5l0,0c0.3,0,0.5,0.2,0.5,0.5l0,0c0,0.3-0.2,0.5-0.5,0.5l0,0
		C687.2,87.5,687,87.3,687,87z M687,81c0-0.3,0.2-0.5,0.5-0.5l0,0c0.3,0,0.5,0.2,0.5,0.5l0,0c0,0.3-0.2,0.5-0.5,0.5l0,0
		C687.2,81.5,687,81.3,687,81z M687,75c0-0.3,0.2-0.5,0.5-0.5l0,0c0.3,0,0.5,0.2,0.5,0.5l0,0c0,0.3-0.2,0.5-0.5,0.5l0,0
		C687.2,75.5,687,75.3,687,75z M687,69c0-0.3,0.2-0.5,0.5-0.5l0,0c0.3,0,0.5,0.2,0.5,0.5l0,0c0,0.3-0.2,0.5-0.5,0.5l0,0
		C687.2,69.5,687,69.3,687,69z M687,63c0-0.3,0.2-0.5,0.5-0.5l0,0c0.3,0,0.5,0.2,0.5,0.5l0,0c0,0.3-0.2,0.5-0.5,0.5l0,0
		C687.2,63.5,687,63.3,687,63z"/>
</g>
<g>
	<g>
		<path class="st2" d="M708.3,50.2H708c0.7-1.9,1.1-4.1,1.1-6.3c0-10.6-8.6-19.1-19.2-19.1c-8.4,0-15.5,5.4-18.1,12.9
			c-0.6-0.1-1.2-0.1-1.8-0.1c-7.1,0-12.8,5.7-12.8,12.8c0,6.9,5.5,12.5,12.3,12.8l38.8-0.1c3.5,0,6.4-2.9,6.4-6.4
			S711.8,50.2,708.3,50.2z"/>
		<path class="st1" d="M669.5,63.7c-7.2-0.3-12.8-6.2-12.8-13.3c0-7.3,6-13.3,13.3-13.3c0.5,0,1,0,1.5,0.1
			c2.9-7.7,10.2-12.9,18.4-12.9c10.9,0,19.7,8.8,19.7,19.6c0,2-0.3,4-0.9,5.8c3.6,0.2,6.5,3.3,6.5,7c0,3.8-3.1,6.9-6.9,6.9
			L669.5,63.7z M670,38.1c-6.8,0-12.3,5.5-12.3,12.3c0,6.6,5.2,12,11.8,12.3l38.8-0.1c3.2,0,5.9-2.7,5.9-5.9c0-3.3-2.7-6-5.9-6h-1
			l0.2-0.7c0.7-1.9,1.1-4,1.1-6.1c0-10.3-8.4-18.6-18.7-18.6c-7.9,0-15,5-17.6,12.6l-0.1,0.4l-0.4-0.1
			C671.2,38.1,670.6,38.1,670,38.1z"/>
	</g>
</g>
<g>
	<path class="st3" d="M98.6,266h-70c-3.1,0-5.5-2.4-5.5-5.5v-30c0-3.1,2.4-5.5,5.5-5.5h70c3.1,0,5.5,2.4,5.5,5.5v30
		C104.1,263.6,101.7,266,98.6,266z M28.6,226c-2.5,0-4.5,2-4.5,4.5v30c0,2.5,2,4.5,4.5,4.5h70c2.5,0,4.5-2,4.5-4.5v-30
		c0-2.5-2-4.5-4.5-4.5H28.6z"/>
</g>
<g>
	<path class="st3" d="M98.6,326h-70c-3.1,0-5.5-2.4-5.5-5.5v-30c0-3.1,2.4-5.5,5.5-5.5h70c3.1,0,5.5,2.4,5.5,5.5v30
		C104.1,323.6,101.7,326,98.6,326z M28.6,286c-2.5,0-4.5,2-4.5,4.5v30c0,2.5,2,4.5,4.5,4.5h70c2.5,0,4.5-2,4.5-4.5v-30
		c0-2.5-2-4.5-4.5-4.5H28.6z"/>
</g>
<g>
	<g>
		<g>
			<rect x="123" y="277" class="st4" width="14.9" height="1"/>
		</g>
		<g>
			<g>
				<polygon class="st4" points="135.9,279.2 137.6,277.5 135.9,275.8 137.3,275.8 139,277.5 137.3,279.2 				"/>
			</g>
		</g>
	</g>
</g>
<g>
	<path class="st5" d="M742.6,207.4H406.4c-3.1,0-5.5-2.4-5.5-5.5v-70c0-3.1,2.4-5.5,5.5-5.5h336.2c3.1,0,5.5,2.4,5.5,5.5v70
		C748.1,204.9,745.6,207.4,742.6,207.4z M406.4,127.4c-2.5,0-4.5,2-4.5,4.5v70c0,2.5,2,4.5,4.5,4.5h336.2c2.5,0,4.5-2,4.5-4.5v-70
		c0-2.5-2-4.5-4.5-4.5H406.4z"/>
</g>
<g>
	<path class="st0" d="M737.6,201.9H401.4c-2.8,0-5-2.2-5-5v-70c0-2.8,2.2-5,5-5h336.2c2.8,0,5,2.2,5,5v70
		C742.6,199.7,740.4,201.9,737.6,201.9z"/>
	<path class="st5" d="M737.6,202.4H401.4c-3.1,0-5.5-2.4-5.5-5.5v-70c0-3.1,2.4-5.5,5.5-5.5h336.2c3.1,0,5.5,2.4,5.5,5.5v70
		C743.1,200,740.7,202.4,737.6,202.4z M401.4,122.4c-2.5,0-4.5,2-4.5,4.5v70c0,2.5,2,4.5,4.5,4.5h336.2c2.5,0,4.5-2,4.5-4.5v-70
		c0-2.5-2-4.5-4.5-4.5H401.4z"/>
</g>
<g>
	<path class="st0" d="M732.7,196.9H396.5c-2.8,0-5-2.2-5-5v-70c0-2.8,2.2-5,5-5h336.2c2.8,0,5,2.2,5,5v70
		C737.7,194.7,735.4,196.9,732.7,196.9z"/>
	<path class="st5" d="M732.7,197.4H396.5c-3.1,0-5.5-2.4-5.5-5.5v-70c0-3.1,2.4-5.5,5.5-5.5h336.2c3.1,0,5.5,2.4,5.5,5.5v70
		C738.2,194.9,735.7,197.4,732.7,197.4z M396.5,117.4c-2.5,0-4.5,2-4.5,4.5v70c0,2.5,2,4.5,4.5,4.5h336.2c2.5,0,4.5-2,4.5-4.5v-70
		c0-2.5-2-4.5-4.5-4.5H396.5z"/>
</g>
<g>
	<path class="st2" d="M444.8,307.1h-30c-2.8,0-5-2.2-5-5v-30c0-2.8,2.2-5,5-5h30c2.8,0,5,2.2,5,5v30
		C449.8,304.9,447.5,307.1,444.8,307.1z"/>
	<path class="st1" d="M444.8,307.6h-30c-3.1,0-5.5-2.4-5.5-5.5v-30c0-3.1,2.4-5.5,5.5-5.5h30c3.1,0,5.5,2.4,5.5,5.5v30
		C450.3,305.1,447.8,307.6,444.8,307.6z M414.8,267.6c-2.5,0-4.5,2-4.5,4.5v30c0,2.5,2,4.5,4.5,4.5h30c2.5,0,4.5-2,4.5-4.5v-30
		c0-2.5-2-4.5-4.5-4.5H414.8z"/>
</g>
<g>
	<path class="st2" d="M439.8,302.1h-30c-2.8,0-5-2.2-5-5v-30c0-2.8,2.2-5,5-5h30c2.8,0,5,2.2,5,5v30
		C444.8,299.9,442.5,302.1,439.8,302.1z"/>
	<path class="st1" d="M439.8,302.6h-30c-3.1,0-5.5-2.4-5.5-5.5v-30c0-3.1,2.4-5.5,5.5-5.5h30c3.1,0,5.5,2.4,5.5,5.5v30
		C445.3,300.1,442.8,302.6,439.8,302.6z M409.8,262.6c-2.5,0-4.5,2-4.5,4.5v30c0,2.5,2,4.5,4.5,4.5h30c2.5,0,4.5-2,4.5-4.5v-30
		c0-2.5-2-4.5-4.5-4.5H409.8z"/>
</g>
<g>
	<path class="st2" d="M434.8,297.1h-30c-2.8,0-5-2.2-5-5v-30c0-2.8,2.2-5,5-5h30c2.8,0,5,2.2,5,5v30
		C439.8,294.9,437.5,297.1,434.8,297.1z"/>
	<path class="st1" d="M434.8,297.6h-30c-3.1,0-5.5-2.4-5.5-5.5v-30c0-3.1,2.4-5.5,5.5-5.5h30c3.1,0,5.5,2.4,5.5,5.5v30
		C440.3,295.1,437.8,297.6,434.8,297.6z M404.8,257.6c-2.5,0-4.5,2-4.5,4.5v30c0,2.5,2,4.5,4.5,4.5h30c2.5,0,4.5-2,4.5-4.5v-30
		c0-2.5-2-4.5-4.5-4.5H404.8z"/>
</g>
<g>
	<path class="st2" d="M625.2,307.1h-30c-2.8,0-5-2.2-5-5v-30c0-2.8,2.2-5,5-5h30c2.8,0,5,2.2,5,5v30
		C630.2,304.9,628,307.1,625.2,307.1z"/>
	<path class="st1" d="M625.2,307.6h-30c-3.1,0-5.5-2.4-5.5-5.5v-30c0-3.1,2.4-5.5,5.5-5.5h30c3.1,0,5.5,2.4,5.5,5.5v30
		C630.7,305.2,628.3,307.6,625.2,307.6z M595.2,267.6c-2.5,0-4.5,2-4.5,4.5v30c0,2.5,2,4.5,4.5,4.5h30c2.5,0,4.5-2,4.5-4.5v-30
		c0-2.5-2-4.5-4.5-4.5H595.2z"/>
</g>
<g>
	<path class="st2" d="M620.2,302.1h-30c-2.8,0-5-2.2-5-5v-30c0-2.8,2.2-5,5-5h30c2.8,0,5,2.2,5,5v30
		C625.2,299.9,623,302.1,620.2,302.1z"/>
	<path class="st1" d="M620.2,302.6h-30c-3.1,0-5.5-2.4-5.5-5.5v-30c0-3.1,2.4-5.5,5.5-5.5h30c3.1,0,5.5,2.4,5.5,5.5v30
		C625.7,300.2,623.3,302.6,620.2,302.6z M590.2,262.6c-2.5,0-4.5,2-4.5,4.5v30c0,2.5,2,4.5,4.5,4.5h30c2.5,0,4.5-2,4.5-4.5v-30
		c0-2.5-2-4.5-4.5-4.5H590.2z"/>
</g>
<g>
	<path class="st2" d="M615.2,297.1h-30c-2.8,0-5-2.2-5-5v-30c0-2.8,2.2-5,5-5h30c2.8,0,5,2.2,5,5v30
		C620.2,294.9,618,297.1,615.2,297.1z"/>
	<path class="st1" d="M615.2,297.6h-30c-3.1,0-5.5-2.4-5.5-5.5v-30c0-3.1,2.4-5.5,5.5-5.5h30c3.1,0,5.5,2.4,5.5,5.5v30
		C620.7,295.2,618.3,297.6,615.2,297.6z M585.2,257.6c-2.5,0-4.5,2-4.5,4.5v30c0,2.5,2,4.5,4.5,4.5h30c2.5,0,4.5-2,4.5-4.5v-30
		c0-2.5-2-4.5-4.5-4.5H585.2z"/>
</g>
<g>
	<rect x="145.5" y="143.5" class="st6" width="72.1" height="53.4"/>
</g>
<g class="st7">
	<path class="st1" d="M169,148.8h-4.3v3.8h5v0.7h-5.8V144h5.7v0.7h-4.9v3.5h4.3V148.8z"/>
	<path class="st1" d="M171.9,153.2h-0.8v-9.8h0.8V153.2z"/>
	<path class="st1" d="M178.3,153.2c-0.1-0.2-0.1-0.5-0.1-1c-0.3,0.3-0.6,0.6-1,0.8s-0.8,0.3-1.3,0.3c-0.7,0-1.2-0.2-1.6-0.6
		c-0.4-0.4-0.6-0.8-0.6-1.4c0-0.7,0.3-1.2,0.8-1.6c0.6-0.4,1.3-0.6,2.3-0.6h1.4v-0.8c0-0.5-0.2-0.9-0.5-1.2s-0.7-0.4-1.3-0.4
		c-0.5,0-1,0.1-1.3,0.4c-0.3,0.3-0.5,0.6-0.5,1h-0.8c0-0.5,0.3-1,0.8-1.4s1.1-0.6,1.9-0.6c0.8,0,1.4,0.2,1.8,0.6
		c0.4,0.4,0.7,0.9,0.7,1.6v3.2c0,0.7,0.1,1.2,0.2,1.5v0.1L178.3,153.2L178.3,153.2z M175.9,152.7c0.5,0,1-0.1,1.4-0.4
		c0.4-0.2,0.7-0.6,0.9-1v-1.5h-1.4c-0.8,0-1.4,0.1-1.8,0.4s-0.6,0.6-0.6,1.1c0,0.4,0.1,0.7,0.4,1
		C175.1,152.5,175.5,152.7,175.9,152.7z"/>
	<path class="st1" d="M185.1,151.5c0-0.4-0.2-0.7-0.5-0.9s-0.8-0.4-1.4-0.5s-1.1-0.3-1.4-0.4c-0.3-0.2-0.6-0.4-0.7-0.6
		c-0.2-0.2-0.2-0.5-0.2-0.9c0-0.5,0.2-1,0.7-1.3s1-0.5,1.7-0.5c0.8,0,1.4,0.2,1.8,0.6c0.5,0.4,0.7,0.9,0.7,1.5H185
		c0-0.4-0.2-0.7-0.5-1s-0.8-0.4-1.3-0.4s-0.9,0.1-1.2,0.3s-0.5,0.5-0.5,0.9c0,0.3,0.1,0.6,0.4,0.8c0.3,0.2,0.7,0.4,1.4,0.5
		c0.7,0.2,1.2,0.3,1.5,0.5s0.6,0.4,0.7,0.6s0.2,0.6,0.2,0.9c0,0.6-0.2,1-0.7,1.4c-0.5,0.3-1.1,0.5-1.8,0.5c-0.8,0-1.4-0.2-1.9-0.6
		c-0.5-0.4-0.7-0.9-0.7-1.5h0.8c0,0.4,0.2,0.8,0.6,1c0.3,0.2,0.8,0.4,1.4,0.4c0.5,0,1-0.1,1.3-0.3S185.1,151.8,185.1,151.5z"/>
	<path class="st1" d="M188.7,144.6v1.8h1.4v0.6h-1.4v4.6c0,0.4,0.1,0.7,0.2,0.9c0.1,0.2,0.4,0.3,0.7,0.3c0.1,0,0.3,0,0.6-0.1v0.6
		c-0.2,0.1-0.5,0.1-0.8,0.1c-0.5,0-0.9-0.2-1.1-0.5s-0.4-0.7-0.4-1.3V147h-1.3v-0.6h1.3v-1.8L188.7,144.6L188.7,144.6z"/>
	<path class="st1" d="M191.7,144.3c0-0.1,0-0.3,0.1-0.4s0.2-0.1,0.4-0.1s0.3,0,0.4,0.1c0.1,0.1,0.1,0.2,0.1,0.4c0,0.1,0,0.3-0.1,0.4
		c-0.1,0.1-0.2,0.1-0.4,0.1s-0.3,0-0.4-0.1S191.7,144.5,191.7,144.3z M192.6,153.2h-0.8v-6.9h0.8V153.2z"/>
	<path class="st1" d="M197.2,152.7c0.5,0,1-0.1,1.3-0.4c0.4-0.3,0.6-0.7,0.6-1.2h0.7c0,0.4-0.2,0.8-0.4,1.1s-0.6,0.6-1,0.8
		s-0.8,0.3-1.3,0.3c-0.9,0-1.6-0.3-2.1-0.9c-0.5-0.6-0.8-1.5-0.8-2.5v-0.2c0-0.7,0.1-1.3,0.4-1.8c0.2-0.5,0.6-0.9,1-1.2
		s1-0.4,1.6-0.4c0.8,0,1.4,0.2,1.9,0.7c0.5,0.4,0.8,1,0.8,1.8h-0.7c0-0.5-0.2-1-0.6-1.3c-0.4-0.3-0.8-0.5-1.3-0.5
		c-0.7,0-1.2,0.2-1.6,0.7c-0.4,0.5-0.6,1.2-0.6,2.1v0.2c0,0.9,0.2,1.6,0.6,2.1C195.9,152.4,196.5,152.7,197.2,152.7z"/>
</g>
<g class="st7">
	<path class="st1" d="M167.4,167.1c0-0.4-0.2-0.7-0.5-0.9s-0.8-0.4-1.4-0.5s-1.1-0.3-1.4-0.4c-0.3-0.2-0.6-0.4-0.7-0.6
		c-0.2-0.2-0.2-0.5-0.2-0.9c0-0.5,0.2-1,0.7-1.3s1-0.5,1.7-0.5c0.8,0,1.4,0.2,1.8,0.6c0.5,0.4,0.7,0.9,0.7,1.5h-0.8
		c0-0.4-0.2-0.7-0.5-1s-0.8-0.4-1.3-0.4s-0.9,0.1-1.2,0.3s-0.5,0.5-0.5,0.9c0,0.3,0.1,0.6,0.4,0.8c0.3,0.2,0.7,0.4,1.4,0.5
		c0.7,0.2,1.2,0.3,1.5,0.5s0.6,0.4,0.7,0.6s0.2,0.6,0.2,0.9c0,0.6-0.2,1-0.7,1.4c-0.5,0.3-1.1,0.5-1.8,0.5c-0.8,0-1.4-0.2-1.9-0.6
		c-0.5-0.4-0.7-0.9-0.7-1.5h0.8c0,0.4,0.2,0.8,0.6,1c0.3,0.2,0.8,0.4,1.4,0.4c0.5,0,1-0.1,1.3-0.3S167.4,167.4,167.4,167.1z"/>
	<path class="st1" d="M172.5,168.9c-0.6,0-1.1-0.1-1.6-0.4c-0.5-0.3-0.8-0.7-1.1-1.2s-0.4-1.1-0.4-1.7v-0.3c0-0.7,0.1-1.3,0.4-1.8
		c0.3-0.5,0.6-0.9,1.1-1.2s1-0.5,1.5-0.5c0.8,0,1.5,0.3,2,0.9c0.5,0.6,0.7,1.3,0.7,2.3v0.4h-4.9v0.1c0,0.8,0.2,1.4,0.7,1.9
		c0.4,0.5,1,0.8,1.7,0.8c0.4,0,0.8-0.1,1.1-0.2c0.3-0.1,0.6-0.4,0.8-0.7l0.5,0.4C174.4,168.5,173.6,168.9,172.5,168.9z M172.4,162.5
		c-0.6,0-1.1,0.2-1.4,0.6c-0.4,0.4-0.6,1-0.7,1.7h4.1v-0.1c0-0.7-0.2-1.2-0.6-1.6S172.9,162.5,172.4,162.5z"/>
	<path class="st1" d="M180.9,168.8c-0.1-0.2-0.1-0.5-0.1-1c-0.3,0.3-0.6,0.6-1,0.8s-0.8,0.3-1.3,0.3c-0.7,0-1.2-0.2-1.6-0.6
		c-0.4-0.4-0.6-0.8-0.6-1.4c0-0.7,0.3-1.2,0.8-1.6c0.6-0.4,1.3-0.6,2.3-0.6h1.4V164c0-0.5-0.2-0.9-0.5-1.2s-0.7-0.4-1.3-0.4
		c-0.5,0-1,0.1-1.3,0.4c-0.3,0.3-0.5,0.6-0.5,1h-0.8c0-0.5,0.3-1,0.8-1.4s1.1-0.6,1.9-0.6c0.8,0,1.4,0.2,1.8,0.6
		c0.4,0.4,0.7,0.9,0.7,1.6v3.2c0,0.7,0.1,1.2,0.2,1.5v0.1L180.9,168.8L180.9,168.8z M178.5,168.3c0.5,0,1-0.1,1.4-0.4
		c0.4-0.2,0.7-0.6,0.9-1v-1.5h-1.4c-0.8,0-1.4,0.1-1.8,0.4s-0.6,0.6-0.6,1.1c0,0.4,0.1,0.7,0.4,1
		C177.7,168.1,178.1,168.3,178.5,168.3z"/>
	<path class="st1" d="M186.7,162.6c-0.2,0-0.3,0-0.5,0c-0.5,0-0.9,0.1-1.2,0.4c-0.3,0.3-0.6,0.6-0.7,1.2v4.7h-0.8V162h0.7v1.1
		c0.4-0.8,1-1.2,1.9-1.2c0.2,0,0.4,0,0.5,0.1L186.7,162.6z"/>
	<path class="st1" d="M190.3,168.3c0.5,0,1-0.1,1.3-0.4c0.4-0.3,0.6-0.7,0.6-1.2h0.7c0,0.4-0.2,0.8-0.4,1.1s-0.6,0.6-1,0.8
		s-0.8,0.3-1.3,0.3c-0.9,0-1.6-0.3-2.1-0.9c-0.5-0.6-0.8-1.5-0.8-2.5v-0.2c0-0.7,0.1-1.3,0.4-1.8c0.2-0.5,0.6-0.9,1-1.2
		s1-0.4,1.6-0.4c0.8,0,1.4,0.2,1.9,0.7c0.5,0.4,0.8,1,0.8,1.8h-0.7c0-0.5-0.2-1-0.6-1.3c-0.4-0.3-0.8-0.5-1.3-0.5
		c-0.7,0-1.2,0.2-1.6,0.7c-0.4,0.5-0.6,1.2-0.6,2.1v0.2c0,0.9,0.2,1.6,0.6,2.1C189.1,168,189.6,168.3,190.3,168.3z"/>
	<path class="st1" d="M195.2,163.1c0.2-0.4,0.6-0.7,1-1c0.4-0.2,0.8-0.3,1.3-0.3c0.7,0,1.3,0.2,1.6,0.6s0.5,1,0.5,1.9v4.5h-0.8v-4.5
		c0-0.6-0.1-1.1-0.4-1.4c-0.3-0.3-0.7-0.5-1.2-0.5s-0.9,0.1-1.2,0.4c-0.4,0.3-0.6,0.7-0.8,1.2v4.7h-0.8v-9.8h0.8L195.2,163.1
		L195.2,163.1z"/>
</g>
<g>
	<rect x="408.7" y="315.6" class="st6" width="180" height="26.7"/>
</g>
<g class="st7">
	<path class="st1" d="M416.7,325.4h-0.8V321h-5.3v4.4h-0.8v-9.2h0.8v4.2h5.3v-4.2h0.8V325.4z"/>
	<path class="st1" d="M418.5,321.8c0-0.7,0.1-1.3,0.4-1.8s0.6-0.9,1.1-1.2c0.5-0.3,1-0.4,1.6-0.4c0.9,0,1.7,0.3,2.2,1
		c0.6,0.6,0.9,1.5,0.9,2.5v0.2c0,0.7-0.1,1.3-0.4,1.8s-0.6,0.9-1.1,1.2c-0.5,0.3-1,0.4-1.6,0.4c-0.9,0-1.6-0.3-2.2-1
		c-0.6-0.6-0.9-1.5-0.9-2.5V321.8z M419.2,322c0,0.8,0.2,1.5,0.6,2s1,0.8,1.7,0.8s1.2-0.3,1.7-0.8c0.4-0.5,0.6-1.2,0.6-2.1v-0.1
		c0-0.5-0.1-1-0.3-1.4c-0.2-0.4-0.5-0.8-0.8-1c-0.4-0.2-0.8-0.4-1.2-0.4c-0.7,0-1.2,0.3-1.7,0.8c-0.4,0.5-0.6,1.2-0.6,2.1L419.2,322
		L419.2,322z"/>
	<path class="st1" d="M430.3,323.6c0-0.4-0.2-0.7-0.5-0.9c-0.3-0.2-0.8-0.4-1.4-0.5s-1.1-0.3-1.4-0.4c-0.3-0.2-0.6-0.4-0.7-0.6
		c-0.2-0.2-0.2-0.5-0.2-0.9c0-0.5,0.2-1,0.7-1.3c0.5-0.4,1-0.5,1.7-0.5c0.8,0,1.4,0.2,1.8,0.6c0.5,0.4,0.7,0.9,0.7,1.5h-0.8
		c0-0.4-0.2-0.7-0.5-1s-0.8-0.4-1.3-0.4s-0.9,0.1-1.2,0.3c-0.3,0.2-0.5,0.5-0.5,0.9c0,0.3,0.1,0.6,0.4,0.8c0.3,0.2,0.7,0.4,1.4,0.5
		c0.7,0.2,1.2,0.3,1.5,0.5s0.6,0.4,0.7,0.6c0.2,0.2,0.2,0.6,0.2,0.9c0,0.6-0.2,1-0.7,1.4s-1.1,0.5-1.8,0.5c-0.8,0-1.4-0.2-1.9-0.6
		s-0.7-0.9-0.7-1.5h0.8c0,0.4,0.2,0.8,0.6,1c0.3,0.2,0.8,0.4,1.4,0.4c0.5,0,1-0.1,1.3-0.3C430.1,324.3,430.3,324,430.3,323.6z"/>
	<path class="st1" d="M433.9,316.7v1.8h1.4v0.6h-1.4v4.6c0,0.4,0.1,0.7,0.2,0.9s0.4,0.3,0.7,0.3c0.1,0,0.3,0,0.6-0.1v0.6
		c-0.2,0.1-0.5,0.1-0.8,0.1c-0.5,0-0.9-0.2-1.1-0.5s-0.4-0.7-0.4-1.3v-4.6h-1.3v-0.6h1.3v-1.8H433.9z"/>
	<path class="st1" d="M436.8,321.6c0-0.9,0.1-1.8,0.4-2.7c0.2-0.9,0.6-1.7,1-2.4s0.9-1.2,1.5-1.6l0.2,0.5c-0.3,0.2-0.6,0.5-0.8,0.9
		c-0.3,0.4-0.5,0.8-0.7,1.4s-0.4,1.1-0.5,1.8c-0.1,0.7-0.2,1.4-0.2,2.2c0,0.9,0.1,1.7,0.3,2.6c0.2,0.8,0.5,1.5,0.8,2.2
		c0.4,0.6,0.7,1.1,1.2,1.4l-0.2,0.5c-0.5-0.3-1-0.8-1.5-1.6c-0.5-0.7-0.8-1.5-1-2.4S436.8,322.6,436.8,321.6z"/>
	<path class="st1" d="M445.2,323.6c0-0.4-0.2-0.7-0.5-0.9c-0.3-0.2-0.8-0.4-1.4-0.5s-1.1-0.3-1.4-0.4c-0.3-0.2-0.6-0.4-0.7-0.6
		c-0.2-0.2-0.2-0.5-0.2-0.9c0-0.5,0.2-1,0.7-1.3c0.5-0.4,1-0.5,1.7-0.5c0.8,0,1.4,0.2,1.8,0.6c0.5,0.4,0.7,0.9,0.7,1.5h-0.8
		c0-0.4-0.2-0.7-0.5-1s-0.8-0.4-1.3-0.4s-0.9,0.1-1.2,0.3c-0.3,0.2-0.5,0.5-0.5,0.9c0,0.3,0.1,0.6,0.4,0.8c0.3,0.2,0.7,0.4,1.4,0.5
		c0.7,0.2,1.2,0.3,1.5,0.5s0.6,0.4,0.7,0.6c0.2,0.2,0.2,0.6,0.2,0.9c0,0.6-0.2,1-0.7,1.4s-1.1,0.5-1.8,0.5c-0.8,0-1.4-0.2-1.9-0.6
		s-0.7-0.9-0.7-1.5h0.8c0,0.4,0.2,0.8,0.6,1c0.3,0.2,0.8,0.4,1.4,0.4c0.5,0,1-0.1,1.3-0.3C445,324.3,445.2,324,445.2,323.6z"/>
	<path class="st1" d="M449.9,321.7c0,0.9-0.1,1.8-0.3,2.7c-0.2,0.9-0.6,1.6-1,2.4c-0.5,0.7-1,1.2-1.5,1.6l-0.2-0.5
		c0.4-0.3,0.8-0.8,1.2-1.4s0.6-1.3,0.8-2.2s0.3-1.7,0.3-2.7c0-0.9-0.1-1.7-0.3-2.5s-0.5-1.5-0.8-2.2c-0.4-0.6-0.7-1.1-1.1-1.4
		l0.2-0.5c0.5,0.3,1,0.8,1.5,1.6c0.5,0.7,0.8,1.5,1,2.4C449.8,319.8,449.9,320.7,449.9,321.7z"/>
	<path class="st1" d="M456.7,323.8l0.1,0.6l0.2-0.6l1.7-5.3h0.6l1.6,5.2l0.2,0.7l0.1-0.7l1.4-5.3h0.8l-2,6.9h-0.6l-1.8-5.4l-0.1-0.4
		l-0.1,0.4l-1.7,5.4h-0.6l-2-6.9h0.8L456.7,323.8z"/>
	<path class="st1" d="M464.8,316.5c0-0.1,0-0.3,0.1-0.4s0.2-0.1,0.4-0.1c0.2,0,0.3,0,0.4,0.1s0.1,0.2,0.1,0.4c0,0.1,0,0.3-0.1,0.4
		s-0.2,0.1-0.4,0.1c-0.2,0-0.3,0-0.4-0.1C464.9,316.8,464.8,316.6,464.8,316.5z M465.7,325.4h-0.8v-6.9h0.8V325.4z"/>
	<path class="st1" d="M469,316.7v1.8h1.4v0.6H469v4.6c0,0.4,0.1,0.7,0.2,0.9s0.4,0.3,0.7,0.3c0.1,0,0.3,0,0.6-0.1v0.6
		c-0.2,0.1-0.5,0.1-0.8,0.1c-0.5,0-0.9-0.2-1.1-0.5s-0.4-0.7-0.4-1.3v-4.6h-1.3v-0.6h1.3v-1.8H469z"/>
	<path class="st1" d="M472.7,319.6c0.2-0.4,0.6-0.7,1-1c0.4-0.2,0.8-0.3,1.3-0.3c0.7,0,1.3,0.2,1.6,0.6c0.4,0.4,0.5,1,0.5,1.9v4.5
		h-0.8v-4.5c0-0.6-0.1-1.1-0.4-1.4s-0.7-0.5-1.2-0.5s-0.9,0.1-1.2,0.4c-0.4,0.3-0.6,0.7-0.8,1.2v4.7h-0.8v-9.8h0.8V319.6z"/>
	<path class="st1" d="M484.8,324.8c0.5,0,1-0.1,1.3-0.4c0.4-0.3,0.6-0.7,0.6-1.2h0.7c0,0.4-0.2,0.8-0.4,1.1s-0.6,0.6-1,0.8
		c-0.4,0.2-0.8,0.3-1.3,0.3c-0.9,0-1.6-0.3-2.1-0.9s-0.8-1.5-0.8-2.5v-0.2c0-0.7,0.1-1.3,0.4-1.8c0.2-0.5,0.6-0.9,1-1.2
		c0.4-0.3,1-0.4,1.6-0.4c0.8,0,1.4,0.2,1.9,0.7c0.5,0.4,0.8,1,0.8,1.8h-0.7c0-0.5-0.2-1-0.6-1.3s-0.8-0.5-1.3-0.5
		c-0.7,0-1.2,0.2-1.6,0.7s-0.6,1.2-0.6,2.1v0.2c0,0.9,0.2,1.6,0.6,2.1C483.6,324.6,484.1,324.8,484.8,324.8z"/>
	<path class="st1" d="M488.5,321.8c0-0.7,0.1-1.3,0.4-1.8s0.6-0.9,1.1-1.2s1-0.4,1.6-0.4c0.9,0,1.7,0.3,2.2,1
		c0.6,0.6,0.9,1.5,0.9,2.5v0.2c0,0.7-0.1,1.3-0.4,1.8s-0.6,0.9-1.1,1.2c-0.5,0.3-1,0.4-1.6,0.4c-0.9,0-1.6-0.3-2.2-1
		c-0.6-0.6-0.9-1.5-0.9-2.5V321.8z M489.3,322c0,0.8,0.2,1.5,0.6,2s1,0.8,1.7,0.8s1.2-0.3,1.7-0.8c0.4-0.5,0.6-1.2,0.6-2.1v-0.1
		c0-0.5-0.1-1-0.3-1.4c-0.2-0.4-0.5-0.8-0.8-1c-0.4-0.2-0.8-0.4-1.2-0.4c-0.7,0-1.2,0.3-1.7,0.8c-0.4,0.5-0.6,1.2-0.6,2.1L489.3,322
		L489.3,322z"/>
	<path class="st1" d="M496.9,318.5v1.2c0.3-0.4,0.6-0.7,1-1c0.4-0.2,0.8-0.3,1.3-0.3c0.7,0,1.3,0.2,1.6,0.6c0.4,0.4,0.5,1,0.5,1.9
		v4.5h-0.8v-4.5c0-0.6-0.1-1.1-0.4-1.4s-0.7-0.5-1.2-0.5s-0.9,0.1-1.2,0.4c-0.4,0.3-0.6,0.7-0.8,1.2v4.7h-0.8v-6.9L496.9,318.5
		L496.9,318.5z"/>
	<path class="st1" d="M504.5,316.7v1.8h1.4v0.6h-1.4v4.6c0,0.4,0.1,0.7,0.2,0.9c0.1,0.2,0.4,0.3,0.7,0.3c0.1,0,0.3,0,0.6-0.1v0.6
		c-0.2,0.1-0.5,0.1-0.8,0.1c-0.5,0-0.9-0.2-1.1-0.5s-0.4-0.7-0.4-1.3v-4.6h-1.3v-0.6h1.3v-1.8H504.5z"/>
	<path class="st1" d="M511.9,325.4c-0.1-0.2-0.1-0.5-0.1-1c-0.3,0.3-0.6,0.6-1,0.8c-0.4,0.2-0.8,0.3-1.3,0.3c-0.7,0-1.2-0.2-1.6-0.6
		s-0.6-0.8-0.6-1.4c0-0.7,0.3-1.2,0.8-1.6c0.6-0.4,1.3-0.6,2.3-0.6h1.4v-0.8c0-0.5-0.2-0.9-0.5-1.2s-0.7-0.4-1.3-0.4
		c-0.5,0-1,0.1-1.3,0.4s-0.5,0.6-0.5,1h-0.8c0-0.5,0.3-1,0.8-1.4s1.1-0.6,1.9-0.6s1.4,0.2,1.8,0.6c0.4,0.4,0.7,0.9,0.7,1.6v3.2
		c0,0.7,0.1,1.2,0.2,1.5v0.1h-0.9V325.4z M509.5,324.8c0.5,0,1-0.1,1.4-0.4c0.4-0.2,0.7-0.6,0.9-1v-1.5h-1.4c-0.8,0-1.4,0.1-1.8,0.4
		s-0.6,0.6-0.6,1.1c0,0.4,0.1,0.7,0.4,1C508.7,324.7,509,324.8,509.5,324.8z"/>
	<path class="st1" d="M514.5,316.5c0-0.1,0-0.3,0.1-0.4s0.2-0.1,0.4-0.1s0.3,0,0.4,0.1c0.1,0.1,0.1,0.2,0.1,0.4c0,0.1,0,0.3-0.1,0.4
		s-0.2,0.1-0.4,0.1s-0.3,0-0.4-0.1C514.5,316.8,514.5,316.6,514.5,316.5z M515.4,325.4h-0.8v-6.9h0.8V325.4z"/>
	<path class="st1" d="M518.1,318.5v1.2c0.3-0.4,0.6-0.7,1-1c0.4-0.2,0.8-0.3,1.3-0.3c0.7,0,1.3,0.2,1.6,0.6c0.4,0.4,0.5,1,0.5,1.9
		v4.5h-0.8v-4.5c0-0.6-0.1-1.1-0.4-1.4c-0.3-0.3-0.7-0.5-1.2-0.5s-0.9,0.1-1.2,0.4c-0.4,0.3-0.6,0.7-0.8,1.2v4.7h-0.8v-6.9
		L518.1,318.5L518.1,318.5z"/>
	<path class="st1" d="M527.2,325.5c-0.6,0-1.1-0.1-1.6-0.4s-0.8-0.7-1.1-1.2s-0.4-1.1-0.4-1.7v-0.3c0-0.7,0.1-1.3,0.4-1.8
		s0.6-0.9,1.1-1.2s1-0.5,1.5-0.5c0.8,0,1.5,0.3,2,0.9s0.7,1.3,0.7,2.3v0.4h-4.9v0.1c0,0.8,0.2,1.4,0.7,1.9s1,0.8,1.7,0.8
		c0.4,0,0.8-0.1,1.1-0.2s0.6-0.4,0.8-0.7l0.5,0.4C529.1,325.1,528.3,325.5,527.2,325.5z M527.1,319c-0.6,0-1.1,0.2-1.4,0.6
		c-0.4,0.4-0.6,1-0.7,1.7h4.1v-0.1c0-0.7-0.2-1.2-0.6-1.6S527.7,319,527.1,319z"/>
	<path class="st1" d="M534.4,319.1c-0.2,0-0.3,0-0.5,0c-0.5,0-0.9,0.1-1.2,0.4s-0.6,0.6-0.7,1.2v4.7h-0.8v-6.9h0.7v1.1
		c0.4-0.8,1-1.2,1.9-1.2c0.2,0,0.4,0,0.5,0.1L534.4,319.1z"/>
	<path class="st1" d="M539.8,323.6c0-0.4-0.2-0.7-0.5-0.9c-0.3-0.2-0.8-0.4-1.4-0.5s-1.1-0.3-1.4-0.4c-0.3-0.2-0.6-0.4-0.7-0.6
		c-0.2-0.2-0.2-0.5-0.2-0.9c0-0.5,0.2-1,0.7-1.3c0.5-0.4,1-0.5,1.7-0.5c0.8,0,1.4,0.2,1.8,0.6c0.5,0.4,0.7,0.9,0.7,1.5h-0.8
		c0-0.4-0.2-0.7-0.5-1s-0.8-0.4-1.3-0.4s-0.9,0.1-1.2,0.3c-0.3,0.2-0.5,0.5-0.5,0.9c0,0.3,0.1,0.6,0.4,0.8c0.3,0.2,0.7,0.4,1.4,0.5
		c0.7,0.2,1.2,0.3,1.5,0.5s0.6,0.4,0.7,0.6c0.2,0.2,0.2,0.6,0.2,0.9c0,0.6-0.2,1-0.7,1.4s-1.1,0.5-1.8,0.5c-0.8,0-1.4-0.2-1.9-0.6
		s-0.7-0.9-0.7-1.5h0.8c0,0.4,0.2,0.8,0.6,1c0.3,0.2,0.8,0.4,1.4,0.4c0.5,0,1-0.1,1.3-0.3C539.6,324.3,539.8,324,539.8,323.6z"/>
</g>
<g>
	<rect x="27.6" y="239.4" class="st6" width="72.1" height="24.9"/>
</g>
<g class="st7">
	<path class="st1" d="M43.1,247.1l2.3-7.2h1.8l-3.3,9.2h-1.6l-3.3-9.2h1.8L43.1,247.1z"/>
	<path class="st1" d="M51.9,249.1c-0.1-0.1-0.1-0.3-0.2-0.6c-0.5,0.5-1.1,0.8-1.8,0.8s-1.3-0.2-1.7-0.6s-0.7-0.9-0.7-1.5
		c0-0.7,0.3-1.3,0.8-1.7c0.5-0.4,1.3-0.6,2.3-0.6h0.9v-0.5c0-0.4-0.1-0.6-0.3-0.9s-0.5-0.3-0.9-0.3s-0.6,0.1-0.9,0.3
		s-0.3,0.4-0.3,0.7h-1.5c0-0.4,0.1-0.7,0.4-1.1s0.6-0.6,1-0.8c0.4-0.2,0.9-0.3,1.4-0.3c0.8,0,1.4,0.2,1.9,0.6s0.7,1,0.7,1.7v3.1
		c0,0.6,0.1,1.1,0.3,1.5v0.1L51.9,249.1L51.9,249.1z M50.2,248c0.3,0,0.6-0.1,0.9-0.2c0.3-0.1,0.5-0.3,0.6-0.6v-1.3h-0.8
		c-0.6,0-1,0.1-1.3,0.3c-0.3,0.2-0.4,0.5-0.4,0.8s0.1,0.5,0.3,0.7C49.6,247.9,49.9,248,50.2,248z"/>
	<path class="st1" d="M56.3,242.2v0.7c0.5-0.6,1.1-0.8,2-0.8s1.5,0.4,1.9,1.1c0.5-0.7,1.2-1.1,2.1-1.1c0.8,0,1.3,0.2,1.7,0.6
		s0.6,1,0.6,1.9v4.5H63v-4.5c0-0.4-0.1-0.8-0.3-1s-0.5-0.3-0.9-0.3s-0.6,0.1-0.9,0.3c-0.2,0.2-0.4,0.4-0.5,0.7v4.7h-1.5v-4.5
		c0-0.8-0.4-1.2-1.2-1.2c-0.6,0-1.1,0.3-1.3,0.8v5h-1.5v-6.9L56.3,242.2L56.3,242.2z"/>
	<path class="st1" d="M72.2,245.8c0,1.1-0.2,1.9-0.7,2.5s-1.1,0.9-1.9,0.9s-1.4-0.2-1.8-0.7v3.3h-1.5v-9.5h1.4l0.1,0.7
		c0.5-0.5,1.1-0.8,1.8-0.8c0.8,0,1.5,0.3,2,0.9C71.9,243.7,72.2,244.5,72.2,245.8L72.2,245.8z M70.6,245.6c0-0.7-0.1-1.2-0.4-1.6
		s-0.7-0.6-1.2-0.6c-0.6,0-1.1,0.3-1.4,0.8v3c0.3,0.5,0.7,0.8,1.4,0.8c0.5,0,0.9-0.2,1.2-0.6C70.5,247,70.6,246.4,70.6,245.6z"/>
	<path class="st1" d="M83.6,239.9v6.2c0,1-0.3,1.8-0.9,2.3c-0.6,0.6-1.5,0.9-2.5,0.9c-1.1,0-1.9-0.3-2.5-0.8
		c-0.6-0.6-0.9-1.3-0.9-2.4v-6.2h1.6v6.2c0,0.6,0.2,1.1,0.5,1.4s0.8,0.5,1.4,0.5c1.2,0,1.9-0.7,1.9-2v-6.1H83.6z"/>
	<path class="st1" d="M87,249.1h-1.6v-9.2H87V249.1z"/>
</g>
<g>
	<rect x="23.3" y="24.6" class="st6" width="148.5" height="68.5"/>
</g>
<g class="st7">
	<path class="st1" d="M27.2,33.2l0.1,0.2l0.1-0.2l2.9-8.1h0.9l-3.4,9.2h-0.7l-3.4-9.2h0.9L27.2,33.2z"/>
	<path class="st1" d="M36.3,34.4c-0.1-0.2-0.1-0.5-0.1-1c-0.3,0.3-0.6,0.6-1,0.8c-0.4,0.2-0.8,0.3-1.3,0.3c-0.7,0-1.2-0.2-1.6-0.6
		c-0.4-0.4-0.6-0.8-0.6-1.4c0-0.7,0.3-1.2,0.8-1.6c0.6-0.4,1.3-0.6,2.3-0.6h1.4v-0.8c0-0.5-0.2-0.9-0.5-1.2C35.4,28.1,35,28,34.4,28
		c-0.5,0-1,0.1-1.3,0.4s-0.5,0.6-0.5,1h-0.8c0-0.5,0.3-1,0.8-1.4s1.1-0.6,1.9-0.6c0.8,0,1.4,0.2,1.8,0.6c0.4,0.4,0.7,0.9,0.7,1.6
		v3.2c0,0.7,0.1,1.2,0.2,1.5v0.1C37.2,34.4,36.3,34.4,36.3,34.4z M33.9,33.8c0.5,0,1-0.1,1.4-0.4c0.4-0.2,0.7-0.6,0.9-1v-1.5h-1.4
		c-0.8,0-1.4,0.1-1.8,0.4s-0.6,0.6-0.6,1.1c0,0.4,0.1,0.7,0.4,1C33.1,33.7,33.5,33.8,33.9,33.8z"/>
	<path class="st1" d="M39.6,27.5v1.1c0.3-0.4,0.6-0.7,1-0.9c0.4-0.2,0.8-0.3,1.3-0.3c1.1,0,1.8,0.4,2.1,1.3c0.2-0.4,0.6-0.8,1-1
		s0.9-0.3,1.4-0.3c1.5,0,2.2,0.8,2.3,2.4v4.6h-0.8v-4.5c0-0.6-0.1-1.1-0.4-1.4c-0.3-0.3-0.7-0.4-1.3-0.4c-0.5,0-1,0.2-1.4,0.5
		s-0.6,0.8-0.6,1.3v4.5h-0.8v-4.6c0-0.6-0.1-1-0.4-1.3c-0.3-0.3-0.7-0.4-1.3-0.4c-0.5,0-0.9,0.1-1.2,0.4s-0.6,0.7-0.8,1.2v4.7h-0.8
		v-6.9L39.6,27.5L39.6,27.5z"/>
	<path class="st1" d="M56,31c0,1.1-0.2,1.9-0.7,2.5s-1.1,0.9-1.9,0.9c-0.9,0-1.7-0.3-2.2-1V37h-0.8v-9.5h0.7v1
		c0.5-0.7,1.2-1.1,2.2-1.1c0.8,0,1.5,0.3,1.9,0.9C55.7,28.9,55.9,29.8,56,31L56,31L56,31z M55.2,30.9c0-0.9-0.2-1.6-0.5-2.1
		S53.8,28,53.2,28c-0.5,0-0.9,0.1-1.2,0.3c-0.3,0.2-0.6,0.5-0.8,1v3.3c0.2,0.4,0.4,0.7,0.8,0.9s0.7,0.3,1.2,0.3
		c0.6,0,1.1-0.3,1.5-0.8C55,32.6,55.2,31.8,55.2,30.9z"/>
	<path class="st1" d="M63.4,33.8c0.5,0,1-0.1,1.3-0.4c0.4-0.3,0.6-0.7,0.6-1.2H66c0,0.4-0.2,0.8-0.4,1.1s-0.6,0.6-1,0.8
		c-0.4,0.2-0.8,0.3-1.3,0.3c-0.9,0-1.6-0.3-2.1-0.9S60.4,32,60.4,31v-0.2c0-0.7,0.1-1.3,0.4-1.8c0.2-0.5,0.6-0.9,1-1.2
		c0.4-0.3,1-0.4,1.6-0.4c0.8,0,1.4,0.2,1.9,0.7c0.5,0.4,0.8,1,0.8,1.8h-0.7c0-0.5-0.2-1-0.6-1.3s-0.8-0.5-1.3-0.5
		c-0.7,0-1.2,0.2-1.6,0.7c-0.4,0.5-0.6,1.2-0.6,2.1v0.2c0,0.9,0.2,1.6,0.6,2.1C62.1,33.6,62.7,33.8,63.4,33.8z"/>
	<path class="st1" d="M67.1,30.8c0-0.7,0.1-1.3,0.4-1.8s0.6-0.9,1.1-1.2c0.5-0.3,1-0.4,1.6-0.4c0.9,0,1.7,0.3,2.2,1
		c0.6,0.6,0.9,1.5,0.9,2.5V31c0,0.7-0.1,1.3-0.4,1.8s-0.6,0.9-1.1,1.2s-1,0.4-1.6,0.4c-0.9,0-1.6-0.3-2.2-1
		C67.4,32.8,67.1,31.9,67.1,30.8L67.1,30.8z M67.9,31c0,0.8,0.2,1.5,0.6,2s1,0.8,1.7,0.8s1.2-0.3,1.7-0.8c0.4-0.5,0.6-1.2,0.6-2.1
		v-0.1c0-0.5-0.1-1-0.3-1.4s-0.5-0.8-0.8-1S70.6,28,70.2,28c-0.7,0-1.2,0.3-1.7,0.8S67.9,30,67.9,31L67.9,31z"/>
	<path class="st1" d="M75.5,27.5v1.2c0.3-0.4,0.6-0.7,1-1c0.4-0.2,0.8-0.3,1.3-0.3c0.7,0,1.3,0.2,1.6,0.6s0.5,1,0.5,1.9v4.5h-0.8
		v-4.5c0-0.6-0.1-1.1-0.4-1.4S78,28,77.5,28s-0.9,0.1-1.2,0.4c-0.4,0.3-0.6,0.7-0.8,1.2v4.7h-0.8v-6.9h0.8V27.5z"/>
	<path class="st1" d="M83.1,25.7v1.8h1.4v0.6h-1.4v4.6c0,0.4,0.1,0.7,0.2,0.9c0.1,0.2,0.4,0.3,0.7,0.3c0.1,0,0.3,0,0.6-0.1v0.6
		c-0.2,0.1-0.5,0.1-0.8,0.1c-0.5,0-0.9-0.2-1.1-0.5s-0.4-0.7-0.4-1.3v-4.6H81v-0.6h1.3v-1.8H83.1z"/>
	<path class="st1" d="M89.3,28.1c-0.2,0-0.3,0-0.5,0c-0.5,0-0.9,0.1-1.2,0.4c-0.3,0.3-0.6,0.6-0.7,1.2v4.7h-0.8v-6.9h0.7v1.1
		c0.4-0.8,1-1.2,1.9-1.2c0.2,0,0.4,0,0.5,0.1L89.3,28.1z"/>
	<path class="st1" d="M89.9,30.8c0-0.7,0.1-1.3,0.4-1.8s0.6-0.9,1.1-1.2c0.5-0.3,1-0.4,1.6-0.4c0.9,0,1.7,0.3,2.2,1
		c0.6,0.6,0.9,1.5,0.9,2.5V31c0,0.7-0.1,1.3-0.4,1.8s-0.6,0.9-1.1,1.2s-1,0.4-1.6,0.4c-0.9,0-1.6-0.3-2.2-1
		C90.2,32.8,89.9,31.9,89.9,30.8L89.9,30.8z M90.7,31c0,0.8,0.2,1.5,0.6,2s1,0.8,1.7,0.8s1.2-0.3,1.7-0.8c0.4-0.5,0.6-1.2,0.6-2.1
		v-0.1c0-0.5-0.1-1-0.3-1.4s-0.5-0.8-0.8-1S93.5,28,93,28c-0.7,0-1.2,0.3-1.7,0.8S90.7,30,90.7,31C90.7,30.9,90.7,31,90.7,31z"/>
	<path class="st1" d="M98.5,34.4h-0.8v-9.8h0.8V34.4z"/>
	<path class="st1" d="M104.4,27.5v1.1c0.3-0.4,0.6-0.7,1-0.9c0.4-0.2,0.8-0.3,1.3-0.3c1.1,0,1.8,0.4,2.1,1.3c0.2-0.4,0.6-0.8,1-1
		s0.9-0.3,1.4-0.3c1.5,0,2.2,0.8,2.3,2.4v4.6h-0.8v-4.5c0-0.6-0.1-1.1-0.4-1.4s-0.7-0.4-1.3-0.4c-0.5,0-1,0.2-1.4,0.5
		s-0.6,0.8-0.6,1.3v4.5h-0.8v-4.6c0-0.6-0.1-1-0.4-1.3s-0.7-0.4-1.3-0.4c-0.5,0-0.9,0.1-1.2,0.4c-0.3,0.3-0.6,0.7-0.8,1.2v4.7h-0.8
		v-6.9L104.4,27.5L104.4,27.5z"/>
	<path class="st1" d="M117.9,34.5c-0.6,0-1.1-0.1-1.6-0.4s-0.8-0.7-1.1-1.2c-0.3-0.5-0.4-1.1-0.4-1.7v-0.3c0-0.7,0.1-1.3,0.4-1.8
		s0.6-0.9,1.1-1.2s1-0.5,1.5-0.5c0.8,0,1.5,0.3,2,0.9s0.7,1.3,0.7,2.3V31h-4.9v0.1c0,0.8,0.2,1.4,0.7,1.9c0.4,0.5,1,0.8,1.7,0.8
		c0.4,0,0.8-0.1,1.1-0.2c0.3-0.1,0.6-0.4,0.8-0.7l0.5,0.4C119.8,34.1,119,34.5,117.9,34.5z M117.8,28c-0.6,0-1.1,0.2-1.4,0.6
		c-0.4,0.4-0.6,1-0.7,1.7h4.1v-0.1c0-0.7-0.2-1.2-0.6-1.6S118.3,28,117.8,28z"/>
	<path class="st1" d="M126.1,32.6c0-0.4-0.2-0.7-0.5-0.9c-0.3-0.2-0.8-0.4-1.4-0.5s-1.1-0.3-1.4-0.4c-0.3-0.2-0.6-0.4-0.7-0.6
		c-0.2-0.2-0.2-0.5-0.2-0.9c0-0.5,0.2-1,0.7-1.3s1-0.5,1.7-0.5c0.8,0,1.4,0.2,1.8,0.6c0.5,0.4,0.7,0.9,0.7,1.5H126
		c0-0.4-0.2-0.7-0.5-1s-0.8-0.4-1.3-0.4s-0.9,0.1-1.2,0.3c-0.3,0.2-0.5,0.5-0.5,0.9c0,0.3,0.1,0.6,0.4,0.8c0.3,0.2,0.7,0.4,1.4,0.5
		c0.7,0.2,1.2,0.3,1.5,0.5s0.6,0.4,0.7,0.6s0.2,0.6,0.2,0.9c0,0.6-0.2,1-0.7,1.4c-0.5,0.3-1.1,0.5-1.8,0.5c-0.8,0-1.4-0.2-1.9-0.6
		s-0.7-0.9-0.7-1.5h0.8c0,0.4,0.2,0.8,0.6,1c0.3,0.2,0.8,0.4,1.4,0.4c0.5,0,1-0.1,1.3-0.3S126.1,33,126.1,32.6z"/>
	<path class="st1" d="M132.7,32.6c0-0.4-0.2-0.7-0.5-0.9c-0.3-0.2-0.8-0.4-1.4-0.5s-1.1-0.3-1.4-0.4c-0.3-0.2-0.6-0.4-0.7-0.6
		c-0.2-0.2-0.2-0.5-0.2-0.9c0-0.5,0.2-1,0.7-1.3s1-0.5,1.7-0.5c0.8,0,1.4,0.2,1.8,0.6c0.5,0.4,0.7,0.9,0.7,1.5h-0.8
		c0-0.4-0.2-0.7-0.5-1s-0.8-0.4-1.3-0.4s-0.9,0.1-1.2,0.3c-0.3,0.2-0.5,0.5-0.5,0.9c0,0.3,0.1,0.6,0.4,0.8c0.3,0.2,0.7,0.4,1.4,0.5
		c0.7,0.2,1.2,0.3,1.5,0.5s0.6,0.4,0.7,0.6s0.2,0.6,0.2,0.9c0,0.6-0.2,1-0.7,1.4c-0.5,0.3-1.1,0.5-1.8,0.5c-0.8,0-1.4-0.2-1.9-0.6
		s-0.7-0.9-0.7-1.5h0.8c0,0.4,0.2,0.8,0.6,1c0.3,0.2,0.8,0.4,1.4,0.4c0.5,0,1-0.1,1.3-0.3S132.7,33,132.7,32.6z"/>
	<path class="st1" d="M139.5,34.4c-0.1-0.2-0.1-0.5-0.1-1c-0.3,0.3-0.6,0.6-1,0.8c-0.4,0.2-0.8,0.3-1.3,0.3c-0.7,0-1.2-0.2-1.6-0.6
		c-0.4-0.4-0.6-0.8-0.6-1.4c0-0.7,0.3-1.2,0.8-1.6c0.6-0.4,1.3-0.6,2.3-0.6h1.4v-0.8c0-0.5-0.2-0.9-0.5-1.2
		c-0.3-0.3-0.7-0.4-1.3-0.4c-0.5,0-1,0.1-1.3,0.4s-0.5,0.6-0.5,1H135c0-0.5,0.3-1,0.8-1.4s1.1-0.6,1.9-0.6c0.8,0,1.4,0.2,1.8,0.6
		c0.4,0.4,0.7,0.9,0.7,1.6v3.2c0,0.7,0.1,1.2,0.2,1.5v0.1L139.5,34.4L139.5,34.4z M137.1,33.8c0.5,0,1-0.1,1.4-0.4
		c0.4-0.2,0.7-0.6,0.9-1v-1.5H138c-0.8,0-1.4,0.1-1.8,0.4s-0.6,0.6-0.6,1.1c0,0.4,0.1,0.7,0.4,1C136.2,33.7,136.6,33.8,137.1,33.8z"
		/>
	<path class="st1" d="M141.8,30.9c0-1.1,0.2-1.9,0.7-2.6c0.5-0.6,1.1-0.9,1.9-0.9c0.9,0,1.6,0.4,2.1,1.1v-1h0.7v6.7
		c0,0.9-0.2,1.6-0.7,2.1s-1.2,0.8-2,0.8c-0.5,0-0.9-0.1-1.4-0.3c-0.4-0.2-0.8-0.5-1-0.9l0.4-0.5c0.5,0.7,1.2,1,1.9,1
		c0.6,0,1.1-0.2,1.5-0.6s0.5-0.9,0.6-1.6v-0.9c-0.5,0.7-1.2,1-2.1,1c-0.8,0-1.4-0.3-1.9-1s-0.7-1.5-0.7-2.6V30.9z M142.5,31
		c0,0.9,0.2,1.6,0.5,2.1s0.8,0.8,1.5,0.8c0.9,0,1.6-0.4,2-1.3v-3.2c-0.2-0.4-0.4-0.8-0.8-1S145,28,144.6,28c-0.6,0-1.1,0.3-1.5,0.8
		C142.7,29.3,142.5,30,142.5,31z"/>
	<path class="st1" d="M152,34.5c-0.6,0-1.1-0.1-1.6-0.4s-0.8-0.7-1.1-1.2s-0.4-1.1-0.4-1.7v-0.3c0-0.7,0.1-1.3,0.4-1.8
		c0.3-0.5,0.6-0.9,1.1-1.2s1-0.5,1.5-0.5c0.8,0,1.5,0.3,2,0.9s0.7,1.3,0.7,2.3V31h-4.9v0.1c0,0.8,0.2,1.4,0.7,1.9
		c0.4,0.5,1,0.8,1.7,0.8c0.4,0,0.8-0.1,1.1-0.2s0.6-0.4,0.8-0.7l0.5,0.4C153.8,34.1,153,34.5,152,34.5z M151.8,28
		c-0.6,0-1.1,0.2-1.4,0.6c-0.4,0.4-0.6,1-0.7,1.7h4.1v-0.1c0-0.7-0.2-1.2-0.6-1.6S152.4,28,151.8,28z"/>
	<path class="st1" d="M160.1,32.6c0-0.4-0.2-0.7-0.5-0.9c-0.3-0.2-0.8-0.4-1.4-0.5s-1.1-0.3-1.4-0.4c-0.3-0.2-0.6-0.4-0.7-0.6
		c-0.2-0.2-0.2-0.5-0.2-0.9c0-0.5,0.2-1,0.7-1.3s1-0.5,1.7-0.5c0.8,0,1.4,0.2,1.8,0.6c0.5,0.4,0.7,0.9,0.7,1.5H160
		c0-0.4-0.2-0.7-0.5-1s-0.8-0.4-1.3-0.4s-0.9,0.1-1.2,0.3c-0.3,0.2-0.5,0.5-0.5,0.9c0,0.3,0.1,0.6,0.4,0.8c0.3,0.2,0.7,0.4,1.4,0.5
		c0.7,0.2,1.2,0.3,1.5,0.5s0.6,0.4,0.7,0.6s0.2,0.6,0.2,0.9c0,0.6-0.2,1-0.7,1.4c-0.5,0.3-1.1,0.5-1.8,0.5c-0.8,0-1.4-0.2-1.9-0.6
		s-0.7-0.9-0.7-1.5h0.8c0,0.4,0.2,0.8,0.6,1c0.3,0.2,0.8,0.4,1.4,0.4c0.5,0,1-0.1,1.3-0.3S160.1,33,160.1,32.6z"/>
</g>
<g class="st7">
	<path class="st1" d="M30.8,51.1v6.3c0,0.6-0.1,1.2-0.4,1.6s-0.7,0.8-1.1,1.1c-0.5,0.2-1.1,0.4-1.7,0.4c-1,0-1.8-0.3-2.3-0.8
		c-0.6-0.5-0.9-1.3-0.9-2.2v-6.4h0.8v6.3c0,0.8,0.2,1.4,0.7,1.8s1,0.6,1.8,0.6s1.4-0.2,1.8-0.6s0.7-1,0.7-1.8v-6.3H30.8z"/>
	<path class="st1" d="M36.9,58.6c0-0.4-0.2-0.7-0.5-0.9c-0.3-0.2-0.8-0.4-1.4-0.5s-1.1-0.3-1.4-0.4c-0.3-0.2-0.6-0.4-0.7-0.6
		c-0.2-0.2-0.2-0.5-0.2-0.9c0-0.5,0.2-1,0.7-1.3s1-0.5,1.7-0.5c0.8,0,1.4,0.2,1.8,0.6c0.5,0.4,0.7,0.9,0.7,1.5h-0.8
		c0-0.4-0.2-0.7-0.5-1C36,54.1,35.6,54,35.1,54s-0.9,0.1-1.2,0.3c-0.3,0.2-0.5,0.5-0.5,0.9c0,0.3,0.1,0.6,0.4,0.8
		c0.3,0.2,0.7,0.4,1.4,0.5c0.7,0.2,1.2,0.3,1.5,0.5s0.6,0.4,0.7,0.6s0.2,0.6,0.2,0.9c0,0.6-0.2,1-0.7,1.4c-0.5,0.3-1.1,0.5-1.8,0.5
		c-0.8,0-1.4-0.2-1.9-0.6s-0.7-0.9-0.7-1.5h0.8c0,0.4,0.2,0.8,0.6,1c0.3,0.2,0.8,0.4,1.4,0.4c0.5,0,1-0.1,1.3-0.3S36.9,59,36.9,58.6
		z"/>
	<path class="st1" d="M42,60.5c-0.6,0-1.1-0.1-1.6-0.4s-0.8-0.7-1.1-1.2s-0.4-1.1-0.4-1.7v-0.3c0-0.7,0.1-1.3,0.4-1.8
		c0.3-0.5,0.6-0.9,1.1-1.2s1-0.5,1.5-0.5c0.8,0,1.5,0.3,2,0.9s0.7,1.3,0.7,2.3V57h-4.9v0.1c0,0.8,0.2,1.4,0.7,1.9
		c0.4,0.5,1,0.8,1.7,0.8c0.4,0,0.8-0.1,1.1-0.2s0.6-0.4,0.8-0.7l0.5,0.4C43.9,60.1,43.1,60.5,42,60.5z M41.9,54
		c-0.6,0-1.1,0.2-1.4,0.6c-0.4,0.4-0.6,1-0.7,1.7h4.1v-0.1c0-0.7-0.2-1.2-0.6-1.6S42.5,54,41.9,54z"/>
	<path class="st1" d="M49.3,54.1c-0.2,0-0.3,0-0.5,0c-0.5,0-0.9,0.1-1.2,0.4s-0.6,0.6-0.7,1.2v4.7h-0.8v-6.9h0.7v1.1
		c0.4-0.8,1-1.2,1.9-1.2c0.2,0,0.4,0,0.5,0.1L49.3,54.1z"/>
	<path class="st1" d="M53.5,61.1h-0.7l3.9-10h0.7L53.5,61.1z"/>
	<path class="st1" d="M59.7,56.6v3.8H59v-9.2h3.1c1,0,1.7,0.2,2.3,0.7c0.6,0.5,0.8,1.2,0.8,2c0,0.9-0.3,1.5-0.8,2s-1.3,0.7-2.3,0.7
		H59.7z M59.7,55.9h2.4c0.8,0,1.3-0.2,1.7-0.5s0.6-0.9,0.6-1.5s-0.2-1.1-0.6-1.5s-1-0.6-1.7-0.6h-2.4V55.9z"/>
	<path class="st1" d="M70,54.1c-0.2,0-0.3,0-0.5,0c-0.5,0-0.9,0.1-1.2,0.4c-0.3,0.3-0.6,0.6-0.7,1.2v4.7h-0.8v-6.9h0.7v1.1
		c0.4-0.8,1-1.2,1.9-1.2c0.2,0,0.4,0,0.5,0.1L70,54.1z"/>
	<path class="st1" d="M70.6,56.8c0-0.7,0.1-1.3,0.4-1.8s0.6-0.9,1.1-1.2c0.5-0.3,1-0.4,1.6-0.4c0.9,0,1.7,0.3,2.2,1
		c0.6,0.6,0.9,1.5,0.9,2.5V57c0,0.7-0.1,1.3-0.4,1.8s-0.6,0.9-1.1,1.2s-1,0.4-1.6,0.4c-0.9,0-1.6-0.3-2.2-1
		C70.9,58.8,70.6,57.9,70.6,56.8L70.6,56.8z M71.4,57c0,0.8,0.2,1.5,0.6,2s1,0.8,1.7,0.8s1.2-0.3,1.7-0.8c0.4-0.5,0.6-1.2,0.6-2.1
		v-0.1c0-0.5-0.1-1-0.3-1.4s-0.5-0.8-0.8-1S74.1,54,73.7,54c-0.7,0-1.2,0.3-1.7,0.8S71.4,56,71.4,57L71.4,57z"/>
	<path class="st1" d="M78,56.9c0-1.1,0.2-1.9,0.7-2.5s1.1-0.9,1.9-0.9c0.9,0,1.6,0.4,2.1,1.1v-3.9h0.8v9.8h-0.7v-0.9
		c-0.5,0.7-1.2,1-2.1,1c-0.8,0-1.4-0.3-1.9-1S78,58,78,56.9L78,56.9z M78.8,57c0,0.9,0.2,1.6,0.5,2.1s0.8,0.8,1.5,0.8
		c0.9,0,1.6-0.4,2-1.2v-3.2c-0.4-0.9-1.1-1.3-2-1.3c-0.6,0-1.1,0.3-1.5,0.8C79,55.3,78.8,56,78.8,57z"/>
	<path class="st1" d="M90,59.5c-0.5,0.7-1.2,1-2.2,1c-0.7,0-1.3-0.2-1.7-0.6c-0.4-0.4-0.6-1.1-0.6-1.9v-4.5h0.8v4.4
		c0,1.3,0.5,2,1.6,2s1.8-0.5,2.1-1.4v-5h0.8v6.9H90V59.5z"/>
	<path class="st1" d="M95.2,59.8c0.5,0,1-0.1,1.3-0.4c0.4-0.3,0.6-0.7,0.6-1.2h0.7c0,0.4-0.2,0.8-0.4,1.1s-0.6,0.6-1,0.8
		c-0.4,0.2-0.8,0.3-1.3,0.3c-0.9,0-1.6-0.3-2.1-0.9S92.2,58,92.2,57v-0.2c0-0.7,0.1-1.3,0.4-1.8c0.2-0.5,0.6-0.9,1-1.2
		c0.4-0.3,1-0.4,1.6-0.4c0.8,0,1.4,0.2,1.9,0.7c0.5,0.4,0.8,1,0.8,1.8h-0.7c0-0.5-0.2-1-0.6-1.3s-0.8-0.5-1.3-0.5
		c-0.7,0-1.2,0.2-1.6,0.7s-0.6,1.2-0.6,2.1v0.2c0,0.9,0.2,1.6,0.6,2.1C94,59.6,94.5,59.8,95.2,59.8z"/>
	<path class="st1" d="M100.6,51.7v1.8h1.4v0.6h-1.4v4.6c0,0.4,0.1,0.7,0.2,0.9c0.1,0.2,0.4,0.3,0.7,0.3c0.1,0,0.3,0,0.6-0.1v0.6
		c-0.2,0.1-0.5,0.1-0.8,0.1c-0.5,0-0.9-0.2-1.1-0.5s-0.4-0.7-0.4-1.3v-4.6h-1.3v-0.6h1.3v-1.8H100.6z"/>
	<path class="st1" d="M103.5,51.5c0-0.1,0-0.3,0.1-0.4s0.2-0.1,0.4-0.1s0.3,0,0.4,0.1s0.1,0.2,0.1,0.4c0,0.1,0,0.3-0.1,0.4
		S104.2,52,104,52s-0.3,0-0.4-0.1S103.5,51.6,103.5,51.5z M104.4,60.4h-0.8v-6.9h0.8V60.4z"/>
	<path class="st1" d="M106,56.8c0-0.7,0.1-1.3,0.4-1.8s0.6-0.9,1.1-1.2c0.5-0.3,1-0.4,1.6-0.4c0.9,0,1.7,0.3,2.2,1
		c0.6,0.6,0.9,1.5,0.9,2.5V57c0,0.7-0.1,1.3-0.4,1.8s-0.6,0.9-1.1,1.2s-1,0.4-1.6,0.4c-0.9,0-1.6-0.3-2.2-1
		C106.3,58.8,106,57.9,106,56.8L106,56.8z M106.8,57c0,0.8,0.2,1.5,0.6,2s1,0.8,1.7,0.8s1.2-0.3,1.7-0.8c0.4-0.5,0.6-1.2,0.6-2.1
		v-0.1c0-0.5-0.1-1-0.3-1.4s-0.5-0.8-0.8-1s-0.8-0.4-1.2-0.4c-0.7,0-1.2,0.3-1.7,0.8S106.8,56,106.8,57
		C106.8,56.9,106.8,57,106.8,57z"/>
	<path class="st1" d="M114.5,53.5v1.2c0.3-0.4,0.6-0.7,1-1c0.4-0.2,0.8-0.3,1.3-0.3c0.7,0,1.3,0.2,1.6,0.6s0.5,1,0.5,1.9v4.5h-0.8
		v-4.5c0-0.6-0.1-1.1-0.4-1.4S117,54,116.5,54s-0.9,0.1-1.2,0.4c-0.4,0.3-0.6,0.7-0.8,1.2v4.7h-0.8v-6.9h0.8V53.5z"/>
	<path class="st1" d="M125.2,51.7v1.8h1.4v0.6h-1.4v4.6c0,0.4,0.1,0.7,0.2,0.9c0.1,0.2,0.4,0.3,0.7,0.3c0.1,0,0.3,0,0.6-0.1v0.6
		c-0.2,0.1-0.5,0.1-0.8,0.1c-0.5,0-0.9-0.2-1.1-0.5s-0.4-0.7-0.4-1.3v-4.6h-1.3v-0.6h1.3v-1.8H125.2z"/>
	<path class="st1" d="M131.4,54.1c-0.2,0-0.3,0-0.5,0c-0.5,0-0.9,0.1-1.2,0.4s-0.6,0.6-0.7,1.2v4.7h-0.8v-6.9h0.7v1.1
		c0.4-0.8,1-1.2,1.9-1.2c0.2,0,0.4,0,0.5,0.1L131.4,54.1z"/>
	<path class="st1" d="M136.7,60.4c-0.1-0.2-0.1-0.5-0.1-1c-0.3,0.3-0.6,0.6-1,0.8c-0.4,0.2-0.8,0.3-1.3,0.3c-0.7,0-1.2-0.2-1.6-0.6
		c-0.4-0.4-0.6-0.8-0.6-1.4c0-0.7,0.3-1.2,0.8-1.6c0.6-0.4,1.3-0.6,2.3-0.6h1.4v-0.8c0-0.5-0.2-0.9-0.5-1.2
		c-0.3-0.3-0.7-0.4-1.3-0.4c-0.5,0-1,0.1-1.3,0.4s-0.5,0.6-0.5,1h-0.8c0-0.5,0.3-1,0.8-1.4s1.1-0.6,1.9-0.6c0.8,0,1.4,0.2,1.8,0.6
		c0.4,0.4,0.7,0.9,0.7,1.6v3.2c0,0.7,0.1,1.2,0.2,1.5v0.1L136.7,60.4L136.7,60.4z M134.3,59.8c0.5,0,1-0.1,1.4-0.4
		c0.4-0.2,0.7-0.6,0.9-1v-1.5h-1.4c-0.8,0-1.4,0.1-1.8,0.4s-0.6,0.6-0.6,1.1c0,0.4,0.1,0.7,0.4,1C133.5,59.7,133.8,59.8,134.3,59.8z
		"/>
	<path class="st1" d="M139.9,60.4v-6.2h-1.1v-0.6h1.1v-0.8c0-0.7,0.2-1.2,0.5-1.6c0.4-0.4,0.9-0.6,1.5-0.6c0.3,0,0.6,0,0.8,0.1
		l-0.1,0.6c-0.2-0.1-0.4-0.1-0.7-0.1c-0.4,0-0.7,0.1-1,0.4c-0.2,0.3-0.3,0.6-0.3,1.1v0.9h1.6v0.6h-1.6v6.2H139.9z"/>
	<path class="st1" d="M144.2,60.4v-6.2H143v-0.6h1.1v-0.8c0-0.7,0.2-1.2,0.5-1.6c0.4-0.4,0.9-0.6,1.5-0.6c0.3,0,0.6,0,0.8,0.1
		l-0.1,0.6c-0.2-0.1-0.4-0.1-0.7-0.1c-0.4,0-0.7,0.1-1,0.4c-0.2,0.3-0.3,0.6-0.3,1.1v0.9h1.6v0.6h-1.6v6.2H144.2z"/>
	<path class="st1" d="M147.9,51.5c0-0.1,0-0.3,0.1-0.4s0.2-0.1,0.4-0.1s0.3,0,0.4,0.1c0.1,0.1,0.1,0.2,0.1,0.4c0,0.1,0,0.3-0.1,0.4
		s-0.2,0.1-0.4,0.1s-0.3,0-0.4-0.1S147.9,51.6,147.9,51.5z M148.8,60.4H148v-6.9h0.8V60.4z"/>
	<path class="st1" d="M153.4,59.8c0.5,0,1-0.1,1.3-0.4c0.4-0.3,0.6-0.7,0.6-1.2h0.7c0,0.4-0.2,0.8-0.4,1.1s-0.6,0.6-1,0.8
		c-0.4,0.2-0.8,0.3-1.3,0.3c-0.9,0-1.6-0.3-2.1-0.9s-0.8-1.5-0.8-2.5v-0.2c0-0.7,0.1-1.3,0.4-1.8c0.2-0.5,0.6-0.9,1-1.2
		c0.4-0.3,1-0.4,1.6-0.4c0.8,0,1.4,0.2,1.9,0.7c0.5,0.4,0.8,1,0.8,1.8h-0.7c0-0.5-0.2-1-0.6-1.3c-0.4-0.3-0.8-0.5-1.3-0.5
		c-0.7,0-1.2,0.2-1.6,0.7c-0.4,0.5-0.6,1.2-0.6,2.1v0.2c0,0.9,0.2,1.6,0.6,2.1C152.1,59.6,152.7,59.8,153.4,59.8z"/>
</g>
<g class="st7">
	<path class="st1" d="M25.2,82.6v3.8h-0.8v-9.2h3.1c1,0,1.7,0.2,2.3,0.7c0.6,0.5,0.8,1.2,0.8,2c0,0.9-0.3,1.5-0.8,2
		s-1.3,0.7-2.3,0.7H25.2z M25.2,81.9h2.4c0.8,0,1.3-0.2,1.7-0.5s0.6-0.9,0.6-1.5s-0.2-1.1-0.6-1.5s-1-0.6-1.7-0.6h-2.4V81.9z"/>
	<path class="st1" d="M35.4,80.1c-0.2,0-0.3,0-0.5,0c-0.5,0-0.9,0.1-1.2,0.4s-0.6,0.6-0.7,1.2v4.7h-0.8v-6.9H33v1.1
		c0.4-0.8,1-1.2,1.9-1.2c0.2,0,0.4,0,0.5,0.1V80.1z"/>
	<path class="st1" d="M36.1,82.8c0-0.7,0.1-1.3,0.4-1.8c0.3-0.5,0.6-0.9,1.1-1.2c0.5-0.3,1-0.4,1.6-0.4c0.9,0,1.7,0.3,2.2,1
		c0.6,0.6,0.9,1.5,0.9,2.5v0.2c0,0.7-0.1,1.3-0.4,1.8c-0.3,0.5-0.6,0.9-1.1,1.2s-1,0.4-1.6,0.4c-0.9,0-1.6-0.3-2.2-1
		c-0.6-0.6-0.9-1.5-0.9-2.5V82.8z M36.8,83c0,0.8,0.2,1.5,0.6,2c0.4,0.5,1,0.8,1.7,0.8s1.2-0.3,1.7-0.8c0.4-0.5,0.6-1.2,0.6-2.1
		v-0.1c0-0.5-0.1-1-0.3-1.4s-0.5-0.8-0.8-1S39.5,80,39.1,80c-0.7,0-1.2,0.3-1.7,0.8S36.8,82,36.8,83L36.8,83z"/>
	<path class="st1" d="M43.5,82.9c0-1.1,0.2-1.9,0.7-2.5s1.1-0.9,1.9-0.9c0.9,0,1.6,0.4,2.1,1.1v-3.9H49v9.8h-0.7v-0.9
		c-0.5,0.7-1.2,1-2.1,1c-0.8,0-1.4-0.3-1.9-1C43.7,84.9,43.5,84,43.5,82.9L43.5,82.9z M44.2,83c0,0.9,0.2,1.6,0.5,2.1
		s0.8,0.8,1.5,0.8c0.9,0,1.6-0.4,2-1.2v-3.2c-0.4-0.9-1.1-1.3-2-1.3c-0.6,0-1.1,0.3-1.5,0.8C44.4,81.3,44.2,82,44.2,83z"/>
	<path class="st1" d="M55.4,85.5c-0.5,0.7-1.2,1-2.2,1c-0.7,0-1.3-0.2-1.7-0.6s-0.6-1.1-0.6-1.9v-4.5h0.8v4.4c0,1.3,0.5,2,1.6,2
		s1.8-0.5,2.1-1.4v-5h0.8v6.9h-0.7L55.4,85.5z"/>
	<path class="st1" d="M60.7,85.8c0.5,0,1-0.1,1.3-0.4c0.4-0.3,0.6-0.7,0.6-1.2h0.7c0,0.4-0.2,0.8-0.4,1.1s-0.6,0.6-1,0.8
		c-0.4,0.2-0.8,0.3-1.3,0.3c-0.9,0-1.6-0.3-2.1-0.9S57.7,84,57.7,83v-0.2c0-0.7,0.1-1.3,0.4-1.8c0.2-0.5,0.6-0.9,1-1.2
		c0.4-0.3,1-0.4,1.6-0.4c0.8,0,1.4,0.2,1.9,0.7c0.5,0.4,0.8,1,0.8,1.8h-0.7c0-0.5-0.2-1-0.6-1.3c-0.4-0.3-0.8-0.5-1.3-0.5
		c-0.7,0-1.2,0.2-1.6,0.7c-0.4,0.5-0.6,1.2-0.6,2.1v0.2c0,0.9,0.2,1.6,0.6,2.1C59.5,85.6,60,85.8,60.7,85.8z"/>
	<path class="st1" d="M66,77.7v1.8h1.4v0.6H66v4.6c0,0.4,0.1,0.7,0.2,0.9c0.1,0.2,0.4,0.3,0.7,0.3c0.1,0,0.3,0,0.6-0.1v0.6
		c-0.2,0.1-0.5,0.1-0.8,0.1c-0.5,0-0.9-0.2-1.1-0.5s-0.4-0.7-0.4-1.3v-4.6H64v-0.6h1.3v-1.8H66z"/>
	<path class="st1" d="M69,77.5c0-0.1,0-0.3,0.1-0.4s0.2-0.1,0.4-0.1s0.3,0,0.4,0.1s0.1,0.2,0.1,0.4c0,0.1,0,0.3-0.1,0.4
		S69.7,78,69.5,78s-0.3,0-0.4-0.1S69,77.6,69,77.5z M69.9,86.4h-0.8v-6.9h0.8V86.4z"/>
	<path class="st1" d="M71.5,82.8c0-0.7,0.1-1.3,0.4-1.8s0.6-0.9,1.1-1.2c0.5-0.3,1-0.4,1.6-0.4c0.9,0,1.7,0.3,2.2,1
		c0.6,0.6,0.9,1.5,0.9,2.5v0.2c0,0.7-0.1,1.3-0.4,1.8s-0.6,0.9-1.1,1.2s-1,0.4-1.6,0.4c-0.9,0-1.6-0.3-2.2-1
		c-0.6-0.6-0.9-1.5-0.9-2.5V82.8z M72.3,83c0,0.8,0.2,1.5,0.6,2s1,0.8,1.7,0.8s1.2-0.3,1.7-0.8c0.4-0.5,0.6-1.2,0.6-2.1v-0.1
		c0-0.5-0.1-1-0.3-1.4s-0.5-0.8-0.8-1S75,80,74.6,80c-0.7,0-1.2,0.3-1.7,0.8S72.3,82,72.3,83L72.3,83z"/>
	<path class="st1" d="M79.9,79.5v1.2c0.3-0.4,0.6-0.7,1-1c0.4-0.2,0.8-0.3,1.3-0.3c0.7,0,1.3,0.2,1.6,0.6s0.5,1,0.5,1.9v4.5h-0.8
		v-4.5c0-0.6-0.1-1.1-0.4-1.4S82.4,80,81.9,80s-0.9,0.1-1.2,0.4c-0.4,0.3-0.6,0.7-0.8,1.2v4.7h-0.8v-6.9h0.8V79.5z"/>
	<path class="st1" d="M90.5,85.7H95v0.7h-5.4v-9.2h0.8L90.5,85.7L90.5,85.7z"/>
	<path class="st1" d="M101.7,83.8h-4.2l-1,2.6h-0.8l3.5-9.2h0.7l3.5,9.2h-0.8L101.7,83.8z M97.7,83.1h3.7l-1.9-5L97.7,83.1z"/>
	<path class="st1" d="M111.7,86.4h-0.8l-5.3-7.9v7.9h-0.8v-9.2h0.8l5.3,7.9v-7.9h0.8V86.4z"/>
	<path class="st1" d="M113.7,87.1H113l3.9-10h0.7L113.7,87.1z"/>
	<path class="st1" d="M125.1,85.2l0.1,0.2l0.1-0.2l2.9-8.1h0.9l-3.4,9.2H125l-3.4-9.2h0.9L125.1,85.2z"/>
	<path class="st1" d="M131.1,85.7h4.6v0.7h-5.4v-9.2h0.8L131.1,85.7L131.1,85.7z"/>
	<path class="st1" d="M142.3,83.8h-4.2l-1,2.6h-0.8l3.5-9.2h0.7l3.5,9.2h-0.8L142.3,83.8z M138.4,83.1h3.7l-1.9-5L138.4,83.1z"/>
	<path class="st1" d="M152.3,86.4h-0.8l-5.3-7.9v7.9h-0.8v-9.2h0.8l5.3,7.9v-7.9h0.8V86.4z"/>
</g>
<g>
	<rect x="27.6" y="301.3" class="st6" width="72.1" height="24.2"/>
</g>
<g class="st7">
	<path class="st1" d="M39.6,309l2.3-7.2h1.8l-3.3,9.2h-1.6l-3.3-9.2h1.8L39.6,309z"/>
	<path class="st1" d="M48.4,311.1c-0.1-0.1-0.1-0.3-0.2-0.6c-0.5,0.5-1.1,0.8-1.8,0.8s-1.3-0.2-1.7-0.6s-0.7-0.9-0.7-1.5
		c0-0.7,0.3-1.3,0.8-1.7c0.5-0.4,1.3-0.6,2.3-0.6H48v-0.5c0-0.4-0.1-0.6-0.3-0.9s-0.5-0.3-0.9-0.3s-0.6,0.1-0.9,0.3
		s-0.3,0.4-0.3,0.7h-1.5c0-0.4,0.1-0.7,0.4-1.1s0.6-0.6,1-0.8c0.4-0.2,0.9-0.3,1.4-0.3c0.8,0,1.4,0.2,1.9,0.6s0.7,1,0.7,1.7v3.1
		c0,0.6,0.1,1.1,0.3,1.5v0.1L48.4,311.1L48.4,311.1z M46.7,309.9c0.3,0,0.6-0.1,0.9-0.2c0.3-0.1,0.5-0.3,0.6-0.6v-1.3h-0.8
		c-0.6,0-1,0.1-1.3,0.3c-0.3,0.2-0.4,0.5-0.4,0.8s0.1,0.5,0.3,0.7C46.1,309.9,46.4,309.9,46.7,309.9z"/>
	<path class="st1" d="M52.8,304.2v0.7c0.5-0.6,1.1-0.8,2-0.8s1.5,0.4,1.9,1.1c0.5-0.7,1.2-1.1,2.1-1.1c0.8,0,1.3,0.2,1.7,0.6
		s0.6,1,0.6,1.9v4.5h-1.5v-4.5c0-0.4-0.1-0.8-0.3-1s-0.5-0.3-0.9-0.3s-0.6,0.1-0.9,0.3c-0.2,0.2-0.4,0.4-0.5,0.7v4.7h-1.5v-4.5
		c0-0.8-0.4-1.2-1.2-1.2c-0.6,0-1.1,0.3-1.3,0.8v5h-1.5v-6.9L52.8,304.2L52.8,304.2z"/>
	<path class="st1" d="M68.6,307.7c0,1.1-0.2,1.9-0.7,2.5s-1.1,0.9-1.9,0.9s-1.4-0.2-1.8-0.7v3.3h-1.5v-9.5H64l0.1,0.7
		c0.5-0.5,1.1-0.8,1.8-0.8c0.8,0,1.5,0.3,2,0.9S68.6,306.5,68.6,307.7L68.6,307.7z M67.1,307.6c0-0.7-0.1-1.2-0.4-1.6
		s-0.7-0.6-1.2-0.6c-0.6,0-1.1,0.3-1.4,0.8v3c0.3,0.5,0.7,0.8,1.4,0.8c0.5,0,0.9-0.2,1.2-0.6C67,309,67.1,308.4,67.1,307.6z"/>
	<path class="st1" d="M80.4,308c-0.1,1-0.5,1.8-1.1,2.3c-0.6,0.6-1.5,0.8-2.5,0.8c-0.7,0-1.4-0.2-1.9-0.5c-0.6-0.3-1-0.8-1.3-1.5
		c-0.3-0.6-0.5-1.4-0.5-2.2V306c0-0.9,0.2-1.6,0.5-2.3c0.3-0.7,0.8-1.2,1.3-1.5c0.6-0.4,1.2-0.5,2-0.5c1,0,1.8,0.3,2.5,0.8
		c0.6,0.6,1,1.3,1.1,2.3h-1.6c-0.1-0.7-0.3-1.1-0.6-1.4c-0.3-0.3-0.8-0.4-1.4-0.4c-0.7,0-1.2,0.3-1.6,0.8s-0.6,1.3-0.6,2.2v0.8
		c0,1,0.2,1.8,0.5,2.3c0.4,0.5,0.9,0.8,1.6,0.8c0.6,0,1.1-0.1,1.4-0.4s0.5-0.8,0.6-1.4L80.4,308L80.4,308z"/>
	<path class="st1" d="M83.4,309.8h4.2v1.3h-5.8v-9.2h1.6C83.4,301.9,83.4,309.8,83.4,309.8z"/>
	<path class="st1" d="M90.5,311.1h-1.6v-9.2h1.6V311.1z"/>
</g>
<g>
	<path class="st3" d="M181.5,197.3c-19.9,0-36-9.2-36-20.5v-40c0-11.3,16.1-20.5,36-20.5s36,9.2,36,20.5v40
		C217.5,188.1,201.4,197.3,181.5,197.3z M181.5,117.3c-19,0-35,8.9-35,19.5v40c0,10.6,16,19.5,35,19.5s35-8.9,35-19.5v-40
		C216.5,126.2,200.5,117.3,181.5,117.3z"/>
</g>
<g>
	<path class="st1" d="M259.4,305.5h-110c-2.8,0-5-2.2-5-5v-50c0-2.8,2.2-5,5-5h110c2.8,0,5,2.2,5,5v50
		C264.4,303.3,262.2,305.5,259.4,305.5z"/>
</g>
<g>
	<path class="st2" d="M504.7,307.1h-30c-2.8,0-5-2.2-5-5v-30c0-2.8,2.2-5,5-5h30c2.8,0,5,2.2,5,5v30
		C509.7,304.9,507.5,307.1,504.7,307.1z"/>
	<path class="st1" d="M504.7,307.6h-30c-3.1,0-5.5-2.4-5.5-5.5v-30c0-3.1,2.4-5.5,5.5-5.5h30c3.1,0,5.5,2.4,5.5,5.5v30
		C510.2,305.2,507.8,307.6,504.7,307.6z M474.7,267.6c-2.5,0-4.5,2-4.5,4.5v30c0,2.5,2,4.5,4.5,4.5h30c2.5,0,4.5-2,4.5-4.5v-30
		c0-2.5-2-4.5-4.5-4.5H474.7z"/>
</g>
<g>
	<path class="st2" d="M499.7,302.1h-30c-2.8,0-5-2.2-5-5v-30c0-2.8,2.2-5,5-5h30c2.8,0,5,2.2,5,5v30
		C504.7,299.9,502.5,302.1,499.7,302.1z"/>
	<path class="st1" d="M499.7,302.6h-30c-3.1,0-5.5-2.4-5.5-5.5v-30c0-3.1,2.4-5.5,5.5-5.5h30c3.1,0,5.5,2.4,5.5,5.5v30
		C505.2,300.2,502.8,302.6,499.7,302.6z M469.7,262.6c-2.5,0-4.5,2-4.5,4.5v30c0,2.5,2,4.5,4.5,4.5h30c2.5,0,4.5-2,4.5-4.5v-30
		c0-2.5-2-4.5-4.5-4.5H469.7z"/>
</g>
<g>
	<path class="st2" d="M494.7,297.1h-30c-2.8,0-5-2.2-5-5v-30c0-2.8,2.2-5,5-5h30c2.8,0,5,2.2,5,5v30
		C499.7,294.9,497.5,297.1,494.7,297.1z"/>
	<path class="st1" d="M494.7,297.6h-30c-3.1,0-5.5-2.4-5.5-5.5v-30c0-3.1,2.4-5.5,5.5-5.5h30c3.1,0,5.5,2.4,5.5,5.5v30
		C500.2,295.2,497.8,297.6,494.7,297.6z M464.7,257.6c-2.5,0-4.5,2-4.5,4.5v30c0,2.5,2,4.5,4.5,4.5h30c2.5,0,4.5-2,4.5-4.5v-30
		c0-2.5-2-4.5-4.5-4.5H464.7z"/>
</g>
<g>
	<path class="st2" d="M564.7,307.1h-30c-2.8,0-5-2.2-5-5v-30c0-2.8,2.2-5,5-5h30c2.8,0,5,2.2,5,5v30
		C569.7,304.9,567.5,307.1,564.7,307.1z"/>
	<path class="st1" d="M564.7,307.6h-30c-3.1,0-5.5-2.4-5.5-5.5v-30c0-3.1,2.4-5.5,5.5-5.5h30c3.1,0,5.5,2.4,5.5,5.5v30
		C570.2,305.2,567.8,307.6,564.7,307.6z M534.7,267.6c-2.5,0-4.5,2-4.5,4.5v30c0,2.5,2,4.5,4.5,4.5h30c2.5,0,4.5-2,4.5-4.5v-30
		c0-2.5-2-4.5-4.5-4.5H534.7z"/>
</g>
<g>
	<path class="st2" d="M559.7,302.1h-30c-2.8,0-5-2.2-5-5v-30c0-2.8,2.2-5,5-5h30c2.8,0,5,2.2,5,5v30
		C564.7,299.9,562.5,302.1,559.7,302.1z"/>
	<path class="st1" d="M559.7,302.6h-30c-3.1,0-5.5-2.4-5.5-5.5v-30c0-3.1,2.4-5.5,5.5-5.5h30c3.1,0,5.5,2.4,5.5,5.5v30
		C565.2,300.2,562.8,302.6,559.7,302.6z M529.7,262.6c-2.5,0-4.5,2-4.5,4.5v30c0,2.5,2,4.5,4.5,4.5h30c2.5,0,4.5-2,4.5-4.5v-30
		c0-2.5-2-4.5-4.5-4.5H529.7z"/>
</g>
<g>
	<path class="st2" d="M554.7,297.1h-30c-2.8,0-5-2.2-5-5v-30c0-2.8,2.2-5,5-5h30c2.8,0,5,2.2,5,5v30
		C559.7,294.9,557.5,297.1,554.7,297.1z"/>
	<path class="st1" d="M554.7,297.6h-30c-3.1,0-5.5-2.4-5.5-5.5v-30c0-3.1,2.4-5.5,5.5-5.5h30c3.1,0,5.5,2.4,5.5,5.5v30
		C560.2,295.2,557.8,297.6,554.7,297.6z M524.7,257.6c-2.5,0-4.5,2-4.5,4.5v30c0,2.5,2,4.5,4.5,4.5h30c2.5,0,4.5-2,4.5-4.5v-30
		c0-2.5-2-4.5-4.5-4.5H524.7z"/>
</g>
<g>
	<g>
		<g>
			<path class="st2" d="M194.6,273.6h2.1l2.8,7.2l2.7-7.2h1.9l-3.7,9.4h-2L194.6,273.6z"/>
		</g>
		<g>
			<path class="st2" d="M217.3,273.6h1.7v1.5l0,0c0-0.1,0.1-0.3,0.3-0.5s0.4-0.4,0.6-0.6c0.3-0.2,0.6-0.3,0.9-0.5
				c0.4-0.1,0.7-0.2,1.2-0.2c0.7,0,1.3,0.1,1.8,0.4s0.9,0.7,1.2,1.3c0.3-0.6,0.7-1,1.3-1.3s1.1-0.4,1.7-0.4c0.7,0,1.3,0.1,1.8,0.4
				c0.5,0.2,0.8,0.6,1.1,0.9c0.3,0.4,0.4,0.8,0.5,1.3s0.1,1,0.1,1.5v5.5h-1.8v-5.3c0-0.4,0-0.7-0.1-1c0-0.3-0.1-0.6-0.3-0.9
				c-0.1-0.3-0.4-0.5-0.6-0.6c-0.3-0.2-0.6-0.2-1.1-0.2c-0.9,0-1.5,0.3-1.9,0.8s-0.6,1.2-0.6,2.1v5.2h-1.8v-4.9c0-0.5,0-0.9-0.1-1.2
				c0-0.4-0.1-0.7-0.3-1c-0.1-0.3-0.3-0.5-0.6-0.6c-0.3-0.2-0.6-0.2-1-0.2c-0.3,0-0.6,0.1-0.9,0.2c-0.3,0.1-0.6,0.3-0.8,0.6
				c-0.2,0.3-0.4,0.6-0.5,1s-0.2,0.9-0.2,1.4v4.9h-1.8v-9.6L217.3,273.6L217.3,273.6z"/>
		</g>
		<g>
			<path class="st2" d="M233.9,273.6h1.8v1.4l0,0c0.3-0.5,0.8-0.9,1.4-1.2c0.6-0.3,1.2-0.4,1.9-0.4s1.4,0.1,2,0.4s1.1,0.6,1.5,1.1
				s0.7,1,1,1.6c0.2,0.6,0.3,1.3,0.3,1.9c0,0.7-0.1,1.4-0.3,2s-0.5,1.1-1,1.6c-0.4,0.4-0.9,0.8-1.5,1c-0.6,0.3-1.3,0.4-2,0.4
				s-1.3-0.1-1.9-0.4s-1.1-0.7-1.4-1.2l0,0v3.8h-1.8V273.6z M238.8,275c-0.5,0-0.9,0.1-1.3,0.2c-0.4,0.2-0.7,0.4-1,0.7
				c-0.3,0.3-0.5,0.6-0.6,1s-0.2,0.8-0.2,1.3s0.1,0.9,0.2,1.3c0.1,0.4,0.4,0.8,0.6,1c0.3,0.3,0.6,0.5,1,0.7s0.8,0.2,1.3,0.2
				s0.9-0.1,1.3-0.2c0.4-0.2,0.7-0.4,1-0.7c0.3-0.3,0.5-0.6,0.6-1s0.2-0.8,0.2-1.3s-0.1-0.9-0.2-1.3c-0.1-0.4-0.4-0.8-0.6-1
				c-0.3-0.3-0.6-0.5-1-0.7C239.7,275.1,239.2,275,238.8,275z"/>
		</g>
		<g>
			<path class="st2" d="M209.6,283.3c1.4,0,2.7-0.6,3.5-1.6v1.3h1.6v-9.6h-1.6v1.4c-0.8-1-2.2-1.6-3.5-1.6c-2.6,0-4.7,2.2-4.7,5
				C204.9,281.1,207,283.3,209.6,283.3z M209.9,275c1.7,0,3.1,1.5,3.1,3.3s-1.4,3.3-3.1,3.3c-2,0-3.1-1.5-3.1-3.3
				C206.8,276.5,208,275,209.9,275z"/>
		</g>
	</g>
	<g>
		<path class="st4" d="M186.7,266.9c-0.5-0.9-1.5-1.4-2.9-1.4h-5.4h-10.2c-1.4,0-2.4,0.5-2.9,1.4s-0.4,2,0.2,3.2l7.8,13.5
			c0.7,1.2,1.6,1.8,2.7,1.8c1,0,2-0.6,2.7-1.8l7.8-13.5C187.2,268.9,187.2,267.8,186.7,266.9z M166.6,267.6c0.3-0.4,0.9-0.7,1.7-0.7
			h10.2c0.8,0,1.5,0.3,1.7,0.7c0.3,0.4,0.2,1.1-0.2,1.8l-0.4,0.8c-0.2-0.1-0.5-0.2-0.8-0.2H171c-1.3,0-2.4,0.5-2.9,1.4l-1.1-2
			C166.4,268.7,166.3,268,166.6,267.6z M176.1,276.1L176,276l-1.9-3.3l-0.7-1.2c0-0.1-0.1-0.1-0.1-0.1s0.1,0,0.2,0h5.2
			c0.1,0,0.1,0,0.2,0l0,0l-2.6,4.6C176.1,276.1,176.1,276.1,176.1,276.1z M177.5,282.9c-0.4,0.7-0.9,1.1-1.5,1.1
			c-0.5,0-1.1-0.4-1.5-1.1l-5.4-9.3c-0.2-0.6-0.3-1.1-0.1-1.5c0.3-0.4,0.9-0.7,1.7-0.7h1.1c0,0.3,0.1,0.6,0.3,0.9l3.9,6.8
			c0.7,1.2,1.6,1.8,2.7,1.8l0,0L177.5,282.9z M185.3,269.4l-5.3,9.1c-0.4,0.6-0.8,0.9-1.3,0.9s-1.1-0.4-1.5-1.1l-0.5-0.9
			c0.2-0.1,0.5-0.4,0.6-0.6l3.8-6.6c0.7-1.2,0.8-2.3,0.2-3.2l0,0h2.5c0.8,0,1.5,0.3,1.7,0.7C185.8,268,185.7,268.7,185.3,269.4z"/>
	</g>
</g>
<g>
	<path class="st1" d="M615.5,186.2h-211c-2.8,0-5-2.2-5-5v-50c0-2.8,2.2-5,5-5h211c2.8,0,5,2.2,5,5v50
		C620.5,184,618.3,186.2,615.5,186.2z"/>
</g>
<g>
	<g>
		<path class="st4" d="M435.3,147.6c-0.5-0.9-1.6-1.4-2.9-1.4H427h-10.2c-1.4,0-2.4,0.5-2.9,1.4s-0.4,2,0.2,3.2l7.8,13.5
			c0.7,1.2,1.6,1.8,2.7,1.8c1,0,2-0.6,2.7-1.8l7.8-13.5C435.8,149.6,435.8,148.5,435.3,147.6z M415,148.3c0.3-0.5,0.9-0.7,1.7-0.7
			H427c0.8,0,1.5,0.3,1.7,0.7c0.3,0.5,0.2,1.1-0.2,1.8l-0.4,0.8c-0.2-0.1-0.5-0.2-0.9-0.2h-7.8c-1.4,0-2.4,0.5-2.9,1.4l-1.1-2
			C414.9,149.4,414.8,148.7,415,148.3z M424.6,156.9l-0.1-0.1l-1.9-3.3l-0.7-1.2c0-0.1-0.1-0.1-0.1-0.1s0.1,0,0.2,0h5.2
			c0.1,0,0.1,0,0.2,0l0,0l-2.7,4.6C424.6,156.8,424.6,156.9,424.6,156.9z M426.1,163.7c-0.4,0.7-1,1.1-1.5,1.1s-1.1-0.4-1.5-1.1
			l-5.4-9.4c-0.2-0.6-0.3-1.1-0.1-1.5c0.3-0.5,0.9-0.7,1.7-0.7h1.1c0,0.3,0.1,0.6,0.3,0.9l3.9,6.8c0.7,1.2,1.6,1.8,2.7,1.8l0,0
			L426.1,163.7z M433.9,150.1l-5.3,9.2c-0.4,0.6-0.9,0.9-1.3,0.9c-0.5,0-1.1-0.4-1.5-1.1l-0.5-0.9c0.2-0.1,0.5-0.4,0.6-0.7l3.8-6.6
			c0.7-1.2,0.8-2.3,0.2-3.2l0,0h2.5c0.8,0,1.5,0.3,1.7,0.7C434.4,148.7,434.3,149.4,433.9,150.1z"/>
	</g>
</g>
<g>
	<rect x="499.4" y="152.1" class="st6" width="121.1" height="21.4"/>
</g>
<g class="st7">
	<path class="st2" d="M500,159.3c0-1.2,0.3-2.2,0.9-2.9s1.3-1.1,2.3-1.1c0.9,0,1.6,0.3,2.1,0.9l0.1-0.8h1.6v7.7c0,1-0.3,1.9-1,2.5
		c-0.6,0.6-1.5,0.9-2.6,0.9c-0.6,0-1.1-0.1-1.7-0.4c-0.6-0.2-1-0.6-1.3-0.9l0.8-1.1c0.5,0.6,1.2,1,2,1c0.6,0,1.1-0.2,1.4-0.5
		s0.5-0.8,0.5-1.4v-0.5c-0.5,0.6-1.2,0.9-2.1,0.9s-1.7-0.4-2.3-1.1C500.3,161.7,500,160.6,500,159.3z M501.7,159.5
		c0,0.8,0.2,1.4,0.5,1.9s0.8,0.7,1.4,0.7c0.7,0,1.2-0.3,1.6-0.9v-3.5c-0.3-0.6-0.9-0.9-1.6-0.9c-0.6,0-1,0.2-1.4,0.7
		C501.9,157.9,501.7,158.6,501.7,159.5z"/>
	<path class="st2" d="M513.5,163.4c-0.1-0.2-0.1-0.4-0.2-0.7c-0.6,0.6-1.3,0.9-2.1,0.9c-0.8,0-1.4-0.2-1.9-0.7s-0.8-1-0.8-1.7
		c0-0.8,0.3-1.5,0.9-1.9c0.6-0.5,1.5-0.7,2.7-0.7h1.1V158c0-0.4-0.1-0.7-0.3-1c-0.2-0.2-0.6-0.4-1-0.4c-0.4,0-0.7,0.1-1,0.3
		s-0.4,0.5-0.4,0.8h-1.8c0-0.4,0.1-0.8,0.4-1.2s0.7-0.7,1.2-0.9s1-0.3,1.7-0.3c0.9,0,1.7,0.2,2.2,0.7c0.6,0.5,0.8,1.1,0.8,2v3.6
		c0,0.7,0.1,1.3,0.3,1.7v0.1L513.5,163.4L513.5,163.4z M511.6,162.1c0.4,0,0.7-0.1,1-0.3s0.5-0.4,0.7-0.7v-1.5h-1
		c-0.7,0-1.2,0.1-1.5,0.3s-0.5,0.6-0.5,1c0,0.3,0.1,0.6,0.3,0.8C510.9,162,511.2,162.1,511.6,162.1z"/>
	<path class="st2" d="M519.1,153.5v1.9h1.4v1.3h-1.4v4.4c0,0.3,0.1,0.5,0.2,0.7c0.1,0.1,0.3,0.2,0.6,0.2c0.2,0,0.4,0,0.6-0.1v1.4
		c-0.4,0.1-0.8,0.2-1.2,0.2c-1.4,0-2.1-0.8-2.1-2.3v-4.5h-1.3v-1.3h1.3v-1.9L519.1,153.5L519.1,153.5z"/>
	<path class="st2" d="M525.4,163.5c-1.1,0-2-0.4-2.7-1.1c-0.7-0.7-1.1-1.7-1.1-2.8v-0.2c0-0.8,0.2-1.5,0.5-2.1s0.7-1.1,1.3-1.5
		s1.2-0.5,1.8-0.5c1.1,0,1.9,0.3,2.5,1s0.9,1.7,0.9,2.9v0.7h-5.2c0.1,0.7,0.3,1.2,0.7,1.6c0.4,0.4,0.9,0.6,1.4,0.6
		c0.8,0,1.5-0.3,2-1l1,0.9c-0.3,0.5-0.7,0.8-1.3,1.1C526.6,163.4,526,163.5,525.4,163.5z M525.2,156.7c-0.5,0-0.9,0.2-1.2,0.5
		s-0.5,0.8-0.6,1.4h3.4v-0.1c0-0.6-0.2-1-0.5-1.4C526,156.9,525.7,156.7,525.2,156.7z"/>
	<path class="st2" d="M536.9,160.9l1.3-5.5h1.7l-2.2,7.9h-1.5l-1.7-5.4l-1.7,5.4h-1.5l-2.2-7.9h1.7l1.3,5.4l1.6-5.4h1.3L536.9,160.9
		z"/>
	<path class="st2" d="M545.8,163.4c-0.1-0.2-0.1-0.4-0.2-0.7c-0.6,0.6-1.3,0.9-2.1,0.9s-1.4-0.2-1.9-0.7s-0.8-1-0.8-1.7
		c0-0.8,0.3-1.5,0.9-1.9c0.6-0.5,1.5-0.7,2.7-0.7h1.1V158c0-0.4-0.1-0.7-0.3-1c-0.2-0.2-0.6-0.4-1-0.4s-0.7,0.1-1,0.3
		s-0.4,0.5-0.4,0.8H541c0-0.4,0.1-0.8,0.4-1.2c0.3-0.4,0.7-0.7,1.2-0.9s1-0.3,1.7-0.3c0.9,0,1.7,0.2,2.2,0.7c0.6,0.5,0.8,1.1,0.8,2
		v3.6c0,0.7,0.1,1.3,0.3,1.7v0.1L545.8,163.4L545.8,163.4z M543.9,162.1c0.4,0,0.7-0.1,1-0.3s0.5-0.4,0.7-0.7v-1.5h-1
		c-0.7,0-1.2,0.1-1.5,0.3s-0.5,0.6-0.5,1c0,0.3,0.1,0.6,0.3,0.8C543.2,162,543.5,162.1,543.9,162.1z"/>
	<path class="st2" d="M551.9,160.8l1.6-5.4h1.9l-3.1,9.1c-0.5,1.3-1.3,2-2.5,2c-0.3,0-0.5,0-0.9-0.1V165h0.3c0.4,0,0.8-0.1,1-0.2
		c0.2-0.2,0.4-0.4,0.5-0.8l0.3-0.7l-2.8-7.9h1.9L551.9,160.8z"/>
	<path class="st2" d="M564.9,163.4c-0.1-0.2-0.1-0.4-0.2-0.7c-0.6,0.6-1.3,0.9-2.1,0.9s-1.4-0.2-1.9-0.7s-0.8-1-0.8-1.7
		c0-0.8,0.3-1.5,0.9-1.9c0.6-0.5,1.5-0.7,2.7-0.7h1.1V158c0-0.4-0.1-0.7-0.3-1c-0.2-0.2-0.6-0.4-1-0.4s-0.7,0.1-1,0.3
		s-0.4,0.5-0.4,0.8H560c0-0.4,0.1-0.8,0.4-1.2c0.3-0.4,0.7-0.7,1.2-0.9s1-0.3,1.7-0.3c0.9,0,1.7,0.2,2.2,0.7c0.6,0.5,0.8,1.1,0.8,2
		v3.6c0,0.7,0.1,1.3,0.3,1.7v0.1L564.9,163.4L564.9,163.4z M562.9,162.1c0.4,0,0.7-0.1,1-0.3s0.5-0.4,0.7-0.7v-1.5h-1
		c-0.7,0-1.2,0.1-1.5,0.3s-0.5,0.6-0.5,1c0,0.3,0.1,0.6,0.3,0.8C562.2,162,562.5,162.1,562.9,162.1z"/>
	<path class="st2" d="M567.9,159.3c0-1.2,0.3-2.2,0.9-2.9c0.6-0.7,1.3-1.1,2.3-1.1c0.9,0,1.6,0.3,2.1,0.9l0.1-0.8h1.6v7.7
		c0,1-0.3,1.9-1,2.5c-0.6,0.6-1.5,0.9-2.6,0.9c-0.6,0-1.1-0.1-1.7-0.4c-0.6-0.2-1-0.6-1.3-0.9l0.8-1.1c0.5,0.6,1.2,1,2,1
		c0.6,0,1.1-0.2,1.4-0.5c0.3-0.3,0.5-0.8,0.5-1.4v-0.5c-0.5,0.6-1.2,0.9-2.1,0.9c-0.9,0-1.7-0.4-2.3-1.1
		C568.2,161.7,567.9,160.6,567.9,159.3z M569.7,159.5c0,0.8,0.2,1.4,0.5,1.9s0.8,0.7,1.4,0.7c0.7,0,1.2-0.3,1.6-0.9v-3.5
		c-0.3-0.6-0.9-0.9-1.6-0.9c-0.6,0-1,0.2-1.4,0.7C569.9,157.9,569.7,158.6,569.7,159.5z"/>
	<path class="st2" d="M580.2,163.5c-1.1,0-2-0.4-2.7-1.1c-0.7-0.7-1.1-1.7-1.1-2.8v-0.2c0-0.8,0.2-1.5,0.5-2.1s0.7-1.1,1.3-1.5
		s1.2-0.5,1.8-0.5c1.1,0,1.9,0.3,2.5,1s0.9,1.7,0.9,2.9v0.7h-5.2c0.1,0.7,0.3,1.2,0.7,1.6c0.4,0.4,0.9,0.6,1.4,0.6
		c0.8,0,1.5-0.3,2-1l1,0.9c-0.3,0.5-0.7,0.8-1.3,1.1C581.5,163.4,580.9,163.5,580.2,163.5z M580,156.7c-0.5,0-0.9,0.2-1.2,0.5
		s-0.5,0.8-0.6,1.4h3.4v-0.1c0-0.6-0.2-1-0.5-1.4C580.9,156.9,580.5,156.7,580,156.7z"/>
	<path class="st2" d="M586.5,155.4l0.1,0.9c0.6-0.7,1.4-1.1,2.3-1.1c1.7,0,2.5,0.9,2.5,2.8v5.2h-1.8v-5.1c0-0.5-0.1-0.9-0.3-1.1
		c-0.2-0.2-0.6-0.4-1.1-0.4c-0.7,0-1.3,0.3-1.6,1v5.6h-1.8v-7.9h1.7V155.4z"/>
	<path class="st2" d="M595.4,153.5v1.9h1.4v1.3h-1.4v4.4c0,0.3,0.1,0.5,0.2,0.7c0.1,0.1,0.3,0.2,0.6,0.2c0.2,0,0.4,0,0.6-0.1v1.4
		c-0.4,0.1-0.8,0.2-1.2,0.2c-1.4,0-2.1-0.8-2.1-2.3v-4.5h-1.3v-1.3h1.3v-1.9L595.4,153.5L595.4,153.5z"/>
</g>
<g>
	<g>
		<g>
			<path class="st2" d="M443.1,154.3h2.1l2.8,7.2l2.7-7.2h1.9l-3.7,9.4h-2L443.1,154.3z"/>
		</g>
		<g>
			<path class="st2" d="M465.7,154.3h1.7v1.5l0,0c0-0.1,0.1-0.3,0.3-0.5c0.2-0.2,0.4-0.4,0.6-0.6c0.3-0.2,0.6-0.3,0.9-0.5
				c0.4-0.1,0.7-0.2,1.2-0.2c0.7,0,1.3,0.1,1.8,0.4c0.5,0.3,0.9,0.7,1.2,1.3c0.3-0.6,0.7-1,1.3-1.3c0.6-0.3,1.1-0.4,1.7-0.4
				c0.7,0,1.3,0.1,1.8,0.4c0.5,0.2,0.8,0.6,1.1,0.9c0.3,0.4,0.4,0.8,0.5,1.3s0.1,1,0.1,1.5v5.5h-1.8v-5.3c0-0.4,0-0.7-0.1-1
				c0-0.3-0.1-0.6-0.3-0.9c-0.1-0.3-0.4-0.5-0.6-0.6c-0.3-0.2-0.6-0.2-1.1-0.2c-0.9,0-1.5,0.3-1.9,0.8s-0.6,1.2-0.6,2.1v5.2H472
				v-4.9c0-0.5,0-0.9-0.1-1.2c0-0.4-0.1-0.7-0.3-1c-0.1-0.3-0.3-0.5-0.6-0.6c-0.3-0.2-0.6-0.2-1-0.2c-0.3,0-0.6,0.1-0.9,0.2
				c-0.3,0.1-0.6,0.3-0.8,0.6c-0.2,0.3-0.4,0.6-0.5,1s-0.2,0.9-0.2,1.4v4.9h-1.8v-9.6L465.7,154.3L465.7,154.3z"/>
		</g>
		<g>
			<path class="st2" d="M482.3,154.3h1.8v1.4l0,0c0.3-0.5,0.8-0.9,1.4-1.2s1.2-0.4,1.9-0.4c0.7,0,1.4,0.1,2,0.4
				c0.6,0.3,1.1,0.6,1.5,1.1s0.7,1,1,1.6c0.2,0.6,0.3,1.3,0.3,1.9c0,0.7-0.1,1.4-0.3,2c-0.2,0.6-0.5,1.1-1,1.6
				c-0.4,0.4-0.9,0.8-1.5,1c-0.6,0.3-1.3,0.4-2,0.4s-1.3-0.1-1.9-0.4s-1.1-0.7-1.4-1.2l0,0v3.8h-1.8V154.3z M487.2,155.7
				c-0.5,0-0.9,0.1-1.3,0.2c-0.4,0.2-0.7,0.4-1,0.7s-0.5,0.6-0.6,1s-0.2,0.8-0.2,1.3s0.1,0.9,0.2,1.3c0.1,0.4,0.4,0.8,0.6,1
				c0.3,0.3,0.6,0.5,1,0.7s0.8,0.2,1.3,0.2s0.9-0.1,1.3-0.2c0.4-0.2,0.7-0.4,1-0.7s0.5-0.6,0.6-1s0.2-0.8,0.2-1.3s-0.1-0.9-0.2-1.3
				c-0.1-0.4-0.4-0.8-0.6-1c-0.3-0.3-0.6-0.5-1-0.7C488.1,155.8,487.7,155.7,487.2,155.7z"/>
		</g>
		<g>
			<path class="st2" d="M458.1,164c1.4,0,2.7-0.6,3.5-1.6v1.3h1.6v-9.6h-1.6v1.4c-0.8-1-2.2-1.6-3.5-1.6c-2.6,0-4.7,2.2-4.7,5
				S455.5,164,458.1,164z M458.4,155.7c1.7,0,3.1,1.5,3.1,3.3s-1.4,3.3-3.1,3.3c-2,0-3.1-1.5-3.1-3.3
				C455.2,157.2,456.5,155.7,458.4,155.7z"/>
		</g>
	</g>
	<g>
		<path class="st4" d="M435.2,147.6c-0.5-0.9-1.5-1.4-2.9-1.4h-5.4h-10.2c-1.4,0-2.4,0.5-2.9,1.4s-0.4,2,0.2,3.2l7.8,13.5
			c0.7,1.2,1.6,1.8,2.7,1.8c1,0,2-0.6,2.7-1.8l7.8-13.5C435.6,149.6,435.7,148.5,435.2,147.6z M415,148.3c0.3-0.4,0.9-0.7,1.7-0.7
			h10.2c0.8,0,1.5,0.3,1.7,0.7c0.3,0.4,0.2,1.1-0.2,1.8l-0.4,0.8c-0.2-0.1-0.5-0.2-0.8-0.2h-7.8c-1.3,0-2.4,0.5-2.9,1.4l-1.1-2
			C414.9,149.4,414.8,148.7,415,148.3z M424.5,156.8l-0.1-0.1l-1.9-3.3l-0.7-1.2c0-0.1-0.1-0.1-0.1-0.1s0.1,0,0.2,0h5.2
			c0.1,0,0.1,0,0.2,0l0,0l-2.6,4.6C424.6,156.8,424.5,156.8,424.5,156.8z M426,163.6c-0.4,0.7-0.9,1.1-1.5,1.1
			c-0.5,0-1.1-0.4-1.5-1.1l-5.4-9.3c-0.2-0.6-0.3-1.1-0.1-1.5c0.3-0.4,0.9-0.7,1.7-0.7h1.1c0,0.3,0.1,0.6,0.3,0.9l3.9,6.8
			c0.7,1.2,1.6,1.8,2.7,1.8l0,0L426,163.6z M433.8,150.1l-5.3,9.1c-0.4,0.6-0.8,0.9-1.3,0.9s-1.1-0.4-1.5-1.1l-0.5-0.9
			c0.2-0.1,0.5-0.4,0.6-0.6l3.8-6.6c0.7-1.2,0.8-2.3,0.2-3.2l0,0h2.5c0.8,0,1.5,0.3,1.7,0.7C434.3,148.7,434.2,149.4,433.8,150.1z"
			/>
	</g>
</g>
<g>
	<path class="st8" d="M722.2,176.2h-70c-2.8,0-5-2.2-5-5v-30c0-2.8,2.2-5,5-5h70c2.8,0,5,2.2,5,5v30
		C727.2,174,725,176.2,722.2,176.2z"/>
</g>
<g>
	<rect x="627.4" y="150.1" class="st6" width="121.1" height="21.4"/>
</g>
<g class="st7">
	<path class="st2" d="M671.2,159.9h-1.6v-4.1h-4.1v4.1h-1.6v-9.2h1.6v3.8h4.1v-3.8h1.6V159.9z"/>
	<path class="st2" d="M678.4,157.7h-3.6l-0.7,2.2h-1.7l3.5-9.2h1.4l3.5,9.2h-1.7L678.4,157.7z M675.2,156.4h2.7l-1.3-3.8
		L675.2,156.4z"/>
	<path class="st2" d="M687.4,156.5c0,1.1-0.2,1.9-0.7,2.5s-1.1,0.9-1.9,0.9c-0.8,0-1.4-0.2-1.8-0.7v3.3h-1.5V153h1.4l0.1,0.7
		c0.5-0.5,1.1-0.8,1.8-0.8c0.8,0,1.5,0.3,2,0.9C687.2,154.4,687.4,155.3,687.4,156.5L687.4,156.5z M685.9,156.4
		c0-0.7-0.1-1.2-0.4-1.6c-0.3-0.4-0.7-0.6-1.2-0.6c-0.6,0-1.1,0.3-1.4,0.8v3c0.3,0.5,0.7,0.8,1.4,0.8c0.5,0,0.9-0.2,1.2-0.6
		C685.7,157.8,685.9,157.2,685.9,156.4z"/>
	<path class="st2" d="M692.3,154.4c-0.2,0-0.4-0.1-0.6-0.1c-0.7,0-1.2,0.3-1.4,0.8v4.7h-1.5V153h1.5v0.8c0.4-0.6,0.9-0.9,1.5-0.9
		c0.2,0,0.4,0,0.5,0.1V154.4z"/>
	<path class="st2" d="M692.8,156.4c0-0.7,0.1-1.3,0.4-1.8c0.3-0.5,0.6-1,1.1-1.2s1-0.4,1.7-0.4c0.9,0,1.7,0.3,2.3,0.9
		c0.6,0.6,0.9,1.4,0.9,2.4v0.4c0,0.7-0.1,1.3-0.4,1.8c-0.3,0.5-0.6,0.9-1.1,1.2s-1,0.4-1.7,0.4c-1,0-1.7-0.3-2.3-1
		S692.8,157.5,692.8,156.4L692.8,156.4z M694.3,156.5c0,0.7,0.1,1.3,0.4,1.7c0.3,0.4,0.7,0.6,1.2,0.6s0.9-0.2,1.2-0.6s0.4-1,0.4-1.8
		c0-0.7-0.1-1.2-0.4-1.7c-0.3-0.4-0.7-0.6-1.2-0.6s-0.9,0.2-1.2,0.6C694.5,155.1,694.3,155.7,694.3,156.5z"/>
	<path class="st2" d="M702.8,155.2l1.3-2.3h1.7l-2.1,3.4l2.2,3.5h-1.7l-1.4-2.3l-1.4,2.3h-1.7l2.2-3.5l-2.1-3.4h1.7L702.8,155.2z"/>
	<path class="st2" d="M709.3,157.6l1.4-4.7h1.6l-2.7,7.9c-0.4,1.2-1.1,1.7-2.1,1.7c-0.2,0-0.5,0-0.7-0.1v-1.2h0.3
		c0.4,0,0.7-0.1,0.9-0.2c0.2-0.1,0.4-0.4,0.5-0.7l0.2-0.6l-2.4-6.8h1.7L709.3,157.6z"/>
</g>
<g>
	<path class="st8" d="M366,121.8v70.1c0,2.8-2.2,5-5,5h-30c-2.8,0-5-2.2-5-5v-70.1c0-2.8,2.2-5,5-5h30
		C363.8,116.8,366,119,366,121.8z"/>
</g>
<g>
	<rect x="339.9" y="116.8" class="st6" width="21.4" height="78.6"/>
</g>
<g class="st7">
	<path class="st2" d="M348.4,185.5v-4.9h1.3v6.9h-1.1l-6.9-4.8v4.7h-1.3v-6.7h1L348.4,185.5z"/>
	<path class="st2" d="M346.2,179.7c-0.7,0-1.3-0.1-1.8-0.4c-0.5-0.3-1-0.6-1.2-1.1s-0.4-1-0.4-1.7c0-0.9,0.3-1.7,0.9-2.3
		s1.4-0.9,2.4-0.9h0.4c0.7,0,1.3,0.1,1.8,0.4c0.5,0.3,0.9,0.6,1.2,1.1c0.3,0.5,0.4,1,0.4,1.7c0,1-0.3,1.7-1,2.3
		S347.3,179.7,346.2,179.7L346.2,179.7z M346.3,178.2c0.7,0,1.3-0.1,1.7-0.4c0.4-0.3,0.6-0.7,0.6-1.2s-0.2-0.9-0.6-1.2
		s-1-0.4-1.8-0.4c-0.7,0-1.2,0.1-1.7,0.4c-0.4,0.3-0.6,0.7-0.6,1.2s0.2,0.9,0.6,1.2C344.9,178,345.5,178.2,346.3,178.2z"/>
	<path class="st2" d="M346.2,172.3c-0.7,0-1.3-0.1-1.8-0.4c-0.5-0.3-1-0.6-1.2-1.1s-0.4-1-0.4-1.7c0-0.9,0.3-1.7,0.9-2.3
		s1.4-0.9,2.4-0.9h0.4c0.7,0,1.3,0.1,1.8,0.4c0.5,0.3,0.9,0.6,1.2,1.1c0.3,0.5,0.4,1,0.4,1.7c0,1-0.3,1.7-1,2.3
		C348.2,172,347.3,172.3,346.2,172.3L346.2,172.3z M346.3,170.8c0.7,0,1.3-0.1,1.7-0.4c0.4-0.3,0.6-0.7,0.6-1.2s-0.2-0.9-0.6-1.2
		s-1-0.4-1.8-0.4c-0.7,0-1.2,0.1-1.7,0.4c-0.4,0.3-0.6,0.7-0.6,1.2s0.2,0.9,0.6,1.2C344.9,170.6,345.5,170.8,346.3,170.8z"/>
	<path class="st2" d="M345.7,161.8l1.1,1h2.9v1.6h-9.2v-1.6h4.3l-1.1-0.9l-3.2-2.7v-1.9l4.1,3.4l5.1-3.6v1.9L345.7,161.8z"/>
	<path class="st2" d="M349.8,153.6c0,1-0.3,1.8-0.9,2.4c-0.6,0.6-1.4,0.9-2.5,0.9h-0.2c-0.7,0-1.3-0.1-1.8-0.4
		c-0.5-0.3-1-0.6-1.3-1.1s-0.5-1-0.5-1.6c0-0.9,0.3-1.7,0.9-2.2s1.4-0.8,2.5-0.8h0.6v4.5c0.6,0,1-0.2,1.3-0.6
		c0.3-0.3,0.5-0.8,0.5-1.3c0-0.7-0.3-1.3-0.9-1.7l0.8-0.8c0.4,0.3,0.7,0.6,1,1.1C349.7,152.5,349.8,153,349.8,153.6z M343.9,153.8
		c0,0.4,0.1,0.8,0.4,1c0.3,0.3,0.7,0.4,1.2,0.5v-2.9h-0.1c-0.5,0-0.9,0.2-1.2,0.4S343.9,153.3,343.9,153.8z"/>
	<path class="st2" d="M349.8,146.6c0,1-0.3,1.8-0.9,2.4c-0.6,0.6-1.4,0.9-2.5,0.9h-0.2c-0.7,0-1.3-0.1-1.8-0.4
		c-0.5-0.3-1-0.6-1.3-1.1s-0.5-1-0.5-1.6c0-0.9,0.3-1.7,0.9-2.2s1.4-0.8,2.5-0.8h0.6v4.5c0.6,0,1-0.2,1.3-0.6
		c0.3-0.3,0.5-0.8,0.5-1.3c0-0.7-0.3-1.3-0.9-1.7l0.8-0.8c0.4,0.3,0.7,0.6,1,1.1C349.7,145.5,349.8,146,349.8,146.6z M343.9,146.8
		c0,0.4,0.1,0.8,0.4,1c0.3,0.3,0.7,0.4,1.2,0.5v-2.9h-0.1c-0.5,0-0.9,0.2-1.2,0.4S343.9,146.4,343.9,146.8z"/>
	<path class="st2" d="M346.3,136.6c1.1,0,1.9,0.2,2.5,0.7s0.9,1.1,0.9,1.9c0,0.8-0.2,1.4-0.7,1.8h3.3v1.5h-9.5v-1.4l0.7-0.1
		c-0.5-0.5-0.8-1.1-0.8-1.8c0-0.8,0.3-1.5,0.9-2C344.2,136.9,345.1,136.6,346.3,136.6L346.3,136.6z M346.2,138.2
		c-0.7,0-1.2,0.1-1.6,0.4c-0.4,0.3-0.6,0.7-0.6,1.2c0,0.6,0.3,1.1,0.8,1.4h3c0.5-0.3,0.8-0.7,0.8-1.4c0-0.5-0.2-0.9-0.6-1.2
		C347.6,138.3,347,138.2,346.2,138.2z"/>
	<path class="st2" d="M349.8,132.3c0,1-0.3,1.8-0.9,2.4c-0.6,0.6-1.4,0.9-2.5,0.9h-0.2c-0.7,0-1.3-0.1-1.8-0.4
		c-0.5-0.3-1-0.6-1.3-1.1s-0.5-1-0.5-1.6c0-0.9,0.3-1.7,0.9-2.2s1.4-0.8,2.5-0.8h0.6v4.5c0.6,0,1-0.2,1.3-0.6
		c0.3-0.3,0.5-0.8,0.5-1.3c0-0.7-0.3-1.3-0.9-1.7l0.8-0.8c0.4,0.3,0.7,0.6,1,1.1C349.7,131.2,349.8,131.7,349.8,132.3z M343.9,132.5
		c0,0.4,0.1,0.8,0.4,1c0.3,0.3,0.7,0.4,1.2,0.5v-2.9h-0.1c-0.5,0-0.9,0.2-1.2,0.4S343.9,132.1,343.9,132.5z"/>
	<path class="st2" d="M344.2,124.8c0,0.2-0.1,0.4-0.1,0.6c0,0.7,0.3,1.2,0.8,1.4h4.7v1.5h-6.9v-1.5h0.8c-0.6-0.4-0.9-0.9-0.9-1.5
		c0-0.2,0-0.4,0.1-0.5H344.2z"/>
</g>
<g>
	<path class="st8" d="M366,241.7v70c0,2.8-2.2,5-5,5h-30c-2.8,0-5-2.2-5-5v-70c0-2.8,2.2-5,5-5h30C363.8,236.7,366,238.9,366,241.7z
		"/>
</g>
<g>
	<rect x="332.9" y="237" class="st6" width="31.4" height="79.3"/>
</g>
<g class="st7">
	<path class="st2" d="M333.4,309.7l7.1-2.7l-7.1-2.7v-2.1h9.2v1.6h-3l-4.1-0.2l7.1,2.7v1.1l-7.1,2.7l4.1-0.2h3v1.6h-9.2V309.7z"/>
	<path class="st2" d="M342.8,297.6c0,1-0.3,1.8-0.9,2.4s-1.4,0.9-2.5,0.9h-0.2c-0.7,0-1.3-0.1-1.8-0.4s-1-0.6-1.3-1.1
		s-0.5-1-0.5-1.6c0-0.9,0.3-1.7,0.9-2.2s1.4-0.8,2.5-0.8h0.6v4.5c0.6,0,1-0.2,1.3-0.6s0.5-0.8,0.5-1.3c0-0.7-0.3-1.3-0.9-1.7
		l0.8-0.8c0.4,0.3,0.7,0.6,1,1.1S342.8,297,342.8,297.6z M336.9,297.8c0,0.4,0.1,0.8,0.4,1c0.3,0.3,0.7,0.4,1.2,0.5v-2.9h-0.1
		c-0.5,0-0.9,0.2-1.2,0.4C337,297,336.9,297.3,336.9,297.8z"/>
	<path class="st2" d="M340.8,289.8c-0.3,0-0.5,0.1-0.6,0.3c-0.1,0.2-0.3,0.6-0.4,1.1s-0.2,1-0.4,1.3c-0.4,0.8-0.9,1.2-1.6,1.2
		c-0.6,0-1.1-0.2-1.5-0.7s-0.6-1.1-0.6-1.9s0.2-1.5,0.6-2s0.9-0.8,1.6-0.8v1.5c-0.3,0-0.5,0.1-0.7,0.3c-0.2,0.2-0.3,0.5-0.3,0.9
		c0,0.3,0.1,0.6,0.2,0.8c0.2,0.2,0.4,0.3,0.6,0.3s0.4-0.1,0.6-0.3c0.1-0.2,0.3-0.6,0.4-1.2s0.3-1.1,0.5-1.4s0.4-0.6,0.7-0.8
		c0.3-0.2,0.6-0.3,0.9-0.3c0.6,0,1.1,0.3,1.5,0.8s0.6,1.2,0.6,2c0,0.6-0.1,1.1-0.3,1.5c-0.2,0.4-0.5,0.8-0.8,1
		c-0.4,0.2-0.7,0.4-1.1,0.4v-1.5c0.4,0,0.6-0.2,0.8-0.4c0.2-0.3,0.3-0.6,0.3-1s-0.1-0.7-0.2-0.9
		C341.3,289.9,341.1,289.8,340.8,289.8z"/>
	<path class="st2" d="M339.2,287.2c-0.7,0-1.3-0.1-1.8-0.4s-1-0.6-1.2-1.1s-0.4-1-0.4-1.7c0-0.9,0.3-1.7,0.9-2.3
		c0.6-0.6,1.4-0.9,2.4-0.9h0.4c0.7,0,1.3,0.1,1.8,0.4s0.9,0.6,1.2,1.1c0.3,0.5,0.4,1,0.4,1.7c0,1-0.3,1.7-1,2.3
		S340.3,287.2,339.2,287.2L339.2,287.2z M339.3,285.7c0.7,0,1.3-0.1,1.7-0.4c0.4-0.3,0.6-0.7,0.6-1.2s-0.2-0.9-0.6-1.2
		c-0.4-0.3-1-0.4-1.8-0.4c-0.7,0-1.2,0.1-1.7,0.4s-0.6,0.7-0.6,1.2s0.2,0.9,0.6,1.2C337.9,285.5,338.5,285.7,339.3,285.7z"/>
	<path class="st2" d="M340.8,275.7c-0.3,0-0.5,0.1-0.6,0.3c-0.1,0.2-0.3,0.6-0.4,1.1s-0.2,1-0.4,1.3c-0.4,0.8-0.9,1.2-1.6,1.2
		c-0.6,0-1.1-0.2-1.5-0.7s-0.6-1.1-0.6-1.9s0.2-1.5,0.6-2s0.9-0.8,1.6-0.8v1.5c-0.3,0-0.5,0.1-0.7,0.3c-0.2,0.2-0.3,0.5-0.3,0.9
		c0,0.3,0.1,0.6,0.2,0.8c0.2,0.2,0.4,0.3,0.6,0.3s0.4-0.1,0.6-0.3c0.1-0.2,0.3-0.6,0.4-1.2s0.3-1.1,0.5-1.4s0.4-0.6,0.7-0.8
		c0.3-0.2,0.6-0.2,0.9-0.2c0.6,0,1.1,0.3,1.5,0.8s0.6,1.2,0.6,2c0,0.6-0.1,1.1-0.3,1.5s-0.5,0.8-0.8,1s-0.7,0.4-1.1,0.4v-1.5
		c0.4,0,0.6-0.2,0.8-0.4c0.2-0.3,0.3-0.6,0.3-1s-0.1-0.7-0.2-0.9S341.1,275.7,340.8,275.7z"/>
	<path class="st2" d="M339.3,266.8c1.1,0,1.9,0.2,2.5,0.7s0.9,1.1,0.9,1.9s-0.2,1.4-0.7,1.8h3.3v1.5h-9.5v-1.4l0.7-0.1
		c-0.5-0.5-0.8-1.1-0.8-1.8c0-0.8,0.3-1.5,0.9-2C337.2,267,338.1,266.8,339.3,266.8L339.3,266.8z M339.2,268.3
		c-0.7,0-1.2,0.1-1.6,0.4s-0.6,0.7-0.6,1.2c0,0.6,0.3,1.1,0.8,1.4h3c0.5-0.3,0.8-0.7,0.8-1.4c0-0.5-0.2-0.9-0.6-1.2
		C340.6,268.5,340,268.3,339.2,268.3z"/>
	<path class="st2" d="M336.6,264c-0.6-0.5-0.9-1.1-0.9-1.9c0-1.5,0.8-2.2,2.5-2.2h4.5v1.5h-4.4c-0.5,0-0.8,0.1-1,0.3
		c-0.2,0.2-0.3,0.5-0.3,0.9c0,0.6,0.3,1.1,0.8,1.4h4.9v1.5h-9.8V264H336.6z"/>
	<path class="st2" d="M342.8,255.2c0,1-0.3,1.8-0.9,2.4s-1.4,0.9-2.5,0.9h-0.2c-0.7,0-1.3-0.1-1.8-0.4s-1-0.6-1.3-1.1
		s-0.5-1-0.5-1.6c0-0.9,0.3-1.7,0.9-2.2s1.4-0.8,2.5-0.8h0.6v4.5c0.6,0,1-0.2,1.3-0.6c0.3-0.3,0.5-0.8,0.5-1.3
		c0-0.7-0.3-1.3-0.9-1.7l0.8-0.8c0.4,0.3,0.7,0.6,1,1.1S342.8,254.7,342.8,255.2z M336.9,255.4c0,0.4,0.1,0.8,0.4,1
		c0.3,0.3,0.7,0.4,1.2,0.5V254h-0.1c-0.5,0-0.9,0.2-1.2,0.4S336.9,255,336.9,255.4z"/>
	<path class="st2" d="M337.2,247.7c0,0.2-0.1,0.4-0.1,0.6c0,0.7,0.3,1.2,0.8,1.4h4.7v1.5h-6.9v-1.5h0.8c-0.6-0.4-0.9-0.9-0.9-1.5
		c0-0.2,0-0.4,0.1-0.5H337.2z"/>
	<path class="st2" d="M342.8,243.8c0,1-0.3,1.8-0.9,2.4s-1.4,0.9-2.5,0.9h-0.2c-0.7,0-1.3-0.1-1.8-0.4s-1-0.6-1.3-1.1
		s-0.5-1-0.5-1.6c0-0.9,0.3-1.7,0.9-2.2s1.4-0.8,2.5-0.8h0.6v4.5c0.6,0,1-0.2,1.3-0.6c0.3-0.3,0.5-0.8,0.5-1.3
		c0-0.7-0.3-1.3-0.9-1.7l0.8-0.8c0.4,0.3,0.7,0.6,1,1.1S342.8,243.2,342.8,243.8z M336.9,244c0,0.4,0.1,0.8,0.4,1
		c0.3,0.3,0.7,0.4,1.2,0.5v-2.9h-0.1c-0.5,0-0.9,0.2-1.2,0.4S336.9,243.6,336.9,244z"/>
</g>
<g class="st7">
	<path class="st2" d="M349,301.7l7.1-2.7l-7.1-2.7v-2.1h9.2v1.6h-3l-4.1-0.2l7.1,2.7v1.1l-7.1,2.7l4.1-0.2h3v1.6H349V301.7z"/>
	<path class="st2" d="M358.3,288.5c-0.1,0.1-0.3,0.1-0.6,0.2c0.5,0.5,0.8,1.1,0.8,1.8c0,0.7-0.2,1.3-0.6,1.7
		c-0.4,0.4-0.9,0.7-1.5,0.7c-0.7,0-1.3-0.3-1.7-0.8c-0.4-0.5-0.6-1.3-0.6-2.3v-0.9h-0.5c-0.4,0-0.6,0.1-0.9,0.3
		c-0.2,0.2-0.3,0.5-0.3,0.9s0.1,0.6,0.3,0.9s0.4,0.3,0.7,0.3v1.5c-0.4,0-0.7-0.1-1.1-0.4c-0.3-0.2-0.6-0.6-0.8-1s-0.3-0.9-0.3-1.4
		c0-0.8,0.2-1.4,0.6-1.9s1-0.7,1.7-0.7h3.1c0.6,0,1.1-0.1,1.5-0.3h0.1L358.3,288.5L358.3,288.5z M357.2,290.2c0-0.3-0.1-0.6-0.2-0.9
		s-0.3-0.5-0.6-0.6H355v0.8c0,0.6,0.1,1,0.3,1.3c0.2,0.3,0.5,0.4,0.8,0.4s0.5-0.1,0.7-0.3C357.1,290.8,357.2,290.5,357.2,290.2z"/>
	<path class="st2" d="M352.8,282c0,0.2-0.1,0.4-0.1,0.6c0,0.7,0.3,1.2,0.8,1.4h4.7v1.5h-6.9V284h0.8c-0.6-0.4-0.9-0.9-0.9-1.5
		c0-0.2,0-0.4,0.1-0.5H352.8z"/>
	<path class="st2" d="M358.3,277.1c-0.1,0.1-0.3,0.1-0.6,0.2c0.5,0.5,0.8,1.1,0.8,1.8c0,0.7-0.2,1.3-0.6,1.7
		c-0.4,0.4-0.9,0.7-1.5,0.7c-0.7,0-1.3-0.3-1.7-0.8c-0.4-0.5-0.6-1.3-0.6-2.3v-0.9h-0.5c-0.4,0-0.6,0.1-0.9,0.3
		c-0.2,0.2-0.3,0.5-0.3,0.9s0.1,0.6,0.3,0.9s0.4,0.3,0.7,0.3v1.5c-0.4,0-0.7-0.1-1.1-0.4c-0.3-0.2-0.6-0.6-0.8-1
		c-0.2-0.4-0.3-0.9-0.3-1.4c0-0.8,0.2-1.4,0.6-1.9s1-0.7,1.7-0.7h3.1c0.6,0,1.1-0.1,1.5-0.3h0.1L358.3,277.1L358.3,277.1z
		 M357.2,278.8c0-0.3-0.1-0.6-0.2-0.9s-0.3-0.5-0.6-0.6H355v0.8c0,0.6,0.1,1,0.3,1.3c0.2,0.3,0.5,0.4,0.8,0.4s0.5-0.1,0.7-0.3
		S357.2,279.1,357.2,278.8z"/>
	<path class="st2" d="M349.7,272.2h1.7V271h1.1v1.2h3.8c0.3,0,0.5-0.1,0.6-0.2s0.2-0.3,0.2-0.6c0-0.2,0-0.4-0.1-0.5h1.2
		c0.1,0.4,0.1,0.7,0.1,1c0,1.2-0.7,1.8-2,1.8h-3.9v1.1h-1.1v-1.1h-1.7L349.7,272.2L349.7,272.2z"/>
	<path class="st2" d="M352.2,268.3c-0.6-0.5-0.9-1.1-0.9-1.9c0-1.5,0.8-2.2,2.5-2.2h4.5v1.5h-4.4c-0.5,0-0.8,0.1-1,0.3
		c-0.2,0.2-0.3,0.5-0.3,0.9c0,0.6,0.3,1.1,0.8,1.4h4.9v1.5h-9.8v-1.5L352.2,268.3L352.2,268.3z"/>
	<path class="st2" d="M354.8,262.9c-0.7,0-1.3-0.1-1.8-0.4s-1-0.6-1.2-1.1s-0.4-1-0.4-1.7c0-0.9,0.3-1.7,0.9-2.3
		c0.6-0.6,1.4-0.9,2.4-0.9h0.4c0.7,0,1.3,0.1,1.8,0.4s0.9,0.6,1.2,1.1c0.3,0.5,0.4,1,0.4,1.7c0,1-0.3,1.7-1,2.3
		S355.9,262.9,354.8,262.9L354.8,262.9z M354.9,261.4c0.7,0,1.3-0.1,1.7-0.4c0.4-0.3,0.6-0.7,0.6-1.2s-0.2-0.9-0.6-1.2
		c-0.4-0.3-1-0.4-1.8-0.4c-0.7,0-1.2,0.1-1.7,0.4s-0.6,0.7-0.6,1.2s0.2,0.9,0.6,1.2C353.5,261.2,354.1,261.4,354.9,261.4z"/>
	<path class="st2" d="M351.4,253.8h0.8c-0.6-0.5-0.9-1.2-0.9-2c0-1.4,0.8-2.2,2.5-2.2h4.5v1.5h-4.4c-0.4,0-0.8,0.1-1,0.3
		c-0.2,0.2-0.3,0.5-0.3,0.9c0,0.6,0.3,1.1,0.8,1.4h4.9v1.5h-6.9V253.8z"/>
</g>
<g>
	<g>
		<g>
			<rect x="340" y="202.5" class="st4" width="1" height="28.4"/>
		</g>
		<g>
			<g>
				<rect x="337.2" y="202" class="st4" width="6.5" height="1"/>
			</g>
		</g>
		<g>
			<g>
				<polygon class="st4" points="338.8,228.9 340.5,230.6 342.2,228.9 342.2,230.3 340.5,232 338.8,230.3 				"/>
			</g>
		</g>
	</g>
</g>
<g>
	<g>
		<g>
			<rect x="181" y="202.3" class="st4" width="1" height="37.6"/>
		</g>
		<g>
			<g>
				<rect x="178.2" y="201.8" class="st4" width="6.5" height="1"/>
			</g>
		</g>
		<g>
			<g>
				<polygon class="st4" points="179.8,237.9 181.5,239.6 183.2,237.9 183.2,239.3 181.5,241 179.8,239.3 				"/>
			</g>
		</g>
	</g>
</g>
<g>
	<g>
		<g>
			<path class="st4" d="M229,240.5h-1V166c0-5.8,4.7-10.5,10.5-10.5h81.4v1h-81.4c-5.2,0-9.5,4.3-9.5,9.5V240.5z"/>
		</g>
		<g>
			<g>
				<rect x="225.2" y="240" class="st4" width="6.5" height="1"/>
			</g>
		</g>
		<g>
			<g>
				<polygon class="st4" points="317.9,157.7 319.6,156 317.9,154.3 319.3,154.3 321,156 319.3,157.7 				"/>
			</g>
		</g>
	</g>
</g>
<g>
	<g>
		<g>
			<rect x="271" y="277" class="st4" width="48.4" height="1"/>
		</g>
		<g>
			<g>
				<rect x="270.5" y="274.2" class="st4" width="1" height="6.5"/>
			</g>
		</g>
		<g>
			<g>
				<polygon class="st4" points="317.4,279.2 319.1,277.5 317.4,275.8 318.8,275.8 320.5,277.5 318.8,279.2 				"/>
			</g>
		</g>
	</g>
</g>
<g>
	<g>
		<g>
			<rect x="370.5" y="277" class="st4" width="23.4" height="1"/>
		</g>
		<g>
			<g>
				<rect x="370" y="274.2" class="st4" width="1" height="6.5"/>
			</g>
		</g>
		<g>
			<g>
				<polygon class="st4" points="391.9,279.2 393.6,277.5 391.9,275.8 393.3,275.8 395,277.5 393.3,279.2 				"/>
			</g>
		</g>
	</g>
</g>
<g>
	<g>
		<g>
			<rect x="370.5" y="155.5" class="st4" width="23.4" height="1"/>
		</g>
		<g>
			<g>
				<rect x="370" y="152.8" class="st4" width="1" height="6.5"/>
			</g>
		</g>
		<g>
			<g>
				<polygon class="st4" points="391.9,157.7 393.6,156 391.9,154.3 393.3,154.3 395,156 393.3,157.7 				"/>
			</g>
		</g>
	</g>
</g>
<g>
	<g>
		<g>
			<rect x="179.7" y="30.7" class="st4" width="56.2" height="1"/>
		</g>
		<g>
			<g>
				<rect x="179.2" y="27.9" class="st4" width="1" height="6.5"/>
			</g>
		</g>
		<g>
			<g>
				<polygon class="st4" points="233.9,32.9 235.6,31.2 233.9,29.5 235.3,29.5 237,31.2 235.3,32.9 				"/>
			</g>
		</g>
	</g>
</g>
<g>
	<g>
		<g>
			<polygon class="st4" points="124,309 108.5,309 108.5,308 123,308 123,246 108.5,246 108.5,245 124,245 			"/>
		</g>
		<g>
			<g>
				<rect x="108" y="242.2" class="st4" width="1" height="6.5"/>
			</g>
		</g>
		<g>
			<g>
				<rect x="108" y="305.2" class="st4" width="1" height="6.5"/>
			</g>
		</g>
	</g>
</g>
<g>
	<g>
		<g>
			<rect x="350" y="203.1" class="st4" width="1" height="28.4"/>
		</g>
		<g>
			<g>
				<rect x="347.2" y="231" class="st4" width="6.5" height="1"/>
			</g>
		</g>
		<g>
			<g>
				<polygon class="st4" points="352.2,205.1 350.5,203.4 348.8,205.1 348.8,203.7 350.5,202 352.2,203.7 				"/>
			</g>
		</g>
	</g>
</g>
<g>
	<g>
		<g>
			<rect x="626" y="160.5" class="st4" width="14.9" height="1"/>
		</g>
		<g>
			<g>
				<rect x="625.5" y="157.8" class="st4" width="1" height="6.5"/>
			</g>
		</g>
		<g>
			<g>
				<polygon class="st4" points="638.9,162.7 640.6,161 638.9,159.3 640.3,159.3 642,161 640.3,162.7 				"/>
			</g>
		</g>
	</g>
</g>
<g>
	<g>
		<g>
			<rect x="626.6" y="150.5" class="st4" width="14.9" height="1"/>
		</g>
		<g>
			<g>
				<rect x="641" y="147.8" class="st4" width="1" height="6.5"/>
			</g>
		</g>
		<g>
			<g>
				<polygon class="st4" points="628.6,149.3 626.9,151 628.6,152.7 627.2,152.7 625.5,151 627.2,149.3 				"/>
			</g>
		</g>
	</g>
</g>
<g>
	<path class="st1" d="M419,253c0-0.3,0.2-0.5,0.5-0.5l0,0c0.3,0,0.5,0.2,0.5,0.5l0,0c0,0.3-0.2,0.5-0.5,0.5l0,0
		C419.2,253.5,419,253.3,419,253z M419,247c0-0.3,0.2-0.5,0.5-0.5l0,0c0.3,0,0.5,0.2,0.5,0.5l0,0c0,0.3-0.2,0.5-0.5,0.5l0,0
		C419.2,247.5,419,247.3,419,247z M419,241c0-0.3,0.2-0.5,0.5-0.5l0,0c0.3,0,0.5,0.2,0.5,0.5l0,0c0,0.3-0.2,0.5-0.5,0.5l0,0
		C419.2,241.5,419,241.3,419,241z M685.5,237.5c0-0.3,0.2-0.5,0.5-0.5l0,0c0.3,0,0.5,0.2,0.5,0.5l0,0c0,0.3-0.2,0.5-0.5,0.5l0,0
		C685.7,238,685.5,237.8,685.5,237.5z M679.5,237.5c0-0.3,0.2-0.5,0.5-0.5l0,0c0.3,0,0.5,0.2,0.5,0.5l0,0c0,0.3-0.2,0.5-0.5,0.5l0,0
		C679.7,238,679.5,237.8,679.5,237.5z M673.5,237.5c0-0.3,0.2-0.5,0.5-0.5l0,0c0.3,0,0.5,0.2,0.5,0.5l0,0c0,0.3-0.2,0.5-0.5,0.5l0,0
		C673.7,238,673.5,237.8,673.5,237.5z M667.5,237.5c0-0.3,0.2-0.5,0.5-0.5l0,0c0.3,0,0.5,0.2,0.5,0.5l0,0c0,0.3-0.2,0.5-0.5,0.5l0,0
		C667.7,238,667.5,237.8,667.5,237.5z M661.5,237.5c0-0.3,0.2-0.5,0.5-0.5l0,0c0.3,0,0.5,0.2,0.5,0.5l0,0c0,0.3-0.2,0.5-0.5,0.5l0,0
		C661.7,238,661.5,237.8,661.5,237.5z M655.5,237.5c0-0.3,0.2-0.5,0.5-0.5l0,0c0.3,0,0.5,0.2,0.5,0.5l0,0c0,0.3-0.2,0.5-0.5,0.5l0,0
		C655.7,238,655.5,237.8,655.5,237.5z M649.5,237.5c0-0.3,0.2-0.5,0.5-0.5l0,0c0.3,0,0.5,0.2,0.5,0.5l0,0c0,0.3-0.2,0.5-0.5,0.5l0,0
		C649.7,238,649.5,237.8,649.5,237.5z M643.5,237.5c0-0.3,0.2-0.5,0.5-0.5l0,0c0.3,0,0.5,0.2,0.5,0.5l0,0c0,0.3-0.2,0.5-0.5,0.5l0,0
		C643.7,238,643.5,237.8,643.5,237.5z M637.5,237.5c0-0.3,0.2-0.5,0.5-0.5l0,0c0.3,0,0.5,0.2,0.5,0.5l0,0c0,0.3-0.2,0.5-0.5,0.5l0,0
		C637.7,238,637.5,237.8,637.5,237.5z M631.5,237.5c0-0.3,0.2-0.5,0.5-0.5l0,0c0.3,0,0.5,0.2,0.5,0.5l0,0c0,0.3-0.2,0.5-0.5,0.5l0,0
		C631.7,238,631.5,237.8,631.5,237.5z M625.5,237.5c0-0.3,0.2-0.5,0.5-0.5l0,0c0.3,0,0.5,0.2,0.5,0.5l0,0c0,0.3-0.2,0.5-0.5,0.5l0,0
		C625.7,238,625.5,237.8,625.5,237.5z M619.5,237.5c0-0.3,0.2-0.5,0.5-0.5l0,0c0.3,0,0.5,0.2,0.5,0.5l0,0c0,0.3-0.2,0.5-0.5,0.5l0,0
		C619.7,238,619.5,237.8,619.5,237.5z M613.5,237.5c0-0.3,0.2-0.5,0.5-0.5l0,0c0.3,0,0.5,0.2,0.5,0.5l0,0c0,0.3-0.2,0.5-0.5,0.5l0,0
		C613.7,238,613.5,237.8,613.5,237.5z M607.5,237.5c0-0.3,0.2-0.5,0.5-0.5l0,0c0.3,0,0.5,0.2,0.5,0.5l0,0c0,0.3-0.2,0.5-0.5,0.5l0,0
		C607.7,238,607.5,237.8,607.5,237.5z M601.5,237.5c0-0.3,0.2-0.5,0.5-0.5l0,0c0.3,0,0.5,0.2,0.5,0.5l0,0c0,0.3-0.2,0.5-0.5,0.5l0,0
		C601.7,238,601.5,237.8,601.5,237.5z M595.5,237.5c0-0.3,0.2-0.5,0.5-0.5l0,0c0.3,0,0.5,0.2,0.5,0.5l0,0c0,0.3-0.2,0.5-0.5,0.5l0,0
		C595.7,238,595.5,237.8,595.5,237.5z M589.5,237.5c0-0.3,0.2-0.5,0.5-0.5l0,0c0.3,0,0.5,0.2,0.5,0.5l0,0c0,0.3-0.2,0.5-0.5,0.5l0,0
		C589.7,238,589.5,237.8,589.5,237.5z M583.5,237.5c0-0.3,0.2-0.5,0.5-0.5l0,0c0.3,0,0.5,0.2,0.5,0.5l0,0c0,0.3-0.2,0.5-0.5,0.5l0,0
		C583.7,238,583.5,237.8,583.5,237.5z M577.5,237.5c0-0.3,0.2-0.5,0.5-0.5l0,0c0.3,0,0.5,0.2,0.5,0.5l0,0c0,0.3-0.2,0.5-0.5,0.5l0,0
		C577.7,238,577.5,237.8,577.5,237.5z M571.5,237.5c0-0.3,0.2-0.5,0.5-0.5l0,0c0.3,0,0.5,0.2,0.5,0.5l0,0c0,0.3-0.2,0.5-0.5,0.5l0,0
		C571.7,238,571.5,237.8,571.5,237.5z M565.5,237.5c0-0.3,0.2-0.5,0.5-0.5l0,0c0.3,0,0.5,0.2,0.5,0.5l0,0c0,0.3-0.2,0.5-0.5,0.5l0,0
		C565.7,238,565.5,237.8,565.5,237.5z M559.5,237.5c0-0.3,0.2-0.5,0.5-0.5l0,0c0.3,0,0.5,0.2,0.5,0.5l0,0c0,0.3-0.2,0.5-0.5,0.5l0,0
		C559.7,238,559.5,237.8,559.5,237.5z M553.5,237.5c0-0.3,0.2-0.5,0.5-0.5l0,0c0.3,0,0.5,0.2,0.5,0.5l0,0c0,0.3-0.2,0.5-0.5,0.5l0,0
		C553.7,238,553.5,237.8,553.5,237.5z M547.5,237.5c0-0.3,0.2-0.5,0.5-0.5l0,0c0.3,0,0.5,0.2,0.5,0.5l0,0c0,0.3-0.2,0.5-0.5,0.5l0,0
		C547.7,238,547.5,237.8,547.5,237.5z M541.5,237.5c0-0.3,0.2-0.5,0.5-0.5l0,0c0.3,0,0.5,0.2,0.5,0.5l0,0c0,0.3-0.2,0.5-0.5,0.5l0,0
		C541.7,238,541.5,237.8,541.5,237.5z M535.5,237.5c0-0.3,0.2-0.5,0.5-0.5l0,0c0.3,0,0.5,0.2,0.5,0.5l0,0c0,0.3-0.2,0.5-0.5,0.5l0,0
		C535.7,238,535.5,237.8,535.5,237.5z M529.5,237.5c0-0.3,0.2-0.5,0.5-0.5l0,0c0.3,0,0.5,0.2,0.5,0.5l0,0c0,0.3-0.2,0.5-0.5,0.5l0,0
		C529.7,238,529.5,237.8,529.5,237.5z M523.5,237.5c0-0.3,0.2-0.5,0.5-0.5l0,0c0.3,0,0.5,0.2,0.5,0.5l0,0c0,0.3-0.2,0.5-0.5,0.5l0,0
		C523.7,238,523.5,237.8,523.5,237.5z M517.5,237.5c0-0.3,0.2-0.5,0.5-0.5l0,0c0.3,0,0.5,0.2,0.5,0.5l0,0c0,0.3-0.2,0.5-0.5,0.5l0,0
		C517.7,238,517.5,237.8,517.5,237.5z M511.5,237.5c0-0.3,0.2-0.5,0.5-0.5l0,0c0.3,0,0.5,0.2,0.5,0.5l0,0c0,0.3-0.2,0.5-0.5,0.5l0,0
		C511.7,238,511.5,237.8,511.5,237.5z M505.5,237.5c0-0.3,0.2-0.5,0.5-0.5l0,0c0.3,0,0.5,0.2,0.5,0.5l0,0c0,0.3-0.2,0.5-0.5,0.5l0,0
		C505.7,238,505.5,237.8,505.5,237.5z M499.5,237.5c0-0.3,0.2-0.5,0.5-0.5l0,0c0.3,0,0.5,0.2,0.5,0.5l0,0c0,0.3-0.2,0.5-0.5,0.5l0,0
		C499.7,238,499.5,237.8,499.5,237.5z M493.5,237.5c0-0.3,0.2-0.5,0.5-0.5l0,0c0.3,0,0.5,0.2,0.5,0.5l0,0c0,0.3-0.2,0.5-0.5,0.5l0,0
		C493.7,238,493.5,237.8,493.5,237.5z M487.5,237.5c0-0.3,0.2-0.5,0.5-0.5l0,0c0.3,0,0.5,0.2,0.5,0.5l0,0c0,0.3-0.2,0.5-0.5,0.5l0,0
		C487.7,238,487.5,237.8,487.5,237.5z M481.5,237.5c0-0.3,0.2-0.5,0.5-0.5l0,0c0.3,0,0.5,0.2,0.5,0.5l0,0c0,0.3-0.2,0.5-0.5,0.5l0,0
		C481.7,238,481.5,237.8,481.5,237.5z M475.5,237.5c0-0.3,0.2-0.5,0.5-0.5l0,0c0.3,0,0.5,0.2,0.5,0.5l0,0c0,0.3-0.2,0.5-0.5,0.5l0,0
		C475.7,238,475.5,237.8,475.5,237.5z M469.5,237.5c0-0.3,0.2-0.5,0.5-0.5l0,0c0.3,0,0.5,0.2,0.5,0.5l0,0c0,0.3-0.2,0.5-0.5,0.5l0,0
		C469.7,238,469.5,237.8,469.5,237.5z M463.5,237.5c0-0.3,0.2-0.5,0.5-0.5l0,0c0.3,0,0.5,0.2,0.5,0.5l0,0c0,0.3-0.2,0.5-0.5,0.5l0,0
		C463.7,238,463.5,237.8,463.5,237.5z M457.5,237.5c0-0.3,0.2-0.5,0.5-0.5l0,0c0.3,0,0.5,0.2,0.5,0.5l0,0c0,0.3-0.2,0.5-0.5,0.5l0,0
		C457.7,238,457.5,237.8,457.5,237.5z M451.5,237.5c0-0.3,0.2-0.5,0.5-0.5l0,0c0.3,0,0.5,0.2,0.5,0.5l0,0c0,0.3-0.2,0.5-0.5,0.5l0,0
		C451.7,238,451.5,237.8,451.5,237.5z M445.5,237.5c0-0.3,0.2-0.5,0.5-0.5l0,0c0.3,0,0.5,0.2,0.5,0.5l0,0c0,0.3-0.2,0.5-0.5,0.5l0,0
		C445.7,238,445.5,237.8,445.5,237.5z M439.5,237.5c0-0.3,0.2-0.5,0.5-0.5l0,0c0.3,0,0.5,0.2,0.5,0.5l0,0c0,0.3-0.2,0.5-0.5,0.5l0,0
		C439.7,238,439.5,237.8,439.5,237.5z M433.5,237.5c0-0.3,0.2-0.5,0.5-0.5l0,0c0.3,0,0.5,0.2,0.5,0.5l0,0c0,0.3-0.2,0.5-0.5,0.5l0,0
		C433.7,238,433.5,237.8,433.5,237.5z M427.5,237.5c0-0.3,0.2-0.5,0.5-0.5l0,0c0.3,0,0.5,0.2,0.5,0.5l0,0c0,0.3-0.2,0.5-0.5,0.5l0,0
		C427.7,238,427.5,237.8,427.5,237.5z M421.5,237.5c0-0.3,0.2-0.5,0.5-0.5l0,0c0.3,0,0.5,0.2,0.5,0.5l0,0c0,0.3-0.2,0.5-0.5,0.5l0,0
		C421.7,238,421.5,237.8,421.5,237.5z M687,233c0-0.3,0.2-0.5,0.5-0.5l0,0c0.3,0,0.5,0.2,0.5,0.5l0,0c0,0.3-0.2,0.5-0.5,0.5l0,0
		C687.2,233.5,687,233.3,687,233z M687,227c0-0.3,0.2-0.5,0.5-0.5l0,0c0.3,0,0.5,0.2,0.5,0.5l0,0c0,0.3-0.2,0.5-0.5,0.5l0,0
		C687.2,227.5,687,227.3,687,227z M687,221c0-0.3,0.2-0.5,0.5-0.5l0,0c0.3,0,0.5,0.2,0.5,0.5l0,0c0,0.3-0.2,0.5-0.5,0.5l0,0
		C687.2,221.5,687,221.3,687,221z M687,215c0-0.3,0.2-0.5,0.5-0.5l0,0c0.3,0,0.5,0.2,0.5,0.5l0,0c0,0.3-0.2,0.5-0.5,0.5l0,0
		C687.2,215.5,687,215.3,687,215z M687,209c0-0.3,0.2-0.5,0.5-0.5l0,0c0.3,0,0.5,0.2,0.5,0.5l0,0c0,0.3-0.2,0.5-0.5,0.5l0,0
		C687.2,209.5,687,209.3,687,209z M687,203c0-0.3,0.2-0.5,0.5-0.5l0,0c0.3,0,0.5,0.2,0.5,0.5l0,0c0,0.3-0.2,0.5-0.5,0.5l0,0
		C687.2,203.5,687,203.3,687,203z M687,197c0-0.3,0.2-0.5,0.5-0.5l0,0c0.3,0,0.5,0.2,0.5,0.5l0,0c0,0.3-0.2,0.5-0.5,0.5l0,0
		C687.2,197.5,687,197.3,687,197z"/>
</g>
<g>
	<path class="st1" d="M418,253c0-0.8,0.7-1.5,1.5-1.5l0,0c0.8,0,1.5,0.7,1.5,1.5l0,0c0,0.8-0.7,1.5-1.5,1.5l0,0
		C418.7,254.5,418,253.8,418,253z M600.5,238.5c0-0.8,0.7-1.5,1.5-1.5l0,0c0.8,0,1.5,0.6,1.5,1.5l0,0c0,0.8-0.7,1.5-1.5,1.5l0,0l0,0
		l0,0C601.2,240,600.5,239.3,600.5,238.5z M584,239.9c-0.8,0-1.5-0.7-1.5-1.5l0,0c0-0.8,0.7-1.5,1.5-1.5l0,0c0.8,0,1.5,0.7,1.5,1.5
		l0,0C585.5,239.2,584.8,239.9,584,239.9L584,239.9L584,239.9z M566,239.8c-0.8,0-1.5-0.7-1.5-1.5l0,0c0-0.8,0.7-1.5,1.5-1.5l0,0
		c0.8,0,1.5,0.7,1.5,1.5l0,0C567.5,239.1,566.8,239.8,566,239.8L566,239.8L566,239.8z M618.5,238.3c0-0.8,0.7-1.5,1.5-1.5l0,0
		c0.8,0,1.5,0.7,1.5,1.5l0,0c0,0.8-0.7,1.5-1.5,1.5l0,0l0,0l0,0C619.2,239.8,618.5,239.1,618.5,238.3z M548,239.7
		c-0.8,0-1.5-0.7-1.5-1.5l0,0c0-0.8,0.7-1.5,1.5-1.5l0,0c0.8,0,1.5,0.7,1.5,1.5l0,0C549.5,239,548.8,239.7,548,239.7L548,239.7
		L548,239.7z M530,239.6c-0.8,0-1.5-0.7-1.5-1.5l0,0c0-0.8,0.7-1.5,1.5-1.5l0,0c0.8,0,1.5,0.7,1.5,1.5l0,0
		C531.5,238.9,530.8,239.6,530,239.6L530,239.6L530,239.6z M636.5,238.1c0-0.8,0.7-1.5,1.5-1.5l0,0c0.8,0,1.5,0.7,1.5,1.5l0,0
		c0,0.8-0.7,1.5-1.5,1.5l0,0l0,0l0,0C637.2,239.6,636.5,238.9,636.5,238.1z M512,239.5c-0.8,0-1.5-0.7-1.5-1.5l0,0
		c0-0.8,0.7-1.5,1.5-1.5l0,0c0.8,0,1.5,0.7,1.5,1.5l0,0C513.5,238.8,512.8,239.5,512,239.5L512,239.5L512,239.5z M494,239.4
		c-0.8,0-1.5-0.7-1.5-1.5l0,0c0-0.8,0.7-1.5,1.5-1.5l0,0c0.8,0,1.5,0.7,1.5,1.5l0,0C495.5,238.7,494.8,239.4,494,239.4L494,239.4
		L494,239.4z M654.5,237.9c0-0.8,0.7-1.5,1.5-1.5l0,0c0.8,0,1.5,0.6,1.5,1.5l0,0c0,0.8-0.7,1.5-1.5,1.5l0,0l0,0l0,0
		C655.2,239.4,654.5,238.7,654.5,237.9z M476,239.3c-0.8,0-1.5-0.7-1.5-1.5l0,0c0-0.8,0.7-1.5,1.5-1.5l0,0c0.8,0,1.5,0.7,1.5,1.5
		l0,0C477.5,238.6,476.8,239.3,476,239.3L476,239.3L476,239.3z M458,239.2c-0.8,0-1.5-0.7-1.5-1.5l0,0c0-0.8,0.7-1.5,1.5-1.5l0,0
		c0.8,0,1.5,0.7,1.5,1.5l0,0C459.5,238.5,458.8,239.2,458,239.2L458,239.2L458,239.2z M672.5,237.7c0-0.8,0.6-1.5,1.5-1.5l0,0
		c0.8,0,1.5,0.7,1.5,1.5l0,0c0,0.8-0.7,1.5-1.5,1.5l0,0l0,0l0,0C673.2,239.2,672.5,238.5,672.5,237.7z M440,239.1
		c-0.8,0-1.5-0.7-1.5-1.5l0,0c0-0.8,0.7-1.5,1.5-1.5l0,0c0.8,0,1.5,0.7,1.5,1.5l0,0C441.5,238.4,440.8,239.1,440,239.1L440,239.1
		L440,239.1z M422,239c-0.8,0-1.5-0.7-1.5-1.5l0,0c0-0.8,0.7-1.5,1.5-1.5l0,0c0.8,0,1.5,0.7,1.5,1.5l0,0
		C423.5,238.3,422.8,239,422,239L422,239L422,239z M686,233c0-0.8,0.7-1.5,1.5-1.5l0,0c0.8,0,1.5,0.7,1.5,1.5l0,0
		c0,0.8-0.7,1.5-1.5,1.5l0,0C686.7,234.5,686,233.8,686,233z M686,215c0-0.8,0.7-1.5,1.5-1.5l0,0c0.8,0,1.5,0.7,1.5,1.5l0,0
		c0,0.8-0.7,1.5-1.5,1.5l0,0C686.7,216.5,686,215.8,686,215z M686,197c0-0.8,0.7-1.5,1.5-1.5l0,0c0.8,0,1.5,0.7,1.5,1.5l0,0
		c0,0.8-0.7,1.5-1.5,1.5l0,0C686.7,198.5,686,197.8,686,197z"/>
</g>
<g>
	<path class="st1" d="M686,117c0-0.8,0.7-1.5,1.5-1.5l0,0c0.8,0,1.5,0.7,1.5,1.5l0,0c0,0.8-0.7,1.5-1.5,1.5l0,0
		C686.7,118.5,686,117.8,686,117z M686,99c0-0.8,0.7-1.5,1.5-1.5l0,0c0.8,0,1.5,0.7,1.5,1.5l0,0c0,0.8-0.7,1.5-1.5,1.5l0,0
		C686.7,100.5,686,99.8,686,99z M686,81c0-0.8,0.7-1.5,1.5-1.5l0,0c0.8,0,1.5,0.7,1.5,1.5l0,0c0,0.8-0.7,1.5-1.5,1.5l0,0
		C686.7,82.5,686,81.8,686,81z M686,63c0-0.8,0.7-1.5,1.5-1.5l0,0c0.8,0,1.5,0.7,1.5,1.5l0,0c0,0.8-0.7,1.5-1.5,1.5l0,0
		C686.7,64.5,686,63.8,686,63z"/>
</g>
<g>
	<path class="st1" d="M232.7,55.4c0-0.3,0.2-0.5,0.5-0.5l0,0c0.3,0,0.5,0.2,0.5,0.5l0,0c0,0.3-0.2,0.5-0.5,0.5l0,0
		C232.9,55.9,232.7,55.7,232.7,55.4z M226.7,55.4c0-0.3,0.2-0.5,0.5-0.5l0,0c0.3,0,0.5,0.2,0.5,0.5l0,0c0,0.3-0.2,0.5-0.5,0.5l0,0
		C226.9,55.9,226.7,55.7,226.7,55.4z M220.7,55.4c0-0.3,0.2-0.5,0.5-0.5l0,0c0.3,0,0.5,0.2,0.5,0.5l0,0c0,0.3-0.2,0.5-0.5,0.5l0,0
		C220.9,55.9,220.7,55.7,220.7,55.4z M214.7,55.4c0-0.3,0.2-0.5,0.5-0.5l0,0c0.3,0,0.5,0.2,0.5,0.5l0,0c0,0.3-0.2,0.5-0.5,0.5l0,0
		C214.9,55.9,214.7,55.7,214.7,55.4z M208.7,55.4c0-0.3,0.2-0.5,0.5-0.5l0,0c0.3,0,0.5,0.2,0.5,0.5l0,0c0,0.3-0.2,0.5-0.5,0.5l0,0
		C208.9,55.9,208.7,55.7,208.7,55.4z M202.7,55.4c0-0.3,0.2-0.5,0.5-0.5l0,0c0.3,0,0.5,0.2,0.5,0.5l0,0c0,0.3-0.2,0.5-0.5,0.5l0,0
		C202.9,55.9,202.7,55.7,202.7,55.4z M196.7,55.4c0-0.3,0.2-0.5,0.5-0.5l0,0c0.3,0,0.5,0.2,0.5,0.5l0,0c0,0.3-0.2,0.5-0.5,0.5l0,0
		C196.9,55.9,196.7,55.7,196.7,55.4z M190.7,55.4c0-0.3,0.2-0.5,0.5-0.5l0,0c0.3,0,0.5,0.2,0.5,0.5l0,0c0,0.3-0.2,0.5-0.5,0.5l0,0
		C190.9,55.9,190.7,55.7,190.7,55.4z M184.7,55.4c0-0.3,0.2-0.5,0.5-0.5l0,0c0.3,0,0.5,0.2,0.5,0.5l0,0c0,0.3-0.2,0.5-0.5,0.5l0,0
		C184.9,55.9,184.7,55.7,184.7,55.4z M178.7,55.4c0-0.3,0.2-0.5,0.5-0.5l0,0c0.3,0,0.5,0.2,0.5,0.5l0,0c0,0.3-0.2,0.5-0.5,0.5l0,0
		C178.9,55.9,178.7,55.7,178.7,55.4z"/>
</g>
<g>
	<path class="st1" d="M231.7,55.4c0-0.8,0.7-1.5,1.5-1.5l0,0c0.8,0,1.5,0.7,1.5,1.5l0,0c0,0.8-0.7,1.5-1.5,1.5l0,0
		C232.4,56.9,231.7,56.2,231.7,55.4z M213.7,55.4c0-0.8,0.7-1.5,1.5-1.5l0,0c0.8,0,1.5,0.7,1.5,1.5l0,0c0,0.8-0.7,1.5-1.5,1.5l0,0
		C214.4,56.9,213.7,56.2,213.7,55.4z M195.7,55.4c0-0.8,0.7-1.5,1.5-1.5l0,0c0.8,0,1.5,0.7,1.5,1.5l0,0c0,0.8-0.7,1.5-1.5,1.5l0,0
		C196.4,56.9,195.7,56.2,195.7,55.4z M177.7,55.4c0-0.8,0.7-1.5,1.5-1.5l0,0c0.8,0,1.5,0.7,1.5,1.5l0,0c0,0.8-0.7,1.5-1.5,1.5l0,0
		C178.4,56.9,177.7,56.2,177.7,55.4z"/>
</g>
<g>
	<path class="st1" d="M479,257c0-0.3,0.2-0.5,0.5-0.5l0,0c0.3,0,0.5,0.2,0.5,0.5l0,0c0,0.3-0.2,0.5-0.5,0.5l0,0
		C479.2,257.5,479,257.3,479,257z M479,251c0-0.3,0.2-0.5,0.5-0.5l0,0c0.3,0,0.5,0.2,0.5,0.5l0,0c0,0.3-0.2,0.5-0.5,0.5l0,0
		C479.2,251.5,479,251.3,479,251z M479,245c0-0.3,0.2-0.5,0.5-0.5l0,0c0.3,0,0.5,0.2,0.5,0.5l0,0c0,0.3-0.2,0.5-0.5,0.5l0,0
		C479.2,245.5,479,245.3,479,245z M479,239c0-0.3,0.2-0.5,0.5-0.5l0,0c0.3,0,0.5,0.2,0.5,0.5l0,0c0,0.3-0.2,0.5-0.5,0.5l0,0
		C479.2,239.5,479,239.3,479,239z"/>
</g>
<g>
	<path class="st1" d="M539.2,257c0-0.3,0.2-0.5,0.5-0.5l0,0c0.3,0,0.5,0.2,0.5,0.5l0,0c0,0.3-0.2,0.5-0.5,0.5l0,0
		C539.4,257.5,539.2,257.3,539.2,257z M539.2,251c0-0.3,0.2-0.5,0.5-0.5l0,0c0.3,0,0.5,0.2,0.5,0.5l0,0c0,0.3-0.2,0.5-0.5,0.5l0,0
		C539.4,251.5,539.2,251.3,539.2,251z M539.2,245c0-0.3,0.2-0.5,0.5-0.5l0,0c0.3,0,0.5,0.2,0.5,0.5l0,0c0,0.3-0.2,0.5-0.5,0.5l0,0
		C539.4,245.5,539.2,245.3,539.2,245z M539.2,239c0-0.3,0.2-0.5,0.5-0.5l0,0c0.3,0,0.5,0.2,0.5,0.5l0,0c0,0.3-0.2,0.5-0.5,0.5l0,0
		C539.4,239.5,539.2,239.3,539.2,239z"/>
</g>
<g>
	<path class="st1" d="M599.7,257c0-0.3,0.2-0.5,0.5-0.5l0,0c0.3,0,0.5,0.2,0.5,0.5l0,0c0,0.3-0.2,0.5-0.5,0.5l0,0
		C599.9,257.5,599.7,257.3,599.7,257z M599.7,251c0-0.3,0.2-0.5,0.5-0.5l0,0c0.3,0,0.5,0.2,0.5,0.5l0,0c0,0.3-0.2,0.5-0.5,0.5l0,0
		C599.9,251.5,599.7,251.3,599.7,251z M599.7,245c0-0.3,0.2-0.5,0.5-0.5l0,0c0.3,0,0.5,0.2,0.5,0.5l0,0c0,0.3-0.2,0.5-0.5,0.5l0,0
		C599.9,245.5,599.7,245.3,599.7,245z M599.7,239c0-0.3,0.2-0.5,0.5-0.5l0,0c0.3,0,0.5,0.2,0.5,0.5l0,0c0,0.3-0.2,0.5-0.5,0.5l0,0
		C599.9,239.5,599.7,239.3,599.7,239z"/>
</g>
<g>
	<circle class="st1" cx="479.5" cy="257" r="1.5"/>
</g>
<g>
	<circle class="st1" cx="539.7" cy="257" r="1.5"/>
</g>
<g>
	<circle class="st1" cx="600.2" cy="257" r="1.5"/>
</g>
</svg>
