<?xml version="1.0" encoding="utf-8"?>
<!-- Generator: Adobe Illustrator 19.2.1, SVG Export Plug-In . SVG Version: 6.00 Build 0)  -->
<svg version="1.1" id="Layer_1" xmlns="http://www.w3.org/2000/svg" xmlns:xlink="http://www.w3.org/1999/xlink" x="0px" y="0px"
	 viewBox="0 0 800 400" style="enable-background:new 0 0 800 400;" xml:space="preserve">
<style type="text/css">
	.st0{fill:#F2F6FA;}
	.st1{fill:none;stroke:#183B4D;stroke-linecap:round;stroke-miterlimit:10;stroke-dasharray:0,6;}
	.st2{fill:#FFFFFF;stroke:#183B4D;stroke-miterlimit:10;}
	.st3{fill:none;stroke:#14283C;stroke-linejoin:round;stroke-miterlimit:10;}
	.st4{fill:none;stroke:#FF405E;stroke-miterlimit:10;}
	.st5{fill:#FF405E;}
	.st6{fill:none;stroke:#CDDAE2;stroke-miterlimit:10;}
	.st7{fill:#F2F6FA;stroke:#CDDAE2;stroke-miterlimit:10;}
	.st8{fill:none;}
	.st9{fill:#183B4D;}
	.st10{font-family:'Roboto-Bold';}
	.st11{font-size:15px;}
	.st12{font-family:'Roboto-Light';}
	.st13{font-size:13px;}
	.st14{font-family:'Roboto-Medium';}
	.st15{fill:#FFFFFF;}
	.st16{fill:#7BA1B8;}
	.st17{fill:none;stroke:#183B4D;stroke-width:3;stroke-linecap:round;stroke-miterlimit:10;stroke-dasharray:0,18;}
	.st18{fill:none;stroke:#183B4D;stroke-miterlimit:10;}
	.st19{fill:none;stroke:#7B9FB6;stroke-linecap:round;stroke-miterlimit:10;}
	.st20{fill:none;stroke:#7B9FB6;stroke-linecap:round;stroke-linejoin:round;stroke-miterlimit:10;}
	.st21{fill:#FFFFFF;stroke:#7B9FB6;stroke-linejoin:round;stroke-miterlimit:10;}
</style>
<path class="st0" d="M779,382.3H305.7c-5.5,0-10-4.5-10-10V140.1c0-5.5,4.5-10,10-10H779c5.5,0,10,4.5,10,10v232.2
	C789,377.8,784.5,382.3,779,382.3z"/>
<path class="st0" d="M234.5,130.6h-52.8c-1.4,0-2.5-1.1-2.5-2.5v-13.9c0-1.4,1.1-2.5,2.5-2.5h52.8c1.4,0,2.5,1.1,2.5,2.5v13.9
	C237,129.4,235.9,130.6,234.5,130.6z"/>
<line class="st1" x1="687.5" y1="157" x2="687.5" y2="99.2"/>
<g>
	<path class="st2" d="M708.3,90.2h-0.3c0.7-1.9,1.1-4.1,1.1-6.3c0-10.6-8.6-19.1-19.2-19.1c-8.4,0-15.5,5.4-18.1,12.9
		c-0.6-0.1-1.2-0.1-1.8-0.1c-7.1,0-12.8,5.7-12.8,12.8c0,6.9,5.5,12.5,12.3,12.8l38.8-0.1c3.5,0,6.4-2.9,6.4-6.4
		S711.8,90.2,708.3,90.2z"/>
</g>
<path class="st3" d="M98.6,305.5h-70c-2.8,0-5-2.2-5-5v-30c0-2.8,2.2-5,5-5h70c2.8,0,5,2.2,5,5v30
	C103.6,303.3,101.4,305.5,98.6,305.5z"/>
<path class="st3" d="M98.6,365.5h-70c-2.8,0-5-2.2-5-5v-30c0-2.8,2.2-5,5-5h70c2.8,0,5,2.2,5,5v30
	C103.6,363.3,101.4,365.5,98.6,365.5z"/>
<g>
	<g>
		<line class="st4" x1="123" y1="317.5" x2="137.9" y2="317.5"/>
		<g>
			<polygon class="st5" points="135.9,319.2 137.6,317.5 135.9,315.8 137.3,315.8 139,317.5 137.3,319.2 			"/>
		</g>
	</g>
</g>
<path class="st6" d="M742.6,246.9H406.4c-2.8,0-5-2.2-5-5v-70c0-2.8,2.2-5,5-5h336.2c2.8,0,5,2.2,5,5v70
	C747.6,244.7,745.3,246.9,742.6,246.9z"/>
<path class="st7" d="M737.6,241.9H401.4c-2.8,0-5-2.2-5-5v-70c0-2.8,2.2-5,5-5h336.2c2.8,0,5,2.2,5,5v70
	C742.6,239.7,740.4,241.9,737.6,241.9z"/>
<path class="st7" d="M732.7,236.9H396.5c-2.8,0-5-2.2-5-5v-70c0-2.8,2.2-5,5-5h336.2c2.8,0,5,2.2,5,5v70
	C737.7,234.7,735.4,236.9,732.7,236.9z"/>
<path class="st2" d="M444.8,347.1h-30c-2.8,0-5-2.2-5-5v-30c0-2.8,2.2-5,5-5h30c2.8,0,5,2.2,5,5v30
	C449.8,344.9,447.5,347.1,444.8,347.1z"/>
<path class="st2" d="M439.8,342.1h-30c-2.8,0-5-2.2-5-5v-30c0-2.8,2.2-5,5-5h30c2.8,0,5,2.2,5,5v30
	C444.8,339.9,442.5,342.1,439.8,342.1z"/>
<path class="st2" d="M434.8,337.1h-30c-2.8,0-5-2.2-5-5v-30c0-2.8,2.2-5,5-5h30c2.8,0,5,2.2,5,5v30
	C439.8,334.9,437.5,337.1,434.8,337.1z"/>
<path class="st2" d="M625.2,347.1h-30c-2.8,0-5-2.2-5-5v-30c0-2.8,2.2-5,5-5h30c2.8,0,5,2.2,5,5v30
	C630.2,344.9,628,347.1,625.2,347.1z"/>
<path class="st2" d="M620.2,342.1h-30c-2.8,0-5-2.2-5-5v-30c0-2.8,2.2-5,5-5h30c2.8,0,5,2.2,5,5v30
	C625.2,339.9,623,342.1,620.2,342.1z"/>
<path class="st2" d="M615.2,337.1h-30c-2.8,0-5-2.2-5-5v-30c0-2.8,2.2-5,5-5h30c2.8,0,5,2.2,5,5v30
	C620.2,334.9,618,337.1,615.2,337.1z"/>
<rect x="23.3" y="24.5" class="st8" width="321.8" height="21.4"/>
<text transform="matrix(1 0 0 1 23.2568 35.7004)" class="st9 st10 st11">Architecture and Components</text>
<rect x="145.5" y="183.5" class="st8" width="72.1" height="53.4"/>
<text transform="matrix(1 0 0 1 162.6798 193.2014)"><tspan x="0" y="0" class="st9 st12 st13">Elastic  </tspan><tspan x="-0.4" y="15.6" class="st9 st12 st13">search</tspan></text>
<rect x="408.7" y="355.6" class="st8" width="180" height="26.7"/>
<text transform="matrix(1 0 0 1 408.7065 365.3523)" class="st9 st12 st13">Host(s) with containers</text>
<rect x="27.6" y="279.4" class="st8" width="72.1" height="24.9"/>
<text transform="matrix(1 0 0 1 38.8854 289.1169)" class="st9 st14 st13">Vamp UI</text>
<rect x="23.3" y="64.6" class="st8" width="148.5" height="68.5"/>
<text transform="matrix(1 0 0 1 23.2568 74.3547)"><tspan x="0" y="0" class="st9 st12 st13">Vamp control messages</tspan><tspan x="0" y="26" class="st9 st12 st13">User /Production traffic</tspan><tspan x="0" y="52" class="st9 st12 st13">Production LAN/ VLAN</tspan></text>
<rect x="27.6" y="341.3" class="st8" width="72.1" height="24.2"/>
<text transform="matrix(1 0 0 1 35.3629 351.0554)" class="st9 st14 st13">Vamp CLI</text>
<path class="st3" d="M181.5,156.8c-19.2,0-35.5,9-35.5,20v40c0,11,16.3,20,35.5,20c19.2,0,35.5-9,35.5-20v-40
	C217,165.8,200.7,156.8,181.5,156.8z"/>
<path class="st9" d="M259.4,345.5h-110c-2.8,0-5-2.2-5-5v-50c0-2.8,2.2-5,5-5h110c2.8,0,5,2.2,5,5v50
	C264.4,343.3,262.2,345.5,259.4,345.5z"/>
<path class="st2" d="M504.7,347.1h-30c-2.8,0-5-2.2-5-5v-30c0-2.8,2.2-5,5-5h30c2.8,0,5,2.2,5,5v30
	C509.7,344.9,507.5,347.1,504.7,347.1z"/>
<path class="st2" d="M499.7,342.1h-30c-2.8,0-5-2.2-5-5v-30c0-2.8,2.2-5,5-5h30c2.8,0,5,2.2,5,5v30
	C504.7,339.9,502.5,342.1,499.7,342.1z"/>
<path class="st2" d="M494.7,337.1h-30c-2.8,0-5-2.2-5-5v-30c0-2.8,2.2-5,5-5h30c2.8,0,5,2.2,5,5v30
	C499.7,334.9,497.5,337.1,494.7,337.1z"/>
<path class="st2" d="M564.7,347.1h-30c-2.8,0-5-2.2-5-5v-30c0-2.8,2.2-5,5-5h30c2.8,0,5,2.2,5,5v30
	C569.7,344.9,567.5,347.1,564.7,347.1z"/>
<path class="st2" d="M559.7,342.1h-30c-2.8,0-5-2.2-5-5v-30c0-2.8,2.2-5,5-5h30c2.8,0,5,2.2,5,5v30
	C564.7,339.9,562.5,342.1,559.7,342.1z"/>
<path class="st2" d="M554.7,337.1h-30c-2.8,0-5-2.2-5-5v-30c0-2.8,2.2-5,5-5h30c2.8,0,5,2.2,5,5v30
	C559.7,334.9,557.5,337.1,554.7,337.1z"/>
<g>
	<g>
		<path class="st15" d="M194.6,313.6h2.1l2.8,7.2l2.7-7.2h1.9l-3.7,9.4h-2L194.6,313.6z"/>
		<path class="st15" d="M217.3,313.6h1.7v1.5h0c0-0.1,0.1-0.3,0.3-0.5c0.2-0.2,0.4-0.4,0.6-0.6c0.3-0.2,0.6-0.3,0.9-0.5
			c0.4-0.1,0.7-0.2,1.2-0.2c0.7,0,1.3,0.1,1.8,0.4c0.5,0.3,0.9,0.7,1.2,1.3c0.3-0.6,0.7-1,1.3-1.3c0.6-0.3,1.1-0.4,1.7-0.4
			c0.7,0,1.3,0.1,1.8,0.4c0.5,0.2,0.8,0.6,1.1,0.9c0.3,0.4,0.4,0.8,0.5,1.3c0.1,0.5,0.1,1,0.1,1.5v5.5h-1.8v-5.3c0-0.4,0-0.7-0.1-1
			c0-0.3-0.1-0.6-0.3-0.9c-0.1-0.3-0.4-0.5-0.6-0.6c-0.3-0.2-0.6-0.2-1.1-0.2c-0.9,0-1.5,0.3-1.9,0.8c-0.4,0.5-0.6,1.2-0.6,2.1v5.2
			h-1.8v-4.9c0-0.5,0-0.9-0.1-1.2c0-0.4-0.1-0.7-0.3-1c-0.1-0.3-0.3-0.5-0.6-0.6c-0.3-0.2-0.6-0.2-1-0.2c-0.3,0-0.6,0.1-0.9,0.2
			c-0.3,0.1-0.6,0.3-0.8,0.6c-0.2,0.3-0.4,0.6-0.5,1c-0.1,0.4-0.2,0.9-0.2,1.4v4.9h-1.8V313.6z"/>
		<path class="st15" d="M233.9,313.6h1.8v1.4h0c0.3-0.5,0.8-0.9,1.4-1.2c0.6-0.3,1.2-0.4,1.9-0.4c0.7,0,1.4,0.1,2,0.4
			c0.6,0.3,1.1,0.6,1.5,1.1c0.4,0.5,0.7,1,1,1.6c0.2,0.6,0.3,1.3,0.3,1.9c0,0.7-0.1,1.4-0.3,2c-0.2,0.6-0.5,1.1-1,1.6
			c-0.4,0.4-0.9,0.8-1.5,1c-0.6,0.3-1.3,0.4-2,0.4c-0.7,0-1.3-0.1-1.9-0.4s-1.1-0.7-1.4-1.2h0v3.8h-1.8V313.6z M238.8,315
			c-0.5,0-0.9,0.1-1.3,0.2c-0.4,0.2-0.7,0.4-1,0.7c-0.3,0.3-0.5,0.6-0.6,1c-0.1,0.4-0.2,0.8-0.2,1.3c0,0.5,0.1,0.9,0.2,1.3
			c0.1,0.4,0.4,0.8,0.6,1c0.3,0.3,0.6,0.5,1,0.7c0.4,0.2,0.8,0.2,1.3,0.2c0.5,0,0.9-0.1,1.3-0.2c0.4-0.2,0.7-0.4,1-0.7
			c0.3-0.3,0.5-0.6,0.6-1c0.1-0.4,0.2-0.8,0.2-1.3c0-0.5-0.1-0.9-0.2-1.3c-0.1-0.4-0.4-0.8-0.6-1c-0.3-0.3-0.6-0.5-1-0.7
			C239.7,315.1,239.2,315,238.8,315z"/>
		<path class="st15" d="M209.6,323.3c1.4,0,2.7-0.6,3.5-1.6v1.3h1.6v-9.6h-1.6v1.4c-0.8-1-2.2-1.6-3.5-1.6c-2.6,0-4.7,2.2-4.7,5
			C204.9,321.1,207,323.3,209.6,323.3z M209.9,315c1.7,0,3.1,1.5,3.1,3.3c0,1.8-1.4,3.3-3.1,3.3c-2,0-3.1-1.5-3.1-3.3
			C206.8,316.5,208,315,209.9,315z"/>
	</g>
	<path class="st5" d="M186.7,306.9c-0.5-0.9-1.5-1.4-2.9-1.4h-5.4h-10.2c-1.4,0-2.4,0.5-2.9,1.4c-0.5,0.9-0.4,2,0.2,3.2l7.8,13.5
		c0.7,1.2,1.6,1.8,2.7,1.8c1,0,2-0.6,2.7-1.8l7.8-13.5C187.2,308.9,187.2,307.8,186.7,306.9z M166.6,307.6c0.3-0.4,0.9-0.7,1.7-0.7
		h10.2c0.8,0,1.5,0.3,1.7,0.7c0.3,0.4,0.2,1.1-0.2,1.8l-0.4,0.8c-0.2-0.1-0.5-0.2-0.8-0.2l-7.8,0c-1.3,0-2.4,0.5-2.9,1.4l-1.1-2
		C166.4,308.7,166.3,308,166.6,307.6z M176.1,316.1c0,0-0.1-0.1-0.1-0.1l-1.9-3.3l-0.7-1.2c0-0.1-0.1-0.1-0.1-0.1c0,0,0.1,0,0.2,0
		h5.2c0.1,0,0.1,0,0.2,0c0,0,0,0,0,0l-2.6,4.6C176.1,316.1,176.1,316.1,176.1,316.1z M177.5,322.9c-0.4,0.7-0.9,1.1-1.5,1.1
		c-0.5,0-1.1-0.4-1.5-1.1l-5.4-9.3c-0.2-0.6-0.3-1.1-0.1-1.5c0.3-0.4,0.9-0.7,1.7-0.7h1.1c0,0.3,0.1,0.6,0.3,0.9l3.9,6.8
		c0.7,1.2,1.6,1.8,2.7,1.8l0,0L177.5,322.9z M185.3,309.4l-5.3,9.1c-0.4,0.6-0.8,0.9-1.3,0.9c-0.5,0-1.1-0.4-1.5-1.1l-0.5-0.9
		c0.2-0.1,0.5-0.4,0.6-0.6l3.8-6.6c0.7-1.2,0.8-2.3,0.2-3.2c0,0,0,0,0,0h2.5c0.8,0,1.5,0.3,1.7,0.7
		C185.8,308,185.7,308.7,185.3,309.4z"/>
</g>
<path class="st9" d="M615.5,226.2h-211c-2.8,0-5-2.2-5-5v-50c0-2.8,2.2-5,5-5h211c2.8,0,5,2.2,5,5v50
	C620.5,224,618.3,226.2,615.5,226.2z"/>
<g>
	<path class="st5" d="M435.3,187.6c-0.5-0.9-1.6-1.4-2.9-1.4H427h-10.2c-1.4,0-2.4,0.5-2.9,1.4c-0.5,0.9-0.4,2,0.2,3.2l7.8,13.5
		c0.7,1.2,1.6,1.8,2.7,1.8c1,0,2-0.6,2.7-1.8l7.8-13.5C435.8,189.6,435.8,188.5,435.3,187.6z M415,188.3c0.3-0.5,0.9-0.7,1.7-0.7
		H427c0.8,0,1.5,0.3,1.7,0.7c0.3,0.5,0.2,1.1-0.2,1.8l-0.4,0.8c-0.2-0.1-0.5-0.2-0.9-0.2l-7.8,0c-1.4,0-2.4,0.5-2.9,1.4l-1.1-2
		C414.9,189.4,414.8,188.7,415,188.3z M424.6,196.9c0,0-0.1-0.1-0.1-0.1l-1.9-3.3l-0.7-1.2c0-0.1-0.1-0.1-0.1-0.1c0,0,0.1,0,0.2,0
		h5.2c0.1,0,0.1,0,0.2,0c0,0,0,0,0,0l-2.7,4.6C424.6,196.8,424.6,196.9,424.6,196.9z M426.1,203.7c-0.4,0.7-1,1.1-1.5,1.1
		c-0.5,0-1.1-0.4-1.5-1.1l-5.4-9.4c-0.2-0.6-0.3-1.1-0.1-1.5c0.3-0.5,0.9-0.7,1.7-0.7h1.1c0,0.3,0.1,0.6,0.3,0.9l3.9,6.8
		c0.7,1.2,1.6,1.8,2.7,1.8c0,0,0,0,0,0L426.1,203.7z M433.9,190.1l-5.3,9.2c-0.4,0.6-0.9,0.9-1.3,0.9c-0.5,0-1.1-0.4-1.5-1.1
		l-0.5-0.9c0.2-0.1,0.5-0.4,0.6-0.7l3.8-6.6c0.7-1.2,0.8-2.3,0.2-3.2c0,0,0,0,0,0h2.5c0.8,0,1.5,0.3,1.7,0.7
		C434.4,188.7,434.3,189.4,433.9,190.1z"/>
</g>
<rect x="499.4" y="192.1" class="st8" width="121.1" height="21.4"/>
<text transform="matrix(1 0 0 1 499.3751 203.3555)" class="st15 st14 st11">gateway agent</text>
<g>
	<g>
		<path class="st15" d="M443.1,194.3h2.1l2.8,7.2l2.7-7.2h1.9l-3.7,9.4h-2L443.1,194.3z"/>
		<path class="st15" d="M465.7,194.3h1.7v1.5h0c0-0.1,0.1-0.3,0.3-0.5c0.2-0.2,0.4-0.4,0.6-0.6c0.3-0.2,0.6-0.3,0.9-0.5
			c0.4-0.1,0.7-0.2,1.2-0.2c0.7,0,1.3,0.1,1.8,0.4c0.5,0.3,0.9,0.7,1.2,1.3c0.3-0.6,0.7-1,1.3-1.3c0.6-0.3,1.1-0.4,1.7-0.4
			c0.7,0,1.3,0.1,1.8,0.4c0.5,0.2,0.8,0.6,1.1,0.9c0.3,0.4,0.4,0.8,0.5,1.3c0.1,0.5,0.1,1,0.1,1.5v5.5h-1.8v-5.3c0-0.4,0-0.7-0.1-1
			c0-0.3-0.1-0.6-0.3-0.9c-0.1-0.3-0.4-0.5-0.6-0.6c-0.3-0.2-0.6-0.2-1.1-0.2c-0.9,0-1.5,0.3-1.9,0.8c-0.4,0.5-0.6,1.2-0.6,2.1v5.2
			H472v-4.9c0-0.5,0-0.9-0.1-1.2c0-0.4-0.1-0.7-0.3-1c-0.1-0.3-0.3-0.5-0.6-0.6c-0.3-0.2-0.6-0.2-1-0.2c-0.3,0-0.6,0.1-0.9,0.2
			c-0.3,0.1-0.6,0.3-0.8,0.6c-0.2,0.3-0.4,0.6-0.5,1c-0.1,0.4-0.2,0.9-0.2,1.4v4.9h-1.8V194.3z"/>
		<path class="st15" d="M482.3,194.3h1.8v1.4h0c0.3-0.5,0.8-0.9,1.4-1.2c0.6-0.3,1.2-0.4,1.9-0.4c0.7,0,1.4,0.1,2,0.4
			c0.6,0.3,1.1,0.6,1.5,1.1c0.4,0.5,0.7,1,1,1.6c0.2,0.6,0.3,1.3,0.3,1.9c0,0.7-0.1,1.4-0.3,2c-0.2,0.6-0.5,1.1-1,1.6
			c-0.4,0.4-0.9,0.8-1.5,1c-0.6,0.3-1.3,0.4-2,0.4c-0.7,0-1.3-0.1-1.9-0.4s-1.1-0.7-1.4-1.2h0v3.8h-1.8V194.3z M487.2,195.7
			c-0.5,0-0.9,0.1-1.3,0.2c-0.4,0.2-0.7,0.4-1,0.7c-0.3,0.3-0.5,0.6-0.6,1c-0.1,0.4-0.2,0.8-0.2,1.3c0,0.5,0.1,0.9,0.2,1.3
			c0.1,0.4,0.4,0.8,0.6,1c0.3,0.3,0.6,0.5,1,0.7c0.4,0.2,0.8,0.2,1.3,0.2s0.9-0.1,1.3-0.2c0.4-0.2,0.7-0.4,1-0.7
			c0.3-0.3,0.5-0.6,0.6-1c0.1-0.4,0.2-0.8,0.2-1.3c0-0.5-0.1-0.9-0.2-1.3c-0.1-0.4-0.4-0.8-0.6-1c-0.3-0.3-0.6-0.5-1-0.7
			C488.1,195.8,487.7,195.7,487.2,195.7z"/>
		<path class="st15" d="M458.1,204c1.4,0,2.7-0.6,3.5-1.6v1.3h1.6v-9.6h-1.6v1.4c-0.8-1-2.2-1.6-3.5-1.6c-2.6,0-4.7,2.2-4.7,5
			S455.5,204,458.1,204z M458.4,195.7c1.7,0,3.1,1.5,3.1,3.3c0,1.8-1.4,3.3-3.1,3.3c-2,0-3.1-1.5-3.1-3.3
			C455.2,197.2,456.5,195.7,458.4,195.7z"/>
	</g>
	<path class="st5" d="M435.2,187.6c-0.5-0.9-1.5-1.4-2.9-1.4h-5.4h-10.2c-1.4,0-2.4,0.5-2.9,1.4c-0.5,0.9-0.4,2,0.2,3.2l7.8,13.5
		c0.7,1.2,1.6,1.8,2.7,1.8c1,0,2-0.6,2.7-1.8l7.8-13.5C435.6,189.6,435.7,188.5,435.2,187.6z M415,188.3c0.3-0.4,0.9-0.7,1.7-0.7
		h10.2c0.8,0,1.5,0.3,1.7,0.7c0.3,0.4,0.2,1.1-0.2,1.8l-0.4,0.8c-0.2-0.1-0.5-0.2-0.8-0.2l-7.8,0c-1.3,0-2.4,0.5-2.9,1.4l-1.1-2
		C414.9,189.4,414.8,188.7,415,188.3z M424.5,196.8c0,0-0.1-0.1-0.1-0.1l-1.9-3.3l-0.7-1.2c0-0.1-0.1-0.1-0.1-0.1c0,0,0.1,0,0.2,0
		h5.2c0.1,0,0.1,0,0.2,0c0,0,0,0,0,0l-2.6,4.6C424.6,196.8,424.5,196.8,424.5,196.8z M426,203.6c-0.4,0.7-0.9,1.1-1.5,1.1
		c-0.5,0-1.1-0.4-1.5-1.1l-5.4-9.3c-0.2-0.6-0.3-1.1-0.1-1.5c0.3-0.4,0.9-0.7,1.7-0.7h1.1c0,0.3,0.1,0.6,0.3,0.9l3.9,6.8
		c0.7,1.2,1.6,1.8,2.7,1.8l0,0L426,203.6z M433.8,190.1l-5.3,9.1c-0.4,0.6-0.8,0.9-1.3,0.9c-0.5,0-1.1-0.4-1.5-1.1l-0.5-0.9
		c0.2-0.1,0.5-0.4,0.6-0.6l3.8-6.6c0.7-1.2,0.8-2.3,0.2-3.2c0,0,0,0,0,0h2.5c0.8,0,1.5,0.3,1.7,0.7
		C434.3,188.7,434.2,189.4,433.8,190.1z"/>
</g>
<path class="st16" d="M722.2,216.2h-70c-2.8,0-5-2.2-5-5v-30c0-2.8,2.2-5,5-5h70c2.8,0,5,2.2,5,5v30
	C727.2,214,725,216.2,722.2,216.2z"/>
<rect x="627.4" y="190.1" class="st8" width="121.1" height="21.4"/>
<text transform="matrix(1 0 0 1 662.9152 199.8555)" class="st15 st14 st13">HAproxy</text>
<path class="st16" d="M366,161.8v70.1c0,2.8-2.2,5-5,5h-30c-2.8,0-5-2.2-5-5v-70.1c0-2.8,2.2-5,5-5h30
	C363.8,156.8,366,159,366,161.8z"/>
<rect x="339.9" y="156.8" class="st8" width="21.4" height="78.6"/>
<text transform="matrix(0 -1 1 0 349.6611 227.9316)" class="st15 st14 st13">ZooKeeper</text>
<path class="st16" d="M366,281.7v70c0,2.8-2.2,5-5,5h-30c-2.8,0-5-2.2-5-5v-70c0-2.8,2.2-5,5-5h30C363.8,276.7,366,278.9,366,281.7z
	"/>
<rect x="332.9" y="277" class="st8" width="31.4" height="79.3"/>
<text transform="matrix(0 -1 1 0 342.6709 352.7686)"><tspan x="0" y="0" class="st15 st14 st13">Mesosphere</tspan><tspan x="8" y="15.6" class="st15 st14 st13">Marathon</tspan></text>
<g>
	<g>
		<line class="st4" x1="340.5" y1="242.5" x2="340.5" y2="270.9"/>
		<g>
			<rect x="337.2" y="242" class="st5" width="6.5" height="1"/>
		</g>
		<g>
			<polygon class="st5" points="338.8,268.9 340.5,270.6 342.2,268.9 342.2,270.3 340.5,272 338.8,270.3 			"/>
		</g>
	</g>
</g>
<g>
	<g>
		<line class="st4" x1="181.5" y1="242.3" x2="181.5" y2="279.9"/>
		<g>
			<rect x="178.2" y="241.8" class="st5" width="6.5" height="1"/>
		</g>
		<g>
			<polygon class="st5" points="179.8,277.9 181.5,279.6 183.2,277.9 183.2,279.3 181.5,281 179.8,279.3 			"/>
		</g>
	</g>
</g>
<g>
	<g>
		<path class="st4" d="M228.5,280.5V206c0-5.5,4.5-10,10-10h81.4"/>
		<g>
			<rect x="225.2" y="280" class="st5" width="6.5" height="1"/>
		</g>
		<g>
			<polygon class="st5" points="317.9,197.7 319.6,196 317.9,194.3 319.3,194.3 321,196 319.3,197.7 			"/>
		</g>
	</g>
</g>
<g>
	<g>
		<line class="st4" x1="271" y1="317.5" x2="319.4" y2="317.5"/>
		<g>
			<rect x="270.5" y="314.2" class="st5" width="1" height="6.5"/>
		</g>
		<g>
			<polygon class="st5" points="317.4,319.2 319.1,317.5 317.4,315.8 318.8,315.8 320.5,317.5 318.8,319.2 			"/>
		</g>
	</g>
</g>
<g>
	<g>
		<line class="st4" x1="370.5" y1="317.5" x2="393.9" y2="317.5"/>
		<g>
			<rect x="370" y="314.2" class="st5" width="1" height="6.5"/>
		</g>
		<g>
			<polygon class="st5" points="391.9,319.2 393.6,317.5 391.9,315.8 393.3,315.8 395,317.5 393.3,319.2 			"/>
		</g>
	</g>
</g>
<g>
	<g>
		<line class="st4" x1="370.5" y1="196" x2="393.9" y2="196"/>
		<g>
			<rect x="370" y="192.8" class="st5" width="1" height="6.5"/>
		</g>
		<g>
			<polygon class="st5" points="391.9,197.7 393.6,196 391.9,194.3 393.3,194.3 395,196 393.3,197.7 			"/>
		</g>
	</g>
</g>
<g>
	<g>
		<line class="st4" x1="179.7" y1="71.2" x2="235.9" y2="71.2"/>
		<g>
			<rect x="179.2" y="67.9" class="st5" width="1" height="6.5"/>
		</g>
		<g>
			<polygon class="st5" points="233.9,72.9 235.6,71.2 233.9,69.5 235.3,69.5 237,71.2 235.3,72.9 			"/>
		</g>
	</g>
</g>
<g>
	<g>
		<polyline class="st4" points="108.5,285.5 123.5,285.5 123.5,348.5 108.5,348.5 		"/>
		<g>
			<rect x="108" y="282.2" class="st5" width="1" height="6.5"/>
		</g>
		<g>
			<rect x="108" y="345.2" class="st5" width="1" height="6.5"/>
		</g>
	</g>
</g>
<g>
	<g>
		<line class="st4" x1="350.5" y1="271.5" x2="350.5" y2="243.1"/>
		<g>
			<rect x="347.2" y="271" class="st5" width="6.5" height="1"/>
		</g>
		<g>
			<polygon class="st5" points="352.2,245.1 350.5,243.4 348.8,245.1 348.8,243.7 350.5,242 352.2,243.7 			"/>
		</g>
	</g>
</g>
<g>
	<g>
		<line class="st4" x1="626" y1="201" x2="640.9" y2="201"/>
		<g>
			<rect x="625.5" y="197.8" class="st5" width="1" height="6.5"/>
		</g>
		<g>
			<polygon class="st5" points="638.9,202.7 640.6,201 638.9,199.3 640.3,199.3 642,201 640.3,202.7 			"/>
		</g>
	</g>
</g>
<g>
	<g>
		<line class="st4" x1="641.5" y1="191" x2="626.6" y2="191"/>
		<g>
			<rect x="641" y="187.8" class="st5" width="1" height="6.5"/>
		</g>
		<g>
			<polygon class="st5" points="628.6,189.3 626.9,191 628.6,192.7 627.2,192.7 625.5,191 627.2,189.3 			"/>
		</g>
	</g>
</g>
<polyline class="st1" points="687.5,237 687.5,277.5 600,277.5 419.5,277.5 419.5,297 "/>
<polyline class="st17" points="687.5,237 687.5,277.5 600,278.5 419.5,277.5 419.5,297 "/>
<line class="st17" x1="687.5" y1="157" x2="687.5" y2="95.1"/>
<line class="st1" x1="179.2" y1="95.4" x2="237" y2="95.4"/>
<line class="st17" x1="179.2" y1="95.4" x2="241.1" y2="95.4"/>
<line class="st1" x1="479.5" y1="297" x2="479.5" y2="277.5"/>
<line class="st1" x1="539.7" y1="297" x2="539.7" y2="277.5"/>
<line class="st1" x1="600.2" y1="297" x2="600.2" y2="277.5"/>
<circle class="st9" cx="479.5" cy="297" r="1.5"/>
<circle class="st9" cx="539.7" cy="297" r="1.5"/>
<circle class="st9" cx="600.2" cy="297" r="1.5"/>
</svg>
