<?xml version="1.0" encoding="utf-8"?>
<!-- Generator: Adobe Illustrator 19.2.1, SVG Export Plug-In . SVG Version: 6.00 Build 0)  -->
<svg version="1.1" id="Layer_1" xmlns="http://www.w3.org/2000/svg" xmlns:xlink="http://www.w3.org/1999/xlink" x="0px" y="0px"
	 viewBox="0 0 800 400" style="enable-background:new 0 0 800 400;" xml:space="preserve">
<style type="text/css">
	.st0{fill:#F2F6FA;}
	.st1{fill:#183B4D;}
	.st2{fill:#FFFFFF;}
	.st3{fill:#14283C;}
	.st4{fill:#FF405E;}
	.st5{fill:#CDDAE2;}
	.st6{fill:none;}
	.st7{enable-background:new    ;}
	.st8{fill:#7BA1B8;}
</style>
<g>
	<path class="st0" d="M779,382.3H305.7c-5.5,0-10-4.5-10-10V140.1c0-5.5,4.5-10,10-10H779c5.5,0,10,4.5,10,10v232.2
		C789,377.8,784.5,382.3,779,382.3z"/>
</g>
<g>
	<path class="st0" d="M234.5,130.6h-52.8c-1.4,0-2.5-1.1-2.5-2.5v-13.9c0-1.4,1.1-2.5,2.5-2.5h52.8c1.4,0,2.5,1.1,2.5,2.5v13.9
		C237,129.4,235.9,130.6,234.5,130.6z"/>
</g>
<g>
	<path class="st1" d="M687,157c0-0.3,0.2-0.5,0.5-0.5l0,0c0.3,0,0.5,0.2,0.5,0.5l0,0c0,0.3-0.2,0.5-0.5,0.5l0,0
		C687.2,157.5,687,157.3,687,157z M687,151c0-0.3,0.2-0.5,0.5-0.5l0,0c0.3,0,0.5,0.2,0.5,0.5l0,0c0,0.3-0.2,0.5-0.5,0.5l0,0
		C687.2,151.5,687,151.3,687,151z M687,145c0-0.3,0.2-0.5,0.5-0.5l0,0c0.3,0,0.5,0.2,0.5,0.5l0,0c0,0.3-0.2,0.5-0.5,0.5l0,0
		C687.2,145.5,687,145.3,687,145z M687,139c0-0.3,0.2-0.5,0.5-0.5l0,0c0.3,0,0.5,0.2,0.5,0.5l0,0c0,0.3-0.2,0.5-0.5,0.5l0,0
		C687.2,139.5,687,139.3,687,139z M687,133c0-0.3,0.2-0.5,0.5-0.5l0,0c0.3,0,0.5,0.2,0.5,0.5l0,0c0,0.3-0.2,0.5-0.5,0.5l0,0
		C687.2,133.5,687,133.3,687,133z M687,127c0-0.3,0.2-0.5,0.5-0.5l0,0c0.3,0,0.5,0.2,0.5,0.5l0,0c0,0.3-0.2,0.5-0.5,0.5l0,0
		C687.2,127.5,687,127.3,687,127z M687,121c0-0.3,0.2-0.5,0.5-0.5l0,0c0.3,0,0.5,0.2,0.5,0.5l0,0c0,0.3-0.2,0.5-0.5,0.5l0,0
		C687.2,121.5,687,121.3,687,121z M687,115c0-0.3,0.2-0.5,0.5-0.5l0,0c0.3,0,0.5,0.2,0.5,0.5l0,0c0,0.3-0.2,0.5-0.5,0.5l0,0
		C687.2,115.5,687,115.3,687,115z M687,109c0-0.3,0.2-0.5,0.5-0.5l0,0c0.3,0,0.5,0.2,0.5,0.5l0,0c0,0.3-0.2,0.5-0.5,0.5l0,0
		C687.2,109.5,687,109.3,687,109z M687,103c0-0.3,0.2-0.5,0.5-0.5l0,0c0.3,0,0.5,0.2,0.5,0.5l0,0c0,0.3-0.2,0.5-0.5,0.5l0,0
		C687.2,103.5,687,103.3,687,103z"/>
</g>
<g>
	<g>
		<path class="st2" d="M708.3,90.2H708c0.7-1.9,1.1-4.1,1.1-6.3c0-10.6-8.6-19.1-19.2-19.1c-8.4,0-15.5,5.4-18.1,12.9
			c-0.6-0.1-1.2-0.1-1.8-0.1c-7.1,0-12.8,5.7-12.8,12.8c0,6.9,5.5,12.5,12.3,12.8l38.8-0.1c3.5,0,6.4-2.9,6.4-6.4
			S711.8,90.2,708.3,90.2z"/>
		<path class="st1" d="M669.5,103.7c-7.2-0.3-12.8-6.2-12.8-13.3c0-7.3,6-13.3,13.3-13.3c0.5,0,1,0,1.5,0.1
			c2.9-7.7,10.2-12.9,18.4-12.9c10.9,0,19.7,8.8,19.7,19.6c0,2-0.3,4-0.9,5.8c3.6,0.2,6.5,3.3,6.5,7c0,3.8-3.1,6.9-6.9,6.9
			L669.5,103.7z M670,78.1c-6.8,0-12.3,5.5-12.3,12.3c0,6.6,5.2,12,11.8,12.3l38.8-0.1c3.2,0,5.9-2.7,5.9-5.9c0-3.3-2.7-6-5.9-6h-1
			l0.2-0.7c0.7-1.9,1.1-4,1.1-6.1c0-10.3-8.4-18.6-18.7-18.6c-7.9,0-15,5-17.6,12.6l-0.1,0.4l-0.4-0.1
			C671.2,78.1,670.6,78.1,670,78.1z"/>
	</g>
</g>
<g>
	<path class="st3" d="M98.6,306h-70c-3.1,0-5.5-2.4-5.5-5.5v-30c0-3.1,2.4-5.5,5.5-5.5h70c3.1,0,5.5,2.4,5.5,5.5v30
		C104.1,303.6,101.7,306,98.6,306z M28.6,266c-2.5,0-4.5,2-4.5,4.5v30c0,2.5,2,4.5,4.5,4.5h70c2.5,0,4.5-2,4.5-4.5v-30
		c0-2.5-2-4.5-4.5-4.5H28.6z"/>
</g>
<g>
	<path class="st3" d="M98.6,366h-70c-3.1,0-5.5-2.4-5.5-5.5v-30c0-3.1,2.4-5.5,5.5-5.5h70c3.1,0,5.5,2.4,5.5,5.5v30
		C104.1,363.6,101.7,366,98.6,366z M28.6,326c-2.5,0-4.5,2-4.5,4.5v30c0,2.5,2,4.5,4.5,4.5h70c2.5,0,4.5-2,4.5-4.5v-30
		c0-2.5-2-4.5-4.5-4.5H28.6z"/>
</g>
<g>
	<g>
		<g>
			<rect x="123" y="317" class="st4" width="14.9" height="1"/>
		</g>
		<g>
			<g>
				<polygon class="st4" points="135.9,319.2 137.6,317.5 135.9,315.8 137.3,315.8 139,317.5 137.3,319.2 				"/>
			</g>
		</g>
	</g>
</g>
<g>
	<path class="st5" d="M742.6,247.4H406.4c-3.1,0-5.5-2.4-5.5-5.5v-70c0-3.1,2.4-5.5,5.5-5.5h336.2c3.1,0,5.5,2.4,5.5,5.5v70
		C748.1,244.9,745.6,247.4,742.6,247.4z M406.4,167.4c-2.5,0-4.5,2-4.5,4.5v70c0,2.5,2,4.5,4.5,4.5h336.2c2.5,0,4.5-2,4.5-4.5v-70
		c0-2.5-2-4.5-4.5-4.5H406.4z"/>
</g>
<g>
	<path class="st0" d="M737.6,241.9H401.4c-2.8,0-5-2.2-5-5v-70c0-2.8,2.2-5,5-5h336.2c2.8,0,5,2.2,5,5v70
		C742.6,239.7,740.4,241.9,737.6,241.9z"/>
	<path class="st5" d="M737.6,242.4H401.4c-3.1,0-5.5-2.4-5.5-5.5v-70c0-3.1,2.4-5.5,5.5-5.5h336.2c3.1,0,5.5,2.4,5.5,5.5v70
		C743.1,240,740.7,242.4,737.6,242.4z M401.4,162.4c-2.5,0-4.5,2-4.5,4.5v70c0,2.5,2,4.5,4.5,4.5h336.2c2.5,0,4.5-2,4.5-4.5v-70
		c0-2.5-2-4.5-4.5-4.5H401.4z"/>
</g>
<g>
	<path class="st0" d="M732.7,236.9H396.5c-2.8,0-5-2.2-5-5v-70c0-2.8,2.2-5,5-5h336.2c2.8,0,5,2.2,5,5v70
		C737.7,234.7,735.4,236.9,732.7,236.9z"/>
	<path class="st5" d="M732.7,237.4H396.5c-3.1,0-5.5-2.4-5.5-5.5v-70c0-3.1,2.4-5.5,5.5-5.5h336.2c3.1,0,5.5,2.4,5.5,5.5v70
		C738.2,234.9,735.7,237.4,732.7,237.4z M396.5,157.4c-2.5,0-4.5,2-4.5,4.5v70c0,2.5,2,4.5,4.5,4.5h336.2c2.5,0,4.5-2,4.5-4.5v-70
		c0-2.5-2-4.5-4.5-4.5H396.5z"/>
</g>
<g>
	<path class="st2" d="M444.8,347.1h-30c-2.8,0-5-2.2-5-5v-30c0-2.8,2.2-5,5-5h30c2.8,0,5,2.2,5,5v30
		C449.8,344.9,447.5,347.1,444.8,347.1z"/>
	<path class="st1" d="M444.8,347.6h-30c-3.1,0-5.5-2.4-5.5-5.5v-30c0-3.1,2.4-5.5,5.5-5.5h30c3.1,0,5.5,2.4,5.5,5.5v30
		C450.3,345.1,447.8,347.6,444.8,347.6z M414.8,307.6c-2.5,0-4.5,2-4.5,4.5v30c0,2.5,2,4.5,4.5,4.5h30c2.5,0,4.5-2,4.5-4.5v-30
		c0-2.5-2-4.5-4.5-4.5H414.8z"/>
</g>
<g>
	<path class="st2" d="M439.8,342.1h-30c-2.8,0-5-2.2-5-5v-30c0-2.8,2.2-5,5-5h30c2.8,0,5,2.2,5,5v30
		C444.8,339.9,442.5,342.1,439.8,342.1z"/>
	<path class="st1" d="M439.8,342.6h-30c-3.1,0-5.5-2.4-5.5-5.5v-30c0-3.1,2.4-5.5,5.5-5.5h30c3.1,0,5.5,2.4,5.5,5.5v30
		C445.3,340.1,442.8,342.6,439.8,342.6z M409.8,302.6c-2.5,0-4.5,2-4.5,4.5v30c0,2.5,2,4.5,4.5,4.5h30c2.5,0,4.5-2,4.5-4.5v-30
		c0-2.5-2-4.5-4.5-4.5H409.8z"/>
</g>
<g>
	<path class="st2" d="M434.8,337.1h-30c-2.8,0-5-2.2-5-5v-30c0-2.8,2.2-5,5-5h30c2.8,0,5,2.2,5,5v30
		C439.8,334.9,437.5,337.1,434.8,337.1z"/>
	<path class="st1" d="M434.8,337.6h-30c-3.1,0-5.5-2.4-5.5-5.5v-30c0-3.1,2.4-5.5,5.5-5.5h30c3.1,0,5.5,2.4,5.5,5.5v30
		C440.3,335.1,437.8,337.6,434.8,337.6z M404.8,297.6c-2.5,0-4.5,2-4.5,4.5v30c0,2.5,2,4.5,4.5,4.5h30c2.5,0,4.5-2,4.5-4.5v-30
		c0-2.5-2-4.5-4.5-4.5H404.8z"/>
</g>
<g>
	<path class="st2" d="M625.2,347.1h-30c-2.8,0-5-2.2-5-5v-30c0-2.8,2.2-5,5-5h30c2.8,0,5,2.2,5,5v30
		C630.2,344.9,628,347.1,625.2,347.1z"/>
	<path class="st1" d="M625.2,347.6h-30c-3.1,0-5.5-2.4-5.5-5.5v-30c0-3.1,2.4-5.5,5.5-5.5h30c3.1,0,5.5,2.4,5.5,5.5v30
		C630.7,345.2,628.3,347.6,625.2,347.6z M595.2,307.6c-2.5,0-4.5,2-4.5,4.5v30c0,2.5,2,4.5,4.5,4.5h30c2.5,0,4.5-2,4.5-4.5v-30
		c0-2.5-2-4.5-4.5-4.5H595.2z"/>
</g>
<g>
	<path class="st2" d="M620.2,342.1h-30c-2.8,0-5-2.2-5-5v-30c0-2.8,2.2-5,5-5h30c2.8,0,5,2.2,5,5v30
		C625.2,339.9,623,342.1,620.2,342.1z"/>
	<path class="st1" d="M620.2,342.6h-30c-3.1,0-5.5-2.4-5.5-5.5v-30c0-3.1,2.4-5.5,5.5-5.5h30c3.1,0,5.5,2.4,5.5,5.5v30
		C625.7,340.2,623.3,342.6,620.2,342.6z M590.2,302.6c-2.5,0-4.5,2-4.5,4.5v30c0,2.5,2,4.5,4.5,4.5h30c2.5,0,4.5-2,4.5-4.5v-30
		c0-2.5-2-4.5-4.5-4.5H590.2z"/>
</g>
<g>
	<path class="st2" d="M615.2,337.1h-30c-2.8,0-5-2.2-5-5v-30c0-2.8,2.2-5,5-5h30c2.8,0,5,2.2,5,5v30
		C620.2,334.9,618,337.1,615.2,337.1z"/>
	<path class="st1" d="M615.2,337.6h-30c-3.1,0-5.5-2.4-5.5-5.5v-30c0-3.1,2.4-5.5,5.5-5.5h30c3.1,0,5.5,2.4,5.5,5.5v30
		C620.7,335.2,618.3,337.6,615.2,337.6z M585.2,297.6c-2.5,0-4.5,2-4.5,4.5v30c0,2.5,2,4.5,4.5,4.5h30c2.5,0,4.5-2,4.5-4.5v-30
		c0-2.5-2-4.5-4.5-4.5H585.2z"/>
</g>
<g>
	<rect x="23.3" y="24.5" class="st6" width="321.8" height="21.4"/>
</g>
<g class="st7">
	<path class="st1" d="M30.2,33.5h-3.9l-0.7,2.2h-2.3l4-10.7h2l4,10.7H31L30.2,33.5z M27,31.7h2.7l-1.3-4L27,31.7z"/>
	<path class="st1" d="M38.6,29.8c-0.3,0-0.5-0.1-0.8-0.1c-0.8,0-1.3,0.3-1.6,0.8v5.2h-2.1v-7.9h2l0.1,0.9c0.4-0.7,1-1.1,1.8-1.1
		c0.2,0,0.5,0,0.7,0.1L38.6,29.8z"/>
	<path class="st1" d="M42.8,34.1c0.4,0,0.7-0.1,1-0.3c0.2-0.2,0.4-0.5,0.4-0.9h2c0,0.5-0.2,1-0.4,1.5c-0.3,0.4-0.7,0.8-1.2,1
		c-0.5,0.2-1.1,0.4-1.7,0.4c-1.1,0-2-0.4-2.7-1.1c-0.7-0.7-1-1.7-1-3v-0.1c0-1.2,0.3-2.2,1-2.9c0.6-0.7,1.5-1.1,2.7-1.1
		c1,0,1.8,0.3,2.4,0.8c0.6,0.6,0.9,1.3,0.9,2.3h-2c0-0.4-0.1-0.7-0.4-1s-0.6-0.4-1-0.4c-0.5,0-0.9,0.2-1.1,0.5
		c-0.3,0.4-0.4,0.9-0.4,1.7v0.2c0,0.8,0.1,1.4,0.4,1.8C41.9,34,42.3,34.1,42.8,34.1z"/>
	<path class="st1" d="M49.4,28.6c0.6-0.7,1.3-1,2.1-1c1.7,0,2.6,1,2.6,3v5.1H52v-5c0-0.5-0.1-0.8-0.3-1s-0.5-0.3-1-0.3
		c-0.6,0-1.1,0.2-1.3,0.7v5.6h-2.1V24.5h2.1V28.6z"/>
	<path class="st1" d="M55.7,25.7c0-0.3,0.1-0.6,0.3-0.8c0.2-0.2,0.5-0.3,0.9-0.3c0.4,0,0.6,0.1,0.9,0.3s0.3,0.5,0.3,0.8
		c0,0.3-0.1,0.6-0.3,0.8c-0.2,0.2-0.5,0.3-0.9,0.3s-0.6-0.1-0.9-0.3S55.7,26,55.7,25.7z M57.9,35.7h-2.1v-7.9h2.1V35.7z"/>
	<path class="st1" d="M62.2,25.8v1.9h1.4v1.6h-1.4v4c0,0.3,0.1,0.5,0.2,0.6s0.3,0.2,0.6,0.2c0.2,0,0.4,0,0.6-0.1v1.6
		c-0.4,0.1-0.8,0.2-1.3,0.2c-1.5,0-2.2-0.7-2.3-2.2v-4.3h-1.2v-1.6h1.2v-1.9H62.2z"/>
	<path class="st1" d="M68.4,35.8c-1.2,0-2.1-0.4-2.8-1.1s-1.1-1.7-1.1-2.8v-0.2c0-0.8,0.2-1.5,0.5-2.1c0.3-0.6,0.7-1.1,1.3-1.5
		c0.6-0.3,1.2-0.5,1.9-0.5c1.1,0,1.9,0.3,2.6,1c0.6,0.7,0.9,1.7,0.9,2.9v0.9h-5c0.1,0.5,0.3,0.9,0.6,1.2c0.3,0.3,0.8,0.5,1.3,0.5
		c0.8,0,1.5-0.3,1.9-0.9l1,1.2c-0.3,0.4-0.7,0.8-1.3,1.1C69.7,35.7,69.1,35.8,68.4,35.8z M68.2,29.3c-0.4,0-0.8,0.1-1,0.4
		c-0.3,0.3-0.4,0.7-0.5,1.2h2.9v-0.2c0-0.5-0.1-0.8-0.4-1.1S68.6,29.3,68.2,29.3z"/>
	<path class="st1" d="M76.2,34.1c0.4,0,0.7-0.1,1-0.3c0.2-0.2,0.4-0.5,0.4-0.9h2c0,0.5-0.2,1-0.4,1.5c-0.3,0.4-0.7,0.8-1.2,1
		c-0.5,0.2-1.1,0.4-1.7,0.4c-1.1,0-2-0.4-2.7-1.1c-0.7-0.7-1-1.7-1-3v-0.1c0-1.2,0.3-2.2,1-2.9c0.6-0.7,1.5-1.1,2.7-1.1
		c1,0,1.8,0.3,2.4,0.8c0.6,0.6,0.9,1.3,0.9,2.3h-2c0-0.4-0.1-0.7-0.4-1s-0.6-0.4-1-0.4c-0.5,0-0.9,0.2-1.1,0.5
		c-0.3,0.4-0.4,0.9-0.4,1.7v0.2c0,0.8,0.1,1.4,0.4,1.8C75.3,34,75.7,34.1,76.2,34.1z"/>
	<path class="st1" d="M83.2,25.8v1.9h1.4v1.6h-1.4v4c0,0.3,0.1,0.5,0.2,0.6s0.3,0.2,0.6,0.2c0.2,0,0.4,0,0.6-0.1v1.6
		c-0.4,0.1-0.8,0.2-1.3,0.2c-1.5,0-2.2-0.7-2.3-2.2v-4.3h-1.2v-1.6h1.2v-1.9H83.2z"/>
	<path class="st1" d="M90.5,34.9c-0.5,0.6-1.2,1-2.2,1c-0.8,0-1.5-0.2-1.9-0.7c-0.4-0.5-0.7-1.2-0.7-2.1v-5.2h2.1v5.1
		c0,0.8,0.4,1.2,1.1,1.2c0.7,0,1.2-0.2,1.5-0.7v-5.6h2.1v7.9h-2L90.5,34.9z"/>
	<path class="st1" d="M98.6,29.8c-0.3,0-0.5-0.1-0.8-0.1c-0.8,0-1.3,0.3-1.6,0.8v5.2h-2.1v-7.9h2l0.1,0.9c0.4-0.7,1-1.1,1.8-1.1
		c0.2,0,0.5,0,0.7,0.1L98.6,29.8z"/>
	<path class="st1" d="M103.1,35.8c-1.2,0-2.1-0.4-2.8-1.1s-1.1-1.7-1.1-2.8v-0.2c0-0.8,0.2-1.5,0.5-2.1c0.3-0.6,0.7-1.1,1.3-1.5
		c0.6-0.3,1.2-0.5,1.9-0.5c1.1,0,1.9,0.3,2.6,1c0.6,0.7,0.9,1.7,0.9,2.9v0.9h-5c0.1,0.5,0.3,0.9,0.6,1.2c0.3,0.3,0.8,0.5,1.3,0.5
		c0.8,0,1.5-0.3,1.9-0.9l1,1.2c-0.3,0.4-0.7,0.8-1.3,1.1C104.4,35.7,103.8,35.8,103.1,35.8z M102.9,29.3c-0.4,0-0.8,0.1-1,0.4
		c-0.3,0.3-0.4,0.7-0.5,1.2h2.9v-0.2c0-0.5-0.1-0.8-0.4-1.1S103.3,29.3,102.9,29.3z"/>
	<path class="st1" d="M115.9,35.7c-0.1-0.2-0.2-0.4-0.2-0.7c-0.5,0.6-1.2,0.9-2,0.9c-0.8,0-1.4-0.2-1.9-0.7c-0.5-0.4-0.8-1-0.8-1.7
		c0-0.8,0.3-1.5,0.9-1.9c0.6-0.4,1.5-0.7,2.7-0.7h1v-0.5c0-0.4-0.1-0.7-0.3-0.9c-0.2-0.2-0.5-0.3-0.9-0.3c-0.4,0-0.6,0.1-0.8,0.3
		c-0.2,0.2-0.3,0.4-0.3,0.7h-2.1c0-0.5,0.1-0.9,0.4-1.3s0.7-0.7,1.2-0.9c0.5-0.2,1.1-0.3,1.7-0.3c1,0,1.8,0.2,2.3,0.7
		c0.6,0.5,0.9,1.2,0.9,2.1v3.4c0,0.8,0.1,1.3,0.3,1.7v0.1H115.9z M114.2,34.2c0.3,0,0.6-0.1,0.9-0.2c0.3-0.1,0.5-0.3,0.6-0.6v-1.4
		h-0.8c-1.1,0-1.6,0.4-1.7,1.1l0,0.1c0,0.3,0.1,0.5,0.3,0.7S113.8,34.2,114.2,34.2z"/>
	<path class="st1" d="M121.3,27.8l0.1,0.9c0.6-0.7,1.3-1.1,2.3-1.1c0.8,0,1.5,0.2,1.9,0.7c0.4,0.5,0.6,1.2,0.6,2.2v5.1H124v-5.1
		c0-0.5-0.1-0.8-0.3-1c-0.2-0.2-0.5-0.3-1-0.3c-0.6,0-1,0.3-1.3,0.8v5.6h-2.1v-7.9H121.3z"/>
	<path class="st1" d="M127.4,31.7c0-1.2,0.3-2.2,0.8-3s1.3-1.1,2.3-1.1c0.8,0,1.4,0.3,1.9,0.9v-4h2.1v11.2h-1.9l-0.1-0.8
		c-0.5,0.7-1.2,1-2,1c-0.9,0-1.7-0.4-2.2-1.1C127.7,34,127.4,33,127.4,31.7z M129.6,31.8c0,0.7,0.1,1.3,0.4,1.7s0.6,0.6,1.1,0.6
		c0.7,0,1.1-0.3,1.4-0.8v-3.1c-0.3-0.6-0.7-0.8-1.4-0.8C130.1,29.3,129.6,30.2,129.6,31.8z"/>
	<path class="st1" d="M148.5,32.1c-0.1,1.1-0.5,2.1-1.3,2.7c-0.8,0.7-1.8,1-3,1c-1.4,0-2.4-0.5-3.2-1.4c-0.8-0.9-1.2-2.2-1.2-3.8V30
		c0-1,0.2-1.9,0.5-2.7c0.4-0.8,0.9-1.4,1.5-1.8c0.7-0.4,1.5-0.6,2.3-0.6c1.2,0,2.2,0.3,3,1c0.8,0.7,1.2,1.6,1.3,2.8h-2.2
		c-0.1-0.7-0.2-1.2-0.6-1.5c-0.3-0.3-0.8-0.5-1.5-0.5c-0.7,0-1.3,0.3-1.6,0.8c-0.4,0.5-0.6,1.3-0.6,2.4v0.8c0,1.2,0.2,2,0.5,2.5
		s0.9,0.8,1.7,0.8c0.7,0,1.2-0.2,1.5-0.5c0.3-0.3,0.5-0.8,0.6-1.4H148.5z"/>
	<path class="st1" d="M149.4,31.7c0-0.8,0.2-1.5,0.5-2.1s0.7-1.1,1.3-1.4c0.6-0.3,1.2-0.5,2-0.5c1.1,0,1.9,0.3,2.6,1
		c0.7,0.7,1.1,1.5,1.1,2.7l0,0.5c0,1.2-0.3,2.2-1,2.9c-0.7,0.7-1.6,1.1-2.7,1.1s-2.1-0.4-2.7-1.1C149.8,34,149.4,33,149.4,31.7
		L149.4,31.7z M151.6,31.8c0,0.8,0.1,1.3,0.4,1.7s0.7,0.6,1.2,0.6c0.5,0,0.9-0.2,1.2-0.6s0.4-1,0.4-1.9c0-0.7-0.1-1.3-0.4-1.7
		s-0.7-0.6-1.2-0.6c-0.5,0-0.9,0.2-1.2,0.6S151.6,31,151.6,31.8z"/>
	<path class="st1" d="M160.2,27.8l0.1,0.9c0.6-0.7,1.3-1,2.3-1c1,0,1.7,0.4,2.1,1.2c0.6-0.8,1.4-1.2,2.4-1.2c0.9,0,1.5,0.2,1.9,0.8
		c0.4,0.5,0.6,1.3,0.6,2.3v5.1h-2.1v-5.1c0-0.5-0.1-0.8-0.3-1s-0.5-0.3-0.9-0.3c-0.6,0-1.1,0.3-1.3,0.9l0,5.5h-2.1v-5.1
		c0-0.5-0.1-0.8-0.3-1c-0.2-0.2-0.5-0.3-0.9-0.3c-0.6,0-1,0.2-1.3,0.7v5.6h-2.1v-7.9H160.2z"/>
	<path class="st1" d="M178.4,31.8c0,1.2-0.3,2.2-0.8,2.9c-0.6,0.7-1.3,1.1-2.2,1.1c-0.8,0-1.4-0.3-1.9-0.8v3.7h-2.1v-11h2l0.1,0.8
		c0.5-0.6,1.2-0.9,2-0.9c1,0,1.7,0.4,2.3,1.1s0.8,1.7,0.8,3V31.8z M176.3,31.6c0-0.7-0.1-1.3-0.4-1.7c-0.3-0.4-0.6-0.6-1.1-0.6
		c-0.7,0-1.1,0.3-1.4,0.8v3.3c0.3,0.5,0.7,0.8,1.4,0.8C175.7,34.1,176.3,33.3,176.3,31.6z"/>
	<path class="st1" d="M179.4,31.7c0-0.8,0.2-1.5,0.5-2.1s0.7-1.1,1.3-1.4c0.6-0.3,1.2-0.5,2-0.5c1.1,0,1.9,0.3,2.6,1
		c0.7,0.7,1.1,1.5,1.1,2.7l0,0.5c0,1.2-0.3,2.2-1,2.9c-0.7,0.7-1.6,1.1-2.7,1.1s-2.1-0.4-2.7-1.1C179.7,34,179.4,33,179.4,31.7
		L179.4,31.7z M181.5,31.8c0,0.8,0.1,1.3,0.4,1.7s0.7,0.6,1.2,0.6c0.5,0,0.9-0.2,1.2-0.6s0.4-1,0.4-1.9c0-0.7-0.1-1.3-0.4-1.7
		s-0.7-0.6-1.2-0.6c-0.5,0-0.9,0.2-1.2,0.6S181.5,31,181.5,31.8z"/>
	<path class="st1" d="M190.1,27.8l0.1,0.9c0.6-0.7,1.3-1.1,2.3-1.1c0.8,0,1.5,0.2,1.9,0.7c0.4,0.5,0.6,1.2,0.6,2.2v5.1h-2.1v-5.1
		c0-0.5-0.1-0.8-0.3-1c-0.2-0.2-0.5-0.3-1-0.3c-0.6,0-1,0.3-1.3,0.8v5.6h-2.1v-7.9H190.1z"/>
	<path class="st1" d="M200.2,35.8c-1.2,0-2.1-0.4-2.8-1.1s-1.1-1.7-1.1-2.8v-0.2c0-0.8,0.2-1.5,0.5-2.1c0.3-0.6,0.7-1.1,1.3-1.5
		c0.6-0.3,1.2-0.5,1.9-0.5c1.1,0,1.9,0.3,2.6,1c0.6,0.7,0.9,1.7,0.9,2.9v0.9h-5c0.1,0.5,0.3,0.9,0.6,1.2c0.3,0.3,0.8,0.5,1.3,0.5
		c0.8,0,1.5-0.3,1.9-0.9l1,1.2c-0.3,0.4-0.7,0.8-1.3,1.1C201.5,35.7,200.9,35.8,200.2,35.8z M200,29.3c-0.4,0-0.8,0.1-1,0.4
		c-0.3,0.3-0.4,0.7-0.5,1.2h2.9v-0.2c0-0.5-0.1-0.8-0.4-1.1S200.4,29.3,200,29.3z"/>
	<path class="st1" d="M206.6,27.8l0.1,0.9c0.6-0.7,1.3-1.1,2.3-1.1c0.8,0,1.5,0.2,1.9,0.7c0.4,0.5,0.6,1.2,0.6,2.2v5.1h-2.1v-5.1
		c0-0.5-0.1-0.8-0.3-1c-0.2-0.2-0.5-0.3-1-0.3c-0.6,0-1,0.3-1.3,0.8v5.6h-2.1v-7.9H206.6z"/>
	<path class="st1" d="M215.6,25.8v1.9h1.4v1.6h-1.4v4c0,0.3,0.1,0.5,0.2,0.6s0.3,0.2,0.6,0.2c0.2,0,0.4,0,0.6-0.1v1.6
		c-0.4,0.1-0.8,0.2-1.3,0.2c-1.5,0-2.2-0.7-2.3-2.2v-4.3h-1.2v-1.6h1.2v-1.9H215.6z"/>
	<path class="st1" d="M222.4,33.5c0-0.3-0.1-0.5-0.4-0.6c-0.3-0.1-0.7-0.3-1.2-0.4c-1.9-0.4-2.8-1.2-2.8-2.4c0-0.7,0.3-1.3,0.9-1.8
		c0.6-0.5,1.3-0.7,2.3-0.7c1,0,1.8,0.2,2.4,0.7c0.6,0.5,0.9,1.1,0.9,1.8h-2.1c0-0.3-0.1-0.6-0.3-0.8c-0.2-0.2-0.5-0.3-0.9-0.3
		c-0.4,0-0.6,0.1-0.8,0.2c-0.2,0.2-0.3,0.4-0.3,0.6c0,0.2,0.1,0.4,0.3,0.6c0.2,0.1,0.6,0.3,1.1,0.4c0.5,0.1,1,0.2,1.3,0.4
		c1.1,0.4,1.7,1.1,1.7,2.1c0,0.7-0.3,1.3-0.9,1.8c-0.6,0.4-1.4,0.7-2.4,0.7c-0.7,0-1.3-0.1-1.8-0.4c-0.5-0.2-0.9-0.6-1.2-1
		c-0.3-0.4-0.4-0.9-0.4-1.3h2c0,0.4,0.2,0.7,0.4,0.9s0.6,0.3,1,0.3c0.4,0,0.7-0.1,0.9-0.2C222.3,34,222.4,33.8,222.4,33.5z"/>
</g>
<g>
	<rect x="145.5" y="183.5" class="st6" width="72.1" height="53.4"/>
</g>
<g class="st7">
	<path class="st1" d="M169,188.8h-4.3v3.8h5v0.7h-5.8V184h5.7v0.7h-4.9v3.5h4.3V188.8z"/>
	<path class="st1" d="M171.9,193.2h-0.8v-9.8h0.8V193.2z"/>
	<path class="st1" d="M178.3,193.2c-0.1-0.2-0.1-0.5-0.1-1c-0.3,0.3-0.6,0.6-1,0.8c-0.4,0.2-0.8,0.3-1.3,0.3c-0.7,0-1.2-0.2-1.6-0.6
		c-0.4-0.4-0.6-0.8-0.6-1.4c0-0.7,0.3-1.2,0.8-1.6c0.6-0.4,1.3-0.6,2.3-0.6h1.4v-0.8c0-0.5-0.2-0.9-0.5-1.2
		c-0.3-0.3-0.7-0.4-1.3-0.4c-0.5,0-1,0.1-1.3,0.4c-0.3,0.3-0.5,0.6-0.5,1l-0.8,0c0-0.5,0.3-1,0.8-1.4c0.5-0.4,1.1-0.6,1.9-0.6
		c0.8,0,1.4,0.2,1.8,0.6c0.4,0.4,0.7,0.9,0.7,1.6v3.2c0,0.7,0.1,1.2,0.2,1.5v0.1H178.3z M175.9,192.7c0.5,0,1-0.1,1.4-0.4
		c0.4-0.2,0.7-0.6,0.9-1v-1.5h-1.4c-0.8,0-1.4,0.1-1.8,0.4s-0.6,0.6-0.6,1.1c0,0.4,0.1,0.7,0.4,1
		C175.1,192.5,175.5,192.7,175.9,192.7z"/>
	<path class="st1" d="M185.1,191.5c0-0.4-0.2-0.7-0.5-0.9c-0.3-0.2-0.8-0.4-1.4-0.5s-1.1-0.3-1.4-0.4c-0.3-0.2-0.6-0.4-0.7-0.6
		c-0.2-0.2-0.2-0.5-0.2-0.9c0-0.5,0.2-1,0.7-1.3s1-0.5,1.7-0.5c0.8,0,1.4,0.2,1.8,0.6c0.5,0.4,0.7,0.9,0.7,1.5H185
		c0-0.4-0.2-0.7-0.5-1c-0.3-0.3-0.8-0.4-1.3-0.4c-0.5,0-0.9,0.1-1.2,0.3c-0.3,0.2-0.5,0.5-0.5,0.9c0,0.3,0.1,0.6,0.4,0.8
		c0.3,0.2,0.7,0.4,1.4,0.5c0.7,0.2,1.2,0.3,1.5,0.5c0.3,0.2,0.6,0.4,0.7,0.6s0.2,0.6,0.2,0.9c0,0.6-0.2,1-0.7,1.4
		c-0.5,0.3-1.1,0.5-1.8,0.5c-0.8,0-1.4-0.2-1.9-0.6c-0.5-0.4-0.7-0.9-0.7-1.5h0.8c0,0.4,0.2,0.8,0.6,1c0.3,0.2,0.8,0.4,1.4,0.4
		c0.5,0,1-0.1,1.3-0.3S185.1,191.8,185.1,191.5z"/>
	<path class="st1" d="M188.7,184.6v1.8h1.4v0.6h-1.4v4.6c0,0.4,0.1,0.7,0.2,0.9c0.1,0.2,0.4,0.3,0.7,0.3c0.1,0,0.3,0,0.6-0.1l0,0.6
		c-0.2,0.1-0.5,0.1-0.8,0.1c-0.5,0-0.9-0.2-1.1-0.5s-0.4-0.7-0.4-1.3V187h-1.3v-0.6h1.3v-1.8H188.7z"/>
	<path class="st1" d="M191.7,184.3c0-0.1,0-0.3,0.1-0.4s0.2-0.1,0.4-0.1s0.3,0,0.4,0.1c0.1,0.1,0.1,0.2,0.1,0.4c0,0.1,0,0.3-0.1,0.4
		c-0.1,0.1-0.2,0.1-0.4,0.1s-0.3,0-0.4-0.1S191.7,184.5,191.7,184.3z M192.6,193.2h-0.8v-6.9h0.8V193.2z"/>
	<path class="st1" d="M197.2,192.7c0.5,0,1-0.1,1.3-0.4c0.4-0.3,0.6-0.7,0.6-1.2h0.7c0,0.4-0.2,0.8-0.4,1.1s-0.6,0.6-1,0.8
		c-0.4,0.2-0.8,0.3-1.3,0.3c-0.9,0-1.6-0.3-2.1-0.9c-0.5-0.6-0.8-1.5-0.8-2.5v-0.2c0-0.7,0.1-1.3,0.4-1.8c0.2-0.5,0.6-0.9,1-1.2
		c0.4-0.3,1-0.4,1.6-0.4c0.8,0,1.4,0.2,1.9,0.7c0.5,0.4,0.8,1,0.8,1.8h-0.7c0-0.5-0.2-1-0.6-1.3c-0.4-0.3-0.8-0.5-1.3-0.5
		c-0.7,0-1.2,0.2-1.6,0.7c-0.4,0.5-0.6,1.2-0.6,2.1v0.2c0,0.9,0.2,1.6,0.6,2.1C195.9,192.4,196.5,192.7,197.2,192.7z"/>
</g>
<g class="st7">
	<path class="st1" d="M167.4,207.1c0-0.4-0.2-0.7-0.5-0.9c-0.3-0.2-0.8-0.4-1.4-0.5s-1.1-0.3-1.4-0.4c-0.3-0.2-0.6-0.4-0.7-0.6
		c-0.2-0.2-0.2-0.5-0.2-0.9c0-0.5,0.2-1,0.7-1.3s1-0.5,1.7-0.5c0.8,0,1.4,0.2,1.8,0.6c0.5,0.4,0.7,0.9,0.7,1.5h-0.8
		c0-0.4-0.2-0.7-0.5-1c-0.3-0.3-0.8-0.4-1.3-0.4c-0.5,0-0.9,0.1-1.2,0.3c-0.3,0.2-0.5,0.5-0.5,0.9c0,0.3,0.1,0.6,0.4,0.8
		c0.3,0.2,0.7,0.4,1.4,0.5c0.7,0.2,1.2,0.3,1.5,0.5c0.3,0.2,0.6,0.4,0.7,0.6s0.2,0.6,0.2,0.9c0,0.6-0.2,1-0.7,1.4
		c-0.5,0.3-1.1,0.5-1.8,0.5c-0.8,0-1.4-0.2-1.9-0.6c-0.5-0.4-0.7-0.9-0.7-1.5h0.8c0,0.4,0.2,0.8,0.6,1c0.3,0.2,0.8,0.4,1.4,0.4
		c0.5,0,1-0.1,1.3-0.3S167.4,207.4,167.4,207.1z"/>
	<path class="st1" d="M172.5,208.9c-0.6,0-1.1-0.1-1.6-0.4c-0.5-0.3-0.8-0.7-1.1-1.2c-0.3-0.5-0.4-1.1-0.4-1.7v-0.3
		c0-0.7,0.1-1.3,0.4-1.8c0.3-0.5,0.6-0.9,1.1-1.2s1-0.5,1.5-0.5c0.8,0,1.5,0.3,2,0.9c0.5,0.6,0.7,1.3,0.7,2.3v0.4h-4.9v0.1
		c0,0.8,0.2,1.4,0.7,1.9c0.4,0.5,1,0.8,1.7,0.8c0.4,0,0.8-0.1,1.1-0.2c0.3-0.1,0.6-0.4,0.8-0.7l0.5,0.4
		C174.4,208.5,173.6,208.9,172.5,208.9z M172.4,202.5c-0.6,0-1.1,0.2-1.4,0.6c-0.4,0.4-0.6,1-0.7,1.7h4.1v-0.1
		c0-0.7-0.2-1.2-0.6-1.6S172.9,202.5,172.4,202.5z"/>
	<path class="st1" d="M180.9,208.8c-0.1-0.2-0.1-0.5-0.1-1c-0.3,0.3-0.6,0.6-1,0.8c-0.4,0.2-0.8,0.3-1.3,0.3c-0.7,0-1.2-0.2-1.6-0.6
		c-0.4-0.4-0.6-0.8-0.6-1.4c0-0.7,0.3-1.2,0.8-1.6c0.6-0.4,1.3-0.6,2.3-0.6h1.4V204c0-0.5-0.2-0.9-0.5-1.2c-0.3-0.3-0.7-0.4-1.3-0.4
		c-0.5,0-1,0.1-1.3,0.4c-0.3,0.3-0.5,0.6-0.5,1l-0.8,0c0-0.5,0.3-1,0.8-1.4c0.5-0.4,1.1-0.6,1.9-0.6c0.8,0,1.4,0.2,1.8,0.6
		c0.4,0.4,0.7,0.9,0.7,1.6v3.2c0,0.7,0.1,1.2,0.2,1.5v0.1H180.9z M178.5,208.3c0.5,0,1-0.1,1.4-0.4c0.4-0.2,0.7-0.6,0.9-1v-1.5h-1.4
		c-0.8,0-1.4,0.1-1.8,0.4s-0.6,0.6-0.6,1.1c0,0.4,0.1,0.7,0.4,1C177.7,208.1,178.1,208.3,178.5,208.3z"/>
	<path class="st1" d="M186.7,202.6c-0.2,0-0.3,0-0.5,0c-0.5,0-0.9,0.1-1.2,0.4c-0.3,0.3-0.6,0.6-0.7,1.2v4.7h-0.8v-6.9h0.7l0,1.1
		c0.4-0.8,1-1.2,1.9-1.2c0.2,0,0.4,0,0.5,0.1L186.7,202.6z"/>
	<path class="st1" d="M190.3,208.3c0.5,0,1-0.1,1.3-0.4c0.4-0.3,0.6-0.7,0.6-1.2h0.7c0,0.4-0.2,0.8-0.4,1.1s-0.6,0.6-1,0.8
		c-0.4,0.2-0.8,0.3-1.3,0.3c-0.9,0-1.6-0.3-2.1-0.9c-0.5-0.6-0.8-1.5-0.8-2.5v-0.2c0-0.7,0.1-1.3,0.4-1.8c0.2-0.5,0.6-0.9,1-1.2
		c0.4-0.3,1-0.4,1.6-0.4c0.8,0,1.4,0.2,1.9,0.7c0.5,0.4,0.8,1,0.8,1.8h-0.7c0-0.5-0.2-1-0.6-1.3c-0.4-0.3-0.8-0.5-1.3-0.5
		c-0.7,0-1.2,0.2-1.6,0.7c-0.4,0.5-0.6,1.2-0.6,2.1v0.2c0,0.9,0.2,1.6,0.6,2.1C189.1,208,189.6,208.3,190.3,208.3z"/>
	<path class="st1" d="M195.2,203.1c0.2-0.4,0.6-0.7,1-1c0.4-0.2,0.8-0.3,1.3-0.3c0.7,0,1.3,0.2,1.6,0.6s0.5,1,0.5,1.9v4.5h-0.8v-4.5
		c0-0.6-0.1-1.1-0.4-1.4c-0.3-0.3-0.7-0.5-1.2-0.5c-0.5,0-0.9,0.1-1.2,0.4c-0.4,0.3-0.6,0.7-0.8,1.2v4.7h-0.8v-9.8h0.8V203.1z"/>
</g>
<g>
	<rect x="408.7" y="355.6" class="st6" width="180" height="26.7"/>
</g>
<g class="st7">
	<path class="st1" d="M416.7,365.4h-0.8v-4.4h-5.3v4.4h-0.8v-9.2h0.8v4.2h5.3v-4.2h0.8V365.4z"/>
	<path class="st1" d="M418.5,361.8c0-0.7,0.1-1.3,0.4-1.8s0.6-0.9,1.1-1.2c0.5-0.3,1-0.4,1.6-0.4c0.9,0,1.7,0.3,2.2,1
		c0.6,0.6,0.9,1.5,0.9,2.5v0.2c0,0.7-0.1,1.3-0.4,1.8c-0.3,0.5-0.6,0.9-1.1,1.2c-0.5,0.3-1,0.4-1.6,0.4c-0.9,0-1.6-0.3-2.2-1
		c-0.6-0.6-0.9-1.5-0.9-2.5V361.8z M419.2,362c0,0.8,0.2,1.5,0.6,2c0.4,0.5,1,0.8,1.7,0.8c0.7,0,1.2-0.3,1.7-0.8
		c0.4-0.5,0.6-1.2,0.6-2.1v-0.1c0-0.5-0.1-1-0.3-1.4c-0.2-0.4-0.5-0.8-0.8-1c-0.4-0.2-0.8-0.4-1.2-0.4c-0.7,0-1.2,0.3-1.7,0.8
		c-0.4,0.5-0.6,1.2-0.6,2.1V362z"/>
	<path class="st1" d="M430.3,363.6c0-0.4-0.2-0.7-0.5-0.9c-0.3-0.2-0.8-0.4-1.4-0.5s-1.1-0.3-1.4-0.4c-0.3-0.2-0.6-0.4-0.7-0.6
		c-0.2-0.2-0.2-0.5-0.2-0.9c0-0.5,0.2-1,0.7-1.3c0.5-0.4,1-0.5,1.7-0.5c0.8,0,1.4,0.2,1.8,0.6c0.5,0.4,0.7,0.9,0.7,1.5h-0.8
		c0-0.4-0.2-0.7-0.5-1c-0.3-0.3-0.8-0.4-1.3-0.4c-0.5,0-0.9,0.1-1.2,0.3c-0.3,0.2-0.5,0.5-0.5,0.9c0,0.3,0.1,0.6,0.4,0.8
		c0.3,0.2,0.7,0.4,1.4,0.5c0.7,0.2,1.2,0.3,1.5,0.5s0.6,0.4,0.7,0.6c0.2,0.2,0.2,0.6,0.2,0.9c0,0.6-0.2,1-0.7,1.4s-1.1,0.5-1.8,0.5
		c-0.8,0-1.4-0.2-1.9-0.6c-0.5-0.4-0.7-0.9-0.7-1.5h0.8c0,0.4,0.2,0.8,0.6,1c0.3,0.2,0.8,0.4,1.4,0.4c0.5,0,1-0.1,1.3-0.3
		C430.1,364.3,430.3,364,430.3,363.6z"/>
	<path class="st1" d="M433.9,356.7v1.8h1.4v0.6h-1.4v4.6c0,0.4,0.1,0.7,0.2,0.9s0.4,0.3,0.7,0.3c0.1,0,0.3,0,0.6-0.1l0,0.6
		c-0.2,0.1-0.5,0.1-0.8,0.1c-0.5,0-0.9-0.2-1.1-0.5c-0.2-0.3-0.4-0.7-0.4-1.3v-4.6h-1.3v-0.6h1.3v-1.8H433.9z"/>
	<path class="st1" d="M436.8,361.6c0-0.9,0.1-1.8,0.4-2.7c0.2-0.9,0.6-1.7,1-2.4s0.9-1.2,1.5-1.6l0.2,0.5c-0.3,0.2-0.6,0.5-0.8,0.9
		c-0.3,0.4-0.5,0.8-0.7,1.4s-0.4,1.1-0.5,1.8c-0.1,0.7-0.2,1.4-0.2,2.2c0,0.9,0.1,1.7,0.3,2.6c0.2,0.8,0.5,1.5,0.8,2.2
		c0.4,0.6,0.7,1.1,1.2,1.4l-0.2,0.5c-0.5-0.3-1-0.8-1.5-1.6c-0.5-0.7-0.8-1.5-1-2.4S436.8,362.6,436.8,361.6z"/>
	<path class="st1" d="M445.2,363.6c0-0.4-0.2-0.7-0.5-0.9c-0.3-0.2-0.8-0.4-1.4-0.5s-1.1-0.3-1.4-0.4c-0.3-0.2-0.6-0.4-0.7-0.6
		c-0.2-0.2-0.2-0.5-0.2-0.9c0-0.5,0.2-1,0.7-1.3c0.5-0.4,1-0.5,1.7-0.5c0.8,0,1.4,0.2,1.8,0.6c0.5,0.4,0.7,0.9,0.7,1.5h-0.8
		c0-0.4-0.2-0.7-0.5-1c-0.3-0.3-0.8-0.4-1.3-0.4c-0.5,0-0.9,0.1-1.2,0.3c-0.3,0.2-0.5,0.5-0.5,0.9c0,0.3,0.1,0.6,0.4,0.8
		c0.3,0.2,0.7,0.4,1.4,0.5c0.7,0.2,1.2,0.3,1.5,0.5s0.6,0.4,0.7,0.6c0.2,0.2,0.2,0.6,0.2,0.9c0,0.6-0.2,1-0.7,1.4s-1.1,0.5-1.8,0.5
		c-0.8,0-1.4-0.2-1.9-0.6c-0.5-0.4-0.7-0.9-0.7-1.5h0.8c0,0.4,0.2,0.8,0.6,1c0.3,0.2,0.8,0.4,1.4,0.4c0.5,0,1-0.1,1.3-0.3
		C445,364.3,445.2,364,445.2,363.6z"/>
	<path class="st1" d="M449.9,361.7c0,0.9-0.1,1.8-0.3,2.7c-0.2,0.9-0.6,1.6-1,2.4c-0.5,0.7-1,1.2-1.5,1.6l-0.2-0.5
		c0.4-0.3,0.8-0.8,1.2-1.4s0.6-1.3,0.8-2.2s0.3-1.7,0.3-2.7c0-0.9-0.1-1.7-0.3-2.5s-0.5-1.5-0.8-2.2c-0.4-0.6-0.7-1.1-1.1-1.4
		l0.2-0.5c0.5,0.3,1,0.8,1.5,1.6c0.5,0.7,0.8,1.5,1,2.4C449.8,359.8,449.9,360.7,449.9,361.7z"/>
	<path class="st1" d="M456.7,363.8l0.1,0.6l0.2-0.6l1.7-5.3h0.6l1.6,5.2l0.2,0.7l0.1-0.7l1.4-5.3h0.8l-2,6.9h-0.6l-1.8-5.4l-0.1-0.4
		l-0.1,0.4l-1.7,5.4h-0.6l-2-6.9h0.8L456.7,363.8z"/>
	<path class="st1" d="M464.8,356.5c0-0.1,0-0.3,0.1-0.4c0.1-0.1,0.2-0.1,0.4-0.1c0.2,0,0.3,0,0.4,0.1c0.1,0.1,0.1,0.2,0.1,0.4
		c0,0.1,0,0.3-0.1,0.4c-0.1,0.1-0.2,0.1-0.4,0.1c-0.2,0-0.3,0-0.4-0.1C464.9,356.8,464.8,356.6,464.8,356.5z M465.7,365.4h-0.8v-6.9
		h0.8V365.4z"/>
	<path class="st1" d="M469,356.7v1.8h1.4v0.6H469v4.6c0,0.4,0.1,0.7,0.2,0.9s0.4,0.3,0.7,0.3c0.1,0,0.3,0,0.6-0.1l0,0.6
		c-0.2,0.1-0.5,0.1-0.8,0.1c-0.5,0-0.9-0.2-1.1-0.5c-0.2-0.3-0.4-0.7-0.4-1.3v-4.6h-1.3v-0.6h1.3v-1.8H469z"/>
	<path class="st1" d="M472.7,359.6c0.2-0.4,0.6-0.7,1-1c0.4-0.2,0.8-0.3,1.3-0.3c0.7,0,1.3,0.2,1.6,0.6c0.4,0.4,0.5,1,0.5,1.9v4.5
		h-0.8v-4.5c0-0.6-0.1-1.1-0.4-1.4c-0.3-0.3-0.7-0.5-1.2-0.5c-0.5,0-0.9,0.1-1.2,0.4c-0.4,0.3-0.6,0.7-0.8,1.2v4.7h-0.8v-9.8h0.8
		V359.6z"/>
	<path class="st1" d="M484.8,364.8c0.5,0,1-0.1,1.3-0.4c0.4-0.3,0.6-0.7,0.6-1.2h0.7c0,0.4-0.2,0.8-0.4,1.1s-0.6,0.6-1,0.8
		c-0.4,0.2-0.8,0.3-1.3,0.3c-0.9,0-1.6-0.3-2.1-0.9c-0.5-0.6-0.8-1.5-0.8-2.5v-0.2c0-0.7,0.1-1.3,0.4-1.8c0.2-0.5,0.6-0.9,1-1.2
		c0.4-0.3,1-0.4,1.6-0.4c0.8,0,1.4,0.2,1.9,0.7c0.5,0.4,0.8,1,0.8,1.8h-0.7c0-0.5-0.2-1-0.6-1.3c-0.4-0.3-0.8-0.5-1.3-0.5
		c-0.7,0-1.2,0.2-1.6,0.7c-0.4,0.5-0.6,1.2-0.6,2.1v0.2c0,0.9,0.2,1.6,0.6,2.1C483.6,364.6,484.1,364.8,484.8,364.8z"/>
	<path class="st1" d="M488.5,361.8c0-0.7,0.1-1.3,0.4-1.8c0.3-0.5,0.6-0.9,1.1-1.2s1-0.4,1.6-0.4c0.9,0,1.7,0.3,2.2,1
		c0.6,0.6,0.9,1.5,0.9,2.5v0.2c0,0.7-0.1,1.3-0.4,1.8s-0.6,0.9-1.1,1.2c-0.5,0.3-1,0.4-1.6,0.4c-0.9,0-1.6-0.3-2.2-1
		c-0.6-0.6-0.9-1.5-0.9-2.5V361.8z M489.3,362c0,0.8,0.2,1.5,0.6,2c0.4,0.5,1,0.8,1.7,0.8c0.7,0,1.2-0.3,1.7-0.8
		c0.4-0.5,0.6-1.2,0.6-2.1v-0.1c0-0.5-0.1-1-0.3-1.4c-0.2-0.4-0.5-0.8-0.8-1c-0.4-0.2-0.8-0.4-1.2-0.4c-0.7,0-1.2,0.3-1.7,0.8
		c-0.4,0.5-0.6,1.2-0.6,2.1V362z"/>
	<path class="st1" d="M496.9,358.5l0,1.2c0.3-0.4,0.6-0.7,1-1c0.4-0.2,0.8-0.3,1.3-0.3c0.7,0,1.3,0.2,1.6,0.6c0.4,0.4,0.5,1,0.5,1.9
		v4.5h-0.8v-4.5c0-0.6-0.1-1.1-0.4-1.4c-0.3-0.3-0.7-0.5-1.2-0.5c-0.5,0-0.9,0.1-1.2,0.4c-0.4,0.3-0.6,0.7-0.8,1.2v4.7h-0.8v-6.9
		H496.9z"/>
	<path class="st1" d="M504.5,356.7v1.8h1.4v0.6h-1.4v4.6c0,0.4,0.1,0.7,0.2,0.9c0.1,0.2,0.4,0.3,0.7,0.3c0.1,0,0.3,0,0.6-0.1l0,0.6
		c-0.2,0.1-0.5,0.1-0.8,0.1c-0.5,0-0.9-0.2-1.1-0.5c-0.2-0.3-0.4-0.7-0.4-1.3v-4.6h-1.3v-0.6h1.3v-1.8H504.5z"/>
	<path class="st1" d="M511.9,365.4c-0.1-0.2-0.1-0.5-0.1-1c-0.3,0.3-0.6,0.6-1,0.8c-0.4,0.2-0.8,0.3-1.3,0.3c-0.7,0-1.2-0.2-1.6-0.6
		c-0.4-0.4-0.6-0.8-0.6-1.4c0-0.7,0.3-1.2,0.8-1.6c0.6-0.4,1.3-0.6,2.3-0.6h1.4v-0.8c0-0.5-0.2-0.9-0.5-1.2s-0.7-0.4-1.3-0.4
		c-0.5,0-1,0.1-1.3,0.4c-0.3,0.3-0.5,0.6-0.5,1l-0.8,0c0-0.5,0.3-1,0.8-1.4c0.5-0.4,1.1-0.6,1.9-0.6c0.8,0,1.4,0.2,1.8,0.6
		c0.4,0.4,0.7,0.9,0.7,1.6v3.2c0,0.7,0.1,1.2,0.2,1.5v0.1H511.9z M509.5,364.8c0.5,0,1-0.1,1.4-0.4c0.4-0.2,0.7-0.6,0.9-1v-1.5h-1.4
		c-0.8,0-1.4,0.1-1.8,0.4c-0.4,0.3-0.6,0.6-0.6,1.1c0,0.4,0.1,0.7,0.4,1C508.7,364.7,509,364.8,509.5,364.8z"/>
	<path class="st1" d="M514.5,356.5c0-0.1,0-0.3,0.1-0.4c0.1-0.1,0.2-0.1,0.4-0.1c0.2,0,0.3,0,0.4,0.1c0.1,0.1,0.1,0.2,0.1,0.4
		c0,0.1,0,0.3-0.1,0.4c-0.1,0.1-0.2,0.1-0.4,0.1c-0.2,0-0.3,0-0.4-0.1C514.5,356.8,514.5,356.6,514.5,356.5z M515.4,365.4h-0.8v-6.9
		h0.8V365.4z"/>
	<path class="st1" d="M518.1,358.5l0,1.2c0.3-0.4,0.6-0.7,1-1c0.4-0.2,0.8-0.3,1.3-0.3c0.7,0,1.3,0.2,1.6,0.6c0.4,0.4,0.5,1,0.5,1.9
		v4.5h-0.8v-4.5c0-0.6-0.1-1.1-0.4-1.4c-0.3-0.3-0.7-0.5-1.2-0.5c-0.5,0-0.9,0.1-1.2,0.4c-0.4,0.3-0.6,0.7-0.8,1.2v4.7h-0.8v-6.9
		H518.1z"/>
	<path class="st1" d="M527.2,365.5c-0.6,0-1.1-0.1-1.6-0.4c-0.5-0.3-0.8-0.7-1.1-1.2c-0.3-0.5-0.4-1.1-0.4-1.7v-0.3
		c0-0.7,0.1-1.3,0.4-1.8s0.6-0.9,1.1-1.2s1-0.5,1.5-0.5c0.8,0,1.5,0.3,2,0.9c0.5,0.6,0.7,1.3,0.7,2.3v0.4h-4.9v0.1
		c0,0.8,0.2,1.4,0.7,1.9s1,0.8,1.7,0.8c0.4,0,0.8-0.1,1.1-0.2c0.3-0.1,0.6-0.4,0.8-0.7l0.5,0.4C529.1,365.1,528.3,365.5,527.2,365.5
		z M527.1,359c-0.6,0-1.1,0.2-1.4,0.6c-0.4,0.4-0.6,1-0.7,1.7h4.1v-0.1c0-0.7-0.2-1.2-0.6-1.6S527.7,359,527.1,359z"/>
	<path class="st1" d="M534.4,359.1c-0.2,0-0.3,0-0.5,0c-0.5,0-0.9,0.1-1.2,0.4c-0.3,0.3-0.6,0.6-0.7,1.2v4.7h-0.8v-6.9h0.7l0,1.1
		c0.4-0.8,1-1.2,1.9-1.2c0.2,0,0.4,0,0.5,0.1L534.4,359.1z"/>
	<path class="st1" d="M539.8,363.6c0-0.4-0.2-0.7-0.5-0.9c-0.3-0.2-0.8-0.4-1.4-0.5s-1.1-0.3-1.4-0.4c-0.3-0.2-0.6-0.4-0.7-0.6
		c-0.2-0.2-0.2-0.5-0.2-0.9c0-0.5,0.2-1,0.7-1.3c0.5-0.4,1-0.5,1.7-0.5c0.8,0,1.4,0.2,1.8,0.6c0.5,0.4,0.7,0.9,0.7,1.5h-0.8
		c0-0.4-0.2-0.7-0.5-1c-0.3-0.3-0.8-0.4-1.3-0.4c-0.5,0-0.9,0.1-1.2,0.3c-0.3,0.2-0.5,0.5-0.5,0.9c0,0.3,0.1,0.6,0.4,0.8
		c0.3,0.2,0.7,0.4,1.4,0.5c0.7,0.2,1.2,0.3,1.5,0.5s0.6,0.4,0.7,0.6c0.2,0.2,0.2,0.6,0.2,0.9c0,0.6-0.2,1-0.7,1.4s-1.1,0.5-1.8,0.5
		c-0.8,0-1.4-0.2-1.9-0.6c-0.5-0.4-0.7-0.9-0.7-1.5h0.8c0,0.4,0.2,0.8,0.6,1c0.3,0.2,0.8,0.4,1.4,0.4c0.5,0,1-0.1,1.3-0.3
		C539.6,364.3,539.8,364,539.8,363.6z"/>
</g>
<g>
	<rect x="27.6" y="279.4" class="st6" width="72.1" height="24.9"/>
</g>
<g class="st7">
	<path class="st1" d="M43.1,287.1l2.3-7.2h1.8l-3.3,9.2h-1.6l-3.3-9.2h1.8L43.1,287.1z"/>
	<path class="st1" d="M51.9,289.1c-0.1-0.1-0.1-0.3-0.2-0.6c-0.5,0.5-1.1,0.8-1.8,0.8c-0.7,0-1.3-0.2-1.7-0.6
		c-0.4-0.4-0.7-0.9-0.7-1.5c0-0.7,0.3-1.3,0.8-1.7c0.5-0.4,1.3-0.6,2.3-0.6h0.9v-0.5c0-0.4-0.1-0.6-0.3-0.9s-0.5-0.3-0.9-0.3
		c-0.4,0-0.6,0.1-0.9,0.3s-0.3,0.4-0.3,0.7h-1.5c0-0.4,0.1-0.7,0.4-1.1s0.6-0.6,1-0.8c0.4-0.2,0.9-0.3,1.4-0.3
		c0.8,0,1.4,0.2,1.9,0.6s0.7,1,0.7,1.7v3.1c0,0.6,0.1,1.1,0.3,1.5v0.1H51.9z M50.2,288c0.3,0,0.6-0.1,0.9-0.2
		c0.3-0.1,0.5-0.3,0.6-0.6v-1.3h-0.8c-0.6,0-1,0.1-1.3,0.3c-0.3,0.2-0.4,0.5-0.4,0.8c0,0.3,0.1,0.5,0.3,0.7
		C49.6,287.9,49.9,288,50.2,288z"/>
	<path class="st1" d="M56.3,282.2l0,0.7c0.5-0.6,1.1-0.8,2-0.8c0.9,0,1.5,0.4,1.9,1.1c0.5-0.7,1.2-1.1,2.1-1.1
		c0.8,0,1.3,0.2,1.7,0.6c0.4,0.4,0.6,1,0.6,1.9v4.5H63v-4.5c0-0.4-0.1-0.8-0.3-1s-0.5-0.3-0.9-0.3c-0.4,0-0.6,0.1-0.9,0.3
		c-0.2,0.2-0.4,0.4-0.5,0.7l0,4.7h-1.5v-4.5c0-0.8-0.4-1.2-1.2-1.2c-0.6,0-1.1,0.3-1.3,0.8v5h-1.5v-6.9H56.3z"/>
	<path class="st1" d="M72.2,285.8c0,1.1-0.2,1.9-0.7,2.5s-1.1,0.9-1.9,0.9c-0.8,0-1.4-0.2-1.8-0.7v3.3h-1.5v-9.5h1.4l0.1,0.7
		c0.5-0.5,1.1-0.8,1.8-0.8c0.8,0,1.5,0.3,2,0.9C71.9,283.7,72.2,284.5,72.2,285.8L72.2,285.8z M70.6,285.6c0-0.7-0.1-1.2-0.4-1.6
		c-0.3-0.4-0.7-0.6-1.2-0.6c-0.6,0-1.1,0.3-1.4,0.8v3c0.3,0.5,0.7,0.8,1.4,0.8c0.5,0,0.9-0.2,1.2-0.6
		C70.5,287,70.6,286.4,70.6,285.6z"/>
	<path class="st1" d="M83.6,279.9v6.2c0,1-0.3,1.8-0.9,2.3c-0.6,0.6-1.5,0.9-2.5,0.9c-1.1,0-1.9-0.3-2.5-0.8
		c-0.6-0.6-0.9-1.3-0.9-2.4v-6.2h1.6v6.2c0,0.6,0.2,1.1,0.5,1.4s0.8,0.5,1.4,0.5c1.2,0,1.9-0.7,1.9-2v-6.1H83.6z"/>
	<path class="st1" d="M87,289.1h-1.6v-9.2H87V289.1z"/>
</g>
<g>
	<rect x="23.3" y="64.6" class="st6" width="148.5" height="68.5"/>
</g>
<g class="st7">
	<path class="st1" d="M27.2,73.2l0.1,0.2l0.1-0.2l2.9-8.1h0.9l-3.4,9.2h-0.7l-3.4-9.2h0.9L27.2,73.2z"/>
	<path class="st1" d="M36.3,74.4c-0.1-0.2-0.1-0.5-0.1-1c-0.3,0.3-0.6,0.6-1,0.8c-0.4,0.2-0.8,0.3-1.3,0.3c-0.7,0-1.2-0.2-1.6-0.6
		c-0.4-0.4-0.6-0.8-0.6-1.4c0-0.7,0.3-1.2,0.8-1.6c0.6-0.4,1.3-0.6,2.3-0.6h1.4v-0.8c0-0.5-0.2-0.9-0.5-1.2C35.4,68.1,35,68,34.4,68
		c-0.5,0-1,0.1-1.3,0.4c-0.3,0.3-0.5,0.6-0.5,1l-0.8,0c0-0.5,0.3-1,0.8-1.4c0.5-0.4,1.1-0.6,1.9-0.6c0.8,0,1.4,0.2,1.8,0.6
		c0.4,0.4,0.7,0.9,0.7,1.6v3.2c0,0.7,0.1,1.2,0.2,1.5v0.1H36.3z M33.9,73.8c0.5,0,1-0.1,1.4-0.4c0.4-0.2,0.7-0.6,0.9-1v-1.5h-1.4
		c-0.8,0-1.4,0.1-1.8,0.4s-0.6,0.6-0.6,1.1c0,0.4,0.1,0.7,0.4,1C33.1,73.7,33.5,73.8,33.9,73.8z"/>
	<path class="st1" d="M39.6,67.5l0,1.1c0.3-0.4,0.6-0.7,1-0.9c0.4-0.2,0.8-0.3,1.3-0.3c1.1,0,1.8,0.4,2.1,1.3c0.2-0.4,0.6-0.8,1-1
		s0.9-0.3,1.4-0.3c1.5,0,2.2,0.8,2.3,2.4v4.6h-0.8v-4.5c0-0.6-0.1-1.1-0.4-1.4c-0.3-0.3-0.7-0.4-1.3-0.4c-0.5,0-1,0.2-1.4,0.5
		s-0.6,0.8-0.6,1.3v4.5h-0.8v-4.6c0-0.6-0.1-1-0.4-1.3c-0.3-0.3-0.7-0.4-1.3-0.4c-0.5,0-0.9,0.1-1.2,0.4c-0.3,0.3-0.6,0.7-0.8,1.2
		v4.7h-0.8v-6.9H39.6z"/>
	<path class="st1" d="M56,71c0,1.1-0.2,1.9-0.7,2.5c-0.5,0.6-1.1,0.9-1.9,0.9c-0.9,0-1.7-0.3-2.2-1V77h-0.8v-9.5h0.7l0,1
		c0.5-0.7,1.2-1.1,2.2-1.1c0.8,0,1.5,0.3,1.9,0.9c0.5,0.6,0.7,1.5,0.7,2.6V71z M55.2,70.9c0-0.9-0.2-1.6-0.5-2.1S53.8,68,53.2,68
		c-0.5,0-0.9,0.1-1.2,0.3c-0.3,0.2-0.6,0.5-0.8,1v3.3c0.2,0.4,0.4,0.7,0.8,0.9s0.7,0.3,1.2,0.3c0.6,0,1.1-0.3,1.5-0.8
		C55,72.6,55.2,71.8,55.2,70.9z"/>
	<path class="st1" d="M63.4,73.8c0.5,0,1-0.1,1.3-0.4c0.4-0.3,0.6-0.7,0.6-1.2H66c0,0.4-0.2,0.8-0.4,1.1s-0.6,0.6-1,0.8
		c-0.4,0.2-0.8,0.3-1.3,0.3c-0.9,0-1.6-0.3-2.1-0.9c-0.5-0.6-0.8-1.5-0.8-2.5v-0.2c0-0.7,0.1-1.3,0.4-1.8c0.2-0.5,0.6-0.9,1-1.2
		c0.4-0.3,1-0.4,1.6-0.4c0.8,0,1.4,0.2,1.9,0.7c0.5,0.4,0.8,1,0.8,1.8h-0.7c0-0.5-0.2-1-0.6-1.3c-0.4-0.3-0.8-0.5-1.3-0.5
		c-0.7,0-1.2,0.2-1.6,0.7c-0.4,0.5-0.6,1.2-0.6,2.1v0.2c0,0.9,0.2,1.6,0.6,2.1C62.1,73.6,62.7,73.8,63.4,73.8z"/>
	<path class="st1" d="M67.1,70.8c0-0.7,0.1-1.3,0.4-1.8c0.3-0.5,0.6-0.9,1.1-1.2c0.5-0.3,1-0.4,1.6-0.4c0.9,0,1.7,0.3,2.2,1
		c0.6,0.6,0.9,1.5,0.9,2.5V71c0,0.7-0.1,1.3-0.4,1.8c-0.3,0.5-0.6,0.9-1.1,1.2s-1,0.4-1.6,0.4c-0.9,0-1.6-0.3-2.2-1
		c-0.6-0.6-0.9-1.5-0.9-2.5V70.8z M67.9,71c0,0.8,0.2,1.5,0.6,2c0.4,0.5,1,0.8,1.7,0.8c0.7,0,1.2-0.3,1.7-0.8
		c0.4-0.5,0.6-1.2,0.6-2.1v-0.1c0-0.5-0.1-1-0.3-1.4s-0.5-0.8-0.8-1S70.6,68,70.2,68c-0.7,0-1.2,0.3-1.7,0.8s-0.6,1.2-0.6,2.1V71z"
		/>
	<path class="st1" d="M75.5,67.5l0,1.2c0.3-0.4,0.6-0.7,1-1c0.4-0.2,0.8-0.3,1.3-0.3c0.7,0,1.3,0.2,1.6,0.6s0.5,1,0.5,1.9v4.5h-0.8
		v-4.5c0-0.6-0.1-1.1-0.4-1.4c-0.3-0.3-0.7-0.5-1.2-0.5c-0.5,0-0.9,0.1-1.2,0.4c-0.4,0.3-0.6,0.7-0.8,1.2v4.7h-0.8v-6.9H75.5z"/>
	<path class="st1" d="M83.1,65.7v1.8h1.4v0.6h-1.4v4.6c0,0.4,0.1,0.7,0.2,0.9c0.1,0.2,0.4,0.3,0.7,0.3c0.1,0,0.3,0,0.6-0.1l0,0.6
		c-0.2,0.1-0.5,0.1-0.8,0.1c-0.5,0-0.9-0.2-1.1-0.5s-0.4-0.7-0.4-1.3v-4.6h-1.3v-0.6h1.3v-1.8H83.1z"/>
	<path class="st1" d="M89.3,68.1c-0.2,0-0.3,0-0.5,0c-0.5,0-0.9,0.1-1.2,0.4c-0.3,0.3-0.6,0.6-0.7,1.2v4.7h-0.8v-6.9h0.7l0,1.1
		c0.4-0.8,1-1.2,1.9-1.2c0.2,0,0.4,0,0.5,0.1L89.3,68.1z"/>
	<path class="st1" d="M89.9,70.8c0-0.7,0.1-1.3,0.4-1.8c0.3-0.5,0.6-0.9,1.1-1.2c0.5-0.3,1-0.4,1.6-0.4c0.9,0,1.7,0.3,2.2,1
		c0.6,0.6,0.9,1.5,0.9,2.5V71c0,0.7-0.1,1.3-0.4,1.8c-0.3,0.5-0.6,0.9-1.1,1.2s-1,0.4-1.6,0.4c-0.9,0-1.6-0.3-2.2-1
		c-0.6-0.6-0.9-1.5-0.9-2.5V70.8z M90.7,71c0,0.8,0.2,1.5,0.6,2c0.4,0.5,1,0.8,1.7,0.8c0.7,0,1.2-0.3,1.7-0.8
		c0.4-0.5,0.6-1.2,0.6-2.1v-0.1c0-0.5-0.1-1-0.3-1.4s-0.5-0.8-0.8-1S93.5,68,93,68c-0.7,0-1.2,0.3-1.7,0.8s-0.6,1.2-0.6,2.1V71z"/>
	<path class="st1" d="M98.5,74.4h-0.8v-9.8h0.8V74.4z"/>
	<path class="st1" d="M104.4,67.5l0,1.1c0.3-0.4,0.6-0.7,1-0.9c0.4-0.2,0.8-0.3,1.3-0.3c1.1,0,1.8,0.4,2.1,1.3c0.2-0.4,0.6-0.8,1-1
		s0.9-0.3,1.4-0.3c1.5,0,2.2,0.8,2.3,2.4v4.6h-0.8v-4.5c0-0.6-0.1-1.1-0.4-1.4c-0.3-0.3-0.7-0.4-1.3-0.4c-0.5,0-1,0.2-1.4,0.5
		s-0.6,0.8-0.6,1.3v4.5h-0.8v-4.6c0-0.6-0.1-1-0.4-1.3c-0.3-0.3-0.7-0.4-1.3-0.4c-0.5,0-0.9,0.1-1.2,0.4c-0.3,0.3-0.6,0.7-0.8,1.2
		v4.7h-0.8v-6.9H104.4z"/>
	<path class="st1" d="M117.9,74.5c-0.6,0-1.1-0.1-1.6-0.4c-0.5-0.3-0.8-0.7-1.1-1.2c-0.3-0.5-0.4-1.1-0.4-1.7v-0.3
		c0-0.7,0.1-1.3,0.4-1.8c0.3-0.5,0.6-0.9,1.1-1.2s1-0.5,1.5-0.5c0.8,0,1.5,0.3,2,0.9c0.5,0.6,0.7,1.3,0.7,2.3V71h-4.9v0.1
		c0,0.8,0.2,1.4,0.7,1.9c0.4,0.5,1,0.8,1.7,0.8c0.4,0,0.8-0.1,1.1-0.2c0.3-0.1,0.6-0.4,0.8-0.7l0.5,0.4
		C119.8,74.1,119,74.5,117.9,74.5z M117.8,68c-0.6,0-1.1,0.2-1.4,0.6c-0.4,0.4-0.6,1-0.7,1.7h4.1v-0.1c0-0.7-0.2-1.2-0.6-1.6
		S118.3,68,117.8,68z"/>
	<path class="st1" d="M126.1,72.6c0-0.4-0.2-0.7-0.5-0.9c-0.3-0.2-0.8-0.4-1.4-0.5s-1.1-0.3-1.4-0.4c-0.3-0.2-0.6-0.4-0.7-0.6
		c-0.2-0.2-0.2-0.5-0.2-0.9c0-0.5,0.2-1,0.7-1.3s1-0.5,1.7-0.5c0.8,0,1.4,0.2,1.8,0.6c0.5,0.4,0.7,0.9,0.7,1.5H126
		c0-0.4-0.2-0.7-0.5-1c-0.3-0.3-0.8-0.4-1.3-0.4c-0.5,0-0.9,0.1-1.2,0.3c-0.3,0.2-0.5,0.5-0.5,0.9c0,0.3,0.1,0.6,0.4,0.8
		c0.3,0.2,0.7,0.4,1.4,0.5c0.7,0.2,1.2,0.3,1.5,0.5c0.3,0.2,0.6,0.4,0.7,0.6s0.2,0.6,0.2,0.9c0,0.6-0.2,1-0.7,1.4
		c-0.5,0.3-1.1,0.5-1.8,0.5c-0.8,0-1.4-0.2-1.9-0.6c-0.5-0.4-0.7-0.9-0.7-1.5h0.8c0,0.4,0.2,0.8,0.6,1c0.3,0.2,0.8,0.4,1.4,0.4
		c0.5,0,1-0.1,1.3-0.3S126.1,73,126.1,72.6z"/>
	<path class="st1" d="M132.7,72.6c0-0.4-0.2-0.7-0.5-0.9c-0.3-0.2-0.8-0.4-1.4-0.5s-1.1-0.3-1.4-0.4c-0.3-0.2-0.6-0.4-0.7-0.6
		c-0.2-0.2-0.2-0.5-0.2-0.9c0-0.5,0.2-1,0.7-1.3s1-0.5,1.7-0.5c0.8,0,1.4,0.2,1.8,0.6c0.5,0.4,0.7,0.9,0.7,1.5h-0.8
		c0-0.4-0.2-0.7-0.5-1c-0.3-0.3-0.8-0.4-1.3-0.4c-0.5,0-0.9,0.1-1.2,0.3c-0.3,0.2-0.5,0.5-0.5,0.9c0,0.3,0.1,0.6,0.4,0.8
		c0.3,0.2,0.7,0.4,1.4,0.5c0.7,0.2,1.2,0.3,1.5,0.5c0.3,0.2,0.6,0.4,0.7,0.6s0.2,0.6,0.2,0.9c0,0.6-0.2,1-0.7,1.4
		c-0.5,0.3-1.1,0.5-1.8,0.5c-0.8,0-1.4-0.2-1.9-0.6c-0.5-0.4-0.7-0.9-0.7-1.5h0.8c0,0.4,0.2,0.8,0.6,1c0.3,0.2,0.8,0.4,1.4,0.4
		c0.5,0,1-0.1,1.3-0.3S132.7,73,132.7,72.6z"/>
	<path class="st1" d="M139.5,74.4c-0.1-0.2-0.1-0.5-0.1-1c-0.3,0.3-0.6,0.6-1,0.8c-0.4,0.2-0.8,0.3-1.3,0.3c-0.7,0-1.2-0.2-1.6-0.6
		c-0.4-0.4-0.6-0.8-0.6-1.4c0-0.7,0.3-1.2,0.8-1.6c0.6-0.4,1.3-0.6,2.3-0.6h1.4v-0.8c0-0.5-0.2-0.9-0.5-1.2
		c-0.3-0.3-0.7-0.4-1.3-0.4c-0.5,0-1,0.1-1.3,0.4c-0.3,0.3-0.5,0.6-0.5,1l-0.8,0c0-0.5,0.3-1,0.8-1.4c0.5-0.4,1.1-0.6,1.9-0.6
		c0.8,0,1.4,0.2,1.8,0.6c0.4,0.4,0.7,0.9,0.7,1.6v3.2c0,0.7,0.1,1.2,0.2,1.5v0.1H139.5z M137.1,73.8c0.5,0,1-0.1,1.4-0.4
		c0.4-0.2,0.7-0.6,0.9-1v-1.5h-1.4c-0.8,0-1.4,0.1-1.8,0.4s-0.6,0.6-0.6,1.1c0,0.4,0.1,0.7,0.4,1C136.2,73.7,136.6,73.8,137.1,73.8z
		"/>
	<path class="st1" d="M141.8,70.9c0-1.1,0.2-1.9,0.7-2.6c0.5-0.6,1.1-0.9,1.9-0.9c0.9,0,1.6,0.4,2.1,1.1l0-1h0.7v6.7
		c0,0.9-0.2,1.6-0.7,2.1c-0.5,0.5-1.2,0.8-2,0.8c-0.5,0-0.9-0.1-1.4-0.3c-0.4-0.2-0.8-0.5-1-0.9l0.4-0.5c0.5,0.7,1.2,1,1.9,1
		c0.6,0,1.1-0.2,1.5-0.6c0.4-0.4,0.5-0.9,0.6-1.6v-0.9c-0.5,0.7-1.2,1-2.1,1c-0.8,0-1.4-0.3-1.9-1s-0.7-1.5-0.7-2.6V70.9z M142.5,71
		c0,0.9,0.2,1.6,0.5,2.1s0.8,0.8,1.5,0.8c0.9,0,1.6-0.4,2-1.3v-3.2c-0.2-0.4-0.4-0.8-0.8-1S145,68,144.6,68c-0.6,0-1.1,0.3-1.5,0.8
		C142.7,69.3,142.5,70,142.5,71z"/>
	<path class="st1" d="M152,74.5c-0.6,0-1.1-0.1-1.6-0.4c-0.5-0.3-0.8-0.7-1.1-1.2c-0.3-0.5-0.4-1.1-0.4-1.7v-0.3
		c0-0.7,0.1-1.3,0.4-1.8c0.3-0.5,0.6-0.9,1.1-1.2s1-0.5,1.5-0.5c0.8,0,1.5,0.3,2,0.9c0.5,0.6,0.7,1.3,0.7,2.3V71h-4.9v0.1
		c0,0.8,0.2,1.4,0.7,1.9c0.4,0.5,1,0.8,1.7,0.8c0.4,0,0.8-0.1,1.1-0.2c0.3-0.1,0.6-0.4,0.8-0.7l0.5,0.4
		C153.8,74.1,153,74.5,152,74.5z M151.8,68c-0.6,0-1.1,0.2-1.4,0.6c-0.4,0.4-0.6,1-0.7,1.7h4.1v-0.1c0-0.7-0.2-1.2-0.6-1.6
		S152.4,68,151.8,68z"/>
	<path class="st1" d="M160.1,72.6c0-0.4-0.2-0.7-0.5-0.9c-0.3-0.2-0.8-0.4-1.4-0.5s-1.1-0.3-1.4-0.4c-0.3-0.2-0.6-0.4-0.7-0.6
		c-0.2-0.2-0.2-0.5-0.2-0.9c0-0.5,0.2-1,0.7-1.3s1-0.5,1.7-0.5c0.8,0,1.4,0.2,1.8,0.6c0.5,0.4,0.7,0.9,0.7,1.5h-0.8
		c0-0.4-0.2-0.7-0.5-1c-0.3-0.3-0.8-0.4-1.3-0.4c-0.5,0-0.9,0.1-1.2,0.3c-0.3,0.2-0.5,0.5-0.5,0.9c0,0.3,0.1,0.6,0.4,0.8
		c0.3,0.2,0.7,0.4,1.4,0.5c0.7,0.2,1.2,0.3,1.5,0.5c0.3,0.2,0.6,0.4,0.7,0.6s0.2,0.6,0.2,0.9c0,0.6-0.2,1-0.7,1.4
		c-0.5,0.3-1.1,0.5-1.8,0.5c-0.8,0-1.4-0.2-1.9-0.6c-0.5-0.4-0.7-0.9-0.7-1.5h0.8c0,0.4,0.2,0.8,0.6,1c0.3,0.2,0.8,0.4,1.4,0.4
		c0.5,0,1-0.1,1.3-0.3S160.1,73,160.1,72.6z"/>
</g>
<g class="st7">
	<path class="st1" d="M30.8,91.1v6.3c0,0.6-0.1,1.2-0.4,1.6s-0.7,0.8-1.1,1.1c-0.5,0.2-1.1,0.4-1.7,0.4c-1,0-1.8-0.3-2.3-0.8
		c-0.6-0.5-0.9-1.3-0.9-2.2v-6.4h0.8v6.3c0,0.8,0.2,1.4,0.7,1.8s1,0.6,1.8,0.6s1.4-0.2,1.8-0.6c0.4-0.4,0.7-1,0.7-1.8v-6.3H30.8z"/>
	<path class="st1" d="M36.9,98.6c0-0.4-0.2-0.7-0.5-0.9c-0.3-0.2-0.8-0.4-1.4-0.5s-1.1-0.3-1.4-0.4c-0.3-0.2-0.6-0.4-0.7-0.6
		c-0.2-0.2-0.2-0.5-0.2-0.9c0-0.5,0.2-1,0.7-1.3s1-0.5,1.7-0.5c0.8,0,1.4,0.2,1.8,0.6c0.5,0.4,0.7,0.9,0.7,1.5h-0.8
		c0-0.4-0.2-0.7-0.5-1C36,94.1,35.6,94,35.1,94c-0.5,0-0.9,0.1-1.2,0.3c-0.3,0.2-0.5,0.5-0.5,0.9c0,0.3,0.1,0.6,0.4,0.8
		c0.3,0.2,0.7,0.4,1.4,0.5c0.7,0.2,1.2,0.3,1.5,0.5c0.3,0.2,0.6,0.4,0.7,0.6s0.2,0.6,0.2,0.9c0,0.6-0.2,1-0.7,1.4
		c-0.5,0.3-1.1,0.5-1.8,0.5c-0.8,0-1.4-0.2-1.9-0.6c-0.5-0.4-0.7-0.9-0.7-1.5h0.8c0,0.4,0.2,0.8,0.6,1c0.3,0.2,0.8,0.4,1.4,0.4
		c0.5,0,1-0.1,1.3-0.3S36.9,99,36.9,98.6z"/>
	<path class="st1" d="M42,100.5c-0.6,0-1.1-0.1-1.6-0.4c-0.5-0.3-0.8-0.7-1.1-1.2c-0.3-0.5-0.4-1.1-0.4-1.7v-0.3
		c0-0.7,0.1-1.3,0.4-1.8c0.3-0.5,0.6-0.9,1.1-1.2s1-0.5,1.5-0.5c0.8,0,1.5,0.3,2,0.9c0.5,0.6,0.7,1.3,0.7,2.3V97h-4.9v0.1
		c0,0.8,0.2,1.4,0.7,1.9c0.4,0.5,1,0.8,1.7,0.8c0.4,0,0.8-0.1,1.1-0.2c0.3-0.1,0.6-0.4,0.8-0.7l0.5,0.4
		C43.9,100.1,43.1,100.5,42,100.5z M41.9,94c-0.6,0-1.1,0.2-1.4,0.6c-0.4,0.4-0.6,1-0.7,1.7h4.1v-0.1c0-0.7-0.2-1.2-0.6-1.6
		S42.5,94,41.9,94z"/>
	<path class="st1" d="M49.3,94.1c-0.2,0-0.3,0-0.5,0c-0.5,0-0.9,0.1-1.2,0.4c-0.3,0.3-0.6,0.6-0.7,1.2v4.7h-0.8v-6.9h0.7l0,1.1
		c0.4-0.8,1-1.2,1.9-1.2c0.2,0,0.4,0,0.5,0.1L49.3,94.1z"/>
	<path class="st1" d="M53.5,101.1h-0.7l3.9-10h0.7L53.5,101.1z"/>
	<path class="st1" d="M59.7,96.6v3.8H59v-9.2h3.1c1,0,1.7,0.2,2.3,0.7c0.6,0.5,0.8,1.2,0.8,2c0,0.9-0.3,1.5-0.8,2
		c-0.5,0.5-1.3,0.7-2.3,0.7H59.7z M59.7,95.9h2.4c0.8,0,1.3-0.2,1.7-0.5s0.6-0.9,0.6-1.5c0-0.6-0.2-1.1-0.6-1.5
		c-0.4-0.4-1-0.6-1.7-0.6h-2.4V95.9z"/>
	<path class="st1" d="M70,94.1c-0.2,0-0.3,0-0.5,0c-0.5,0-0.9,0.1-1.2,0.4c-0.3,0.3-0.6,0.6-0.7,1.2v4.7h-0.8v-6.9h0.7l0,1.1
		c0.4-0.8,1-1.2,1.9-1.2c0.2,0,0.4,0,0.5,0.1L70,94.1z"/>
	<path class="st1" d="M70.6,96.8c0-0.7,0.1-1.3,0.4-1.8c0.3-0.5,0.6-0.9,1.1-1.2c0.5-0.3,1-0.4,1.6-0.4c0.9,0,1.7,0.3,2.2,1
		c0.6,0.6,0.9,1.5,0.9,2.5V97c0,0.7-0.1,1.3-0.4,1.8c-0.3,0.5-0.6,0.9-1.1,1.2s-1,0.4-1.6,0.4c-0.9,0-1.6-0.3-2.2-1
		c-0.6-0.6-0.9-1.5-0.9-2.5V96.8z M71.4,97c0,0.8,0.2,1.5,0.6,2c0.4,0.5,1,0.8,1.7,0.8c0.7,0,1.2-0.3,1.7-0.8
		c0.4-0.5,0.6-1.2,0.6-2.1v-0.1c0-0.5-0.1-1-0.3-1.4s-0.5-0.8-0.8-1S74.1,94,73.7,94c-0.7,0-1.2,0.3-1.7,0.8s-0.6,1.2-0.6,2.1V97z"
		/>
	<path class="st1" d="M78,96.9c0-1.1,0.2-1.9,0.7-2.5c0.5-0.6,1.1-0.9,1.9-0.9c0.9,0,1.6,0.4,2.1,1.1v-3.9h0.8v9.8h-0.7l0-0.9
		c-0.5,0.7-1.2,1-2.1,1c-0.8,0-1.4-0.3-1.9-1C78.3,98.9,78,98,78,96.9L78,96.9z M78.8,97c0,0.9,0.2,1.6,0.5,2.1s0.8,0.8,1.5,0.8
		c0.9,0,1.6-0.4,2-1.2v-3.2c-0.4-0.9-1.1-1.3-2-1.3c-0.6,0-1.1,0.3-1.5,0.8C79,95.3,78.8,96,78.8,97z"/>
	<path class="st1" d="M90,99.5c-0.5,0.7-1.2,1-2.2,1c-0.7,0-1.3-0.2-1.7-0.6c-0.4-0.4-0.6-1.1-0.6-1.9v-4.5h0.8v4.4
		c0,1.3,0.5,2,1.6,2c1.1,0,1.8-0.5,2.1-1.4v-5h0.8v6.9H90L90,99.5z"/>
	<path class="st1" d="M95.2,99.8c0.5,0,1-0.1,1.3-0.4c0.4-0.3,0.6-0.7,0.6-1.2h0.7c0,0.4-0.2,0.8-0.4,1.1s-0.6,0.6-1,0.8
		c-0.4,0.2-0.8,0.3-1.3,0.3c-0.9,0-1.6-0.3-2.1-0.9c-0.5-0.6-0.8-1.5-0.8-2.5v-0.2c0-0.7,0.1-1.3,0.4-1.8c0.2-0.5,0.6-0.9,1-1.2
		c0.4-0.3,1-0.4,1.6-0.4c0.8,0,1.4,0.2,1.9,0.7c0.5,0.4,0.8,1,0.8,1.8h-0.7c0-0.5-0.2-1-0.6-1.3c-0.4-0.3-0.8-0.5-1.3-0.5
		c-0.7,0-1.2,0.2-1.6,0.7c-0.4,0.5-0.6,1.2-0.6,2.1v0.2c0,0.9,0.2,1.6,0.6,2.1C94,99.6,94.5,99.8,95.2,99.8z"/>
	<path class="st1" d="M100.6,91.7v1.8h1.4v0.6h-1.4v4.6c0,0.4,0.1,0.7,0.2,0.9c0.1,0.2,0.4,0.3,0.7,0.3c0.1,0,0.3,0,0.6-0.1l0,0.6
		c-0.2,0.1-0.5,0.1-0.8,0.1c-0.5,0-0.9-0.2-1.1-0.5s-0.4-0.7-0.4-1.3v-4.6h-1.3v-0.6h1.3v-1.8H100.6z"/>
	<path class="st1" d="M103.5,91.5c0-0.1,0-0.3,0.1-0.4s0.2-0.1,0.4-0.1s0.3,0,0.4,0.1c0.1,0.1,0.1,0.2,0.1,0.4c0,0.1,0,0.3-0.1,0.4
		c-0.1,0.1-0.2,0.1-0.4,0.1s-0.3,0-0.4-0.1S103.5,91.6,103.5,91.5z M104.4,100.4h-0.8v-6.9h0.8V100.4z"/>
	<path class="st1" d="M106,96.8c0-0.7,0.1-1.3,0.4-1.8c0.3-0.5,0.6-0.9,1.1-1.2c0.5-0.3,1-0.4,1.6-0.4c0.9,0,1.7,0.3,2.2,1
		c0.6,0.6,0.9,1.5,0.9,2.5V97c0,0.7-0.1,1.3-0.4,1.8c-0.3,0.5-0.6,0.9-1.1,1.2s-1,0.4-1.6,0.4c-0.9,0-1.6-0.3-2.2-1
		c-0.6-0.6-0.9-1.5-0.9-2.5V96.8z M106.8,97c0,0.8,0.2,1.5,0.6,2c0.4,0.5,1,0.8,1.7,0.8c0.7,0,1.2-0.3,1.7-0.8
		c0.4-0.5,0.6-1.2,0.6-2.1v-0.1c0-0.5-0.1-1-0.3-1.4s-0.5-0.8-0.8-1s-0.8-0.4-1.2-0.4c-0.7,0-1.2,0.3-1.7,0.8s-0.6,1.2-0.6,2.1V97z"
		/>
	<path class="st1" d="M114.5,93.5l0,1.2c0.3-0.4,0.6-0.7,1-1c0.4-0.2,0.8-0.3,1.3-0.3c0.7,0,1.3,0.2,1.6,0.6s0.5,1,0.5,1.9v4.5h-0.8
		v-4.5c0-0.6-0.1-1.1-0.4-1.4c-0.3-0.3-0.7-0.5-1.2-0.5c-0.5,0-0.9,0.1-1.2,0.4c-0.4,0.3-0.6,0.7-0.8,1.2v4.7h-0.8v-6.9H114.5z"/>
	<path class="st1" d="M125.2,91.7v1.8h1.4v0.6h-1.4v4.6c0,0.4,0.1,0.7,0.2,0.9c0.1,0.2,0.4,0.3,0.7,0.3c0.1,0,0.3,0,0.6-0.1l0,0.6
		c-0.2,0.1-0.5,0.1-0.8,0.1c-0.5,0-0.9-0.2-1.1-0.5s-0.4-0.7-0.4-1.3v-4.6h-1.3v-0.6h1.3v-1.8H125.2z"/>
	<path class="st1" d="M131.4,94.1c-0.2,0-0.3,0-0.5,0c-0.5,0-0.9,0.1-1.2,0.4c-0.3,0.3-0.6,0.6-0.7,1.2v4.7h-0.8v-6.9h0.7l0,1.1
		c0.4-0.8,1-1.2,1.9-1.2c0.2,0,0.4,0,0.5,0.1L131.4,94.1z"/>
	<path class="st1" d="M136.7,100.4c-0.1-0.2-0.1-0.5-0.1-1c-0.3,0.3-0.6,0.6-1,0.8c-0.4,0.2-0.8,0.3-1.3,0.3c-0.7,0-1.2-0.2-1.6-0.6
		c-0.4-0.4-0.6-0.8-0.6-1.4c0-0.7,0.3-1.2,0.8-1.6c0.6-0.4,1.3-0.6,2.3-0.6h1.4v-0.8c0-0.5-0.2-0.9-0.5-1.2
		c-0.3-0.3-0.7-0.4-1.3-0.4c-0.5,0-1,0.1-1.3,0.4c-0.3,0.3-0.5,0.6-0.5,1l-0.8,0c0-0.5,0.3-1,0.8-1.4c0.5-0.4,1.1-0.6,1.9-0.6
		c0.8,0,1.4,0.2,1.8,0.6c0.4,0.4,0.7,0.9,0.7,1.6v3.2c0,0.7,0.1,1.2,0.2,1.5v0.1H136.7z M134.3,99.8c0.5,0,1-0.1,1.4-0.4
		c0.4-0.2,0.7-0.6,0.9-1v-1.5h-1.4c-0.8,0-1.4,0.1-1.8,0.4s-0.6,0.6-0.6,1.1c0,0.4,0.1,0.7,0.4,1C133.5,99.7,133.8,99.8,134.3,99.8z
		"/>
	<path class="st1" d="M139.9,100.4v-6.2h-1.1v-0.6h1.1v-0.8c0-0.7,0.2-1.2,0.5-1.6c0.4-0.4,0.9-0.6,1.5-0.6c0.3,0,0.6,0,0.8,0.1
		l-0.1,0.6c-0.2-0.1-0.4-0.1-0.7-0.1c-0.4,0-0.7,0.1-1,0.4c-0.2,0.3-0.3,0.6-0.3,1.1v0.9h1.6v0.6h-1.6v6.2H139.9z"/>
	<path class="st1" d="M144.2,100.4v-6.2H143v-0.6h1.1v-0.8c0-0.7,0.2-1.2,0.5-1.6c0.4-0.4,0.9-0.6,1.5-0.6c0.3,0,0.6,0,0.8,0.1
		l-0.1,0.6c-0.2-0.1-0.4-0.1-0.7-0.1c-0.4,0-0.7,0.1-1,0.4c-0.2,0.3-0.3,0.6-0.3,1.1v0.9h1.6v0.6h-1.6v6.2H144.2z"/>
	<path class="st1" d="M147.9,91.5c0-0.1,0-0.3,0.1-0.4s0.2-0.1,0.4-0.1s0.3,0,0.4,0.1c0.1,0.1,0.1,0.2,0.1,0.4c0,0.1,0,0.3-0.1,0.4
		c-0.1,0.1-0.2,0.1-0.4,0.1s-0.3,0-0.4-0.1S147.9,91.6,147.9,91.5z M148.8,100.4H148v-6.9h0.8V100.4z"/>
	<path class="st1" d="M153.4,99.8c0.5,0,1-0.1,1.3-0.4c0.4-0.3,0.6-0.7,0.6-1.2h0.7c0,0.4-0.2,0.8-0.4,1.1s-0.6,0.6-1,0.8
		c-0.4,0.2-0.8,0.3-1.3,0.3c-0.9,0-1.6-0.3-2.1-0.9c-0.5-0.6-0.8-1.5-0.8-2.5v-0.2c0-0.7,0.1-1.3,0.4-1.8c0.2-0.5,0.6-0.9,1-1.2
		c0.4-0.3,1-0.4,1.6-0.4c0.8,0,1.4,0.2,1.9,0.7c0.5,0.4,0.8,1,0.8,1.8h-0.7c0-0.5-0.2-1-0.6-1.3c-0.4-0.3-0.8-0.5-1.3-0.5
		c-0.7,0-1.2,0.2-1.6,0.7c-0.4,0.5-0.6,1.2-0.6,2.1v0.2c0,0.9,0.2,1.6,0.6,2.1C152.1,99.6,152.7,99.8,153.4,99.8z"/>
</g>
<g class="st7">
	<path class="st1" d="M25.2,122.6v3.8h-0.8v-9.2h3.1c1,0,1.7,0.2,2.3,0.7c0.6,0.5,0.8,1.2,0.8,2c0,0.9-0.3,1.5-0.8,2
		c-0.5,0.5-1.3,0.7-2.3,0.7H25.2z M25.2,121.9h2.4c0.8,0,1.3-0.2,1.7-0.5s0.6-0.9,0.6-1.5c0-0.6-0.2-1.1-0.6-1.5
		c-0.4-0.4-1-0.6-1.7-0.6h-2.4V121.9z"/>
	<path class="st1" d="M35.4,120.1c-0.2,0-0.3,0-0.5,0c-0.5,0-0.9,0.1-1.2,0.4c-0.3,0.3-0.6,0.6-0.7,1.2v4.7h-0.8v-6.9H33l0,1.1
		c0.4-0.8,1-1.2,1.9-1.2c0.2,0,0.4,0,0.5,0.1L35.4,120.1z"/>
	<path class="st1" d="M36.1,122.8c0-0.7,0.1-1.3,0.4-1.8c0.3-0.5,0.6-0.9,1.1-1.2c0.5-0.3,1-0.4,1.6-0.4c0.9,0,1.7,0.3,2.2,1
		c0.6,0.6,0.9,1.5,0.9,2.5v0.2c0,0.7-0.1,1.3-0.4,1.8c-0.3,0.5-0.6,0.9-1.1,1.2s-1,0.4-1.6,0.4c-0.9,0-1.6-0.3-2.2-1
		c-0.6-0.6-0.9-1.5-0.9-2.5V122.8z M36.8,123c0,0.8,0.2,1.5,0.6,2c0.4,0.5,1,0.8,1.7,0.8c0.7,0,1.2-0.3,1.7-0.8
		c0.4-0.5,0.6-1.2,0.6-2.1v-0.1c0-0.5-0.1-1-0.3-1.4s-0.5-0.8-0.8-1s-0.8-0.4-1.2-0.4c-0.7,0-1.2,0.3-1.7,0.8s-0.6,1.2-0.6,2.1V123z
		"/>
	<path class="st1" d="M43.5,122.9c0-1.1,0.2-1.9,0.7-2.5c0.5-0.6,1.1-0.9,1.9-0.9c0.9,0,1.6,0.4,2.1,1.1v-3.9H49v9.8h-0.7l0-0.9
		c-0.5,0.7-1.2,1-2.1,1c-0.8,0-1.4-0.3-1.9-1C43.7,124.9,43.5,124,43.5,122.9L43.5,122.9z M44.2,123c0,0.9,0.2,1.6,0.5,2.1
		s0.8,0.8,1.5,0.8c0.9,0,1.6-0.4,2-1.2v-3.2c-0.4-0.9-1.1-1.3-2-1.3c-0.6,0-1.1,0.3-1.5,0.8C44.4,121.3,44.2,122,44.2,123z"/>
	<path class="st1" d="M55.4,125.5c-0.5,0.7-1.2,1-2.2,1c-0.7,0-1.3-0.2-1.7-0.6c-0.4-0.4-0.6-1.1-0.6-1.9v-4.5h0.8v4.4
		c0,1.3,0.5,2,1.6,2c1.1,0,1.8-0.5,2.1-1.4v-5h0.8v6.9h-0.7L55.4,125.5z"/>
	<path class="st1" d="M60.7,125.8c0.5,0,1-0.1,1.3-0.4c0.4-0.3,0.6-0.7,0.6-1.2h0.7c0,0.4-0.2,0.8-0.4,1.1s-0.6,0.6-1,0.8
		c-0.4,0.2-0.8,0.3-1.3,0.3c-0.9,0-1.6-0.3-2.1-0.9c-0.5-0.6-0.8-1.5-0.8-2.5v-0.2c0-0.7,0.1-1.3,0.4-1.8c0.2-0.5,0.6-0.9,1-1.2
		c0.4-0.3,1-0.4,1.6-0.4c0.8,0,1.4,0.2,1.9,0.7c0.5,0.4,0.8,1,0.8,1.8h-0.7c0-0.5-0.2-1-0.6-1.3c-0.4-0.3-0.8-0.5-1.3-0.5
		c-0.7,0-1.2,0.2-1.6,0.7c-0.4,0.5-0.6,1.2-0.6,2.1v0.2c0,0.9,0.2,1.6,0.6,2.1C59.5,125.6,60,125.8,60.7,125.8z"/>
	<path class="st1" d="M66,117.7v1.8h1.4v0.6H66v4.6c0,0.4,0.1,0.7,0.2,0.9c0.1,0.2,0.4,0.3,0.7,0.3c0.1,0,0.3,0,0.6-0.1l0,0.6
		c-0.2,0.1-0.5,0.1-0.8,0.1c-0.5,0-0.9-0.2-1.1-0.5s-0.4-0.7-0.4-1.3v-4.6H64v-0.6h1.3v-1.8H66z"/>
	<path class="st1" d="M69,117.5c0-0.1,0-0.3,0.1-0.4s0.2-0.1,0.4-0.1s0.3,0,0.4,0.1c0.1,0.1,0.1,0.2,0.1,0.4c0,0.1,0,0.3-0.1,0.4
		c-0.1,0.1-0.2,0.1-0.4,0.1s-0.3,0-0.4-0.1S69,117.6,69,117.5z M69.9,126.4h-0.8v-6.9h0.8V126.4z"/>
	<path class="st1" d="M71.5,122.8c0-0.7,0.1-1.3,0.4-1.8c0.3-0.5,0.6-0.9,1.1-1.2c0.5-0.3,1-0.4,1.6-0.4c0.9,0,1.7,0.3,2.2,1
		c0.6,0.6,0.9,1.5,0.9,2.5v0.2c0,0.7-0.1,1.3-0.4,1.8c-0.3,0.5-0.6,0.9-1.1,1.2s-1,0.4-1.6,0.4c-0.9,0-1.6-0.3-2.2-1
		c-0.6-0.6-0.9-1.5-0.9-2.5V122.8z M72.3,123c0,0.8,0.2,1.5,0.6,2c0.4,0.5,1,0.8,1.7,0.8c0.7,0,1.2-0.3,1.7-0.8
		c0.4-0.5,0.6-1.2,0.6-2.1v-0.1c0-0.5-0.1-1-0.3-1.4s-0.5-0.8-0.8-1S75,120,74.6,120c-0.7,0-1.2,0.3-1.7,0.8s-0.6,1.2-0.6,2.1V123z"
		/>
	<path class="st1" d="M79.9,119.5l0,1.2c0.3-0.4,0.6-0.7,1-1c0.4-0.2,0.8-0.3,1.3-0.3c0.7,0,1.3,0.2,1.6,0.6s0.5,1,0.5,1.9v4.5h-0.8
		v-4.5c0-0.6-0.1-1.1-0.4-1.4c-0.3-0.3-0.7-0.5-1.2-0.5c-0.5,0-0.9,0.1-1.2,0.4c-0.4,0.3-0.6,0.7-0.8,1.2v4.7h-0.8v-6.9H79.9z"/>
	<path class="st1" d="M90.5,125.7H95v0.7h-5.4v-9.2h0.8V125.7z"/>
	<path class="st1" d="M101.7,123.8h-4.2l-1,2.6h-0.8l3.5-9.2h0.7l3.5,9.2h-0.8L101.7,123.8z M97.7,123.1h3.7l-1.9-5L97.7,123.1z"/>
	<path class="st1" d="M111.7,126.4h-0.8l-5.3-7.9v7.9h-0.8v-9.2h0.8l5.3,7.9v-7.9h0.8V126.4z"/>
	<path class="st1" d="M113.7,127.1H113l3.9-10h0.7L113.7,127.1z"/>
	<path class="st1" d="M125.1,125.2l0.1,0.2l0.1-0.2l2.9-8.1h0.9l-3.4,9.2h-0.7l-3.4-9.2h0.9L125.1,125.2z"/>
	<path class="st1" d="M131.1,125.7h4.6v0.7h-5.4v-9.2h0.8V125.7z"/>
	<path class="st1" d="M142.3,123.8h-4.2l-1,2.6h-0.8l3.5-9.2h0.7l3.5,9.2h-0.8L142.3,123.8z M138.4,123.1h3.7l-1.9-5L138.4,123.1z"
		/>
	<path class="st1" d="M152.3,126.4h-0.8l-5.3-7.9v7.9h-0.8v-9.2h0.8l5.3,7.9v-7.9h0.8V126.4z"/>
</g>
<g>
	<rect x="27.6" y="341.3" class="st6" width="72.1" height="24.2"/>
</g>
<g class="st7">
	<path class="st1" d="M39.6,349l2.3-7.2h1.8l-3.3,9.2h-1.6l-3.3-9.2h1.8L39.6,349z"/>
	<path class="st1" d="M48.4,351.1c-0.1-0.1-0.1-0.3-0.2-0.6c-0.5,0.5-1.1,0.8-1.8,0.8c-0.7,0-1.3-0.2-1.7-0.6
		c-0.4-0.4-0.7-0.9-0.7-1.5c0-0.7,0.3-1.3,0.8-1.7c0.5-0.4,1.3-0.6,2.3-0.6h0.9v-0.5c0-0.4-0.1-0.6-0.3-0.9s-0.5-0.3-0.9-0.3
		c-0.4,0-0.6,0.1-0.9,0.3s-0.3,0.4-0.3,0.7h-1.5c0-0.4,0.1-0.7,0.4-1.1s0.6-0.6,1-0.8c0.4-0.2,0.9-0.3,1.4-0.3
		c0.8,0,1.4,0.2,1.9,0.6s0.7,1,0.7,1.7v3.1c0,0.6,0.1,1.1,0.3,1.5v0.1H48.4z M46.7,349.9c0.3,0,0.6-0.1,0.9-0.2
		c0.3-0.1,0.5-0.3,0.6-0.6v-1.3h-0.8c-0.6,0-1,0.1-1.3,0.3c-0.3,0.2-0.4,0.5-0.4,0.8c0,0.3,0.1,0.5,0.3,0.7
		C46.1,349.9,46.4,349.9,46.7,349.9z"/>
	<path class="st1" d="M52.8,344.2l0,0.7c0.5-0.6,1.1-0.8,2-0.8c0.9,0,1.5,0.4,1.9,1.1c0.5-0.7,1.2-1.1,2.1-1.1
		c0.8,0,1.3,0.2,1.7,0.6c0.4,0.4,0.6,1,0.6,1.9v4.5h-1.5v-4.5c0-0.4-0.1-0.8-0.3-1s-0.5-0.3-0.9-0.3c-0.4,0-0.6,0.1-0.9,0.3
		c-0.2,0.2-0.4,0.4-0.5,0.7l0,4.7h-1.5v-4.5c0-0.8-0.4-1.2-1.2-1.2c-0.6,0-1.1,0.3-1.3,0.8v5h-1.5v-6.9H52.8z"/>
	<path class="st1" d="M68.6,347.7c0,1.1-0.2,1.9-0.7,2.5s-1.1,0.9-1.9,0.9c-0.8,0-1.4-0.2-1.8-0.7v3.3h-1.5v-9.5H64l0.1,0.7
		c0.5-0.5,1.1-0.8,1.8-0.8c0.8,0,1.5,0.3,2,0.9C68.4,345.6,68.6,346.5,68.6,347.7L68.6,347.7z M67.1,347.6c0-0.7-0.1-1.2-0.4-1.6
		c-0.3-0.4-0.7-0.6-1.2-0.6c-0.6,0-1.1,0.3-1.4,0.8v3c0.3,0.5,0.7,0.8,1.4,0.8c0.5,0,0.9-0.2,1.2-0.6C67,349,67.1,348.4,67.1,347.6z
		"/>
	<path class="st1" d="M80.4,348c-0.1,1-0.5,1.8-1.1,2.3c-0.6,0.6-1.5,0.8-2.5,0.8c-0.7,0-1.4-0.2-1.9-0.5c-0.6-0.3-1-0.8-1.3-1.5
		c-0.3-0.6-0.5-1.4-0.5-2.2v-0.9c0-0.9,0.2-1.6,0.5-2.3c0.3-0.7,0.8-1.2,1.3-1.5c0.6-0.4,1.2-0.5,2-0.5c1,0,1.8,0.3,2.5,0.8
		c0.6,0.6,1,1.3,1.1,2.3h-1.6c-0.1-0.7-0.3-1.1-0.6-1.4c-0.3-0.3-0.8-0.4-1.4-0.4c-0.7,0-1.2,0.3-1.6,0.8c-0.4,0.5-0.6,1.3-0.6,2.2
		v0.8c0,1,0.2,1.8,0.5,2.3c0.4,0.5,0.9,0.8,1.6,0.8c0.6,0,1.1-0.1,1.4-0.4c0.3-0.3,0.5-0.8,0.6-1.4H80.4z"/>
	<path class="st1" d="M83.4,349.8h4.2v1.3h-5.8v-9.2h1.6V349.8z"/>
	<path class="st1" d="M90.5,351.1h-1.6v-9.2h1.6V351.1z"/>
</g>
<g>
	<path class="st3" d="M181.5,237.3c-19.9,0-36-9.2-36-20.5v-40c0-11.3,16.1-20.5,36-20.5s36,9.2,36,20.5v40
		C217.5,228.1,201.4,237.3,181.5,237.3z M181.5,157.3c-19,0-35,8.9-35,19.5v40c0,10.6,16,19.5,35,19.5s35-8.9,35-19.5v-40
		C216.5,166.2,200.5,157.3,181.5,157.3z"/>
</g>
<g>
	<path class="st1" d="M259.4,345.5h-110c-2.8,0-5-2.2-5-5v-50c0-2.8,2.2-5,5-5h110c2.8,0,5,2.2,5,5v50
		C264.4,343.3,262.2,345.5,259.4,345.5z"/>
</g>
<g>
	<path class="st2" d="M504.7,347.1h-30c-2.8,0-5-2.2-5-5v-30c0-2.8,2.2-5,5-5h30c2.8,0,5,2.2,5,5v30
		C509.7,344.9,507.5,347.1,504.7,347.1z"/>
	<path class="st1" d="M504.7,347.6h-30c-3.1,0-5.5-2.4-5.5-5.5v-30c0-3.1,2.4-5.5,5.5-5.5h30c3.1,0,5.5,2.4,5.5,5.5v30
		C510.2,345.2,507.8,347.6,504.7,347.6z M474.7,307.6c-2.5,0-4.5,2-4.5,4.5v30c0,2.5,2,4.5,4.5,4.5h30c2.5,0,4.5-2,4.5-4.5v-30
		c0-2.5-2-4.5-4.5-4.5H474.7z"/>
</g>
<g>
	<path class="st2" d="M499.7,342.1h-30c-2.8,0-5-2.2-5-5v-30c0-2.8,2.2-5,5-5h30c2.8,0,5,2.2,5,5v30
		C504.7,339.9,502.5,342.1,499.7,342.1z"/>
	<path class="st1" d="M499.7,342.6h-30c-3.1,0-5.5-2.4-5.5-5.5v-30c0-3.1,2.4-5.5,5.5-5.5h30c3.1,0,5.5,2.4,5.5,5.5v30
		C505.2,340.2,502.8,342.6,499.7,342.6z M469.7,302.6c-2.5,0-4.5,2-4.5,4.5v30c0,2.5,2,4.5,4.5,4.5h30c2.5,0,4.5-2,4.5-4.5v-30
		c0-2.5-2-4.5-4.5-4.5H469.7z"/>
</g>
<g>
	<path class="st2" d="M494.7,337.1h-30c-2.8,0-5-2.2-5-5v-30c0-2.8,2.2-5,5-5h30c2.8,0,5,2.2,5,5v30
		C499.7,334.9,497.5,337.1,494.7,337.1z"/>
	<path class="st1" d="M494.7,337.6h-30c-3.1,0-5.5-2.4-5.5-5.5v-30c0-3.1,2.4-5.5,5.5-5.5h30c3.1,0,5.5,2.4,5.5,5.5v30
		C500.2,335.2,497.8,337.6,494.7,337.6z M464.7,297.6c-2.5,0-4.5,2-4.5,4.5v30c0,2.5,2,4.5,4.5,4.5h30c2.5,0,4.5-2,4.5-4.5v-30
		c0-2.5-2-4.5-4.5-4.5H464.7z"/>
</g>
<g>
	<path class="st2" d="M564.7,347.1h-30c-2.8,0-5-2.2-5-5v-30c0-2.8,2.2-5,5-5h30c2.8,0,5,2.2,5,5v30
		C569.7,344.9,567.5,347.1,564.7,347.1z"/>
	<path class="st1" d="M564.7,347.6h-30c-3.1,0-5.5-2.4-5.5-5.5v-30c0-3.1,2.4-5.5,5.5-5.5h30c3.1,0,5.5,2.4,5.5,5.5v30
		C570.2,345.2,567.8,347.6,564.7,347.6z M534.7,307.6c-2.5,0-4.5,2-4.5,4.5v30c0,2.5,2,4.5,4.5,4.5h30c2.5,0,4.5-2,4.5-4.5v-30
		c0-2.5-2-4.5-4.5-4.5H534.7z"/>
</g>
<g>
	<path class="st2" d="M559.7,342.1h-30c-2.8,0-5-2.2-5-5v-30c0-2.8,2.2-5,5-5h30c2.8,0,5,2.2,5,5v30
		C564.7,339.9,562.5,342.1,559.7,342.1z"/>
	<path class="st1" d="M559.7,342.6h-30c-3.1,0-5.5-2.4-5.5-5.5v-30c0-3.1,2.4-5.5,5.5-5.5h30c3.1,0,5.5,2.4,5.5,5.5v30
		C565.2,340.2,562.8,342.6,559.7,342.6z M529.7,302.6c-2.5,0-4.5,2-4.5,4.5v30c0,2.5,2,4.5,4.5,4.5h30c2.5,0,4.5-2,4.5-4.5v-30
		c0-2.5-2-4.5-4.5-4.5H529.7z"/>
</g>
<g>
	<path class="st2" d="M554.7,337.1h-30c-2.8,0-5-2.2-5-5v-30c0-2.8,2.2-5,5-5h30c2.8,0,5,2.2,5,5v30
		C559.7,334.9,557.5,337.1,554.7,337.1z"/>
	<path class="st1" d="M554.7,337.6h-30c-3.1,0-5.5-2.4-5.5-5.5v-30c0-3.1,2.4-5.5,5.5-5.5h30c3.1,0,5.5,2.4,5.5,5.5v30
		C560.2,335.2,557.8,337.6,554.7,337.6z M524.7,297.6c-2.5,0-4.5,2-4.5,4.5v30c0,2.5,2,4.5,4.5,4.5h30c2.5,0,4.5-2,4.5-4.5v-30
		c0-2.5-2-4.5-4.5-4.5H524.7z"/>
</g>
<g>
	<g>
		<g>
			<path class="st2" d="M194.6,313.6h2.1l2.8,7.2l2.7-7.2h1.9l-3.7,9.4h-2L194.6,313.6z"/>
		</g>
		<g>
			<path class="st2" d="M217.3,313.6h1.7v1.5l0,0c0-0.1,0.1-0.3,0.3-0.5s0.4-0.4,0.6-0.6c0.3-0.2,0.6-0.3,0.9-0.5
				c0.4-0.1,0.7-0.2,1.2-0.2c0.7,0,1.3,0.1,1.8,0.4s0.9,0.7,1.2,1.3c0.3-0.6,0.7-1,1.3-1.3s1.1-0.4,1.7-0.4c0.7,0,1.3,0.1,1.8,0.4
				c0.5,0.2,0.8,0.6,1.1,0.9c0.3,0.4,0.4,0.8,0.5,1.3s0.1,1,0.1,1.5v5.5h-1.8v-5.3c0-0.4,0-0.7-0.1-1c0-0.3-0.1-0.6-0.3-0.9
				c-0.1-0.3-0.4-0.5-0.6-0.6c-0.3-0.2-0.6-0.2-1.1-0.2c-0.9,0-1.5,0.3-1.9,0.8s-0.6,1.2-0.6,2.1v5.2h-1.8v-4.9c0-0.5,0-0.9-0.1-1.2
				c0-0.4-0.1-0.7-0.3-1c-0.1-0.3-0.3-0.5-0.6-0.6c-0.3-0.2-0.6-0.2-1-0.2c-0.3,0-0.6,0.1-0.9,0.2c-0.3,0.1-0.6,0.3-0.8,0.6
				c-0.2,0.3-0.4,0.6-0.5,1s-0.2,0.9-0.2,1.4v4.9h-1.8v-9.6H217.3z"/>
		</g>
		<g>
			<path class="st2" d="M233.9,313.6h1.8v1.4l0,0c0.3-0.5,0.8-0.9,1.4-1.2c0.6-0.3,1.2-0.4,1.9-0.4s1.4,0.1,2,0.4s1.1,0.6,1.5,1.1
				s0.7,1,1,1.6c0.2,0.6,0.3,1.3,0.3,1.9c0,0.7-0.1,1.4-0.3,2s-0.5,1.1-1,1.6c-0.4,0.4-0.9,0.8-1.5,1c-0.6,0.3-1.3,0.4-2,0.4
				s-1.3-0.1-1.9-0.4s-1.1-0.7-1.4-1.2l0,0v3.8h-1.8V313.6z M238.8,315c-0.5,0-0.9,0.1-1.3,0.2c-0.4,0.2-0.7,0.4-1,0.7
				c-0.3,0.3-0.5,0.6-0.6,1s-0.2,0.8-0.2,1.3s0.1,0.9,0.2,1.3c0.1,0.4,0.4,0.8,0.6,1c0.3,0.3,0.6,0.5,1,0.7s0.8,0.2,1.3,0.2
				s0.9-0.1,1.3-0.2c0.4-0.2,0.7-0.4,1-0.7c0.3-0.3,0.5-0.6,0.6-1s0.2-0.8,0.2-1.3s-0.1-0.9-0.2-1.3c-0.1-0.4-0.4-0.8-0.6-1
				c-0.3-0.3-0.6-0.5-1-0.7C239.7,315.1,239.2,315,238.8,315z"/>
		</g>
		<g>
			<path class="st2" d="M209.6,323.3c1.4,0,2.7-0.6,3.5-1.6v1.3h1.6v-9.6h-1.6v1.4c-0.8-1-2.2-1.6-3.5-1.6c-2.6,0-4.7,2.2-4.7,5
				C204.9,321.1,207,323.3,209.6,323.3z M209.9,315c1.7,0,3.1,1.5,3.1,3.3s-1.4,3.3-3.1,3.3c-2,0-3.1-1.5-3.1-3.3
				C206.8,316.5,208,315,209.9,315z"/>
		</g>
	</g>
	<g>
		<path class="st4" d="M186.7,306.9c-0.5-0.9-1.5-1.4-2.9-1.4h-5.4h-10.2c-1.4,0-2.4,0.5-2.9,1.4s-0.4,2,0.2,3.2l7.8,13.5
			c0.7,1.2,1.6,1.8,2.7,1.8c1,0,2-0.6,2.7-1.8l7.8-13.5C187.2,308.9,187.2,307.8,186.7,306.9z M166.6,307.6c0.3-0.4,0.9-0.7,1.7-0.7
			h10.2c0.8,0,1.5,0.3,1.7,0.7c0.3,0.4,0.2,1.1-0.2,1.8l-0.4,0.8c-0.2-0.1-0.5-0.2-0.8-0.2H171c-1.3,0-2.4,0.5-2.9,1.4l-1.1-2
			C166.4,308.7,166.3,308,166.6,307.6z M176.1,316.1L176,316l-1.9-3.3l-0.7-1.2c0-0.1-0.1-0.1-0.1-0.1s0.1,0,0.2,0h5.2
			c0.1,0,0.1,0,0.2,0l0,0l-2.6,4.6C176.1,316.1,176.1,316.1,176.1,316.1z M177.5,322.9c-0.4,0.7-0.9,1.1-1.5,1.1
			c-0.5,0-1.1-0.4-1.5-1.1l-5.4-9.3c-0.2-0.6-0.3-1.1-0.1-1.5c0.3-0.4,0.9-0.7,1.7-0.7h1.1c0,0.3,0.1,0.6,0.3,0.9l3.9,6.8
			c0.7,1.2,1.6,1.8,2.7,1.8l0,0L177.5,322.9z M185.3,309.4l-5.3,9.1c-0.4,0.6-0.8,0.9-1.3,0.9s-1.1-0.4-1.5-1.1l-0.5-0.9
			c0.2-0.1,0.5-0.4,0.6-0.6l3.8-6.6c0.7-1.2,0.8-2.3,0.2-3.2l0,0h2.5c0.8,0,1.5,0.3,1.7,0.7C185.8,308,185.7,308.7,185.3,309.4z"/>
	</g>
</g>
<g>
	<path class="st1" d="M615.5,226.2h-211c-2.8,0-5-2.2-5-5v-50c0-2.8,2.2-5,5-5h211c2.8,0,5,2.2,5,5v50
		C620.5,224,618.3,226.2,615.5,226.2z"/>
</g>
<g>
	<g>
		<path class="st4" d="M435.3,187.6c-0.5-0.9-1.6-1.4-2.9-1.4H427h-10.2c-1.4,0-2.4,0.5-2.9,1.4s-0.4,2,0.2,3.2l7.8,13.5
			c0.7,1.2,1.6,1.8,2.7,1.8c1,0,2-0.6,2.7-1.8l7.8-13.5C435.8,189.6,435.8,188.5,435.3,187.6z M415,188.3c0.3-0.5,0.9-0.7,1.7-0.7
			H427c0.8,0,1.5,0.3,1.7,0.7c0.3,0.5,0.2,1.1-0.2,1.8l-0.4,0.8c-0.2-0.1-0.5-0.2-0.9-0.2h-7.8c-1.4,0-2.4,0.5-2.9,1.4l-1.1-2
			C414.9,189.4,414.8,188.7,415,188.3z M424.6,196.9l-0.1-0.1l-1.9-3.3l-0.7-1.2c0-0.1-0.1-0.1-0.1-0.1s0.1,0,0.2,0h5.2
			c0.1,0,0.1,0,0.2,0l0,0l-2.7,4.6C424.6,196.8,424.6,196.9,424.6,196.9z M426.1,203.7c-0.4,0.7-1,1.1-1.5,1.1s-1.1-0.4-1.5-1.1
			l-5.4-9.4c-0.2-0.6-0.3-1.1-0.1-1.5c0.3-0.5,0.9-0.7,1.7-0.7h1.1c0,0.3,0.1,0.6,0.3,0.9l3.9,6.8c0.7,1.2,1.6,1.8,2.7,1.8l0,0
			L426.1,203.7z M433.9,190.1l-5.3,9.2c-0.4,0.6-0.9,0.9-1.3,0.9c-0.5,0-1.1-0.4-1.5-1.1l-0.5-0.9c0.2-0.1,0.5-0.4,0.6-0.7l3.8-6.6
			c0.7-1.2,0.8-2.3,0.2-3.2l0,0h2.5c0.8,0,1.5,0.3,1.7,0.7C434.4,188.7,434.3,189.4,433.9,190.1z"/>
	</g>
</g>
<g>
	<rect x="499.4" y="192.1" class="st6" width="121.1" height="21.4"/>
</g>
<g class="st7">
	<path class="st2" d="M500,199.3c0-1.2,0.3-2.2,0.9-2.9c0.6-0.7,1.3-1.1,2.3-1.1c0.9,0,1.6,0.3,2.1,0.9l0.1-0.8h1.6v7.7
		c0,1-0.3,1.9-1,2.5c-0.6,0.6-1.5,0.9-2.6,0.9c-0.6,0-1.1-0.1-1.7-0.4c-0.6-0.2-1-0.6-1.3-0.9l0.8-1.1c0.5,0.6,1.2,1,2,1
		c0.6,0,1.1-0.2,1.4-0.5c0.3-0.3,0.5-0.8,0.5-1.4v-0.5c-0.5,0.6-1.2,0.9-2.1,0.9c-0.9,0-1.7-0.4-2.3-1.1
		C500.3,201.7,500,200.6,500,199.3z M501.7,199.5c0,0.8,0.2,1.4,0.5,1.9c0.3,0.5,0.8,0.7,1.4,0.7c0.7,0,1.2-0.3,1.6-0.9v-3.5
		c-0.3-0.6-0.9-0.9-1.6-0.9c-0.6,0-1,0.2-1.4,0.7C501.9,197.9,501.7,198.6,501.7,199.5z"/>
	<path class="st2" d="M513.5,203.4c-0.1-0.2-0.1-0.4-0.2-0.7c-0.6,0.6-1.3,0.9-2.1,0.9c-0.8,0-1.4-0.2-1.9-0.7
		c-0.5-0.5-0.8-1-0.8-1.7c0-0.8,0.3-1.5,0.9-1.9c0.6-0.5,1.5-0.7,2.7-0.7h1.1V198c0-0.4-0.1-0.7-0.3-1c-0.2-0.2-0.6-0.4-1-0.4
		c-0.4,0-0.7,0.1-1,0.3c-0.3,0.2-0.4,0.5-0.4,0.8h-1.8c0-0.4,0.1-0.8,0.4-1.2c0.3-0.4,0.7-0.7,1.2-0.9c0.5-0.2,1-0.3,1.7-0.3
		c0.9,0,1.7,0.2,2.2,0.7c0.6,0.5,0.8,1.1,0.8,2v3.6c0,0.7,0.1,1.3,0.3,1.7v0.1H513.5z M511.6,202.1c0.4,0,0.7-0.1,1-0.3
		c0.3-0.2,0.5-0.4,0.7-0.7v-1.5h-1c-0.7,0-1.2,0.1-1.5,0.3c-0.3,0.2-0.5,0.6-0.5,1c0,0.3,0.1,0.6,0.3,0.8
		C510.9,202,511.2,202.1,511.6,202.1z"/>
	<path class="st2" d="M519.1,193.5v1.9h1.4v1.3h-1.4v4.4c0,0.3,0.1,0.5,0.2,0.7c0.1,0.1,0.3,0.2,0.6,0.2c0.2,0,0.4,0,0.6-0.1v1.4
		c-0.4,0.1-0.8,0.2-1.2,0.2c-1.4,0-2.1-0.8-2.1-2.3v-4.5h-1.3v-1.3h1.3v-1.9H519.1z"/>
	<path class="st2" d="M525.4,203.5c-1.1,0-2-0.4-2.7-1.1c-0.7-0.7-1.1-1.7-1.1-2.8v-0.2c0-0.8,0.2-1.5,0.5-2.1
		c0.3-0.6,0.7-1.1,1.3-1.5s1.2-0.5,1.8-0.5c1.1,0,1.9,0.3,2.5,1c0.6,0.7,0.9,1.7,0.9,2.9v0.7h-5.2c0.1,0.7,0.3,1.2,0.7,1.6
		c0.4,0.4,0.9,0.6,1.4,0.6c0.8,0,1.5-0.3,2-1l1,0.9c-0.3,0.5-0.7,0.8-1.3,1.1C526.6,203.4,526,203.5,525.4,203.5z M525.2,196.7
		c-0.5,0-0.9,0.2-1.2,0.5c-0.3,0.3-0.5,0.8-0.6,1.4h3.4v-0.1c0-0.6-0.2-1-0.5-1.4C526,196.9,525.7,196.7,525.2,196.7z"/>
	<path class="st2" d="M536.9,200.9l1.3-5.5h1.7l-2.2,7.9h-1.5l-1.7-5.4l-1.7,5.4h-1.5l-2.2-7.9h1.7l1.3,5.4l1.6-5.4h1.3L536.9,200.9
		z"/>
	<path class="st2" d="M545.8,203.4c-0.1-0.2-0.1-0.4-0.2-0.7c-0.6,0.6-1.3,0.9-2.1,0.9c-0.8,0-1.4-0.2-1.9-0.7
		c-0.5-0.5-0.8-1-0.8-1.7c0-0.8,0.3-1.5,0.9-1.9c0.6-0.5,1.5-0.7,2.7-0.7h1.1V198c0-0.4-0.1-0.7-0.3-1c-0.2-0.2-0.6-0.4-1-0.4
		c-0.4,0-0.7,0.1-1,0.3c-0.3,0.2-0.4,0.5-0.4,0.8H541c0-0.4,0.1-0.8,0.4-1.2c0.3-0.4,0.7-0.7,1.2-0.9c0.5-0.2,1-0.3,1.7-0.3
		c0.9,0,1.7,0.2,2.2,0.7c0.6,0.5,0.8,1.1,0.8,2v3.6c0,0.7,0.1,1.3,0.3,1.7v0.1H545.8z M543.9,202.1c0.4,0,0.7-0.1,1-0.3
		c0.3-0.2,0.5-0.4,0.7-0.7v-1.5h-1c-0.7,0-1.2,0.1-1.5,0.3c-0.3,0.2-0.5,0.6-0.5,1c0,0.3,0.1,0.6,0.3,0.8
		C543.2,202,543.5,202.1,543.9,202.1z"/>
	<path class="st2" d="M551.9,200.8l1.6-5.4h1.9l-3.1,9.1c-0.5,1.3-1.3,2-2.5,2c-0.3,0-0.5,0-0.9-0.1V205l0.3,0c0.4,0,0.8-0.1,1-0.2
		c0.2-0.2,0.4-0.4,0.5-0.8l0.3-0.7l-2.8-7.9h1.9L551.9,200.8z"/>
	<path class="st2" d="M564.9,203.4c-0.1-0.2-0.1-0.4-0.2-0.7c-0.6,0.6-1.3,0.9-2.1,0.9c-0.8,0-1.4-0.2-1.9-0.7
		c-0.5-0.5-0.8-1-0.8-1.7c0-0.8,0.3-1.5,0.9-1.9c0.6-0.5,1.5-0.7,2.7-0.7h1.1V198c0-0.4-0.1-0.7-0.3-1c-0.2-0.2-0.6-0.4-1-0.4
		c-0.4,0-0.7,0.1-1,0.3c-0.3,0.2-0.4,0.5-0.4,0.8H560c0-0.4,0.1-0.8,0.4-1.2c0.3-0.4,0.7-0.7,1.2-0.9c0.5-0.2,1-0.3,1.7-0.3
		c0.9,0,1.7,0.2,2.2,0.7c0.6,0.5,0.8,1.1,0.8,2v3.6c0,0.7,0.1,1.3,0.3,1.7v0.1H564.9z M562.9,202.1c0.4,0,0.7-0.1,1-0.3
		c0.3-0.2,0.5-0.4,0.7-0.7v-1.5h-1c-0.7,0-1.2,0.1-1.5,0.3c-0.3,0.2-0.5,0.6-0.5,1c0,0.3,0.1,0.6,0.3,0.8
		C562.2,202,562.5,202.1,562.9,202.1z"/>
	<path class="st2" d="M567.9,199.3c0-1.2,0.3-2.2,0.9-2.9c0.6-0.7,1.3-1.1,2.3-1.1c0.9,0,1.6,0.3,2.1,0.9l0.1-0.8h1.6v7.7
		c0,1-0.3,1.9-1,2.5c-0.6,0.6-1.5,0.9-2.6,0.9c-0.6,0-1.1-0.1-1.7-0.4c-0.6-0.2-1-0.6-1.3-0.9l0.8-1.1c0.5,0.6,1.2,1,2,1
		c0.6,0,1.1-0.2,1.4-0.5c0.3-0.3,0.5-0.8,0.5-1.4v-0.5c-0.5,0.6-1.2,0.9-2.1,0.9c-0.9,0-1.7-0.4-2.3-1.1
		C568.2,201.7,567.9,200.6,567.9,199.3z M569.7,199.5c0,0.8,0.2,1.4,0.5,1.9c0.3,0.5,0.8,0.7,1.4,0.7c0.7,0,1.2-0.3,1.6-0.9v-3.5
		c-0.3-0.6-0.9-0.9-1.6-0.9c-0.6,0-1,0.2-1.4,0.7C569.9,197.9,569.7,198.6,569.7,199.5z"/>
	<path class="st2" d="M580.2,203.5c-1.1,0-2-0.4-2.7-1.1c-0.7-0.7-1.1-1.7-1.1-2.8v-0.2c0-0.8,0.2-1.5,0.5-2.1
		c0.3-0.6,0.7-1.1,1.3-1.5s1.2-0.5,1.8-0.5c1.1,0,1.9,0.3,2.5,1c0.6,0.7,0.9,1.7,0.9,2.9v0.7h-5.2c0.1,0.7,0.3,1.2,0.7,1.6
		c0.4,0.4,0.9,0.6,1.4,0.6c0.8,0,1.5-0.3,2-1l1,0.9c-0.3,0.5-0.7,0.8-1.3,1.1C581.5,203.4,580.9,203.5,580.2,203.5z M580,196.7
		c-0.5,0-0.9,0.2-1.2,0.5c-0.3,0.3-0.5,0.8-0.6,1.4h3.4v-0.1c0-0.6-0.2-1-0.5-1.4C580.9,196.9,580.5,196.7,580,196.7z"/>
	<path class="st2" d="M586.5,195.4l0.1,0.9c0.6-0.7,1.4-1.1,2.3-1.1c1.7,0,2.5,0.9,2.5,2.8v5.2h-1.8v-5.1c0-0.5-0.1-0.9-0.3-1.1
		c-0.2-0.2-0.6-0.4-1.1-0.4c-0.7,0-1.3,0.3-1.6,1v5.6h-1.8v-7.9H586.5z"/>
	<path class="st2" d="M595.4,193.5v1.9h1.4v1.3h-1.4v4.4c0,0.3,0.1,0.5,0.2,0.7c0.1,0.1,0.3,0.2,0.6,0.2c0.2,0,0.4,0,0.6-0.1v1.4
		c-0.4,0.1-0.8,0.2-1.2,0.2c-1.4,0-2.1-0.8-2.1-2.3v-4.5h-1.3v-1.3h1.3v-1.9H595.4z"/>
</g>
<g>
	<g>
		<g>
			<path class="st2" d="M443.1,194.3h2.1l2.8,7.2l2.7-7.2h1.9l-3.7,9.4h-2L443.1,194.3z"/>
		</g>
		<g>
			<path class="st2" d="M465.7,194.3h1.7v1.5l0,0c0-0.1,0.1-0.3,0.3-0.5c0.2-0.2,0.4-0.4,0.6-0.6c0.3-0.2,0.6-0.3,0.9-0.5
				c0.4-0.1,0.7-0.2,1.2-0.2c0.7,0,1.3,0.1,1.8,0.4c0.5,0.3,0.9,0.7,1.2,1.3c0.3-0.6,0.7-1,1.3-1.3c0.6-0.3,1.1-0.4,1.7-0.4
				c0.7,0,1.3,0.1,1.8,0.4c0.5,0.2,0.8,0.6,1.1,0.9c0.3,0.4,0.4,0.8,0.5,1.3s0.1,1,0.1,1.5v5.5h-1.8v-5.3c0-0.4,0-0.7-0.1-1
				c0-0.3-0.1-0.6-0.3-0.9c-0.1-0.3-0.4-0.5-0.6-0.6c-0.3-0.2-0.6-0.2-1.1-0.2c-0.9,0-1.5,0.3-1.9,0.8s-0.6,1.2-0.6,2.1v5.2H472
				v-4.9c0-0.5,0-0.9-0.1-1.2c0-0.4-0.1-0.7-0.3-1c-0.1-0.3-0.3-0.5-0.6-0.6c-0.3-0.2-0.6-0.2-1-0.2c-0.3,0-0.6,0.1-0.9,0.2
				c-0.3,0.1-0.6,0.3-0.8,0.6c-0.2,0.3-0.4,0.6-0.5,1s-0.2,0.9-0.2,1.4v4.9h-1.8v-9.6H465.7z"/>
		</g>
		<g>
			<path class="st2" d="M482.3,194.3h1.8v1.4l0,0c0.3-0.5,0.8-0.9,1.4-1.2s1.2-0.4,1.9-0.4c0.7,0,1.4,0.1,2,0.4
				c0.6,0.3,1.1,0.6,1.5,1.1s0.7,1,1,1.6c0.2,0.6,0.3,1.3,0.3,1.9c0,0.7-0.1,1.4-0.3,2c-0.2,0.6-0.5,1.1-1,1.6
				c-0.4,0.4-0.9,0.8-1.5,1c-0.6,0.3-1.3,0.4-2,0.4s-1.3-0.1-1.9-0.4s-1.1-0.7-1.4-1.2l0,0v3.8h-1.8V194.3z M487.2,195.7
				c-0.5,0-0.9,0.1-1.3,0.2c-0.4,0.2-0.7,0.4-1,0.7s-0.5,0.6-0.6,1s-0.2,0.8-0.2,1.3s0.1,0.9,0.2,1.3c0.1,0.4,0.4,0.8,0.6,1
				c0.3,0.3,0.6,0.5,1,0.7s0.8,0.2,1.3,0.2s0.9-0.1,1.3-0.2c0.4-0.2,0.7-0.4,1-0.7s0.5-0.6,0.6-1s0.2-0.8,0.2-1.3s-0.1-0.9-0.2-1.3
				c-0.1-0.4-0.4-0.8-0.6-1c-0.3-0.3-0.6-0.5-1-0.7C488.1,195.8,487.7,195.7,487.2,195.7z"/>
		</g>
		<g>
			<path class="st2" d="M458.1,204c1.4,0,2.7-0.6,3.5-1.6v1.3h1.6v-9.6h-1.6v1.4c-0.8-1-2.2-1.6-3.5-1.6c-2.6,0-4.7,2.2-4.7,5
				S455.5,204,458.1,204z M458.4,195.7c1.7,0,3.1,1.5,3.1,3.3s-1.4,3.3-3.1,3.3c-2,0-3.1-1.5-3.1-3.3
				C455.2,197.2,456.5,195.7,458.4,195.7z"/>
		</g>
	</g>
	<g>
		<path class="st4" d="M435.2,187.6c-0.5-0.9-1.5-1.4-2.9-1.4h-5.4h-10.2c-1.4,0-2.4,0.5-2.9,1.4s-0.4,2,0.2,3.2l7.8,13.5
			c0.7,1.2,1.6,1.8,2.7,1.8c1,0,2-0.6,2.7-1.8l7.8-13.5C435.6,189.6,435.7,188.5,435.2,187.6z M415,188.3c0.3-0.4,0.9-0.7,1.7-0.7
			h10.2c0.8,0,1.5,0.3,1.7,0.7c0.3,0.4,0.2,1.1-0.2,1.8l-0.4,0.8c-0.2-0.1-0.5-0.2-0.8-0.2h-7.8c-1.3,0-2.4,0.5-2.9,1.4l-1.1-2
			C414.9,189.4,414.8,188.7,415,188.3z M424.5,196.8l-0.1-0.1l-1.9-3.3l-0.7-1.2c0-0.1-0.1-0.1-0.1-0.1s0.1,0,0.2,0h5.2
			c0.1,0,0.1,0,0.2,0l0,0l-2.6,4.6C424.6,196.8,424.5,196.8,424.5,196.8z M426,203.6c-0.4,0.7-0.9,1.1-1.5,1.1
			c-0.5,0-1.1-0.4-1.5-1.1l-5.4-9.3c-0.2-0.6-0.3-1.1-0.1-1.5c0.3-0.4,0.9-0.7,1.7-0.7h1.1c0,0.3,0.1,0.6,0.3,0.9l3.9,6.8
			c0.7,1.2,1.6,1.8,2.7,1.8l0,0L426,203.6z M433.8,190.1l-5.3,9.1c-0.4,0.6-0.8,0.9-1.3,0.9s-1.1-0.4-1.5-1.1l-0.5-0.9
			c0.2-0.1,0.5-0.4,0.6-0.6l3.8-6.6c0.7-1.2,0.8-2.3,0.2-3.2l0,0h2.5c0.8,0,1.5,0.3,1.7,0.7C434.3,188.7,434.2,189.4,433.8,190.1z"
			/>
	</g>
</g>
<g>
	<path class="st8" d="M722.2,216.2h-70c-2.8,0-5-2.2-5-5v-30c0-2.8,2.2-5,5-5h70c2.8,0,5,2.2,5,5v30
		C727.2,214,725,216.2,722.2,216.2z"/>
</g>
<g>
	<rect x="627.4" y="190.1" class="st6" width="121.1" height="21.4"/>
</g>
<g class="st7">
	<path class="st2" d="M671.2,199.9h-1.6v-4.1h-4.1v4.1h-1.6v-9.2h1.6v3.8h4.1v-3.8h1.6V199.9z"/>
	<path class="st2" d="M678.4,197.7h-3.6l-0.7,2.2h-1.7l3.5-9.2h1.4l3.5,9.2h-1.7L678.4,197.7z M675.2,196.4h2.7l-1.3-3.8
		L675.2,196.4z"/>
	<path class="st2" d="M687.4,196.5c0,1.1-0.2,1.9-0.7,2.5s-1.1,0.9-1.9,0.9c-0.8,0-1.4-0.2-1.8-0.7v3.3h-1.5V193h1.4l0.1,0.7
		c0.5-0.5,1.1-0.8,1.8-0.8c0.8,0,1.5,0.3,2,0.9C687.2,194.4,687.4,195.3,687.4,196.5L687.4,196.5z M685.9,196.4
		c0-0.7-0.1-1.2-0.4-1.6c-0.3-0.4-0.7-0.6-1.2-0.6c-0.6,0-1.1,0.3-1.4,0.8v3c0.3,0.5,0.7,0.8,1.4,0.8c0.5,0,0.9-0.2,1.2-0.6
		C685.7,197.8,685.9,197.2,685.9,196.4z"/>
	<path class="st2" d="M692.3,194.4c-0.2,0-0.4-0.1-0.6-0.1c-0.7,0-1.2,0.3-1.4,0.8v4.7h-1.5V193h1.5l0,0.8c0.4-0.6,0.9-0.9,1.5-0.9
		c0.2,0,0.4,0,0.5,0.1L692.3,194.4z"/>
	<path class="st2" d="M692.8,196.4c0-0.7,0.1-1.3,0.4-1.8c0.3-0.5,0.6-1,1.1-1.2s1-0.4,1.7-0.4c0.9,0,1.7,0.3,2.3,0.9
		c0.6,0.6,0.9,1.4,0.9,2.4l0,0.4c0,0.7-0.1,1.3-0.4,1.8c-0.3,0.5-0.6,0.9-1.1,1.2c-0.5,0.3-1,0.4-1.7,0.4c-1,0-1.7-0.3-2.3-1
		S692.8,197.5,692.8,196.4L692.8,196.4z M694.3,196.5c0,0.7,0.1,1.3,0.4,1.7c0.3,0.4,0.7,0.6,1.2,0.6s0.9-0.2,1.2-0.6s0.4-1,0.4-1.8
		c0-0.7-0.1-1.2-0.4-1.7c-0.3-0.4-0.7-0.6-1.2-0.6c-0.5,0-0.9,0.2-1.2,0.6C694.5,195.1,694.3,195.7,694.3,196.5z"/>
	<path class="st2" d="M702.8,195.2l1.3-2.3h1.7l-2.1,3.4l2.2,3.5h-1.7l-1.4-2.3l-1.4,2.3h-1.7l2.2-3.5l-2.1-3.4h1.7L702.8,195.2z"/>
	<path class="st2" d="M709.3,197.6l1.4-4.7h1.6l-2.7,7.9c-0.4,1.2-1.1,1.7-2.1,1.7c-0.2,0-0.5,0-0.7-0.1v-1.2l0.3,0
		c0.4,0,0.7-0.1,0.9-0.2c0.2-0.1,0.4-0.4,0.5-0.7l0.2-0.6l-2.4-6.8h1.7L709.3,197.6z"/>
</g>
<g>
	<path class="st8" d="M366,161.8v70.1c0,2.8-2.2,5-5,5h-30c-2.8,0-5-2.2-5-5v-70.1c0-2.8,2.2-5,5-5h30
		C363.8,156.8,366,159,366,161.8z"/>
</g>
<g>
	<rect x="339.9" y="156.8" class="st6" width="21.4" height="78.6"/>
</g>
<g class="st7">
	<path class="st2" d="M348.4,225.5v-4.9h1.3v6.9h-1.1l-6.9-4.8v4.7h-1.3v-6.7h1L348.4,225.5z"/>
	<path class="st2" d="M346.2,219.7c-0.7,0-1.3-0.1-1.8-0.4c-0.5-0.3-1-0.6-1.2-1.1s-0.4-1-0.4-1.7c0-0.9,0.3-1.7,0.9-2.3
		c0.6-0.6,1.4-0.9,2.4-0.9l0.4,0c0.7,0,1.3,0.1,1.8,0.4c0.5,0.3,0.9,0.6,1.2,1.1c0.3,0.5,0.4,1,0.4,1.7c0,1-0.3,1.7-1,2.3
		S347.3,219.7,346.2,219.7L346.2,219.7z M346.3,218.2c0.7,0,1.3-0.1,1.7-0.4c0.4-0.3,0.6-0.7,0.6-1.2c0-0.5-0.2-0.9-0.6-1.2
		s-1-0.4-1.8-0.4c-0.7,0-1.2,0.1-1.7,0.4c-0.4,0.3-0.6,0.7-0.6,1.2c0,0.5,0.2,0.9,0.6,1.2C344.9,218,345.5,218.2,346.3,218.2z"/>
	<path class="st2" d="M346.2,212.3c-0.7,0-1.3-0.1-1.8-0.4c-0.5-0.3-1-0.6-1.2-1.1s-0.4-1-0.4-1.7c0-0.9,0.3-1.7,0.9-2.3
		c0.6-0.6,1.4-0.9,2.4-0.9l0.4,0c0.7,0,1.3,0.1,1.8,0.4c0.5,0.3,0.9,0.6,1.2,1.1c0.3,0.5,0.4,1,0.4,1.7c0,1-0.3,1.7-1,2.3
		C348.2,212,347.3,212.3,346.2,212.3L346.2,212.3z M346.3,210.8c0.7,0,1.3-0.1,1.7-0.4c0.4-0.3,0.6-0.7,0.6-1.2
		c0-0.5-0.2-0.9-0.6-1.2c-0.4-0.3-1-0.4-1.8-0.4c-0.7,0-1.2,0.1-1.7,0.4c-0.4,0.3-0.6,0.7-0.6,1.2c0,0.5,0.2,0.9,0.6,1.2
		C344.9,210.6,345.5,210.8,346.3,210.8z"/>
	<path class="st2" d="M345.7,201.8l1.1,1h2.9v1.6h-9.2v-1.6h4.3l-1.1-0.9l-3.2-2.7v-1.9l4.1,3.4l5.1-3.6v1.9L345.7,201.8z"/>
	<path class="st2" d="M349.8,193.6c0,1-0.3,1.8-0.9,2.4c-0.6,0.6-1.4,0.9-2.5,0.9h-0.2c-0.7,0-1.3-0.1-1.8-0.4
		c-0.5-0.3-1-0.6-1.3-1.1c-0.3-0.5-0.5-1-0.5-1.6c0-0.9,0.3-1.7,0.9-2.2c0.6-0.5,1.4-0.8,2.5-0.8h0.6v4.5c0.6,0,1-0.2,1.3-0.6
		c0.3-0.3,0.5-0.8,0.5-1.3c0-0.7-0.3-1.3-0.9-1.7l0.8-0.8c0.4,0.3,0.7,0.6,1,1.1C349.7,192.5,349.8,193,349.8,193.6z M343.9,193.8
		c0,0.4,0.1,0.8,0.4,1c0.3,0.3,0.7,0.4,1.2,0.5v-2.9h-0.1c-0.5,0-0.9,0.2-1.2,0.4S343.9,193.3,343.9,193.8z"/>
	<path class="st2" d="M349.8,186.6c0,1-0.3,1.8-0.9,2.4c-0.6,0.6-1.4,0.9-2.5,0.9h-0.2c-0.7,0-1.3-0.1-1.8-0.4
		c-0.5-0.3-1-0.6-1.3-1.1c-0.3-0.5-0.5-1-0.5-1.6c0-0.9,0.3-1.7,0.9-2.2c0.6-0.5,1.4-0.8,2.5-0.8h0.6v4.5c0.6,0,1-0.2,1.3-0.6
		c0.3-0.3,0.5-0.8,0.5-1.3c0-0.7-0.3-1.3-0.9-1.7l0.8-0.8c0.4,0.3,0.7,0.6,1,1.1C349.7,185.5,349.8,186,349.8,186.6z M343.9,186.8
		c0,0.4,0.1,0.8,0.4,1c0.3,0.3,0.7,0.4,1.2,0.5v-2.9h-0.1c-0.5,0-0.9,0.2-1.2,0.4S343.9,186.4,343.9,186.8z"/>
	<path class="st2" d="M346.3,176.6c1.1,0,1.9,0.2,2.5,0.7s0.9,1.1,0.9,1.9c0,0.8-0.2,1.4-0.7,1.8h3.3v1.5h-9.5v-1.4l0.7-0.1
		c-0.5-0.5-0.8-1.1-0.8-1.8c0-0.8,0.3-1.5,0.9-2C344.2,176.9,345.1,176.6,346.3,176.6L346.3,176.6z M346.2,178.2
		c-0.7,0-1.2,0.1-1.6,0.4c-0.4,0.3-0.6,0.7-0.6,1.2c0,0.6,0.3,1.1,0.8,1.4h3c0.5-0.3,0.8-0.7,0.8-1.4c0-0.5-0.2-0.9-0.6-1.2
		C347.6,178.3,347,178.2,346.2,178.2z"/>
	<path class="st2" d="M349.8,172.3c0,1-0.3,1.8-0.9,2.4c-0.6,0.6-1.4,0.9-2.5,0.9h-0.2c-0.7,0-1.3-0.1-1.8-0.4
		c-0.5-0.3-1-0.6-1.3-1.1c-0.3-0.5-0.5-1-0.5-1.6c0-0.9,0.3-1.7,0.9-2.2c0.6-0.5,1.4-0.8,2.5-0.8h0.6v4.5c0.6,0,1-0.2,1.3-0.6
		c0.3-0.3,0.5-0.8,0.5-1.3c0-0.7-0.3-1.3-0.9-1.7l0.8-0.8c0.4,0.3,0.7,0.6,1,1.1C349.7,171.2,349.8,171.7,349.8,172.3z M343.9,172.5
		c0,0.4,0.1,0.8,0.4,1c0.3,0.3,0.7,0.4,1.2,0.5v-2.9h-0.1c-0.5,0-0.9,0.2-1.2,0.4S343.9,172.1,343.9,172.5z"/>
	<path class="st2" d="M344.2,164.8c0,0.2-0.1,0.4-0.1,0.6c0,0.7,0.3,1.2,0.8,1.4h4.7v1.5h-6.9v-1.5l0.8,0c-0.6-0.4-0.9-0.9-0.9-1.5
		c0-0.2,0-0.4,0.1-0.5L344.2,164.8z"/>
</g>
<g>
	<path class="st8" d="M366,281.7v70c0,2.8-2.2,5-5,5h-30c-2.8,0-5-2.2-5-5v-70c0-2.8,2.2-5,5-5h30C363.8,276.7,366,278.9,366,281.7z
		"/>
</g>
<g>
	<rect x="332.9" y="277" class="st6" width="31.4" height="79.3"/>
</g>
<g class="st7">
	<path class="st2" d="M333.4,349.7l7.1-2.7l-7.1-2.7v-2.1h9.2v1.6h-3l-4.1-0.2l7.1,2.7v1.1l-7.1,2.7l4.1-0.2h3v1.6h-9.2V349.7z"/>
	<path class="st2" d="M342.8,337.6c0,1-0.3,1.8-0.9,2.4c-0.6,0.6-1.4,0.9-2.5,0.9h-0.2c-0.7,0-1.3-0.1-1.8-0.4
		c-0.5-0.3-1-0.6-1.3-1.1c-0.3-0.5-0.5-1-0.5-1.6c0-0.9,0.3-1.7,0.9-2.2c0.6-0.5,1.4-0.8,2.5-0.8h0.6v4.5c0.6,0,1-0.2,1.3-0.6
		s0.5-0.8,0.5-1.3c0-0.7-0.3-1.3-0.9-1.7l0.8-0.8c0.4,0.3,0.7,0.6,1,1.1S342.8,337,342.8,337.6z M336.9,337.8c0,0.4,0.1,0.8,0.4,1
		c0.3,0.3,0.7,0.4,1.2,0.5v-2.9h-0.1c-0.5,0-0.9,0.2-1.2,0.4C337,337,336.9,337.3,336.9,337.8z"/>
	<path class="st2" d="M340.8,329.8c-0.3,0-0.5,0.1-0.6,0.3c-0.1,0.2-0.3,0.6-0.4,1.1c-0.1,0.5-0.2,1-0.4,1.3
		c-0.4,0.8-0.9,1.2-1.6,1.2c-0.6,0-1.1-0.2-1.5-0.7c-0.4-0.5-0.6-1.1-0.6-1.9c0-0.8,0.2-1.5,0.6-2s0.9-0.8,1.6-0.8v1.5
		c-0.3,0-0.5,0.1-0.7,0.3c-0.2,0.2-0.3,0.5-0.3,0.9c0,0.3,0.1,0.6,0.2,0.8c0.2,0.2,0.4,0.3,0.6,0.3c0.2,0,0.4-0.1,0.6-0.3
		c0.1-0.2,0.3-0.6,0.4-1.2c0.1-0.6,0.3-1.1,0.5-1.4c0.2-0.3,0.4-0.6,0.7-0.8c0.3-0.2,0.6-0.3,0.9-0.3c0.6,0,1.1,0.3,1.5,0.8
		c0.4,0.5,0.6,1.2,0.6,2c0,0.6-0.1,1.1-0.3,1.5c-0.2,0.4-0.5,0.8-0.8,1c-0.4,0.2-0.7,0.4-1.1,0.4v-1.5c0.4,0,0.6-0.2,0.8-0.4
		c0.2-0.3,0.3-0.6,0.3-1c0-0.4-0.1-0.7-0.2-0.9C341.3,329.9,341.1,329.8,340.8,329.8z"/>
	<path class="st2" d="M339.2,327.2c-0.7,0-1.3-0.1-1.8-0.4c-0.5-0.3-1-0.6-1.2-1.1s-0.4-1-0.4-1.7c0-0.9,0.3-1.7,0.9-2.3
		c0.6-0.6,1.4-0.9,2.4-0.9l0.4,0c0.7,0,1.3,0.1,1.8,0.4c0.5,0.3,0.9,0.6,1.2,1.1c0.3,0.5,0.4,1,0.4,1.7c0,1-0.3,1.7-1,2.3
		S340.3,327.2,339.2,327.2L339.2,327.2z M339.3,325.7c0.7,0,1.3-0.1,1.7-0.4c0.4-0.3,0.6-0.7,0.6-1.2s-0.2-0.9-0.6-1.2
		c-0.4-0.3-1-0.4-1.8-0.4c-0.7,0-1.2,0.1-1.7,0.4s-0.6,0.7-0.6,1.2c0,0.5,0.2,0.9,0.6,1.2C337.9,325.5,338.5,325.7,339.3,325.7z"/>
	<path class="st2" d="M340.8,315.7c-0.3,0-0.5,0.1-0.6,0.3c-0.1,0.2-0.3,0.6-0.4,1.1c-0.1,0.5-0.2,1-0.4,1.3
		c-0.4,0.8-0.9,1.2-1.6,1.2c-0.6,0-1.1-0.2-1.5-0.7s-0.6-1.1-0.6-1.9c0-0.8,0.2-1.5,0.6-2s0.9-0.8,1.6-0.8v1.5
		c-0.3,0-0.5,0.1-0.7,0.3c-0.2,0.2-0.3,0.5-0.3,0.9c0,0.3,0.1,0.6,0.2,0.8c0.2,0.2,0.4,0.3,0.6,0.3c0.2,0,0.4-0.1,0.6-0.3
		c0.1-0.2,0.3-0.6,0.4-1.2c0.1-0.6,0.3-1.1,0.5-1.4c0.2-0.3,0.4-0.6,0.7-0.8c0.3-0.2,0.6-0.2,0.9-0.2c0.6,0,1.1,0.3,1.5,0.8
		s0.6,1.2,0.6,2c0,0.6-0.1,1.1-0.3,1.5s-0.5,0.8-0.8,1s-0.7,0.4-1.1,0.4v-1.5c0.4,0,0.6-0.2,0.8-0.4c0.2-0.3,0.3-0.6,0.3-1
		c0-0.4-0.1-0.7-0.2-0.9S341.1,315.7,340.8,315.7z"/>
	<path class="st2" d="M339.3,306.8c1.1,0,1.9,0.2,2.5,0.7s0.9,1.1,0.9,1.9c0,0.8-0.2,1.4-0.7,1.8h3.3v1.5h-9.5v-1.4l0.7-0.1
		c-0.5-0.5-0.8-1.1-0.8-1.8c0-0.8,0.3-1.5,0.9-2C337.2,307,338.1,306.8,339.3,306.8L339.3,306.8z M339.2,308.3
		c-0.7,0-1.2,0.1-1.6,0.4c-0.4,0.3-0.6,0.7-0.6,1.2c0,0.6,0.3,1.1,0.8,1.4h3c0.5-0.3,0.8-0.7,0.8-1.4c0-0.5-0.2-0.9-0.6-1.2
		C340.6,308.5,340,308.3,339.2,308.3z"/>
	<path class="st2" d="M336.6,304c-0.6-0.5-0.9-1.1-0.9-1.9c0-1.5,0.8-2.2,2.5-2.2h4.5v1.5h-4.4c-0.5,0-0.8,0.1-1,0.3
		c-0.2,0.2-0.3,0.5-0.3,0.9c0,0.6,0.3,1.1,0.8,1.4h4.9v1.5h-9.8V304H336.6z"/>
	<path class="st2" d="M342.8,295.2c0,1-0.3,1.8-0.9,2.4c-0.6,0.6-1.4,0.9-2.5,0.9h-0.2c-0.7,0-1.3-0.1-1.8-0.4
		c-0.5-0.3-1-0.6-1.3-1.1c-0.3-0.5-0.5-1-0.5-1.6c0-0.9,0.3-1.7,0.9-2.2c0.6-0.5,1.4-0.8,2.5-0.8h0.6v4.5c0.6,0,1-0.2,1.3-0.6
		c0.3-0.3,0.5-0.8,0.5-1.3c0-0.7-0.3-1.3-0.9-1.7l0.8-0.8c0.4,0.3,0.7,0.6,1,1.1S342.8,294.7,342.8,295.2z M336.9,295.4
		c0,0.4,0.1,0.8,0.4,1c0.3,0.3,0.7,0.4,1.2,0.5V294h-0.1c-0.5,0-0.9,0.2-1.2,0.4S336.9,295,336.9,295.4z"/>
	<path class="st2" d="M337.2,287.7c0,0.2-0.1,0.4-0.1,0.6c0,0.7,0.3,1.2,0.8,1.4h4.7v1.5h-6.9v-1.5l0.8,0c-0.6-0.4-0.9-0.9-0.9-1.5
		c0-0.2,0-0.4,0.1-0.5L337.2,287.7z"/>
	<path class="st2" d="M342.8,283.8c0,1-0.3,1.8-0.9,2.4c-0.6,0.6-1.4,0.9-2.5,0.9h-0.2c-0.7,0-1.3-0.1-1.8-0.4
		c-0.5-0.3-1-0.6-1.3-1.1c-0.3-0.5-0.5-1-0.5-1.6c0-0.9,0.3-1.7,0.9-2.2c0.6-0.5,1.4-0.8,2.5-0.8h0.6v4.5c0.6,0,1-0.2,1.3-0.6
		c0.3-0.3,0.5-0.8,0.5-1.3c0-0.7-0.3-1.3-0.9-1.7l0.8-0.8c0.4,0.3,0.7,0.6,1,1.1S342.8,283.2,342.8,283.8z M336.9,284
		c0,0.4,0.1,0.8,0.4,1c0.3,0.3,0.7,0.4,1.2,0.5v-2.9h-0.1c-0.5,0-0.9,0.2-1.2,0.4S336.9,283.6,336.9,284z"/>
</g>
<g class="st7">
	<path class="st2" d="M349,341.7l7.1-2.7l-7.1-2.7v-2.1h9.2v1.6h-3l-4.1-0.2l7.1,2.7v1.1l-7.1,2.7l4.1-0.2h3v1.6H349V341.7z"/>
	<path class="st2" d="M358.3,328.5c-0.1,0.1-0.3,0.1-0.6,0.2c0.5,0.5,0.8,1.1,0.8,1.8c0,0.7-0.2,1.3-0.6,1.7
		c-0.4,0.4-0.9,0.7-1.5,0.7c-0.7,0-1.3-0.3-1.7-0.8c-0.4-0.5-0.6-1.3-0.6-2.3v-0.9h-0.5c-0.4,0-0.6,0.1-0.9,0.3
		c-0.2,0.2-0.3,0.5-0.3,0.9c0,0.4,0.1,0.6,0.3,0.9s0.4,0.3,0.7,0.3v1.5c-0.4,0-0.7-0.1-1.1-0.4c-0.3-0.2-0.6-0.6-0.8-1
		s-0.3-0.9-0.3-1.4c0-0.8,0.2-1.4,0.6-1.9c0.4-0.5,1-0.7,1.7-0.7h3.1c0.6,0,1.1-0.1,1.5-0.3h0.1V328.5z M357.2,330.2
		c0-0.3-0.1-0.6-0.2-0.9c-0.1-0.3-0.3-0.5-0.6-0.6H355v0.8c0,0.6,0.1,1,0.3,1.3c0.2,0.3,0.5,0.4,0.8,0.4c0.3,0,0.5-0.1,0.7-0.3
		C357.1,330.8,357.2,330.5,357.2,330.2z"/>
	<path class="st2" d="M352.8,322c0,0.2-0.1,0.4-0.1,0.6c0,0.7,0.3,1.2,0.8,1.4h4.7v1.5h-6.9v-1.5l0.8,0c-0.6-0.4-0.9-0.9-0.9-1.5
		c0-0.2,0-0.4,0.1-0.5L352.8,322z"/>
	<path class="st2" d="M358.3,317.1c-0.1,0.1-0.3,0.1-0.6,0.2c0.5,0.5,0.8,1.1,0.8,1.8c0,0.7-0.2,1.3-0.6,1.7
		c-0.4,0.4-0.9,0.7-1.5,0.7c-0.7,0-1.3-0.3-1.7-0.8c-0.4-0.5-0.6-1.3-0.6-2.3v-0.9h-0.5c-0.4,0-0.6,0.1-0.9,0.3
		c-0.2,0.2-0.3,0.5-0.3,0.9c0,0.4,0.1,0.6,0.3,0.9s0.4,0.3,0.7,0.3v1.5c-0.4,0-0.7-0.1-1.1-0.4c-0.3-0.2-0.6-0.6-0.8-1
		c-0.2-0.4-0.3-0.9-0.3-1.4c0-0.8,0.2-1.4,0.6-1.9c0.4-0.5,1-0.7,1.7-0.7h3.1c0.6,0,1.1-0.1,1.5-0.3h0.1V317.1z M357.2,318.8
		c0-0.3-0.1-0.6-0.2-0.9c-0.1-0.3-0.3-0.5-0.6-0.6H355v0.8c0,0.6,0.1,1,0.3,1.3c0.2,0.3,0.5,0.4,0.8,0.4c0.3,0,0.5-0.1,0.7-0.3
		S357.2,319.1,357.2,318.8z"/>
	<path class="st2" d="M349.7,312.2h1.7V311h1.1v1.2h3.8c0.3,0,0.5-0.1,0.6-0.2c0.1-0.1,0.2-0.3,0.2-0.6c0-0.2,0-0.4-0.1-0.5h1.2
		c0.1,0.4,0.1,0.7,0.1,1c0,1.2-0.7,1.8-2,1.8h-3.9v1.1h-1.1v-1.1h-1.7V312.2z"/>
	<path class="st2" d="M352.2,308.3c-0.6-0.5-0.9-1.1-0.9-1.9c0-1.5,0.8-2.2,2.5-2.2h4.5v1.5h-4.4c-0.5,0-0.8,0.1-1,0.3
		c-0.2,0.2-0.3,0.5-0.3,0.9c0,0.6,0.3,1.1,0.8,1.4h4.9v1.5h-9.8v-1.5H352.2z"/>
	<path class="st2" d="M354.8,302.9c-0.7,0-1.3-0.1-1.8-0.4c-0.5-0.3-1-0.6-1.2-1.1s-0.4-1-0.4-1.7c0-0.9,0.3-1.7,0.9-2.3
		c0.6-0.6,1.4-0.9,2.4-0.9l0.4,0c0.7,0,1.3,0.1,1.8,0.4c0.5,0.3,0.9,0.6,1.2,1.1c0.3,0.5,0.4,1,0.4,1.7c0,1-0.3,1.7-1,2.3
		S355.9,302.9,354.8,302.9L354.8,302.9z M354.9,301.4c0.7,0,1.3-0.1,1.7-0.4c0.4-0.3,0.6-0.7,0.6-1.2s-0.2-0.9-0.6-1.2
		c-0.4-0.3-1-0.4-1.8-0.4c-0.7,0-1.2,0.1-1.7,0.4s-0.6,0.7-0.6,1.2c0,0.5,0.2,0.9,0.6,1.2C353.5,301.2,354.1,301.4,354.9,301.4z"/>
	<path class="st2" d="M351.4,293.8l0.8,0c-0.6-0.5-0.9-1.2-0.9-2c0-1.4,0.8-2.2,2.5-2.2h4.5v1.5h-4.4c-0.4,0-0.8,0.1-1,0.3
		c-0.2,0.2-0.3,0.5-0.3,0.9c0,0.6,0.3,1.1,0.8,1.4h4.9v1.5h-6.9V293.8z"/>
</g>
<g>
	<g>
		<g>
			<rect x="340" y="242.5" class="st4" width="1" height="28.4"/>
		</g>
		<g>
			<g>
				<rect x="337.2" y="242" class="st4" width="6.5" height="1"/>
			</g>
		</g>
		<g>
			<g>
				<polygon class="st4" points="338.8,268.9 340.5,270.6 342.2,268.9 342.2,270.3 340.5,272 338.8,270.3 				"/>
			</g>
		</g>
	</g>
</g>
<g>
	<g>
		<g>
			<rect x="181" y="242.3" class="st4" width="1" height="37.6"/>
		</g>
		<g>
			<g>
				<rect x="178.2" y="241.8" class="st4" width="6.5" height="1"/>
			</g>
		</g>
		<g>
			<g>
				<polygon class="st4" points="179.8,277.9 181.5,279.6 183.2,277.9 183.2,279.3 181.5,281 179.8,279.3 				"/>
			</g>
		</g>
	</g>
</g>
<g>
	<g>
		<g>
			<path class="st4" d="M229,280.5h-1V206c0-5.8,4.7-10.5,10.5-10.5h81.4v1h-81.4c-5.2,0-9.5,4.3-9.5,9.5V280.5z"/>
		</g>
		<g>
			<g>
				<rect x="225.2" y="280" class="st4" width="6.5" height="1"/>
			</g>
		</g>
		<g>
			<g>
				<polygon class="st4" points="317.9,197.7 319.6,196 317.9,194.3 319.3,194.3 321,196 319.3,197.7 				"/>
			</g>
		</g>
	</g>
</g>
<g>
	<g>
		<g>
			<rect x="271" y="317" class="st4" width="48.4" height="1"/>
		</g>
		<g>
			<g>
				<rect x="270.5" y="314.2" class="st4" width="1" height="6.5"/>
			</g>
		</g>
		<g>
			<g>
				<polygon class="st4" points="317.4,319.2 319.1,317.5 317.4,315.8 318.8,315.8 320.5,317.5 318.8,319.2 				"/>
			</g>
		</g>
	</g>
</g>
<g>
	<g>
		<g>
			<rect x="370.5" y="317" class="st4" width="23.4" height="1"/>
		</g>
		<g>
			<g>
				<rect x="370" y="314.2" class="st4" width="1" height="6.5"/>
			</g>
		</g>
		<g>
			<g>
				<polygon class="st4" points="391.9,319.2 393.6,317.5 391.9,315.8 393.3,315.8 395,317.5 393.3,319.2 				"/>
			</g>
		</g>
	</g>
</g>
<g>
	<g>
		<g>
			<rect x="370.5" y="195.5" class="st4" width="23.4" height="1"/>
		</g>
		<g>
			<g>
				<rect x="370" y="192.8" class="st4" width="1" height="6.5"/>
			</g>
		</g>
		<g>
			<g>
				<polygon class="st4" points="391.9,197.7 393.6,196 391.9,194.3 393.3,194.3 395,196 393.3,197.7 				"/>
			</g>
		</g>
	</g>
</g>
<g>
	<g>
		<g>
			<rect x="179.7" y="70.7" class="st4" width="56.2" height="1"/>
		</g>
		<g>
			<g>
				<rect x="179.2" y="67.9" class="st4" width="1" height="6.5"/>
			</g>
		</g>
		<g>
			<g>
				<polygon class="st4" points="233.9,72.9 235.6,71.2 233.9,69.5 235.3,69.5 237,71.2 235.3,72.9 				"/>
			</g>
		</g>
	</g>
</g>
<g>
	<g>
		<g>
			<polygon class="st4" points="124,349 108.5,349 108.5,348 123,348 123,286 108.5,286 108.5,285 124,285 			"/>
		</g>
		<g>
			<g>
				<rect x="108" y="282.2" class="st4" width="1" height="6.5"/>
			</g>
		</g>
		<g>
			<g>
				<rect x="108" y="345.2" class="st4" width="1" height="6.5"/>
			</g>
		</g>
	</g>
</g>
<g>
	<g>
		<g>
			<rect x="350" y="243.1" class="st4" width="1" height="28.4"/>
		</g>
		<g>
			<g>
				<rect x="347.2" y="271" class="st4" width="6.5" height="1"/>
			</g>
		</g>
		<g>
			<g>
				<polygon class="st4" points="352.2,245.1 350.5,243.4 348.8,245.1 348.8,243.7 350.5,242 352.2,243.7 				"/>
			</g>
		</g>
	</g>
</g>
<g>
	<g>
		<g>
			<rect x="626" y="200.5" class="st4" width="14.9" height="1"/>
		</g>
		<g>
			<g>
				<rect x="625.5" y="197.8" class="st4" width="1" height="6.5"/>
			</g>
		</g>
		<g>
			<g>
				<polygon class="st4" points="638.9,202.7 640.6,201 638.9,199.3 640.3,199.3 642,201 640.3,202.7 				"/>
			</g>
		</g>
	</g>
</g>
<g>
	<g>
		<g>
			<rect x="626.6" y="190.5" class="st4" width="14.9" height="1"/>
		</g>
		<g>
			<g>
				<rect x="641" y="187.8" class="st4" width="1" height="6.5"/>
			</g>
		</g>
		<g>
			<g>
				<polygon class="st4" points="628.6,189.3 626.9,191 628.6,192.7 627.2,192.7 625.5,191 627.2,189.3 				"/>
			</g>
		</g>
	</g>
</g>
<g>
	<path class="st1" d="M419,293c0-0.3,0.2-0.5,0.5-0.5l0,0c0.3,0,0.5,0.2,0.5,0.5l0,0c0,0.3-0.2,0.5-0.5,0.5l0,0
		C419.2,293.5,419,293.3,419,293z M419,287c0-0.3,0.2-0.5,0.5-0.5l0,0c0.3,0,0.5,0.2,0.5,0.5l0,0c0,0.3-0.2,0.5-0.5,0.5l0,0
		C419.2,287.5,419,287.3,419,287z M419,281c0-0.3,0.2-0.5,0.5-0.5l0,0c0.3,0,0.5,0.2,0.5,0.5l0,0c0,0.3-0.2,0.5-0.5,0.5l0,0
		C419.2,281.5,419,281.3,419,281z M685.5,277.5c0-0.3,0.2-0.5,0.5-0.5l0,0c0.3,0,0.5,0.2,0.5,0.5l0,0c0,0.3-0.2,0.5-0.5,0.5l0,0
		C685.7,278,685.5,277.8,685.5,277.5z M679.5,277.5c0-0.3,0.2-0.5,0.5-0.5l0,0c0.3,0,0.5,0.2,0.5,0.5l0,0c0,0.3-0.2,0.5-0.5,0.5l0,0
		C679.7,278,679.5,277.8,679.5,277.5z M673.5,277.5c0-0.3,0.2-0.5,0.5-0.5l0,0c0.3,0,0.5,0.2,0.5,0.5l0,0c0,0.3-0.2,0.5-0.5,0.5l0,0
		C673.7,278,673.5,277.8,673.5,277.5z M667.5,277.5c0-0.3,0.2-0.5,0.5-0.5l0,0c0.3,0,0.5,0.2,0.5,0.5l0,0c0,0.3-0.2,0.5-0.5,0.5l0,0
		C667.7,278,667.5,277.8,667.5,277.5z M661.5,277.5c0-0.3,0.2-0.5,0.5-0.5l0,0c0.3,0,0.5,0.2,0.5,0.5l0,0c0,0.3-0.2,0.5-0.5,0.5l0,0
		C661.7,278,661.5,277.8,661.5,277.5z M655.5,277.5c0-0.3,0.2-0.5,0.5-0.5l0,0c0.3,0,0.5,0.2,0.5,0.5l0,0c0,0.3-0.2,0.5-0.5,0.5l0,0
		C655.7,278,655.5,277.8,655.5,277.5z M649.5,277.5c0-0.3,0.2-0.5,0.5-0.5l0,0c0.3,0,0.5,0.2,0.5,0.5l0,0c0,0.3-0.2,0.5-0.5,0.5l0,0
		C649.7,278,649.5,277.8,649.5,277.5z M643.5,277.5c0-0.3,0.2-0.5,0.5-0.5l0,0c0.3,0,0.5,0.2,0.5,0.5l0,0c0,0.3-0.2,0.5-0.5,0.5l0,0
		C643.7,278,643.5,277.8,643.5,277.5z M637.5,277.5c0-0.3,0.2-0.5,0.5-0.5l0,0c0.3,0,0.5,0.2,0.5,0.5l0,0c0,0.3-0.2,0.5-0.5,0.5l0,0
		C637.7,278,637.5,277.8,637.5,277.5z M631.5,277.5c0-0.3,0.2-0.5,0.5-0.5l0,0c0.3,0,0.5,0.2,0.5,0.5l0,0c0,0.3-0.2,0.5-0.5,0.5l0,0
		C631.7,278,631.5,277.8,631.5,277.5z M625.5,277.5c0-0.3,0.2-0.5,0.5-0.5l0,0c0.3,0,0.5,0.2,0.5,0.5l0,0c0,0.3-0.2,0.5-0.5,0.5l0,0
		C625.7,278,625.5,277.8,625.5,277.5z M619.5,277.5c0-0.3,0.2-0.5,0.5-0.5l0,0c0.3,0,0.5,0.2,0.5,0.5l0,0c0,0.3-0.2,0.5-0.5,0.5l0,0
		C619.7,278,619.5,277.8,619.5,277.5z M613.5,277.5c0-0.3,0.2-0.5,0.5-0.5l0,0c0.3,0,0.5,0.2,0.5,0.5l0,0c0,0.3-0.2,0.5-0.5,0.5l0,0
		C613.7,278,613.5,277.8,613.5,277.5z M607.5,277.5c0-0.3,0.2-0.5,0.5-0.5l0,0c0.3,0,0.5,0.2,0.5,0.5l0,0c0,0.3-0.2,0.5-0.5,0.5l0,0
		C607.7,278,607.5,277.8,607.5,277.5z M601.5,277.5c0-0.3,0.2-0.5,0.5-0.5l0,0c0.3,0,0.5,0.2,0.5,0.5l0,0c0,0.3-0.2,0.5-0.5,0.5l0,0
		C601.7,278,601.5,277.8,601.5,277.5z M595.5,277.5c0-0.3,0.2-0.5,0.5-0.5l0,0c0.3,0,0.5,0.2,0.5,0.5l0,0c0,0.3-0.2,0.5-0.5,0.5l0,0
		C595.7,278,595.5,277.8,595.5,277.5z M589.5,277.5c0-0.3,0.2-0.5,0.5-0.5l0,0c0.3,0,0.5,0.2,0.5,0.5l0,0c0,0.3-0.2,0.5-0.5,0.5l0,0
		C589.7,278,589.5,277.8,589.5,277.5z M583.5,277.5c0-0.3,0.2-0.5,0.5-0.5l0,0c0.3,0,0.5,0.2,0.5,0.5l0,0c0,0.3-0.2,0.5-0.5,0.5l0,0
		C583.7,278,583.5,277.8,583.5,277.5z M577.5,277.5c0-0.3,0.2-0.5,0.5-0.5l0,0c0.3,0,0.5,0.2,0.5,0.5l0,0c0,0.3-0.2,0.5-0.5,0.5l0,0
		C577.7,278,577.5,277.8,577.5,277.5z M571.5,277.5c0-0.3,0.2-0.5,0.5-0.5l0,0c0.3,0,0.5,0.2,0.5,0.5l0,0c0,0.3-0.2,0.5-0.5,0.5l0,0
		C571.7,278,571.5,277.8,571.5,277.5z M565.5,277.5c0-0.3,0.2-0.5,0.5-0.5l0,0c0.3,0,0.5,0.2,0.5,0.5l0,0c0,0.3-0.2,0.5-0.5,0.5l0,0
		C565.7,278,565.5,277.8,565.5,277.5z M559.5,277.5c0-0.3,0.2-0.5,0.5-0.5l0,0c0.3,0,0.5,0.2,0.5,0.5l0,0c0,0.3-0.2,0.5-0.5,0.5l0,0
		C559.7,278,559.5,277.8,559.5,277.5z M553.5,277.5c0-0.3,0.2-0.5,0.5-0.5l0,0c0.3,0,0.5,0.2,0.5,0.5l0,0c0,0.3-0.2,0.5-0.5,0.5l0,0
		C553.7,278,553.5,277.8,553.5,277.5z M547.5,277.5c0-0.3,0.2-0.5,0.5-0.5l0,0c0.3,0,0.5,0.2,0.5,0.5l0,0c0,0.3-0.2,0.5-0.5,0.5l0,0
		C547.7,278,547.5,277.8,547.5,277.5z M541.5,277.5c0-0.3,0.2-0.5,0.5-0.5l0,0c0.3,0,0.5,0.2,0.5,0.5l0,0c0,0.3-0.2,0.5-0.5,0.5l0,0
		C541.7,278,541.5,277.8,541.5,277.5z M535.5,277.5c0-0.3,0.2-0.5,0.5-0.5l0,0c0.3,0,0.5,0.2,0.5,0.5l0,0c0,0.3-0.2,0.5-0.5,0.5l0,0
		C535.7,278,535.5,277.8,535.5,277.5z M529.5,277.5c0-0.3,0.2-0.5,0.5-0.5l0,0c0.3,0,0.5,0.2,0.5,0.5l0,0c0,0.3-0.2,0.5-0.5,0.5l0,0
		C529.7,278,529.5,277.8,529.5,277.5z M523.5,277.5c0-0.3,0.2-0.5,0.5-0.5l0,0c0.3,0,0.5,0.2,0.5,0.5l0,0c0,0.3-0.2,0.5-0.5,0.5l0,0
		C523.7,278,523.5,277.8,523.5,277.5z M517.5,277.5c0-0.3,0.2-0.5,0.5-0.5l0,0c0.3,0,0.5,0.2,0.5,0.5l0,0c0,0.3-0.2,0.5-0.5,0.5l0,0
		C517.7,278,517.5,277.8,517.5,277.5z M511.5,277.5c0-0.3,0.2-0.5,0.5-0.5l0,0c0.3,0,0.5,0.2,0.5,0.5l0,0c0,0.3-0.2,0.5-0.5,0.5l0,0
		C511.7,278,511.5,277.8,511.5,277.5z M505.5,277.5c0-0.3,0.2-0.5,0.5-0.5l0,0c0.3,0,0.5,0.2,0.5,0.5l0,0c0,0.3-0.2,0.5-0.5,0.5l0,0
		C505.7,278,505.5,277.8,505.5,277.5z M499.5,277.5c0-0.3,0.2-0.5,0.5-0.5l0,0c0.3,0,0.5,0.2,0.5,0.5l0,0c0,0.3-0.2,0.5-0.5,0.5l0,0
		C499.7,278,499.5,277.8,499.5,277.5z M493.5,277.5c0-0.3,0.2-0.5,0.5-0.5l0,0c0.3,0,0.5,0.2,0.5,0.5l0,0c0,0.3-0.2,0.5-0.5,0.5l0,0
		C493.7,278,493.5,277.8,493.5,277.5z M487.5,277.5c0-0.3,0.2-0.5,0.5-0.5l0,0c0.3,0,0.5,0.2,0.5,0.5l0,0c0,0.3-0.2,0.5-0.5,0.5l0,0
		C487.7,278,487.5,277.8,487.5,277.5z M481.5,277.5c0-0.3,0.2-0.5,0.5-0.5l0,0c0.3,0,0.5,0.2,0.5,0.5l0,0c0,0.3-0.2,0.5-0.5,0.5l0,0
		C481.7,278,481.5,277.8,481.5,277.5z M475.5,277.5c0-0.3,0.2-0.5,0.5-0.5l0,0c0.3,0,0.5,0.2,0.5,0.5l0,0c0,0.3-0.2,0.5-0.5,0.5l0,0
		C475.7,278,475.5,277.8,475.5,277.5z M469.5,277.5c0-0.3,0.2-0.5,0.5-0.5l0,0c0.3,0,0.5,0.2,0.5,0.5l0,0c0,0.3-0.2,0.5-0.5,0.5l0,0
		C469.7,278,469.5,277.8,469.5,277.5z M463.5,277.5c0-0.3,0.2-0.5,0.5-0.5l0,0c0.3,0,0.5,0.2,0.5,0.5l0,0c0,0.3-0.2,0.5-0.5,0.5l0,0
		C463.7,278,463.5,277.8,463.5,277.5z M457.5,277.5c0-0.3,0.2-0.5,0.5-0.5l0,0c0.3,0,0.5,0.2,0.5,0.5l0,0c0,0.3-0.2,0.5-0.5,0.5l0,0
		C457.7,278,457.5,277.8,457.5,277.5z M451.5,277.5c0-0.3,0.2-0.5,0.5-0.5l0,0c0.3,0,0.5,0.2,0.5,0.5l0,0c0,0.3-0.2,0.5-0.5,0.5l0,0
		C451.7,278,451.5,277.8,451.5,277.5z M445.5,277.5c0-0.3,0.2-0.5,0.5-0.5l0,0c0.3,0,0.5,0.2,0.5,0.5l0,0c0,0.3-0.2,0.5-0.5,0.5l0,0
		C445.7,278,445.5,277.8,445.5,277.5z M439.5,277.5c0-0.3,0.2-0.5,0.5-0.5l0,0c0.3,0,0.5,0.2,0.5,0.5l0,0c0,0.3-0.2,0.5-0.5,0.5l0,0
		C439.7,278,439.5,277.8,439.5,277.5z M433.5,277.5c0-0.3,0.2-0.5,0.5-0.5l0,0c0.3,0,0.5,0.2,0.5,0.5l0,0c0,0.3-0.2,0.5-0.5,0.5l0,0
		C433.7,278,433.5,277.8,433.5,277.5z M427.5,277.5c0-0.3,0.2-0.5,0.5-0.5l0,0c0.3,0,0.5,0.2,0.5,0.5l0,0c0,0.3-0.2,0.5-0.5,0.5l0,0
		C427.7,278,427.5,277.8,427.5,277.5z M421.5,277.5c0-0.3,0.2-0.5,0.5-0.5l0,0c0.3,0,0.5,0.2,0.5,0.5l0,0c0,0.3-0.2,0.5-0.5,0.5l0,0
		C421.7,278,421.5,277.8,421.5,277.5z M687,273c0-0.3,0.2-0.5,0.5-0.5l0,0c0.3,0,0.5,0.2,0.5,0.5l0,0c0,0.3-0.2,0.5-0.5,0.5l0,0
		C687.2,273.5,687,273.3,687,273z M687,267c0-0.3,0.2-0.5,0.5-0.5l0,0c0.3,0,0.5,0.2,0.5,0.5l0,0c0,0.3-0.2,0.5-0.5,0.5l0,0
		C687.2,267.5,687,267.3,687,267z M687,261c0-0.3,0.2-0.5,0.5-0.5l0,0c0.3,0,0.5,0.2,0.5,0.5l0,0c0,0.3-0.2,0.5-0.5,0.5l0,0
		C687.2,261.5,687,261.3,687,261z M687,255c0-0.3,0.2-0.5,0.5-0.5l0,0c0.3,0,0.5,0.2,0.5,0.5l0,0c0,0.3-0.2,0.5-0.5,0.5l0,0
		C687.2,255.5,687,255.3,687,255z M687,249c0-0.3,0.2-0.5,0.5-0.5l0,0c0.3,0,0.5,0.2,0.5,0.5l0,0c0,0.3-0.2,0.5-0.5,0.5l0,0
		C687.2,249.5,687,249.3,687,249z M687,243c0-0.3,0.2-0.5,0.5-0.5l0,0c0.3,0,0.5,0.2,0.5,0.5l0,0c0,0.3-0.2,0.5-0.5,0.5l0,0
		C687.2,243.5,687,243.3,687,243z M687,237c0-0.3,0.2-0.5,0.5-0.5l0,0c0.3,0,0.5,0.2,0.5,0.5l0,0c0,0.3-0.2,0.5-0.5,0.5l0,0
		C687.2,237.5,687,237.3,687,237z"/>
</g>
<g>
	<path class="st1" d="M418,293c0-0.8,0.7-1.5,1.5-1.5l0,0c0.8,0,1.5,0.7,1.5,1.5l0,0c0,0.8-0.7,1.5-1.5,1.5l0,0
		C418.7,294.5,418,293.8,418,293z M600.5,278.5c0-0.8,0.7-1.5,1.5-1.5l0,0c0.8,0,1.5,0.6,1.5,1.5l0,0c0,0.8-0.7,1.5-1.5,1.5l0,0
		c0,0,0,0,0,0l0,0C601.2,280,600.5,279.3,600.5,278.5z M584,279.9c-0.8,0-1.5-0.7-1.5-1.5l0,0c0-0.8,0.7-1.5,1.5-1.5l0,0
		c0.8,0,1.5,0.7,1.5,1.5l0,0C585.5,279.2,584.8,279.9,584,279.9L584,279.9C584,279.9,584,279.9,584,279.9z M566,279.8
		c-0.8,0-1.5-0.7-1.5-1.5l0,0c0-0.8,0.7-1.5,1.5-1.5l0,0c0.8,0,1.5,0.7,1.5,1.5l0,0C567.5,279.1,566.8,279.8,566,279.8L566,279.8
		C566,279.8,566,279.8,566,279.8z M618.5,278.3c0-0.8,0.7-1.5,1.5-1.5l0,0c0.8,0,1.5,0.7,1.5,1.5l0,0c0,0.8-0.7,1.5-1.5,1.5l0,0
		c0,0,0,0,0,0l0,0C619.2,279.8,618.5,279.1,618.5,278.3z M548,279.7c-0.8,0-1.5-0.7-1.5-1.5l0,0c0-0.8,0.7-1.5,1.5-1.5l0,0
		c0.8,0,1.5,0.7,1.5,1.5l0,0C549.5,279,548.8,279.7,548,279.7L548,279.7L548,279.7z M530,279.6c-0.8,0-1.5-0.7-1.5-1.5l0,0
		c0-0.8,0.7-1.5,1.5-1.5l0,0c0.8,0,1.5,0.7,1.5,1.5l0,0C531.5,278.9,530.8,279.6,530,279.6L530,279.6L530,279.6z M636.5,278.1
		c0-0.8,0.7-1.5,1.5-1.5l0,0c0.8,0,1.5,0.7,1.5,1.5l0,0c0,0.8-0.7,1.5-1.5,1.5l0,0c0,0,0,0,0,0l0,0
		C637.2,279.6,636.5,278.9,636.5,278.1z M512,279.5c-0.8,0-1.5-0.7-1.5-1.5l0,0c0-0.8,0.7-1.5,1.5-1.5l0,0c0.8,0,1.5,0.7,1.5,1.5
		l0,0C513.5,278.8,512.8,279.5,512,279.5L512,279.5C512,279.5,512,279.5,512,279.5z M494,279.4c-0.8,0-1.5-0.7-1.5-1.5l0,0
		c0-0.8,0.7-1.5,1.5-1.5l0,0c0.8,0,1.5,0.7,1.5,1.5l0,0C495.5,278.7,494.8,279.4,494,279.4L494,279.4C494,279.4,494,279.4,494,279.4
		z M654.5,277.9c0-0.8,0.7-1.5,1.5-1.5l0,0c0.8,0,1.5,0.6,1.5,1.5l0,0c0,0.8-0.7,1.5-1.5,1.5l0,0c0,0,0,0,0,0l0,0
		C655.2,279.4,654.5,278.7,654.5,277.9z M476,279.3c-0.8,0-1.5-0.7-1.5-1.5l0,0c0-0.8,0.7-1.5,1.5-1.5l0,0c0.8,0,1.5,0.7,1.5,1.5
		l0,0C477.5,278.6,476.8,279.3,476,279.3L476,279.3L476,279.3z M458,279.2c-0.8,0-1.5-0.7-1.5-1.5l0,0c0-0.8,0.7-1.5,1.5-1.5l0,0
		c0.8,0,1.5,0.7,1.5,1.5l0,0C459.5,278.5,458.8,279.2,458,279.2L458,279.2C458,279.2,458,279.2,458,279.2z M672.5,277.7
		c0-0.8,0.6-1.5,1.5-1.5l0,0c0.8,0,1.5,0.7,1.5,1.5l0,0c0,0.8-0.7,1.5-1.5,1.5l0,0c0,0,0,0,0,0l0,0
		C673.2,279.2,672.5,278.5,672.5,277.7z M440,279.1c-0.8,0-1.5-0.7-1.5-1.5l0,0c0-0.8,0.7-1.5,1.5-1.5l0,0c0.8,0,1.5,0.7,1.5,1.5
		l0,0C441.5,278.4,440.8,279.1,440,279.1L440,279.1C440,279.1,440,279.1,440,279.1z M422,279c-0.8,0-1.5-0.7-1.5-1.5l0,0
		c0-0.8,0.7-1.5,1.5-1.5l0,0c0.8,0,1.5,0.7,1.5,1.5l0,0C423.5,278.3,422.8,279,422,279L422,279C422,279,422,279,422,279z M686,273
		c0-0.8,0.7-1.5,1.5-1.5l0,0c0.8,0,1.5,0.7,1.5,1.5l0,0c0,0.8-0.7,1.5-1.5,1.5l0,0C686.7,274.5,686,273.8,686,273z M686,255
		c0-0.8,0.7-1.5,1.5-1.5l0,0c0.8,0,1.5,0.7,1.5,1.5l0,0c0,0.8-0.7,1.5-1.5,1.5l0,0C686.7,256.5,686,255.8,686,255z M686,237
		c0-0.8,0.7-1.5,1.5-1.5l0,0c0.8,0,1.5,0.7,1.5,1.5l0,0c0,0.8-0.7,1.5-1.5,1.5l0,0C686.7,238.5,686,237.8,686,237z"/>
</g>
<g>
	<path class="st1" d="M686,157c0-0.8,0.7-1.5,1.5-1.5l0,0c0.8,0,1.5,0.7,1.5,1.5l0,0c0,0.8-0.7,1.5-1.5,1.5l0,0
		C686.7,158.5,686,157.8,686,157z M686,139c0-0.8,0.7-1.5,1.5-1.5l0,0c0.8,0,1.5,0.7,1.5,1.5l0,0c0,0.8-0.7,1.5-1.5,1.5l0,0
		C686.7,140.5,686,139.8,686,139z M686,121c0-0.8,0.7-1.5,1.5-1.5l0,0c0.8,0,1.5,0.7,1.5,1.5l0,0c0,0.8-0.7,1.5-1.5,1.5l0,0
		C686.7,122.5,686,121.8,686,121z M686,103c0-0.8,0.7-1.5,1.5-1.5l0,0c0.8,0,1.5,0.7,1.5,1.5l0,0c0,0.8-0.7,1.5-1.5,1.5l0,0
		C686.7,104.5,686,103.8,686,103z"/>
</g>
<g>
	<path class="st1" d="M232.7,95.4c0-0.3,0.2-0.5,0.5-0.5l0,0c0.3,0,0.5,0.2,0.5,0.5l0,0c0,0.3-0.2,0.5-0.5,0.5l0,0
		C232.9,95.9,232.7,95.7,232.7,95.4z M226.7,95.4c0-0.3,0.2-0.5,0.5-0.5l0,0c0.3,0,0.5,0.2,0.5,0.5l0,0c0,0.3-0.2,0.5-0.5,0.5l0,0
		C226.9,95.9,226.7,95.7,226.7,95.4z M220.7,95.4c0-0.3,0.2-0.5,0.5-0.5l0,0c0.3,0,0.5,0.2,0.5,0.5l0,0c0,0.3-0.2,0.5-0.5,0.5l0,0
		C220.9,95.9,220.7,95.7,220.7,95.4z M214.7,95.4c0-0.3,0.2-0.5,0.5-0.5l0,0c0.3,0,0.5,0.2,0.5,0.5l0,0c0,0.3-0.2,0.5-0.5,0.5l0,0
		C214.9,95.9,214.7,95.7,214.7,95.4z M208.7,95.4c0-0.3,0.2-0.5,0.5-0.5l0,0c0.3,0,0.5,0.2,0.5,0.5l0,0c0,0.3-0.2,0.5-0.5,0.5l0,0
		C208.9,95.9,208.7,95.7,208.7,95.4z M202.7,95.4c0-0.3,0.2-0.5,0.5-0.5l0,0c0.3,0,0.5,0.2,0.5,0.5l0,0c0,0.3-0.2,0.5-0.5,0.5l0,0
		C202.9,95.9,202.7,95.7,202.7,95.4z M196.7,95.4c0-0.3,0.2-0.5,0.5-0.5l0,0c0.3,0,0.5,0.2,0.5,0.5l0,0c0,0.3-0.2,0.5-0.5,0.5l0,0
		C196.9,95.9,196.7,95.7,196.7,95.4z M190.7,95.4c0-0.3,0.2-0.5,0.5-0.5l0,0c0.3,0,0.5,0.2,0.5,0.5l0,0c0,0.3-0.2,0.5-0.5,0.5l0,0
		C190.9,95.9,190.7,95.7,190.7,95.4z M184.7,95.4c0-0.3,0.2-0.5,0.5-0.5l0,0c0.3,0,0.5,0.2,0.5,0.5l0,0c0,0.3-0.2,0.5-0.5,0.5l0,0
		C184.9,95.9,184.7,95.7,184.7,95.4z M178.7,95.4c0-0.3,0.2-0.5,0.5-0.5l0,0c0.3,0,0.5,0.2,0.5,0.5l0,0c0,0.3-0.2,0.5-0.5,0.5l0,0
		C178.9,95.9,178.7,95.7,178.7,95.4z"/>
</g>
<g>
	<path class="st1" d="M231.7,95.4c0-0.8,0.7-1.5,1.5-1.5l0,0c0.8,0,1.5,0.7,1.5,1.5l0,0c0,0.8-0.7,1.5-1.5,1.5l0,0
		C232.4,96.9,231.7,96.2,231.7,95.4z M213.7,95.4c0-0.8,0.7-1.5,1.5-1.5l0,0c0.8,0,1.5,0.7,1.5,1.5l0,0c0,0.8-0.7,1.5-1.5,1.5l0,0
		C214.4,96.9,213.7,96.2,213.7,95.4z M195.7,95.4c0-0.8,0.7-1.5,1.5-1.5l0,0c0.8,0,1.5,0.7,1.5,1.5l0,0c0,0.8-0.7,1.5-1.5,1.5l0,0
		C196.4,96.9,195.7,96.2,195.7,95.4z M177.7,95.4c0-0.8,0.7-1.5,1.5-1.5l0,0c0.8,0,1.5,0.7,1.5,1.5l0,0c0,0.8-0.7,1.5-1.5,1.5l0,0
		C178.4,96.9,177.7,96.2,177.7,95.4z"/>
</g>
<g>
	<path class="st1" d="M479,297c0-0.3,0.2-0.5,0.5-0.5l0,0c0.3,0,0.5,0.2,0.5,0.5l0,0c0,0.3-0.2,0.5-0.5,0.5l0,0
		C479.2,297.5,479,297.3,479,297z M479,291c0-0.3,0.2-0.5,0.5-0.5l0,0c0.3,0,0.5,0.2,0.5,0.5l0,0c0,0.3-0.2,0.5-0.5,0.5l0,0
		C479.2,291.5,479,291.3,479,291z M479,285c0-0.3,0.2-0.5,0.5-0.5l0,0c0.3,0,0.5,0.2,0.5,0.5l0,0c0,0.3-0.2,0.5-0.5,0.5l0,0
		C479.2,285.5,479,285.3,479,285z M479,279c0-0.3,0.2-0.5,0.5-0.5l0,0c0.3,0,0.5,0.2,0.5,0.5l0,0c0,0.3-0.2,0.5-0.5,0.5l0,0
		C479.2,279.5,479,279.3,479,279z"/>
</g>
<g>
	<path class="st1" d="M539.2,297c0-0.3,0.2-0.5,0.5-0.5l0,0c0.3,0,0.5,0.2,0.5,0.5l0,0c0,0.3-0.2,0.5-0.5,0.5l0,0
		C539.4,297.5,539.2,297.3,539.2,297z M539.2,291c0-0.3,0.2-0.5,0.5-0.5l0,0c0.3,0,0.5,0.2,0.5,0.5l0,0c0,0.3-0.2,0.5-0.5,0.5l0,0
		C539.4,291.5,539.2,291.3,539.2,291z M539.2,285c0-0.3,0.2-0.5,0.5-0.5l0,0c0.3,0,0.5,0.2,0.5,0.5l0,0c0,0.3-0.2,0.5-0.5,0.5l0,0
		C539.4,285.5,539.2,285.3,539.2,285z M539.2,279c0-0.3,0.2-0.5,0.5-0.5l0,0c0.3,0,0.5,0.2,0.5,0.5l0,0c0,0.3-0.2,0.5-0.5,0.5l0,0
		C539.4,279.5,539.2,279.3,539.2,279z"/>
</g>
<g>
	<path class="st1" d="M599.7,297c0-0.3,0.2-0.5,0.5-0.5l0,0c0.3,0,0.5,0.2,0.5,0.5l0,0c0,0.3-0.2,0.5-0.5,0.5l0,0
		C599.9,297.5,599.7,297.3,599.7,297z M599.7,291c0-0.3,0.2-0.5,0.5-0.5l0,0c0.3,0,0.5,0.2,0.5,0.5l0,0c0,0.3-0.2,0.5-0.5,0.5l0,0
		C599.9,291.5,599.7,291.3,599.7,291z M599.7,285c0-0.3,0.2-0.5,0.5-0.5l0,0c0.3,0,0.5,0.2,0.5,0.5l0,0c0,0.3-0.2,0.5-0.5,0.5l0,0
		C599.9,285.5,599.7,285.3,599.7,285z M599.7,279c0-0.3,0.2-0.5,0.5-0.5l0,0c0.3,0,0.5,0.2,0.5,0.5l0,0c0,0.3-0.2,0.5-0.5,0.5l0,0
		C599.9,279.5,599.7,279.3,599.7,279z"/>
</g>
<g>
	<circle class="st1" cx="479.5" cy="297" r="1.5"/>
</g>
<g>
	<circle class="st1" cx="539.7" cy="297" r="1.5"/>
</g>
<g>
	<circle class="st1" cx="600.2" cy="297" r="1.5"/>
</g>
</svg>
