<?xml version="1.0" encoding="utf-8"?>
<!-- Generator: Adobe Illustrator 19.2.1, SVG Export Plug-In . SVG Version: 6.00 Build 0)  -->
<svg version="1.1" id="Layer_1" xmlns="http://www.w3.org/2000/svg" xmlns:xlink="http://www.w3.org/1999/xlink" x="0px" y="0px"
	 viewBox="0 0 300 300" style="enable-background:new 0 0 300 300;" xml:space="preserve">
<style type="text/css">
	.st0{fill:#F2F6FA;}
	.st1{fill:none;stroke:#183B4D;stroke-linecap:round;stroke-miterlimit:10;stroke-dasharray:0,6;}
	.st2{fill:#FFFFFF;stroke:#183B4D;stroke-miterlimit:10;}
	.st3{fill:none;stroke:#14283C;stroke-linejoin:round;stroke-miterlimit:10;}
	.st4{fill:none;stroke:#FF405E;stroke-miterlimit:10;}
	.st5{fill:#FF405E;}
	.st6{fill:none;stroke:#CDDAE2;stroke-miterlimit:10;}
	.st7{fill:#F2F6FA;stroke:#CDDAE2;stroke-miterlimit:10;}
	.st8{fill:#183B4D;}
	.st9{fill:#FFFFFF;}
	.st10{fill:#7BA1B8;}
	.st11{fill:none;stroke:#183B4D;stroke-width:3;stroke-linecap:round;stroke-miterlimit:10;stroke-dasharray:0,18;}
	.st12{fill:none;stroke:#183B4D;stroke-miterlimit:10;}
	.st13{fill:none;}
	.st14{font-family:'Roboto-Medium';}
	.st15{font-size:13px;}
	.st16{fill:none;stroke:#7B9FB6;stroke-linecap:round;stroke-miterlimit:10;}
	.st17{fill:none;stroke:#7B9FB6;stroke-linecap:round;stroke-linejoin:round;stroke-miterlimit:10;}
	.st18{fill:#FFFFFF;stroke:#7B9FB6;stroke-linejoin:round;stroke-miterlimit:10;}
</style>
<g>
	<path class="st12" d="M200.8,64.7c0,24.8-20.1,45-45,45s-45-20.1-45-45s20.1-45,45-45c15.5,0,29.2,7.9,37.3,19.8
		C198,46.7,200.8,55.4,200.8,64.7z"/>
	<circle class="st2" cx="150.5" cy="58.8" r="45"/>
	<g>
		<path class="st8" d="M131.7,67.5h1.6l2.2,5.5l2.1-5.5h1.5l-2.8,7.2h-1.5L131.7,67.5z"/>
		<path class="st8" d="M149,67.5h1.3v1.1h0c0-0.1,0.1-0.2,0.2-0.4s0.3-0.3,0.5-0.4c0.2-0.1,0.4-0.3,0.7-0.4c0.3-0.1,0.6-0.1,0.9-0.1
			c0.5,0,1,0.1,1.4,0.3c0.4,0.2,0.7,0.6,0.9,1c0.2-0.4,0.6-0.8,1-1c0.4-0.2,0.9-0.3,1.3-0.3c0.6,0,1,0.1,1.4,0.3
			c0.4,0.2,0.6,0.4,0.8,0.7c0.2,0.3,0.3,0.6,0.4,1c0.1,0.4,0.1,0.8,0.1,1.2v4.2h-1.4v-4c0-0.3,0-0.5-0.1-0.8c0-0.3-0.1-0.5-0.2-0.7
			c-0.1-0.2-0.3-0.3-0.5-0.5c-0.2-0.1-0.5-0.2-0.8-0.2c-0.7,0-1.1,0.2-1.4,0.6c-0.3,0.4-0.4,0.9-0.4,1.6v3.9h-1.4V71
			c0-0.3,0-0.7-0.1-0.9c0-0.3-0.1-0.5-0.2-0.7c-0.1-0.2-0.3-0.4-0.5-0.5c-0.2-0.1-0.5-0.2-0.8-0.2c-0.2,0-0.5,0-0.7,0.1
			c-0.2,0.1-0.4,0.2-0.6,0.4c-0.2,0.2-0.3,0.4-0.4,0.7c-0.1,0.3-0.2,0.7-0.2,1.1v3.7H149V67.5z"/>
		<path class="st8" d="M161.6,67.5h1.4v1h0c0.3-0.4,0.6-0.7,1.1-0.9c0.5-0.2,0.9-0.3,1.4-0.3c0.6,0,1.1,0.1,1.5,0.3
			c0.5,0.2,0.8,0.5,1.2,0.8c0.3,0.3,0.6,0.7,0.7,1.2c0.2,0.5,0.3,1,0.3,1.5c0,0.5-0.1,1-0.3,1.5c-0.2,0.5-0.4,0.9-0.7,1.2
			c-0.3,0.3-0.7,0.6-1.2,0.8c-0.5,0.2-1,0.3-1.5,0.3c-0.5,0-1-0.1-1.5-0.3c-0.5-0.2-0.8-0.5-1.1-0.9h0v2.9h-1.4V67.5z M165.4,68.6
			c-0.4,0-0.7,0.1-1,0.2c-0.3,0.1-0.5,0.3-0.7,0.5c-0.2,0.2-0.4,0.5-0.5,0.8c-0.1,0.3-0.2,0.6-0.2,1c0,0.4,0.1,0.7,0.2,1
			c0.1,0.3,0.3,0.6,0.5,0.8c0.2,0.2,0.5,0.4,0.7,0.5c0.3,0.1,0.6,0.2,1,0.2s0.7-0.1,1-0.2c0.3-0.1,0.5-0.3,0.7-0.5
			c0.2-0.2,0.4-0.5,0.5-0.8c0.1-0.3,0.2-0.6,0.2-1c0-0.4-0.1-0.7-0.2-1c-0.1-0.3-0.3-0.6-0.5-0.8c-0.2-0.2-0.5-0.4-0.7-0.5
			C166.1,68.7,165.8,68.6,165.4,68.6z"/>
		<path class="st8" d="M143.1,74.9c1,0,2.1-0.5,2.7-1.2v1h1.2v-7.3h-1.2v1.1c-0.6-0.7-1.7-1.2-2.7-1.2c-2,0-3.6,1.7-3.6,3.8
			C139.5,73.2,141.1,74.9,143.1,74.9z M143.3,68.6c1.3,0,2.4,1.1,2.4,2.5c0,1.4-1.1,2.5-2.4,2.5c-1.5,0-2.4-1.1-2.4-2.5
			C140.9,69.7,141.9,68.6,143.3,68.6z"/>
	</g>
	<path class="st5" d="M160.8,42.4c-0.5-0.9-1.5-1.3-2.8-1.3h-5.1h-9.8c-1.3,0-2.3,0.5-2.8,1.3c-0.5,0.9-0.4,2,0.2,3.1l7.5,12.9
		c0.6,1.1,1.6,1.7,2.5,1.7c1,0,1.9-0.6,2.5-1.7l7.5-12.9C161.2,44.3,161.3,43.2,160.8,42.4z M141.5,43c0.2-0.4,0.8-0.7,1.6-0.7h9.8
		c0.8,0,1.4,0.2,1.6,0.7c0.2,0.4,0.2,1.1-0.2,1.8l-0.4,0.7c-0.2-0.1-0.5-0.2-0.8-0.2l-7.5,0c-1.3,0-2.3,0.5-2.8,1.3l-1.1-1.9
		C141.3,44.1,141.2,43.5,141.5,43z M150.6,51.2c0,0-0.1-0.1-0.1-0.1l-1.8-3.2l-0.7-1.1c0-0.1-0.1-0.1-0.1-0.1c0,0,0.1,0,0.1,0h5
		c0.1,0,0.1,0,0.1,0c0,0,0,0,0,0l-2.5,4.4C150.6,51.2,150.6,51.2,150.6,51.2z M152,57.7c-0.4,0.7-0.9,1.1-1.4,1.1
		c-0.5,0-1-0.4-1.4-1.1l-5.2-9c-0.2-0.6-0.3-1.1-0.1-1.4c0.2-0.4,0.8-0.7,1.6-0.7h1c0,0.3,0.1,0.5,0.2,0.8l3.7,6.5
		c0.6,1.1,1.6,1.7,2.5,1.7l0,0L152,57.7z M159.4,44.8l-5.1,8.8c-0.4,0.5-0.8,0.8-1.2,0.8c-0.5,0-1-0.4-1.4-1.1l-0.5-0.9
		c0.2-0.1,0.4-0.3,0.6-0.6l3.6-6.3c0.6-1.1,0.7-2.2,0.2-3.1c0,0,0,0,0,0h2.4c0.8,0,1.4,0.2,1.6,0.7
		C159.9,43.5,159.8,44.1,159.4,44.8z"/>
	<line class="st12" x1="183.7" y1="28.6" x2="189.4" y2="34.8"/>
	<line class="st12" x1="118.3" y1="90.2" x2="123.9" y2="96.3"/>
	<path class="st12" d="M115.4,137.7c0,24.8-20.1,45-45,45s-45-20.1-45-45s20.1-45,45-45c15.5,0,29.2,7.9,37.3,19.8
		C112.6,119.8,115.4,128.4,115.4,137.7z"/>
	<circle class="st2" cx="65" cy="131.9" r="45"/>
	<line class="st12" x1="98.3" y1="101.6" x2="104" y2="107.9"/>
	<line class="st12" x1="32.9" y1="163.3" x2="38.5" y2="169.4"/>
	<path class="st12" d="M148,237.8c0,24.8-20.1,45-45,45s-45-20.1-45-45s20.1-45,45-45c15.5,0,29.2,7.9,37.3,19.8
		C145.2,219.8,148,228.5,148,237.8z"/>
	<circle class="st2" cx="97.6" cy="231.9" r="45"/>
	<line class="st12" x1="130.9" y1="201.7" x2="136.6" y2="207.9"/>
	<line class="st12" x1="65.4" y1="263.3" x2="71.1" y2="269.4"/>
	<path class="st12" d="M285.1,137.7c0,24.8-20.1,45-45,45s-45-20.1-45-45s20.1-45,45-45c15.5,0,29.2,7.9,37.3,19.8
		C282.3,119.8,285.1,128.4,285.1,137.7z"/>
	<circle class="st2" cx="234.8" cy="131.9" r="45"/>
	<line class="st12" x1="202.6" y1="163.3" x2="208.2" y2="169.4"/>
	<path class="st12" d="M259.3,241.1c0,24.8-20.1,45-45,45s-45-20.1-45-45c0-24.8,20.1-45,45-45c15.5,0,29.2,7.9,37.3,19.8
		C256.4,223.2,259.3,231.8,259.3,241.1z"/>
	<circle class="st2" cx="208.9" cy="235.3" r="45"/>
	<line class="st12" x1="242.2" y1="205" x2="247.9" y2="211.3"/>
	<line class="st12" x1="176.7" y1="266.7" x2="182.4" y2="272.8"/>
	<rect x="9.7" y="136.6" class="st13" width="111.1" height="10.8"/>
	<text transform="matrix(1 0 0 1 25.5181 146.3472)" class="st8 st14 st15">Orchestration</text>
	<g>
		<path class="st16" d="M69.3,130.9c-2.9,1.9-6.7,1.6-9.2-0.9c-2.5-2.5-2.8-6.3-1-9.2"/>
		<path class="st16" d="M61.2,118.6c2.9-1.9,6.7-1.6,9.2,0.9c2.5,2.5,2.8,6.3,1,9.2"/>
		<polyline class="st17" points="59.9,121.4 59.4,119.9 57.9,120.4 		"/>
		<polyline class="st17" points="70.6,128.1 71.1,129.6 72.6,129 		"/>
	</g>
	<rect x="179.2" y="136.8" class="st13" width="111.1" height="10.8"/>
	<text transform="matrix(1 0 0 1 210.8267 146.5073)" class="st8 st14 st15">Big data</text>
	<g>
		<path class="st18" d="M234.8,121.3c-3.5,0-6.5,1.6-6.5,3.7v3.7c0,2,3,3.7,6.5,3.7c3.5,0,6.5-1.6,6.5-3.7v-3.7
			C241.2,122.9,238.3,121.3,234.8,121.3z"/>
		<path class="st18" d="M234.8,117.6c-3.5,0-6.5,1.6-6.5,3.7v3.7c0,2,3,3.7,6.5,3.7c3.5,0,6.5-1.6,6.5-3.7v-3.7
			C241.2,119.2,238.3,117.6,234.8,117.6z"/>
		<path class="st18" d="M234.8,113.9c-3.5,0-6.5,1.6-6.5,3.7v3.7c0,2,3,3.7,6.5,3.7c3.5,0,6.5-1.6,6.5-3.7v-3.7
			C241.2,115.6,238.3,113.9,234.8,113.9z"/>
		<path class="st18" d="M228.3,117.6c0,2,3,3.7,6.5,3.7c3.5,0,6.5-1.6,6.5-3.7"/>
	</g>
	<rect x="172.1" y="239.5" class="st13" width="75.5" height="10.8"/>
	<text transform="matrix(1 0 0 1 175.4155 249.2324)" class="st8 st14 st15">Persistence</text>
	<g>
		<path class="st17" d="M218.3,224.5c-1.7,0.5-3.6,0.1-5-1.2c-1.3-1.3-1.7-3.3-1.2-5L218.3,224.5z"/>
		<path class="st17" d="M211.6,233.5c0.7-2.3,0.2-4.9-1.7-6.8c-1.8-1.8-4.4-2.4-6.8-1.7L211.6,233.5z"/>
		<line class="st17" x1="212.2" y1="221.4" x2="208.1" y2="225.4"/>
		<line class="st17" x1="215.3" y1="224.5" x2="211.2" y2="228.5"/>
		<line class="st17" x1="207.4" y1="229.3" x2="201.4" y2="235.2"/>
	</g>
	<rect x="43" y="238.4" class="st13" width="111.1" height="10.8"/>
	<text transform="matrix(1 0 0 1 76.0982 248.1465)" class="st8 st14 st15">Routing</text>
	<g>
		<circle class="st16" cx="104.3" cy="230" r="2.2"/>
		<circle class="st16" cx="92.9" cy="230" r="2.2"/>
		<circle class="st16" cx="98.6" cy="218.6" r="2.2"/>
		<line class="st17" x1="103.3" y1="228" x2="99.6" y2="220.5"/>
		<line class="st17" x1="97.6" y1="220.5" x2="93.9" y2="228"/>
	</g>
	<line class="st2" x1="109.1" y1="123.1" x2="114.2" y2="128.2"/>
	<line class="st2" x1="109.9" y1="129.5" x2="115.3" y2="134.9"/>
	<line class="st2" x1="109.9" y1="135.1" x2="115.3" y2="140.6"/>
	<line class="st2" x1="48.4" y1="173.7" x2="54.5" y2="179.8"/>
	<line class="st2" x1="109.4" y1="140.2" x2="114.8" y2="145.6"/>
	<line class="st2" x1="108" y1="145.6" x2="113.5" y2="151"/>
	<line class="st2" x1="105.9" y1="151.4" x2="111.4" y2="156.8"/>
	<line class="st2" x1="54" y1="175.5" x2="60.1" y2="181.6"/>
	<line class="st2" x1="59.6" y1="176.4" x2="65.7" y2="182.5"/>
	<line class="st2" x1="65.7" y1="176.7" x2="71.8" y2="182.8"/>
	<line class="st2" x1="71" y1="176.3" x2="77.1" y2="182.4"/>
	<line class="st2" x1="76.6" y1="175.2" x2="82.7" y2="181.3"/>
	<line class="st2" x1="81.9" y1="173.4" x2="88.1" y2="179.5"/>
	<line class="st2" x1="87.2" y1="170.6" x2="93.3" y2="176.7"/>
	<line class="st2" x1="92" y1="167.5" x2="98.1" y2="173.7"/>
	<line class="st2" x1="96.9" y1="163.3" x2="103" y2="169.4"/>
	<line class="st2" x1="100.6" y1="159.1" x2="106.7" y2="165.2"/>
	<line class="st2" x1="103.3" y1="154.7" x2="109.4" y2="160.8"/>
	<g>
		<line class="st2" x1="194.5" y1="50.1" x2="199.6" y2="55.2"/>
		<line class="st2" x1="195.3" y1="56.5" x2="200.7" y2="61.9"/>
		<line class="st2" x1="195.3" y1="62.1" x2="200.7" y2="67.5"/>
		<line class="st2" x1="133.7" y1="100.7" x2="139.8" y2="106.8"/>
		<line class="st2" x1="194.7" y1="67.2" x2="200.1" y2="72.6"/>
		<line class="st2" x1="193.4" y1="72.6" x2="198.8" y2="78"/>
		<line class="st2" x1="191.3" y1="78.3" x2="196.7" y2="83.8"/>
		<line class="st2" x1="139.3" y1="102.5" x2="145.5" y2="108.6"/>
		<line class="st2" x1="145" y1="103.4" x2="151.1" y2="109.5"/>
		<line class="st2" x1="151.1" y1="103.7" x2="157.2" y2="109.8"/>
		<line class="st2" x1="156.3" y1="103.3" x2="162.5" y2="109.4"/>
		<line class="st2" x1="161.9" y1="102.2" x2="168.1" y2="108.3"/>
		<line class="st2" x1="167.3" y1="100.4" x2="173.4" y2="106.5"/>
		<line class="st2" x1="172.5" y1="97.6" x2="178.6" y2="103.7"/>
		<line class="st2" x1="177.4" y1="94.5" x2="183.5" y2="100.7"/>
		<line class="st2" x1="182.3" y1="90.3" x2="188.4" y2="96.4"/>
		<line class="st2" x1="185.9" y1="86.1" x2="192" y2="92.2"/>
		<line class="st2" x1="188.7" y1="81.7" x2="194.8" y2="87.8"/>
	</g>
	<g>
		<line class="st2" x1="279" y1="123" x2="284.1" y2="128.1"/>
		<line class="st2" x1="279.8" y1="129.4" x2="285.2" y2="134.8"/>
		<line class="st2" x1="279.8" y1="135" x2="285.2" y2="140.4"/>
		<line class="st2" x1="218.2" y1="173.6" x2="224.3" y2="179.7"/>
		<line class="st2" x1="279.2" y1="140.1" x2="284.6" y2="145.5"/>
		<line class="st2" x1="277.9" y1="145.5" x2="283.3" y2="150.9"/>
		<line class="st2" x1="275.8" y1="151.2" x2="281.2" y2="156.7"/>
		<line class="st2" x1="223.8" y1="175.4" x2="230" y2="181.5"/>
		<line class="st2" x1="229.5" y1="176.3" x2="235.6" y2="182.4"/>
		<line class="st2" x1="235.6" y1="176.6" x2="241.7" y2="182.7"/>
		<line class="st2" x1="240.8" y1="176.2" x2="247" y2="182.3"/>
		<line class="st2" x1="246.4" y1="175.1" x2="252.6" y2="181.2"/>
		<line class="st2" x1="251.8" y1="173.3" x2="257.9" y2="179.4"/>
		<line class="st2" x1="257" y1="170.5" x2="263.1" y2="176.6"/>
		<line class="st2" x1="261.9" y1="167.4" x2="268" y2="173.6"/>
		<line class="st2" x1="266.8" y1="163.2" x2="272.9" y2="169.3"/>
		<line class="st2" x1="270.4" y1="159" x2="276.5" y2="165.1"/>
		<line class="st2" x1="273.2" y1="154.6" x2="279.3" y2="160.7"/>
	</g>
	<g>
		<line class="st2" x1="253" y1="226.6" x2="258.1" y2="231.7"/>
		<line class="st2" x1="253.8" y1="233" x2="259.3" y2="238.4"/>
		<line class="st2" x1="253.8" y1="238.6" x2="259.3" y2="244"/>
		<line class="st2" x1="192.3" y1="277.1" x2="198.4" y2="283.3"/>
		<line class="st2" x1="253.3" y1="243.7" x2="258.7" y2="249.1"/>
		<line class="st2" x1="251.9" y1="249.1" x2="257.4" y2="254.5"/>
		<line class="st2" x1="249.9" y1="254.8" x2="255.3" y2="260.3"/>
		<line class="st2" x1="197.9" y1="279" x2="204" y2="285.1"/>
		<line class="st2" x1="203.5" y1="279.9" x2="209.6" y2="286"/>
		<line class="st2" x1="209.6" y1="280.2" x2="215.8" y2="286.3"/>
		<line class="st2" x1="214.9" y1="279.7" x2="221" y2="285.9"/>
		<line class="st2" x1="220.5" y1="278.7" x2="226.6" y2="284.8"/>
		<line class="st2" x1="225.8" y1="276.8" x2="232" y2="283"/>
		<line class="st2" x1="231.1" y1="274.1" x2="237.2" y2="280.2"/>
		<line class="st2" x1="235.9" y1="271" x2="242" y2="277.1"/>
		<line class="st2" x1="240.8" y1="266.8" x2="246.9" y2="272.9"/>
		<line class="st2" x1="244.5" y1="262.6" x2="250.6" y2="268.7"/>
		<line class="st2" x1="247.2" y1="258.2" x2="253.3" y2="264.3"/>
	</g>
	<g>
		<line class="st2" x1="141.8" y1="223.2" x2="146.9" y2="228.3"/>
		<line class="st2" x1="142.6" y1="229.6" x2="148" y2="235"/>
		<line class="st2" x1="142.6" y1="235.2" x2="148" y2="240.6"/>
		<line class="st2" x1="81" y1="273.7" x2="87.1" y2="279.8"/>
		<line class="st2" x1="142" y1="240.3" x2="147.4" y2="245.7"/>
		<line class="st2" x1="140.7" y1="245.7" x2="146.1" y2="251.1"/>
		<line class="st2" x1="138.6" y1="251.4" x2="144" y2="256.8"/>
		<line class="st2" x1="86.6" y1="275.6" x2="92.7" y2="281.7"/>
		<line class="st2" x1="92.2" y1="276.5" x2="98.4" y2="282.6"/>
		<line class="st2" x1="98.4" y1="276.7" x2="104.5" y2="282.9"/>
		<line class="st2" x1="103.6" y1="276.3" x2="109.7" y2="282.4"/>
		<line class="st2" x1="109.2" y1="275.2" x2="115.3" y2="281.4"/>
		<line class="st2" x1="114.6" y1="273.4" x2="120.7" y2="279.5"/>
		<line class="st2" x1="119.8" y1="270.7" x2="125.9" y2="276.8"/>
		<line class="st2" x1="124.6" y1="267.6" x2="130.8" y2="273.7"/>
		<line class="st2" x1="129.5" y1="263.3" x2="135.7" y2="269.5"/>
		<line class="st2" x1="133.2" y1="259.2" x2="139.3" y2="265.3"/>
		<line class="st2" x1="136" y1="254.7" x2="142.1" y2="260.9"/>
	</g>
</g>
</svg>
