<?xml version="1.0" encoding="utf-8"?>
<!-- Generator: Adobe Illustrator 19.2.1, SVG Export Plug-In . SVG Version: 6.00 Build 0)  -->
<svg version="1.1" id="Layer_1" xmlns="http://www.w3.org/2000/svg" xmlns:xlink="http://www.w3.org/1999/xlink" x="0px" y="0px"
	 viewBox="0 0 862.8 437.7" style="enable-background:new 0 0 862.8 437.7;" xml:space="preserve">
<style type="text/css">
	.st0{fill:#183B4D;}
	.st1{fill:#FFFFFF;}
	.st2{fill:#F2F6FA;}
	.st3{enable-background:new    ;}
	.st4{fill:#7B9FB6;}
	.st5{fill:none;}
	.st6{fill:#FF405E;}
	.st7{fill:#C3D2DC;}
</style>
<g>
	<path class="st0" d="M595,406.9c0-0.3,0.2-0.5,0.5-0.5l0,0c0.3,0,0.5,0.2,0.5,0.5l0,0c0,0.3-0.2,0.5-0.5,0.5l0,0
		C595.2,407.5,595,407.2,595,406.9z M595,400.6c0-0.3,0.2-0.5,0.5-0.5l0,0c0.3,0,0.5,0.2,0.5,0.5l0,0c0,0.3-0.2,0.5-0.5,0.5l0,0
		C595.2,401.1,595,400.9,595,400.6z M595,394.2c0-0.3,0.2-0.5,0.5-0.5l0,0c0.3,0,0.5,0.2,0.5,0.5l0,0c0,0.3-0.2,0.5-0.5,0.5l0,0
		C595.2,394.7,595,394.5,595,394.2z M595,387.8c0-0.3,0.2-0.5,0.5-0.5l0,0c0.3,0,0.5,0.2,0.5,0.5l0,0c0,0.3-0.2,0.5-0.5,0.5l0,0
		C595.2,388.4,595,388.2,595,387.8z M595,381.5c0-0.3,0.2-0.5,0.5-0.5l0,0c0.3,0,0.5,0.2,0.5,0.5l0,0c0,0.3-0.2,0.5-0.5,0.5l0,0
		C595.2,382,595,381.8,595,381.5z M595,375.1c0-0.3,0.2-0.5,0.5-0.5l0,0c0.3,0,0.5,0.2,0.5,0.5l0,0c0,0.3-0.2,0.5-0.5,0.5l0,0
		C595.2,375.6,595,375.4,595,375.1z M595,368.8c0-0.3,0.2-0.5,0.5-0.5l0,0c0.3,0,0.5,0.2,0.5,0.5l0,0c0,0.3-0.2,0.5-0.5,0.5l0,0
		C595.2,369.3,595,369.1,595,368.8z M595,362.4c0-0.3,0.2-0.5,0.5-0.5l0,0c0.3,0,0.5,0.2,0.5,0.5l0,0c0,0.3-0.2,0.5-0.5,0.5l0,0
		C595.2,362.9,595,362.7,595,362.4z M595,356c0-0.3,0.2-0.5,0.5-0.5l0,0c0.3,0,0.5,0.2,0.5,0.5l0,0c0,0.3-0.2,0.5-0.5,0.5l0,0
		C595.2,356.6,595,356.3,595,356z M595,349.7c0-0.3,0.2-0.5,0.5-0.5l0,0c0.3,0,0.5,0.2,0.5,0.5l0,0c0,0.3-0.2,0.5-0.5,0.5l0,0
		C595.2,350.2,595,350,595,349.7z M595,343.3c0-0.3,0.2-0.5,0.5-0.5l0,0c0.3,0,0.5,0.2,0.5,0.5l0,0c0,0.3-0.2,0.5-0.5,0.5l0,0
		C595.2,343.8,595,343.6,595,343.3z M595,336.9c0-0.3,0.2-0.5,0.5-0.5l0,0c0.3,0,0.5,0.2,0.5,0.5l0,0c0,0.3-0.2,0.5-0.5,0.5l0,0
		C595.2,337.5,595,337.3,595,336.9z M595,330.6c0-0.3,0.2-0.5,0.5-0.5l0,0c0.3,0,0.5,0.2,0.5,0.5l0,0c0,0.3-0.2,0.5-0.5,0.5l0,0
		C595.2,331.1,595,330.9,595,330.6z M595,324.2c0-0.3,0.2-0.5,0.5-0.5l0,0c0.3,0,0.5,0.2,0.5,0.5l0,0c0,0.3-0.2,0.5-0.5,0.5l0,0
		C595.2,324.7,595,324.5,595,324.2z M595,317.8c0-0.3,0.2-0.5,0.5-0.5l0,0c0.3,0,0.5,0.2,0.5,0.5l0,0c0,0.3-0.2,0.5-0.5,0.5l0,0
		C595.2,318.4,595,318.2,595,317.8z M595,311.5c0-0.3,0.2-0.5,0.5-0.5l0,0c0.3,0,0.5,0.2,0.5,0.5l0,0c0,0.3-0.2,0.5-0.5,0.5l0,0
		C595.2,312,595,311.8,595,311.5z M595,305.1c0-0.3,0.2-0.5,0.5-0.5l0,0c0.3,0,0.5,0.2,0.5,0.5l0,0c0,0.3-0.2,0.5-0.5,0.5l0,0
		C595.2,305.7,595,305.4,595,305.1z M595,298.8c0-0.3,0.2-0.5,0.5-0.5l0,0c0.3,0,0.5,0.2,0.5,0.5l0,0c0,0.3-0.2,0.5-0.5,0.5l0,0
		C595.2,299.3,595,299.1,595,298.8z M595,292.4c0-0.3,0.2-0.5,0.5-0.5l0,0c0.3,0,0.5,0.2,0.5,0.5l0,0c0,0.3-0.2,0.5-0.5,0.5l0,0
		C595.2,292.9,595,292.7,595,292.4z M595,286c0-0.3,0.2-0.5,0.5-0.5l0,0c0.3,0,0.5,0.2,0.5,0.5l0,0c0,0.3-0.2,0.5-0.5,0.5l0,0
		C595.2,286.6,595,286.4,595,286z M595,279.7c0-0.3,0.2-0.5,0.5-0.5l0,0c0.3,0,0.5,0.2,0.5,0.5l0,0c0,0.3-0.2,0.5-0.5,0.5l0,0
		C595.2,280.2,595,280,595,279.7z M595,273.3c0-0.3,0.2-0.5,0.5-0.5l0,0c0.3,0,0.5,0.2,0.5,0.5l0,0c0,0.3-0.2,0.5-0.5,0.5l0,0
		C595.2,273.8,595,273.6,595,273.3z M595,266.9c0-0.3,0.2-0.5,0.5-0.5l0,0c0.3,0,0.5,0.2,0.5,0.5l0,0c0,0.3-0.2,0.5-0.5,0.5l0,0
		C595.2,267.5,595,267.3,595,266.9z M595,260.6c0-0.3,0.2-0.5,0.5-0.5l0,0c0.3,0,0.5,0.2,0.5,0.5l0,0c0,0.3-0.2,0.5-0.5,0.5l0,0
		C595.2,261.1,595,260.9,595,260.6z"/>
</g>
<g>
	<path class="st0" d="M693.1,410.9c0-0.3,0.2-0.5,0.5-0.5l0,0c0.3,0,0.5,0.2,0.5,0.5l0,0c0,0.3-0.2,0.5-0.5,0.5l0,0
		C693.3,411.4,693.1,411.2,693.1,410.9z M686.7,410.9c0-0.3,0.2-0.5,0.5-0.5l0,0c0.3,0,0.5,0.2,0.5,0.5l0,0c0,0.3-0.2,0.5-0.5,0.5
		l0,0C686.9,411.4,686.7,411.2,686.7,410.9z M680.4,410.9c0-0.3,0.2-0.5,0.5-0.5l0,0c0.3,0,0.5,0.2,0.5,0.5l0,0
		c0,0.3-0.2,0.5-0.5,0.5l0,0C680.7,411.4,680.4,411.2,680.4,410.9z M674,410.9c0-0.3,0.2-0.5,0.5-0.5l0,0c0.3,0,0.5,0.2,0.5,0.5l0,0
		c0,0.3-0.2,0.5-0.5,0.5l0,0C674.3,411.4,674,411.2,674,410.9z M667.7,410.9c0-0.3,0.2-0.5,0.5-0.5l0,0c0.3,0,0.5,0.2,0.5,0.5l0,0
		c0,0.3-0.2,0.5-0.5,0.5l0,0C667.9,411.4,667.7,411.2,667.7,410.9z M661.4,410.9c0-0.3,0.2-0.5,0.5-0.5l0,0c0.3,0,0.5,0.2,0.5,0.5
		l0,0c0,0.3-0.2,0.5-0.5,0.5l0,0C661.6,411.4,661.4,411.2,661.4,410.9z M655,410.9c0-0.3,0.2-0.5,0.5-0.5l0,0c0.3,0,0.5,0.2,0.5,0.5
		l0,0c0,0.3-0.2,0.5-0.5,0.5l0,0C655.2,411.4,655,411.2,655,410.9z M648.6,410.9c0-0.3,0.2-0.5,0.5-0.5l0,0c0.3,0,0.5,0.2,0.5,0.5
		l0,0c0,0.3-0.2,0.5-0.5,0.5l0,0C648.9,411.4,648.6,411.2,648.6,410.9z M642.3,410.9c0-0.3,0.2-0.5,0.5-0.5l0,0
		c0.3,0,0.5,0.2,0.5,0.5l0,0c0,0.3-0.2,0.5-0.5,0.5l0,0C642.5,411.4,642.3,411.2,642.3,410.9z M635.9,410.9c0-0.3,0.2-0.5,0.5-0.5
		l0,0c0.3,0,0.5,0.2,0.5,0.5l0,0c0,0.3-0.2,0.5-0.5,0.5l0,0C636.2,411.4,635.9,411.2,635.9,410.9z M629.6,410.9
		c0-0.3,0.2-0.5,0.5-0.5l0,0c0.3,0,0.5,0.2,0.5,0.5l0,0c0,0.3-0.2,0.5-0.5,0.5l0,0C629.9,411.4,629.6,411.2,629.6,410.9z
		 M623.2,410.9c0-0.3,0.2-0.5,0.5-0.5l0,0c0.3,0,0.5,0.2,0.5,0.5l0,0c0,0.3-0.2,0.5-0.5,0.5l0,0
		C623.5,411.4,623.2,411.2,623.2,410.9z M616.9,410.9c0-0.3,0.2-0.5,0.5-0.5l0,0c0.3,0,0.5,0.2,0.5,0.5l0,0c0,0.3-0.2,0.5-0.5,0.5
		l0,0C617.2,411.4,616.9,411.2,616.9,410.9z M610.6,410.9c0-0.3,0.2-0.5,0.5-0.5l0,0c0.3,0,0.5,0.2,0.5,0.5l0,0
		c0,0.3-0.2,0.5-0.5,0.5l0,0C610.8,411.4,610.6,411.2,610.6,410.9z M604.2,410.9c0-0.3,0.2-0.5,0.5-0.5l0,0c0.3,0,0.5,0.2,0.5,0.5
		l0,0c0,0.3-0.2,0.5-0.5,0.5l0,0C604.4,411.4,604.2,411.2,604.2,410.9z M597.8,410.9c0-0.3,0.2-0.5,0.5-0.5l0,0
		c0.3,0,0.5,0.2,0.5,0.5l0,0c0,0.3-0.2,0.5-0.5,0.5l0,0C598.1,411.4,597.8,411.2,597.8,410.9z M591.5,410.9c0-0.3,0.2-0.5,0.5-0.5
		l0,0c0.3,0,0.5,0.2,0.5,0.5l0,0c0,0.3-0.2,0.5-0.5,0.5l0,0C591.7,411.4,591.5,411.2,591.5,410.9z M585.1,410.9
		c0-0.3,0.2-0.5,0.5-0.5l0,0c0.3,0,0.5,0.2,0.5,0.5l0,0c0,0.3-0.2,0.5-0.5,0.5l0,0C585.3,411.4,585.1,411.2,585.1,410.9z
		 M578.8,410.9c0-0.3,0.2-0.5,0.5-0.5l0,0c0.3,0,0.5,0.2,0.5,0.5l0,0c0,0.3-0.2,0.5-0.5,0.5l0,0
		C579.1,411.4,578.8,411.2,578.8,410.9z M572.4,410.9c0-0.3,0.2-0.5,0.5-0.5l0,0c0.3,0,0.5,0.2,0.5,0.5l0,0c0,0.3-0.2,0.5-0.5,0.5
		l0,0C572.7,411.4,572.4,411.2,572.4,410.9z M566.1,410.9c0-0.3,0.2-0.5,0.5-0.5l0,0c0.3,0,0.5,0.2,0.5,0.5l0,0
		c0,0.3-0.2,0.5-0.5,0.5l0,0C566.4,411.4,566.1,411.2,566.1,410.9z M559.8,410.9c0-0.3,0.2-0.5,0.5-0.5l0,0c0.3,0,0.5,0.2,0.5,0.5
		l0,0c0,0.3-0.2,0.5-0.5,0.5l0,0C560,411.4,559.8,411.2,559.8,410.9z M553.4,410.9c0-0.3,0.2-0.5,0.5-0.5l0,0c0.3,0,0.5,0.2,0.5,0.5
		l0,0c0,0.3-0.2,0.5-0.5,0.5l0,0C553.6,411.4,553.4,411.2,553.4,410.9z M547.1,410.9c0-0.3,0.2-0.5,0.5-0.5l0,0
		c0.3,0,0.5,0.2,0.5,0.5l0,0c0,0.3-0.2,0.5-0.5,0.5l0,0C547.3,411.4,547.1,411.2,547.1,410.9z M540.7,410.9c0-0.3,0.2-0.5,0.5-0.5
		l0,0c0.3,0,0.5,0.2,0.5,0.5l0,0c0,0.3-0.2,0.5-0.5,0.5l0,0C540.9,411.4,540.7,411.2,540.7,410.9z M534.3,410.9
		c0-0.3,0.2-0.5,0.5-0.5l0,0c0.3,0,0.5,0.2,0.5,0.5l0,0c0,0.3-0.2,0.5-0.5,0.5l0,0C534.5,411.4,534.3,411.2,534.3,410.9z M528,410.9
		c0-0.3,0.2-0.5,0.5-0.5l0,0c0.3,0,0.5,0.2,0.5,0.5l0,0c0,0.3-0.2,0.5-0.5,0.5l0,0C528.3,411.4,528,411.2,528,410.9z M521.7,410.9
		c0-0.3,0.2-0.5,0.5-0.5l0,0c0.3,0,0.5,0.2,0.5,0.5l0,0c0,0.3-0.2,0.5-0.5,0.5l0,0C521.9,411.4,521.7,411.2,521.7,410.9z
		 M515.3,410.9c0-0.3,0.2-0.5,0.5-0.5l0,0c0.3,0,0.5,0.2,0.5,0.5l0,0c0,0.3-0.2,0.5-0.5,0.5l0,0
		C515.6,411.4,515.3,411.2,515.3,410.9z M509,410.9c0-0.3,0.2-0.5,0.5-0.5l0,0c0.3,0,0.5,0.2,0.5,0.5l0,0c0,0.3-0.2,0.5-0.5,0.5l0,0
		C509.2,411.4,509,411.2,509,410.9z M502.6,410.9c0-0.3,0.2-0.5,0.5-0.5l0,0c0.3,0,0.5,0.2,0.5,0.5l0,0c0,0.3-0.2,0.5-0.5,0.5l0,0
		C502.8,411.4,502.6,411.2,502.6,410.9z M496.3,410.9c0-0.3,0.2-0.5,0.5-0.5l0,0c0.3,0,0.5,0.2,0.5,0.5l0,0c0,0.3-0.2,0.5-0.5,0.5
		l0,0C496.5,411.4,496.3,411.2,496.3,410.9z M489.9,410.9c0-0.3,0.2-0.5,0.5-0.5l0,0c0.3,0,0.5,0.2,0.5,0.5l0,0
		c0,0.3-0.2,0.5-0.5,0.5l0,0C490.1,411.4,489.9,411.2,489.9,410.9z M483.5,410.9c0-0.3,0.2-0.5,0.5-0.5l0,0c0.3,0,0.5,0.2,0.5,0.5
		l0,0c0,0.3-0.2,0.5-0.5,0.5l0,0C483.8,411.4,483.5,411.2,483.5,410.9z M477.2,410.9c0-0.3,0.2-0.5,0.5-0.5l0,0
		c0.3,0,0.5,0.2,0.5,0.5l0,0c0,0.3-0.2,0.5-0.5,0.5l0,0C477.5,411.4,477.2,411.2,477.2,410.9z M470.9,410.9c0-0.3,0.2-0.5,0.5-0.5
		l0,0c0.3,0,0.5,0.2,0.5,0.5l0,0c0,0.3-0.2,0.5-0.5,0.5l0,0C471.1,411.4,470.9,411.2,470.9,410.9z M464.5,410.9
		c0-0.3,0.2-0.5,0.5-0.5l0,0c0.3,0,0.5,0.2,0.5,0.5l0,0c0,0.3-0.2,0.5-0.5,0.5l0,0C464.8,411.4,464.5,411.2,464.5,410.9z
		 M458.2,410.9c0-0.3,0.2-0.5,0.5-0.5l0,0c0.3,0,0.5,0.2,0.5,0.5l0,0c0,0.3-0.2,0.5-0.5,0.5l0,0
		C458.4,411.4,458.2,411.2,458.2,410.9z M451.8,410.9c0-0.3,0.2-0.5,0.5-0.5l0,0c0.3,0,0.5,0.2,0.5,0.5l0,0c0,0.3-0.2,0.5-0.5,0.5
		l0,0C452,411.4,451.8,411.2,451.8,410.9z M445.5,410.9c0-0.3,0.2-0.5,0.5-0.5l0,0c0.3,0,0.5,0.2,0.5,0.5l0,0c0,0.3-0.2,0.5-0.5,0.5
		l0,0C445.7,411.4,445.5,411.2,445.5,410.9z M439.1,410.9c0-0.3,0.2-0.5,0.5-0.5l0,0c0.3,0,0.5,0.2,0.5,0.5l0,0
		c0,0.3-0.2,0.5-0.5,0.5l0,0C439.3,411.4,439.1,411.2,439.1,410.9z M432.7,410.9c0-0.3,0.2-0.5,0.5-0.5l0,0c0.3,0,0.5,0.2,0.5,0.5
		l0,0c0,0.3-0.2,0.5-0.5,0.5l0,0C432.9,411.4,432.7,411.2,432.7,410.9z M426.4,410.9c0-0.3,0.2-0.5,0.5-0.5l0,0
		c0.3,0,0.5,0.2,0.5,0.5l0,0c0,0.3-0.2,0.5-0.5,0.5l0,0C426.7,411.4,426.4,411.2,426.4,410.9z M420.5,411.1L420.5,411.1L420.5,411.1
		c-0.3,0-0.5-0.3-0.4-0.6l0,0c0-0.3,0.3-0.5,0.6-0.4l0,0c0.3,0,0.5,0.3,0.4,0.6l0,0C421.1,410.9,420.9,411.1,420.5,411.1
		L420.5,411.1L420.5,411.1z M699.4,410.5c0-0.3,0.1-0.5,0.4-0.6l0,0c0.3,0,0.5,0.1,0.6,0.4l0,0c0,0.3-0.1,0.5-0.4,0.6l0,0H700l0,0
		C699.7,411,699.4,410.9,699.4,410.5z M414.3,409.4L414.3,409.4L414.3,409.4c-0.3-0.1-0.4-0.4-0.3-0.7l0,0c0.1-0.2,0.4-0.4,0.6-0.3
		l0,0c0.3,0.1,0.4,0.4,0.3,0.6l0,0c-0.1,0.2-0.3,0.3-0.5,0.3l0,0C414.4,409.4,414.4,409.4,414.3,409.4z M705.5,408.8
		c-0.1-0.3,0-0.5,0.3-0.7l0,0c0.3-0.1,0.5,0,0.7,0.3l0,0c0.1,0.2,0,0.6-0.3,0.7l0,0l0,0l0,0c-0.1,0-0.1,0-0.2,0l0,0
		C705.8,409.2,705.6,409.1,705.5,408.8z M408.7,406.2c-0.2-0.2-0.3-0.5-0.1-0.7l0,0c0.2-0.2,0.5-0.3,0.7-0.1l0,0
		c0.2,0.2,0.3,0.5,0.1,0.7l0,0c-0.1,0.1-0.2,0.2-0.4,0.2l0,0C408.9,406.3,408.8,406.2,408.7,406.2z M711.1,405.8
		c-0.2-0.2-0.1-0.5,0.1-0.7l0,0c0.2-0.2,0.5-0.1,0.7,0.1l0,0c0.2,0.2,0.1,0.5-0.1,0.7l0,0l0,0l0,0c-0.1,0.1-0.2,0.1-0.3,0.1l0,0
		C711.3,406,711.2,406,711.1,405.8z M404,401.7c-0.2-0.2-0.2-0.5,0.1-0.7l0,0c0.2-0.2,0.5-0.2,0.7,0l0,0c0.2,0.2,0.2,0.5-0.1,0.7
		l0,0c-0.1,0.1-0.2,0.1-0.3,0.1l0,0C404.2,401.9,404.1,401.8,404,401.7z M715.8,401.5c-0.2-0.2-0.2-0.5-0.1-0.7l0,0
		c0.2-0.2,0.5-0.2,0.7-0.1l0,0c0.2,0.2,0.2,0.5,0.1,0.7l0,0l0,0l0,0c-0.1,0.1-0.2,0.2-0.4,0.2l0,0
		C716,401.6,715.8,401.6,715.8,401.5z M400.4,396.3c-0.1-0.2,0-0.5,0.2-0.7l0,0c0.2-0.1,0.6,0,0.7,0.2l0,0c0.1,0.2,0,0.5-0.2,0.7
		l0,0c-0.1,0-0.1,0.1-0.2,0.1l0,0C400.7,396.6,400.5,396.5,400.4,396.3z M719.3,396.2c-0.2-0.1-0.4-0.4-0.2-0.7l0,0
		c0.1-0.2,0.4-0.4,0.7-0.2l0,0c0.2,0.1,0.3,0.4,0.2,0.7l0,0c-0.1,0.2-0.3,0.3-0.5,0.3l0,0C719.4,396.3,719.3,396.3,719.3,396.2z
		 M398.2,390.3L398.2,390.3L398.2,390.3c-0.1-0.3,0.1-0.5,0.4-0.6l0,0c0.3-0.1,0.5,0.1,0.6,0.4l0,0c0,0.3-0.1,0.5-0.4,0.6l0,0h-0.1
		l0,0C398.5,390.7,398.3,390.5,398.2,390.3z M721.4,390.3c-0.3,0-0.4-0.3-0.4-0.6l0,0c0-0.3,0.3-0.4,0.6-0.4l0,0
		c0.3,0,0.4,0.3,0.4,0.6l0,0l0,0l0,0c0,0.2-0.2,0.4-0.5,0.4l0,0C721.5,390.3,721.4,390.3,721.4,390.3z M397.5,383.9
		c0-0.3,0.2-0.5,0.5-0.5l0,0c0.3,0,0.5,0.2,0.5,0.5l0,0c0,0.3-0.2,0.5-0.5,0.5l0,0C397.7,384.4,397.5,384.1,397.5,383.9z
		 M721.6,383.5c0-0.3,0.2-0.5,0.5-0.5l0,0c0.3,0,0.5,0.2,0.5,0.5l0,0c0,0.3-0.2,0.5-0.5,0.5l0,0C721.8,384,721.6,383.7,721.6,383.5z
		 M397.5,377.6c0-0.3,0.2-0.5,0.5-0.5l0,0c0.3,0,0.5,0.2,0.5,0.5l0,0c0,0.3-0.2,0.5-0.5,0.5l0,0
		C397.7,378.1,397.5,377.8,397.5,377.6z M721.6,377.1c0-0.3,0.2-0.5,0.5-0.5l0,0c0.3,0,0.5,0.2,0.5,0.5l0,0c0,0.3-0.2,0.5-0.5,0.5
		l0,0C721.8,377.7,721.6,377.3,721.6,377.1z M397.5,371.2c0-0.3,0.2-0.5,0.5-0.5l0,0c0.3,0,0.5,0.2,0.5,0.5l0,0
		c0,0.3-0.2,0.5-0.5,0.5l0,0C397.7,371.7,397.5,371.5,397.5,371.2z M721.6,370.8c0-0.3,0.2-0.5,0.5-0.5l0,0c0.3,0,0.5,0.2,0.5,0.5
		l0,0c0,0.3-0.2,0.5-0.5,0.5l0,0C721.8,371.3,721.6,371.1,721.6,370.8z M397.5,364.8c0-0.3,0.2-0.5,0.5-0.5l0,0
		c0.3,0,0.5,0.2,0.5,0.5l0,0c0,0.3-0.2,0.5-0.5,0.5l0,0C397.7,365.4,397.5,365.1,397.5,364.8z M721.6,364.4c0-0.3,0.2-0.5,0.5-0.5
		l0,0c0.3,0,0.5,0.2,0.5,0.5l0,0c0,0.3-0.2,0.5-0.5,0.5l0,0C721.8,364.9,721.6,364.7,721.6,364.4z M397.5,358.5
		c0-0.3,0.2-0.5,0.5-0.5l0,0c0.3,0,0.5,0.2,0.5,0.5l0,0c0,0.3-0.2,0.5-0.5,0.5l0,0C397.7,359,397.5,358.8,397.5,358.5z M721.6,358
		c0-0.3,0.2-0.5,0.5-0.5l0,0c0.3,0,0.5,0.2,0.5,0.5l0,0c0,0.3-0.2,0.5-0.5,0.5l0,0C721.8,358.6,721.6,358.4,721.6,358z M397.5,352.1
		c0-0.3,0.2-0.5,0.5-0.5l0,0c0.3,0,0.5,0.2,0.5,0.5l0,0c0,0.3-0.2,0.5-0.5,0.5l0,0C397.7,352.6,397.5,352.4,397.5,352.1z
		 M721.6,351.7c0-0.3,0.2-0.5,0.5-0.5l0,0c0.3,0,0.5,0.2,0.5,0.5l0,0c0,0.3-0.2,0.5-0.5,0.5l0,0C721.8,352.2,721.6,352,721.6,351.7z
		 M397.5,345.7c0-0.3,0.2-0.5,0.5-0.5l0,0c0.3,0,0.5,0.2,0.5,0.5l0,0c0,0.3-0.2,0.5-0.5,0.5l0,0
		C397.7,346.3,397.5,346.1,397.5,345.7z M721.6,345.3c0-0.3,0.2-0.5,0.5-0.5l0,0c0.3,0,0.5,0.2,0.5,0.5l0,0c0,0.3-0.2,0.5-0.5,0.5
		l0,0C721.8,345.8,721.6,345.6,721.6,345.3z M397.5,339.4c0-0.3,0.2-0.5,0.5-0.5l0,0c0.3,0,0.5,0.2,0.5,0.5l0,0
		c0,0.3-0.2,0.5-0.5,0.5l0,0C397.7,339.9,397.5,339.7,397.5,339.4z M721.6,339.1c0-0.3,0.2-0.5,0.5-0.5l0,0c0.3,0,0.5,0.2,0.5,0.5
		l0,0c0,0.3-0.2,0.5-0.5,0.5l0,0C721.8,339.6,721.6,339.3,721.6,339.1z M397.5,333.1c0-0.3,0.2-0.5,0.5-0.5l0,0
		c0.3,0,0.5,0.2,0.5,0.5l0,0c0,0.3-0.2,0.5-0.5,0.5l0,0C397.7,333.6,397.5,333.3,397.5,333.1z M721.6,332.7c0-0.3,0.2-0.5,0.5-0.5
		l0,0c0.3,0,0.5,0.2,0.5,0.5l0,0c0,0.3-0.2,0.5-0.5,0.5l0,0C721.8,333.2,721.6,332.9,721.6,332.7z M397.5,326.8
		c0-0.3,0.2-0.5,0.5-0.5l0,0c0.3,0,0.5,0.2,0.5,0.5l0,0c0,0.3-0.2,0.5-0.5,0.5l0,0C397.7,327.3,397.5,327,397.5,326.8z M721.6,326.3
		c0-0.3,0.2-0.5,0.5-0.5l0,0c0.3,0,0.5,0.2,0.5,0.5l0,0c0,0.3-0.2,0.5-0.5,0.5l0,0C721.8,326.9,721.6,326.7,721.6,326.3z
		 M397.5,320.4c0-0.3,0.2-0.5,0.5-0.5l0,0c0.3,0,0.5,0.2,0.5,0.5l0,0c0,0.3-0.2,0.5-0.5,0.5l0,0
		C397.7,320.9,397.5,320.7,397.5,320.4z M721.6,320c0-0.3,0.2-0.5,0.5-0.5l0,0c0.3,0,0.5,0.2,0.5,0.5l0,0c0,0.3-0.2,0.5-0.5,0.5l0,0
		C721.8,320.5,721.6,320.3,721.6,320z M397.5,314c0-0.3,0.2-0.5,0.5-0.5l0,0c0.3,0,0.5,0.2,0.5,0.5l0,0c0,0.3-0.2,0.5-0.5,0.5l0,0
		C397.7,314.6,397.5,314.3,397.5,314z M721.6,313.6c0-0.3,0.2-0.5,0.5-0.5l0,0c0.3,0,0.5,0.2,0.5,0.5l0,0c0,0.3-0.2,0.5-0.5,0.5l0,0
		C721.8,314.1,721.6,313.9,721.6,313.6z M397.5,307.7c0-0.3,0.2-0.5,0.5-0.5l0,0c0.3,0,0.5,0.2,0.5,0.5l0,0c0,0.3-0.2,0.5-0.5,0.5
		l0,0C397.7,308.2,397.5,308,397.5,307.7z M721.6,307.2c0-0.3,0.2-0.5,0.5-0.5l0,0c0.3,0,0.5,0.2,0.5,0.5l0,0c0,0.3-0.2,0.5-0.5,0.5
		l0,0C721.8,307.8,721.6,307.6,721.6,307.2z M397.5,301.3c0-0.3,0.2-0.5,0.5-0.5l0,0c0.3,0,0.5,0.2,0.5,0.5l0,0
		c0,0.3-0.2,0.5-0.5,0.5l0,0C397.7,301.8,397.5,301.6,397.5,301.3z M721.6,300.9c0-0.3,0.2-0.5,0.5-0.5l0,0c0.3,0,0.5,0.2,0.5,0.5
		l0,0c0,0.3-0.2,0.5-0.5,0.5l0,0C721.8,301.4,721.6,301.2,721.6,300.9z M397.5,294.9c0-0.3,0.2-0.5,0.5-0.5l0,0
		c0.3,0,0.5,0.2,0.5,0.5l0,0c0,0.3-0.2,0.5-0.5,0.5l0,0C397.7,295.5,397.5,295.3,397.5,294.9z M721.6,294.5c0-0.3,0.2-0.5,0.5-0.5
		l0,0c0.3,0,0.5,0.2,0.5,0.5l0,0c0,0.3-0.2,0.5-0.5,0.5l0,0C721.8,295,721.6,294.8,721.6,294.5z M397.5,288.7c0-0.3,0.2-0.5,0.5-0.5
		l0,0c0.3,0,0.5,0.2,0.5,0.5l0,0c0,0.3-0.2,0.5-0.5,0.5l0,0C397.7,289.2,397.5,288.9,397.5,288.7z M721.6,288.3
		c0-0.3,0.2-0.5,0.5-0.5l0,0c0.3,0,0.5,0.2,0.5,0.5l0,0c0,0.3-0.2,0.5-0.5,0.5l0,0C721.8,288.8,721.6,288.5,721.6,288.3z
		 M397.5,282.3c0-0.3,0.2-0.5,0.5-0.5l0,0c0.3,0,0.5,0.2,0.5,0.5l0,0c0,0.3-0.2,0.5-0.5,0.5l0,0
		C397.7,282.9,397.5,282.5,397.5,282.3z M721.6,281.9c0-0.3,0.2-0.5,0.5-0.5l0,0c0.3,0,0.5,0.2,0.5,0.5l0,0c0,0.3-0.2,0.5-0.5,0.5
		l0,0C721.8,282.4,721.6,282.1,721.6,281.9z M397.5,276c0-0.3,0.2-0.5,0.5-0.5l0,0c0.3,0,0.5,0.2,0.5,0.5l0,0c0,0.3-0.2,0.5-0.5,0.5
		l0,0C397.7,276.5,397.5,276.2,397.5,276z M721.6,275.5c0-0.3,0.2-0.5,0.5-0.5l0,0c0.3,0,0.5,0.2,0.5,0.5l0,0c0,0.3-0.2,0.5-0.5,0.5
		l0,0C721.8,276.1,721.6,275.9,721.6,275.5z M397.5,269.6c0-0.3,0.2-0.5,0.5-0.5l0,0c0.3,0,0.5,0.2,0.5,0.5l0,0
		c0,0.3-0.2,0.5-0.5,0.5l0,0C397.7,270.1,397.5,269.9,397.5,269.6z M721.6,269.2c0-0.3,0.2-0.5,0.5-0.5l0,0c0.3,0,0.5,0.2,0.5,0.5
		l0,0c0,0.3-0.2,0.5-0.5,0.5l0,0C721.8,269.7,721.6,269.5,721.6,269.2z M397.5,263.2c0-0.3,0.2-0.5,0.5-0.5l0,0
		c0.3,0,0.5,0.2,0.5,0.5l0,0c0,0.3-0.2,0.5-0.5,0.5l0,0C397.7,263.8,397.5,263.6,397.5,263.2z M721.6,262.8c0-0.3,0.2-0.5,0.5-0.5
		l0,0c0.3,0,0.5,0.2,0.5,0.5l0,0c0,0.3-0.2,0.5-0.5,0.5l0,0C721.8,263.3,721.6,263.1,721.6,262.8z M397.5,256.9
		c0-0.3,0.2-0.5,0.5-0.5l0,0c0.3,0,0.5,0.2,0.5,0.5l0,0c0,0.3-0.2,0.5-0.5,0.5l0,0C397.7,257.4,397.5,257.2,397.5,256.9z
		 M721.6,256.4c0-0.3,0.2-0.5,0.5-0.5l0,0c0.3,0,0.5,0.2,0.5,0.5l0,0c0,0.3-0.2,0.5-0.5,0.5l0,0C721.8,257,721.6,256.8,721.6,256.4z
		 M397.5,250.5c0-0.3,0.2-0.5,0.5-0.5l0,0c0.3,0,0.5,0.2,0.5,0.5l0,0c0,0.3-0.2,0.5-0.5,0.5l0,0C397.7,251,397.5,250.8,397.5,250.5z
		 M721.6,250.1c0-0.3,0.2-0.5,0.5-0.5l0,0c0.3,0,0.5,0.2,0.5,0.5l0,0c0,0.3-0.2,0.5-0.5,0.5l0,0
		C721.8,250.6,721.6,250.4,721.6,250.1z M398.3,244.7c-0.3,0-0.5-0.3-0.5-0.5l0,0c0-0.3,0.3-0.5,0.5-0.5l0,0c0.3,0,0.5,0.3,0.5,0.5
		l0,0C398.8,244.5,398.5,244.7,398.3,244.7L398.3,244.7L398.3,244.7z M721.6,243.7c0-0.3,0.2-0.5,0.5-0.5l0,0c0.3,0,0.5,0.2,0.5,0.5
		l0,0c0,0.3-0.2,0.5-0.5,0.5l0,0C721.8,244.3,721.6,244,721.6,243.7z M398.9,238.4c-0.3,0-0.5-0.3-0.4-0.6l0,0
		c0-0.3,0.3-0.5,0.6-0.4l0,0c0.3,0,0.5,0.3,0.4,0.6l0,0C399.4,238.2,399.2,238.4,398.9,238.4L398.9,238.4L398.9,238.4z M721.6,237.5
		c0-0.3,0.2-0.5,0.5-0.5l0,0c0.3,0,0.5,0.2,0.5,0.5l0,0c0,0.3-0.2,0.5-0.5,0.5l0,0C721.8,238,721.6,237.7,721.6,237.5z M400.2,232.2
		c-0.3-0.1-0.4-0.3-0.3-0.6l0,0l0,0l0,0c0.1-0.3,0.4-0.4,0.6-0.3l0,0c0.3,0.1,0.4,0.4,0.3,0.6l0,0c-0.1,0.2-0.3,0.4-0.5,0.4l0,0
		C400.3,232.2,400.2,232.2,400.2,232.2z M721.6,231.1c0-0.3,0.2-0.5,0.5-0.5l0,0c0.3,0,0.5,0.2,0.5,0.5l0,0c0,0.3-0.2,0.5-0.5,0.5
		l0,0C721.8,231.6,721.6,231.4,721.6,231.1z M402.5,226.3c-0.2-0.2-0.3-0.5-0.1-0.7l0,0c0.2-0.2,0.5-0.3,0.7-0.1l0,0
		c0.2,0.2,0.3,0.5,0.1,0.7l0,0c-0.1,0.1-0.3,0.2-0.4,0.2l0,0C402.7,226.4,402.6,226.3,402.5,226.3z M721.6,224.7
		c0-0.3,0.2-0.5,0.5-0.5l0,0c0.3,0,0.5,0.2,0.5,0.5l0,0c0,0.3-0.2,0.5-0.5,0.5l0,0C721.8,225.3,721.6,225.1,721.6,224.7z M407.6,223
		c-0.2-0.2-0.1-0.5,0.1-0.7l0,0c0.2-0.2,0.5-0.1,0.7,0.1l0,0c0.2,0.2,0.1,0.5-0.1,0.7l0,0c-0.1,0.1-0.2,0.1-0.3,0.1l0,0
		C407.8,223.3,407.7,223.3,407.6,223z M721.6,218.4c0-0.3,0.2-0.5,0.5-0.5l0,0c0.3,0,0.5,0.2,0.5,0.5l0,0c0,0.3-0.2,0.5-0.5,0.5l0,0
		C721.8,218.9,721.6,218.7,721.6,218.4z M411.1,218c-0.3-0.1-0.4-0.4-0.3-0.6l0,0c0.1-0.3,0.4-0.4,0.7-0.3l0,0
		c0.2,0.1,0.4,0.4,0.3,0.6l0,0c-0.1,0.2-0.3,0.3-0.5,0.3l0,0C411.2,218,411.2,218,411.1,218z M721.6,212c0-0.3,0.2-0.5,0.5-0.5l0,0
		c0.3,0,0.5,0.2,0.5,0.5l0,0c0,0.3-0.2,0.5-0.5,0.5l0,0C721.8,212.5,721.6,212.3,721.6,212z M412.9,211.8c-0.3-0.1-0.5-0.3-0.4-0.6
		l0,0c0-0.3,0.3-0.5,0.6-0.4l0,0c0.3,0,0.5,0.3,0.4,0.6l0,0C413.4,211.6,413.2,211.8,412.9,211.8L412.9,211.8L412.9,211.8z
		 M721.6,205.6c0-0.3,0.2-0.5,0.5-0.5l0,0c0.3,0,0.5,0.2,0.5,0.5l0,0c0,0.3-0.2,0.5-0.5,0.5l0,0C721.8,206.2,721.6,206,721.6,205.6z
		 M413.9,205.5c-0.3,0-0.5-0.3-0.5-0.5l0,0c0-0.3,0.3-0.5,0.5-0.5l0,0c0.3,0,0.5,0.3,0.5,0.5l0,0
		C414.4,205.3,414.2,205.5,413.9,205.5L413.9,205.5L413.9,205.5z M721.6,199.3c0-0.3,0.2-0.5,0.5-0.5l0,0c0.3,0,0.5,0.2,0.5,0.5l0,0
		c0,0.3-0.2,0.5-0.5,0.5l0,0C721.8,199.8,721.6,199.6,721.6,199.3z M414.3,199.2c-0.3,0-0.5-0.2-0.5-0.5l0,0c0-0.3,0.2-0.5,0.5-0.5
		l0,0c0.3,0,0.5,0.2,0.5,0.5l0,0C414.8,199,414.6,199.2,414.3,199.2L414.3,199.2L414.3,199.2z M414.8,198.6L414.8,198.6L414.8,198.6
		L414.8,198.6z M721.6,193c0-0.3,0.2-0.5,0.5-0.5l0,0c0.3,0,0.5,0.2,0.5,0.5l0,0c0,0.3-0.2,0.5-0.5,0.5l0,0
		C721.8,193.5,721.6,193.2,721.6,193z M413.7,192.3c0-0.3,0.2-0.5,0.5-0.5l0,0c0.3,0,0.5,0.2,0.5,0.5l0,0c0,0.3-0.2,0.5-0.5,0.5l0,0
		C414,192.8,413.7,192.6,413.7,192.3z M721.6,186.7c0-0.3,0.2-0.5,0.5-0.5l0,0c0.3,0,0.5,0.2,0.5,0.5l0,0c0,0.3-0.2,0.5-0.5,0.5l0,0
		C721.8,187.2,721.6,186.9,721.6,186.7z M413.7,185.9c0-0.3,0.2-0.5,0.5-0.5l0,0c0.3,0,0.5,0.2,0.5,0.5l0,0c0,0.3-0.2,0.5-0.5,0.5
		l0,0C414,186.5,413.7,186.2,413.7,185.9z M721.6,180.3c0-0.3,0.2-0.5,0.5-0.5l0,0c0.3,0,0.5,0.2,0.5,0.5l0,0c0,0.3-0.2,0.5-0.5,0.5
		l0,0C721.8,180.8,721.6,180.5,721.6,180.3z M413.7,179.6c0-0.3,0.2-0.5,0.5-0.5l0,0c0.3,0,0.5,0.2,0.5,0.5l0,0
		c0,0.3-0.2,0.5-0.5,0.5l0,0C414,180.1,413.7,179.9,413.7,179.6z M721.6,173.9c0-0.3,0.2-0.5,0.5-0.5l0,0c0.3,0,0.5,0.2,0.5,0.5l0,0
		c0,0.3-0.2,0.5-0.5,0.5l0,0C721.8,174.5,721.6,174.3,721.6,173.9z M413.7,173.3c0-0.3,0.2-0.5,0.5-0.5l0,0c0.3,0,0.5,0.2,0.5,0.5
		l0,0c0,0.3-0.2,0.5-0.5,0.5l0,0C414,173.8,413.7,173.5,413.7,173.3z M721.6,167.6c0-0.3,0.2-0.5,0.5-0.5l0,0c0.3,0,0.5,0.2,0.5,0.5
		l0,0c0,0.3-0.2,0.5-0.5,0.5l0,0C721.8,168.1,721.6,167.9,721.6,167.6z M413.7,166.9c0-0.3,0.2-0.5,0.5-0.5l0,0
		c0.3,0,0.5,0.2,0.5,0.5l0,0c0,0.3-0.2,0.5-0.5,0.5l0,0C414,167.5,413.7,167.3,413.7,166.9z M721.6,161.2c0-0.3,0.2-0.5,0.5-0.5l0,0
		c0.3,0,0.5,0.2,0.5,0.5l0,0c0,0.3-0.2,0.5-0.5,0.5l0,0C721.8,161.7,721.6,161.5,721.6,161.2z M413.7,160.6c0-0.3,0.2-0.5,0.5-0.5
		l0,0c0.3,0,0.5,0.2,0.5,0.5l0,0c0,0.3-0.2,0.5-0.5,0.5l0,0C414,161.1,413.7,160.9,413.7,160.6z M721.6,154.9c0-0.3,0.2-0.5,0.5-0.5
		l0,0c0.3,0,0.5,0.2,0.5,0.5l0,0c0,0.3-0.2,0.5-0.5,0.5l0,0C721.8,155.4,721.6,155.2,721.6,154.9z M413.7,154.2
		c0-0.3,0.2-0.5,0.5-0.5l0,0c0.3,0,0.5,0.2,0.5,0.5l0,0c0,0.3-0.2,0.5-0.5,0.5l0,0C414,154.7,413.7,154.5,413.7,154.2z M721.6,148.5
		c0-0.3,0.2-0.5,0.5-0.5l0,0c0.3,0,0.5,0.2,0.5,0.5l0,0c0,0.3-0.2,0.5-0.5,0.5l0,0C721.8,149,721.6,148.8,721.6,148.5z M413.7,147.9
		c0-0.3,0.2-0.5,0.5-0.5l0,0c0.3,0,0.5,0.2,0.5,0.5l0,0c0,0.3-0.2,0.5-0.5,0.5l0,0C414,148.4,413.7,148.2,413.7,147.9z M721.6,142.1
		c0-0.3,0.2-0.5,0.5-0.5l0,0c0.3,0,0.5,0.2,0.5,0.5l0,0c0,0.3-0.2,0.5-0.5,0.5l0,0C721.8,142.7,721.6,142.4,721.6,142.1z
		 M413.7,141.5c0-0.3,0.2-0.5,0.5-0.5l0,0c0.3,0,0.5,0.2,0.5,0.5l0,0c0,0.3-0.2,0.5-0.5,0.5l0,0C414,142,413.7,141.8,413.7,141.5z
		 M721.6,135.9c0-0.3,0.2-0.5,0.5-0.5l0,0c0.3,0,0.5,0.2,0.5,0.5l0,0c0,0.3-0.2,0.5-0.5,0.5l0,0
		C721.8,136.4,721.6,136.1,721.6,135.9z M413.7,135.1c0-0.3,0.2-0.5,0.5-0.5l0,0c0.3,0,0.5,0.2,0.5,0.5l0,0c0,0.3-0.2,0.5-0.5,0.5
		l0,0C414,135.7,413.7,135.4,413.7,135.1z M721.6,129.5c0-0.3,0.2-0.5,0.5-0.5l0,0c0.3,0,0.5,0.2,0.5,0.5l0,0c0,0.3-0.2,0.5-0.5,0.5
		l0,0C721.8,130,721.6,129.7,721.6,129.5z M413.7,128.8c0-0.3,0.2-0.5,0.5-0.5l0,0c0.3,0,0.5,0.2,0.5,0.5l0,0c0,0.3-0.2,0.5-0.5,0.5
		l0,0C414,129.4,413.7,129.1,413.7,128.8z M721.6,123.1c0-0.3,0.2-0.5,0.5-0.5l0,0c0.3,0,0.5,0.2,0.5,0.5l0,0c0,0.3-0.2,0.5-0.5,0.5
		l0,0C721.8,123.7,721.6,123.5,721.6,123.1z M413.7,122.5c0-0.3,0.2-0.5,0.5-0.5l0,0c0.3,0,0.5,0.2,0.5,0.5l0,0
		c0,0.3-0.2,0.5-0.5,0.5l0,0C414,123,413.7,122.7,413.7,122.5z M721.6,116.8c0-0.3,0.2-0.5,0.5-0.5l0,0c0.3,0,0.5,0.2,0.5,0.5l0,0
		c0,0.3-0.2,0.5-0.5,0.5l0,0C721.8,117.3,721.6,117.1,721.6,116.8z M413.7,116.1c0-0.3,0.2-0.5,0.5-0.5l0,0c0.3,0,0.5,0.2,0.5,0.5
		l0,0c0,0.3-0.2,0.5-0.5,0.5l0,0C414,116.7,413.7,116.5,413.7,116.1z M721.6,110.4c0-0.3,0.2-0.5,0.5-0.5l0,0c0.3,0,0.5,0.2,0.5,0.5
		l0,0c0,0.3-0.2,0.5-0.5,0.5l0,0C721.8,110.9,721.6,110.7,721.6,110.4z M413.7,109.8c0-0.3,0.2-0.5,0.5-0.5l0,0
		c0.3,0,0.5,0.2,0.5,0.5l0,0c0,0.3-0.2,0.5-0.5,0.5l0,0C414,110.3,413.7,110.1,413.7,109.8z M721.6,104.1c0-0.3,0.2-0.5,0.5-0.5l0,0
		c0.3,0,0.5,0.2,0.5,0.5l0,0c0,0.3-0.2,0.5-0.5,0.5l0,0C721.8,104.6,721.6,104.4,721.6,104.1z M413.7,103.4c0-0.3,0.2-0.5,0.5-0.5
		l0,0c0.3,0,0.5,0.2,0.5,0.5l0,0c0,0.3-0.2,0.5-0.5,0.5l0,0C414,103.9,413.7,103.7,413.7,103.4z M721.6,97.7c0-0.3,0.2-0.5,0.5-0.5
		l0,0c0.3,0,0.5,0.2,0.5,0.5l0,0c0,0.3-0.2,0.5-0.5,0.5l0,0C721.8,98.2,721.6,98,721.6,97.7z M413.7,97.1c0-0.3,0.2-0.5,0.5-0.5l0,0
		c0.3,0,0.5,0.2,0.5,0.5l0,0c0,0.3-0.2,0.5-0.5,0.5l0,0C414,97.6,413.7,97.4,413.7,97.1z M721.3,91.4L721.3,91.4
		c0-0.3,0.2-0.5,0.4-0.6l0,0c0.3,0,0.5,0.2,0.6,0.4l0,0c0,0.3-0.2,0.5-0.4,0.6l0,0c0,0,0,0-0.1,0l0,0
		C721.6,92,721.4,91.8,721.3,91.4z M414.5,91.2c-0.3,0-0.5-0.3-0.4-0.6l0,0c0-0.3,0.3-0.5,0.6-0.4l0,0c0.3,0,0.5,0.3,0.4,0.6l0,0
		C415.1,91.1,414.9,91.2,414.5,91.2L414.5,91.2C414.6,91.2,414.6,91.2,414.5,91.2z M719.8,85.5c-0.1-0.3,0-0.6,0.3-0.7l0,0
		c0.3-0.1,0.5,0,0.6,0.3l0,0c0.1,0.3,0,0.5-0.3,0.6l0,0c-0.1,0-0.1,0-0.2,0l0,0C720,85.8,719.8,85.7,719.8,85.5z M416.2,85.2
		c-0.3-0.1-0.4-0.4-0.3-0.7l0,0l0,0l0,0c0.1-0.2,0.4-0.4,0.7-0.3l0,0c0.2,0.1,0.4,0.4,0.3,0.7l0,0c-0.1,0.2-0.3,0.3-0.5,0.3l0,0
		C416.3,85.2,416.2,85.2,416.2,85.2z M716.8,80c-0.2-0.2-0.1-0.5,0.1-0.7l0,0c0.2-0.2,0.5-0.1,0.7,0.1l0,0l0,0l0,0
		c0.2,0.2,0.1,0.5-0.1,0.7l0,0c-0.1,0.1-0.2,0.1-0.3,0.1l0,0C717,80.2,716.9,80.2,716.8,80z M419.2,79.6c-0.2-0.2-0.3-0.5-0.1-0.7
		l0,0c0.2-0.2,0.5-0.3,0.7-0.1l0,0c0.2,0.2,0.3,0.5,0.1,0.7l0,0c-0.1,0.1-0.2,0.2-0.4,0.2l0,0C419.4,79.7,419.3,79.7,419.2,79.6z
		 M712.7,75.4L712.7,75.4c-0.2-0.2-0.2-0.5,0-0.7l0,0c0.2-0.2,0.5-0.2,0.7,0l0,0c0.2,0.2,0.2,0.5,0,0.7l0,0
		c-0.1,0.1-0.2,0.2-0.4,0.2l0,0C712.9,75.5,712.8,75.5,712.7,75.4z M423.4,74.9c-0.2-0.2-0.1-0.5,0.1-0.7l0,0
		c0.2-0.2,0.5-0.1,0.7,0.1l0,0c0.2,0.2,0.1,0.5-0.1,0.7l0,0c-0.1,0.1-0.2,0.1-0.3,0.1l0,0C423.7,75.1,423.6,75,423.4,74.9z
		 M707.5,71.9c-0.2-0.1-0.3-0.4-0.2-0.7l0,0c0.1-0.2,0.4-0.3,0.7-0.2l0,0c0.2,0.1,0.3,0.4,0.2,0.7l0,0c-0.1,0.2-0.3,0.3-0.5,0.3l0,0
		C707.7,71.9,707.6,71.9,707.5,71.9z M428.7,71.4c-0.1-0.2,0-0.5,0.2-0.7l0,0l0,0l0,0c0.2-0.1,0.5,0,0.7,0.2l0,0
		c0.1,0.2,0,0.5-0.2,0.7l0,0c-0.1,0-0.2,0.1-0.2,0.1l0,0C429,71.6,428.8,71.5,428.7,71.4z M701.8,69.7L701.8,69.7
		c-0.3-0.1-0.4-0.3-0.4-0.6l0,0c0.1-0.3,0.3-0.4,0.6-0.4l0,0c0.3,0.1,0.4,0.3,0.4,0.6l0,0c0,0.2-0.3,0.4-0.5,0.4l0,0
		C701.8,69.7,701.8,69.7,701.8,69.7z M434.6,69.2c-0.1-0.3,0.1-0.5,0.4-0.6l0,0c0.3-0.1,0.5,0.1,0.6,0.4l0,0
		c0.1,0.3-0.1,0.5-0.4,0.6l0,0h-0.1l0,0C434.9,69.6,434.6,69.4,434.6,69.2z M695.5,69C695.5,69,695.4,69,695.5,69L695.5,69
		c-0.3,0-0.6-0.2-0.6-0.5l0,0c0-0.3,0.2-0.5,0.5-0.5l0,0c0,0,0,0,0.1,0l0,0c0,0,0,0,0.1,0l0,0l0,0l0,0c0.3,0,0.5,0.2,0.5,0.5l0,0
		C696.2,68.7,695.8,69,695.5,69L695.5,69L695.5,69z M688.5,68.4c0-0.3,0.2-0.5,0.5-0.5l0,0c0.3,0,0.5,0.2,0.5,0.5l0,0
		c0,0.3-0.2,0.5-0.5,0.5l0,0C688.7,69,688.5,68.7,688.5,68.4z M682.2,68.4c0-0.3,0.2-0.5,0.5-0.5l0,0c0.3,0,0.5,0.2,0.5,0.5l0,0
		c0,0.3-0.2,0.5-0.5,0.5l0,0C682.5,69,682.2,68.7,682.2,68.4z M675.8,68.4c0-0.3,0.2-0.5,0.5-0.5l0,0c0.3,0,0.5,0.2,0.5,0.5l0,0
		c0,0.3-0.2,0.5-0.5,0.5l0,0C676.1,69,675.8,68.7,675.8,68.4z M669.5,68.4c0-0.3,0.2-0.5,0.5-0.5l0,0c0.3,0,0.5,0.2,0.5,0.5l0,0
		c0,0.3-0.2,0.5-0.5,0.5l0,0C669.8,69,669.5,68.7,669.5,68.4z M663.2,68.4c0-0.3,0.2-0.5,0.5-0.5l0,0c0.3,0,0.5,0.2,0.5,0.5l0,0
		c0,0.3-0.2,0.5-0.5,0.5l0,0C663.4,69,663.2,68.7,663.2,68.4z M656.8,68.4c0-0.3,0.2-0.5,0.5-0.5l0,0c0.3,0,0.5,0.2,0.5,0.5l0,0
		c0,0.3-0.2,0.5-0.5,0.5l0,0C657,69,656.8,68.7,656.8,68.4z M650.4,68.4c0-0.3,0.2-0.5,0.5-0.5l0,0c0.3,0,0.5,0.2,0.5,0.5l0,0
		c0,0.3-0.2,0.5-0.5,0.5l0,0C650.7,69,650.4,68.7,650.4,68.4z M644.1,68.4c0-0.3,0.2-0.5,0.5-0.5l0,0c0.3,0,0.5,0.2,0.5,0.5l0,0
		c0,0.3-0.2,0.5-0.5,0.5l0,0C644.3,69,644.1,68.7,644.1,68.4z M637.7,68.4c0-0.3,0.2-0.5,0.5-0.5l0,0c0.3,0,0.5,0.2,0.5,0.5l0,0
		c0,0.3-0.2,0.5-0.5,0.5l0,0C637.9,69,637.7,68.7,637.7,68.4z M631.4,68.4c0-0.3,0.2-0.5,0.5-0.5l0,0c0.3,0,0.5,0.2,0.5,0.5l0,0
		c0,0.3-0.2,0.5-0.5,0.5l0,0C631.7,69,631.4,68.7,631.4,68.4z M625.1,68.4c0-0.3,0.2-0.5,0.5-0.5l0,0c0.3,0,0.5,0.2,0.5,0.5l0,0
		c0,0.3-0.2,0.5-0.5,0.5l0,0C625.3,69,625.1,68.7,625.1,68.4z M618.7,68.4c0-0.3,0.2-0.5,0.5-0.5l0,0c0.3,0,0.5,0.2,0.5,0.5l0,0
		c0,0.3-0.2,0.5-0.5,0.5l0,0C619,69,618.7,68.7,618.7,68.4z M612.4,68.4c0-0.3,0.2-0.5,0.5-0.5l0,0c0.3,0,0.5,0.2,0.5,0.5l0,0
		c0,0.3-0.2,0.5-0.5,0.5l0,0C612.6,69,612.4,68.7,612.4,68.4z M606,68.4c0-0.3,0.2-0.5,0.5-0.5l0,0c0.3,0,0.5,0.2,0.5,0.5l0,0
		c0,0.3-0.2,0.5-0.5,0.5l0,0C606.2,69,606,68.7,606,68.4z M599.7,68.4c0-0.3,0.2-0.5,0.5-0.5l0,0c0.3,0,0.5,0.2,0.5,0.5l0,0
		c0,0.3-0.2,0.5-0.5,0.5l0,0C599.9,69,599.7,68.7,599.7,68.4z M593.3,68.4c0-0.3,0.2-0.5,0.5-0.5l0,0c0.3,0,0.5,0.2,0.5,0.5l0,0
		c0,0.3-0.2,0.5-0.5,0.5l0,0C593.5,69,593.3,68.7,593.3,68.4z M586.9,68.4c0-0.3,0.2-0.5,0.5-0.5l0,0c0.3,0,0.5,0.2,0.5,0.5l0,0
		c0,0.3-0.2,0.5-0.5,0.5l0,0C587.2,69,586.9,68.7,586.9,68.4z M580.6,68.4c0-0.3,0.2-0.5,0.5-0.5l0,0c0.3,0,0.5,0.2,0.5,0.5l0,0
		c0,0.3-0.2,0.5-0.5,0.5l0,0C580.9,69,580.6,68.7,580.6,68.4z M574.3,68.4c0-0.3,0.2-0.5,0.5-0.5l0,0c0.3,0,0.5,0.2,0.5,0.5l0,0
		c0,0.3-0.2,0.5-0.5,0.5l0,0C574.5,69,574.3,68.7,574.3,68.4z M567.9,68.4c0-0.3,0.2-0.5,0.5-0.5l0,0c0.3,0,0.5,0.2,0.5,0.5l0,0
		c0,0.3-0.2,0.5-0.5,0.5l0,0C568.2,69,567.9,68.7,567.9,68.4z M561.6,68.4c0-0.3,0.2-0.5,0.5-0.5l0,0c0.3,0,0.5,0.2,0.5,0.5l0,0
		c0,0.3-0.2,0.5-0.5,0.5l0,0C561.8,69,561.6,68.7,561.6,68.4z M555.2,68.4c0-0.3,0.2-0.5,0.5-0.5l0,0c0.3,0,0.5,0.2,0.5,0.5l0,0
		c0,0.3-0.2,0.5-0.5,0.5l0,0C555.4,69,555.2,68.7,555.2,68.4z M548.9,68.4c0-0.3,0.2-0.5,0.5-0.5l0,0c0.3,0,0.5,0.2,0.5,0.5l0,0
		c0,0.3-0.2,0.5-0.5,0.5l0,0C549.1,69,548.9,68.7,548.9,68.4z M542.5,68.4c0-0.3,0.2-0.5,0.5-0.5l0,0c0.3,0,0.5,0.2,0.5,0.5l0,0
		c0,0.3-0.2,0.5-0.5,0.5l0,0C542.7,69,542.5,68.7,542.5,68.4z M536.1,68.4c0-0.3,0.2-0.5,0.5-0.5l0,0c0.3,0,0.5,0.2,0.5,0.5l0,0
		c0,0.3-0.2,0.5-0.5,0.5l0,0C536.4,69,536.1,68.7,536.1,68.4z M529.8,68.4c0-0.3,0.2-0.5,0.5-0.5l0,0c0.3,0,0.5,0.2,0.5,0.5l0,0
		c0,0.3-0.2,0.5-0.5,0.5l0,0C530.1,69,529.8,68.7,529.8,68.4z M523.5,68.4c0-0.3,0.2-0.5,0.5-0.5l0,0c0.3,0,0.5,0.2,0.5,0.5l0,0
		c0,0.3-0.2,0.5-0.5,0.5l0,0C523.7,69,523.5,68.7,523.5,68.4z M517.1,68.4c0-0.3,0.2-0.5,0.5-0.5l0,0c0.3,0,0.5,0.2,0.5,0.5l0,0
		c0,0.3-0.2,0.5-0.5,0.5l0,0C517.4,69,517.1,68.7,517.1,68.4z M510.8,68.4c0-0.3,0.2-0.5,0.5-0.5l0,0c0.3,0,0.5,0.2,0.5,0.5l0,0
		c0,0.3-0.2,0.5-0.5,0.5l0,0C511,69,510.8,68.7,510.8,68.4z M504.4,68.4c0-0.3,0.2-0.5,0.5-0.5l0,0c0.3,0,0.5,0.2,0.5,0.5l0,0
		c0,0.3-0.2,0.5-0.5,0.5l0,0C504.6,69,504.4,68.7,504.4,68.4z M498.1,68.4c0-0.3,0.2-0.5,0.5-0.5l0,0c0.3,0,0.5,0.2,0.5,0.5l0,0
		c0,0.3-0.2,0.5-0.5,0.5l0,0C498.3,69,498.1,68.7,498.1,68.4z M491.7,68.4c0-0.3,0.2-0.5,0.5-0.5l0,0c0.3,0,0.5,0.2,0.5,0.5l0,0
		c0,0.3-0.2,0.5-0.5,0.5l0,0C492,69,491.7,68.7,491.7,68.4z M485.3,68.4c0-0.3,0.2-0.5,0.5-0.5l0,0c0.3,0,0.5,0.2,0.5,0.5l0,0
		c0,0.3-0.2,0.5-0.5,0.5l0,0C485.6,69,485.3,68.7,485.3,68.4z M479,68.4c0-0.3,0.2-0.5,0.5-0.5l0,0c0.3,0,0.5,0.2,0.5,0.5l0,0
		c0,0.3-0.2,0.5-0.5,0.5l0,0C479.3,69,479,68.7,479,68.4z M472.7,68.4c0-0.3,0.2-0.5,0.5-0.5l0,0c0.3,0,0.5,0.2,0.5,0.5l0,0
		c0,0.3-0.2,0.5-0.5,0.5l0,0C472.9,69,472.7,68.7,472.7,68.4z M466.3,68.4c0-0.3,0.2-0.5,0.5-0.5l0,0c0.3,0,0.5,0.2,0.5,0.5l0,0
		c0,0.3-0.2,0.5-0.5,0.5l0,0C466.6,69,466.3,68.7,466.3,68.4z M460,68.4c0-0.3,0.2-0.5,0.5-0.5l0,0c0.3,0,0.5,0.2,0.5,0.5l0,0
		c0,0.3-0.2,0.5-0.5,0.5l0,0C460.2,69,460,68.7,460,68.4z M453.6,68.4c0-0.3,0.2-0.5,0.5-0.5l0,0c0.3,0,0.5,0.2,0.5,0.5l0,0
		c0,0.3-0.2,0.5-0.5,0.5l0,0C453.8,69,453.6,68.7,453.6,68.4z M447.3,68.4c0-0.3,0.2-0.5,0.5-0.5l0,0c0.3,0,0.5,0.2,0.5,0.5l0,0
		c0,0.3-0.2,0.5-0.5,0.5l0,0C447.5,69,447.3,68.7,447.3,68.4z M440.9,68.4c0-0.3,0.2-0.5,0.5-0.5l0,0c0.3,0,0.5,0.2,0.5,0.5l0,0
		c0,0.3-0.2,0.5-0.5,0.5l0,0C441.1,69,440.9,68.7,440.9,68.4z"/>
</g>
<g>
	<g>
		<path class="st0" d="M195.9,69c-0.1,0-0.3,0-0.4-0.2c0,0-0.1-0.1-0.1-0.2s0-0.1,0-0.2c0-0.1,0.1-0.3,0.1-0.4c0,0,0.1-0.1,0.2-0.1
			c0.2-0.1,0.4,0,0.5,0.1c0.1,0.1,0.1,0.2,0.1,0.4c0,0.2,0,0.3-0.1,0.3c0,0-0.1,0.1-0.2,0.1C196.1,69,196,69,195.9,69z"/>
	</g>
	<g>
		<path class="st0" d="M385.3,217c0-0.3,0.2-0.5,0.5-0.5l0,0c0.3,0,0.5,0.2,0.5,0.5l0,0c0,0.3-0.2,0.5-0.5,0.5l0,0
			C385.5,217.5,385.3,217.3,385.3,217z M385.3,210.6c0-0.3,0.2-0.5,0.5-0.5l0,0c0.3,0,0.5,0.2,0.5,0.5l0,0c0,0.3-0.2,0.5-0.5,0.5
			l0,0C385.5,211.2,385.3,210.8,385.3,210.6z M385.3,204.2c0-0.3,0.2-0.5,0.5-0.5l0,0c0.3,0,0.5,0.2,0.5,0.5l0,0
			c0,0.3-0.2,0.5-0.5,0.5l0,0C385.5,204.7,385.3,204.5,385.3,204.2z M385.3,197.8c0-0.3,0.2-0.5,0.5-0.5l0,0c0.3,0,0.5,0.2,0.5,0.5
			l0,0c0,0.3-0.2,0.5-0.5,0.5l0,0C385.5,198.3,385.3,198,385.3,197.8z M385.3,191.3c0-0.3,0.2-0.5,0.5-0.5l0,0
			c0.3,0,0.5,0.2,0.5,0.5l0,0c0,0.3-0.2,0.5-0.5,0.5l0,0C385.5,191.9,385.3,191.7,385.3,191.3z M385.3,185c0-0.3,0.2-0.5,0.5-0.5
			l0,0c0.3,0,0.5,0.2,0.5,0.5l0,0c0,0.3-0.2,0.5-0.5,0.5l0,0C385.5,185.5,385.3,185.3,385.3,185z M385.3,178.5
			c0-0.3,0.2-0.5,0.5-0.5l0,0c0.3,0,0.5,0.2,0.5,0.5l0,0c0,0.3-0.2,0.5-0.5,0.5l0,0C385.5,179,385.3,178.8,385.3,178.5z
			 M385.3,172.1c0-0.3,0.2-0.5,0.5-0.5l0,0c0.3,0,0.5,0.2,0.5,0.5l0,0c0,0.3-0.2,0.5-0.5,0.5l0,0
			C385.5,172.7,385.3,172.5,385.3,172.1z M385.3,165.7c0-0.3,0.2-0.5,0.5-0.5l0,0c0.3,0,0.5,0.2,0.5,0.5l0,0c0,0.3-0.2,0.5-0.5,0.5
			l0,0C385.5,166.2,385.3,166,385.3,165.7z M385.3,159.3c0-0.3,0.2-0.5,0.5-0.5l0,0c0.3,0,0.5,0.2,0.5,0.5l0,0
			c0,0.3-0.2,0.5-0.5,0.5l0,0C385.5,159.8,385.3,159.6,385.3,159.3z M385.3,152.8c0-0.3,0.2-0.5,0.5-0.5l0,0c0.3,0,0.5,0.2,0.5,0.5
			l0,0c0,0.3-0.2,0.5-0.5,0.5l0,0C385.5,153.4,385.3,153.2,385.3,152.8z M385.3,146.5c0-0.3,0.2-0.5,0.5-0.5l0,0
			c0.3,0,0.5,0.2,0.5,0.5l0,0c0,0.3-0.2,0.5-0.5,0.5l0,0C385.5,147,385.3,146.8,385.3,146.5z M385.3,140c0-0.3,0.2-0.5,0.5-0.5l0,0
			c0.3,0,0.5,0.2,0.5,0.5l0,0c0,0.3-0.2,0.5-0.5,0.5l0,0C385.5,140.5,385.3,140.3,385.3,140z M385.3,133.6c0-0.3,0.2-0.5,0.5-0.5
			l0,0c0.3,0,0.5,0.2,0.5,0.5l0,0c0,0.3-0.2,0.5-0.5,0.5l0,0C385.5,134.2,385.3,134,385.3,133.6z M385.3,127.2
			c0-0.3,0.2-0.5,0.5-0.5l0,0c0.3,0,0.5,0.2,0.5,0.5l0,0c0,0.3-0.2,0.5-0.5,0.5l0,0C385.5,127.7,385.3,127.5,385.3,127.2z
			 M385.3,120.8c0-0.3,0.2-0.5,0.5-0.5l0,0c0.3,0,0.5,0.2,0.5,0.5l0,0c0,0.3-0.2,0.5-0.5,0.5l0,0
			C385.5,121.3,385.3,121.1,385.3,120.8z M385.3,114.3c0-0.3,0.2-0.5,0.5-0.5l0,0c0.3,0,0.5,0.2,0.5,0.5l0,0c0,0.3-0.2,0.5-0.5,0.5
			l0,0C385.5,114.9,385.3,114.7,385.3,114.3z M385.3,108c0-0.3,0.2-0.5,0.5-0.5l0,0c0.3,0,0.5,0.2,0.5,0.5l0,0
			c0,0.3-0.2,0.5-0.5,0.5l0,0C385.5,108.5,385.3,108.3,385.3,108z M385.3,101.5c0-0.3,0.2-0.5,0.5-0.5l0,0c0.3,0,0.5,0.2,0.5,0.5
			l0,0c0,0.3-0.2,0.5-0.5,0.5l0,0C385.5,102,385.3,101.8,385.3,101.5z M385.3,95.1c0-0.3,0.2-0.5,0.5-0.5l0,0c0.3,0,0.5,0.2,0.5,0.5
			l0,0c0,0.3-0.2,0.5-0.5,0.5l0,0C385.5,95.7,385.3,95.5,385.3,95.1z M384.6,88.9c-0.1-0.3,0.1-0.5,0.4-0.6l0,0
			c0.3-0.1,0.5,0.1,0.6,0.4l0,0c0.1,0.3-0.1,0.5-0.4,0.6l0,0h-0.1l0,0C384.9,89.3,384.7,89.1,384.6,88.9z M382.5,83.1
			c-0.1-0.2,0-0.5,0.2-0.7l0,0c0.2-0.1,0.5,0,0.7,0.2l0,0l0,0l0,0c0.1,0.2,0,0.5-0.2,0.7l0,0c-0.1,0-0.1,0.1-0.2,0.1l0,0
			C382.7,83.4,382.6,83.3,382.5,83.1z M379,77.9c-0.2-0.2-0.2-0.5,0-0.7l0,0c0.2-0.2,0.5-0.2,0.7,0l0,0c0.2,0.2,0.2,0.5,0,0.7l0,0
			c-0.1,0.1-0.2,0.1-0.3,0.1l0,0C379.2,78.1,379.1,78,379,77.9z M374.3,73.6c-0.2-0.2-0.3-0.5-0.1-0.7l0,0c0.2-0.2,0.5-0.3,0.7-0.1
			l0,0l0,0l0,0c0.2,0.2,0.3,0.5,0.1,0.7l0,0c-0.1,0.1-0.3,0.2-0.4,0.2l0,0C374.4,73.7,374.3,73.7,374.3,73.6z M368.7,70.8
			c-0.2-0.1-0.4-0.4-0.3-0.7l0,0c0.1-0.3,0.4-0.4,0.6-0.3l0,0c0.3,0.1,0.4,0.4,0.3,0.6l0,0c-0.1,0.2-0.3,0.3-0.5,0.3l0,0
			C368.9,70.8,368.8,70.8,368.7,70.8z M362.6,69.2c-0.3,0-0.5-0.3-0.4-0.6l0,0c0-0.3,0.3-0.5,0.6-0.4l0,0c0.3,0,0.5,0.3,0.4,0.6l0,0
			C363.2,69,363,69.2,362.6,69.2L362.6,69.2C362.7,69.2,362.6,69.2,362.6,69.2z M355.7,68.4c0-0.3,0.2-0.5,0.5-0.5l0,0
			c0.3,0,0.5,0.2,0.5,0.5l0,0c0,0.3-0.2,0.5-0.5,0.5l0,0C356.1,69,355.7,68.7,355.7,68.4z M349.4,68.4c0-0.3,0.2-0.5,0.5-0.5l0,0
			c0.3,0,0.5,0.2,0.5,0.5l0,0c0,0.3-0.2,0.5-0.5,0.5l0,0C349.6,69,349.4,68.7,349.4,68.4z M342.9,68.4c0-0.3,0.2-0.5,0.5-0.5l0,0
			c0.3,0,0.5,0.2,0.5,0.5l0,0c0,0.3-0.2,0.5-0.5,0.5l0,0C343.2,69,342.9,68.7,342.9,68.4z M336.5,68.4c0-0.3,0.2-0.5,0.5-0.5l0,0
			c0.3,0,0.5,0.2,0.5,0.5l0,0c0,0.3-0.2,0.5-0.5,0.5l0,0C336.8,69,336.5,68.7,336.5,68.4z M330.1,68.4c0-0.3,0.2-0.5,0.5-0.5l0,0
			c0.3,0,0.5,0.2,0.5,0.5l0,0c0,0.3-0.2,0.5-0.5,0.5l0,0C330.4,69,330.1,68.7,330.1,68.4z M323.7,68.4c0-0.3,0.2-0.5,0.5-0.5l0,0
			c0.3,0,0.5,0.2,0.5,0.5l0,0c0,0.3-0.2,0.5-0.5,0.5l0,0C323.9,69,323.7,68.7,323.7,68.4z M317.3,68.4c0-0.3,0.2-0.5,0.5-0.5l0,0
			c0.3,0,0.5,0.2,0.5,0.5l0,0c0,0.3-0.2,0.5-0.5,0.5l0,0C317.6,69,317.3,68.7,317.3,68.4z M310.9,68.4c0-0.3,0.2-0.5,0.5-0.5l0,0
			c0.3,0,0.5,0.2,0.5,0.5l0,0c0,0.3-0.2,0.5-0.5,0.5l0,0C311.1,69,310.9,68.7,310.9,68.4z M304.5,68.4c0-0.3,0.2-0.5,0.5-0.5l0,0
			c0.3,0,0.5,0.2,0.5,0.5l0,0c0,0.3-0.2,0.5-0.5,0.5l0,0C304.7,69,304.5,68.7,304.5,68.4z M298,68.4c0-0.3,0.2-0.5,0.5-0.5l0,0
			c0.3,0,0.5,0.2,0.5,0.5l0,0c0,0.3-0.2,0.5-0.5,0.5l0,0C298.3,69,298,68.7,298,68.4z M291.7,68.4c0-0.3,0.2-0.5,0.5-0.5l0,0
			c0.3,0,0.5,0.2,0.5,0.5l0,0c0,0.3-0.2,0.5-0.5,0.5l0,0C291.9,69,291.7,68.7,291.7,68.4z M285.2,68.4c0-0.3,0.2-0.5,0.5-0.5l0,0
			c0.3,0,0.5,0.2,0.5,0.5l0,0c0,0.3-0.2,0.5-0.5,0.5l0,0C285.4,69,285.2,68.7,285.2,68.4z M278.9,68.4c0-0.3,0.2-0.5,0.5-0.5l0,0
			c0.3,0,0.5,0.2,0.5,0.5l0,0c0,0.3-0.2,0.5-0.5,0.5l0,0C279.1,69,278.9,68.7,278.9,68.4z M272.4,68.4c0-0.3,0.2-0.5,0.5-0.5l0,0
			c0.3,0,0.5,0.2,0.5,0.5l0,0c0,0.3-0.2,0.5-0.5,0.5l0,0C272.6,69,272.4,68.7,272.4,68.4z M266,68.4c0-0.3,0.2-0.5,0.5-0.5l0,0
			c0.3,0,0.5,0.2,0.5,0.5l0,0c0,0.3-0.2,0.5-0.5,0.5l0,0C266.2,69,266,68.7,266,68.4z M259.6,68.4c0-0.3,0.2-0.5,0.5-0.5l0,0
			c0.3,0,0.5,0.2,0.5,0.5l0,0c0,0.3-0.2,0.5-0.5,0.5l0,0C259.8,69,259.6,68.7,259.6,68.4z M253.2,68.4c0-0.3,0.2-0.5,0.5-0.5l0,0
			c0.3,0,0.5,0.2,0.5,0.5l0,0c0,0.3-0.2,0.5-0.5,0.5l0,0C253.4,69,253.2,68.7,253.2,68.4z M246.7,68.4c0-0.3,0.2-0.5,0.5-0.5l0,0
			c0.3,0,0.5,0.2,0.5,0.5l0,0c0,0.3-0.2,0.5-0.5,0.5l0,0C246.9,69,246.7,68.7,246.7,68.4z M240.4,68.4c0-0.3,0.2-0.5,0.5-0.5l0,0
			c0.3,0,0.5,0.2,0.5,0.5l0,0c0,0.3-0.2,0.5-0.5,0.5l0,0C240.6,69,240.4,68.7,240.4,68.4z M233.9,68.4c0-0.3,0.2-0.5,0.5-0.5l0,0
			c0.3,0,0.5,0.2,0.5,0.5l0,0c0,0.3-0.2,0.5-0.5,0.5l0,0C234.2,69,233.9,68.7,233.9,68.4z M227.5,68.4c0-0.3,0.2-0.5,0.5-0.5l0,0
			c0.3,0,0.5,0.2,0.5,0.5l0,0c0,0.3-0.2,0.5-0.5,0.5l0,0C227.7,69,227.5,68.7,227.5,68.4z M221.1,68.4c0-0.3,0.2-0.5,0.5-0.5l0,0
			c0.3,0,0.5,0.2,0.5,0.5l0,0c0,0.3-0.2,0.5-0.5,0.5l0,0C221.4,69,221.1,68.7,221.1,68.4z M214.7,68.4c0-0.3,0.2-0.5,0.5-0.5l0,0
			c0.3,0,0.5,0.2,0.5,0.5l0,0c0,0.3-0.2,0.5-0.5,0.5l0,0C214.9,69,214.7,68.7,214.7,68.4z M208.2,68.4c0-0.3,0.2-0.5,0.5-0.5l0,0
			c0.3,0,0.5,0.2,0.5,0.5l0,0c0,0.3-0.2,0.5-0.5,0.5l0,0C208.5,69,208.2,68.7,208.2,68.4z M201.9,68.4c0-0.3,0.2-0.5,0.5-0.5l0,0
			c0.3,0,0.5,0.2,0.5,0.5l0,0c0,0.3-0.2,0.5-0.5,0.5l0,0C202.1,69,201.9,68.7,201.9,68.4z"/>
	</g>
	<g>
		<path class="st0" d="M385.9,224c-0.1,0-0.3-0.1-0.4-0.2c-0.1-0.1-0.1-0.2-0.1-0.3s0-0.1,0-0.2s0.1-0.1,0.1-0.2
			c0,0,0.1-0.1,0.2-0.1c0.2-0.1,0.4,0,0.5,0.1c0.1,0.1,0.1,0.2,0.1,0.4c0,0.1-0.1,0.3-0.1,0.3C386.2,223.9,386,224,385.9,224z"/>
	</g>
</g>
<g>
	<g>
		<g>
			<g>
				<circle class="st1" cx="597.3" cy="332.5" r="43.4"/>
			</g>
			<g>
				<path class="st2" d="M597.3,376.4c-24.2,0-43.9-19.7-43.9-43.9s19.7-43.9,43.9-43.9c24.2,0,43.9,19.7,43.9,43.9
					S621.5,376.4,597.3,376.4z M597.3,289.6c-23.6,0-42.8,19.2-42.8,42.8s19.2,42.8,42.8,42.8c23.6,0,42.8-19.2,42.8-42.8
					C640.2,308.9,621,289.6,597.3,289.6z"/>
			</g>
		</g>
	</g>
	<g class="st3">
		<path class="st0" d="M575.2,346.6v-8.9h3.1c1.1,0,1.8,0.2,2.3,0.6c0.5,0.4,0.7,1,0.7,1.8c0,0.4-0.1,0.7-0.3,1.1
			c-0.2,0.3-0.5,0.5-1,0.7c0.5,0.1,0.8,0.4,1.2,0.7c0.2,0.3,0.4,0.8,0.4,1.3c0,0.8-0.3,1.5-0.8,1.9c-0.5,0.4-1.3,0.6-2.3,0.6h-3.3
			V346.6z M576.6,341.5h1.5c0.5,0,0.8-0.1,1.2-0.3c0.3-0.2,0.4-0.5,0.4-1s-0.1-0.7-0.4-1c-0.3-0.2-0.6-0.3-1.2-0.3h-1.5V341.5z
			 M576.6,342.6v2.8h1.7c0.5,0,0.8-0.1,1.2-0.3c0.3-0.2,0.4-0.5,0.4-1c0-1-0.4-1.4-1.4-1.4h-1.9V342.6z"/>
		<path class="st0" d="M582.9,338.3c0-0.2,0.1-0.4,0.2-0.5c0.1-0.1,0.3-0.2,0.6-0.2c0.3,0,0.5,0.1,0.6,0.2c0.1,0.1,0.2,0.3,0.2,0.5
			c0,0.2-0.1,0.4-0.2,0.5c-0.1,0.1-0.3,0.2-0.6,0.2c-0.3,0-0.5-0.1-0.6-0.2C583,338.7,582.9,338.5,582.9,338.3z M584.5,346.6H583
			V340h1.5V346.6z"/>
		<path class="st0" d="M585.9,343.3c0-1.1,0.2-1.8,0.7-2.4c0.5-0.6,1.2-1,1.9-1c0.7,0,1.4,0.2,1.8,0.7l0.1-0.6h1.4v6.5
			c0,0.8-0.3,1.6-0.8,2c-0.5,0.4-1.3,0.7-2.2,0.7c-0.5,0-1-0.1-1.4-0.3c-0.4-0.2-0.8-0.4-1.1-0.7l0.7-0.8c0.4,0.5,1.1,0.8,1.7,0.8
			c0.5,0,0.8-0.1,1.2-0.4c0.3-0.3,0.4-0.6,0.4-1.2v-0.4c-0.4,0.5-1,0.7-1.7,0.7c-0.7,0-1.4-0.3-1.9-1
			C586.1,345.2,585.9,344.4,585.9,343.3z M587.4,343.4c0,0.6,0.1,1.2,0.4,1.6c0.3,0.4,0.6,0.5,1.2,0.5c0.6,0,1.1-0.2,1.4-0.7v-2.9
			c-0.3-0.5-0.7-0.7-1.3-0.7c-0.5,0-0.8,0.2-1.2,0.5C587.5,342,587.4,342.7,587.4,343.4z"/>
		<path class="st0" d="M596,343.3c0-1.1,0.2-1.8,0.7-2.4c0.4-0.6,1.1-1,1.9-1c0.7,0,1.3,0.2,1.7,0.7v-3.4h1.5v9.4h-1.4l-0.1-0.6
			c-0.4,0.5-1.1,0.8-1.8,0.8c-0.7,0-1.4-0.3-1.9-1C596.3,345.2,596,344.4,596,343.3z M597.5,343.4c0,0.6,0.1,1.2,0.4,1.6
			c0.2,0.4,0.6,0.5,1.1,0.5c0.6,0,1.1-0.3,1.4-0.8v-2.9c-0.3-0.5-0.7-0.8-1.3-0.8c-0.5,0-0.8,0.2-1.2,0.5
			C597.6,342,597.5,342.7,597.5,343.4z"/>
		<path class="st0" d="M607.4,346.6c-0.1-0.1-0.1-0.3-0.2-0.6c-0.4,0.5-1.1,0.7-1.7,0.7c-0.6,0-1.2-0.2-1.6-0.5
			c-0.4-0.4-0.6-0.8-0.6-1.4c0-0.7,0.2-1.3,0.7-1.6c0.5-0.4,1.3-0.5,2.2-0.5h1v-0.4c0-0.3-0.1-0.6-0.3-0.8c-0.2-0.2-0.5-0.3-0.8-0.3
			s-0.6,0.1-0.8,0.2c-0.2,0.1-0.3,0.4-0.3,0.6h-1.5c0-0.3,0.1-0.7,0.3-1.1c0.2-0.3,0.5-0.5,1-0.7c0.4-0.2,0.8-0.3,1.4-0.3
			c0.7,0,1.4,0.2,1.9,0.6c0.4,0.4,0.7,1,0.7,1.7v3c0,0.6,0.1,1.1,0.2,1.4v0.1L607.4,346.6L607.4,346.6z M605.8,345.5
			c0.3,0,0.5-0.1,0.8-0.2c0.3-0.1,0.4-0.3,0.6-0.5v-1.3h-0.8c-0.5,0-1,0.1-1.3,0.3c-0.3,0.2-0.4,0.4-0.4,0.8c0,0.3,0.1,0.5,0.3,0.6
			C605.2,345.4,605.5,345.5,605.8,345.5z"/>
		<path class="st0" d="M612.1,338.4v1.6h1.2v1.1h-1.2v3.7c0,0.2,0,0.4,0.1,0.5c0.1,0.1,0.3,0.2,0.5,0.2c0.2,0,0.3,0,0.5-0.1v1.2
			c-0.3,0.1-0.6,0.1-1,0.1c-1.2,0-1.7-0.6-1.7-1.9v-3.7h-1.1V340h1.1v-1.6L612.1,338.4L612.1,338.4z"/>
		<path class="st0" d="M618.3,346.6c-0.1-0.1-0.1-0.3-0.2-0.6c-0.4,0.5-1.1,0.7-1.7,0.7c-0.6,0-1.2-0.2-1.6-0.5
			c-0.4-0.4-0.6-0.8-0.6-1.4c0-0.7,0.2-1.3,0.7-1.6c0.5-0.4,1.3-0.5,2.2-0.5h1v-0.4c0-0.3-0.1-0.6-0.3-0.8c-0.2-0.2-0.5-0.3-0.8-0.3
			s-0.6,0.1-0.8,0.2c-0.2,0.1-0.3,0.4-0.3,0.6h-1.5c0-0.3,0.1-0.7,0.3-1.1c0.2-0.3,0.5-0.5,1-0.7c0.4-0.2,0.8-0.3,1.4-0.3
			c0.7,0,1.4,0.2,1.9,0.6c0.4,0.4,0.7,1,0.7,1.7v3c0,0.6,0.1,1.1,0.2,1.4v0.1L618.3,346.6L618.3,346.6z M616.7,345.5
			c0.3,0,0.5-0.1,0.8-0.2c0.2-0.1,0.4-0.3,0.6-0.5v-1.3h-0.8c-0.5,0-1,0.1-1.3,0.3c-0.3,0.2-0.4,0.4-0.4,0.8c0,0.3,0.1,0.5,0.3,0.6
			C616.1,345.4,616.4,345.5,616.7,345.5z"/>
	</g>
	<g>
		<path class="st1" d="M597.3,322.2c-3.4,0-6.3,1.6-6.3,3.5v3.5c0,1.9,2.9,3.5,6.3,3.5c3.4,0,6.3-1.6,6.3-3.5v-3.5
			C603.6,323.8,600.7,322.2,597.3,322.2z"/>
		<path class="st4" d="M597.3,333.2c-3.7,0-6.8-1.8-6.8-4v-3.5c0-2.2,3.1-4,6.8-4c3.7,0,6.8,1.8,6.8,4v3.5
			C604.1,331.4,601,333.2,597.3,333.2z M597.3,322.7c-3.1,0-5.7,1.4-5.7,3v3.5c0,1.6,2.7,3,5.7,3s5.7-1.4,5.7-3v-3.5
			C603,324.1,600.4,322.7,597.3,322.7z"/>
	</g>
	<g>
		<path class="st1" d="M597.3,318.7c-3.4,0-6.3,1.6-6.3,3.5v3.5c0,1.9,2.9,3.5,6.3,3.5c3.4,0,6.3-1.6,6.3-3.5v-3.5
			C603.6,320.3,600.7,318.7,597.3,318.7z"/>
		<path class="st4" d="M597.3,329.7c-3.7,0-6.8-1.8-6.8-4v-3.5c0-2.2,3.1-4,6.8-4c3.7,0,6.8,1.8,6.8,4v3.5
			C604.1,327.9,601,329.7,597.3,329.7z M597.3,319.2c-3.1,0-5.7,1.4-5.7,3v3.5c0,1.6,2.7,3,5.7,3s5.7-1.4,5.7-3v-3.5
			C603,320.6,600.4,319.2,597.3,319.2z"/>
	</g>
	<g>
		<path class="st1" d="M597.3,315.2c-3.4,0-6.3,1.6-6.3,3.5v3.5c0,1.9,2.9,3.5,6.3,3.5c3.4,0,6.3-1.6,6.3-3.5v-3.5
			C603.6,316.8,600.7,315.2,597.3,315.2z"/>
		<path class="st4" d="M597.3,326.2c-3.7,0-6.8-1.8-6.8-4v-3.5c0-2.2,3.1-4,6.8-4c3.7,0,6.8,1.8,6.8,4v3.5
			C604.1,324.4,601,326.2,597.3,326.2z M597.3,315.7c-3.1,0-5.7,1.4-5.7,3v3.5c0,1.6,2.7,3,5.7,3s5.7-1.4,5.7-3v-3.5
			C603,317.1,600.4,315.7,597.3,315.7z"/>
	</g>
	<g>
		<path class="st1" d="M591.1,318.7c0,1.9,2.9,3.5,6.3,3.5c3.4,0,6.3-1.6,6.3-3.5"/>
		<path class="st4" d="M597.3,322.7c-3.7,0-6.8-1.8-6.8-4h1.1c0,1.6,2.7,3,5.7,3s5.7-1.4,5.7-3h1.1
			C604.1,320.9,601,322.7,597.3,322.7z"/>
	</g>
</g>
<g>
	<path class="st0" d="M593.9,394.2c0-0.8,0.7-1.6,1.6-1.6l0,0c0.8,0,1.6,0.7,1.6,1.6l0,0c0,0.8-0.7,1.6-1.6,1.6l0,0
		C594.7,395.8,593.9,395.1,593.9,394.2z M593.9,375.1c0-0.8,0.7-1.6,1.6-1.6l0,0c0.8,0,1.6,0.7,1.6,1.6l0,0c0,0.8-0.7,1.6-1.6,1.6
		l0,0C594.7,376.7,593.9,376,593.9,375.1z M593.9,356c0-0.8,0.7-1.6,1.6-1.6l0,0c0.8,0,1.6,0.7,1.6,1.6l0,0c0,0.8-0.7,1.6-1.6,1.6
		l0,0C594.7,357.6,593.9,356.9,593.9,356z M593.9,336.9c0-0.8,0.7-1.6,1.6-1.6l0,0c0.8,0,1.6,0.7,1.6,1.6l0,0c0,0.8-0.7,1.6-1.6,1.6
		l0,0C594.7,338.5,593.9,337.8,593.9,336.9z M593.9,317.8c0-0.8,0.7-1.6,1.6-1.6l0,0c0.8,0,1.6,0.7,1.6,1.6l0,0
		c0,0.8-0.7,1.6-1.6,1.6l0,0C594.7,319.4,593.9,318.7,593.9,317.8z M593.9,298.8c0-0.8,0.7-1.6,1.6-1.6l0,0c0.8,0,1.6,0.7,1.6,1.6
		l0,0c0,0.8-0.7,1.6-1.6,1.6l0,0C594.7,300.4,593.9,299.6,593.9,298.8z M593.9,279.7c0-0.8,0.7-1.6,1.6-1.6l0,0
		c0.8,0,1.6,0.7,1.6,1.6l0,0c0,0.8-0.7,1.6-1.6,1.6l0,0C594.7,281.3,593.9,280.5,593.9,279.7z M593.9,260.6c0-0.8,0.7-1.6,1.6-1.6
		l0,0c0.8,0,1.6,0.7,1.6,1.6l0,0c0,0.8-0.7,1.6-1.6,1.6l0,0C594.7,262.2,593.9,261.4,593.9,260.6z"/>
</g>
<g>
	<g>
		<path class="st0" d="M195.9,70c-0.2,0-0.4,0-0.6-0.1c-0.2-0.1-0.4-0.2-0.5-0.3c-0.3-0.3-0.4-0.7-0.4-1.2c0-0.1,0-0.2,0-0.3
			c0-0.1,0.1-0.2,0.1-0.3c0-0.1,0.1-0.2,0.1-0.3c0.1-0.1,0.1-0.2,0.2-0.2c0.1-0.1,0.1-0.1,0.2-0.2c0.1-0.1,0.2-0.1,0.3-0.1
			c0.1,0,0.2-0.1,0.3-0.1c0.2,0,0.4,0,0.6,0c0.1,0,0.2,0.1,0.3,0.1c0.1,0,0.2,0.1,0.3,0.1c0.1,0,0.1,0.1,0.2,0.2s0.1,0.2,0.2,0.2
			c0,0.1,0.1,0.2,0.1,0.3c0,0.1,0.1,0.2,0.1,0.3c0,0.1,0,0.2,0,0.3c0,0.4-0.1,0.8-0.4,1.2C196.8,69.8,196.3,70,195.9,70z"/>
	</g>
	<g>
		<path class="st0" d="M384.3,203.8c0-0.8,0.7-1.6,1.6-1.6l0,0c0.8,0,1.6,0.7,1.6,1.6l0,0c0,0.8-0.7,1.6-1.6,1.6l0,0
			C385,205.4,384.3,204.7,384.3,203.8z M384.3,184.2c0-0.8,0.7-1.6,1.6-1.6l0,0c0.8,0,1.6,0.7,1.6,1.6l0,0c0,0.8-0.7,1.6-1.6,1.6
			l0,0C385,185.8,384.3,185.1,384.3,184.2z M384.3,164.6c0-0.8,0.7-1.6,1.6-1.6l0,0c0.8,0,1.6,0.7,1.6,1.6l0,0
			c0,0.8-0.7,1.6-1.6,1.6l0,0C385,166.2,384.3,165.5,384.3,164.6z M384.3,145c0-0.8,0.7-1.6,1.6-1.6l0,0c0.8,0,1.6,0.7,1.6,1.6l0,0
			c0,0.8-0.7,1.6-1.6,1.6l0,0C385,146.6,384.3,145.8,384.3,145z M384.3,125.4c0-0.8,0.7-1.6,1.6-1.6l0,0c0.8,0,1.6,0.7,1.6,1.6l0,0
			c0,0.8-0.7,1.6-1.6,1.6l0,0C385,127,384.3,126.2,384.3,125.4z M384.3,105.8c0-0.8,0.7-1.6,1.6-1.6l0,0c0.8,0,1.6,0.7,1.6,1.6l0,0
			c0,0.8-0.7,1.6-1.6,1.6l0,0C385,107.3,384.3,106.6,384.3,105.8z M382.9,86.8L382.9,86.8c-0.3-0.8,0.1-1.7,1-2l0,0
			c0.8-0.3,1.7,0.1,2,1l0,0c0.3,0.8-0.1,1.7-1,2l0,0c-0.2,0.1-0.3,0.1-0.5,0.1l0,0C383.7,87.8,383.1,87.4,382.9,86.8z M371.2,73
			c-0.7-0.4-1.1-1.4-0.6-2.1l0,0c0.4-0.7,1.4-1.1,2.1-0.6l0,0c0.7,0.4,1.1,1.4,0.6,2.1l0,0c-0.3,0.5-0.8,0.8-1.4,0.8l0,0
			C371.8,73.2,371.4,73.2,371.2,73z M351.3,68.4c0-0.8,0.7-1.6,1.6-1.6l0,0c0.8,0,1.6,0.7,1.6,1.6l0,0c0,0.8-0.7,1.6-1.6,1.6l0,0
			C352,70,351.3,69.3,351.3,68.4z M331.7,68.4c0-0.8,0.7-1.6,1.6-1.6l0,0c0.8,0,1.6,0.7,1.6,1.6l0,0c0,0.8-0.7,1.6-1.6,1.6l0,0
			C332.4,70,331.7,69.3,331.7,68.4z M312,68.4c0-0.8,0.7-1.6,1.6-1.6l0,0c0.8,0,1.6,0.7,1.6,1.6l0,0c0,0.8-0.7,1.6-1.6,1.6l0,0
			C312.8,70,312,69.3,312,68.4z M292.4,68.4c0-0.8,0.7-1.6,1.6-1.6l0,0c0.8,0,1.6,0.7,1.6,1.6l0,0c0,0.8-0.7,1.6-1.6,1.6l0,0
			C293.2,70,292.4,69.3,292.4,68.4z M272.8,68.4c0-0.8,0.7-1.6,1.6-1.6l0,0c0.8,0,1.6,0.7,1.6,1.6l0,0c0,0.8-0.7,1.6-1.6,1.6l0,0
			C273.6,70,272.8,69.3,272.8,68.4z M253.2,68.4c0-0.8,0.7-1.6,1.6-1.6l0,0c0.8,0,1.6,0.7,1.6,1.6l0,0c0,0.8-0.7,1.6-1.6,1.6l0,0
			C253.9,70,253.2,69.3,253.2,68.4z M233.6,68.4c0-0.8,0.7-1.6,1.6-1.6l0,0c0.8,0,1.6,0.7,1.6,1.6l0,0c0,0.8-0.7,1.6-1.6,1.6l0,0
			C234.3,70,233.6,69.3,233.6,68.4z M214,68.4c0-0.8,0.7-1.6,1.6-1.6l0,0c0.8,0,1.6,0.7,1.6,1.6l0,0c0,0.8-0.7,1.6-1.6,1.6l0,0
			C214.7,70,214,69.3,214,68.4z"/>
	</g>
	<g>
		<path class="st0" d="M385.9,225.1c-0.2,0-0.4,0-0.6-0.1c-0.2-0.1-0.3-0.2-0.5-0.3c-0.3-0.3-0.4-0.7-0.4-1.2c0-0.1,0-0.2,0-0.3
			c0-0.1,0-0.2,0.1-0.3c0.1-0.1,0.1-0.2,0.1-0.3c0-0.1,0.1-0.2,0.2-0.2c0.1-0.1,0.1-0.1,0.2-0.2c0.1-0.1,0.2-0.1,0.3-0.1
			c0.1,0,0.2-0.1,0.3-0.1c0.2,0,0.4,0,0.6,0c0.1,0,0.2,0,0.3,0.1c0.1,0,0.2,0.1,0.3,0.1c0.1,0.1,0.2,0.1,0.2,0.2
			c0.1,0.1,0.1,0.1,0.2,0.2c0.1,0.1,0.1,0.2,0.1,0.3c0,0.1,0.1,0.2,0.1,0.3c0,0.1,0,0.2,0,0.3c0,0.4-0.2,0.8-0.4,1.2
			C386.7,224.8,386.3,225.1,385.9,225.1z"/>
	</g>
</g>
<g>
	<g>
		<g>
			<g>
				<circle class="st1" cx="237.2" cy="68.4" r="43.4"/>
			</g>
			<g>
				<path class="st2" d="M237.2,112.3c-24.2,0-43.9-19.7-43.9-43.9s19.7-43.9,43.9-43.9s43.9,19.7,43.9,43.9
					S261.5,112.3,237.2,112.3z M237.2,25.6c-23.6,0-42.8,19.2-42.8,42.8s19.2,42.8,42.8,42.8S280,92.1,280,68.4
					S260.8,25.6,237.2,25.6z"/>
			</g>
		</g>
	</g>
	<g>
		<rect x="201.7" y="72.6" class="st5" width="72.9" height="10.5"/>
	</g>
	<g class="st3">
		<path class="st0" d="M207.4,78.6v3.3h-1.6V73h3.4c1,0,1.8,0.2,2.3,0.7c0.6,0.5,0.8,1.2,0.8,2s-0.3,1.6-0.8,2
			c-0.5,0.5-1.4,0.7-2.4,0.7h-1.7V78.6z M207.4,77.3h1.9c0.5,0,1-0.1,1.3-0.4c0.3-0.2,0.4-0.6,0.4-1.2s-0.1-0.8-0.4-1.2
			c-0.3-0.3-0.7-0.4-1.2-0.4h-1.9v3.2H207.4z"/>
		<path class="st0" d="M216.5,82c-1,0-1.7-0.3-2.3-0.8c-0.6-0.6-0.8-1.4-0.8-2.3v-0.2c0-0.6,0.1-1.3,0.4-1.8c0.2-0.5,0.6-1,1.1-1.2
			c0.4-0.2,1-0.4,1.6-0.4c1,0,1.6,0.3,2.1,0.8c0.5,0.5,0.7,1.4,0.7,2.4v0.6h-4.3c0,0.5,0.2,1,0.5,1.3c0.3,0.3,0.7,0.5,1.2,0.5
			c0.6,0,1.3-0.3,1.7-0.8l0.8,0.7c-0.3,0.4-0.6,0.7-1.1,1C217.6,81.9,217,82,216.5,82z M216.3,76.4c-0.4,0-0.7,0.1-1,0.4
			c-0.2,0.3-0.4,0.6-0.5,1.2h2.9v-0.1c0-0.5-0.2-0.8-0.4-1.2C217,76.5,216.7,76.4,216.3,76.4z"/>
		<path class="st0" d="M223.8,76.6c-0.2,0-0.4,0-0.6,0c-0.6,0-1.2,0.2-1.4,0.7v4.6h-1.5v-6.6h1.4v0.7c0.3-0.5,0.8-0.8,1.5-0.8
			c0.2,0,0.4,0,0.5,0.1L223.8,76.6z"/>
		<path class="st0" d="M228.5,80.1c0-0.2-0.1-0.4-0.3-0.6c-0.2-0.2-0.5-0.2-1.1-0.3c-0.5-0.1-1-0.2-1.3-0.4
			c-0.7-0.3-1.2-0.8-1.2-1.6c0-0.5,0.2-1.1,0.7-1.5c0.5-0.4,1.1-0.5,1.8-0.5s1.5,0.2,1.9,0.6c0.5,0.4,0.7,0.8,0.7,1.5h-1.5
			c0-0.3-0.1-0.5-0.3-0.7s-0.5-0.3-0.8-0.3s-0.6,0.1-0.8,0.2c-0.2,0.1-0.3,0.3-0.3,0.6c0,0.2,0.1,0.4,0.3,0.5
			c0.2,0.1,0.5,0.2,1.2,0.4c0.6,0.1,1.1,0.3,1.4,0.4c0.3,0.2,0.5,0.4,0.7,0.6s0.2,0.5,0.2,1c0,0.6-0.2,1.1-0.7,1.5
			c-0.5,0.3-1.2,0.5-1.9,0.5c-0.5,0-1.1-0.1-1.5-0.3c-0.4-0.2-0.7-0.4-1-0.8c-0.2-0.4-0.3-0.7-0.3-1.1h1.5c0,0.3,0.1,0.6,0.4,0.8
			c0.2,0.2,0.5,0.3,1,0.3c0.4,0,0.7-0.1,0.8-0.2C228.4,80.5,228.5,80.3,228.5,80.1z"/>
		<path class="st0" d="M231.2,73.5c0-0.2,0.1-0.4,0.2-0.5c0.1-0.1,0.3-0.2,0.6-0.2c0.3,0,0.5,0.1,0.6,0.2c0.1,0.1,0.2,0.3,0.2,0.5
			c0,0.2-0.1,0.4-0.2,0.5c-0.1,0.1-0.3,0.2-0.6,0.2c-0.3,0-0.4-0.1-0.6-0.2C231.2,73.9,231.2,73.7,231.2,73.5z M232.8,81.9h-1.5
			v-6.6h1.5V81.9z"/>
		<path class="st0" d="M238.1,80.1c0-0.2-0.1-0.4-0.3-0.6c-0.2-0.2-0.5-0.2-1.1-0.3c-0.5-0.1-1-0.2-1.3-0.4
			c-0.7-0.3-1.2-0.8-1.2-1.6c0-0.5,0.2-1.1,0.7-1.5c0.5-0.4,1.1-0.5,1.8-0.5s1.5,0.2,1.9,0.6c0.5,0.4,0.7,0.8,0.7,1.5H238
			c0-0.3-0.1-0.5-0.3-0.7c-0.2-0.2-0.5-0.3-0.8-0.3c-0.3,0-0.6,0.1-0.8,0.2c-0.2,0.1-0.3,0.3-0.3,0.6c0,0.2,0.1,0.4,0.3,0.5
			c0.2,0.1,0.5,0.2,1.2,0.4c0.6,0.1,1.1,0.3,1.4,0.4c0.3,0.2,0.5,0.4,0.7,0.6s0.2,0.5,0.2,1c0,0.6-0.2,1.1-0.7,1.5
			c-0.5,0.3-1.2,0.5-1.9,0.5c-0.5,0-1.1-0.1-1.5-0.3c-0.4-0.2-0.7-0.4-1-0.8c-0.2-0.4-0.3-0.7-0.3-1.1h1.5c0,0.3,0.1,0.6,0.4,0.8
			c0.2,0.2,0.5,0.3,1,0.3s0.7-0.1,0.8-0.2C238,80.5,238.1,80.3,238.1,80.1z"/>
		<path class="st0" d="M242.8,73.6v1.6h1.2v1.1h-1.2V80c0,0.2,0,0.4,0.1,0.5c0.1,0.1,0.3,0.2,0.5,0.2c0.2,0,0.3,0,0.5-0.1v1.3
			c-0.3,0.1-0.6,0.1-1,0.1c-1.2,0-1.7-0.6-1.7-1.9v-3.7h-1.1v-1.1h1.1v-1.6h1.5V73.6z"/>
		<path class="st0" d="M248,82c-1,0-1.7-0.3-2.3-0.8c-0.6-0.6-0.8-1.4-0.8-2.3v-0.2c0-0.6,0.1-1.3,0.4-1.8c0.2-0.5,0.6-1,1.1-1.2
			c0.4-0.2,1-0.4,1.6-0.4c1,0,1.6,0.3,2.1,0.8c0.5,0.5,0.7,1.4,0.7,2.4v0.6h-4.3c0,0.5,0.2,1,0.5,1.3c0.3,0.3,0.7,0.5,1.2,0.5
			c0.6,0,1.3-0.3,1.7-0.8l0.8,0.7c-0.3,0.4-0.6,0.7-1.1,1C249.1,81.9,248.5,82,248,82z M247.8,76.4c-0.4,0-0.7,0.1-1,0.4
			c-0.2,0.3-0.4,0.6-0.5,1.2h2.9v-0.1c0-0.5-0.2-0.8-0.4-1.2C248.5,76.5,248.2,76.4,247.8,76.4z"/>
		<path class="st0" d="M253.2,75.3v0.7c0.5-0.6,1.2-0.8,1.9-0.8c1.4,0,2.1,0.7,2.1,2.3v4.3h-1.5v-4.2c0-0.4-0.1-0.7-0.3-1
			c-0.2-0.2-0.5-0.3-0.8-0.3c-0.6,0-1.1,0.3-1.4,0.8v4.7h-1.4v-6.6H253.2z"/>
		<path class="st0" d="M261.5,80.8c0.4,0,0.6-0.1,1-0.3c0.2-0.2,0.4-0.5,0.4-0.8h1.4c0,0.4-0.1,0.8-0.4,1.2c-0.3,0.3-0.5,0.6-1,0.8
			c-0.4,0.2-0.8,0.3-1.4,0.3c-1,0-1.7-0.3-2.2-0.8c-0.5-0.6-0.8-1.4-0.8-2.4v-0.1c0-1.1,0.3-1.8,0.8-2.4c0.5-0.6,1.3-1,2.2-1
			c0.7,0,1.4,0.2,1.9,0.7c0.5,0.4,0.7,1.1,0.7,1.8h-1.4c0-0.4-0.1-0.7-0.4-1c-0.2-0.2-0.5-0.3-1-0.3c-0.5,0-0.8,0.2-1.2,0.5
			c-0.2,0.3-0.4,0.8-0.4,1.6v0.1c0,0.7,0.1,1.3,0.4,1.6C260.5,80.6,261,80.8,261.5,80.8z"/>
		<path class="st0" d="M268.2,82c-1,0-1.7-0.3-2.3-0.8c-0.6-0.6-0.8-1.4-0.8-2.3v-0.2c0-0.6,0.1-1.3,0.4-1.8c0.2-0.5,0.6-1,1.1-1.2
			c0.4-0.2,1-0.4,1.6-0.4c1,0,1.6,0.3,2.1,0.8c0.5,0.5,0.7,1.4,0.7,2.4v0.6h-4.3c0,0.5,0.2,1,0.5,1.3c0.3,0.3,0.7,0.5,1.2,0.5
			c0.6,0,1.3-0.3,1.7-0.8l0.8,0.7c-0.3,0.4-0.6,0.7-1.1,1C269.3,81.9,268.8,82,268.2,82z M268,76.4c-0.4,0-0.7,0.1-1,0.4
			c-0.2,0.3-0.4,0.6-0.5,1.2h2.9v-0.1c0-0.5-0.2-0.8-0.4-1.2C268.8,76.5,268.5,76.4,268,76.4z"/>
	</g>
	<g>
		<path class="st4" d="M244.8,58.8c-1.4,0-2.8-0.5-3.7-1.6c-1.4-1.4-1.9-3.5-1.3-5.3c0.1-0.2,0.2-0.3,0.4-0.3c0.2,0,0.3,0,0.5,0.1
			l5.9,5.9c0.1,0.1,0.2,0.3,0.1,0.5c0,0.2-0.2,0.3-0.3,0.4C245.9,58.7,245.3,58.8,244.8,58.8z M240.6,53.2c-0.1,1.2,0.3,2.4,1.3,3.3
			c1,0.8,2.1,1.3,3.3,1.3L240.6,53.2z"/>
	</g>
	<g>
		<path class="st4" d="M239.8,67.3c-0.1,0-0.3-0.1-0.4-0.1l-8.1-8.1c-0.1-0.1-0.2-0.3-0.1-0.5c0-0.2,0.2-0.3,0.3-0.4
			c2.4-0.8,5.1-0.2,7,1.7c1.9,1.8,2.5,4.6,1.7,7c-0.1,0.2-0.2,0.3-0.4,0.3C239.9,67.3,239.9,67.3,239.8,67.3z M232.8,59l6.8,6.8
			c0.3-1.8-0.3-3.7-1.7-5.1C236.5,59.2,234.6,58.7,232.8,59z"/>
	</g>
	<g>
		<path class="st4" d="M236.4,59.5c-0.1,0-0.3,0-0.4-0.1c-0.2-0.2-0.2-0.5,0-0.7l3.9-3.9c0.2-0.2,0.5-0.2,0.7,0
			c0.2,0.2,0.2,0.5,0,0.7l-3.9,3.9C236.8,59.4,236.6,59.5,236.4,59.5z"/>
	</g>
	<g>
		<path class="st4" d="M239.4,62.5c-0.1,0-0.3,0-0.4-0.1c-0.2-0.2-0.2-0.5,0-0.7l3.9-3.9c0.2-0.2,0.5-0.2,0.7,0
			c0.2,0.2,0.2,0.5,0,0.7l-3.9,3.9C239.7,62.4,239.6,62.5,239.4,62.5z"/>
	</g>
	<g>
		<path class="st4" d="M230,69c-0.1,0-0.3,0-0.4-0.1c-0.2-0.2-0.2-0.5,0-0.7l5.7-5.7c0.2-0.2,0.5-0.2,0.7,0s0.2,0.5,0,0.7l-5.7,5.7
			C230.3,68.8,230.2,69,230,69z"/>
	</g>
</g>
<g>
	<path class="st0" d="M685.7,410.9c0-0.8,0.7-1.6,1.6-1.6l0,0c0.8,0,1.6,0.7,1.6,1.6l0,0c0,0.8-0.7,1.6-1.6,1.6l0,0
		C686.4,412.4,685.7,411.7,685.7,410.9z M666.7,410.9c0-0.8,0.7-1.6,1.6-1.6l0,0c0.8,0,1.6,0.7,1.6,1.6l0,0c0,0.8-0.7,1.6-1.6,1.6
		l0,0C667.3,412.4,666.7,411.7,666.7,410.9z M647.6,410.9c0-0.8,0.7-1.6,1.6-1.6l0,0c0.8,0,1.6,0.7,1.6,1.6l0,0
		c0,0.8-0.7,1.6-1.6,1.6l0,0C648.3,412.4,647.6,411.7,647.6,410.9z M628.5,410.9c0-0.8,0.7-1.6,1.6-1.6l0,0c0.8,0,1.6,0.7,1.6,1.6
		l0,0c0,0.8-0.7,1.6-1.6,1.6l0,0C629.2,412.4,628.5,411.7,628.5,410.9z M609.5,410.9c0-0.8,0.7-1.6,1.6-1.6l0,0
		c0.8,0,1.6,0.7,1.6,1.6l0,0c0,0.8-0.7,1.6-1.6,1.6l0,0C610.2,412.4,609.5,411.7,609.5,410.9z M590.4,410.9c0-0.8,0.7-1.6,1.6-1.6
		l0,0c0.8,0,1.6,0.7,1.6,1.6l0,0c0,0.8-0.7,1.6-1.6,1.6l0,0C591.2,412.4,590.4,411.7,590.4,410.9z M571.3,410.9
		c0-0.8,0.7-1.6,1.6-1.6l0,0c0.8,0,1.6,0.7,1.6,1.6l0,0c0,0.8-0.7,1.6-1.6,1.6l0,0C572.1,412.4,571.3,411.7,571.3,410.9z
		 M552.4,410.9c0-0.8,0.7-1.6,1.6-1.6l0,0c0.8,0,1.6,0.7,1.6,1.6l0,0c0,0.8-0.7,1.6-1.6,1.6l0,0
		C553.1,412.4,552.4,411.7,552.4,410.9z M533.3,410.9c0-0.8,0.7-1.6,1.6-1.6l0,0c0.8,0,1.6,0.7,1.6,1.6l0,0c0,0.8-0.7,1.6-1.6,1.6
		l0,0C534,412.4,533.3,411.7,533.3,410.9z M514.3,410.9c0-0.8,0.7-1.6,1.6-1.6l0,0c0.8,0,1.6,0.7,1.6,1.6l0,0c0,0.8-0.7,1.6-1.6,1.6
		l0,0C514.9,412.4,514.3,411.7,514.3,410.9z M495.2,410.9c0-0.8,0.7-1.6,1.6-1.6l0,0c0.8,0,1.6,0.7,1.6,1.6l0,0
		c0,0.8-0.7,1.6-1.6,1.6l0,0C495.9,412.4,495.2,411.7,495.2,410.9z M476.1,410.9c0-0.8,0.7-1.6,1.6-1.6l0,0c0.8,0,1.6,0.7,1.6,1.6
		l0,0c0,0.8-0.7,1.6-1.6,1.6l0,0C476.8,412.4,476.1,411.7,476.1,410.9z M457.1,410.9c0-0.8,0.7-1.6,1.6-1.6l0,0
		c0.8,0,1.6,0.7,1.6,1.6l0,0c0,0.8-0.7,1.6-1.6,1.6l0,0C457.8,412.4,457.1,411.7,457.1,410.9z M438,410.9c0-0.8,0.7-1.6,1.6-1.6l0,0
		c0.8,0,1.6,0.7,1.6,1.6l0,0c0,0.8-0.7,1.6-1.6,1.6l0,0C438.8,412.4,438,411.7,438,410.9z M420.4,412.1c-0.8-0.1-1.5-1-1.4-1.8l0,0
		c0.1-0.8,1-1.5,1.8-1.4l0,0c0.8,0.1,1.5,1,1.3,1.8l0,0c-0.1,0.7-0.8,1.4-1.6,1.4l0,0C420.5,412.1,420.4,412.1,420.4,412.1z
		 M704.5,409.3c-0.3-0.8,0-1.8,0.8-2.1l0,0c0.8-0.3,1.7,0,2.1,0.8l0,0c0.3,0.8,0,1.7-0.8,2.1l0,0l0,0l0,0c-0.2,0.1-0.4,0.1-0.6,0.1
		l0,0C705.4,410.2,704.9,409.9,704.5,409.3z M403.1,402.5L403.1,402.5L403.1,402.5c-0.5-0.6-0.5-1.7,0.2-2.2l0,0
		c0.6-0.5,1.7-0.5,2.2,0.2l0,0c0.5,0.6,0.5,1.7-0.2,2.2l0,0c-0.3,0.2-0.6,0.4-1.1,0.4l0,0C403.9,403,403.5,402.8,403.1,402.5z
		 M718.7,397.2c-0.7-0.4-1.2-1.4-0.7-2.1l0,0c0.4-0.8,1.3-1.2,2.1-0.7l0,0c0.7,0.4,1.1,1.3,0.7,2.1l0,0c-0.2,0.5-0.8,0.8-1.5,0.8
		l0,0C719.3,397.4,719,397.3,718.7,397.2z M396.5,383.9c0-0.8,0.7-1.6,1.6-1.6l0,0c0.8,0,1.6,0.7,1.6,1.6l0,0c0,0.8-0.7,1.6-1.6,1.6
		l0,0C397.2,385.5,396.5,384.8,396.5,383.9z M720.5,377.1c0-0.8,0.7-1.6,1.6-1.6l0,0c0.8,0,1.6,0.7,1.6,1.6l0,0
		c0,0.8-0.7,1.6-1.6,1.6l0,0C721.2,378.7,720.5,378,720.5,377.1z M396.5,364.8c0-0.8,0.7-1.6,1.6-1.6l0,0c0.8,0,1.6,0.7,1.6,1.6l0,0
		c0,0.8-0.7,1.6-1.6,1.6l0,0C397.2,366.4,396.5,365.7,396.5,364.8z M720.5,358c0-0.8,0.7-1.6,1.6-1.6l0,0c0.8,0,1.6,0.7,1.6,1.6l0,0
		c0,0.8-0.7,1.6-1.6,1.6l0,0C721.2,359.6,720.5,358.9,720.5,358z M396.5,345.7c0-0.8,0.7-1.6,1.6-1.6l0,0c0.8,0,1.6,0.7,1.6,1.6l0,0
		c0,0.8-0.7,1.6-1.6,1.6l0,0C397.2,347.3,396.5,346.7,396.5,345.7z M720.5,339.1c0-0.8,0.7-1.6,1.6-1.6l0,0c0.8,0,1.6,0.7,1.6,1.6
		l0,0c0,0.8-0.7,1.6-1.6,1.6l0,0C721.2,340.6,720.5,339.9,720.5,339.1z M396.5,326.8c0-0.8,0.7-1.6,1.6-1.6l0,0
		c0.8,0,1.6,0.7,1.6,1.6l0,0c0,0.8-0.7,1.6-1.6,1.6l0,0C397.2,328.3,396.5,327.6,396.5,326.8z M720.5,320c0-0.8,0.7-1.6,1.6-1.6l0,0
		c0.8,0,1.6,0.7,1.6,1.6l0,0c0,0.8-0.7,1.6-1.6,1.6l0,0C721.2,321.6,720.5,320.8,720.5,320z M396.5,307.7c0-0.8,0.7-1.6,1.6-1.6l0,0
		c0.8,0,1.6,0.7,1.6,1.6l0,0c0,0.8-0.7,1.6-1.6,1.6l0,0C397.2,309.3,396.5,308.5,396.5,307.7z M720.5,300.9c0-0.8,0.7-1.6,1.6-1.6
		l0,0c0.8,0,1.6,0.7,1.6,1.6l0,0c0,0.8-0.7,1.6-1.6,1.6l0,0C721.2,302.5,720.5,301.8,720.5,300.9z M396.5,288.7
		c0-0.8,0.7-1.6,1.6-1.6l0,0c0.8,0,1.6,0.7,1.6,1.6l0,0c0,0.8-0.7,1.6-1.6,1.6l0,0C397.2,290.3,396.5,289.5,396.5,288.7z
		 M720.5,281.9c0-0.8,0.7-1.6,1.6-1.6l0,0c0.8,0,1.6,0.7,1.6,1.6l0,0c0,0.8-0.7,1.6-1.6,1.6l0,0
		C721.2,283.5,720.5,282.7,720.5,281.9z M396.5,269.6c0-0.8,0.7-1.6,1.6-1.6l0,0c0.8,0,1.6,0.7,1.6,1.6l0,0c0,0.8-0.7,1.6-1.6,1.6
		l0,0C397.2,271.2,396.5,270.4,396.5,269.6z M720.5,262.8c0-0.8,0.7-1.6,1.6-1.6l0,0c0.8,0,1.6,0.7,1.6,1.6l0,0
		c0,0.8-0.7,1.6-1.6,1.6l0,0C721.2,264.4,720.5,263.7,720.5,262.8z M396.5,250.5c0-0.8,0.7-1.6,1.6-1.6l0,0c0.8,0,1.6,0.7,1.6,1.6
		l0,0c0,0.8-0.7,1.6-1.6,1.6l0,0C397.2,252.1,396.5,251.5,396.5,250.5z M720.5,243.7c0-0.8,0.7-1.6,1.6-1.6l0,0
		c0.8,0,1.6,0.7,1.6,1.6l0,0c0,0.8-0.7,1.6-1.6,1.6l0,0C721.2,245.3,720.5,244.7,720.5,243.7z M399.9,233.2c-0.8-0.2-1.3-1.2-1.1-2
		l0,0c0.2-0.8,1.2-1.3,2-1.1l0,0c0.8,0.2,1.3,1.2,1.1,2l0,0c-0.2,0.7-0.8,1.2-1.5,1.2l0,0C400.2,233.2,400.1,233.2,399.9,233.2z
		 M720.5,224.7c0-0.8,0.7-1.6,1.6-1.6l0,0c0.8,0,1.6,0.7,1.6,1.6l0,0c0,0.8-0.7,1.6-1.6,1.6l0,0
		C721.2,226.3,720.5,225.6,720.5,224.7z M410.8,218.9c-0.8-0.3-1.3-1.3-1-2l0,0c0.3-0.8,1.3-1.3,2-1l0,0c0.8,0.3,1.3,1.3,1,2l0,0
		c-0.2,0.6-0.8,1.1-1.5,1.1l0,0C411.1,219,410.9,219,410.8,218.9z M720.5,205.6c0-0.8,0.7-1.6,1.6-1.6l0,0c0.8,0,1.6,0.7,1.6,1.6
		l0,0c0,0.8-0.7,1.6-1.6,1.6l0,0C721.2,207.2,720.5,206.5,720.5,205.6z M414.2,200.2c-0.8,0-1.6-0.7-1.6-1.6l0,0l0,0l0,0
		c0-0.8,0.7-1.6,1.6-1.6l0,0c0.8,0,1.6,0.7,1.6,1.6l0,0C415.9,199.6,415.1,200.2,414.2,200.2L414.2,200.2
		C414.3,200.2,414.3,200.2,414.2,200.2z M720.5,186.7c0-0.8,0.7-1.6,1.6-1.6l0,0c0.8,0,1.6,0.7,1.6,1.6l0,0c0,0.8-0.7,1.6-1.6,1.6
		l0,0C721.2,188.3,720.5,187.5,720.5,186.7z M412.7,179.6c0-0.8,0.7-1.6,1.6-1.6l0,0c0.8,0,1.6,0.7,1.6,1.6l0,0
		c0,0.8-0.7,1.6-1.6,1.6l0,0C413.4,181.2,412.7,180.5,412.7,179.6z M720.5,167.6c0-0.8,0.7-1.6,1.6-1.6l0,0c0.8,0,1.6,0.7,1.6,1.6
		l0,0c0,0.8-0.7,1.6-1.6,1.6l0,0C721.2,169.2,720.5,168.4,720.5,167.6z M412.7,160.6c0-0.8,0.7-1.6,1.6-1.6l0,0
		c0.8,0,1.6,0.7,1.6,1.6l0,0c0,0.8-0.7,1.6-1.6,1.6l0,0C413.4,162.2,412.7,161.4,412.7,160.6z M720.5,148.5c0-0.8,0.7-1.6,1.6-1.6
		l0,0c0.8,0,1.6,0.7,1.6,1.6l0,0c0,0.8-0.7,1.6-1.6,1.6l0,0C721.2,150.1,720.5,149.4,720.5,148.5z M412.7,141.5
		c0-0.8,0.7-1.6,1.6-1.6l0,0c0.8,0,1.6,0.7,1.6,1.6l0,0c0,0.8-0.7,1.6-1.6,1.6l0,0C413.4,143.1,412.7,142.4,412.7,141.5z
		 M720.5,129.5c0-0.8,0.7-1.6,1.6-1.6l0,0c0.8,0,1.6,0.7,1.6,1.6l0,0c0,0.8-0.7,1.6-1.6,1.6l0,0
		C721.2,131.1,720.5,130.4,720.5,129.5z M412.7,122.5c0-0.8,0.7-1.6,1.6-1.6l0,0c0.8,0,1.6,0.7,1.6,1.6l0,0c0,0.8-0.7,1.6-1.6,1.6
		l0,0C413.4,124.1,412.7,123.4,412.7,122.5z M720.5,110.4c0-0.8,0.7-1.6,1.6-1.6l0,0c0.8,0,1.6,0.7,1.6,1.6l0,0
		c0,0.8-0.7,1.6-1.6,1.6l0,0C721.2,112,720.5,111.3,720.5,110.4z M412.7,103.4c0-0.8,0.7-1.6,1.6-1.6l0,0c0.8,0,1.6,0.7,1.6,1.6l0,0
		c0,0.8-0.7,1.6-1.6,1.6l0,0C413.4,105,412.7,104.3,412.7,103.4z M720.2,91.6L720.2,91.6c-0.1-0.8,0.5-1.7,1.4-1.8l0,0
		c0.8-0.1,1.7,0.5,1.8,1.4l0,0l0,0l0,0c0.1,0.8-0.5,1.7-1.4,1.8l0,0c-0.1,0-0.1,0-0.2,0l0,0C721.1,93,720.3,92.4,720.2,91.6z
		 M415.8,86.1c-0.8-0.3-1.2-1.3-0.8-2.1l0,0l0,0l0,0c0.3-0.8,1.3-1.2,2.1-0.8l0,0c0.8,0.3,1.2,1.3,0.8,2.1l0,0c-0.2,0.6-0.8,1-1.5,1
		l0,0C416.2,86.2,416,86.2,415.8,86.1z M712,76.2c-0.6-0.5-0.7-1.6-0.1-2.2l0,0c0.5-0.6,1.6-0.7,2.2-0.1l0,0l0,0l0,0
		c0.6,0.5,0.7,1.6,0.1,2.2l0,0c-0.3,0.3-0.7,0.5-1.2,0.5l0,0C712.6,76.6,712.3,76.5,712,76.2z M427.7,71.8c-0.4-0.8-0.1-1.7,0.7-2.1
		l0,0c0.7-0.4,1.7-0.1,2.1,0.7l0,0c0.4,0.8,0.1,1.7-0.7,2.1l0,0c-0.2,0.1-0.4,0.2-0.7,0.2l0,0C428.6,72.7,428.1,72.3,427.7,71.8z
		 M695.5,70C695.5,70,695.4,70,695.5,70L695.5,70c-1,0-1.7-0.7-1.7-1.6l0,0c0-0.8,0.7-1.6,1.6-1.6l0,0c0,0,0,0,0.1,0l0,0
		c0,0,0,0,0.1,0l0,0c0.8,0,1.6,0.7,1.6,1.6l0,0C697.2,69.3,696.5,70,695.5,70L695.5,70L695.5,70z M674.7,68.4c0-0.8,0.7-1.6,1.6-1.6
		l0,0c0.8,0,1.6,0.7,1.6,1.6l0,0c0,0.8-0.7,1.6-1.6,1.6l0,0C675.5,70,674.7,69.3,674.7,68.4z M655.8,68.4c0-0.8,0.7-1.6,1.6-1.6l0,0
		c0.8,0,1.6,0.7,1.6,1.6l0,0c0,0.8-0.7,1.6-1.6,1.6l0,0C656.5,70,655.8,69.3,655.8,68.4z M636.7,68.4c0-0.8,0.7-1.6,1.6-1.6l0,0
		c0.8,0,1.6,0.7,1.6,1.6l0,0c0,0.8-0.7,1.6-1.6,1.6l0,0C637.4,70,636.7,69.3,636.7,68.4z M617.7,68.4c0-0.8,0.7-1.6,1.6-1.6l0,0
		c0.8,0,1.6,0.7,1.6,1.6l0,0c0,0.8-0.7,1.6-1.6,1.6l0,0C618.3,70,617.7,69.3,617.7,68.4z M598.6,68.4c0-0.8,0.7-1.6,1.6-1.6l0,0
		c0.8,0,1.6,0.7,1.6,1.6l0,0c0,0.8-0.7,1.6-1.6,1.6l0,0C599.3,70,598.6,69.3,598.6,68.4z M579.5,68.4c0-0.8,0.7-1.6,1.6-1.6l0,0
		c0.8,0,1.6,0.7,1.6,1.6l0,0c0,0.8-0.7,1.6-1.6,1.6l0,0C580.2,70,579.5,69.3,579.5,68.4z M560.5,68.4c0-0.8,0.7-1.6,1.6-1.6l0,0
		c0.8,0,1.6,0.7,1.6,1.6l0,0c0,0.8-0.7,1.6-1.6,1.6l0,0C561.3,70,560.5,69.3,560.5,68.4z M541.4,68.4c0-0.8,0.7-1.6,1.6-1.6l0,0
		c0.8,0,1.6,0.7,1.6,1.6l0,0c0,0.8-0.7,1.6-1.6,1.6l0,0C542.2,70,541.4,69.3,541.4,68.4z M522.4,68.4c0-0.8,0.7-1.6,1.6-1.6l0,0
		c0.8,0,1.6,0.7,1.6,1.6l0,0c0,0.8-0.7,1.6-1.6,1.6l0,0C523.1,70,522.4,69.3,522.4,68.4z M503.4,68.4c0-0.8,0.7-1.6,1.6-1.6l0,0
		c0.8,0,1.6,0.7,1.6,1.6l0,0c0,0.8-0.7,1.6-1.6,1.6l0,0C504.1,70,503.4,69.3,503.4,68.4z M484.3,68.4c0-0.8,0.7-1.6,1.6-1.6l0,0
		c0.8,0,1.6,0.7,1.6,1.6l0,0c0,0.8-0.7,1.6-1.6,1.6l0,0C485,70,484.3,69.3,484.3,68.4z M465.3,68.4c0-0.8,0.7-1.6,1.6-1.6l0,0
		c0.8,0,1.6,0.7,1.6,1.6l0,0c0,0.8-0.7,1.6-1.6,1.6l0,0C465.9,70,465.3,69.3,465.3,68.4z M446.2,68.4c0-0.8,0.7-1.6,1.6-1.6l0,0
		c0.8,0,1.6,0.7,1.6,1.6l0,0c0,0.8-0.7,1.6-1.6,1.6l0,0C446.9,70,446.2,69.3,446.2,68.4z"/>
</g>
<g>
	<g>
		<g>
			<rect x="438.7" y="208.6" class="st6" width="44" height="1.1"/>
		</g>
		<g>
			<g>
				<polygon class="st6" points="444.6,207.3 439.5,209.1 444.6,211 440.4,211 435.4,209.1 440.4,207.3 				"/>
			</g>
		</g>
	</g>
</g>
<g>
	<g>
		<g>
			<polygon class="st6" points="534.3,243.6 481.6,243.6 481.6,175.7 534.3,175.7 534.3,176.8 482.7,176.8 482.7,242.6 534.3,242.6 
							"/>
		</g>
		<g>
			<g>
				<rect x="532.5" y="239.7" class="st6" width="3.5" height="6.9"/>
			</g>
		</g>
		<g>
			<g>
				<rect x="532.5" y="172.9" class="st6" width="3.5" height="6.9"/>
			</g>
		</g>
	</g>
</g>
<g>
	<g>
		<path class="st0" d="M455.8,240.4H339.2c-3,0-5.3-2.3-5.3-5.3v-53c0-3,2.3-5.3,5.3-5.3h116.7c3,0,5.3,2.3,5.3,5.3v53
			C461.2,238.1,458.8,240.4,455.8,240.4z"/>
	</g>
	<g>
		<g>
			<g>
				<path class="st1" d="M387.1,206.6h2.2l3,7.6l2.9-7.6h2l-3.9,10h-2.1L387.1,206.6z"/>
			</g>
			<g>
				<path class="st1" d="M411.2,206.6h1.8v1.6l0,0c0-0.1,0.1-0.3,0.3-0.5c0.2-0.2,0.4-0.4,0.6-0.6c0.3-0.2,0.6-0.3,1-0.5
					c0.4-0.1,0.7-0.2,1.3-0.2c0.7,0,1.4,0.1,1.9,0.4s1,0.7,1.3,1.4c0.3-0.6,0.7-1.1,1.4-1.4c0.6-0.3,1.2-0.4,1.8-0.4
					c0.7,0,1.4,0.1,1.9,0.4c0.5,0.2,0.8,0.6,1.2,1c0.3,0.4,0.4,0.8,0.5,1.4s0.1,1.1,0.1,1.6v5.8h-1.9v-5.6c0-0.4,0-0.7-0.1-1.1
					c0-0.3-0.1-0.6-0.3-1c-0.1-0.3-0.4-0.5-0.6-0.6c-0.3-0.2-0.6-0.2-1.2-0.2c-1,0-1.6,0.3-2,0.8s-0.6,1.3-0.6,2.2v5.5h-1.9v-5.2
					c0-0.5,0-1-0.1-1.3c0-0.4-0.1-0.7-0.3-1.1c-0.1-0.3-0.3-0.5-0.6-0.6c-0.3-0.2-0.6-0.2-1.1-0.2c-0.3,0-0.6,0.1-1,0.2
					c-0.3,0.1-0.6,0.3-0.8,0.6c-0.2,0.3-0.4,0.6-0.5,1.1c-0.1,0.4-0.2,1-0.2,1.5v5.2H411v-10.2L411.2,206.6L411.2,206.6z"/>
			</g>
			<g>
				<path class="st1" d="M428.8,206.6h1.9v1.5l0,0c0.3-0.5,0.8-1,1.5-1.3s1.3-0.4,2-0.4c0.7,0,1.5,0.1,2.1,0.4
					c0.6,0.3,1.2,0.6,1.6,1.2c0.4,0.5,0.7,1.1,1.1,1.7c0.2,0.6,0.3,1.4,0.3,2c0,0.7-0.1,1.5-0.3,2.1c-0.2,0.6-0.5,1.2-1.1,1.7
					c-0.4,0.4-1,0.8-1.6,1.1c-0.6,0.3-1.4,0.4-2.1,0.4c-0.7,0-1.4-0.1-2-0.4c-0.6-0.3-1.2-0.7-1.5-1.3l0,0v4h-1.9V206.6z M434,208.1
					c-0.5,0-1,0.1-1.4,0.2c-0.4,0.2-0.7,0.4-1.1,0.7c-0.3,0.3-0.5,0.6-0.6,1.1c-0.1,0.4-0.2,0.8-0.2,1.4c0,0.5,0.1,1,0.2,1.4
					c0.1,0.4,0.4,0.8,0.6,1.1c0.3,0.3,0.6,0.5,1.1,0.7s0.8,0.2,1.4,0.2s1-0.1,1.4-0.2c0.4-0.2,0.7-0.4,1.1-0.7
					c0.3-0.3,0.5-0.6,0.6-1.1s0.2-0.8,0.2-1.4c0-0.5-0.1-1-0.2-1.4c-0.1-0.4-0.4-0.8-0.6-1.1c-0.3-0.3-0.6-0.5-1.1-0.7
					C435,208.2,434.4,208.1,434,208.1z"/>
			</g>
			<g>
				<path class="st1" d="M403,216.9c1.5,0,2.9-0.6,3.7-1.7v1.4h1.7v-10.2h-1.7v1.5c-0.8-1.1-2.3-1.7-3.7-1.7c-2.8,0-5,2.3-5,5.3
					C398.1,214.6,400.3,216.9,403,216.9z M403.4,208.1c1.8,0,3.3,1.6,3.3,3.5s-1.5,3.5-3.3,3.5c-2.1,0-3.3-1.6-3.3-3.5
					S401.3,208.1,403.4,208.1z"/>
			</g>
		</g>
		<g>
			<path class="st6" d="M378.8,199.5c-0.5-1-1.6-1.5-3.1-1.5H370h-10.8c-1.5,0-2.5,0.5-3.1,1.5s-0.4,2.1,0.2,3.4l8.3,14.3
				c0.7,1.3,1.7,1.9,2.9,1.9c1.1,0,2.1-0.6,2.9-1.9l8.3-14.3C379.3,201.6,379.3,200.5,378.8,199.5z M357.4,200.2
				c0.3-0.4,1-0.7,1.8-0.7h10.8c0.8,0,1.6,0.3,1.8,0.7c0.3,0.4,0.2,1.2-0.2,1.9l-0.4,0.8c-0.2-0.1-0.5-0.2-0.8-0.2h-8.3
				c-1.4,0-2.5,0.5-3.1,1.5l-1.2-2.1C357.2,201.4,357.1,200.7,357.4,200.2z M367.5,209.3l-0.1-0.1l-2-3.5l-0.7-1.3
				c0-0.1-0.1-0.1-0.1-0.1s0.1,0,0.2,0h5.5c0.1,0,0.1,0,0.2,0l0,0l-2.8,4.9C367.5,209.3,367.5,209.3,367.5,209.3z M369,216.5
				c-0.4,0.7-1,1.2-1.6,1.2c-0.5,0-1.2-0.4-1.6-1.2l-5.7-9.9c-0.2-0.6-0.3-1.2-0.1-1.6c0.3-0.4,1-0.7,1.8-0.7h1.2
				c0,0.3,0.1,0.6,0.3,1l4.1,7.2c0.7,1.3,1.7,1.9,2.9,1.9l0,0L369,216.5z M377.3,202.1l-5.6,9.7c-0.4,0.6-0.8,1-1.4,1
				c-0.5,0-1.2-0.4-1.6-1.2l-0.5-1c0.2-0.1,0.5-0.4,0.6-0.6l4-7c0.7-1.3,0.8-2.4,0.2-3.4l0,0h2.7c0.8,0,1.6,0.3,1.8,0.7
				C377.8,200.7,377.7,201.4,377.3,202.1z"/>
		</g>
	</g>
</g>
<g>
	<path class="st2" d="M169.3,197H95.1c-3,0-5.3-2.3-5.3-5.3v-31.8c0-3,2.3-5.3,5.3-5.3h74.2c3,0,5.3,2.3,5.3,5.3v31.8
		C174.6,194.6,172.3,197,169.3,197z"/>
</g>
<g>
	<path class="st2" d="M169.3,260.6H95.1c-3,0-5.3-2.3-5.3-5.3v-31.8c0-3,2.3-5.3,5.3-5.3h74.2c3,0,5.3,2.3,5.3,5.3v31.8
		C174.6,258.2,172.3,260.6,169.3,260.6z"/>
</g>
<g>
	<rect x="195.2" y="209.1" class="st6" width="133.3" height="1.1"/>
</g>
<g>
	<g>
		<polygon class="st6" points="326.5,211.5 328.3,209.7 326.5,207.9 328,207.9 329.8,209.7 328,211.5 		"/>
	</g>
</g>
<g>
	<rect x="94" y="169.3" class="st5" width="76.5" height="26.4"/>
</g>
<g class="st3">
	<path class="st0" d="M110.4,177.4l2.4-7.6h1.9l-3.5,9.8h-1.7l-3.5-9.8h1.9L110.4,177.4z"/>
	<path class="st0" d="M119.8,179.6c-0.1-0.1-0.1-0.3-0.2-0.6c-0.5,0.5-1.2,0.8-1.9,0.8s-1.4-0.2-1.8-0.6c-0.4-0.4-0.7-1-0.7-1.6
		c0-0.7,0.3-1.4,0.8-1.8c0.5-0.4,1.4-0.6,2.4-0.6h1v-0.5c0-0.4-0.1-0.6-0.3-1c-0.2-0.3-0.5-0.3-1-0.3c-0.4,0-0.6,0.1-1,0.3
		c-0.3,0.2-0.3,0.4-0.3,0.7h-1.6c0-0.4,0.1-0.7,0.4-1.2c0.3-0.4,0.6-0.6,1.1-0.8s1-0.3,1.5-0.3c0.8,0,1.5,0.2,2,0.6s0.7,1.1,0.7,1.8
		v3.3c0,0.6,0.1,1.2,0.3,1.6v0.1h-1.5V179.6z M118,178.4c0.3,0,0.6-0.1,1-0.2c0.3-0.1,0.5-0.3,0.6-0.6v-1.4h-0.8
		c-0.6,0-1.1,0.1-1.4,0.3c-0.3,0.2-0.4,0.5-0.4,0.8c0,0.3,0.1,0.5,0.3,0.7C117.3,178.3,117.7,178.4,118,178.4z"/>
	<path class="st0" d="M124.4,172.3v0.7c0.5-0.6,1.2-0.8,2.1-0.8c1,0,1.6,0.4,2,1.2c0.5-0.7,1.3-1.2,2.2-1.2c0.8,0,1.4,0.2,1.8,0.6
		c0.4,0.4,0.6,1.1,0.6,2v4.8h-1.6v-4.8c0-0.4-0.1-0.8-0.3-1.1s-0.5-0.3-1-0.3s-0.6,0.1-1,0.3c-0.2,0.2-0.4,0.4-0.5,0.7v5h-1.6v-4.8
		c0-0.8-0.4-1.3-1.3-1.3c-0.6,0-1.2,0.3-1.4,0.8v5.3h-1.6v-7.3H124.4z"/>
	<path class="st0" d="M141.3,176.1c0,1.2-0.2,2-0.7,2.7c-0.5,0.6-1.2,1-2,1c-0.8,0-1.5-0.2-1.9-0.7v3.5h-1.6v-10.1h1.5l0.1,0.7
		c0.5-0.5,1.2-0.8,1.9-0.8c0.8,0,1.6,0.3,2.1,1C141,173.8,141.3,174.8,141.3,176.1L141.3,176.1z M139.6,175.8c0-0.7-0.1-1.3-0.4-1.7
		c-0.3-0.4-0.7-0.6-1.3-0.6c-0.6,0-1.2,0.3-1.5,0.8v3.2c0.3,0.5,0.7,0.8,1.5,0.8c0.5,0,1-0.2,1.3-0.6
		C139.5,177.3,139.6,176.7,139.6,175.8z"/>
	<path class="st0" d="M153.4,169.8v6.6c0,1.1-0.3,1.9-1,2.4c-0.6,0.6-1.6,1-2.7,1c-1.2,0-2-0.3-2.7-0.8c-0.6-0.6-1-1.4-1-2.5v-6.6
		h1.7v6.6c0,0.6,0.2,1.2,0.5,1.5c0.3,0.3,0.8,0.5,1.5,0.5c1.3,0,2-0.7,2-2.1v-6.5L153.4,169.8L153.4,169.8z"/>
	<path class="st0" d="M157,179.6h-1.7v-9.8h1.7V179.6z"/>
</g>
<g>
	<rect x="94" y="234.9" class="st5" width="76.5" height="25.7"/>
</g>
<g class="st3">
	<path class="st0" d="M106.7,243.2l2.4-7.6h1.9l-3.5,9.8h-1.7l-3.5-9.8h1.9L106.7,243.2z"/>
	<path class="st0" d="M116.1,245.3c-0.1-0.1-0.1-0.3-0.2-0.6c-0.5,0.5-1.2,0.8-1.9,0.8s-1.4-0.2-1.8-0.6c-0.4-0.4-0.7-1-0.7-1.6
		c0-0.7,0.3-1.4,0.8-1.8c0.5-0.4,1.4-0.6,2.4-0.6h1v-0.5c0-0.4-0.1-0.6-0.3-1s-0.5-0.3-1-0.3c-0.4,0-0.6,0.1-1,0.3s-0.3,0.4-0.3,0.7
		h-1.6c0-0.4,0.1-0.7,0.4-1.2s0.6-0.6,1.1-0.8c0.4-0.2,1-0.3,1.5-0.3c0.8,0,1.5,0.2,2,0.6c0.5,0.4,0.7,1.1,0.7,1.8v3.3
		c0,0.6,0.1,1.2,0.3,1.6v0.1h-1.5V245.3z M114.3,244.1c0.3,0,0.6-0.1,1-0.2c0.3-0.1,0.5-0.3,0.6-0.6v-1.4H115
		c-0.6,0-1.1,0.1-1.4,0.3c-0.3,0.2-0.4,0.5-0.4,0.8c0,0.3,0.1,0.5,0.3,0.7C113.6,244,113.9,244.1,114.3,244.1z"/>
	<path class="st0" d="M120.7,238v0.7c0.5-0.6,1.2-0.8,2.1-0.8c1,0,1.6,0.4,2,1.2c0.5-0.7,1.3-1.2,2.2-1.2c0.8,0,1.4,0.2,1.8,0.6
		c0.4,0.4,0.6,1.1,0.6,2v4.8h-1.6v-4.8c0-0.4-0.1-0.8-0.3-1.1c-0.2-0.2-0.5-0.3-1-0.3c-0.4,0-0.6,0.1-1,0.3
		c-0.2,0.2-0.4,0.4-0.5,0.7v5h-1.7v-4.8c0-0.8-0.4-1.3-1.3-1.3c-0.6,0-1.2,0.3-1.4,0.8v5.3h-1.6V238H120.7z"/>
	<path class="st0" d="M137.6,241.7c0,1.2-0.2,2-0.7,2.7c-0.5,0.6-1.2,1-2,1c-0.8,0-1.5-0.2-1.9-0.7v3.5h-1.6V238h1.5l0.1,0.7
		c0.5-0.5,1.2-0.8,1.9-0.8c0.8,0,1.6,0.3,2.1,1C137.3,239.5,137.6,240.4,137.6,241.7L137.6,241.7z M135.9,241.6
		c0-0.7-0.1-1.3-0.4-1.7c-0.3-0.4-0.7-0.6-1.3-0.6c-0.6,0-1.2,0.3-1.5,0.8v3.2c0.3,0.5,0.7,0.8,1.5,0.8c0.5,0,1-0.2,1.3-0.6
		C135.8,243.1,135.9,242.4,135.9,241.6z"/>
	<path class="st0" d="M150,242.1c-0.1,1.1-0.5,1.9-1.2,2.4c-0.6,0.6-1.6,0.8-2.7,0.8c-0.7,0-1.5-0.2-2-0.5c-0.6-0.3-1.1-0.8-1.4-1.6
		c-0.3-0.6-0.5-1.5-0.5-2.3v-1c0-1,0.2-1.7,0.5-2.4c0.3-0.7,0.8-1.3,1.4-1.6c0.6-0.4,1.3-0.5,2.1-0.5c1.1,0,1.9,0.3,2.7,0.8
		c0.6,0.6,1.1,1.4,1.2,2.4h-1.7c-0.1-0.7-0.3-1.2-0.6-1.5c-0.3-0.3-0.8-0.4-1.5-0.4c-0.7,0-1.3,0.3-1.7,0.8
		c-0.4,0.5-0.6,1.4-0.6,2.3v0.8c0,1.1,0.2,1.9,0.5,2.4c0.4,0.5,1,0.8,1.7,0.8c0.6,0,1.2-0.1,1.5-0.4c0.3-0.3,0.5-0.8,0.6-1.5h1.7
		V242.1z"/>
	<path class="st0" d="M153.2,243.9h4.5v1.4h-6.2v-9.8h1.7V243.9z"/>
	<path class="st0" d="M160.8,245.3h-1.7v-9.8h1.7V245.3z"/>
</g>
<g>
	<g>
		<g>
			<polygon class="st6" points="196.2,243.1 179.8,243.1 179.8,242 195.2,242 195.2,176.3 179.8,176.3 179.8,175.2 196.2,175.2 			
				"/>
		</g>
		<g>
			<g>
				<rect x="179.3" y="172.2" class="st6" width="1.1" height="6.9"/>
			</g>
		</g>
		<g>
			<g>
				<rect x="179.3" y="239.1" class="st6" width="1.1" height="6.9"/>
			</g>
		</g>
	</g>
</g>
<g>
	<path class="st2" d="M508.4,154.5h180.9c3,0,5.3,2.3,5.3,5.3v31.8c0,3-2.3,5.3-5.3,5.3H508.4c-3,0-5.3-2.3-5.3-5.3v-31.8
		C503.1,156.9,505.5,154.5,508.4,154.5z"/>
</g>
<g>
	<path class="st2" d="M508.4,218.2h180.9c3,0,5.3,2.3,5.3,5.3v31.8c0,3-2.3,5.3-5.3,5.3H508.4c-3,0-5.3-2.3-5.3-5.3v-31.8
		C503.1,220.5,505.5,218.2,508.4,218.2z"/>
</g>
<g class="st3">
	<path class="st0" d="M551,176.8l2.4-7.6h1.9l-3.5,9.8h-1.7l-3.5-9.8h1.9L551,176.8z"/>
	<path class="st0" d="M560.3,178.9c-0.1-0.1-0.1-0.3-0.2-0.6c-0.5,0.5-1.2,0.8-1.9,0.8c-0.7,0-1.4-0.2-1.8-0.6
		c-0.4-0.4-0.7-1-0.7-1.6c0-0.7,0.3-1.4,0.8-1.8c0.5-0.4,1.4-0.6,2.4-0.6h1v-0.5c0-0.4-0.1-0.6-0.3-1c-0.2-0.2-0.5-0.3-1-0.3
		c-0.4,0-0.6,0.1-1,0.3c-0.2,0.2-0.3,0.4-0.3,0.7h-1.6c0-0.4,0.1-0.7,0.4-1.2c0.2-0.3,0.6-0.6,1.1-0.8c0.4-0.2,1-0.3,1.5-0.3
		c0.8,0,1.5,0.2,2,0.6c0.5,0.4,0.7,1.1,0.7,1.8v3.3c0,0.6,0.1,1.2,0.3,1.6v0.1h-1.5V178.9z M558.5,177.8c0.3,0,0.6-0.1,1-0.2
		c0.3-0.1,0.5-0.3,0.6-0.6v-1.4h-0.8c-0.6,0-1.1,0.1-1.4,0.3s-0.4,0.5-0.4,0.8s0.1,0.5,0.3,0.7C557.9,177.8,558.2,177.8,558.5,177.8
		z"/>
	<path class="st0" d="M565,171.7v0.7c0.5-0.6,1.2-0.8,2.1-0.8s1.6,0.4,2,1.2c0.5-0.7,1.3-1.2,2.2-1.2c0.8,0,1.4,0.2,1.8,0.6
		c0.4,0.4,0.6,1.1,0.6,2v4.8h-1.7v-4.8c0-0.4-0.1-0.8-0.3-1.1s-0.5-0.3-1-0.3c-0.4,0-0.6,0.1-1,0.3c-0.2,0.2-0.4,0.4-0.5,0.7v5h-1.6
		v-4.8c0-0.8-0.4-1.3-1.3-1.3c-0.6,0-1.2,0.3-1.4,0.8v5.3h-1.6v-7.3L565,171.7L565,171.7z"/>
	<path class="st0" d="M581.7,175.4c0,1.2-0.2,2-0.7,2.7c-0.5,0.6-1.2,1-2,1c-0.8,0-1.5-0.2-1.9-0.7v3.5h-1.6v-10.1h1.5l0.1,0.7
		c0.5-0.5,1.2-0.8,1.9-0.8c0.8,0,1.6,0.3,2.1,1C581.5,173.2,581.7,174.2,581.7,175.4L581.7,175.4z M580.1,175.3
		c0-0.7-0.1-1.3-0.4-1.7c-0.3-0.4-0.7-0.6-1.3-0.6c-0.6,0-1.2,0.3-1.5,0.8v3.2c0.3,0.5,0.7,0.8,1.5,0.8c0.5,0,1-0.2,1.3-0.6
		C580,176.8,580.1,176.2,580.1,175.3z"/>
	<path class="st0" d="M593,176.7l1.2-5h1.6l-2,7.3h-1.4l-1.6-5l-1.5,5H588l-2-7.3h1.6l1.2,5l1.5-5h1.3L593,176.7z"/>
	<path class="st0" d="M596.6,175.3c0-0.7,0.1-1.4,0.4-1.9c0.3-0.5,0.6-1.1,1.2-1.3c0.5-0.2,1.1-0.4,1.8-0.4c1,0,1.8,0.3,2.4,1
		c0.6,0.6,1,1.5,1,2.5v0.4c0,0.7-0.1,1.4-0.4,1.9c-0.3,0.5-0.6,1-1.2,1.3c-0.5,0.3-1.1,0.4-1.8,0.4c-1.1,0-1.8-0.3-2.4-1.1
		C596.8,177.4,596.6,176.5,596.6,175.3L596.6,175.3z M598.2,175.4c0,0.7,0.1,1.4,0.4,1.8c0.3,0.4,0.7,0.6,1.3,0.6
		c0.5,0,1-0.2,1.3-0.6c0.3-0.4,0.4-1.1,0.4-1.9c0-0.7-0.1-1.3-0.4-1.8c-0.3-0.4-0.7-0.6-1.3-0.6c-0.5,0-1,0.2-1.3,0.6
		C598.3,173.9,598.2,174.6,598.2,175.4z"/>
	<path class="st0" d="M608.5,173.2c-0.2,0-0.4-0.1-0.6-0.1c-0.7,0-1.3,0.3-1.5,0.8v5h-1.6v-7.3h1.6v0.8c0.4-0.6,1-1,1.6-1
		c0.2,0,0.4,0,0.5,0.1V173.2z"/>
	<path class="st0" d="M611.8,175.8l-0.7,0.7v2.3h-1.6v-10.4h1.6v5.9l0.5-0.6l2-2.2h2l-2.8,3.1l3,4.2H614L611.8,175.8z"/>
	<path class="st0" d="M617.3,178.9v-6h-1.1v-1.2h1.1v-0.6c0-0.8,0.2-1.5,0.6-1.9c0.4-0.4,1.1-0.6,1.9-0.6c0.3,0,0.6,0,1,0.1v1.3
		c-0.2,0-0.4-0.1-0.6-0.1c-0.7,0-1.2,0.4-1.2,1.2v0.6h1.5v1.2H619v6h-1.7V178.9z"/>
	<path class="st0" d="M623.4,178.9h-1.6v-10.4h1.6V178.9z"/>
	<path class="st0" d="M624.8,175.3c0-0.7,0.1-1.4,0.4-1.9s0.6-1.1,1.2-1.3c0.5-0.2,1.1-0.4,1.8-0.4c1,0,1.8,0.3,2.4,1
		c0.6,0.6,1,1.5,1,2.5v0.4c0,0.7-0.1,1.4-0.4,1.9c-0.3,0.5-0.6,1-1.2,1.3c-0.5,0.3-1.1,0.4-1.8,0.4c-1.1,0-1.8-0.3-2.4-1.1
		C625.1,177.4,624.8,176.5,624.8,175.3L624.8,175.3z M626.5,175.4c0,0.7,0.1,1.4,0.4,1.8c0.3,0.4,0.7,0.6,1.3,0.6
		c0.5,0,1-0.2,1.3-0.6c0.3-0.4,0.4-1.1,0.4-1.9c0-0.7-0.1-1.3-0.4-1.8c-0.3-0.4-0.7-0.6-1.3-0.6c-0.5,0-1,0.2-1.3,0.6
		C626.6,173.9,626.5,174.6,626.5,175.4z"/>
	<path class="st0" d="M639.4,176.7l1.2-5h1.6l-2,7.3h-1.4l-1.6-5l-1.5,5h-1.4l-2-7.3h1.6l1.2,5l1.5-5h1.3L639.4,176.7z"/>
	<path class="st0" d="M647.3,177c0-0.3-0.1-0.5-0.3-0.6c-0.2-0.1-0.6-0.3-1.2-0.4c-0.5-0.1-1.1-0.2-1.4-0.4c-0.8-0.4-1.3-1-1.3-1.7
		c0-0.6,0.2-1.2,0.7-1.6c0.5-0.4,1.2-0.6,2-0.6c0.8,0,1.6,0.2,2.1,0.6s0.8,1,0.8,1.7h-1.6c0-0.3-0.1-0.5-0.3-0.7s-0.5-0.3-1-0.3
		c-0.3,0-0.6,0.1-0.8,0.2c-0.2,0.2-0.3,0.4-0.3,0.6c0,0.2,0.1,0.4,0.3,0.6c0.2,0.1,0.6,0.3,1.3,0.4s1.2,0.3,1.5,0.5
		c0.3,0.2,0.6,0.4,0.8,0.7c0.2,0.3,0.3,0.6,0.3,1c0,0.6-0.3,1.2-0.8,1.6c-0.5,0.4-1.3,0.6-2.1,0.6c-0.6,0-1.2-0.1-1.6-0.3
		c-0.4-0.2-0.8-0.5-1.1-0.8c-0.2-0.4-0.4-0.7-0.4-1.2h1.6c0,0.4,0.2,0.6,0.4,0.8c0.3,0.2,0.6,0.3,1.1,0.3c0.4,0,0.7-0.1,1-0.2
		C647.2,177.4,647.3,177.2,647.3,177z"/>
</g>
<g class="st3">
	<path class="st0" d="M537.2,234.1l2.4-7.6h1.9l-3.5,9.8h-1.7l-3.5-9.8h1.9L537.2,234.1z"/>
	<path class="st0" d="M546.5,236.2c-0.1-0.1-0.1-0.3-0.2-0.6c-0.5,0.5-1.2,0.8-1.9,0.8c-0.7,0-1.4-0.2-1.8-0.6
		c-0.4-0.4-0.7-1-0.7-1.6c0-0.7,0.3-1.4,0.8-1.8c0.5-0.4,1.4-0.6,2.4-0.6h1v-0.5c0-0.4-0.1-0.6-0.3-1c-0.2-0.2-0.5-0.3-1-0.3
		c-0.4,0-0.6,0.1-1,0.3c-0.2,0.2-0.3,0.4-0.3,0.7H542c0-0.4,0.1-0.7,0.4-1.2c0.2-0.3,0.6-0.6,1.1-0.8c0.4-0.2,1-0.3,1.5-0.3
		c0.8,0,1.5,0.2,2,0.6c0.5,0.4,0.7,1.1,0.7,1.8v3.3c0,0.6,0.1,1.2,0.3,1.6v0.1h-1.5V236.2z M544.7,235c0.3,0,0.6-0.1,1-0.2
		c0.3-0.1,0.5-0.3,0.6-0.6v-1.4h-0.8c-0.6,0-1.1,0.1-1.4,0.3c-0.3,0.2-0.4,0.5-0.4,0.8c0,0.3,0.1,0.5,0.3,0.7
		C544.1,234.9,544.4,235,544.7,235z"/>
	<path class="st0" d="M551.2,228.9v0.7c0.5-0.6,1.2-0.8,2.1-0.8s1.6,0.4,2,1.2c0.5-0.7,1.3-1.2,2.2-1.2c0.8,0,1.4,0.2,1.8,0.6
		c0.4,0.4,0.6,1.1,0.6,2v4.8h-1.7v-4.8c0-0.4-0.1-0.8-0.3-1.1s-0.5-0.3-1-0.3c-0.4,0-0.6,0.1-1,0.3c-0.2,0.2-0.4,0.4-0.5,0.7v5h-1.6
		v-4.7c0-0.8-0.4-1.3-1.3-1.3c-0.6,0-1.2,0.3-1.4,0.8v5.3h-1.6V229h1.5V228.9z"/>
	<path class="st0" d="M568,232.6c0,1.2-0.2,2-0.7,2.7c-0.5,0.6-1.2,1-2,1c-0.8,0-1.5-0.2-1.9-0.7v3.5h-1.6v-10.1h1.5l0.1,0.7
		c0.5-0.5,1.2-0.8,1.9-0.8c0.8,0,1.6,0.3,2.1,1C567.7,230.5,568,231.3,568,232.6L568,232.6z M566.4,232.5c0-0.7-0.1-1.3-0.4-1.7
		c-0.3-0.4-0.7-0.6-1.3-0.6c-0.6,0-1.2,0.3-1.5,0.8v3.2c0.3,0.5,0.7,0.8,1.5,0.8c0.5,0,1-0.2,1.3-0.6S566.4,233.3,566.4,232.5z"/>
	<path class="st0" d="M580.5,234.9c-0.3,0.4-0.8,0.8-1.5,1.1c-0.6,0.2-1.4,0.3-2.1,0.3c-0.8,0-1.6-0.2-2.2-0.5
		c-0.6-0.4-1.2-1-1.5-1.6c-0.3-0.7-0.5-1.5-0.5-2.4V231c0-1.5,0.3-2.7,1.1-3.5c0.7-0.8,1.7-1.3,3-1.3c1.1,0,1.9,0.3,2.7,0.8
		c0.6,0.5,1.1,1.3,1.2,2.3h-1.7c-0.2-1.2-0.8-1.8-2-1.8c-0.7,0-1.4,0.3-1.7,0.8c-0.4,0.5-0.6,1.4-0.6,2.4v0.7c0,1.1,0.2,1.9,0.6,2.4
		s1.1,0.8,1.9,0.8s1.5-0.2,1.9-0.6v-1.8h-2v-1.3h3.7v3.7H580.5z"/>
	<path class="st0" d="M586.6,236.2c-0.1-0.1-0.1-0.3-0.2-0.6c-0.5,0.5-1.2,0.8-1.9,0.8c-0.7,0-1.4-0.2-1.8-0.6
		c-0.4-0.4-0.7-1-0.7-1.6c0-0.7,0.3-1.4,0.8-1.8c0.5-0.4,1.4-0.6,2.4-0.6h1v-0.5c0-0.4-0.1-0.6-0.3-1c-0.2-0.2-0.5-0.3-1-0.3
		c-0.4,0-0.6,0.1-1,0.3c-0.2,0.2-0.3,0.4-0.3,0.7H582c0-0.4,0.1-0.7,0.4-1.2c0.2-0.3,0.6-0.6,1.1-0.8c0.4-0.2,1-0.3,1.5-0.3
		c0.8,0,1.5,0.2,2,0.6c0.5,0.4,0.7,1.1,0.7,1.8v3.3c0,0.6,0.1,1.2,0.3,1.6v0.1h-1.5V236.2z M584.8,235c0.3,0,0.6-0.1,1-0.2
		c0.3-0.1,0.5-0.3,0.6-0.6v-1.4h-0.8c-0.6,0-1.1,0.1-1.4,0.3c-0.3,0.2-0.4,0.5-0.4,0.8c0,0.3,0.1,0.5,0.3,0.7
		C584.2,234.9,584.4,235,584.8,235z"/>
	<path class="st0" d="M591.7,227.2v1.8h1.3v1.2h-1.3v4c0,0.3,0.1,0.5,0.2,0.6c0.1,0.1,0.3,0.2,0.6,0.2c0.2,0,0.4,0,0.5-0.1v1.3
		c-0.4,0.1-0.7,0.1-1.1,0.1c-1.3,0-1.9-0.7-1.9-2.1V230h-1.2v-1.2h1.2v-1.7H591.7z"/>
	<path class="st0" d="M597.4,236.3c-1.1,0-1.9-0.3-2.5-1c-0.6-0.6-1-1.5-1-2.7v-0.2c0-0.7,0.1-1.4,0.4-1.9s0.6-1.1,1.2-1.4
		c0.5-0.3,1.1-0.5,1.7-0.5c1,0,1.8,0.3,2.3,1c0.5,0.6,0.8,1.5,0.8,2.7v0.6h-4.8c0,0.6,0.2,1.1,0.6,1.4c0.3,0.3,0.8,0.5,1.4,0.5
		c0.7,0,1.4-0.3,1.8-1l0.8,0.8c-0.3,0.4-0.6,0.7-1.2,1.1C598.6,236.1,598.1,236.3,597.4,236.3z M597.3,230c-0.4,0-0.8,0.1-1.1,0.4
		c-0.3,0.3-0.4,0.7-0.5,1.3h3.1v-0.1c0-0.5-0.2-1-0.4-1.3C598.2,230,597.7,230,597.3,230z"/>
	<path class="st0" d="M608,234l1.2-5h1.6l-2,7.3h-1.4l-1.6-5l-1.5,5h-1.4l-2-7.3h1.6l1.2,5l1.5-5h1.3L608,234z"/>
	<path class="st0" d="M616.3,236.2c-0.1-0.1-0.1-0.3-0.2-0.6c-0.5,0.5-1.2,0.8-1.9,0.8s-1.4-0.2-1.8-0.6c-0.4-0.4-0.7-1-0.7-1.6
		c0-0.7,0.3-1.4,0.8-1.8c0.5-0.4,1.4-0.6,2.4-0.6h1v-0.5c0-0.4-0.1-0.6-0.3-1c-0.2-0.2-0.5-0.3-1-0.3c-0.4,0-0.6,0.1-1,0.3
		c-0.2,0.2-0.3,0.4-0.3,0.7h-1.6c0-0.4,0.1-0.7,0.4-1.2c0.2-0.3,0.6-0.6,1.1-0.8c0.4-0.2,1-0.3,1.5-0.3c0.8,0,1.5,0.2,2,0.6
		c0.5,0.4,0.7,1.1,0.7,1.8v3.3c0,0.6,0.1,1.2,0.3,1.6v0.1h-1.5V236.2z M614.5,235c0.3,0,0.6-0.1,1-0.2c0.3-0.1,0.5-0.3,0.6-0.6v-1.4
		h-0.8c-0.6,0-1.1,0.1-1.4,0.3s-0.4,0.5-0.4,0.8c0,0.3,0.1,0.5,0.3,0.7C613.9,234.9,614.1,235,614.5,235z"/>
	<path class="st0" d="M621.8,233.9l1.5-5h1.7l-2.9,8.4c-0.4,1.3-1.2,1.8-2.2,1.8c-0.2,0-0.5,0-0.7-0.1v-1.3h0.3c0.4,0,0.7-0.1,1-0.2
		c0.2-0.1,0.4-0.4,0.5-0.7l0.2-0.6l-2.5-7.2h1.8L621.8,233.9z"/>
	<path class="st0" d="M635.1,233.9h-3.8l-0.7,2.3h-1.8l3.7-9.8h1.5l3.7,9.8h-1.8L635.1,233.9z M631.7,232.5h2.9l-1.4-4L631.7,232.5z
		"/>
	<path class="st0" d="M638.3,232.5c0-1.2,0.3-2,0.8-2.8c0.5-0.6,1.3-1.1,2.1-1.1s1.5,0.3,1.9,0.8l0.1-0.7h1.5v7.1
		c0,1-0.3,1.7-0.8,2.2c-0.6,0.5-1.4,0.8-2.4,0.8c-0.5,0-1.1-0.1-1.6-0.3c-0.5-0.2-0.8-0.5-1.2-0.8l0.7-1c0.5,0.6,1.2,0.8,1.9,0.8
		c0.5,0,1-0.1,1.3-0.4c0.3-0.3,0.4-0.7,0.4-1.3v-0.5c-0.4,0.5-1.1,0.7-1.9,0.7s-1.6-0.3-2.1-1.1
		C638.6,234.6,638.3,233.6,638.3,232.5z M640,232.6c0,0.7,0.1,1.3,0.4,1.7c0.3,0.4,0.7,0.6,1.3,0.6c0.6,0,1.2-0.3,1.5-0.8v-3.2
		c-0.3-0.5-0.7-0.8-1.5-0.8c-0.5,0-1,0.2-1.3,0.6C640.1,231.1,640,231.8,640,232.6z"/>
	<path class="st0" d="M649.6,236.3c-1.1,0-1.9-0.3-2.5-1c-0.6-0.6-1-1.5-1-2.7v-0.2c0-0.7,0.1-1.4,0.4-1.9s0.6-1.1,1.2-1.4
		c0.5-0.3,1.1-0.5,1.7-0.5c1,0,1.8,0.3,2.3,1c0.5,0.6,0.8,1.5,0.8,2.7v0.6h-4.8c0,0.6,0.2,1.1,0.6,1.4c0.4,0.3,0.8,0.5,1.4,0.5
		c0.7,0,1.4-0.3,1.8-1l0.8,0.8c-0.3,0.4-0.6,0.7-1.2,1.1C650.8,236.2,650.2,236.3,649.6,236.3z M649.4,230c-0.4,0-0.8,0.1-1.1,0.4
		c-0.3,0.3-0.4,0.7-0.5,1.3h3.1v-0.1c0-0.5-0.2-1-0.4-1.3C650.2,230,649.8,230,649.4,230z"/>
	<path class="st0" d="M655.3,228.9v0.8c0.5-0.6,1.3-1,2.1-1c1.5,0,2.3,0.8,2.3,2.7v4.8h-1.6v-4.8c0-0.4-0.1-0.8-0.3-1.1
		s-0.5-0.3-1-0.3c-0.6,0-1.2,0.3-1.5,0.8v5.2h-1.7v-7.3h1.6V228.9z"/>
	<path class="st0" d="M663.5,227.2v1.8h1.3v1.2h-1.3v4c0,0.3,0.1,0.5,0.2,0.6c0.1,0.1,0.3,0.2,0.6,0.2c0.2,0,0.4,0,0.5-0.1v1.3
		c-0.4,0.1-0.7,0.1-1.1,0.1c-1.3,0-1.9-0.7-1.9-2.1V230h-1.2v-1.2h1.2v-1.7H663.5z"/>
	<path class="st0" d="M581.2,248.7c0-1.1,0.1-2,0.4-3c0.3-1,0.6-1.8,1.3-2.5c0.5-0.7,1.1-1.3,1.7-1.6l0.3,1
		c-0.6,0.5-1.2,1.2-1.6,2.2c-0.4,1.1-0.6,2.1-0.6,3.4v0.5c0,1.4,0.2,2.5,0.5,3.6c0.4,1.1,1,1.9,1.6,2.4l-0.3,1
		c-0.6-0.3-1.2-0.8-1.7-1.6c-0.5-0.7-1-1.6-1.3-2.5C581.4,250.8,581.2,249.9,581.2,248.7z"/>
	<path class="st0" d="M589.8,250.6l2.4-7.6h1.9l-3.5,9.8h-1.7l-3.5-9.8h1.9L589.8,250.6z"/>
	<path class="st0" d="M602.6,251.5c-0.3,0.4-0.8,0.8-1.5,1.1c-0.6,0.2-1.4,0.3-2.1,0.3c-0.8,0-1.6-0.2-2.2-0.5
		c-0.6-0.4-1.2-1-1.5-1.6c-0.3-0.7-0.5-1.5-0.5-2.4v-0.7c0-1.5,0.3-2.7,1.1-3.5c0.7-0.8,1.7-1.3,3-1.3c1.1,0,1.9,0.3,2.7,0.8
		c0.6,0.5,1.1,1.3,1.2,2.3h-1.7c-0.2-1.2-0.8-1.8-2-1.8c-0.7,0-1.4,0.3-1.7,0.8c-0.4,0.5-0.6,1.4-0.6,2.4v0.7c0,1.1,0.2,1.9,0.6,2.4
		c0.4,0.5,1.1,0.8,1.9,0.8s1.5-0.2,1.9-0.6v-1.9h-2v-1.3h3.7v3.8H602.6z"/>
	<path class="st0" d="M610,250.4h-3.8l-0.7,2.3h-1.8l3.7-9.8h1.5l3.7,9.8h-1.8L610,250.4z M606.7,249h2.9l-1.4-4L606.7,249z"/>
	<path class="st0" d="M616.7,248.8c0,1-0.1,1.9-0.4,2.9c-0.3,1-0.6,1.8-1.3,2.5c-0.5,0.7-1.2,1.3-1.7,1.6l-0.3-1
		c0.6-0.5,1.2-1.3,1.6-2.3c0.4-1.1,0.6-2.3,0.6-3.7v-0.1c0-1.3-0.2-2.3-0.5-3.4c-0.3-1.1-0.8-1.8-1.5-2.4l-0.2-0.2l0.3-1
		c0.5,0.3,1.2,0.7,1.7,1.5c0.5,0.7,1,1.5,1.3,2.3s0.4,1.8,0.5,2.8L616.7,248.8z"/>
</g>
<g>
	<path class="st7" d="M111.6,140.2h-3.8l-0.7,2.3h-1.8l3.7-9.8h1.5l3.7,9.8h-1.8L111.6,140.2z M108.3,138.8h2.9l-1.4-4L108.3,138.8z
		"/>
	<path class="st7" d="M117,138.8v3.6h-1.7v-9.8h3.7c1.1,0,2,0.3,2.7,0.8c0.6,0.5,1,1.3,1,2.2c0,1-0.3,1.7-1,2.2
		c-0.6,0.5-1.5,0.8-2.7,0.8L117,138.8L117,138.8z M117,137.6h2c0.6,0,1.1-0.1,1.4-0.4c0.3-0.3,0.5-0.7,0.5-1.3s-0.2-1-0.5-1.3
		c-0.3-0.3-0.7-0.5-1.4-0.5h-2.1v3.5H117z"/>
	<path class="st7" d="M125.9,142.5h-1.7v-9.8h1.7V142.5z"/>
	<path class="st7" d="M134.3,141.4c0.4,0,0.7-0.1,1.1-0.3s0.4-0.5,0.4-0.8h1.6c0,0.4-0.2,0.8-0.4,1.3c-0.2,0.4-0.6,0.7-1.1,1
		c-0.4,0.2-1,0.3-1.5,0.3c-1.1,0-1.8-0.3-2.4-1c-0.6-0.6-0.8-1.6-0.8-2.8v-0.2c0-1.1,0.3-2,0.8-2.7c0.6-0.6,1.4-1,2.4-1
		c0.8,0,1.6,0.2,2.1,0.7s0.8,1.2,0.8,2h-1.6c0-0.4-0.2-0.7-0.4-1.1c-0.3-0.3-0.6-0.4-1.1-0.4c-0.5,0-1,0.2-1.3,0.5
		c-0.3,0.4-0.4,1-0.4,1.7v0.2c0,0.7,0.1,1.4,0.4,1.8S133.8,141.4,134.3,141.4z"/>
	<path class="st7" d="M142.9,142.5c-0.1-0.1-0.1-0.3-0.2-0.6c-0.5,0.5-1.2,0.8-1.9,0.8s-1.4-0.2-1.8-0.6c-0.4-0.4-0.7-1-0.7-1.6
		c0-0.7,0.3-1.4,0.8-1.8s1.4-0.6,2.4-0.6h1v-0.5c0-0.4-0.1-0.6-0.3-1c-0.2-0.3-0.5-0.3-1-0.3c-0.4,0-0.6,0.1-1,0.3
		c-0.3,0.2-0.3,0.4-0.3,0.7h-1.6c0-0.4,0.1-0.7,0.4-1.2c0.3-0.4,0.6-0.6,1.1-0.8c0.4-0.2,1-0.3,1.5-0.3c0.8,0,1.5,0.2,2,0.6
		s0.7,1.1,0.7,1.8v3.3c0,0.6,0.1,1.2,0.3,1.6v0.1h-1.5V142.5z M141.1,141.4c0.3,0,0.6-0.1,1-0.2c0.3-0.1,0.5-0.3,0.6-0.6v-1.4h-0.8
		c-0.6,0-1.1,0.1-1.4,0.3c-0.3,0.2-0.4,0.5-0.4,0.8c0,0.3,0.1,0.5,0.3,0.7C140.5,141.3,140.7,141.4,141.1,141.4z"/>
	<path class="st7" d="M147.7,142.5h-1.6v-10.4h1.6V142.5z"/>
	<path class="st7" d="M151.3,142.5h-1.6v-10.4h1.6V142.5z"/>
	<path class="st7" d="M157.1,140.5c0-0.3-0.1-0.5-0.3-0.6c-0.2-0.1-0.6-0.3-1.2-0.4c-0.5-0.1-1.1-0.2-1.4-0.4
		c-0.8-0.4-1.3-1-1.3-1.7c0-0.6,0.2-1.2,0.7-1.6c0.5-0.4,1.2-0.6,2-0.6c0.8,0,1.6,0.2,2.1,0.6s0.8,1,0.8,1.7h-1.6
		c0-0.3-0.1-0.5-0.3-0.7c-0.2-0.2-0.5-0.3-1-0.3c-0.3,0-0.6,0.1-0.8,0.2c-0.2,0.2-0.3,0.4-0.3,0.6c0,0.2,0.1,0.4,0.3,0.6
		c0.2,0.1,0.6,0.3,1.3,0.4c0.6,0.1,1.2,0.3,1.5,0.5c0.3,0.2,0.6,0.4,0.8,0.7c0.2,0.3,0.3,0.6,0.3,1c0,0.6-0.3,1.2-0.8,1.6
		c-0.5,0.4-1.3,0.6-2.1,0.6c-0.6,0-1.2-0.1-1.6-0.3c-0.4-0.2-0.8-0.5-1.1-0.8c-0.2-0.3-0.4-0.7-0.4-1.2h1.6c0,0.4,0.2,0.6,0.4,0.8
		c0.3,0.2,0.6,0.3,1.1,0.3s0.7-0.1,1-0.2C157.1,141.3,157.1,140.9,157.1,140.5z"/>
</g>
<g>
	<g>
		<g>
			<g>
				<circle class="st1" cx="398.1" cy="332.4" r="43.4"/>
			</g>
			<g>
				<path class="st2" d="M398.1,376.3c-24.2,0-43.9-19.7-43.9-43.9s19.7-43.9,43.9-43.9s43.9,19.7,43.9,43.9
					S422.2,376.3,398.1,376.3z M398.1,289.5c-23.6,0-42.8,19.2-42.8,42.8c0,23.6,19.2,42.8,42.8,42.8s42.8-19.2,42.8-42.8
					C440.9,308.8,421.7,289.5,398.1,289.5z"/>
			</g>
		</g>
	</g>
	<g class="st3">
		<path class="st0" d="M367.9,342.1c0,0.8-0.1,1.6-0.4,2.3c-0.3,0.7-0.7,1.2-1.3,1.5c-0.5,0.3-1.2,0.5-1.9,0.5
			c-0.7,0-1.4-0.2-1.9-0.5c-0.5-0.3-1-0.8-1.3-1.5c-0.3-0.6-0.4-1.4-0.4-2.2v-0.5c0-0.8,0.1-1.6,0.4-2.3c0.3-0.6,0.7-1.2,1.3-1.5
			c0.5-0.3,1.2-0.5,1.9-0.5c0.7,0,1.4,0.2,1.9,0.5c0.5,0.3,1,0.8,1.3,1.5c0.3,0.6,0.4,1.4,0.4,2.3V342.1z M366.5,341.7
			c0-1-0.2-1.7-0.5-2.2c-0.4-0.5-1-0.7-1.6-0.7c-0.6,0-1.2,0.2-1.6,0.7c-0.4,0.5-0.5,1.3-0.5,2.2v0.5c0,1,0.2,1.7,0.5,2.2
			c0.4,0.5,1,0.8,1.6,0.8c0.6,0,1.2-0.2,1.6-0.7c0.3-0.5,0.5-1.3,0.5-2.3V341.7z"/>
		<path class="st0" d="M372.8,341.1c-0.2,0-0.4,0-0.6,0c-0.6,0-1.2,0.2-1.4,0.7v4.6h-1.5v-6.6h1.4v0.7c0.3-0.5,0.8-0.8,1.5-0.8
			c0.2,0,0.4,0,0.5,0.1L372.8,341.1z"/>
		<path class="st0" d="M376.4,345.3c0.4,0,0.6-0.1,1-0.3c0.2-0.2,0.4-0.5,0.4-0.8h1.4c0,0.4-0.1,0.8-0.4,1.2c-0.3,0.3-0.5,0.6-1,0.8
			c-0.4,0.2-0.8,0.3-1.4,0.3c-1,0-1.7-0.3-2.2-0.8c-0.5-0.6-0.8-1.4-0.8-2.4v-0.1c0-1.1,0.3-1.8,0.8-2.4c0.5-0.6,1.3-1,2.2-1
			c0.7,0,1.4,0.2,1.9,0.7c0.5,0.4,0.7,1.1,0.7,1.8h-1.4c0-0.4-0.1-0.7-0.4-1c-0.2-0.2-0.5-0.3-1-0.3c-0.5,0-0.8,0.2-1.2,0.5
			c-0.2,0.3-0.4,0.8-0.4,1.6v0.2c0,0.7,0.1,1.3,0.4,1.6C375.5,345.2,375.9,345.3,376.4,345.3z"/>
		<path class="st0" d="M381.7,340.4c0.5-0.5,1.1-0.8,1.8-0.8c1.4,0,2.1,0.8,2.1,2.4v4.3h-1.5v-4.2c0-0.4-0.1-0.7-0.3-1
			c-0.2-0.2-0.5-0.3-0.8-0.3c-0.6,0-1.1,0.3-1.4,0.8v4.8h-1.5V337h1.5v3.4H381.7z"/>
		<path class="st0" d="M390.1,346.5c-1,0-1.7-0.3-2.3-0.8c-0.6-0.6-0.8-1.4-0.8-2.3v-0.2c0-0.6,0.1-1.3,0.4-1.8
			c0.2-0.5,0.6-1,1.1-1.2c0.4-0.2,1-0.4,1.6-0.4c1,0,1.6,0.3,2.1,0.8s0.7,1.4,0.7,2.4v0.6h-4.3c0,0.5,0.2,1,0.5,1.3
			c0.3,0.3,0.7,0.5,1.2,0.5c0.6,0,1.3-0.3,1.7-0.8l0.8,0.7c-0.3,0.4-0.6,0.7-1.1,1C391.2,346.4,390.6,346.5,390.1,346.5z M390,340.8
			c-0.4,0-0.7,0.1-1,0.4c-0.2,0.3-0.4,0.6-0.5,1.2h2.9v-0.1c0-0.5-0.2-0.8-0.4-1.2C390.6,341,390.3,340.8,390,340.8z"/>
		<path class="st0" d="M397.6,344.6c0-0.2-0.1-0.4-0.3-0.6c-0.2-0.2-0.5-0.2-1.1-0.3c-0.5-0.1-1-0.2-1.3-0.4
			c-0.7-0.3-1.2-0.8-1.2-1.6c0-0.5,0.2-1.1,0.7-1.5s1.1-0.5,1.8-0.5c0.7,0,1.5,0.2,1.9,0.6c0.5,0.4,0.7,0.8,0.7,1.5h-1.5
			c0-0.3-0.1-0.5-0.3-0.7c-0.2-0.2-0.5-0.3-0.8-0.3c-0.3,0-0.6,0.1-0.8,0.2c-0.2,0.1-0.3,0.3-0.3,0.6c0,0.2,0.1,0.4,0.3,0.5
			c0.2,0.1,0.5,0.2,1.2,0.4c0.6,0.1,1.1,0.3,1.4,0.4c0.3,0.2,0.5,0.4,0.7,0.6c0.2,0.2,0.2,0.5,0.2,1c0,0.6-0.2,1.1-0.7,1.5
			c-0.5,0.4-1.2,0.5-1.9,0.5c-0.5,0-1.1-0.1-1.5-0.3c-0.4-0.2-0.7-0.4-1-0.8c-0.2-0.4-0.3-0.7-0.3-1.1h1.5c0,0.3,0.1,0.6,0.4,0.8
			c0.2,0.2,0.5,0.3,1,0.3s0.7-0.1,0.8-0.2C397.5,345,397.6,344.8,397.6,344.6z"/>
		<path class="st0" d="M402.3,338.1v1.6h1.2v1.1h-1.2v3.7c0,0.2,0,0.4,0.1,0.5c0.1,0.1,0.3,0.2,0.5,0.2c0.2,0,0.3,0,0.5-0.1v1.2
			c-0.3,0.1-0.6,0.1-1,0.1c-1.2,0-1.7-0.6-1.7-1.9v-3.7h-1.1v-1.1h1.1v-1.6L402.3,338.1L402.3,338.1z"/>
		<path class="st0" d="M408,341.1c-0.2,0-0.4,0-0.6,0c-0.6,0-1.2,0.2-1.4,0.7v4.6h-1.5v-6.6h1.4v0.7c0.3-0.5,0.8-0.8,1.5-0.8
			c0.2,0,0.4,0,0.5,0.1L408,341.1z"/>
		<path class="st0" d="M412.8,346.4c-0.1-0.1-0.1-0.3-0.2-0.6c-0.4,0.5-1.1,0.7-1.7,0.7c-0.6,0-1.2-0.2-1.6-0.5
			c-0.4-0.4-0.6-0.8-0.6-1.4c0-0.7,0.2-1.3,0.7-1.6c0.5-0.4,1.3-0.5,2.2-0.5h1V342c0-0.3-0.1-0.6-0.3-0.8s-0.5-0.3-0.8-0.3
			c-0.3,0-0.6,0.1-0.8,0.2s-0.3,0.4-0.3,0.6h-1.5c0-0.3,0.1-0.7,0.3-1.1c0.2-0.3,0.5-0.5,1-0.7c0.4-0.2,0.8-0.3,1.4-0.3
			c0.7,0,1.4,0.2,1.9,0.6c0.4,0.4,0.7,1,0.7,1.7v3c0,0.6,0.1,1.1,0.2,1.4v0.1L412.8,346.4L412.8,346.4z M411.1,345.3
			c0.3,0,0.5-0.1,0.8-0.2c0.3-0.1,0.4-0.3,0.6-0.5v-1.3h-0.8c-0.5,0-1,0.1-1.3,0.3s-0.4,0.4-0.4,0.8c0,0.3,0.1,0.5,0.3,0.6
			C410.6,345.2,410.8,345.3,411.1,345.3z"/>
		<path class="st0" d="M417.5,338.1v1.6h1.2v1.1h-1.2v3.7c0,0.2,0,0.4,0.1,0.5c0.1,0.1,0.3,0.2,0.5,0.2c0.2,0,0.3,0,0.5-0.1v1.2
			c-0.3,0.1-0.6,0.1-1,0.1c-1.2,0-1.7-0.6-1.7-1.9v-3.7h-1.1v-1.1h1.1v-1.6L417.5,338.1L417.5,338.1z"/>
		<path class="st0" d="M419.8,338c0-0.2,0.1-0.4,0.2-0.5s0.3-0.2,0.6-0.2c0.3,0,0.5,0.1,0.6,0.2c0.1,0.1,0.2,0.3,0.2,0.5
			c0,0.2-0.1,0.4-0.2,0.5c-0.1,0.1-0.3,0.2-0.6,0.2c-0.3,0-0.4-0.1-0.6-0.2C419.8,338.4,419.8,338.2,419.8,338z M421.4,346.4h-1.5
			v-6.6h1.5V346.4z"/>
		<path class="st0" d="M422.7,343c0-0.6,0.1-1.3,0.4-1.8c0.2-0.5,0.6-1,1.1-1.2c0.4-0.3,1-0.4,1.6-0.4c0.8,0,1.6,0.3,2.2,0.8
			c0.5,0.5,0.8,1.4,1,2.3v0.3c0,0.6-0.1,1.3-0.4,1.8c-0.2,0.5-0.6,1-1.1,1.2c-0.4,0.3-1.1,0.4-1.6,0.4c-1,0-1.7-0.3-2.2-1
			C423,344.9,422.7,344.1,422.7,343L422.7,343z M424.1,343.1c0,0.6,0.1,1.2,0.4,1.6c0.3,0.4,0.6,0.5,1.2,0.5s0.8-0.2,1.2-0.6
			s0.4-1,0.4-1.7c0-0.6-0.1-1.2-0.4-1.6c-0.3-0.4-0.6-0.6-1.2-0.6s-0.8,0.2-1.2,0.5C424.4,341.8,424.1,342.3,424.1,343.1z"/>
		<path class="st0" d="M431.5,339.7v0.7c0.5-0.6,1.2-0.8,1.9-0.8c1.4,0,2.1,0.7,2.1,2.3v4.3H434V342c0-0.4-0.1-0.7-0.3-1
			c-0.2-0.2-0.5-0.3-0.8-0.3c-0.6,0-1.1,0.3-1.4,0.8v4.7H430v-6.6L431.5,339.7L431.5,339.7z"/>
	</g>
	<g>
		<path class="st4" d="M398.4,333.1c-2,0-3.9-0.7-5.4-2.2c-2.5-2.5-3-6.6-1.1-9.5c0.2-0.2,0.5-0.3,0.7-0.1c0.2,0.2,0.3,0.5,0.1,0.7
			c-1.7,2.7-1.4,6,0.8,8.3c2.2,2.2,5.6,2.5,8.3,0.8c0.2-0.2,0.5-0.1,0.7,0.1c0.2,0.2,0.1,0.5-0.1,0.7
			C401.2,332.7,399.7,333.1,398.4,333.1z"/>
	</g>
	<g>
		<path class="st4" d="M404.2,329.9c-0.1,0-0.2,0-0.3-0.1c-0.2-0.2-0.3-0.5-0.1-0.7c1.7-2.7,1.4-6-0.8-8.3c-2.2-2.2-5.6-2.7-8.3-0.8
			c-0.2,0.2-0.5,0.1-0.7-0.1c-0.2-0.2-0.1-0.5,0.1-0.7c3.1-2,7-1.6,9.5,1.1c2.5,2.5,3,6.6,1.1,9.5
			C404.5,329.9,404.4,329.9,404.2,329.9z"/>
	</g>
	<g>
		<path class="st4" d="M393.2,322.7c-0.2,0-0.4-0.1-0.5-0.3l-0.3-0.8l-1,0.3c-0.3,0.1-0.5,0-0.6-0.3c-0.1-0.3,0-0.5,0.3-0.6l1.5-0.5
			c0.3-0.1,0.5,0,0.6,0.3l0.5,1.4c0.1,0.3,0,0.5-0.3,0.6C393.3,322.7,393.3,322.7,393.2,322.7z"/>
	</g>
	<g>
		<path class="st4" d="M404,330.7c-0.1,0-0.1,0-0.2,0c-0.1-0.1-0.2-0.2-0.3-0.3l-0.5-1.5c-0.1-0.3,0-0.5,0.3-0.6
			c0.3-0.1,0.5,0,0.6,0.3l0.3,1l0.8-0.3c0.3-0.1,0.5,0,0.6,0.3s0,0.5-0.3,0.6L404,330.7C404.1,330.7,404.1,330.7,404,330.7z"/>
	</g>
</g>
<g>
	<g>
		<g>
			<g>
				<circle class="st1" cx="597.3" cy="68.4" r="43.4"/>
			</g>
			<g>
				<path class="st2" d="M597.3,112.3c-24.2,0-43.9-19.7-43.9-43.9s19.7-43.9,43.9-43.9c24.2,0,43.9,19.7,43.9,43.9
					S621.5,112.3,597.3,112.3z M597.3,25.6c-23.6,0-42.8,19.2-42.8,42.8s19.2,42.8,42.8,42.8c23.6,0,42.8-19.2,42.8-42.8
					S621,25.6,597.3,25.6z"/>
			</g>
		</g>
	</g>
	<g class="st3">
		<path class="st0" d="M575.2,82.5v-8.9h3.1c1.1,0,1.8,0.2,2.3,0.6c0.5,0.4,0.7,1,0.7,1.8c0,0.4-0.1,0.7-0.3,1.1
			c-0.2,0.3-0.5,0.5-1,0.7c0.5,0.1,0.8,0.4,1.2,0.7c0.2,0.3,0.4,0.8,0.4,1.3c0,0.8-0.3,1.5-0.8,1.9c-0.5,0.4-1.3,0.6-2.3,0.6h-3.3
			V82.5z M576.6,77.3h1.5c0.5,0,0.8-0.1,1.2-0.3c0.3-0.2,0.4-0.5,0.4-1c0-0.4-0.1-0.7-0.4-1c-0.3-0.2-0.6-0.3-1.2-0.3h-1.5V77.3z
			 M576.6,78.5v2.8h1.7c0.5,0,0.8-0.1,1.2-0.3c0.3-0.2,0.4-0.5,0.4-1c0-1-0.4-1.4-1.4-1.4h-1.9V78.5z"/>
		<path class="st0" d="M582.9,74.1c0-0.2,0.1-0.4,0.2-0.5s0.3-0.2,0.6-0.2c0.3,0,0.5,0.1,0.6,0.2s0.2,0.3,0.2,0.5
			c0,0.2-0.1,0.4-0.2,0.5c-0.1,0.1-0.3,0.2-0.6,0.2c-0.3,0-0.5-0.1-0.6-0.2C583,74.6,582.9,74.4,582.9,74.1z M584.5,82.5H583V76h1.5
			V82.5z"/>
		<path class="st0" d="M585.9,79.1c0-1.1,0.2-1.8,0.7-2.4c0.5-0.6,1.2-1,1.9-1c0.7,0,1.4,0.2,1.8,0.7l0.1-0.6h1.4v6.5
			c0,0.8-0.3,1.6-0.8,2c-0.5,0.4-1.3,0.7-2.2,0.7c-0.5,0-1-0.1-1.4-0.3c-0.4-0.2-0.8-0.4-1.1-0.7l0.7-0.8c0.4,0.5,1.1,0.8,1.7,0.8
			c0.5,0,0.8-0.1,1.2-0.4s0.4-0.6,0.4-1.2v-0.5c-0.4,0.5-1,0.7-1.7,0.7c-0.7,0-1.4-0.3-1.9-1C586.1,81.1,585.9,80.3,585.9,79.1z
			 M587.4,79.2c0,0.6,0.1,1.2,0.4,1.6c0.3,0.4,0.6,0.5,1.2,0.5c0.6,0,1.1-0.2,1.4-0.7v-2.9c-0.3-0.5-0.7-0.7-1.3-0.7
			c-0.5,0-0.8,0.2-1.2,0.5C587.5,78,587.4,78.5,587.4,79.2z"/>
		<path class="st0" d="M596,79.1c0-1.1,0.2-1.8,0.7-2.4c0.4-0.6,1.1-1,1.9-1c0.7,0,1.3,0.2,1.7,0.7v-3.4h1.5v9.4h-1.4l-0.1-0.6
			c-0.4,0.5-1.1,0.8-1.8,0.8c-0.7,0-1.4-0.3-1.9-1C596.3,81,596,80.2,596,79.1z M597.5,79.2c0,0.6,0.1,1.2,0.4,1.6
			c0.2,0.4,0.6,0.5,1.1,0.5c0.6,0,1.1-0.3,1.4-0.8v-2.9c-0.3-0.5-0.7-0.8-1.3-0.8c-0.5,0-0.8,0.2-1.2,0.5
			C597.6,78,597.5,78.5,597.5,79.2z"/>
		<path class="st0" d="M607.4,82.5c-0.1-0.1-0.1-0.3-0.2-0.6c-0.4,0.5-1.1,0.7-1.7,0.7c-0.6,0-1.2-0.2-1.6-0.5
			c-0.4-0.4-0.6-0.8-0.6-1.4c0-0.7,0.2-1.3,0.7-1.6c0.5-0.4,1.3-0.5,2.2-0.5h1v-0.4c0-0.3-0.1-0.6-0.3-0.8c-0.2-0.2-0.5-0.3-0.8-0.3
			s-0.6,0.1-0.8,0.2c-0.2,0.1-0.3,0.4-0.3,0.6h-1.5c0-0.3,0.1-0.7,0.3-1.1c0.2-0.3,0.5-0.5,1-0.7c0.4-0.2,0.8-0.3,1.4-0.3
			c0.7,0,1.4,0.2,1.9,0.6c0.4,0.4,0.7,1,0.7,1.7v3c0,0.6,0.1,1.1,0.2,1.4v0.1L607.4,82.5L607.4,82.5z M605.8,81.5
			c0.3,0,0.5-0.1,0.8-0.2c0.3-0.1,0.4-0.3,0.6-0.5v-1.3h-0.8c-0.5,0-1,0.1-1.3,0.3c-0.3,0.2-0.4,0.4-0.4,0.8c0,0.3,0.1,0.5,0.3,0.6
			C605.2,81.4,605.5,81.5,605.8,81.5z"/>
		<path class="st0" d="M612.1,74.3v1.6h1.2v1.1h-1.2v3.7c0,0.2,0,0.4,0.1,0.5s0.3,0.2,0.5,0.2c0.2,0,0.3,0,0.5-0.1v1.2
			c-0.3,0.1-0.6,0.1-1,0.1c-1.2,0-1.7-0.6-1.7-1.9v-3.7h-1.1v-1.1h1.1v-1.6C610.6,74.3,612.1,74.3,612.1,74.3z"/>
		<path class="st0" d="M618.3,82.5c-0.1-0.1-0.1-0.3-0.2-0.6c-0.4,0.5-1.1,0.7-1.7,0.7c-0.6,0-1.2-0.2-1.6-0.5
			c-0.4-0.4-0.6-0.8-0.6-1.4c0-0.7,0.2-1.3,0.7-1.6c0.5-0.4,1.3-0.5,2.2-0.5h1v-0.4c0-0.3-0.1-0.6-0.3-0.8c-0.2-0.2-0.5-0.3-0.8-0.3
			s-0.6,0.1-0.8,0.2c-0.2,0.1-0.3,0.4-0.3,0.6h-1.5c0-0.3,0.1-0.7,0.3-1.1c0.2-0.3,0.5-0.5,1-0.7c0.4-0.2,0.8-0.3,1.4-0.3
			c0.7,0,1.4,0.2,1.9,0.6c0.4,0.4,0.7,1,0.7,1.7v3c0,0.6,0.1,1.1,0.2,1.4v0.1L618.3,82.5L618.3,82.5z M616.7,81.5
			c0.3,0,0.5-0.1,0.8-0.2c0.2-0.1,0.4-0.3,0.6-0.5v-1.3h-0.8c-0.5,0-1,0.1-1.3,0.3c-0.3,0.2-0.4,0.4-0.4,0.8c0,0.3,0.1,0.5,0.3,0.6
			C616.1,81.4,616.4,81.5,616.7,81.5z"/>
	</g>
	<g>
		<path class="st1" d="M597.3,58.1c-3.4,0-6.3,1.6-6.3,3.5v3.5c0,1.9,2.9,3.5,6.3,3.5c3.4,0,6.3-1.6,6.3-3.5v-3.5
			C603.6,59.7,600.7,58.1,597.3,58.1z"/>
		<path class="st4" d="M597.3,69.2c-3.7,0-6.8-1.8-6.8-4v-3.5c0-2.2,3.1-4,6.8-4c3.7,0,6.8,1.8,6.8,4v3.5
			C604.1,67.4,601,69.2,597.3,69.2z M597.3,58.7c-3.1,0-5.7,1.4-5.7,3v3.5c0,1.6,2.7,3,5.7,3s5.7-1.4,5.7-3v-3.5
			C603,60,600.4,58.7,597.3,58.7z"/>
	</g>
	<g>
		<path class="st1" d="M597.3,54.6c-3.4,0-6.3,1.6-6.3,3.5v3.5c0,1.9,2.9,3.5,6.3,3.5c3.4,0,6.3-1.6,6.3-3.5v-3.5
			C603.6,56.2,600.7,54.6,597.3,54.6z"/>
		<path class="st4" d="M597.3,65.7c-3.7,0-6.8-1.8-6.8-4v-3.5c0-2.2,3.1-4,6.8-4c3.7,0,6.8,1.8,6.8,4v3.5
			C604.1,63.9,601,65.7,597.3,65.7z M597.3,55.2c-3.1,0-5.7,1.4-5.7,3v3.5c0,1.6,2.7,3,5.7,3s5.7-1.4,5.7-3v-3.5
			C603,56.5,600.4,55.2,597.3,55.2z"/>
	</g>
	<g>
		<path class="st1" d="M597.3,51.1c-3.4,0-6.3,1.6-6.3,3.5v3.5c0,1.9,2.9,3.5,6.3,3.5c3.4,0,6.3-1.6,6.3-3.5v-3.5
			C603.6,52.7,600.7,51.1,597.3,51.1z"/>
		<path class="st4" d="M597.3,62.2c-3.7,0-6.8-1.8-6.8-4v-3.5c0-2.2,3.1-4,6.8-4c3.7,0,6.8,1.8,6.8,4v3.5
			C604.1,60.4,601,62.2,597.3,62.2z M597.3,51.7c-3.1,0-5.7,1.4-5.7,3v3.5c0,1.6,2.7,3,5.7,3s5.7-1.4,5.7-3v-3.5
			C603,53,600.4,51.7,597.3,51.7z"/>
	</g>
	<g>
		<path class="st1" d="M591.1,54.6c0,1.9,2.9,3.5,6.3,3.5c3.4,0,6.3-1.6,6.3-3.5"/>
		<path class="st4" d="M597.3,58.7c-3.7,0-6.8-1.8-6.8-4h1.1c0,1.6,2.7,3,5.7,3s5.7-1.4,5.7-3h1.1C604.1,56.9,601,58.7,597.3,58.7z"
			/>
	</g>
</g>
<g>
	<g>
		<g>
			<g>
				<circle class="st1" cx="596.5" cy="332.8" r="43.4"/>
			</g>
			<g>
				<path class="st2" d="M596.5,376.7c-24.2,0-43.9-19.7-43.9-43.9c0-24.2,19.7-43.9,43.9-43.9c24.2,0,43.9,19.7,43.9,43.9
					C640.4,357,620.6,376.7,596.5,376.7z M596.5,290c-23.6,0-42.8,19.2-42.8,42.8c0,23.6,19.2,42.8,42.8,42.8
					c23.6,0,42.8-19.2,42.8-42.8C639.3,309.2,620.1,290,596.5,290z"/>
			</g>
		</g>
	</g>
	<g class="st3">
		<path class="st0" d="M579.8,345h-1.7v3.4h-1.6v-8.8h3.2c1.1,0,1.8,0.2,2.3,0.7c0.5,0.5,0.8,1.2,0.8,2c0,0.6-0.1,1.1-0.4,1.5
			c-0.3,0.4-0.7,0.7-1.2,1l2,3.7v0.1h-1.7L579.8,345z M578.1,343.7h1.6c0.5,0,1-0.1,1.3-0.4c0.3-0.3,0.4-0.6,0.4-1.1
			c0-0.5-0.1-0.8-0.4-1.1c-0.3-0.2-0.6-0.4-1.2-0.4h-1.6v3H578.1z"/>
		<path class="st0" d="M584,345.1c0-0.6,0.1-1.3,0.4-1.8c0.2-0.5,0.6-1,1.1-1.2c0.4-0.2,1-0.4,1.6-0.4c0.8,0,1.6,0.3,2.2,0.8
			c0.5,0.5,0.8,1.4,1,2.3v0.3c0,0.6-0.1,1.3-0.4,1.8c-0.3,0.5-0.6,1-1.1,1.2c-0.4,0.2-1.1,0.4-1.6,0.4c-1,0-1.7-0.3-2.2-1
			C584.3,347,584,346.2,584,345.1L584,345.1z M585.4,345.2c0,0.6,0.1,1.2,0.4,1.6s0.6,0.5,1.2,0.5c0.5,0,0.8-0.2,1.2-0.6
			s0.4-1,0.4-1.7c0-0.6-0.1-1.2-0.4-1.6c-0.3-0.4-0.6-0.6-1.2-0.6c-0.5,0-0.8,0.2-1.2,0.5C585.7,343.8,585.4,344.5,585.4,345.2z"/>
		<path class="st0" d="M595.4,347.8c-0.4,0.5-1.1,0.7-1.9,0.7c-0.7,0-1.3-0.2-1.6-0.6c-0.3-0.4-0.5-1.1-0.5-1.8v-4.2h1.5v4.2
			c0,0.8,0.3,1.3,1.1,1.3s1.2-0.2,1.5-0.7v-4.8h1.5v6.6h-1.4L595.4,347.8z"/>
		<path class="st0" d="M600.3,340.2v1.6h1.2v1.1h-1.2v3.7c0,0.2,0,0.4,0.1,0.5s0.3,0.2,0.5,0.2s0.3,0,0.5-0.1v1.2
			c-0.3,0.1-0.6,0.1-1,0.1c-1.2,0-1.7-0.6-1.7-1.9v-3.7h-1.1v-1.1h1.1v-1.6L600.3,340.2L600.3,340.2z"/>
		<path class="st0" d="M602.5,340.1c0-0.2,0.1-0.4,0.2-0.5s0.3-0.2,0.6-0.2c0.3,0,0.5,0.1,0.6,0.2s0.2,0.3,0.2,0.5s-0.1,0.4-0.2,0.5
			c-0.1,0.1-0.3,0.2-0.6,0.2c-0.3,0-0.4-0.1-0.6-0.2S602.5,340.3,602.5,340.1z M604.1,348.5h-1.5v-6.6h1.5V348.5z"/>
		<path class="st0" d="M607.2,341.8v0.7c0.5-0.6,1.2-0.8,1.9-0.8c1.4,0,2.1,0.7,2.1,2.3v4.3h-1.5v-4.2c0-0.4-0.1-0.7-0.3-1
			c-0.2-0.2-0.5-0.3-0.8-0.3c-0.6,0-1.1,0.3-1.4,0.8v4.7h-1.5v-6.6L607.2,341.8L607.2,341.8z"/>
		<path class="st0" d="M612.5,345.1c0-1.1,0.2-1.8,0.7-2.4c0.5-0.6,1.2-1,1.9-1s1.4,0.2,1.8,0.7l0.1-0.6h1.4v6.5
			c0,0.8-0.3,1.6-0.8,2c-0.5,0.5-1.3,0.7-2.2,0.7c-0.5,0-1-0.1-1.4-0.3s-0.8-0.4-1.1-0.7l0.7-0.8c0.4,0.5,1.1,0.8,1.7,0.8
			c0.5,0,0.8-0.1,1.2-0.4c0.3-0.3,0.4-0.6,0.4-1.2V348c-0.4,0.5-1,0.7-1.7,0.7c-0.7,0-1.4-0.3-1.9-1
			C612.7,347,612.5,346.2,612.5,345.1z M614,345.2c0,0.6,0.1,1.2,0.4,1.6s0.6,0.5,1.2,0.5c0.6,0,1.1-0.2,1.4-0.7v-2.9
			c-0.3-0.5-0.7-0.7-1.3-0.7c-0.5,0-0.8,0.2-1.2,0.5C614.1,343.9,614,344.5,614,345.2z"/>
	</g>
	<g>
		<path class="st4" d="M602.9,333.5c-1.5,0-2.7-1.2-2.7-2.7s1.2-2.7,2.7-2.7c1.5,0,2.7,1.2,2.7,2.7S604.4,333.5,602.9,333.5z
			 M602.9,329.3c-0.8,0-1.6,0.7-1.6,1.6c0,0.8,0.7,1.6,1.6,1.6s1.6-0.7,1.6-1.6C604.5,330,603.8,329.3,602.9,329.3z"/>
	</g>
	<g>
		<path class="st4" d="M591.9,333.5c-1.5,0-2.7-1.2-2.7-2.7s1.2-2.7,2.7-2.7c1.5,0,2.7,1.2,2.7,2.7S593.4,333.5,591.9,333.5z
			 M591.9,329.3c-0.8,0-1.6,0.7-1.6,1.6c0,0.8,0.7,1.6,1.6,1.6s1.6-0.7,1.6-1.6C593.5,330,592.8,329.3,591.9,329.3z"/>
	</g>
	<g>
		<path class="st4" d="M597.4,322.5c-1.5,0-2.7-1.2-2.7-2.7s1.2-2.7,2.7-2.7c1.5,0,2.7,1.2,2.7,2.7S598.9,322.5,597.4,322.5z
			 M597.4,318.3c-0.8,0-1.6,0.7-1.6,1.6s0.7,1.6,1.6,1.6c0.8,0,1.6-0.7,1.6-1.6S598.3,318.3,597.4,318.3z"/>
	</g>
	<g>
		<path class="st4" d="M602,329.5c-0.2,0-0.4-0.1-0.4-0.3L598,322c-0.1-0.2,0-0.5,0.2-0.7c0.2-0.1,0.5,0,0.7,0.2l3.6,7.2
			c0.1,0.2,0,0.5-0.2,0.7C602.1,329.5,602.1,329.5,602,329.5z"/>
	</g>
	<g>
		<path class="st4" d="M592.9,329.5c-0.1,0-0.2,0-0.2-0.1c-0.2-0.1-0.3-0.4-0.2-0.7l3.6-7.2c0.1-0.2,0.4-0.3,0.7-0.2
			c0.2,0.1,0.3,0.4,0.2,0.7l-3.6,7.2C593.3,329.4,593.1,329.5,592.9,329.5z"/>
	</g>
</g>
</svg>
