<?xml version="1.0" encoding="utf-8"?>
<!-- Generator: Adobe Illustrator 19.2.1, SVG Export Plug-In . SVG Version: 6.00 Build 0)  -->
<svg version="1.1" id="Layer_1" xmlns="http://www.w3.org/2000/svg" xmlns:xlink="http://www.w3.org/1999/xlink" x="0px" y="0px"
	 viewBox="0 0 360 180" style="enable-background:new 0 0 360 180;" xml:space="preserve">
<style type="text/css">
	.st0{fill:#FFFFFF;}
	.st1{display:none;}
	.st2{display:inline;fill:#FFFFFF;}
	.st3{fill-rule:evenodd;clip-rule:evenodd;fill:#FFFFFF;}
	.st4{clip-path:url(#SVGID_2_);}
	.st5{clip-path:url(#SVGID_4_);fill:#FFFFFF;}
	.st6{clip-path:url(#SVGID_6_);}
	.st7{clip-path:url(#SVGID_8_);fill:#FFFFFF;}
	.st8{clip-path:url(#SVGID_10_);}
	.st9{clip-path:url(#SVGID_12_);fill:#FFFFFF;}
</style>
<g>
	<g>
		<defs>
			<path id="SVGID_1_" d="M-185,67.4l-6.3,6.3c-0.4,0.4-0.4,0.9,0,1.3l44.7,44.7c0.4,0.4,0.9,0.4,1.3,0l44.7-44.7
				c0.4-0.4,0.4-0.9,0-1.3l-6.3-6.3l-36.4,36.4c-1.4,1.4-3.7,1.4-5.2,0L-185,67.4z"/>
		</defs>
		<use xlink:href="#SVGID_1_"  style="overflow:visible;fill-rule:evenodd;clip-rule:evenodd;fill:#FFFFFF;"/>
		<clipPath id="SVGID_2_">
			<use xlink:href="#SVGID_1_"  style="overflow:visible;"/>
		</clipPath>
		<g class="st4">
			<defs>
				<rect id="SVGID_3_" x="-328.4" y="-50.8" width="364.8" height="273.6"/>
			</defs>
			<use xlink:href="#SVGID_3_"  style="overflow:visible;fill:#FFFFFF;"/>
			<clipPath id="SVGID_4_">
				<use xlink:href="#SVGID_3_"  style="overflow:visible;"/>
			</clipPath>
		</g>
	</g>
</g>
<g>
	<path id="DC_x2F_OS_2_" class="st3" d="M174,73.6c5,0,8,1.8,8,5.5v22.3c0,3.7-3,5.5-8,5.5h-7.8V73.6H174z M174,115.1
		c13.2,0,17.8-5.8,17.8-11.9V77.3c0-6.1-4.6-11.9-17.8-11.9h-15.9c-1.3,0-1.8,0.6-1.8,1.9v45.9c0,1.2,0.4,1.9,1.5,1.9H174z
		 M233,99.5c0-1.3-0.4-1.8-1.7-1.8h-6.1c-1.3,0-1.8,0.5-1.8,1.8v2.8c0,3.7-2.6,5.5-7.4,5.5c-4.9,0-7.4-1.8-7.4-5.5V78.7
		c0-3.7,2.5-5.5,7.4-5.5c4.9,0,7.4,1.8,7.4,5.5v1.8c0,1.3,0.5,1.8,1.8,1.8h6.1c1.2,0,1.7-0.5,1.7-1.8V77c0-6.1-3.9-11.9-17.2-11.9
		c-13.2,0-17.2,5.8-17.2,11.9v27c0,6.1,3.9,11.9,17.2,11.9c13.2,0,17.2-5.8,17.2-11.9V99.5z M289.6,105c0,4.5-2.8,7.5-11.4,7.5
		c-8.5,0-11.3-3.1-11.3-7.5V75.9c0-4.5,2.8-7.5,11.3-7.5c8.5,0,11.4,3.1,11.4,7.5V105z M263,105.6c0,5.7,3.5,10.3,15.2,10.3
		c11.8,0,15.3-4.6,15.3-10.3V75.4c0-5.7-3.6-10.3-15.3-10.3c-11.7,0-15.2,4.6-15.2,10.3V105.6z M326.1,78.8c0,0.6,0.2,0.9,0.8,0.9
		h2.1c0.7,0,0.9-0.3,0.9-0.9v-3.6c0-5.7-3.3-10.3-14.7-10.3c-11.5,0-14.7,4.6-14.7,10.3v3.9c0,4.6,3.4,7.5,6.3,8.6l13.6,5.3
		c2.8,1.1,6.1,2.8,6.1,6.8v5.2c0,4.4-2.8,7.4-11.4,7.4c-8.5,0-11.2-3.1-11.2-7.4v-3.4c0-0.7-0.3-0.9-0.9-0.9h-2.1
		c-0.6,0-0.9,0.3-0.9,0.9v3.8c0,5.7,3.6,10.3,15.2,10.3s15.1-4.6,15.1-10.3V99c0-5-3.7-7.7-7.3-9.1l-14-5.3c-2-0.7-4.6-2.5-4.6-6.2
		v-2.7c0-4.4,2.4-7.4,10.9-7.4c8.5,0,10.9,3.1,10.9,7.4V78.8z"/>
	<path id="_x2F__2_" class="st3" d="M257.6,59.8c0.3,0,0.4,0.2,0.4,0.5l-16.2,59.9c-0.1,0.3-0.3,0.5-0.6,0.5h-2.7
		c-0.3,0-0.4-0.2-0.4-0.5l16.2-59.9c0.1-0.3,0.3-0.5,0.6-0.5H257.6z"/>
	<path id="Square_24_" class="st3" d="M79.6,102.6c-0.4-0.4-1-0.4-1.4,0l-13.3,13.3c-0.4,0.4-0.4,1,0,1.4l13.3,13.3
		c0.4,0.4,1,0.4,1.4,0L93,117.3c0.4-0.4,0.4-1,0-1.4L79.6,102.6z"/>
	<g id="Fourth_Row_3_">
		<path id="Square_23_" class="st3" d="M110.2,98.7L96.8,85.4c-0.4-0.4-1-0.4-1.4,0L82.1,98.7c-0.4,0.4-0.4,1,0,1.4l13.3,13.3
			c0.4,0.4,1,0.4,1.4,0l13.3-13.3C110.6,99.7,110.6,99.1,110.2,98.7z"/>
		<path id="Square_22_" class="st3" d="M75.8,98.7L62.4,85.4c-0.4-0.4-1-0.4-1.4,0L47.7,98.7c-0.4,0.4-0.4,1,0,1.4L61,113.5
			c0.4,0.4,1,0.4,1.4,0l13.3-13.3C76.2,99.7,76.2,99.1,75.8,98.7z"/>
	</g>
	<g id="Third_Row_3_">
		<path id="Square_21_" class="st3" d="M127.4,82.9l-13.3,13.3c-0.4,0.4-1,0.4-1.4,0L99.3,82.9c-0.4-0.4-0.4-1,0-1.4l13.3-13.3
			c0.4-0.4,1-0.4,1.4,0l13.3,13.3C127.8,81.9,127.8,82.6,127.4,82.9z"/>
		<path id="Square_20_" class="st3" d="M93,82.9L79.7,96.3c-0.4,0.4-1,0.4-1.4,0L64.9,82.9c-0.4-0.4-0.4-1,0-1.4l13.3-13.3
			c0.4-0.4,1-0.4,1.4,0L93,81.5C93.4,81.9,93.4,82.6,93,82.9z"/>
		<path id="Square_19_" class="st3" d="M58.6,82.9L45.2,96.3c-0.4,0.4-1,0.4-1.4,0L30.5,82.9c-0.4-0.4-0.4-1,0-1.4l13.3-13.3
			c0.4-0.4,1-0.4,1.4,0l13.3,13.3C59,81.9,59,82.6,58.6,82.9z"/>
	</g>
	<g id="Second_Row_3_">
		<path id="Square_18_" class="st3" d="M95.4,77.2c0.4,0.4,1,0.4,1.4,0l13.3-13.3c0.4-0.4,0.4-1,0-1.4L96.8,49.1
			c-0.4-0.4-1-0.4-1.4,0L82.1,62.5c-0.4,0.4-0.4,1,0,1.4L95.4,77.2z"/>
		<path id="Square_17_" class="st3" d="M61,77.1c0.4,0.4,1,0.4,1.4,0l13.3-13.3c0.4-0.4,0.4-1,0-1.4L62.4,49.1c-0.4-0.4-1-0.4-1.4,0
			L47.7,62.4c-0.4,0.4-0.4,1,0,1.4L61,77.1z"/>
	</g>
	<path id="Sqaure_3_" class="st3" d="M78.3,57.6c0.4,0.4,1,0.4,1.4,0l13.3-13.3c0.4-0.4,0.4-1,0-1.4L79.7,29.5c-0.4-0.4-1-0.4-1.4,0
		L65,42.9c-0.4,0.4-0.4,1,0,1.4L78.3,57.6z"/>
	<g>
		<defs>
			<path id="SVGID_9_" d="M37.3,94.6l-6.7,6.7c-0.4,0.4-0.4,1,0,1.4l47.7,47.7c0.4,0.4,1,0.4,1.4,0l47.7-47.7c0.4-0.4,0.4-1,0-1.4
				l-6.7-6.7l-38.9,38.9c-1.5,1.5-4,1.5-5.5,0L37.3,94.6z"/>
		</defs>
		<use xlink:href="#SVGID_9_"  style="overflow:visible;fill-rule:evenodd;clip-rule:evenodd;fill:#FFFFFF;"/>
		<clipPath id="SVGID_6_">
			<use xlink:href="#SVGID_9_"  style="overflow:visible;"/>
		</clipPath>
		<g class="st6">
			<defs>
				<rect id="SVGID_11_" x="-115.9" y="-31.6" width="389.6" height="292.2"/>
			</defs>
			<use xlink:href="#SVGID_11_"  style="overflow:visible;fill:#FFFFFF;"/>
			<clipPath id="SVGID_8_">
				<use xlink:href="#SVGID_11_"  style="overflow:visible;"/>
			</clipPath>
			<rect x="27.8" y="92.2" class="st7" width="102.3" height="61"/>
		</g>
	</g>
</g>
</svg>
