<svg id="Layer_1" xmlns="http://www.w3.org/2000/svg" viewBox="0 0 45 45"><style>.st0{fill:#ff405e}.st1{fill:#264c5f}.st2{fill:#c3d0db}</style><g id="Layer_1_1_"><path class="st0" d="M21.1 26.1c-.2 0-.3-.1-.4-.2l-3.5-5.1-4.9 2.7c-.2.1-.5 0-.7-.2-.1-.2 0-.5.2-.7l5.3-2.9c.2-.1.5-.1.7.2l3.3 4.8 3.3-6.7c.1-.2.2-.3.4-.3s.3 0 .4.2l2.9 3.4 2.1-2.8c.1-.1.2-.2.4-.2s.3.1.4.2l3.9 5.1 2.1-4.3c.1-.1.2-.2.4-.3.2 0 .3 0 .4.1l5.1 4.9c-.4.3-.1.3-.3.5s-.2.4-.4.2l-4.6-4.4-2.1 4.4c-.1.2-.2.3-.4.3s-.3-.1-.4-.2l-4-5.2-2.1 2.8c-.1.1-.2.2-.4.2s-.3-.1-.4-.2L24.9 19l-3.4 6.8c0 .2-.2.3-.4.3z"/><path class="st1" d="M11.6 12.5h1v29.9h-1z"/><path class="st1" d="M42.9 13H2V4.5C2 3.2 3.2 2 4.5 2h35.9c1.4 0 2.5 1.1 2.5 2.5V13zM3 12h38.9V4.5c0-.8-.7-1.5-1.5-1.5H4.5C3.7 3 3 3.7 3 4.5V12zm24 22H17c-.6 0-1-.4-1-1s.4-1 1-1h10c.6 0 1 .4 1 1s-.4 1-1 1z"/><path class="st2" d="M35.8 38H17c-.6 0-1-.4-1-1s.4-1 1-1h18.8c.6 0 1 .4 1 1s-.4 1-1 1z"/><path class="st0" d="M8.8 8.5h-3c-.6 0-1-.4-1-1s.4-1 1-1h3c.6 0 1 .4 1 1s-.5 1-1 1z"/><path class="st2" d="M31.4 8h-3c-.3 0-.5-.2-.5-.5s.3-.5.5-.5h3c.3 0 .5.2.5.5s-.2.5-.5.5z"/><path class="st1" d="M38.4 8h-3c-.3 0-.5-.2-.5-.5s.3-.5.5-.5h3c.3 0 .5.2.5.5s-.2.5-.5.5z"/><path class="st1" d="M40.4 43H4.5C3.2 43 2 41.8 2 40.5v-36C2 3.2 3.2 2 4.5 2h35.9c1.4 0 2.5 1.1 2.5 2.5v35.9c0 1.4-1.1 2.6-2.5 2.6zM4.5 3C3.7 3 3 3.7 3 4.5v35.9c0 .9.7 1.6 1.5 1.6h35.9c.8 0 1.5-.7 1.5-1.5v-36c0-.8-.7-1.5-1.5-1.5H4.5z"/></g></svg>