<svg xmlns="http://www.w3.org/2000/svg" viewBox="0 0 45 45"><style>.st0{fill:none;stroke:#ff405e;stroke-width:1.5;stroke-linejoin:round;stroke-miterlimit:10}.st1{fill:#ff405e}.st2{fill:#264c5f}.st3{fill:#fff}.st4{fill:#c3d0db}.st5{fill:#99b1c1}.st6{fill:#f2f5f7}.st7{fill:#14283c}.st8{fill:#6a94a8}</style><g id="Layer_1"><path class="st4" d="M40.5 42.5H4.6c-1.1 0-2-.9-2-2v-36c0-1.1.9-2 2-2h35.9c1.1 0 2 .9 2 2v35.9c0 1.2-.9 2.1-2 2.1z"/><path class="st2" d="M40.5 43H4.6c-1.4 0-2.5-1.1-2.5-2.5v-36C2.1 3.2 3.2 2 4.6 2h35.9C41.8 2 43 3.2 43 4.5v35.9c0 1.4-1.2 2.6-2.5 2.6zM4.6 3c-.9 0-1.5.7-1.5 1.5v35.9c0 .8.7 1.5 1.5 1.5h35.9c.8 0 1.5-.7 1.5-1.5V4.5c0-.8-.7-1.5-1.5-1.5H4.6z"/><path class="st3" d="M42.5 12.5H2.6v-8c0-1.1.9-2 2-2h35.9c1.1 0 2 .9 2 2v8z"/><path class="st2" d="M43 13H2.1V4.5C2.1 3.2 3.2 2 4.6 2h35.9C41.8 2 43 3.2 43 4.5V13zM3.1 12H42V4.5c0-.8-.7-1.5-1.5-1.5H4.6c-.9 0-1.5.7-1.5 1.5V12zm18.6 5.4h-10c-.3 0-.5-.2-.5-.5s.2-.5.5-.5h10c.3 0 .5.2.5.5s-.3.5-.5.5z"/><path class="st3" d="M30.5 21.4h-9.8c-.3 0-.5-.2-.5-.5s.2-.5.5-.5h9.8c.3 0 .5.2.5.5s-.3.5-.5.5z"/><path class="st1" d="M16.7 21.4h-5c-.3 0-.5-.2-.5-.5s.2-.5.5-.5h5c.3 0 .5.2.5.5s-.3.5-.5.5z"/><path class="st3" d="M24.3 25.4h-5.6c-.3 0-.5-.2-.5-.5s.2-.5.5-.5h5.6c.3 0 .5.2.5.5s-.2.5-.5.5z"/><path class="st8" d="M14.7 25.4h-3c-.3 0-.5-.2-.5-.5s.2-.5.5-.5h3c.3 0 .5.2.5.5s-.3.5-.5.5z"/><path class="st3" d="M27.7 29.4h-5c-.3 0-.5-.2-.5-.5s.2-.5.5-.5h5c.3 0 .5.2.5.5s-.3.5-.5.5z"/><path class="st2" d="M18.7 29.4h-7c-.3 0-.5-.2-.5-.5s.2-.5.5-.5h7c.3 0 .5.2.5.5s-.3.5-.5.5z"/><path class="st3" d="M30.5 33.4H11.7c-.3 0-.5-.2-.5-.5s.2-.5.5-.5h18.8c.3 0 .5.2.5.5s-.3.5-.5.5zm0 4H11.7c-.3 0-.5-.2-.5-.5s.2-.5.5-.5h18.8c.3 0 .5.2.5.5s-.3.5-.5.5z"/><path class="st1" d="M8.8 8.5h-3c-.6 0-1-.4-1-1s.4-1 1-1h3c.6 0 1 .4 1 1s-.5 1-1 1z"/><path class="st4" d="M31.4 8h-3c-.3 0-.5-.2-.5-.5s.3-.5.5-.5h3c.3 0 .5.2.5.5s-.2.5-.5.5z"/><path class="st2" d="M38.4 8h-3c-.3 0-.5-.2-.5-.5s.3-.5.5-.5h3c.3 0 .5.2.5.5s-.2.5-.5.5z"/><circle class="st3" cx="7.6" cy="16.9" r="1"/><circle class="st3" cx="7.6" cy="20.9" r="1"/><circle class="st3" cx="7.6" cy="24.9" r="1"/><circle class="st3" cx="7.6" cy="28.9" r="1"/><circle class="st3" cx="7.6" cy="32.9" r="1"/><circle class="st3" cx="7.6" cy="36.9" r="1"/></g></svg>