<svg xmlns="http://www.w3.org/2000/svg" viewBox="0 0 45 45"><style>.st0{fill:none;stroke:#ff405e;stroke-width:1.5;stroke-linejoin:round;stroke-miterlimit:10}.st1{fill:#ff405e}.st2{fill:#264c5f}.st3{fill:#fff}.st4{fill:#c3d0db}.st5{fill:#99b1c1}.st6{fill:#f2f5f7}.st7{fill:#14283c}.st8{fill:#6a94a8}</style><g id="Layer_1"><path class="st6" d="M22.5 6.4v32.2l12.1-4.9 4-27.3zm0-3.9v3.9H6.4l4 27.3 12.1 4.9v3.9l-15-6-5-34z"/><path class="st2" d="M22.5 43h-.2l-15-6c-.2-.1-.3-.2-.3-.4l-5-34c0-.1 0-.3.1-.4.2-.1.3-.2.4-.2h39.9c.1 0 .3.1.4.2.1.1.2.3.2.4l-5 33.9c0 .2-.1.3-.3.4l-15 6c-.1 0-.1.1-.2.1zM8 36.1l14.5 5.8L37 36.1 41.9 3H3.1L8 36.1z"/><path class="st1" d="M18 13.2h2.4v9.6c0 1.3-.4 2.3-1.2 3.1s-1.9 1.2-3.2 1.2c-1.4 0-2.5-.4-3.3-1.1-.8-.7-1.2-1.7-1.2-3h2.4c0 .7.2 1.3.5 1.6.4.4.9.5 1.6.5.6 0 1.1-.2 1.5-.6.4-.4.6-1 .6-1.7v-9.6zm13.2 10.2c0-.6-.2-1.1-.6-1.4-.4-.3-1.2-.7-2.3-1-1.1-.3-2-.7-2.6-1.1-1.2-.8-1.9-1.8-1.9-3.1 0-1.1.4-2 1.3-2.7.9-.7 2.1-1.1 3.5-1.1 1 0 1.8.2 2.5.5.7.4 1.3.8 1.8 1.5.4.6.6 1.4.6 2.2h-2.4c0-.7-.2-1.3-.7-1.7-.4-.4-1.1-.6-1.9-.6-.8 0-1.4.2-1.8.5-.4.3-.6.8-.6 1.4 0 .5.2.9.7 1.2.5.3 1.2.7 2.3 1 1.1.3 1.9.7 2.6 1.1.6.4 1.1.9 1.4 1.4.3.5.5 1.1.5 1.8 0 1.1-.4 2-1.3 2.7-.9.7-2.1 1-3.6 1-1 0-1.9-.2-2.7-.5-.8-.4-1.5-.9-1.9-1.5-.5-.6-.7-1.4-.7-2.3h2.4c0 .8.3 1.4.8 1.8.5.4 1.2.6 2.2.6.8 0 1.4-.2 1.9-.5.3-.3.5-.7.5-1.2z"/><path class="st2" d="M22.5 39.1h-.2l-12.1-4.8c-.1-.2-.2-.3-.2-.5L6 6.5c0-.1 0-.3.1-.4 0-.1.2-.2.3-.2h32.2c.1 0 .3.1.4.2.1.1.1.3.1.4l-4 27.3c0 .2-.1.3-.3.4L22.7 39c-.1.1-.1.1-.2.1zm-11.6-5.7L22.5 38l11.6-4.7L38 6.9H7l3.9 26.5z"/></g></svg>