<svg xmlns="http://www.w3.org/2000/svg" viewBox="0 0 45 45"><style>.st0{fill:none;stroke:#ff405e;stroke-width:1.5;stroke-linejoin:round;stroke-miterlimit:10}.st1{fill:#ff405e}.st2{fill:#264c5f}.st3{fill:#fff}.st4{fill:#c3d0db}.st5{fill:#99b1c1}.st6{fill:#f2f5f7}.st7{fill:#14283c}.st8{fill:#6a94a8}</style><g id="Layer_1"><path class="st2" d="M35 27.5H10c-.3 0-.5-.2-.5-.5s.2-.5.5-.5h25c.3 0 .5.2.5.5s-.2.5-.5.5z"/><path class="st1" d="M35 27.5H24.6c-.3 0-.5-.2-.5-.5s.2-.5.5-.5H35c.3 0 .5.2.5.5s-.2.5-.5.5z"/><path class="st2" d="M38 32.5h-1V25c0-.8-.7-1.5-1.5-1.5H9.6c-.8 0-1.5.7-1.5 1.5v7.5H7V25c0-1.4 1.1-2.5 2.5-2.5h25.9c1.4 0 2.5 1.1 2.5 2.5v7.5zM24.5 13c-3 0-5.5-2.5-5.5-5.5S21.5 2 24.5 2 30 4.5 30 7.5 27.5 13 24.5 13zm0-10C22 3 20 5.1 20 7.5s2 4.5 4.5 4.5S29 10 29 7.5 27 3 24.5 3z"/><path class="st2" d="M7.5 43c-3 0-5.5-2.5-5.5-5.5S4.5 32 7.5 32s5.5 2.5 5.5 5.5S10.6 43 7.5 43zm0-10C5.1 33 3 35 3 37.5S5 42 7.5 42s4.5-2 4.5-4.5S10 33 7.5 33z"/><path class="st1" d="M37.5 43c-3 0-5.5-2.5-5.5-5.5s2.5-5.5 5.5-5.5 5.5 2.5 5.5 5.5-2.5 5.5-5.5 5.5zm0-10C35 33 33 35 33 37.5s2 4.5 4.5 4.5 4.5-2 4.5-4.5-2.1-4.5-4.5-4.5z"/><path class="st2" d="M7.5 40.5c-1.7 0-3-1.3-3-3s1.3-3 3-3 3 1.3 3 3-1.3 3-3 3zm0-5c-1.1 0-2 .9-2 2s.9 2 2 2 2-.9 2-2-.9-2-2-2z"/><path class="st1" d="M37.5 40.5c-1.7 0-3-1.3-3-3s1.3-3 3-3 3 1.3 3 3-1.4 3-3 3zm0-5c-1.1 0-2 .9-2 2s.9 2 2 2 2-.9 2-2-.9-2-2-2z"/><circle class="st2" cx="24.5" cy="7.5" r="2.5"/><path class="st1" d="M38 32.5h-1V25c0-.8-.7-1.5-1.5-1.5h-11v-1h10.9c1.4 0 2.5 1.1 2.5 2.5v7.5z"/><path class="st2" d="M24 12.5h1v11h-1zm.5 16.5c-.3 0-.5-.2-.5-.5v-3c0-.3.2-.5.5-.5s.5.2.5.5v3c0 .3-.2.5-.5.5z"/></g></svg>