<svg xmlns="http://www.w3.org/2000/svg" viewBox="0 0 45 45"><style>.st0{fill:none;stroke:#ff405e;stroke-width:1.5;stroke-linejoin:round;stroke-miterlimit:10}.st1{fill:#ff405e}.st2{fill:#264c5f}.st3{fill:#fff}.st4{fill:#c3d0db}.st5{fill:#99b1c1}.st6{fill:#f2f5f7}.st7{fill:#14283c}.st8{fill:#6a94a8}</style><g id="Layer_1"><path class="st3" d="M10 24.9l10-5.7 10 5.7v5l-10 5.7-10-5.7z"/><path class="st2" d="M20 36.1c-.1 0-.2 0-.2-.1l-10-5.7c-.2-.1-.3-.3-.3-.4v-5c0-.2.1-.3.3-.4l10-5.7c.2-.1.3-.1.5 0l10 5.7c.2.1.3.3.3.4v5c0 .2-.1.3-.3.4l-10 5.7c-.1.1-.2.1-.3.1zm-9.5-6.5L20 35l9.5-5.4v-4.4L20 19.7l-9.5 5.4v4.5z"/><path class="st4" d="M20 30.5v5.1l10-5.7v-5z"/><path class="st2" d="M20 36.1c-.1 0-.2 0-.2-.1l-10-5.7c-.2-.1-.3-.3-.3-.4v-5c0-.2.1-.3.3-.4l10-5.7c.2-.1.3-.1.5 0l10 5.7c.2.1.3.3.3.4v5c0 .2-.1.3-.3.4l-10 5.7c-.1.1-.2.1-.3.1zm-9.5-6.5L20 35l9.5-5.4v-4.4L20 19.7l-9.5 5.4v4.5z"/><path class="st3" d="M10 14.9l10-5.7 10 5.7v5l-10 5.7-10-5.7z"/><path class="st2" d="M10.5 16.4h-1v-1.5c0-.2.1-.3.3-.4l1.3-.7.5.9-1 .6v1.1z"/><path transform="rotate(-29.808 14.998 12.022)" class="st2" d="M13.6 11.5h2.8v1h-2.8z"/><path class="st2" d="M18.9 10.3l-.5-.9 1.3-.7c.2-.1.3-.1.5 0l1.3.7-.5.9-1-.6-1.1.6zm11.6 6.1h-1v-1.2l-1.1-.6.5-.9 1.3.7c.2.1.3.3.3.4v1.6zm-1.6 4.7l-.5-.9 1.1-.6v-1.2h1v1.5c0 .2-.1.3-.3.4l-1.3.8z"/><path transform="rotate(-29.808 24.998 22.748)" class="st2" d="M23.6 22.2h2.8v1h-2.8z"/><path class="st2" d="M20 26.1c-.1 0-.2 0-.2-.1l-1.3-.7.5-.9 1 .6 1.1-.6.5.9-1.4.7c0 .1-.1.1-.2.1z"/><path transform="rotate(-60.205 14.999 22.749)" class="st2" d="M14.5 21.3h1v2.8h-1z"/><path class="st2" d="M11.1 21.1l-1.3-.7c-.2-.1-.3-.3-.3-.4v-1.5h1v1.2l1 .6-.4.8z"/><path class="st3" d="M22.7 32l10-5.7 10 5.7v5l-10 5.8-10-5.8z"/><path class="st2" d="M32.7 43.3c-.1 0-.2 0-.2-.1l-10-5.7c-.2-.1-.3-.3-.3-.4v-5c0-.2.1-.3.3-.4l10-5.7c.2-.1.3-.1.5 0l10 5.7c.2.1.3.3.3.4v5c0 .2-.1.3-.3.4l-10 5.7c-.1 0-.2.1-.3.1zm-9.5-6.5l9.5 5.4 9.5-5.4v-4.4L32.7 27l-9.5 5.4v4.4z"/><path class="st1" d="M10.8 10.8L9.4 9.4c1.3-1.3 1.3-3.4 0-4.7a3.32 3.32 0 0 0-4.7 0L3.3 3.3c2.1-2.1 5.5-2.1 7.5 0 2.1 2.1 2.1 5.4 0 7.5z"/><path class="st7" d="M7.1 12.4c-1.4 0-2.7-.5-3.8-1.6-2.1-2.1-2.1-5.5 0-7.5.4-.4 1-.4 1.4 0 .4.4.4 1 0 1.4a3.32 3.32 0 0 0 0 4.7c1.3 1.3 3.4 1.3 4.7 0 .4-.4 1-.4 1.4 0 .4.4.4 1 0 1.4-1 1.1-2.4 1.6-3.7 1.6z"/><path class="st1" d="M10.1 11.1c-.3 0-.5-.1-.7-.3-.4-.4-.4-1 0-1.4 1.3-1.3 1.3-3.4 0-4.7-.4-.4-.4-1 0-1.4.4-.4 1-.4 1.4 0 2.1 2.1 2.1 5.5 0 7.5-.2.2-.4.3-.7.3z"/><path class="st4" d="M32.7 37.7v5.1l10-5.8v-5z"/><path class="st2" d="M32.7 43.3c-.1 0-.2 0-.2-.1l-10-5.7c-.2-.1-.3-.3-.3-.4v-5c0-.2.1-.3.3-.4l10-5.7c.2-.1.3-.1.5 0l10 5.7c.2.1.3.3.3.4v5c0 .2-.1.3-.3.4l-10 5.7c-.1 0-.2.1-.3.1zm-9.5-6.5l9.5 5.4 9.5-5.4v-4.4L32.7 27l-9.5 5.4v4.4z"/><path class="st3" d="M22.7 22l10-5.7 10 5.7v5l-10 5.8-10-5.8z"/><path class="st2" d="M23.2 23.5h-1V22c0-.2.1-.3.3-.4l1.3-.7.5.9-1 .6v1.1zm8.5-6l-.5-.9 1.3-.7c.2-.1.3-.1.5 0l1.3.7-.5.9-1.1-.6-1 .6z"/><path transform="rotate(-60.197 37.75 19.18)" class="st2" d="M37.2 17.8h1v2.8h-1z"/><path class="st2" d="M43.2 23.5h-1v-1.2l-1.1-.6.5-.9 1.3.7c.2.1.3.3.3.4v1.6zm-1.5 4.7l-.5-.9 1.1-.6v-1.2h1V27c0 .2-.1.3-.3.4l-1.3.8z"/><path transform="rotate(-29.808 37.747 29.905)" class="st2" d="M36.3 29.4h2.8v1h-2.8z"/><path class="st2" d="M32.7 33.3c-.1 0-.2 0-.2-.1l-1.3-.7.5-.9 1.1.6 1.1-.6.5.9-1.4.7c-.1 0-.2.1-.3.1z"/><path transform="rotate(-60.197 27.75 29.907)" class="st2" d="M27.2 28.5h1v2.8h-1z"/><path class="st2" d="M23.8 28.2l-1.3-.7c-.2-.1-.3-.3-.3-.4v-1.5h1v1.2l1 .6-.4.8z"/><path class="st3" d="M22.7 12l10-5.7 10 5.7v5l-10 5.7-10-5.7z"/><path class="st2" d="M23.2 13.5h-1V12c0-.2.1-.3.3-.4l1.3-.7.5.9-1 .6v1.1z"/><path transform="rotate(-29.808 27.748 9.138)" class="st2" d="M26.3 8.6h2.8v1h-2.8z"/><path class="st2" d="M31.7 7.5l-.5-.9 1.3-.7c.2-.1.3-.1.5 0l1.3.7-.5.9-1.1-.6-1 .6z"/><path transform="rotate(-60.205 37.75 9.138)" class="st2" d="M37.2 7.7h1v2.8h-1z"/><path class="st2" d="M43.2 13.5h-1v-1.2l-1.1-.6.5-.9 1.3.7c.2.1.3.3.3.4v1.6zm-1.5 4.7l-.5-.9 1.1-.6v-1.2h1V17c0 .2-.1.3-.3.4l-1.3.8z"/><path transform="rotate(-29.808 37.747 19.864)" class="st2" d="M36.3 19.4h2.8v1h-2.8z"/><path class="st2" d="M32.7 23.2c-.1 0-.2 0-.2-.1l-1.3-.7.5-.9 1.1.6 1.1-.6.5.9-1.4.8h-.3z"/><path transform="rotate(-60.205 27.749 19.865)" class="st2" d="M27.2 18.4h1v2.8h-1z"/><path class="st2" d="M23.8 18.2l-1.3-.7c-.2-.1-.3-.3-.3-.4v-1.5h1v1.2l1 .6-.4.8z"/></g></svg>