<?xml version="1.0" encoding="utf-8"?>
<!-- Generator: Adobe Illustrator 19.2.1, SVG Export Plug-In . SVG Version: 6.00 Build 0)  -->
<svg version="1.1" xmlns="http://www.w3.org/2000/svg" xmlns:xlink="http://www.w3.org/1999/xlink" x="0px" y="0px"
	 viewBox="0 0 45 45" style="enable-background:new 0 0 45 45;" xml:space="preserve">
<style type="text/css">
	.st0{fill:none;stroke:#FF405E;stroke-width:1.5;stroke-linejoin:round;stroke-miterlimit:10;}
	.st1{fill:#FF405E;}
	.st2{fill:#264C5F;}
	.st3{fill:#FFFFFF;}
	.st4{fill:#C3D0DB;}
	.st5{fill:#99B1C1;}
	.st6{fill:#F2F5F7;}
	.st7{fill:#14283C;}
	.st8{fill:#6A94A8;}
</style>
<g id="Layer_1">
	<g>
		<g>
			<g>
				<polygon class="st3" points="10,24.9 20,19.2 30,24.9 30,29.9 20,35.6 10,29.9 				"/>
			</g>
			<g>
				<path class="st2" d="M20,36.1c-0.1,0-0.2,0-0.2-0.1l-10-5.7c-0.2-0.1-0.3-0.3-0.3-0.4v-5c0-0.2,0.1-0.3,0.3-0.4l10-5.7
					c0.2-0.1,0.3-0.1,0.5,0l10,5.7c0.2,0.1,0.3,0.3,0.3,0.4v5c0,0.2-0.1,0.3-0.3,0.4l-10,5.7C20.2,36.1,20.1,36.1,20,36.1z
					 M10.5,29.6L20,35l9.5-5.4v-4.4L20,19.7l-9.5,5.4V29.6z"/>
			</g>
		</g>
		<g>
			<g>
				<polygon class="st4" points="20,30.5 20,35.6 30,29.9 30,24.9 				"/>
			</g>
		</g>
		<g>
			<g>
				<path class="st2" d="M20,36.1c-0.1,0-0.2,0-0.2-0.1l-10-5.7c-0.2-0.1-0.3-0.3-0.3-0.4v-5c0-0.2,0.1-0.3,0.3-0.4l10-5.7
					c0.2-0.1,0.3-0.1,0.5,0l10,5.7c0.2,0.1,0.3,0.3,0.3,0.4v5c0,0.2-0.1,0.3-0.3,0.4l-10,5.7C20.2,36.1,20.1,36.1,20,36.1z
					 M10.5,29.6L20,35l9.5-5.4v-4.4L20,19.7l-9.5,5.4V29.6z"/>
			</g>
		</g>
		<g>
			<g>
				<g>
					<polygon class="st3" points="10,14.9 20,9.2 30,14.9 30,19.9 20,25.6 10,19.9 					"/>
				</g>
			</g>
			<g>
				<g>
					<g>
						<path class="st2" d="M10.5,16.4h-1v-1.5c0-0.2,0.1-0.3,0.3-0.4l1.3-0.7l0.5,0.9l-1,0.6V16.4z"/>
					</g>
				</g>
				<g>
					<g>
						
							<rect x="13.6" y="11.5" transform="matrix(0.8677 -0.4971 0.4971 0.8677 -3.9917 9.0461)" class="st2" width="2.8" height="1"/>
					</g>
				</g>
				<g>
					<g>
						<path class="st2" d="M18.9,10.3l-0.5-0.9l1.3-0.7c0.2-0.1,0.3-0.1,0.5,0l1.3,0.7l-0.5,0.9L20,9.7L18.9,10.3z"/>
					</g>
				</g>
				<g>
					<g>
						<path class="st2" d="M30.5,16.4h-1v-1.2l-1.1-0.6l0.5-0.9l1.3,0.7c0.2,0.1,0.3,0.3,0.3,0.4V16.4z"/>
					</g>
				</g>
				<g>
					<g>
						<path class="st2" d="M28.9,21.1l-0.5-0.9l1.1-0.6v-1.2h1v1.5c0,0.2-0.1,0.3-0.3,0.4L28.9,21.1z"/>
					</g>
				</g>
				<g>
					<g>
						
							<rect x="23.6" y="22.2" transform="matrix(0.8677 -0.4971 0.4971 0.8677 -8.0007 15.436)" class="st2" width="2.8" height="1"/>
					</g>
				</g>
				<g>
					<g>
						<path class="st2" d="M20,26.1c-0.1,0-0.2,0-0.2-0.1l-1.3-0.7l0.5-0.9L20,25l1.1-0.6l0.5,0.9L20.2,26
							C20.2,26.1,20.1,26.1,20,26.1z"/>
					</g>
				</g>
				<g>
					<g>
						
							<rect x="14.5" y="21.3" transform="matrix(0.4969 -0.8678 0.8678 0.4969 -12.1958 24.4608)" class="st2" width="1" height="2.8"/>
					</g>
				</g>
				<g>
					<g>
						<path class="st2" d="M11.1,21.1l-1.3-0.7c-0.2-0.1-0.3-0.3-0.3-0.4v-1.5h1v1.2l1,0.6L11.1,21.1z"/>
					</g>
				</g>
			</g>
		</g>
		<g>
			<g>
				<polygon class="st3" points="22.7,32 32.7,26.3 42.7,32 42.7,37 32.7,42.8 22.7,37 				"/>
			</g>
			<g>
				<path class="st2" d="M32.7,43.3c-0.1,0-0.2,0-0.2-0.1l-10-5.7c-0.2-0.1-0.3-0.3-0.3-0.4v-5c0-0.2,0.1-0.3,0.3-0.4l10-5.7
					c0.2-0.1,0.3-0.1,0.5,0l10,5.7c0.2,0.1,0.3,0.3,0.3,0.4v5c0,0.2-0.1,0.3-0.3,0.4l-10,5.7C32.9,43.2,32.8,43.3,32.7,43.3z
					 M23.2,36.8l9.5,5.4l9.5-5.4v-4.4l-9.5-5.4l-9.5,5.4V36.8z"/>
			</g>
		</g>
		<g>
			<g>
				<path class="st1" d="M10.8,10.8L9.4,9.4c1.3-1.3,1.3-3.4,0-4.7C8.1,3.4,6,3.4,4.7,4.7L3.3,3.3c2.1-2.1,5.5-2.1,7.5,0
					C12.9,5.4,12.9,8.7,10.8,10.8z"/>
			</g>
		</g>
		<g>
			<g>
				<path class="st7" d="M7.1,12.4c-1.4,0-2.7-0.5-3.8-1.6c-2.1-2.1-2.1-5.5,0-7.5c0.4-0.4,1-0.4,1.4,0c0.4,0.4,0.4,1,0,1.4
					C3.4,6,3.4,8.1,4.7,9.4c1.3,1.3,3.4,1.3,4.7,0c0.4-0.4,1-0.4,1.4,0c0.4,0.4,0.4,1,0,1.4C9.8,11.9,8.4,12.4,7.1,12.4z"/>
			</g>
		</g>
		<g>
			<g>
				<path class="st1" d="M10.1,11.1c-0.3,0-0.5-0.1-0.7-0.3c-0.4-0.4-0.4-1,0-1.4c1.3-1.3,1.3-3.4,0-4.7C9,4.3,9,3.7,9.4,3.3
					c0.4-0.4,1-0.4,1.4,0c2.1,2.1,2.1,5.5,0,7.5C10.6,11,10.4,11.1,10.1,11.1z"/>
			</g>
		</g>
		<g>
			<g>
				<polygon class="st4" points="32.7,37.7 32.7,42.8 42.7,37 42.7,32 				"/>
			</g>
		</g>
		<g>
			<g>
				<path class="st2" d="M32.7,43.3c-0.1,0-0.2,0-0.2-0.1l-10-5.7c-0.2-0.1-0.3-0.3-0.3-0.4v-5c0-0.2,0.1-0.3,0.3-0.4l10-5.7
					c0.2-0.1,0.3-0.1,0.5,0l10,5.7c0.2,0.1,0.3,0.3,0.3,0.4v5c0,0.2-0.1,0.3-0.3,0.4l-10,5.7C32.9,43.2,32.8,43.3,32.7,43.3z
					 M23.2,36.8l9.5,5.4l9.5-5.4v-4.4l-9.5-5.4l-9.5,5.4V36.8z"/>
			</g>
		</g>
		<g>
			<g>
				<g>
					<polygon class="st3" points="22.7,22 32.7,16.3 42.7,22 42.7,27 32.7,32.8 22.7,27 					"/>
				</g>
			</g>
			<g>
				<g>
					<g>
						<path class="st2" d="M23.2,23.5h-1V22c0-0.2,0.1-0.3,0.3-0.4l1.3-0.7l0.5,0.9l-1,0.6V23.5z"/>
					</g>
				</g>
				<g>
					<g>
						<path class="st2" d="M31.7,17.5l-0.5-0.9l1.3-0.7c0.2-0.1,0.3-0.1,0.5,0l1.3,0.7l-0.5,0.9l-1.1-0.6L31.7,17.5z"/>
					</g>
				</g>
				<g>
					<g>
						<rect x="37.2" y="17.8" transform="matrix(0.497 -0.8677 0.8677 0.497 2.3436 42.4025)" class="st2" width="1" height="2.8"/>
					</g>
				</g>
				<g>
					<g>
						<path class="st2" d="M43.2,23.5h-1v-1.2l-1.1-0.6l0.5-0.9l1.3,0.7c0.2,0.1,0.3,0.3,0.3,0.4V23.5z"/>
					</g>
				</g>
				<g>
					<g>
						<path class="st2" d="M41.7,28.2l-0.5-0.9l1.1-0.6v-1.2h1V27c0,0.2-0.1,0.3-0.3,0.4L41.7,28.2z"/>
					</g>
				</g>
				<g>
					<g>
						
							<rect x="36.3" y="29.4" transform="matrix(0.8677 -0.4971 0.4971 0.8677 -9.8719 22.7206)" class="st2" width="2.8" height="1"/>
					</g>
				</g>
				<g>
					<g>
						<path class="st2" d="M32.7,33.3c-0.1,0-0.2,0-0.2-0.1l-1.3-0.7l0.5-0.9l1.1,0.6l1.1-0.6l0.5,0.9L33,33.2
							C32.9,33.2,32.8,33.3,32.7,33.3z"/>
					</g>
				</g>
				<g>
					<g>
						
							<rect x="27.2" y="28.5" transform="matrix(0.497 -0.8677 0.8677 0.497 -11.9939 39.1203)" class="st2" width="1" height="2.8"/>
					</g>
				</g>
				<g>
					<g>
						<path class="st2" d="M23.8,28.2l-1.3-0.7c-0.2-0.1-0.3-0.3-0.3-0.4v-1.5h1v1.2l1,0.6L23.8,28.2z"/>
					</g>
				</g>
			</g>
		</g>
		<g>
			<g>
				<g>
					<polygon class="st3" points="22.7,12 32.7,6.3 42.7,12 42.7,17 32.7,22.7 22.7,17 					"/>
				</g>
			</g>
			<g>
				<g>
					<g>
						<path class="st2" d="M23.2,13.5h-1V12c0-0.2,0.1-0.3,0.3-0.4l1.3-0.7l0.5,0.9l-1,0.6V13.5z"/>
					</g>
				</g>
				<g>
					<g>
						
							<rect x="26.3" y="8.6" transform="matrix(0.8677 -0.4971 0.4971 0.8677 -0.8714 15.0023)" class="st2" width="2.8" height="1"/>
					</g>
				</g>
				<g>
					<g>
						<path class="st2" d="M31.7,7.5l-0.5-0.9l1.3-0.7c0.2-0.1,0.3-0.1,0.5,0l1.3,0.7l-0.5,0.9l-1.1-0.6L31.7,7.5z"/>
					</g>
				</g>
				<g>
					<g>
						
							<rect x="37.2" y="7.7" transform="matrix(0.4969 -0.8678 0.8678 0.4969 11.0617 37.3563)" class="st2" width="1" height="2.8"/>
					</g>
				</g>
				<g>
					<g>
						<path class="st2" d="M43.2,13.5h-1v-1.2l-1.1-0.6l0.5-0.9l1.3,0.7c0.2,0.1,0.3,0.3,0.3,0.4V13.5z"/>
					</g>
				</g>
				<g>
					<g>
						<path class="st2" d="M41.7,18.2l-0.5-0.9l1.1-0.6v-1.2h1V17c0,0.2-0.1,0.3-0.3,0.4L41.7,18.2z"/>
					</g>
				</g>
				<g>
					<g>
						
							<rect x="36.3" y="19.4" transform="matrix(0.8677 -0.4971 0.4971 0.8677 -4.8804 21.3921)" class="st2" width="2.8" height="1"/>
					</g>
				</g>
				<g>
					<g>
						<path class="st2" d="M32.7,23.2c-0.1,0-0.2,0-0.2-0.1l-1.3-0.7l0.5-0.9l1.1,0.6l1.1-0.6l0.5,0.9L33,23.2
							C32.9,23.2,32.8,23.2,32.7,23.2z"/>
					</g>
				</g>
				<g>
					<g>
						
							<rect x="27.2" y="18.4" transform="matrix(0.4969 -0.8678 0.8678 0.4969 -3.2781 34.0743)" class="st2" width="1" height="2.8"/>
					</g>
				</g>
				<g>
					<g>
						<path class="st2" d="M23.8,18.2l-1.3-0.7c-0.2-0.1-0.3-0.3-0.3-0.4v-1.5h1v1.2l1,0.6L23.8,18.2z"/>
					</g>
				</g>
			</g>
		</g>
	</g>
</g>
<g id="Layer_2">
</g>
</svg>
