<?xml version="1.0" encoding="utf-8"?>
<!-- Generator: Adobe Illustrator 19.2.1, SVG Export Plug-In . SVG Version: 6.00 Build 0)  -->
<svg version="1.1" id="Layer_1" xmlns="http://www.w3.org/2000/svg" xmlns:xlink="http://www.w3.org/1999/xlink" x="0px" y="0px"
	 viewBox="0 0 45 45" style="enable-background:new 0 0 45 45;" xml:space="preserve">
<style type="text/css">
	.st0{fill:#FF405E;}
	.st1{fill:#264C5F;}
	.st2{fill:#C3D0DB;}
</style>
<g id="Layer_1_1_">
	<g>
		<g>
			<path class="st0" d="M21.1,26.1c-0.2,0-0.3-0.1-0.4-0.2l-3.5-5.1l-4.9,2.7c-0.2,0.1-0.5,0-0.7-0.2c-0.1-0.2,0-0.5,0.2-0.7
				l5.3-2.9c0.2-0.1,0.5-0.1,0.7,0.2l3.3,4.8l3.3-6.7c0.1-0.2,0.2-0.3,0.4-0.3c0.2,0,0.3,0,0.4,0.2l2.9,3.4l2.1-2.8
				c0.1-0.1,0.2-0.2,0.4-0.2l0,0c0.2,0,0.3,0.1,0.4,0.2l3.9,5.1l2.1-4.3c0.1-0.1,0.2-0.2,0.4-0.3c0.2,0,0.3,0,0.4,0.1l5.1,4.9
				c-0.4,0.3-0.1,0.3-0.3,0.5s-0.2,0.4-0.4,0.2l-4.6-4.4l-2.1,4.4c-0.1,0.2-0.2,0.3-0.4,0.3s-0.3-0.1-0.4-0.2l-4-5.2l-2.1,2.8
				c-0.1,0.1-0.2,0.2-0.4,0.2c-0.2,0-0.3-0.1-0.4-0.2L24.9,19l-3.4,6.8C21.5,26,21.3,26.1,21.1,26.1L21.1,26.1z"/>
		</g>
		<g>
			<rect x="11.6" y="12.5" class="st1" width="1" height="29.9"/>
		</g>
		<g>
			<path class="st1" d="M42.9,13H2V4.5C2,3.2,3.2,2,4.5,2h35.9c1.4,0,2.5,1.1,2.5,2.5V13z M3,12h38.9V4.5c0-0.8-0.7-1.5-1.5-1.5H4.5
				C3.7,3,3,3.7,3,4.5V12z"/>
		</g>
		<g>
			<path class="st1" d="M27,34H17c-0.6,0-1-0.4-1-1s0.4-1,1-1h10c0.6,0,1,0.4,1,1S27.6,34,27,34z"/>
		</g>
		<g>
			<path class="st2" d="M35.8,38H17c-0.6,0-1-0.4-1-1s0.4-1,1-1h18.8c0.6,0,1,0.4,1,1S36.4,38,35.8,38z"/>
		</g>
		<g>
			<path class="st0" d="M8.8,8.5h-3c-0.6,0-1-0.4-1-1s0.4-1,1-1h3c0.6,0,1,0.4,1,1S9.3,8.5,8.8,8.5z"/>
		</g>
		<g>
			<path class="st2" d="M31.4,8h-3c-0.3,0-0.5-0.2-0.5-0.5S28.2,7,28.4,7h3c0.3,0,0.5,0.2,0.5,0.5S31.7,8,31.4,8z"/>
		</g>
		<g>
			<path class="st1" d="M38.4,8h-3c-0.3,0-0.5-0.2-0.5-0.5S35.2,7,35.4,7h3c0.3,0,0.5,0.2,0.5,0.5S38.7,8,38.4,8z"/>
		</g>
		<g>
			<path class="st1" d="M40.4,43H4.5C3.2,43,2,41.8,2,40.5v-36C2,3.2,3.2,2,4.5,2h35.9c1.4,0,2.5,1.1,2.5,2.5v35.9
				C42.9,41.8,41.8,43,40.4,43z M4.5,3C3.7,3,3,3.7,3,4.5v35.9C3,41.3,3.7,42,4.5,42h35.9c0.8,0,1.5-0.7,1.5-1.5v-36
				c0-0.8-0.7-1.5-1.5-1.5H4.5z"/>
		</g>
	</g>
</g>
<g id="Layer_2">
</g>
</svg>
