<svg xmlns="http://www.w3.org/2000/svg" viewBox="0 0 45 45"><style>.st0{fill:none;stroke:#ff405e;stroke-width:1.5;stroke-linejoin:round;stroke-miterlimit:10}.st1{fill:#ff405e}.st2{fill:#264c5f}.st3{fill:#fff}.st4{fill:#c3d0db}.st5{fill:#99b1c1}.st6{fill:#f2f5f7}.st7{fill:#14283c}.st8{fill:#6a94a8}</style><g id="Layer_1"><path class="st2" d="M40.5 28.7h-36c-1.4 0-2.5-1.1-2.5-2.5V4.5C2 3.2 3.2 2 4.5 2h35.9C41.8 2 43 3.2 43 4.5v21.6c0 1.5-1.2 2.6-2.5 2.6zM4.5 3C3.7 3 3 3.7 3 4.5v21.6c0 .8.7 1.5 1.5 1.5h35.9c.8 0 1.5-.7 1.5-1.5V4.5c.1-.8-.6-1.5-1.4-1.5h-36zm6 40h-6C3.2 43 2 41.8 2 40.5v-6C2 33.1 3.2 32 4.5 32h6c1.4 0 2.5 1.1 2.5 2.5v6c0 1.3-1.1 2.5-2.5 2.5zm-6-10c-.8 0-1.5.6-1.5 1.5v6c0 .8.7 1.5 1.5 1.5h6c.8 0 1.5-.7 1.5-1.5v-6c0-.8-.7-1.5-1.5-1.5h-6zm21 10h-6c-1.4 0-2.5-1.1-2.5-2.5v-6c0-1.4 1.1-2.5 2.5-2.5h6c1.4 0 2.5 1.1 2.5 2.5v6c0 1.3-1.1 2.5-2.5 2.5zm-6-10c-.8 0-1.5.7-1.5 1.5v6c0 .8.7 1.5 1.5 1.5h6c.8 0 1.5-.7 1.5-1.5v-6c0-.8-.7-1.5-1.5-1.5h-6zm21 10h-6c-1.4 0-2.5-1.1-2.5-2.5v-6c0-1.4 1.1-2.5 2.5-2.5h6c1.4 0 2.5 1.1 2.5 2.5v6c0 1.3-1.2 2.5-2.5 2.5zm-6-10c-.8 0-1.5.7-1.5 1.5v6c0 .8.7 1.5 1.5 1.5h6c.8 0 1.5-.7 1.5-1.5v-6c0-.8-.7-1.5-1.5-1.5h-6z"/><path class="st2" d="M7 28.5h1v4H7zm15 0h1v4h-1zm15 0h1v4h-1z"/><path class="st1" d="M6.7 22.7c-.1 0-.2 0-.3-.1-.2-.2-.2-.5 0-.7l7.4-7.9c.1-.1.2-.2.4-.2.1 0 .3.1.4.2l3.6 4.6 6.4-5.4c.2-.2.5-.2.6 0l3.7 3.2 7.5-7.8c.2-.2.5-.2.7 0 .2.2.2.5 0 .7l-7.8 8.1c-.2.2-.5.2-.7 0l-3.7-3.2-6.5 5.5c-.1.1-.2.1-.4.1-.1 0-.3-.1-.3-.2L14 15.1l-7 7.5c0 .1-.2.1-.3.1z"/><path class="st2" d="M35.3 25.2c-1.9 0-3.4-1.5-3.4-3.4 0-.3.2-.5.5-.5s.5.2.5.5c0 1.3 1.1 2.4 2.4 2.4s2.4-1.1 2.4-2.4-1.1-2.4-2.4-2.4c-.3 0-.5-.2-.5-.5s.2-.5.5-.5c1.9 0 3.4 1.5 3.4 3.4s-1.5 3.4-3.4 3.4z"/><circle class="st3" cx="36.6" cy="8.9" r="1"/><path class="st1" d="M36.6 10.4c-.8 0-1.5-.7-1.5-1.5s.7-1.5 1.5-1.5 1.5.7 1.5 1.5-.6 1.5-1.5 1.5zm0-2c-.3 0-.5.2-.5.5s.2.5.5.5.5-.2.5-.5-.2-.5-.5-.5z"/><circle class="st3" cx="6.7" cy="22" r="1"/><path class="st1" d="M6.7 23.5c-.8 0-1.5-.7-1.5-1.5s.7-1.5 1.5-1.5 1.5.7 1.5 1.5-.7 1.5-1.5 1.5zm0-2c-.3 0-.5.2-.5.5s.2.5.5.5.5-.2.5-.5-.2-.5-.5-.5z"/><path class="st2" d="M13 39.3H2v-3.8h11v3.8zm-10-1h9v-1.8H3v1.8zm25 1H17v-3.8h11v3.8zm-10-1h9v-1.8h-9v1.8zm25 1H32v-3.8h11v3.8zm-10-1h9v-1.8h-9v1.8z"/></g></svg>