<?xml version="1.0" encoding="utf-8"?>
<!-- Generator: Adobe Illustrator 19.2.1, SVG Export Plug-In . SVG Version: 6.00 Build 0)  -->
<svg version="1.1" id="Layer_1" xmlns="http://www.w3.org/2000/svg" xmlns:xlink="http://www.w3.org/1999/xlink" x="0px" y="0px"
	 viewBox="0 0 360 180" style="enable-background:new 0 0 360 180;" xml:space="preserve">
<style type="text/css">
	.st0{fill:#183B4D;}
	.st1{display:none;}
	.st2{display:inline;fill:#183B4D;}
	.st3{fill:#FFFFFF;}
	.st4{fill-rule:evenodd;clip-rule:evenodd;fill:#183B4D;}
	.st5{clip-path:url(#SVGID_2_);}
	.st6{clip-path:url(#SVGID_4_);fill:#183B4D;}
	.st7{clip-path:url(#SVGID_6_);}
	.st8{clip-path:url(#SVGID_8_);fill:#183B4D;}
	.st9{fill-rule:evenodd;clip-rule:evenodd;fill:#FFFFFF;}
	.st10{clip-path:url(#SVGID_10_);}
	.st11{clip-path:url(#SVGID_12_);fill:#183B4D;}
	.st12{fill:#234B5F;}
	.st13{fill:#2D5E72;}
	.st14{fill:#45778F;}
	.st15{fill:#7B9FB6;}
	.st16{fill:#CBD8E0;}
	.st17{fill:#F0F4F8;}
	.st18{fill:#CECDCA;}
	.st19{fill:#DC462F;}
	.st20{fill:#FFFFFF;stroke:#2D5E72;stroke-miterlimit:10;}
</style>
<g>
	<polygon class="st4" points="71.7,138.2 55.3,132.3 55.3,108.3 71.7,113.9 	"/>
	<polygon class="st4" points="74.7,138.2 91.1,132.3 91.1,108.3 74.7,113.9 	"/>
	<polygon class="st4" points="57,106.5 73.6,101.9 89,106.8 73.6,112.1 	"/>
</g>
<g>
	<polygon class="st4" points="52.2,104.7 35.8,98.8 35.8,74.8 52.2,80.4 	"/>
	<polygon class="st4" points="55.2,104.7 71.6,98.8 71.6,74.8 55.2,80.4 	"/>
	<polygon class="st4" points="37.5,73 54.1,68.3 69.5,73.3 54.1,78.5 	"/>
</g>
<g>
	<polygon class="st4" points="90.4,104.7 74,98.8 74,74.8 90.4,80.4 	"/>
	<polygon class="st4" points="93.4,104.7 109.8,98.8 109.8,74.8 93.4,80.4 	"/>
	<polygon class="st4" points="75.7,73 92.3,68.3 107.7,73.3 92.3,78.5 	"/>
</g>
<g>
	<polygon class="st4" points="109.9,71.1 93.5,65.3 93.5,41.3 109.9,46.8 	"/>
	<polygon class="st4" points="112.9,71.1 129.3,65.3 129.3,41.3 112.9,46.8 	"/>
	<polygon class="st4" points="95.2,39.5 111.8,34.8 127.2,39.8 111.8,45 	"/>
</g>
<g>
	<polygon class="st4" points="148.1,71.1 131.8,65.3 131.8,41.3 148.1,46.8 	"/>
	<polygon class="st4" points="151.1,71.1 167.5,65.3 167.5,41.3 151.1,46.8 	"/>
	<polygon class="st4" points="133.4,39.5 150,34.8 165.4,39.8 150,45 	"/>
</g>
<g>
	<path class="st0" d="M139.8,122.6l-5.5,19.1h-2.4l-4.3-14.2l-3.9,14.2h-2.4l-5.7-19.1h3l4.2,14.2l4-14.2h2.2l4.3,14.3l4.3-14.3
		H139.8z"/>
	<path class="st0" d="M155,136l2.8,0.6c-0.5,1.6-1.5,3-2.9,4.1c-1.5,1.1-3.2,1.6-5.2,1.6c-2.6,0-4.7-0.9-6.3-2.8
		c-1.6-1.8-2.4-4.2-2.4-7.2c0-3,0.8-5.5,2.5-7.4c1.7-1.9,3.8-2.8,6.3-2.8c2.5,0,4.5,0.9,6,2.6c1.5,1.7,2.3,4.3,2.3,7.8h-13.9
		c0,2.9,0.6,4.8,1.8,5.9c1.2,1,2.5,1.5,3.8,1.5C152.3,139.8,154,138.5,155,136z M154.9,130.2c0-1.1-0.2-2-0.5-2.9
		c-0.3-0.8-0.9-1.5-1.7-2.1c-0.8-0.6-1.7-0.9-2.8-0.9c-1.5,0-2.7,0.5-3.7,1.6c-1,1.1-1.6,2.5-1.7,4.3H154.9z"/>
	<path class="st0" d="M163.5,141.7H162v-25.8h3v9.9c1.4-2.5,3.2-3.7,5.6-3.7c2.2,0,4,0.9,5.5,2.6c1.5,1.7,2.2,4.2,2.2,7.5
		c0,2.8-0.7,5.2-2.2,7.2c-1.5,1.9-3.3,2.9-5.7,2.9c-2.6,0-4.6-1.2-6-3.7L163.5,141.7z M165,134.2c0.1,2,0.7,3.4,1.8,4.3
		c1.1,0.9,2.2,1.3,3.4,1.3c1.5,0,2.7-0.7,3.7-2c0.9-1.3,1.4-3.1,1.4-5.4c0-2.5-0.4-4.4-1.3-5.8c-0.9-1.4-2.1-2.1-3.7-2.1
		c-1.2,0-2.4,0.5-3.4,1.5c-1,1-1.6,2.3-1.8,3.9V134.2z"/>
	<path class="st0" d="M185.9,136.7l2.8-0.6c0.6,2.4,2.6,3.6,6,3.6c1.2,0,2.3-0.3,3.1-0.8c0.9-0.6,1.3-1.3,1.3-2.3
		c0-1.5-1.1-2.4-3.3-2.8l-4-0.8c-1.6-0.3-2.8-0.9-3.8-1.8c-0.9-0.9-1.4-2-1.4-3.5c0-1.6,0.6-2.9,1.9-4c1.3-1.1,3-1.6,5.1-1.6
		c4.1,0,6.7,1.6,7.7,4.9l-2.7,0.6c-0.8-2-2.4-3-4.8-3c-1.2,0-2.2,0.2-3,0.7c-0.8,0.5-1.2,1.2-1.2,2.1c0,1.4,1,2.3,3,2.7l3.7,0.7
		c3.9,0.7,5.8,2.6,5.8,5.7c0,1.8-0.7,3.2-2.2,4.3c-1.5,1.1-3.4,1.6-5.8,1.6C189.8,142.2,187,140.4,185.9,136.7z"/>
	<path class="st0" d="M218.1,136l2.8,0.6c-0.5,1.6-1.5,3-2.9,4.1c-1.5,1.1-3.2,1.6-5.2,1.6c-2.6,0-4.7-0.9-6.3-2.8
		c-1.6-1.8-2.4-4.2-2.4-7.2c0-3,0.8-5.5,2.5-7.4c1.7-1.9,3.8-2.8,6.3-2.8c2.5,0,4.5,0.9,6,2.6c1.5,1.7,2.3,4.3,2.3,7.8h-13.9
		c0,2.9,0.6,4.8,1.8,5.9c1.2,1,2.5,1.5,3.8,1.5C215.4,139.8,217.2,138.5,218.1,136z M218,130.2c0-1.1-0.2-2-0.5-2.9
		c-0.3-0.8-0.9-1.5-1.7-2.1c-0.8-0.6-1.7-0.9-2.8-0.9c-1.5,0-2.7,0.5-3.7,1.6c-1,1.1-1.6,2.5-1.7,4.3H218z"/>
	<path class="st0" d="M227.4,141.7h-3v-19.1h2.6v4.5c0.9-2.1,1.8-3.4,2.8-4.1c0.9-0.6,1.9-0.9,2.8-0.9c0.3,0,0.7,0,1.2,0.1v2.8h-0.6
		c-1.6,0-3,0.6-4.1,1.8c-1.1,1.2-1.7,2.8-1.7,4.8V141.7z"/>
	<path class="st0" d="M252.3,122.6l-6.6,19.1h-3.1l-6.8-19.1h3.3l5.3,15.5l5.3-15.5H252.3z"/>
	<path class="st0" d="M257.9,115.9v3.3h-3.2v-3.3H257.9z M257.8,122.6v19.1h-3v-19.1H257.8z"/>
	<path class="st0" d="M273.4,135l2.7,0.5c-0.4,2.1-1.2,3.8-2.5,5c-1.3,1.2-2.9,1.8-4.9,1.8c-2.6,0-4.6-1-6-2.9
		c-1.4-1.9-2.1-4.3-2.1-7.1c0-2.9,0.7-5.3,2.2-7.2c1.5-1.9,3.4-2.9,5.9-2.9c2.1,0,3.7,0.6,5,1.9c1.3,1.2,2,2.9,2.3,4.8l-2.7,0.5
		c-0.5-3.2-2-4.7-4.6-4.7c-1.6,0-2.9,0.7-3.8,2.1c-0.9,1.4-1.3,3.2-1.3,5.4c0,2.4,0.4,4.3,1.3,5.7c0.9,1.4,2.1,2,3.7,2
		C271.2,139.8,272.7,138.2,273.4,135z"/>
	<path class="st0" d="M292.9,136l2.8,0.6c-0.5,1.6-1.5,3-2.9,4.1c-1.5,1.1-3.2,1.6-5.2,1.6c-2.6,0-4.7-0.9-6.3-2.8
		c-1.6-1.8-2.4-4.2-2.4-7.2c0-3,0.8-5.5,2.5-7.4c1.7-1.9,3.8-2.8,6.3-2.8c2.5,0,4.5,0.9,6,2.6c1.5,1.7,2.3,4.3,2.3,7.8h-13.9
		c0,2.9,0.6,4.8,1.8,5.9c1.2,1,2.5,1.5,3.8,1.5C290.1,139.8,291.9,138.5,292.9,136z M292.7,130.2c0-1.1-0.2-2-0.5-2.9
		c-0.3-0.8-0.9-1.5-1.7-2.1c-0.8-0.6-1.7-0.9-2.8-0.9c-1.5,0-2.7,0.5-3.7,1.6c-1,1.1-1.6,2.5-1.7,4.3H292.7z"/>
	<path class="st0" d="M297.6,136.7l2.8-0.6c0.6,2.4,2.6,3.6,6,3.6c1.2,0,2.3-0.3,3.1-0.8c0.9-0.6,1.3-1.3,1.3-2.3
		c0-1.5-1.1-2.4-3.3-2.8l-4-0.8c-1.6-0.3-2.8-0.9-3.8-1.8c-0.9-0.9-1.4-2-1.4-3.5c0-1.6,0.6-2.9,1.9-4c1.3-1.1,3-1.6,5.1-1.6
		c4.1,0,6.7,1.6,7.7,4.9l-2.7,0.6c-0.8-2-2.4-3-4.8-3c-1.2,0-2.2,0.2-3,0.7c-0.8,0.5-1.2,1.2-1.2,2.1c0,1.4,1,2.3,3,2.7l3.7,0.7
		c3.9,0.7,5.8,2.6,5.8,5.7c0,1.8-0.7,3.2-2.2,4.3c-1.5,1.1-3.4,1.6-5.8,1.6C301.5,142.2,298.7,140.4,297.6,136.7z"/>
</g>
<g>
	<g>
		<path class="st4" d="M230.5,81.7v-4.6c0-0.7,0.5-1.2,1.2-1.2l20.6,0c0.7,0,1.2,0.5,1.2,1.2l0,3.9c0,0.7-0.6,1.5-1.5,2.9
			l-10.7,15.2c4-0.1,8.1,0.5,11.7,2.5c0.8,0.5,1,1.1,1.1,1.8v4.9c0,0.7-0.7,1.5-1.5,1c-6.3-3.3-14.7-3.7-21.7,0
			c-0.7,0.4-1.5-0.4-1.5-1.1v-4.7c0-0.7,0-2,0.8-3.2l12.3-17.7l-10.8,0C231,82.9,230.5,82.4,230.5,81.7z"/>
		<path class="st4" d="M156.9,110.4h-6.3c-0.6,0-1.1-0.5-1.1-1.1l0-32.1c0-0.6,0.5-1.2,1.2-1.2l5.8,0c0.6,0,1.1,0.5,1.1,1.1v4.2h0.1
			c1.5-4.1,4.4-5.9,8.2-5.9c3.9,0,6.4,1.9,8.1,5.9c1.5-4.1,5-5.9,8.6-5.9c2.6,0,5.5,1.1,7.2,3.5c2,2.7,1.6,6.6,1.6,10.1l0,20.3
			c0,0.6-0.5,1.2-1.2,1.2h-6.3c-0.6,0-1.1-0.5-1.1-1.2l0-17c0-1.4,0.1-4.7-0.2-6c-0.5-2.2-1.9-2.8-3.7-2.8c-1.5,0-3.1,1-3.7,2.6
			c-0.6,1.6-0.6,4.3-0.6,6.2v17c0,0.6-0.5,1.2-1.2,1.2h-6.3c-0.6,0-1.1-0.5-1.1-1.2l0-17c0-3.6,0.6-8.9-3.9-8.9
			c-4.5,0-4.3,5.1-4.3,8.9l0,17C158.1,109.9,157.5,110.4,156.9,110.4z"/>
		<path class="st4" d="M268.6,75.4c9.2,0,14.2,8,14.2,18.1c0,9.8-5.5,17.6-14.2,17.6c-9,0-14-8-14-17.9
			C254.6,83.2,259.6,75.4,268.6,75.4z M268.6,82.8c-4.6,0-4.9,6.3-4.9,10.2c0,3.9-0.1,11.5,4.8,11.5c4.8,0,5-5.9,5-10.1
			c0-2.7-0.1-5.9-0.9-8.5C272,83.6,270.6,82.8,268.6,82.8z"/>
		<path class="st4" d="M296.1,110.4h-6.2c-0.6,0-1.1-0.5-1.1-1.2l0-32.1c0.1-0.6,0.6-1,1.2-1l5.8,0c0.5,0,1,0.4,1.1,0.9v4.9h0.1
			c1.8-4.4,4.2-6.5,8.5-6.5c2.8,0,5.6,1,7.3,3.8c1.6,2.6,1.6,6.9,1.6,10v20.2c-0.1,0.6-0.6,1-1.2,1H307c-0.6,0-1-0.5-1.1-1V92
			c0-3.5,0.4-8.7-3.9-8.7c-1.5,0-2.9,1-3.6,2.6c-0.9,2-1,3.9-1,6.1v17.3C297.3,109.9,296.8,110.4,296.1,110.4z"/>
		<path class="st4" d="M214.8,95.1c0,2.4,0.1,4.5-1.2,6.6c-1,1.8-2.6,2.8-4.3,2.8c-2.4,0-3.8-1.8-3.8-4.5c0-5.3,4.8-6.3,9.3-6.3
			V95.1z M221.1,110.3c-0.4,0.4-1,0.4-1.5,0.1c-2.1-1.7-2.5-2.5-3.6-4.2c-3.4,3.5-5.9,4.6-10.3,4.6c-5.3,0-9.4-3.3-9.4-9.8
			c0-5.1,2.8-8.5,6.7-10.2c3.4-1.5,8.1-1.8,11.8-2.2v-0.8c0-1.5,0.1-3.3-0.8-4.5c-0.8-1.2-2.2-1.6-3.5-1.6c-2.4,0-4.5,1.2-5,3.8
			c-0.1,0.6-0.5,1.1-1.1,1.2l-6.1-0.7c-0.5-0.1-1.1-0.5-0.9-1.3c1.4-7.4,8-9.6,14-9.6c3,0,7,0.8,9.4,3.1c3,2.8,2.8,6.6,2.8,10.8v9.8
			c0,2.9,1.2,4.2,2.4,5.8c0.4,0.6,0.5,1.2,0,1.7C224.7,107.3,222.4,109.2,221.1,110.3L221.1,110.3z"/>
		<path class="st4" d="M133.5,95.1c0,2.4,0.1,4.5-1.2,6.6c-1,1.8-2.6,2.8-4.3,2.8c-2.4,0-3.8-1.8-3.8-4.5c0-5.3,4.8-6.3,9.3-6.3
			V95.1z M139.8,110.3c-0.4,0.4-1,0.4-1.5,0.1c-2.1-1.7-2.5-2.5-3.6-4.2c-3.4,3.5-5.9,4.6-10.3,4.6c-5.3,0-9.4-3.3-9.4-9.8
			c0-5.1,2.8-8.5,6.7-10.2c3.4-1.5,8.1-1.8,11.8-2.2v-0.8c0-1.5,0.1-3.3-0.8-4.5c-0.8-1.2-2.2-1.6-3.5-1.6c-2.4,0-4.5,1.2-5,3.8
			c-0.1,0.6-0.5,1.1-1.1,1.2L117,86c-0.5-0.1-1.1-0.5-0.9-1.3c1.4-7.4,8-9.6,14-9.6c3,0,7,0.8,9.4,3.1c3,2.8,2.8,6.6,2.8,10.8v9.8
			c0,2.9,1.2,4.2,2.4,5.8c0.4,0.6,0.5,1.2,0,1.7C143.3,107.3,141,109.2,139.8,110.3L139.8,110.3z"/>
	</g>
</g>
</svg>
