<?xml version="1.0" encoding="utf-8"?>
<!-- Generator: Adobe Illustrator 19.2.1, SVG Export Plug-In . SVG Version: 6.00 Build 0)  -->
<svg version="1.1" id="Layer_1" xmlns="http://www.w3.org/2000/svg" xmlns:xlink="http://www.w3.org/1999/xlink" x="0px" y="0px"
	 viewBox="0 0 180 180" style="enable-background:new 0 0 180 180;" xml:space="preserve">
<style type="text/css">
	.st0{fill:#183B4D;}
	.st1{display:none;}
	.st2{display:inline;fill:#183B4D;}
	.st3{fill:#FFFFFF;}
	.st4{fill-rule:evenodd;clip-rule:evenodd;fill:#183B4D;}
	.st5{clip-path:url(#SVGID_2_);}
	.st6{clip-path:url(#SVGID_4_);fill:#183B4D;}
	.st7{clip-path:url(#SVGID_6_);}
	.st8{clip-path:url(#SVGID_8_);fill:#183B4D;}
	.st9{fill-rule:evenodd;clip-rule:evenodd;fill:#FFFFFF;}
	.st10{clip-path:url(#SVGID_10_);}
	.st11{clip-path:url(#SVGID_12_);fill:#183B4D;}
	.st12{fill:#234B5F;}
	.st13{fill:#2D5E72;}
	.st14{fill:#45778F;}
	.st15{fill:#7B9FB6;}
	.st16{fill:#CBD8E0;}
	.st17{fill:#F0F4F8;}
	.st18{fill:#CECDCA;}
	.st19{fill:#DC462F;}
	.st20{fill:#FFFFFF;stroke:#2D5E72;stroke-miterlimit:10;}
</style>
<g>
	<g>
		<polygon class="st4" points="60.9,140.6 44.7,134.8 44.7,111.1 60.9,116.6 		"/>
		<polygon class="st4" points="63.8,140.6 80,134.8 80,111.1 63.8,116.6 		"/>
		<polygon class="st4" points="46.4,109.3 62.7,104.7 77.9,109.6 62.7,114.7 		"/>
	</g>
	<g>
		<polygon class="st4" points="41.6,107.4 25.4,101.6 25.4,78 41.6,83.5 		"/>
		<polygon class="st4" points="44.6,107.4 60.7,101.6 60.7,78 44.6,83.5 		"/>
		<polygon class="st4" points="27.1,76.2 43.5,71.6 58.6,76.5 43.5,81.6 		"/>
	</g>
	<g>
		<polygon class="st4" points="79.3,107.4 63.2,101.6 63.2,78 79.3,83.5 		"/>
		<polygon class="st4" points="82.3,107.4 98.5,101.6 98.5,78 82.3,83.5 		"/>
		<polygon class="st4" points="64.8,76.2 81.2,71.6 96.4,76.5 81.2,81.6 		"/>
	</g>
	<g>
		<polygon class="st4" points="98.6,74.3 82.4,68.5 82.4,44.8 98.6,50.4 		"/>
		<polygon class="st4" points="101.6,74.3 117.7,68.5 117.7,44.8 101.6,50.4 		"/>
		<polygon class="st4" points="84.1,43.1 100.4,38.5 115.6,43.4 100.4,48.5 		"/>
	</g>
	<g>
		<polygon class="st4" points="136.3,74.3 120.1,68.5 120.1,44.8 136.3,50.4 		"/>
		<polygon class="st4" points="139.3,74.3 155.4,68.5 155.4,44.8 139.3,50.4 		"/>
		<polygon class="st4" points="121.8,43.1 138.2,38.5 153.3,43.4 138.2,48.5 		"/>
	</g>
</g>
</svg>
