<?xml version="1.0" encoding="utf-8"?>
<!-- Generator: Adobe Illustrator 19.2.1, SVG Export Plug-In . SVG Version: 6.00 Build 0)  -->
<svg version="1.1" id="Layer_1" xmlns="http://www.w3.org/2000/svg" xmlns:xlink="http://www.w3.org/1999/xlink" x="0px" y="0px"
	 viewBox="0 0 180 180" style="enable-background:new 0 0 180 180;" xml:space="preserve">
<style type="text/css">
	.st0{fill:#183B4D;}
	.st1{display:none;}
	.st2{display:inline;fill:#183B4D;}
	.st3{fill:#FFFFFF;}
	.st4{fill-rule:evenodd;clip-rule:evenodd;fill:#183B4D;}
	.st5{clip-path:url(#SVGID_2_);}
	.st6{clip-path:url(#SVGID_4_);fill:#183B4D;}
	.st7{clip-path:url(#SVGID_6_);}
	.st8{clip-path:url(#SVGID_8_);fill:#183B4D;}
	.st9{fill-rule:evenodd;clip-rule:evenodd;fill:#FFFFFF;}
	.st10{clip-path:url(#SVGID_10_);}
	.st11{clip-path:url(#SVGID_12_);fill:#183B4D;}
	.st12{fill:#234B5F;}
	.st13{fill:#2D5E72;}
	.st14{fill:#45778F;}
	.st15{fill:#7B9FB6;}
	.st16{fill:#CBD8E0;}
	.st17{fill:#F0F4F8;}
	.st18{fill:#CECDCA;}
	.st19{fill:#DC462F;}
	.st20{fill:#FFFFFF;stroke:#2D5E72;stroke-miterlimit:10;}
</style>
<g>
	<polygon class="st4" points="68.3,98.4 57.1,94.4 57.1,78.1 68.3,81.9 	"/>
	<polygon class="st4" points="70.3,98.4 81.5,94.4 81.5,78.1 70.3,81.9 	"/>
	<polygon class="st4" points="58.3,76.8 69.6,73.7 80,77 69.6,80.6 	"/>
</g>
<g>
	<polygon class="st4" points="55,75.6 43.9,71.6 43.9,55.2 55,59 	"/>
	<polygon class="st4" points="57.1,75.6 68.2,71.6 68.2,55.2 57.1,59 	"/>
	<polygon class="st4" points="45,54 56.3,50.8 66.8,54.2 56.3,57.8 	"/>
</g>
<g>
	<polygon class="st4" points="81,75.6 69.9,71.6 69.9,55.2 81,59 	"/>
	<polygon class="st4" points="83.1,75.6 94.2,71.6 94.2,55.2 83.1,59 	"/>
	<polygon class="st4" points="71,54 82.3,50.8 92.8,54.2 82.3,57.8 	"/>
</g>
<g>
	<polygon class="st4" points="94.3,52.7 83.2,48.7 83.2,32.4 94.3,36.2 	"/>
	<polygon class="st4" points="96.4,52.7 107.5,48.7 107.5,32.4 96.4,36.2 	"/>
	<polygon class="st4" points="84.3,31.2 95.6,28 106.1,31.4 95.6,34.9 	"/>
</g>
<g>
	<polygon class="st4" points="120.3,52.7 109.2,48.7 109.2,32.4 120.3,36.2 	"/>
	<polygon class="st4" points="122.4,52.7 133.5,48.7 133.5,32.4 122.4,36.2 	"/>
	<polygon class="st4" points="110.3,31.2 121.6,28 132.1,31.4 121.6,34.9 	"/>
</g>
<g>
	<path class="st0" d="M42.1,156.3l-3.6,12.5H37l-2.8-9.3l-2.6,9.3H30l-3.7-12.5h1.9l2.7,9.3l2.6-9.3h1.4l2.8,9.3l2.8-9.3H42.1z"/>
	<path class="st0" d="M52.1,165.1l1.8,0.4c-0.3,1.1-1,2-1.9,2.6c-1,0.7-2.1,1-3.4,1c-1.7,0-3.1-0.6-4.1-1.8
		c-1.1-1.2-1.6-2.8-1.6-4.7c0-2,0.5-3.6,1.6-4.8c1.1-1.2,2.5-1.8,4.1-1.8c1.6,0,2.9,0.6,3.9,1.7c1,1.1,1.5,2.8,1.5,5.1H45
		c0,1.9,0.4,3.2,1.2,3.8c0.8,0.7,1.6,1,2.5,1C50.3,167.5,51.4,166.7,52.1,165.1z M52,161.3c0-0.7-0.1-1.3-0.3-1.9
		c-0.2-0.5-0.6-1-1.1-1.4c-0.5-0.4-1.1-0.6-1.8-0.6c-1,0-1.8,0.3-2.4,1c-0.7,0.7-1,1.6-1.1,2.8H52z"/>
	<path class="st0" d="M57.6,168.8h-0.9v-16.8h1.9v6.5c0.9-1.6,2.1-2.4,3.7-2.4c1.4,0,2.6,0.6,3.6,1.7c1,1.1,1.4,2.8,1.4,4.9
		c0,1.9-0.5,3.4-1.4,4.7c-1,1.3-2.2,1.9-3.7,1.9c-1.7,0-3-0.8-3.9-2.4L57.6,168.8z M58.6,163.9c0.1,1.3,0.5,2.2,1.2,2.8
		c0.7,0.6,1.4,0.9,2.2,0.9c1,0,1.8-0.4,2.4-1.3c0.6-0.9,0.9-2,0.9-3.5c0-1.6-0.3-2.9-0.9-3.8c-0.6-0.9-1.4-1.4-2.4-1.4
		c-0.8,0-1.5,0.3-2.2,1c-0.7,0.7-1,1.5-1.2,2.5V163.9z"/>
	<path class="st0" d="M72.2,165.6l1.9-0.4c0.4,1.6,1.7,2.4,3.9,2.4c0.8,0,1.5-0.2,2.1-0.5c0.6-0.4,0.8-0.9,0.8-1.5
		c0-1-0.7-1.6-2.1-1.9l-2.6-0.5c-1-0.2-1.8-0.6-2.5-1.2c-0.6-0.6-0.9-1.3-0.9-2.3c0-1,0.4-1.9,1.2-2.6c0.8-0.7,1.9-1.1,3.4-1.1
		c2.7,0,4.4,1.1,5,3.2l-1.8,0.4c-0.5-1.3-1.6-1.9-3.1-1.9c-0.8,0-1.4,0.2-1.9,0.5c-0.5,0.3-0.8,0.8-0.8,1.4c0,0.9,0.6,1.5,1.9,1.7
		l2.4,0.4c2.5,0.5,3.8,1.7,3.8,3.7c0,1.1-0.5,2.1-1.4,2.8c-0.9,0.7-2.2,1.1-3.8,1.1C74.8,169.1,72.9,167.9,72.2,165.6z"/>
	<path class="st0" d="M93.3,165.1l1.8,0.4c-0.3,1.1-1,2-1.9,2.6c-1,0.7-2.1,1-3.4,1c-1.7,0-3.1-0.6-4.1-1.8
		c-1.1-1.2-1.6-2.8-1.6-4.7c0-2,0.5-3.6,1.6-4.8c1.1-1.2,2.5-1.8,4.1-1.8c1.6,0,2.9,0.6,3.9,1.7c1,1.1,1.5,2.8,1.5,5.1h-9.1
		c0,1.9,0.4,3.2,1.2,3.8c0.8,0.7,1.6,1,2.5,1C91.5,167.5,92.6,166.7,93.3,165.1z M93.2,161.3c0-0.7-0.1-1.3-0.3-1.9
		c-0.2-0.5-0.6-1-1.1-1.4c-0.5-0.4-1.1-0.6-1.8-0.6c-1,0-1.8,0.3-2.4,1c-0.7,0.7-1,1.6-1.1,2.8H93.2z"/>
	<path class="st0" d="M99.3,168.8h-1.9v-12.5h1.7v2.9c0.6-1.4,1.2-2.2,1.8-2.6c0.6-0.4,1.2-0.6,1.9-0.6c0.2,0,0.5,0,0.8,0v1.9h-0.4
		c-1.1,0-2,0.4-2.7,1.2c-0.7,0.8-1.1,1.8-1.1,3.1V168.8z"/>
	<path class="st0" d="M115.6,156.3l-4.3,12.5h-2l-4.5-12.5h2.2l3.5,10.1l3.4-10.1H115.6z"/>
	<path class="st0" d="M119.2,151.9v2.2h-2.1v-2.2H119.2z M119.2,156.3v12.5h-1.9v-12.5H119.2z"/>
	<path class="st0" d="M129.3,164.4l1.7,0.3c-0.2,1.4-0.8,2.5-1.6,3.2c-0.8,0.8-1.9,1.2-3.2,1.2c-1.7,0-3-0.6-3.9-1.9
		c-0.9-1.3-1.4-2.8-1.4-4.7c0-1.9,0.5-3.5,1.4-4.7c0.9-1.3,2.2-1.9,3.9-1.9c1.4,0,2.4,0.4,3.3,1.2c0.8,0.8,1.3,1.9,1.5,3.1l-1.7,0.3
		c-0.3-2.1-1.3-3.1-3-3.1c-1.1,0-1.9,0.5-2.5,1.4c-0.6,0.9-0.9,2.1-0.9,3.5c0,1.6,0.3,2.8,0.9,3.7c0.6,0.9,1.4,1.3,2.4,1.3
		C127.9,167.5,128.9,166.5,129.3,164.4z"/>
	<path class="st0" d="M142,165.1l1.8,0.4c-0.3,1.1-1,2-1.9,2.6c-1,0.7-2.1,1-3.4,1c-1.7,0-3.1-0.6-4.1-1.8c-1.1-1.2-1.6-2.8-1.6-4.7
		c0-2,0.5-3.6,1.6-4.8c1.1-1.2,2.5-1.8,4.1-1.8c1.6,0,2.9,0.6,3.9,1.7c1,1.1,1.5,2.8,1.5,5.1H135c0,1.9,0.4,3.2,1.2,3.8
		c0.8,0.7,1.6,1,2.5,1C140.3,167.5,141.4,166.7,142,165.1z M141.9,161.3c0-0.7-0.1-1.3-0.3-1.9c-0.2-0.5-0.6-1-1.1-1.4
		c-0.5-0.4-1.1-0.6-1.8-0.6c-1,0-1.8,0.3-2.4,1c-0.7,0.7-1,1.6-1.1,2.8H141.9z"/>
	<path class="st0" d="M145.2,165.6l1.9-0.4c0.4,1.6,1.7,2.4,3.9,2.4c0.8,0,1.5-0.2,2.1-0.5c0.6-0.4,0.8-0.9,0.8-1.5
		c0-1-0.7-1.6-2.1-1.9l-2.6-0.5c-1-0.2-1.8-0.6-2.5-1.2c-0.6-0.6-0.9-1.3-0.9-2.3c0-1,0.4-1.9,1.2-2.6c0.8-0.7,1.9-1.1,3.4-1.1
		c2.7,0,4.4,1.1,5,3.2l-1.8,0.4c-0.5-1.3-1.6-1.9-3.1-1.9c-0.8,0-1.4,0.2-1.9,0.5c-0.5,0.3-0.8,0.8-0.8,1.4c0,0.9,0.6,1.5,1.9,1.7
		l2.4,0.4c2.5,0.5,3.8,1.7,3.8,3.7c0,1.1-0.5,2.1-1.4,2.8c-0.9,0.7-2.2,1.1-3.8,1.1C147.7,169.1,145.9,167.9,145.2,165.6z"/>
</g>
<g>
	<g>
		<path class="st4" d="M101.3,129.6v-3c0-0.5,0.3-0.8,0.8-0.8l13.4,0c0.4,0,0.8,0.3,0.8,0.8l0,2.6c0,0.4-0.4,1-1,1.9l-7,9.9
			c2.6-0.1,5.3,0.3,7.7,1.6c0.5,0.3,0.7,0.7,0.7,1.2v3.2c0,0.4-0.5,1-1,0.7c-4.1-2.2-9.6-2.4-14.2,0c-0.5,0.2-1-0.3-1-0.7v-3
			c0-0.5,0-1.3,0.5-2.1l8.1-11.6l-7,0C101.7,130.4,101.3,130.1,101.3,129.6z"/>
		<path class="st4" d="M53.3,148.4h-4.1c-0.4,0-0.7-0.3-0.7-0.7l0-21c0-0.4,0.4-0.8,0.8-0.8l3.8,0c0.4,0,0.7,0.3,0.7,0.7v2.7h0.1
			c1-2.6,2.9-3.9,5.4-3.9c2.6,0,4.2,1.2,5.3,3.9c1-2.6,3.2-3.9,5.6-3.9c1.7,0,3.6,0.7,4.7,2.3c1.3,1.8,1,4.3,1,6.6l0,13.2
			c0,0.4-0.4,0.8-0.8,0.8h-4.1c-0.4,0-0.7-0.4-0.7-0.8l0-11.1c0-0.9,0.1-3.1-0.1-3.9c-0.3-1.4-1.2-1.8-2.4-1.8c-1,0-2,0.7-2.4,1.7
			c-0.4,1.1-0.4,2.8-0.4,4v11.1c0,0.4-0.4,0.8-0.8,0.8h-4.1c-0.4,0-0.7-0.4-0.7-0.8l0-11.1c0-2.3,0.4-5.8-2.5-5.8
			c-2.9,0-2.8,3.4-2.8,5.8l0,11.1C54.1,148,53.7,148.4,53.3,148.4z"/>
		<path class="st4" d="M126.2,125.5c6,0,9.3,5.2,9.3,11.8c0,6.4-3.6,11.5-9.3,11.5c-5.9,0-9.1-5.2-9.1-11.7
			C117.1,130.6,120.3,125.5,126.2,125.5z M126.2,130.3c-3,0-3.2,4.1-3.2,6.7c0,2.6,0,7.5,3.1,7.5c3.1,0,3.3-3.9,3.3-6.6
			c0-1.8-0.1-3.9-0.6-5.6C128.4,130.9,127.5,130.3,126.2,130.3z"/>
		<path class="st4" d="M144.2,148.4h-4.1c-0.4,0-0.7-0.4-0.7-0.8l0-21c0-0.4,0.4-0.7,0.8-0.7l3.8,0c0.4,0,0.7,0.3,0.7,0.6v3.2h0.1
			c1.1-2.9,2.7-4.2,5.6-4.2c1.8,0,3.6,0.7,4.8,2.5c1.1,1.7,1.1,4.5,1.1,6.5v13.2c0,0.4-0.4,0.7-0.8,0.7h-4.1c-0.4,0-0.7-0.3-0.7-0.7
			v-11.4c0-2.3,0.3-5.7-2.6-5.7c-1,0-1.9,0.7-2.4,1.7c-0.6,1.3-0.6,2.6-0.6,4v11.3C145,148,144.6,148.4,144.2,148.4z"/>
		<path class="st4" d="M91.1,138.4c0,1.6,0,2.9-0.8,4.3c-0.7,1.2-1.7,1.9-2.8,1.9c-1.6,0-2.5-1.2-2.5-3c0-3.5,3.1-4.1,6.1-4.1V138.4
			z M95.2,148.3c-0.3,0.2-0.7,0.3-1,0.1c-1.4-1.1-1.6-1.6-2.3-2.7c-2.2,2.3-3.8,3-6.7,3c-3.4,0-6.1-2.1-6.1-6.4
			c0-3.3,1.8-5.6,4.4-6.7c2.2-1,5.3-1.2,7.7-1.4v-0.5c0-1,0.1-2.1-0.5-3c-0.5-0.8-1.5-1.1-2.3-1.1c-1.6,0-2.9,0.8-3.3,2.5
			c-0.1,0.4-0.3,0.7-0.7,0.8l-4-0.4c-0.3-0.1-0.7-0.3-0.6-0.9c0.9-4.8,5.3-6.3,9.1-6.3c2,0,4.6,0.5,6.2,2c2,1.9,1.8,4.3,1.8,7v6.4
			c0,1.9,0.8,2.8,1.5,3.8c0.3,0.4,0.3,0.8,0,1.1C97.5,146.3,96,147.6,95.2,148.3L95.2,148.3z"/>
		<path class="st4" d="M38,138.4c0,1.6,0,2.9-0.8,4.3c-0.6,1.2-1.7,1.9-2.8,1.9c-1.6,0-2.5-1.2-2.5-3c0-3.5,3.1-4.1,6.1-4.1V138.4z
			 M42.1,148.3c-0.3,0.2-0.7,0.3-1,0.1c-1.4-1.1-1.6-1.6-2.3-2.7c-2.2,2.3-3.8,3-6.7,3c-3.4,0-6.1-2.1-6.1-6.4
			c0-3.3,1.8-5.6,4.4-6.7c2.2-1,5.3-1.2,7.7-1.4v-0.5c0-1,0.1-2.1-0.5-3c-0.5-0.8-1.5-1.1-2.3-1.1c-1.6,0-2.9,0.8-3.3,2.5
			c-0.1,0.4-0.3,0.7-0.7,0.8l-4-0.4c-0.3-0.1-0.7-0.3-0.6-0.9c0.9-4.8,5.3-6.3,9.1-6.3c2,0,4.6,0.5,6.2,2c2,1.9,1.8,4.3,1.8,7v6.4
			c0,1.9,0.8,2.8,1.5,3.8c0.3,0.4,0.3,0.8,0,1.1C44.4,146.3,42.9,147.6,42.1,148.3L42.1,148.3z"/>
	</g>
</g>
</svg>
