<?xml version="1.0" encoding="utf-8"?>
<!-- Generator: Adobe Illustrator 19.2.1, SVG Export Plug-In . SVG Version: 6.00 Build 0)  -->
<svg version="1.1" id="Layer_1" xmlns="http://www.w3.org/2000/svg" xmlns:xlink="http://www.w3.org/1999/xlink" x="0px" y="0px"
	 viewBox="0 0 360 180" style="enable-background:new 0 0 360 180;" xml:space="preserve">
<style type="text/css">
	.st0{fill:#183B4D;}
	.st1{display:none;}
	.st2{display:inline;fill:#183B4D;}
	.st3{fill:#FFFFFF;}
	.st4{fill-rule:evenodd;clip-rule:evenodd;fill:#183B4D;}
	.st5{clip-path:url(#SVGID_2_);}
	.st6{clip-path:url(#SVGID_4_);fill:#183B4D;}
	.st7{clip-path:url(#SVGID_6_);}
	.st8{clip-path:url(#SVGID_8_);fill:#183B4D;}
	.st9{fill-rule:evenodd;clip-rule:evenodd;fill:#FFFFFF;}
	.st10{clip-path:url(#SVGID_10_);}
	.st11{clip-path:url(#SVGID_12_);fill:#183B4D;}
	.st12{fill:#234B5F;}
	.st13{fill:#2D5E72;}
	.st14{fill:#45778F;}
	.st15{fill:#7B9FB6;}
	.st16{fill:#CBD8E0;}
	.st17{fill:#F0F4F8;}
	.st18{fill:#CECDCA;}
	.st19{fill:#DC462F;}
	.st20{fill:#FFFFFF;stroke:#2D5E72;stroke-miterlimit:10;}
</style>
<g>
	<defs>
		<path id="SVGID_1_" d="M-181.2,63.9l-5.5,5.5c-0.3,0.3-0.3,0.8,0,1.1l39.2,39.2c0.3,0.3,0.8,0.3,1.1,0l39.2-39.2
			c0.3-0.3,0.3-0.8,0-1.1l-5.5-5.5l-31.9,31.9c-1.2,1.2-3.3,1.2-4.5,0L-181.2,63.9z"/>
	</defs>
	<use xlink:href="#SVGID_1_"  style="overflow:visible;fill-rule:evenodd;clip-rule:evenodd;fill:#183B4D;"/>
	<clipPath id="SVGID_2_">
		<use xlink:href="#SVGID_1_"  style="overflow:visible;"/>
	</clipPath>
	<g class="st5">
		<defs>
			<rect id="SVGID_3_" x="-306.9" y="-39.8" width="319.7" height="239.8"/>
		</defs>
		<use xlink:href="#SVGID_3_"  style="overflow:visible;fill:#183B4D;"/>
		<clipPath id="SVGID_4_">
			<use xlink:href="#SVGID_3_"  style="overflow:visible;"/>
		</clipPath>
	</g>
</g>
<path id="DC_x2F_OS_2_" class="st4" d="M166,72.6c5,0,8,1.8,8,5.5v22.3c0,3.7-3,5.5-8,5.5h-7.8V72.6H166z M166,114.1
	c13.2,0,17.8-5.8,17.8-11.9V76.3c0-6.1-4.6-11.9-17.8-11.9h-15.9c-1.3,0-1.8,0.6-1.8,1.9v45.9c0,1.2,0.4,1.9,1.5,1.9H166z M225,98.5
	c0-1.3-0.4-1.8-1.7-1.8h-6.1c-1.3,0-1.8,0.5-1.8,1.8v2.8c0,3.7-2.6,5.5-7.4,5.5c-4.9,0-7.4-1.8-7.4-5.5V77.7c0-3.7,2.5-5.5,7.4-5.5
	c4.9,0,7.4,1.8,7.4,5.5v1.8c0,1.3,0.5,1.8,1.8,1.8h6.1c1.2,0,1.7-0.5,1.7-1.8V76c0-6.1-3.9-11.9-17.2-11.9
	c-13.2,0-17.2,5.8-17.2,11.9v27c0,6.1,3.9,11.9,17.2,11.9c13.2,0,17.2-5.8,17.2-11.9V98.5z M281.6,104c0,4.5-2.8,7.5-11.4,7.5
	c-8.5,0-11.3-3.1-11.3-7.5V74.9c0-4.5,2.8-7.5,11.3-7.5c8.5,0,11.4,3.1,11.4,7.5V104z M255,104.6c0,5.7,3.5,10.3,15.2,10.3
	c11.8,0,15.3-4.6,15.3-10.3V74.4c0-5.7-3.6-10.3-15.3-10.3c-11.7,0-15.2,4.6-15.2,10.3V104.6z M318.1,77.8c0,0.6,0.2,0.9,0.8,0.9
	h2.1c0.7,0,0.9-0.3,0.9-0.9v-3.6c0-5.7-3.3-10.3-14.7-10.3c-11.5,0-14.7,4.6-14.7,10.3v3.9c0,4.6,3.4,7.5,6.3,8.6l13.6,5.3
	c2.8,1.1,6.1,2.8,6.1,6.8v5.2c0,4.4-2.8,7.4-11.4,7.4c-8.5,0-11.2-3.1-11.2-7.4v-3.4c0-0.7-0.3-0.9-0.9-0.9h-2.1
	c-0.6,0-0.9,0.3-0.9,0.9v3.8c0,5.7,3.6,10.3,15.2,10.3s15.1-4.6,15.1-10.3V98c0-5-3.7-7.7-7.3-9.1l-14-5.3c-2-0.7-4.6-2.5-4.6-6.2
	v-2.7c0-4.4,2.4-7.4,10.9-7.4c8.5,0,10.9,3.1,10.9,7.4V77.8z"/>
<path id="_x2F__2_" class="st4" d="M249.6,58.8c0.3,0,0.4,0.2,0.4,0.5l-16.2,59.9c-0.1,0.3-0.3,0.5-0.6,0.5h-2.7
	c-0.3,0-0.4-0.2-0.4-0.5l16.2-59.9c0.1-0.3,0.3-0.5,0.6-0.5H249.6z"/>
<g>
	<path id="Square_24_" class="st4" d="M68.5,99.3c-0.3-0.3-0.8-0.3-1.1,0l-11,11c-0.3,0.3-0.3,0.8,0,1.1l11,11
		c0.3,0.3,0.8,0.3,1.1,0l11-11c0.3-0.3,0.3-0.8,0-1.1L68.5,99.3z"/>
	<g id="Fourth_Row_3_">
		<path id="Square_23_" class="st4" d="M93.6,96.2l-11-11c-0.3-0.3-0.8-0.3-1.1,0l-11,11c-0.3,0.3-0.3,0.8,0,1.1l11,11
			c0.3,0.3,0.8,0.3,1.1,0l11-11C93.9,97,93.9,96.5,93.6,96.2z"/>
		<path id="Square_22_" class="st4" d="M65.3,96.2l-11-11c-0.3-0.3-0.8-0.3-1.1,0l-11,11c-0.3,0.3-0.3,0.8,0,1.1l11,11
			c0.3,0.3,0.8,0.3,1.1,0l11-11C65.7,97,65.7,96.5,65.3,96.2z"/>
	</g>
	<g id="Third_Row_3_">
		<path id="Square_21_" class="st4" d="M107.7,83.2l-11,11c-0.3,0.3-0.8,0.3-1.1,0l-11-11c-0.3-0.3-0.3-0.8,0-1.1l11-11
			c0.3-0.3,0.8-0.3,1.1,0l11,11C108,82.4,108,82.9,107.7,83.2z"/>
		<path id="Square_20_" class="st4" d="M79.5,83.2l-11,11c-0.3,0.3-0.8,0.3-1.1,0l-11-11c-0.3-0.3-0.3-0.8,0-1.1l11-11
			c0.3-0.3,0.8-0.3,1.1,0l11,11C79.8,82.4,79.8,82.9,79.5,83.2z"/>
		<path id="Square_19_" class="st4" d="M51.2,83.2l-11,11c-0.3,0.3-0.8,0.3-1.1,0l-11-11c-0.3-0.3-0.3-0.8,0-1.1l11-11
			c0.3-0.3,0.8-0.3,1.1,0l11,11C51.6,82.4,51.6,82.9,51.2,83.2z"/>
	</g>
	<g id="Second_Row_3_">
		<path id="Square_18_" class="st4" d="M81.5,78.5c0.3,0.3,0.8,0.3,1.1,0l11-11c0.3-0.3,0.3-0.8,0-1.1l-11-11
			c-0.3-0.3-0.8-0.3-1.1,0l-11,11c-0.3,0.3-0.3,0.8,0,1.1L81.5,78.5z"/>
		<path id="Square_17_" class="st4" d="M53.3,78.4c0.3,0.3,0.8,0.3,1.1,0l11-11c0.3-0.3,0.3-0.8,0-1.1l-11-11
			c-0.3-0.3-0.8-0.3-1.1,0l-11,11c-0.3,0.3-0.3,0.8,0,1.1L53.3,78.4z"/>
	</g>
	<path id="Sqaure_3_" class="st4" d="M67.5,62.4c0.3,0.3,0.8,0.3,1.1,0l11-11c0.3-0.3,0.3-0.8,0-1.1l-11-11c-0.3-0.3-0.8-0.3-1.1,0
		l-11,11c-0.3,0.3-0.3,0.8,0,1.1L67.5,62.4z"/>
	<g>
		<defs>
			<path id="SVGID_9_" d="M33.7,92.8l-5.5,5.5c-0.3,0.3-0.3,0.8,0,1.1l39.2,39.2c0.3,0.3,0.8,0.3,1.1,0l39.2-39.2
				c0.3-0.3,0.3-0.8,0-1.1l-5.5-5.5l-31.9,31.9c-1.2,1.2-3.3,1.2-4.5,0L33.7,92.8z"/>
		</defs>
		<use xlink:href="#SVGID_9_"  style="overflow:visible;fill-rule:evenodd;clip-rule:evenodd;fill:#183B4D;"/>
		<clipPath id="SVGID_6_">
			<use xlink:href="#SVGID_9_"  style="overflow:visible;"/>
		</clipPath>
		<g class="st7">
			<defs>
				<rect id="SVGID_11_" x="-91.9" y="-10.8" width="319.7" height="239.8"/>
			</defs>
			<use xlink:href="#SVGID_11_"  style="overflow:visible;fill:#183B4D;"/>
			<clipPath id="SVGID_8_">
				<use xlink:href="#SVGID_11_"  style="overflow:visible;"/>
			</clipPath>
			<rect x="26" y="90.8" class="st8" width="83.9" height="50.1"/>
		</g>
	</g>
</g>
</svg>
