<?xml version="1.0" encoding="utf-8"?>
<!-- Generator: Adobe Illustrator 19.2.1, SVG Export Plug-In . SVG Version: 6.00 Build 0)  -->
<svg version="1.1" id="Layer_1" xmlns="http://www.w3.org/2000/svg" xmlns:xlink="http://www.w3.org/1999/xlink" x="0px" y="0px"
	 viewBox="0 0 180 180" style="enable-background:new 0 0 180 180;" xml:space="preserve">
<style type="text/css">
	.st0{fill:#183B4D;}
	.st1{display:none;}
	.st2{display:inline;fill:#183B4D;}
	.st3{fill:#FFFFFF;}
	.st4{fill-rule:evenodd;clip-rule:evenodd;fill:#183B4D;}
	.st5{clip-path:url(#SVGID_2_);}
	.st6{clip-path:url(#SVGID_4_);fill:#183B4D;}
	.st7{clip-path:url(#SVGID_6_);}
	.st8{clip-path:url(#SVGID_8_);fill:#183B4D;}
	.st9{fill-rule:evenodd;clip-rule:evenodd;fill:#FFFFFF;}
	.st10{clip-path:url(#SVGID_10_);}
	.st11{clip-path:url(#SVGID_12_);fill:#183B4D;}
	.st12{fill:#234B5F;}
	.st13{fill:#2D5E72;}
	.st14{fill:#45778F;}
	.st15{fill:#7B9FB6;}
	.st16{fill:#CBD8E0;}
	.st17{fill:#F0F4F8;}
	.st18{fill:#CECDCA;}
	.st19{fill:#DC462F;}
	.st20{fill:#FFFFFF;stroke:#2D5E72;stroke-miterlimit:10;}
</style>
<path id="DC_x2F_OS" class="st4" d="M53.7,140c2.7,0,4.2,1,4.2,2.9v11.9c0,1.9-1.6,2.9-4.2,2.9h-4.2V140H53.7z M53.7,162.2
	c7.1,0,9.5-3.1,9.5-6.4V142c0-3.3-2.5-6.4-9.5-6.4h-8.5c-0.7,0-0.9,0.3-0.9,1v24.5c0,0.7,0.2,1,0.8,1H53.7z M85.2,153.8
	c0-0.7-0.2-1-0.9-1h-3.2c-0.7,0-1,0.3-1,1v1.5c0,1.9-1.4,2.9-4,2.9c-2.6,0-3.9-1-3.9-2.9v-12.6c0-1.9,1.3-2.9,3.9-2.9
	c2.6,0,4,1,4,2.9v0.9c0,0.7,0.3,1,1,1h3.2c0.7,0,0.9-0.3,0.9-1v-1.9c0-3.3-2.1-6.4-9.2-6.4s-9.2,3.1-9.2,6.4v14.4
	c0,3.3,2.1,6.4,9.2,6.4s9.2-3.1,9.2-6.4V153.8z M115.4,156.8c0,2.4-1.5,4-6.1,4c-4.5,0-6-1.6-6-4v-15.5c0-2.4,1.5-4,6-4
	c4.6,0,6.1,1.6,6.1,4V156.8z M101.2,157.1c0,3,1.9,5.5,8.1,5.5c6.3,0,8.2-2.5,8.2-5.5V141c0-3-1.9-5.5-8.2-5.5
	c-6.2,0-8.1,2.5-8.1,5.5V157.1z M134.9,142.8c0,0.3,0.1,0.5,0.4,0.5h1.1c0.4,0,0.5-0.2,0.5-0.5v-1.9c0-3-1.8-5.5-7.8-5.5
	c-6.1,0-7.8,2.5-7.8,5.5v2.1c0,2.5,1.8,4,3.4,4.6l7.3,2.8c1.5,0.6,3.2,1.5,3.2,3.6v2.8c0,2.3-1.5,4-6.1,4c-4.6,0-6-1.6-6-4V155
	c0-0.4-0.2-0.5-0.5-0.5h-1.1c-0.3,0-0.5,0.2-0.5,0.5v2c0,3,1.9,5.5,8.1,5.5c6.2,0,8.1-2.5,8.1-5.5v-3.4c0-2.7-1.9-4.1-3.9-4.9
	l-7.5-2.8c-1.1-0.4-2.5-1.3-2.5-3.3v-1.4c0-2.3,1.3-4,5.8-4c4.5,0,5.8,1.6,5.8,4V142.8z"/>
<path id="_x2F_" class="st4" d="M98.4,132.7c0.1,0,0.2,0.1,0.2,0.3l-8.6,32c0,0.1-0.2,0.3-0.3,0.3h-1.5c-0.1,0-0.2-0.1-0.2-0.3
	l8.6-32c0-0.1,0.2-0.3,0.3-0.3H98.4z"/>
<path id="Square_14_" class="st4" d="M90.3,70.4c-0.3-0.3-0.8-0.3-1.1,0l-11,11c-0.3,0.3-0.3,0.8,0,1.1l11,11c0.3,0.3,0.8,0.3,1.1,0
	l11-11c0.3-0.3,0.3-0.8,0-1.1L90.3,70.4z"/>
<g id="Fourth_Row_1_">
	<path id="Square_13_" class="st4" d="M115.4,67.2l-11-11c-0.3-0.3-0.8-0.3-1.1,0l-11,11c-0.3,0.3-0.3,0.8,0,1.1l11,11
		c0.3,0.3,0.8,0.3,1.1,0l11-11C115.7,68.1,115.7,67.5,115.4,67.2z"/>
	<path id="Square_12_" class="st4" d="M87.2,67.2l-11-11c-0.3-0.3-0.8-0.3-1.1,0l-11,11c-0.3,0.3-0.3,0.8,0,1.1l11,11
		c0.3,0.3,0.8,0.3,1.1,0l11-11C87.5,68.1,87.5,67.5,87.2,67.2z"/>
</g>
<g id="Third_Row_1_">
	<path id="Square_11_" class="st4" d="M129.5,54.3l-11,11c-0.3,0.3-0.8,0.3-1.1,0l-11-11c-0.3-0.3-0.3-0.8,0-1.1l11-11
		c0.3-0.3,0.8-0.3,1.1,0l11,11C129.8,53.4,129.8,54,129.5,54.3z"/>
	<path id="Square_10_" class="st4" d="M101.3,54.3l-11,11c-0.3,0.3-0.8,0.3-1.1,0l-11-11c-0.3-0.3-0.3-0.8,0-1.1l11-11
		c0.3-0.3,0.8-0.3,1.1,0l11,11C101.6,53.4,101.6,54,101.3,54.3z"/>
	<path id="Square_9_" class="st4" d="M73,54.3l-11,11c-0.3,0.3-0.8,0.3-1.1,0l-11-11c-0.3-0.3-0.3-0.8,0-1.1l11-11
		c0.3-0.3,0.8-0.3,1.1,0l11,11C73.3,53.4,73.3,54,73,54.3z"/>
</g>
<g id="Second_Row_1_">
	<path id="Square_8_" class="st4" d="M103.3,49.6c0.3,0.3,0.8,0.3,1.1,0l11-11c0.3-0.3,0.3-0.8,0-1.1l-11-11c-0.3-0.3-0.8-0.3-1.1,0
		l-11,11c-0.3,0.3-0.3,0.8,0,1.1L103.3,49.6z"/>
	<path id="Square_7_" class="st4" d="M75.1,49.5c0.3,0.3,0.8,0.3,1.1,0l11-11c0.3-0.3,0.3-0.8,0-1.1l-11-11c-0.3-0.3-0.8-0.3-1.1,0
		l-11,11c-0.3,0.3-0.3,0.8,0,1.1L75.1,49.5z"/>
</g>
<path id="Sqaure_1_" class="st4" d="M89.2,33.5c0.3,0.3,0.8,0.3,1.1,0l11-11c0.3-0.3,0.3-0.8,0-1.1l-11-11c-0.3-0.3-0.8-0.3-1.1,0
	l-11,11c-0.3,0.3-0.3,0.8,0,1.1L89.2,33.5z"/>
<g>
	<defs>
		<path id="SVGID_1_" d="M55.6,63.9L50,69.4c-0.3,0.3-0.3,0.8,0,1.1l39.2,39.2c0.3,0.3,0.8,0.3,1.1,0l39.2-39.2
			c0.3-0.3,0.3-0.8,0-1.1l-5.5-5.5L92,95.8c-1.2,1.2-3.3,1.2-4.5,0L55.6,63.9z"/>
	</defs>
	<use xlink:href="#SVGID_1_"  style="overflow:visible;fill-rule:evenodd;clip-rule:evenodd;fill:#183B4D;"/>
	<clipPath id="SVGID_2_">
		<use xlink:href="#SVGID_1_"  style="overflow:visible;"/>
	</clipPath>
	<g class="st5">
		<defs>
			<rect id="SVGID_3_" x="-70.1" y="-39.8" width="319.7" height="239.8"/>
		</defs>
		<use xlink:href="#SVGID_3_"  style="overflow:visible;fill:#183B4D;"/>
		<clipPath id="SVGID_4_">
			<use xlink:href="#SVGID_3_"  style="overflow:visible;"/>
		</clipPath>
		<rect x="47.8" y="61.9" class="st6" width="83.9" height="50.1"/>
	</g>
</g>
<g>
	<g>
		<defs>
			<path id="SVGID_5_" d="M-209.3,93.6l-6.7,6.7c-0.4,0.4-0.4,1,0,1.4l47.3,47.3c0.4,0.4,1,0.4,1.4,0l47.3-47.3c0.4-0.4,0.4-1,0-1.4
				l-6.7-6.7l-38.6,38.6c-1.5,1.5-4,1.5-5.5,0L-209.3,93.6z"/>
		</defs>
		<use xlink:href="#SVGID_5_"  style="overflow:visible;fill-rule:evenodd;clip-rule:evenodd;fill:#183B4D;"/>
		<clipPath id="SVGID_6_">
			<use xlink:href="#SVGID_5_"  style="overflow:visible;"/>
		</clipPath>
		<g class="st7">
			<defs>
				<rect id="SVGID_7_" x="-361.2" y="-31.6" width="386.4" height="289.8"/>
			</defs>
			<use xlink:href="#SVGID_7_"  style="overflow:visible;fill:#183B4D;"/>
			<clipPath id="SVGID_8_">
				<use xlink:href="#SVGID_7_"  style="overflow:visible;"/>
			</clipPath>
		</g>
	</g>
</g>
<g>
	<g>
		<defs>
			<path id="SVGID_9_" d="M270.5,92.8l-5.5,5.5c-0.3,0.3-0.3,0.8,0,1.1l39.2,39.2c0.3,0.3,0.8,0.3,1.1,0l39.2-39.2
				c0.3-0.3,0.3-0.8,0-1.1l-5.5-5.5L307,124.7c-1.2,1.2-3.3,1.2-4.5,0L270.5,92.8z"/>
		</defs>
		<use xlink:href="#SVGID_9_"  style="overflow:visible;fill-rule:evenodd;clip-rule:evenodd;fill:#183B4D;"/>
		<clipPath id="SVGID_10_">
			<use xlink:href="#SVGID_9_"  style="overflow:visible;"/>
		</clipPath>
		<g class="st10">
			<defs>
				<rect id="SVGID_11_" x="144.8" y="-10.8" width="319.7" height="239.8"/>
			</defs>
			<use xlink:href="#SVGID_11_"  style="overflow:visible;fill:#183B4D;"/>
			<clipPath id="SVGID_12_">
				<use xlink:href="#SVGID_11_"  style="overflow:visible;"/>
			</clipPath>
		</g>
	</g>
</g>
</svg>
