<?xml version="1.0" encoding="utf-8"?>
<!-- Generator: Adobe Illustrator 19.2.1, SVG Export Plug-In . SVG Version: 6.00 Build 0)  -->
<svg version="1.1" id="Layer_1" xmlns="http://www.w3.org/2000/svg" xmlns:xlink="http://www.w3.org/1999/xlink" x="0px" y="0px"
	 viewBox="0 0 180 180" style="enable-background:new 0 0 180 180;" xml:space="preserve">
<style type="text/css">
	.st0{fill:#183B4D;}
	.st1{display:none;}
	.st2{display:inline;fill:#183B4D;}
	.st3{fill:#FFFFFF;}
	.st4{fill-rule:evenodd;clip-rule:evenodd;fill:#183B4D;}
	.st5{clip-path:url(#SVGID_2_);}
	.st6{clip-path:url(#SVGID_4_);fill:#183B4D;}
	.st7{clip-path:url(#SVGID_6_);}
	.st8{clip-path:url(#SVGID_8_);fill:#183B4D;}
	.st9{fill-rule:evenodd;clip-rule:evenodd;fill:#FFFFFF;}
	.st10{clip-path:url(#SVGID_10_);}
	.st11{clip-path:url(#SVGID_12_);fill:#183B4D;}
	.st12{fill:#234B5F;}
	.st13{fill:#2D5E72;}
	.st14{fill:#45778F;}
	.st15{fill:#7B9FB6;}
	.st16{fill:#CBD8E0;}
	.st17{fill:#F0F4F8;}
	.st18{fill:#CECDCA;}
	.st19{fill:#DC462F;}
	.st20{fill:#FFFFFF;stroke:#2D5E72;stroke-miterlimit:10;}
</style>
<g>
	<path id="Square_32_" class="st4" d="M90.7,101.5c-0.4-0.4-1-0.4-1.4,0l-13.2,13.2c-0.4,0.4-0.4,1,0,1.4l13.2,13.2
		c0.4,0.4,1,0.4,1.4,0l13.2-13.2c0.4-0.4,0.4-1,0-1.4L90.7,101.5z"/>
	<g id="Fourth_Row_4_">
		<path id="Square_31_" class="st4" d="M121,97.7l-13.2-13.2c-0.4-0.4-1-0.4-1.4,0L93.1,97.7c-0.4,0.4-0.4,1,0,1.4l13.2,13.2
			c0.4,0.4,1,0.4,1.4,0L121,99C121.4,98.7,121.4,98,121,97.7z"/>
		<path id="Square_30_" class="st4" d="M86.9,97.7L73.6,84.4c-0.4-0.4-1-0.4-1.4,0L59,97.7c-0.4,0.4-0.4,1,0,1.4l13.2,13.2
			c0.4,0.4,1,0.4,1.4,0L86.9,99C87.2,98.7,87.2,98,86.9,97.7z"/>
	</g>
	<g id="Third_Row_4_">
		<path id="Square_29_" class="st4" d="M138.1,82l-13.2,13.2c-0.4,0.4-1,0.4-1.4,0L110.2,82c-0.4-0.4-0.4-1,0-1.4l13.2-13.2
			c0.4-0.4,1-0.4,1.4,0l13.2,13.2C138.4,81,138.4,81.6,138.1,82z"/>
		<path id="Square_28_" class="st4" d="M103.9,82L90.7,95.2c-0.4,0.4-1,0.4-1.4,0L76.1,82c-0.4-0.4-0.4-1,0-1.4l13.2-13.2
			c0.4-0.4,1-0.4,1.4,0l13.2,13.2C104.3,81,104.3,81.6,103.9,82z"/>
		<path id="Square_27_" class="st4" d="M69.8,82L56.6,95.2c-0.4,0.4-1,0.4-1.4,0L41.9,82c-0.4-0.4-0.4-1,0-1.4l13.2-13.2
			c0.4-0.4,1-0.4,1.4,0l13.2,13.2C70.2,81,70.2,81.6,69.8,82z"/>
	</g>
	<g id="Second_Row_4_">
		<path id="Square_26_" class="st4" d="M106.4,76.3c0.4,0.4,1,0.4,1.4,0L121,63.1c0.4-0.4,0.4-1,0-1.4l-13.2-13.2
			c-0.4-0.4-1-0.4-1.4,0L93.1,61.7c-0.4,0.4-0.4,1,0,1.4L106.4,76.3z"/>
		<path id="Square_25_" class="st4" d="M72.3,76.2c0.4,0.4,1,0.4,1.4,0L86.9,63c0.4-0.4,0.4-1,0-1.4L73.6,48.4c-0.4-0.4-1-0.4-1.4,0
			L59,61.6c-0.4,0.4-0.4,1,0,1.4L72.3,76.2z"/>
	</g>
	<path id="Sqaure_4_" class="st4" d="M89.3,56.9c0.4,0.4,1,0.4,1.4,0l13.2-13.2c0.4-0.4,0.4-1,0-1.4L90.7,29c-0.4-0.4-1-0.4-1.4,0
		L76.1,42.3c-0.4,0.4-0.4,1,0,1.4L89.3,56.9z"/>
	<g>
		<defs>
			<path id="SVGID_5_" d="M48.7,93.6l-6.7,6.7c-0.4,0.4-0.4,1,0,1.4L89.3,149c0.4,0.4,1,0.4,1.4,0l47.3-47.3c0.4-0.4,0.4-1,0-1.4
				l-6.7-6.7l-38.6,38.6c-1.5,1.5-4,1.5-5.5,0L48.7,93.6z"/>
		</defs>
		<use xlink:href="#SVGID_5_"  style="overflow:visible;fill-rule:evenodd;clip-rule:evenodd;fill:#183B4D;"/>
		<clipPath id="SVGID_2_">
			<use xlink:href="#SVGID_5_"  style="overflow:visible;"/>
		</clipPath>
		<g class="st5">
			<defs>
				<rect id="SVGID_7_" x="-103.2" y="-31.6" width="386.4" height="289.8"/>
			</defs>
			<use xlink:href="#SVGID_7_"  style="overflow:visible;fill:#183B4D;"/>
			<clipPath id="SVGID_4_">
				<use xlink:href="#SVGID_7_"  style="overflow:visible;"/>
			</clipPath>
			<rect x="39.3" y="91.2" class="st6" width="101.4" height="60.5"/>
		</g>
	</g>
</g>
</svg>
