<?xml version="1.0" encoding="utf-8"?>
<!-- Generator: Adobe Illustrator 19.2.1, SVG Export Plug-In . SVG Version: 6.00 Build 0)  -->
<svg version="1.1" id="Layer_1" xmlns="http://www.w3.org/2000/svg" xmlns:xlink="http://www.w3.org/1999/xlink" x="0px" y="0px"
	 viewBox="0 0 360 180" style="enable-background:new 0 0 360 180;" xml:space="preserve">
<style type="text/css">
	.st0{fill:#183B4D;}
	.st1{display:none;}
	.st2{display:inline;fill:#183B4D;}
	.st3{fill:#FFFFFF;}
	.st4{fill-rule:evenodd;clip-rule:evenodd;fill:#183B4D;}
	.st5{clip-path:url(#SVGID_2_);}
	.st6{clip-path:url(#SVGID_4_);fill:#183B4D;}
	.st7{clip-path:url(#SVGID_6_);}
	.st8{clip-path:url(#SVGID_8_);fill:#183B4D;}
	.st9{fill-rule:evenodd;clip-rule:evenodd;fill:#FFFFFF;}
	.st10{clip-path:url(#SVGID_10_);}
	.st11{clip-path:url(#SVGID_12_);fill:#183B4D;}
	.st12{fill:#234B5F;}
	.st13{fill:#2D5E72;}
	.st14{fill:#45778F;}
	.st15{fill:#7B9FB6;}
	.st16{fill:#CBD8E0;}
	.st17{fill:#F0F4F8;}
	.st18{fill:#CECDCA;}
	.st19{fill:#DC462F;}
	.st20{fill:#FFFFFF;stroke:#2D5E72;stroke-miterlimit:10;}
</style>
<g>
	<path class="st0" d="M117.3,83.2c0.7-5.2-3.2-9.2-5.6-11.1c-2.8,3.2-3.2,11.5,1.1,15c-2.4,2.1-7.5,4.1-12.7,4.1H36.8
		c-0.5,5.4,0.4,10.4,2.6,14.7l0.7,1.3c0.5,0.8,1,1.5,1.5,2.2l0,0c2.6,0.2,5,0.2,7.2,0.2c0,0,0,0,0,0c4.3-0.1,7.8-0.6,10.5-1.5
		c0.4-0.1,0.8,0.1,1,0.5c0.1,0.4-0.1,0.8-0.5,1c-0.4,0.1-0.7,0.2-1.1,0.3h0c-2.1,0.6-4.4,1-7.3,1.2c0.2,0-0.2,0-0.2,0
		c-0.1,0-0.2,0-0.3,0c-1.1,0.1-2.4,0.1-3.6,0.1c-1.4,0-2.7,0-4.3-0.1l0,0c5.3,5.9,13.5,9.5,23.9,9.5c21.9,0,40.5-9.7,48.7-31.5
		c5.8,0.6,11.4-0.9,14-5.9C125.5,80.9,120.3,81.7,117.3,83.2z"/>
	<path class="st4" d="M52.6,81.8h0.7V89h-0.7V81.8z M51.3,81.8H52V89h-0.7V81.8z M50,81.8h0.7V89H50V81.8z M48.7,81.8h0.7V89h-0.7
		V81.8z M47.4,81.8h0.7V89h-0.7V81.8z M46.1,81.8h0.7V89h-0.7V81.8z M45.4,81.1H54v8.6h-8.6V81.1z"/>
	<path class="st4" d="M62.5,71.9h0.7v7.1h-0.7V71.9z M61.2,71.9h0.7v7.1h-0.7V71.9z M59.9,71.9h0.7v7.1h-0.7V71.9z M58.6,71.9h0.7
		v7.1h-0.7V71.9z M57.3,71.9H58v7.1h-0.7V71.9z M56,71.9h0.7v7.1H56V71.9z M55.3,71.2h8.6v8.6h-8.6V71.2z"/>
	<path class="st4" d="M62.5,81.8h0.7V89h-0.7V81.8z M61.2,81.8h0.7V89h-0.7V81.8z M59.9,81.8h0.7V89h-0.7V81.8z M58.6,81.8h0.7V89
		h-0.7V81.8z M57.3,81.8H58V89h-0.7V81.8z M56,81.8h0.7V89H56V81.8z M55.3,81.1h8.6v8.6h-8.6V81.1z"/>
	<path class="st4" d="M72.4,81.8H73V89h-0.7V81.8z M71.1,81.8h0.7V89h-0.7V81.8z M69.8,81.8h0.7V89h-0.7V81.8z M68.5,81.8h0.7V89
		h-0.7V81.8z M67.2,81.8h0.7V89h-0.7V81.8z M65.9,81.8h0.7V89h-0.7V81.8z M65.2,81.1h8.6v8.6h-8.6V81.1z"/>
	<path class="st4" d="M72.4,71.9H73v7.1h-0.7V71.9z M71.1,71.9h0.7v7.1h-0.7V71.9z M69.8,71.9h0.7v7.1h-0.7V71.9z M68.5,71.9h0.7
		v7.1h-0.7V71.9z M67.2,71.9h0.7v7.1h-0.7V71.9z M65.9,71.9h0.7v7.1h-0.7V71.9z M65.2,71.2h8.6v8.6h-8.6V71.2z"/>
	<path class="st4" d="M82.3,81.8h0.7V89h-0.7V81.8z M81,81.8h0.7V89H81V81.8z M79.7,81.8h0.7V89h-0.7V81.8z M78.4,81.8h0.7V89h-0.7
		V81.8z M77.1,81.8h0.7V89h-0.7V81.8z M75.8,81.8h0.7V89h-0.7V81.8z M75.1,81.1h8.6v8.6h-8.6V81.1z"/>
	<path class="st4" d="M82.3,71.9h0.7v7.1h-0.7V71.9z M81,71.9h0.7v7.1H81V71.9z M79.7,71.9h0.7v7.1h-0.7V71.9z M78.4,71.9h0.7v7.1
		h-0.7V71.9z M77.1,71.9h0.7v7.1h-0.7V71.9z M75.8,71.9h0.7v7.1h-0.7V71.9z M75.1,71.2h8.6v8.6h-8.6V71.2z"/>
	<path class="st4" d="M82.3,62.1h0.7v7.1h-0.7V62.1z M81,62.1h0.7v7.1H81V62.1z M79.7,62.1h0.7v7.1h-0.7V62.1z M78.4,62.1h0.7v7.1
		h-0.7V62.1z M77.1,62.1h0.7v7.1h-0.7V62.1z M75.8,62.1h0.7v7.1h-0.7V62.1z M75.1,61.4h8.6v8.6h-8.6V61.4z"/>
	<path class="st4" d="M92.1,81.8h0.7V89h-0.7V81.8z M90.8,81.8h0.7V89h-0.7V81.8z M89.5,81.8h0.7V89h-0.7V81.8z M88.2,81.8h0.7V89
		h-0.7V81.8z M86.9,81.8h0.7V89h-0.7V81.8z M85.7,81.8h0.7V89h-0.7V81.8z M85,81.1h8.6v8.6H85V81.1z"/>
	<path class="st9" d="M63.3,103.6c1.3,0,2.4,1.1,2.4,2.4c0,1.3-1.1,2.4-2.4,2.4c-1.3,0-2.4-1.1-2.4-2.4
		C61,104.6,62,103.6,63.3,103.6"/>
	<path class="st4" d="M63.3,104.2c0.2,0,0.4,0,0.6,0.1c-0.2,0.1-0.3,0.3-0.3,0.6c0,0.4,0.3,0.7,0.7,0.7c0.3,0,0.5-0.1,0.6-0.4
		c0.1,0.2,0.1,0.4,0.1,0.6c0,0.9-0.8,1.7-1.7,1.7c-0.9,0-1.7-0.8-1.7-1.7C61.6,105,62.4,104.2,63.3,104.2"/>
	<path class="st4" d="M21.5,98.7h51.8h6.4h51.8c-2.4-0.6-7.6-1.4-6.7-4.6c-4.4,5-14.8,3.5-17.5,1c-2.9,4.3-20.1,2.7-21.3-0.7
		c-3.7,4.3-15.2,4.3-18.9,0c-1.2,3.3-18.4,5-21.3,0.7c-2.6,2.5-13.1,4-17.5-1C29.1,97.2,23.9,98.1,21.5,98.7"/>
	<path class="st0" d="M69.6,120.6c-5.9-2.8-9.1-6.6-10.9-10.7c-2.2,0.6-4.8,1-7.8,1.2c-1.1,0.1-2.3,0.1-3.6,0.1c-1.5,0-3,0-4.6-0.1
		c5.4,5.4,12,9.5,24.2,9.6C67.8,120.6,68.7,120.6,69.6,120.6z"/>
</g>
<path class="st4" d="M292.8,103.8c4.1-3.5,8.2-7,12.3-10.5c1.4-1.2,2.9-2.4,4.3-3.7c-1.1-1.4-3-2.4-4.5-3c-3.2-1.2-6.3-0.8-9.2,0.9
	c-3.8,2.2-5.4,5.7-5.3,10.1c0.1,1.7,0.5,3.4,1.4,4.8C292,102.8,292.4,103.3,292.8,103.8 M297.5,107.1c2,0.7,4.3,0.6,6.4,0.2
	c1.1-0.4,3.7-1.6,4.7-1.5l0.2,0l0.1,0.1c0.6,0.3,1.2,0.7,1.5,1.3c0.7,1.4,0.4,2.9-1,3.7l-0.5,0.3c-5.2,3-10.8,2.6-16-0.2
	c-2.5-1.3-4.4-3.3-5.8-5.8l-0.3-0.6c-3.4-5.8-2.9-11.9,0.9-17.5c1.3-1.9,3-3.4,5-4.5l0.8-0.4c4.9-2.8,10.2-2.6,15.3-0.2
	c2.7,1.3,4.9,3.3,6.4,6l0.3,0.5c1.1,1.9-0.3,3.6-1.8,4.7c-1.7,1.3-3.4,2.9-5.1,4.3C304.8,100.8,301.2,104,297.5,107.1z M336.7,80.7
	h0.5c1.7,0,2.8,1.1,2.8,2.8c0,2.3-2.2,2.9-4.1,2.9c-2.5,0-4.8,1.5-6.5,3.2c-2.1,2.1-3.1,4.8-3.1,7.7v13.3c0,1.5-1,2.8-2.5,2.8h-0.4
	c-1.6,0-2.5-1.2-2.5-2.8V96.4c0-5.4,2.6-9.8,7-12.9C330.5,81.6,333.5,80.7,336.7,80.7z M268,90.1c2.1-2.1,4.3-4.3,6.5-6.4
	c0.6-0.6,2.9-3.1,3.8-3.1h1l0.1,0c1.3,0.3,2.2,1.1,2.2,2.4v0.5c0,0.9-1.1,2-1.7,2.6c-1.3,1.3-2.6,2.6-3.9,4l-6.7,6.8
	c2.9,2.9,5.7,5.8,8.6,8.6c0.8,0.8,1.6,1.6,2.3,2.4c0.3,0.3,0.7,0.6,0.9,1c0.2,0.4,0.4,0.8,0.4,1.2v0.6l0,0.1
	c-0.3,1.3-1.1,2.3-2.5,2.3h-0.4c-0.9,0-1.9-1-2.6-1.6c-1.3-1.2-2.5-2.5-3.8-3.7l-4.2-4.2v6.6c0,1.5-1,2.8-2.5,2.8H265
	c-1.6,0-2.5-1.2-2.5-2.8V73c0-1.5,1-2.8,2.5-2.8h0.4c1.6,0,2.5,1.2,2.5,2.8V90.1z M250.1,86.4c-0.8-0.4-2.4-0.5-3.3-0.6
	c-4.6-0.2-7.9,2.4-9.9,6.5c-0.7,1.4-1,2.9-1,4.4c0,4.7,2.5,8,6.7,10c1.5,0.7,3.5,0.9,5.2,0.9c1.5,0,3.6-0.9,4.9-1.5l0.2-0.1h1l0.1,0
	c1.3,0.3,2.2,1.1,2.2,2.4v0.5c0,3.4-6.1,4.1-8.5,4.3c-8.3,0.6-14.4-4-16.8-11.8c-0.4-1.4-0.6-2.7-0.6-4.2v-1.1c0-6,3-10.7,8.1-13.8
	c2.4-1.4,5-2.1,7.8-2.1h1.1c2.9,0,5.6,0.8,8.1,2.5l0.2,0.1l0.1,0.2c0.3,0.4,0.5,0.9,0.5,1.5v0.5c0,1.4-1.1,2.2-2.3,2.4l-0.1,0h-0.3
	C252.7,87.6,250.8,86.8,250.1,86.4z M199.8,96.9c0,4.2,2.1,7.3,5.6,9.4c1.7,1,3.5,1.5,5.4,1.5c4.1,0,7.2-2.1,9.3-5.6
	c1-1.7,1.5-3.5,1.5-5.4c0-3.9-1.9-6.9-5.1-9c-1.8-1.2-3.7-1.8-5.8-1.8c-4.6,0-7.9,2.3-9.9,6.5C200.1,93.8,199.8,95.3,199.8,96.9z
	 M210.2,80.4h0.8c6.4,0,11.2,3.1,14.3,8.7c1.2,2.2,1.9,4.7,1.9,7.2v1.1c0,6-2.9,10.7-8.1,13.8c-2.4,1.4-5,2.1-7.8,2.1h-1.1
	c-6,0-10.7-3-13.8-8.1c-1.4-2.4-2.1-5-2.1-7.8v-1.1c0-6,3-10.7,8.1-13.8C204.8,81.2,207.4,80.4,210.2,80.4z M163.7,96.9
	c0,4.3,2.1,7.6,5.9,9.6c1.5,0.8,3.2,1.3,4.9,1.3c4.2,0,7.4-2,9.5-5.6c1-1.7,1.5-3.5,1.5-5.4c0-3.7-1.8-6.7-4.8-8.8
	c-1.8-1.3-3.9-2-6.1-2c-4.6,0-7.9,2.3-9.9,6.5C164,93.8,163.7,95.3,163.7,96.9z M185.6,84.6V72.9c0-1.5,1-2.8,2.5-2.8h0.4
	c1.6,0,2.5,1.2,2.5,2.8v24.5c0,6-3,10.7-8.1,13.8c-2.4,1.4-5,2.1-7.8,2.1h-1.1c-6,0-10.7-3-13.8-8.1c-1.4-2.4-2.1-5-2.1-7.8v-1.1
	c0-6,3-10.7,8.1-13.8c2.4-1.4,5-2.1,7.8-2.1h1.1C179.2,80.4,182.7,82,185.6,84.6z"/>
</svg>
