<?xml version="1.0" encoding="utf-8"?>
<!-- Generator: Adobe Illustrator 19.2.1, SVG Export Plug-In . SVG Version: 6.00 Build 0)  -->
<svg version="1.1" id="Layer_1" xmlns="http://www.w3.org/2000/svg" xmlns:xlink="http://www.w3.org/1999/xlink" x="0px" y="0px"
	 viewBox="0 0 180 180" style="enable-background:new 0 0 180 180;" xml:space="preserve">
<style type="text/css">
	.st0{fill:#183B4D;}
	.st1{display:none;}
	.st2{display:inline;fill:#183B4D;}
	.st3{fill:#FFFFFF;}
	.st4{fill-rule:evenodd;clip-rule:evenodd;fill:#183B4D;}
	.st5{clip-path:url(#SVGID_2_);}
	.st6{clip-path:url(#SVGID_4_);fill:#183B4D;}
	.st7{clip-path:url(#SVGID_6_);}
	.st8{clip-path:url(#SVGID_8_);fill:#183B4D;}
	.st9{fill-rule:evenodd;clip-rule:evenodd;fill:#FFFFFF;}
	.st10{clip-path:url(#SVGID_10_);}
	.st11{clip-path:url(#SVGID_12_);fill:#183B4D;}
	.st12{fill:#234B5F;}
	.st13{fill:#2D5E72;}
	.st14{fill:#45778F;}
	.st15{fill:#7B9FB6;}
	.st16{fill:#CBD8E0;}
	.st17{fill:#F0F4F8;}
	.st18{fill:#CECDCA;}
	.st19{fill:#DC462F;}
	.st20{fill:#FFFFFF;stroke:#2D5E72;stroke-miterlimit:10;}
</style>
<g>
	<g id="body_colors_21_">
		<path class="st0" d="M147.6,49.4c0.9-7.3-4.5-13-7.9-15.7c-3.9,4.5-4.5,16.3,1.6,21.3c-3.4,3-10.6,5.8-18,5.8H33.8
			c-0.7,7.7,0.6,14.8,3.7,20.8l1,1.9c0.6,1.1,1.4,2.2,2.1,3.2l0,0c3.7,0.2,7.1,0.3,10.2,0.2l0,0c6.1-0.1,11.1-0.9,14.9-2.2
			c0.6-0.2,1.2,0.1,1.4,0.7c0.2,0.6-0.1,1.2-0.7,1.4c-0.5,0.2-1,0.3-1.6,0.5l0,0c-3,0.8-6.2,1.4-10.3,1.7c0.2,0-0.3,0-0.3,0
			c-0.1,0-0.3,0-0.5,0c-1.6,0.1-3.4,0.1-5.2,0.1c-2,0-3.9,0-6-0.1h-0.1c7.5,8.4,19.1,13.4,33.8,13.4c31,0,57.2-13.7,68.9-44.5
			c8.3,0.8,16.2-1.3,19.8-8.3C159.2,46.2,151.9,47.3,147.6,49.4z"/>
		<path class="st0" d="M147.6,49.4c0.9-7.3-4.5-13-7.9-15.7c-3.9,4.5-4.5,16.3,1.6,21.3c-3.4,3-10.6,5.8-18,5.8H39.1
			c-0.4,11.8,4,20.7,11.7,26.1l0,0c6.1-0.1,11.1-0.9,14.9-2.2c0.6-0.2,1.2,0.1,1.4,0.7c0.2,0.6-0.1,1.2-0.7,1.4
			c-0.5,0.2-1,0.3-1.6,0.5l0,0c-3,0.8-6.4,1.5-10.5,1.7l-0.1-0.1c10.5,5.4,25.8,5.4,43.3-1.3c19.6-7.5,37.9-21.9,50.7-38.4
			C148,49.2,147.8,49.3,147.6,49.4z"/>
		<path class="st0" d="M33.9,70.1c0.6,4.1,1.8,8,3.5,11.5l1,1.9c0.6,1.1,1.4,2.2,2.1,3.2c3.7,0.2,7.1,0.3,10.2,0.2
			c6.1-0.1,11.1-0.9,14.9-2.2c0.6-0.2,1.2,0.1,1.4,0.7c0.2,0.6-0.1,1.2-0.7,1.4c-0.5,0.2-1,0.3-1.6,0.5l0,0c-3,0.8-6.4,1.5-10.5,1.7
			c-0.1,0-0.4,0-0.5,0c-1.6,0.1-3.3,0.1-5.1,0.1c-2,0-4,0-6.1-0.1c7.5,8.4,19.2,13.4,33.8,13.4c26.5,0,49.6-10.1,63-32.3L33.9,70.1z
			"/>
		<path class="st0" d="M39.9,70.1c1.6,7.2,5.4,12.9,10.9,16.8c6.1-0.1,11.1-0.9,14.9-2.2c0.6-0.2,1.2,0.1,1.4,0.7
			c0.2,0.6-0.1,1.2-0.7,1.4c-0.5,0.2-1,0.3-1.6,0.5l0,0c-3,0.8-6.5,1.5-10.6,1.7c10.5,5.4,25.8,5.3,43.3-1.4
			c10.6-4.1,20.8-10.1,29.9-17.4L39.9,70.1L39.9,70.1z"/>
	</g>
	<g class="st1">
		<path class="st2" d="M48.6,89c1.8,0,3.5,0,5.1-0.1c0.1,0,0.3,0,0.4,0l0,0c4.1-0.3,7.7-0.8,10.6-1.7l0,0c0.5-0.2,1.1-0.3,1.6-0.5
			c0.6-0.2,0.9-0.8,0.7-1.4s-0.8-0.9-1.4-0.7c-3.8,1.3-8.8,2-14.9,2.2l0,0c-3.1,0.1-6.5,0-10.2-0.2l0,0c-0.2,0-0.4,0-0.6,0
			c-0.6,0-1.1,0.4-1.1,1s0.4,1.1,1,1.1c0.8,0.1,1.5,0.1,2.2,0.1c0.1,0,0.2,0,0.3,0l0,0C44.6,89,46.7,89,48.6,89z"/>
	</g>
	<g id="Containers_21_">
		<path class="st0" d="M56.1,47.5h1v10.1h-1V47.5z M54.2,47.5h1v10.1h-1V47.5z M52.4,47.5h1v10.1h-1V47.5z M50.6,47.5h1v10.1h-1
			V47.5z M48.7,47.5h1v10.1h-1V47.5z M46.9,47.5h1v10.1h-1V47.5z M45.9,46.5H58v12.1H45.9V46.5z"/>
		<path class="st0" d="M70.1,33.5h1v10.1h-1V33.5z M68.2,33.5h1v10.1h-1V33.5z M66.4,33.5h1v10.1h-1V33.5z M64.6,33.5h1v10.1h-1
			V33.5z M62.7,33.5h1v10.1h-1V33.5z M60.9,33.5h1v10.1h-1V33.5z M59.9,32.5H72v12.1H59.9V32.5z"/>
		<path class="st0" d="M70.1,47.5h1v10.1h-1V47.5z M68.2,47.5h1v10.1h-1V47.5z M66.4,47.5h1v10.1h-1V47.5z M64.6,47.5h1v10.1h-1
			V47.5z M62.7,47.5h1v10.1h-1V47.5z M60.9,47.5h1v10.1h-1V47.5z M59.9,46.5H72v12.1H59.9V46.5z"/>
		<path class="st0" d="M84,47.5h1v10.1h-1V47.5z M82.2,47.5h1v10.1h-1V47.5z M80.4,47.5h1v10.1h-1V47.5z M78.5,47.5h1v10.1h-1V47.5z
			 M76.7,47.5h1v10.1h-1V47.5z M74.9,47.5h1v10.1h-1V47.5z M73.9,46.5H86v12.1H73.9V46.5z"/>
		<path class="st0" d="M84,33.5h1v10.1h-1V33.5z M82.2,33.5h1v10.1h-1V33.5z M80.4,33.5h1v10.1h-1V33.5z M78.5,33.5h1v10.1h-1V33.5z
			 M76.7,33.5h1v10.1h-1V33.5z M74.9,33.5h1v10.1h-1V33.5z M73.9,32.5H86v12.1H73.9V32.5z"/>
		<path class="st0" d="M98,47.5h1v10.1h-1V47.5z M96.2,47.5h1v10.1h-1V47.5z M94.3,47.5h1v10.1h-1V47.5z M92.5,47.5h1v10.1h-1V47.5z
			 M90.7,47.5h1v10.1h-1V47.5z M88.9,47.5h1v10.1h-1V47.5z M87.9,46.5H100v12.1H87.9V46.5z"/>
		<path class="st0" d="M98,33.5h1v10.1h-1V33.5z M96.2,33.5h1v10.1h-1V33.5z M94.3,33.5h1v10.1h-1V33.5z M92.5,33.5h1v10.1h-1V33.5z
			 M90.7,33.5h1v10.1h-1V33.5z M88.9,33.5h1v10.1h-1V33.5z M87.9,32.5H100v12.1H87.9V32.5z"/>
		<path class="st0" d="M98,19.5h1v10.1h-1V19.5z M96.2,19.5h1v10.1h-1V19.5z M94.3,19.5h1v10.1h-1V19.5z M92.5,19.5h1v10.1h-1V19.5z
			 M90.7,19.5h1v10.1h-1V19.5z M88.9,19.5h1v10.1h-1V19.5z M87.9,18.5H100v12.1H87.9V18.5z"/>
		<path class="st0" d="M112,47.5h1v10.1h-1V47.5z M110.2,47.5h1v10.1h-1V47.5z M108.3,47.5h1v10.1h-1V47.5z M106.5,47.5h1v10.1h-1
			V47.5z M104.7,47.5h1v10.1h-1V47.5z M102.9,47.5h1v10.1h-1V47.5z M101.8,46.5h12.1v12.1h-12.1V46.5z"/>
	</g>
	<path class="st3" d="M71.3,78.2c1.8,0,3.3,1.5,3.3,3.3s-1.5,3.3-3.3,3.3S68,83.3,68,81.5C67.9,79.7,69.4,78.2,71.3,78.2"/>
	<path class="st0" d="M71.3,79.2c0.3,0,0.6,0.1,0.9,0.2c-0.3,0.2-0.5,0.5-0.5,0.8c0,0.5,0.4,1,1,1c0.4,0,0.7-0.2,0.9-0.5
		c0.1,0.3,0.2,0.6,0.2,0.9c0,1.3-1.1,2.4-2.4,2.4S69,82.9,69,81.6C68.9,80.2,69.9,79.2,71.3,79.2"/>
	<path class="st0" d="M12.1,71.3h73.2h9.1h73.2c-3.4-0.9-10.7-2-9.5-6.5c-6.2,7.1-21,5-24.7,1.5c-4.2,6.1-28.5,3.8-30.2-1
		c-5.2,6.1-21.4,6.1-26.7,0c-1.7,4.7-26,7-30.2,1c-3.7,3.5-18.6,5.6-24.7-1.5C22.9,69.3,15.5,70.4,12.1,71.3"/>
	<path class="st0" d="M80.2,102.3c-8.3-3.9-12.8-9.3-15.3-15.1c-3.1,0.9-6.8,1.4-11.1,1.7C52.2,89,50.5,89,48.7,89
		c-2.1,0-4.2-0.1-6.5-0.2c7.6,7.6,16.9,13.4,34.2,13.5C77.6,102.4,78.9,102.3,80.2,102.3z"/>
	<path class="st0" d="M67.9,92.6c-1.1-1.6-2.3-3.5-3.1-5.4c-3.1,0.9-6.8,1.4-11.1,1.7C56.7,90.5,60.9,92,67.9,92.6z"/>
</g>
<path id="docker_16_" class="st0" d="M127.9,153.1c3.5-3,7-6,10.5-9.1c1.2-1,2.5-2.1,3.7-3.2c-1-1.2-2.5-2.1-3.9-2.6
	c-2.7-1-5.4-0.7-7.9,0.8c-3.3,1.9-4.7,4.9-4.6,8.7c0,1.5,0.4,2.9,1.2,4.2C127.2,152.2,127.5,152.8,127.9,153.1 M131.9,155.9
	c1.7,0.6,3.7,0.5,5.5,0.2c0.9-0.4,3.2-1.4,4.1-1.2h0.1l0.1,0.1c0.5,0.3,1,0.6,1.3,1.1c0.6,1.2,0.3,2.5-0.9,3.2l-0.4,0.2
	c-4.5,2.6-9.3,2.2-13.8-0.2c-2.1-1.2-3.8-2.9-5-5l-0.3-0.5c-2.9-5-2.5-10.3,0.8-15c1.1-1.6,2.6-2.9,4.3-3.9l0.6-0.4
	c4.2-2.4,8.8-2.3,13.1-0.1c2.3,1.2,4.2,2.9,5.5,5.1l0.2,0.4c0.9,1.6-0.3,3.1-1.5,4.1c-1.5,1.1-3,2.5-4.4,3.7
	C138.2,150.6,135.1,153.2,131.9,155.9z M165.6,133.2h0.5c1.4,0,2.4,1,2.4,2.4c0,2-1.9,2.5-3.5,2.5c-2.1,0-4.2,1.3-5.6,2.7
	c-1.8,1.8-2.6,4.1-2.6,6.6v11.5c0,1.3-0.8,2.4-2.2,2.4h-0.4c-1.4,0-2.2-1.1-2.2-2.4v-12.1c0-4.7,2.3-8.5,6-11.1
	C160.3,134,162.8,133.2,165.6,133.2z M106.6,141.3c1.8-1.8,3.7-3.7,5.6-5.5c0.5-0.5,2.5-2.6,3.3-2.6h0.8h0.1
	c1.1,0.2,1.9,0.9,1.9,2.1v0.5c0,0.8-0.9,1.7-1.4,2.3c-1.1,1.2-2.2,2.3-3.3,3.4l-5.7,5.8c2.5,2.5,4.9,4.9,7.4,7.4
	c0.7,0.7,1.4,1.4,2,2.1c0.2,0.2,0.6,0.6,0.8,0.9c0.2,0.3,0.3,0.7,0.3,1.1v0.5v0.1c-0.3,1.1-1,2-2.1,2h-0.4c-0.8,0-1.7-0.9-2.2-1.4
	c-1.1-1-2.2-2.1-3.3-3.2l-3.6-3.6v5.7c0,1.3-0.8,2.4-2.2,2.4h-0.4c-1.4,0-2.2-1.1-2.2-2.4v-32.2c0-1.3,0.8-2.4,2.2-2.4h0.4
	c1.4,0,2.2,1.1,2.2,2.4v14.6H106.6z M91.2,138.1c-0.7-0.3-2.1-0.4-2.8-0.5c-4-0.1-6.8,2.1-8.5,5.6c-0.6,1.2-0.8,2.5-0.8,3.8
	c0,4.1,2.1,6.9,5.8,8.6c1.3,0.6,3,0.8,4.5,0.8c1.3,0,3.1-0.8,4.2-1.3l0.2-0.1h0.9h0.1c1.1,0.2,1.9,0.9,1.9,2.1v0.5
	c0,2.9-5.3,3.5-7.3,3.7c-7.1,0.5-12.4-3.4-14.4-10.2c-0.4-1.2-0.5-2.3-0.5-3.6v-0.9c0-5.1,2.5-9.2,7-11.8c2-1.2,4.3-1.8,6.7-1.8h0.9
	c2.5,0,4.9,0.7,6.9,2.1l0.2,0.1l0.1,0.2c0.2,0.4,0.4,0.8,0.4,1.2v0.5c0,1.2-0.9,1.9-2,2.1h-0.1h-0.3
	C93.4,139.1,91.8,138.4,91.2,138.1z M48,147.1c0,3.6,1.8,6.2,4.8,8.1c1.4,0.9,3,1.3,4.7,1.3c3.6,0,6.2-1.8,8-4.8
	c0.9-1.4,1.3-3,1.3-4.7c0-3.3-1.6-5.9-4.4-7.8c-1.5-1-3.2-1.5-5-1.5c-4,0-6.8,2-8.5,5.6C48.3,144.5,48,145.8,48,147.1z M56.9,133
	h0.7c5.5,0,9.7,2.7,12.3,7.5c1.1,1.9,1.6,4,1.6,6.2v0.9c0,5.1-2.5,9.2-7,11.8c-2.1,1.2-4.3,1.8-6.7,1.8h-0.9c-5.1,0-9.2-2.5-11.8-7
	c-1.2-2.1-1.8-4.3-1.8-6.7v-0.9c0-5.1,2.5-9.2,7-11.8C52.3,133.6,54.5,133,56.9,133z M17,147.1c0,3.7,1.8,6.5,5,8.3
	c1.3,0.7,2.7,1.1,4.2,1.1c3.6,0,6.3-1.7,8.2-4.8c0.9-1.4,1.3-3,1.3-4.7c0-3.2-1.5-5.7-4.1-7.6c-1.6-1.1-3.3-1.7-5.3-1.7
	c-4,0-6.8,2-8.5,5.6C17.3,144.5,17,145.8,17,147.1z M35.8,136.5v-10c0-1.3,0.8-2.4,2.2-2.4h0.4c1.4,0,2.2,1.1,2.2,2.4v21.1
	c0,5.1-2.5,9.2-7,11.8c-2.1,1.2-4.3,1.8-6.7,1.8H26c-5.1,0-9.2-2.5-11.8-7c-1.2-2.1-1.8-4.3-1.8-6.7v-0.9c0-5.1,2.5-9.2,7-11.8
	c2.1-1.2,4.3-1.8,6.7-1.8h0.7C30.3,133,33.3,134.3,35.8,136.5z"/>
</svg>
