<?xml version="1.0" encoding="utf-8"?>
<!-- Generator: Adobe Illustrator 19.2.1, SVG Export Plug-In . SVG Version: 6.00 Build 0)  -->
<svg version="1.1" id="Layer_1" xmlns="http://www.w3.org/2000/svg" xmlns:xlink="http://www.w3.org/1999/xlink" x="0px" y="0px"
	 viewBox="0 0 180 180" style="enable-background:new 0 0 180 180;" xml:space="preserve">
<style type="text/css">
	.st0{fill:#183B4D;}
	.st1{display:none;}
	.st2{display:inline;fill:#183B4D;}
	.st3{fill:#FFFFFF;}
	.st4{fill-rule:evenodd;clip-rule:evenodd;fill:#183B4D;}
	.st5{clip-path:url(#SVGID_2_);}
	.st6{clip-path:url(#SVGID_4_);fill:#183B4D;}
	.st7{clip-path:url(#SVGID_6_);}
	.st8{clip-path:url(#SVGID_8_);fill:#183B4D;}
	.st9{fill-rule:evenodd;clip-rule:evenodd;fill:#FFFFFF;}
	.st10{clip-path:url(#SVGID_10_);}
	.st11{clip-path:url(#SVGID_12_);fill:#183B4D;}
	.st12{fill:#234B5F;}
	.st13{fill:#2D5E72;}
	.st14{fill:#45778F;}
	.st15{fill:#7B9FB6;}
	.st16{fill:#CBD8E0;}
	.st17{fill:#F0F4F8;}
	.st18{fill:#CECDCA;}
	.st19{fill:#DC462F;}
	.st20{fill:#FFFFFF;stroke:#2D5E72;stroke-miterlimit:10;}
</style>
<g>
	<g id="body_colors_6_">
		<path class="st0" d="M137.7,85.4c0.8-6.6-4.1-11.7-7.1-14.1c-3.5,4.1-4.1,14.7,1.4,19.2c-3.1,2.7-9.5,5.2-16.2,5.2H35.3
			c-0.6,6.9,0.5,13.3,3.3,18.7l0.9,1.7c0.5,1,1.3,2,1.9,2.9l0,0c3.3,0.2,6.4,0.3,9.2,0.2l0,0c5.5-0.1,10-0.8,13.4-2
			c0.5-0.2,1.1,0.1,1.3,0.6c0.2,0.5-0.1,1.1-0.6,1.3c-0.5,0.2-0.9,0.3-1.4,0.5l0,0c-2.7,0.7-5.6,1.3-9.3,1.5c0.2,0-0.3,0-0.3,0
			c-0.1,0-0.3,0-0.5,0c-1.4,0.1-3.1,0.1-4.7,0.1c-1.8,0-3.5,0-5.4-0.1H43c6.8,7.6,17.2,12.1,30.4,12.1c27.9,0,51.5-12.3,62-40.1
			c7.5,0.7,14.6-1.2,17.8-7.5C148.2,82.6,141.6,83.6,137.7,85.4z"/>
		<path class="st0" d="M137.7,85.4c0.8-6.6-4.1-11.7-7.1-14.1c-3.5,4.1-4.1,14.7,1.4,19.2c-3.1,2.7-9.5,5.2-16.2,5.2H40.1
			c-0.4,10.6,3.6,18.6,10.5,23.5l0,0c5.5-0.1,10-0.8,13.4-2c0.5-0.2,1.1,0.1,1.3,0.6c0.2,0.5-0.1,1.1-0.6,1.3
			c-0.5,0.2-0.9,0.3-1.4,0.5l0,0c-2.7,0.7-5.8,1.4-9.5,1.5l-0.1-0.1c9.5,4.9,23.2,4.9,39-1.2c17.6-6.8,34.1-19.7,45.6-34.6
			C138.1,85.3,137.9,85.4,137.7,85.4z"/>
		<path class="st0" d="M35.4,104.1c0.5,3.7,1.6,7.2,3.2,10.4l0.9,1.7c0.5,1,1.3,2,1.9,2.9c3.3,0.2,6.4,0.3,9.2,0.2
			c5.5-0.1,10-0.8,13.4-2c0.5-0.2,1.1,0.1,1.3,0.6s-0.1,1.1-0.6,1.3c-0.5,0.2-0.9,0.3-1.4,0.5l0,0c-2.7,0.7-5.8,1.4-9.5,1.5
			c-0.1,0-0.4,0-0.5,0c-1.4,0.1-3,0.1-4.6,0.1c-1.8,0-3.6,0-5.5-0.1c6.8,7.6,17.3,12.1,30.4,12.1c23.9,0,44.7-9.1,56.7-29.1
			L35.4,104.1z"/>
		<path class="st0" d="M40.8,104.1c1.4,6.5,4.9,11.6,9.8,15.1c5.5-0.1,10-0.8,13.4-2c0.5-0.2,1.1,0.1,1.3,0.6
			c0.2,0.5-0.1,1.1-0.6,1.3c-0.5,0.2-0.9,0.3-1.4,0.5l0,0c-2.7,0.7-5.9,1.4-9.5,1.5c9.5,4.9,23.2,4.8,39-1.3
			c9.5-3.7,18.7-9.1,26.9-15.7L40.8,104.1L40.8,104.1z"/>
	</g>
	<g id="Containers_6_">
		<path class="st0" d="M55.4,83.7h0.9v9.1h-0.9V83.7z M53.6,83.7h0.9v9.1h-0.9V83.7z M52,83.7h0.9v9.1H52V83.7z M50.4,83.7h0.9v9.1
			h-0.9V83.7z M48.7,83.7h0.9v9.1h-0.9V83.7z M47.1,83.7H48v9.1h-0.9V83.7z M46.2,82.8h10.9v10.9H46.2V82.8z"/>
		<path class="st0" d="M68,71.1h0.9v9.1H68V71.1z M66.3,71.1h0.9v9.1h-0.9V71.1z M64.6,71.1h0.9v9.1h-0.9V71.1z M63,71.1h0.9v9.1H63
			V71.1z M61.3,71.1h0.9v9.1h-0.9V71.1z M59.7,71.1h0.9v9.1h-0.9V71.1z M58.8,70.2h10.9v10.9H58.8V70.2z"/>
		<path class="st0" d="M68,83.7h0.9v9.1H68V83.7z M66.3,83.7h0.9v9.1h-0.9V83.7z M64.6,83.7h0.9v9.1h-0.9V83.7z M63,83.7h0.9v9.1H63
			V83.7z M61.3,83.7h0.9v9.1h-0.9V83.7z M59.7,83.7h0.9v9.1h-0.9V83.7z M58.8,82.8h10.9v10.9H58.8V82.8z"/>
		<path class="st0" d="M80.5,83.7h0.9v9.1h-0.9V83.7z M78.9,83.7h0.9v9.1h-0.9V83.7z M77.2,83.7h0.9v9.1h-0.9V83.7z M75.5,83.7h0.9
			v9.1h-0.9V83.7z M73.9,83.7h0.9v9.1h-0.9V83.7z M72.3,83.7h0.9v9.1h-0.9V83.7z M71.4,82.8h10.9v10.9H71.4V82.8z"/>
		<path class="st0" d="M80.5,71.1h0.9v9.1h-0.9V71.1z M78.9,71.1h0.9v9.1h-0.9V71.1z M77.2,71.1h0.9v9.1h-0.9V71.1z M75.5,71.1h0.9
			v9.1h-0.9V71.1z M73.9,71.1h0.9v9.1h-0.9V71.1z M72.3,71.1h0.9v9.1h-0.9V71.1z M71.4,70.2h10.9v10.9H71.4V70.2z"/>
		<path class="st0" d="M93.1,83.7H94v9.1h-0.9V83.7z M91.5,83.7h0.9v9.1h-0.9V83.7z M89.8,83.7h0.9v9.1h-0.9V83.7z M88.1,83.7H89
			v9.1h-0.9V83.7z M86.5,83.7h0.9v9.1h-0.9V83.7z M84.9,83.7h0.9v9.1h-0.9V83.7z M84,82.8h10.9v10.9H84V82.8z"/>
		<path class="st0" d="M93.1,71.1H94v9.1h-0.9V71.1z M91.5,71.1h0.9v9.1h-0.9V71.1z M89.8,71.1h0.9v9.1h-0.9V71.1z M88.1,71.1H89
			v9.1h-0.9V71.1z M86.5,71.1h0.9v9.1h-0.9V71.1z M84.9,71.1h0.9v9.1h-0.9V71.1z M84,70.2h10.9v10.9H84V70.2z"/>
		<path class="st0" d="M93.1,58.5H94v9.1h-0.9V58.5z M91.5,58.5h0.9v9.1h-0.9V58.5z M89.8,58.5h0.9v9.1h-0.9V58.5z M88.1,58.5H89
			v9.1h-0.9V58.5z M86.5,58.5h0.9v9.1h-0.9V58.5z M84.9,58.5h0.9v9.1h-0.9V58.5z M84,57.6h10.9v10.9H84V57.6z"/>
		<path class="st0" d="M105.7,83.7h0.9v9.1h-0.9V83.7z M104.1,83.7h0.9v9.1h-0.9V83.7z M102.4,83.7h0.9v9.1h-0.9V83.7z M100.7,83.7
			h0.9v9.1h-0.9V83.7z M99.1,83.7h0.9v9.1h-0.9V83.7z M97.5,83.7h0.9v9.1h-0.9V83.7z M96.5,82.8h10.9v10.9H96.5V82.8z"/>
	</g>
	<path class="st3" d="M69,111.4c1.6,0,3,1.4,3,3c0,1.6-1.4,3-3,3c-1.6,0-3-1.4-3-3C66,112.7,67.3,111.4,69,111.4"/>
	<path class="st0" d="M69,112.3c0.3,0,0.5,0.1,0.8,0.2c-0.3,0.2-0.5,0.5-0.5,0.7c0,0.5,0.4,0.9,0.9,0.9c0.4,0,0.6-0.2,0.8-0.5
		c0.1,0.3,0.2,0.5,0.2,0.8c0,1.2-1,2.2-2.2,2.2s-2.2-1-2.2-2.2C66.9,113.2,67.8,112.3,69,112.3"/>
	<path class="st0" d="M15.7,105.2h65.9h8.2h65.9c-3.1-0.8-9.6-1.8-8.6-5.9c-5.6,6.4-18.9,4.5-22.2,1.4c-3.8,5.5-25.7,3.4-27.2-0.9
		c-4.7,5.5-19.3,5.5-24,0c-1.5,4.2-23.4,6.3-27.2,0.9c-3.3,3.2-16.7,5-22.2-1.4C25.5,103.4,18.8,104.4,15.7,105.2"/>
	<path class="st0" d="M77.1,133.1c-7.5-3.5-11.5-8.4-13.8-13.6c-2.8,0.8-6.1,1.3-10,1.5c-1.4,0.1-3,0.1-4.6,0.1
		c-1.9,0-3.8-0.1-5.9-0.2c6.8,6.8,15.2,12.1,30.8,12.2C74.7,133.2,75.9,133.1,77.1,133.1z"/>
	<path class="st0" d="M66,124.3c-1-1.4-2.1-3.2-2.8-4.9c-2.8,0.8-6.1,1.3-10,1.5C55.9,122.4,59.7,123.8,66,124.3z"/>
</g>
</svg>
