<?xml version="1.0" encoding="utf-8"?>
<!-- Generator: Adobe Illustrator 19.2.1, SVG Export Plug-In . SVG Version: 6.00 Build 0)  -->
<svg version="1.1" id="Layer_1" xmlns="http://www.w3.org/2000/svg" xmlns:xlink="http://www.w3.org/1999/xlink" x="0px" y="0px"
	 viewBox="0 0 360 180" style="enable-background:new 0 0 360 180;" xml:space="preserve">
<style type="text/css">
	.st0{fill:#183B4D;}
	.st1{display:none;}
	.st2{display:inline;fill:#183B4D;}
	.st3{fill:#FFFFFF;}
	.st4{fill-rule:evenodd;clip-rule:evenodd;fill:#183B4D;}
	.st5{clip-path:url(#SVGID_2_);}
	.st6{clip-path:url(#SVGID_4_);fill:#183B4D;}
	.st7{clip-path:url(#SVGID_6_);}
	.st8{clip-path:url(#SVGID_8_);fill:#183B4D;}
	.st9{fill-rule:evenodd;clip-rule:evenodd;fill:#FFFFFF;}
	.st10{clip-path:url(#SVGID_10_);}
	.st11{clip-path:url(#SVGID_12_);fill:#183B4D;}
	.st12{fill:#234B5F;}
	.st13{fill:#2D5E72;}
	.st14{fill:#45778F;}
	.st15{fill:#7B9FB6;}
	.st16{fill:#CBD8E0;}
	.st17{fill:#F0F4F8;}
	.st18{fill:#CECDCA;}
	.st19{fill:#DC462F;}
	.st20{fill:#FFFFFF;stroke:#2D5E72;stroke-miterlimit:10;}
</style>
<g>
	<path class="st4" d="M318.6,70.3c1-0.4,1.1-0.5,0.7-1.6c-2.1-6.1-10.2-9.4-17-6.5c-5.4,2.3-9.3,8-9.3,14.4
		c0,8.6,6.2,16.3,14.7,16.3c3.9,0,6.6-0.5,9.1-2.1c0.5-0.5,3.5-2.9,3.5-3.4c0-0.1-0.4,0.3-1.1,0.6c-1.9,1-4.8,1.4-7,1.4
		c-4.5,0.1-8.2-3-10.5-6.7c-1.5-2.4-2.5-5.1-2.7-8c-0.4-4.5,0.7-9.6,5.7-10.8c3.3-0.8,6.5,1,7.8,4.3c0.6,1.5,0.2,2.2-1.1,2.8
		L299.1,76l4.1,0.3C308.2,74.2,313.7,72.3,318.6,70.3L318.6,70.3z"/>
	<path class="st4" d="M281.3,45.5c3.1,0,6,0,9,0c-1.3,0.8-1.7,1.2-2.2,2c-0.4,0.6-0.5,1.8-0.6,2.8c-0.5,12.1-0.2,24.2-0.3,36.3
		c0.1,3.3,1.3,2.9,5.6,2.8c-0.6,0.5-1.7,1.6-2.5,2.1c-3.9,0-7.5-0.1-11.4-0.1c1.5-1.5,2.2-2.5,2.1-6.2c0.1-12.6-0.4-24.7,0.3-36.9
		c-1.8,0.1-3.5,0-5.3,0.1C277.9,47.5,279.5,46.3,281.3,45.5L281.3,45.5z"/>
	<path class="st4" d="M265,93.5c0.6,0.5,1.3,0.9,2,1.4c3.8,2.4,5,5.3,4.7,8.1c-0.4,3.3-3.5,5.8-8.9,6.2c-5.7,0.3-13.5-1.9-12-9.5
		c0.8-4,6.1-6.1,10.5-6.2C262.5,93.4,263.7,93.5,265,93.5L265,93.5z M277.9,62.1l-3.9,2.5h-4.4c1.9,1.3,3.3,3.2,4.1,5.3
		c0.8,2.2,1,4.7,0.1,6.9c-0.8,2.1-2.4,4-4.8,5.4c-1.4,0.8-2,1.8-2.1,2.8c-0.2,2.8,3.2,4.9,5.2,6.4c4.4,3.3,6.1,8.6,3.2,13.8
		c-2.8,4.9-9.3,7.1-16.3,7.2c-8.7,0-14.1-4-14.4-9.4c-0.4-7,6.8-10.3,13.3-11.1c1.8-0.2,3.4-0.2,5-0.1c-2.3-1.5-3.1-4.6-2-6.6
		c0.3-0.5,0.1-0.4-0.5-0.3c-5.3,0.8-10.7-2.7-12-7.9c-0.6-2.7-0.2-5.4,0.8-7.6c2.2-4.7,7.1-7.3,12.5-7.3
		C267.2,62.1,272.4,62.1,277.9,62.1L277.9,62.1z M268.2,73.6c0.7,4.2-0.4,8.1-4.1,9.2c-3.9,1.1-8.1-1.9-9.5-7.3
		c-1.5-5.9,0.1-9.7,3.7-10.8C262.6,63.3,267.2,67.2,268.2,73.6L268.2,73.6z"/>
	<path class="st4" d="M228.8,61.3c10.4,0,15.8,6.9,16.3,15c0.5,8-6.2,15.2-14.3,16.1c-9.8,1-18.3-5.7-18.3-15.5
		C212.5,68.3,219.8,61.3,228.8,61.3L228.8,61.3z M238.6,77.3c0.6,5.9-1.4,11.4-6.7,12.6c-5.4,1.3-11.2-3.3-12.6-10.9
		c-1.6-8.4,1-13.9,6.2-15.3C231.5,62.1,237.7,68.2,238.6,77.3L238.6,77.3z"/>
	<path class="st4" d="M193.2,61.3c10.5,0,16,6.9,16.5,15c0.5,8-6.2,15.2-14.4,16.1c-9.9,1-18.5-5.7-18.5-15.5
		C176.7,68.3,184.1,61.3,193.2,61.3L193.2,61.3z M203.1,77.3c0.6,5.9-1.4,11.4-6.8,12.6c-5.5,1.3-11.3-3.3-12.8-10.9
		c-1.6-8.4,1-13.9,6.2-15.3C196,62.1,202.2,68.2,203.1,77.3L203.1,77.3z"/>
	<path class="st4" d="M167.1,56.9l4.7-4.8c-8-6.6-21.7-7.5-30.8-2.9c-7.9,4-13.7,12-14,20.8c-0.3,9.3,5.1,16.7,10.6,20.5
		c9.1,6.1,24.9,4.8,34.4,0l0-0.9h0v-9.8l2.2-2.6h-13.8l-5.1,2.9l10-0.3c0,2.8,0,5.8,0,8.6c0,1.2,0,1.4-2,2.1c-2.8,0.7-6,0.9-9,0.6
		c-9.9-0.8-17.5-8.7-19.3-18.5c-1.7-9.3,2.7-18.1,10.1-21.7c3.6-1.8,8-2.6,12.7-1.1c3,0.9,5.6,2.6,8,5l-1.6,3L167.1,56.9L167.1,56.9
		z"/>
</g>
<g>
	<path class="st0" d="M135,118.4c-2.1,0-3.7,0.7-4.9,2c-1.2,1.3-1.8,3.1-1.8,5.4c0,2.4,0.6,4.2,1.7,5.5c1.1,1.3,2.7,2,4.8,2
		c1.4,0,2.7-0.2,3.8-0.5v1c-1.1,0.4-2.5,0.6-4.1,0.6c-2.3,0-4.1-0.7-5.5-2.2c-1.3-1.5-2-3.6-2-6.3c0-1.7,0.3-3.2,1-4.4
		c0.6-1.3,1.5-2.3,2.7-3c1.2-0.7,2.6-1,4.2-1c1.6,0,3,0.3,4.3,0.9l-0.5,1C137.6,118.7,136.3,118.4,135,118.4z"/>
	<path class="st0" d="M143,134.1h-1.1v-17.6h1.1V134.1z"/>
	<path class="st0" d="M157.1,128c0,2-0.5,3.6-1.5,4.7c-1,1.1-2.3,1.7-4,1.7c-1.1,0-2-0.3-2.8-0.8c-0.8-0.5-1.4-1.3-1.9-2.2
		c-0.4-1-0.7-2.1-0.7-3.4c0-2,0.5-3.6,1.5-4.7c1-1.1,2.3-1.7,4-1.7c1.7,0,3,0.6,4,1.7C156.7,124.4,157.1,126,157.1,128z M147.5,128
		c0,1.7,0.4,3,1.1,3.9c0.7,0.9,1.8,1.4,3.1,1.4c1.4,0,2.4-0.5,3.1-1.4c0.7-0.9,1.1-2.3,1.1-3.9c0-1.7-0.4-3-1.1-3.9
		c-0.7-0.9-1.8-1.4-3.2-1.4c-1.4,0-2.4,0.5-3.1,1.4C147.8,125,147.5,126.3,147.5,128z"/>
	<path class="st0" d="M161.1,121.9v7.9c0,1.2,0.3,2.1,0.8,2.7c0.5,0.6,1.3,0.8,2.4,0.8c1.5,0,2.5-0.4,3.2-1.1c0.7-0.7,1-1.9,1-3.6
		v-6.8h1.1v12.3h-0.9l-0.2-1.7h-0.1c-0.8,1.3-2.2,1.9-4.3,1.9c-2.8,0-4.2-1.5-4.2-4.5v-8H161.1z"/>
	<path class="st0" d="M177.9,121.6c0.9,0,1.7,0.2,2.3,0.5c0.6,0.3,1.2,0.9,1.7,1.7h0.1c0-0.9-0.1-1.9-0.1-2.8v-4.4h1.1v17.6h-0.7
		l-0.3-1.9h-0.1c-0.9,1.4-2.3,2.1-4,2.1c-1.7,0-3-0.5-3.9-1.6c-0.9-1.1-1.3-2.6-1.3-4.6c0-2.1,0.4-3.7,1.3-4.9
		C174.9,122.2,176.2,121.6,177.9,121.6z M177.9,122.6c-1.3,0-2.3,0.5-3,1.4c-0.7,0.9-1,2.3-1,4.1c0,3.5,1.4,5.2,4.1,5.2
		c1.4,0,2.4-0.4,3-1.2c0.6-0.8,1-2.1,1-4V128c0-1.9-0.3-3.3-1-4.1C180.3,123,179.3,122.6,177.9,122.6z"/>
	<path class="st0" d="M203.1,122.4c0,1.6-0.5,2.8-1.6,3.7c-1.1,0.8-2.6,1.3-4.6,1.3h-2.5v6.8h-1.2v-16.5h4
		C201.2,117.6,203.1,119.2,203.1,122.4z M194.3,126.3h2.3c1.9,0,3.2-0.3,4-0.9c0.8-0.6,1.2-1.6,1.2-3c0-1.3-0.4-2.2-1.2-2.8
		c-0.8-0.6-2-0.9-3.6-0.9h-2.7V126.3z"/>
	<path class="st0" d="M206.9,134.1h-1.1v-17.6h1.1V134.1z"/>
	<path class="st0" d="M218.7,134.1l-0.3-1.9h-0.1c-0.6,0.8-1.3,1.3-1.9,1.7c-0.7,0.3-1.4,0.5-2.3,0.5c-1.2,0-2.1-0.3-2.8-0.9
		c-0.7-0.6-1-1.5-1-2.6c0-1.2,0.5-2.1,1.5-2.8c1-0.7,2.4-1,4.3-1l2.3-0.1v-0.8c0-1.2-0.2-2-0.7-2.6c-0.5-0.6-1.2-0.9-2.3-0.9
		c-1.1,0-2.3,0.3-3.5,0.9l-0.4-1c1.3-0.6,2.7-0.9,4-0.9c1.3,0,2.4,0.3,3,1c0.7,0.7,1,1.8,1,3.3v8.2H218.7z M214.1,133.3
		c1.3,0,2.3-0.4,3.1-1.1c0.8-0.7,1.1-1.8,1.1-3.1v-1.2l-2.1,0.1c-1.7,0.1-3,0.4-3.7,0.8c-0.7,0.5-1.1,1.2-1.1,2.1
		c0,0.8,0.2,1.4,0.7,1.8C212.6,133.1,213.3,133.3,214.1,133.3z"/>
	<path class="st0" d="M226.5,133.3c0.7,0,1.3-0.1,1.9-0.2v0.9c-0.5,0.2-1.2,0.3-1.9,0.3c-1.1,0-1.9-0.3-2.4-0.9
		c-0.5-0.6-0.8-1.5-0.8-2.7v-7.9h-1.8v-0.7l1.8-0.5l0.6-2.8h0.6v3h3.6v1h-3.6v7.8c0,0.9,0.2,1.6,0.5,2.1
		C225.3,133.1,225.8,133.3,226.5,133.3z"/>
	<path class="st0" d="M235.4,122.8h-2.9v11.3h-1.1v-11.3h-2.3v-0.7l2.3-0.4v-0.9c0-1.5,0.3-2.6,0.8-3.3c0.6-0.7,1.5-1.1,2.7-1.1
		c0.7,0,1.4,0.1,2,0.3l-0.3,1c-0.6-0.2-1.2-0.3-1.8-0.3c-0.9,0-1.5,0.3-1.9,0.8c-0.4,0.5-0.5,1.4-0.5,2.5v1.1h2.9V122.8z"/>
	<path class="st0" d="M247.8,128c0,2-0.5,3.6-1.5,4.7c-1,1.1-2.3,1.7-4,1.7c-1.1,0-2-0.3-2.8-0.8c-0.8-0.5-1.4-1.3-1.9-2.2
		c-0.4-1-0.7-2.1-0.7-3.4c0-2,0.5-3.6,1.5-4.7c1-1.1,2.3-1.7,4-1.7c1.7,0,3,0.6,4,1.7C247.4,124.4,247.8,126,247.8,128z M238.2,128
		c0,1.7,0.4,3,1.1,3.9c0.7,0.9,1.8,1.4,3.1,1.4c1.4,0,2.4-0.5,3.1-1.4c0.7-0.9,1.1-2.3,1.1-3.9c0-1.7-0.4-3-1.1-3.9
		c-0.7-0.9-1.8-1.4-3.2-1.4c-1.4,0-2.4,0.5-3.1,1.4C238.5,125,238.2,126.3,238.2,128z"/>
	<path class="st0" d="M255.8,121.6c0.5,0,1.1,0.1,1.7,0.2l-0.2,1.1c-0.5-0.1-1-0.2-1.6-0.2c-1,0-1.9,0.4-2.6,1.3c-0.7,0.9-1,2-1,3.4
		v6.8H251v-12.3h0.9l0.1,2.2h0.1c0.5-0.9,1-1.5,1.6-1.9C254.3,121.8,255,121.6,255.8,121.6z"/>
	<path class="st0" d="M275.3,134.1v-8c0-1.2-0.2-2.1-0.7-2.6c-0.5-0.5-1.2-0.8-2.1-0.8c-1.3,0-2.2,0.3-2.8,1
		c-0.6,0.7-0.9,1.8-0.9,3.3v7.2h-1.1v-8.4c0-2.1-0.9-3.1-2.8-3.1c-1.3,0-2.2,0.4-2.8,1.1c-0.6,0.7-0.9,1.9-0.9,3.6v6.8H260v-12.3
		h0.9l0.2,1.7h0.1c0.3-0.6,0.8-1.1,1.4-1.4c0.6-0.3,1.3-0.5,2.1-0.5c1.9,0,3.2,0.7,3.7,2.2h0c0.4-0.7,0.9-1.2,1.6-1.6
		c0.7-0.4,1.4-0.6,2.3-0.6c1.3,0,2.3,0.4,3,1.1c0.7,0.7,1,1.9,1,3.4v8H275.3z"/>
	<path class="st0" d="M284.1,134.1v-16.5h1.2V133h7.9v1.1H284.1z"/>
	<path class="st0" d="M295.6,118.4c0-0.7,0.2-1.1,0.7-1.1c0.2,0,0.4,0.1,0.5,0.3c0.1,0.2,0.2,0.5,0.2,0.8c0,0.3-0.1,0.6-0.2,0.8
		c-0.1,0.2-0.3,0.3-0.5,0.3C295.8,119.5,295.6,119.2,295.6,118.4z M296.8,134.1h-1.1v-12.3h1.1V134.1z"/>
	<path class="st0" d="M303.6,134.1l-4.7-12.3h1.2l3.2,8.3c0.4,1.1,0.7,2,0.9,2.8h0.1c0.3-1,0.6-2,0.9-2.8l3.2-8.3h1.2l-4.7,12.3
		H303.6z"/>
	<path class="st0" d="M316.5,134.3c-1.8,0-3.2-0.5-4.2-1.6c-1-1.1-1.5-2.6-1.5-4.6c0-2,0.5-3.5,1.4-4.7c1-1.2,2.3-1.8,3.9-1.8
		c1.4,0,2.6,0.5,3.4,1.5c0.8,1,1.3,2.4,1.3,4.1v0.9H312c0,1.7,0.4,3,1.2,3.9c0.8,0.9,1.9,1.3,3.3,1.3c0.7,0,1.3,0,1.8-0.1
		c0.5-0.1,1.2-0.3,2-0.6v1c-0.7,0.3-1.3,0.5-1.9,0.6C317.8,134.3,317.2,134.3,316.5,134.3z M316.2,122.6c-1.2,0-2.1,0.4-2.8,1.2
		c-0.7,0.8-1.1,1.9-1.3,3.4h7.6c0-1.4-0.3-2.5-0.9-3.3C318.1,123,317.3,122.6,316.2,122.6z"/>
</g>
<g>
	<polygon class="st18" points="43,115.9 28.3,90.5 43,65 72.4,65 87.1,90.5 72.4,115.9 	"/>
	<path class="st14" d="M45.5,112.7L32.4,90.4l-7.2-12.2c-0.5-0.9-0.7-2.1-0.7-3.3l-7.5,13c-0.9,1.6-0.9,4.1,0,5.7l18.1,31.4
		c0.9,1.6,3.1,2.8,4.9,2.8h21.6c0.9-0.5,1.6-1.2,2.1-2l7.4-13H45.5z"/>
	<polygon class="st19" points="99.3,87.9 81.2,56.5 88.6,69.2 	"/>
	<path class="st0" d="M99.3,87.9L88.6,69.2c-0.9-0.6-2-0.9-3-0.9H71.1l12.6,22.2l-12.6,22.2l-7.4,13c-0.4,0.8-1.2,1.5-2.1,2h14.7
		c1.8,0,4-1.3,4.9-2.8l7.2-12.5l10.9-18.9C100.3,92,100.3,89.4,99.3,87.9z"/>
	<path class="st13" d="M81.2,56.5c-0.9-1.6-3.1-2.8-4.9-2.8H62.1h-22c-1.8,0-4,1.3-4.9,2.8L24.6,74.8c-0.1,1.2,0.1,2.4,0.7,3.3
		l7.2,12.2l12.8-22.1h25.8h14.6c1,0,2,0.4,3,0.9L81.2,56.5z"/>
	<polygon class="st16" points="32.4,90.4 45.5,112.7 71.1,112.7 83.7,90.5 71.1,68.3 45.2,68.3 	"/>
	<circle class="st3" cx="41" cy="60.9" r="2.2"/>
	<path class="st13" d="M41,58.8c1.1,0,2,0.9,2,2c0,1.1-0.9,2-2,2c-1.1,0-2-0.9-2-2C39,59.7,39.9,58.8,41,58.8 M41,58.5
		c-1.3,0-2.4,1.1-2.4,2.4c0,1.3,1.1,2.4,2.4,2.4c1.3,0,2.4-1.1,2.4-2.4C43.4,59.6,42.3,58.5,41,58.5L41,58.5z"/>
	<circle class="st20" cx="75.2" cy="60.9" r="2"/>
	<circle class="st3" cx="41" cy="120.1" r="2.2"/>
	<path class="st14" d="M41,118.1c1.1,0,2,0.9,2,2c0,1.1-0.9,2-2,2c-1.1,0-2-0.9-2-2C39,119,39.9,118.1,41,118.1 M41,117.7
		c-1.3,0-2.4,1.1-2.4,2.4c0,1.3,1.1,2.4,2.4,2.4c1.3,0,2.4-1.1,2.4-2.4C43.4,118.8,42.3,117.7,41,117.7L41,117.7z"/>
	<circle class="st3" cx="75.2" cy="120.1" r="2.2"/>
	<path class="st0" d="M75.2,118.1c1.1,0,2,0.9,2,2c0,1.1-0.9,2-2,2c-1.1,0-2-0.9-2-2C73.2,119,74.1,118.1,75.2,118.1 M75.2,117.7
		c-1.3,0-2.4,1.1-2.4,2.4c0,1.3,1.1,2.4,2.4,2.4c1.3,0,2.4-1.1,2.4-2.4C77.6,118.8,76.5,117.7,75.2,117.7L75.2,117.7z"/>
	<path class="st3" d="M92.4,88.6c1.1,0,2,0.9,2,2c0,1.1-0.9,2-2,2c-1.1,0-2-0.9-2-2C90.4,89.5,91.3,88.6,92.4,88.6"/>
	<circle class="st3" cx="23.8" cy="90.7" r="2.2"/>
	<path class="st14" d="M23.8,88.6c1.1,0,2,0.9,2,2c0,1.1-0.9,2-2,2c-1.1,0-2-0.9-2-2C21.8,89.5,22.7,88.6,23.8,88.6 M23.8,88.3
		c-1.3,0-2.4,1.1-2.4,2.4c0,1.3,1.1,2.4,2.4,2.4c1.3,0,2.4-1.1,2.4-2.4C26.2,89.3,25.1,88.3,23.8,88.3L23.8,88.3z"/>
	<path class="st3" d="M58.2,102.1c-6.3,0-11.5-5.1-11.5-11.5c0-6.3,5.1-11.5,11.5-11.5c6.3,0,11.5,5.1,11.5,11.5
		C69.6,97,64.5,102.1,58.2,102.1z"/>
</g>
</svg>
