<?xml version="1.0" encoding="utf-8"?>
<!-- Generator: Adobe Illustrator 19.2.1, SVG Export Plug-In . SVG Version: 6.00 Build 0)  -->
<svg version="1.1" id="Layer_1" xmlns="http://www.w3.org/2000/svg" xmlns:xlink="http://www.w3.org/1999/xlink" x="0px" y="0px"
	 viewBox="0 0 180 180" style="enable-background:new 0 0 180 180;" xml:space="preserve">
<style type="text/css">
	.st0{fill:#183B4D;}
	.st1{display:none;}
	.st2{display:inline;fill:#183B4D;}
	.st3{fill:#FFFFFF;}
	.st4{fill-rule:evenodd;clip-rule:evenodd;fill:#183B4D;}
	.st5{clip-path:url(#SVGID_2_);}
	.st6{clip-path:url(#SVGID_4_);fill:#183B4D;}
	.st7{clip-path:url(#SVGID_6_);}
	.st8{clip-path:url(#SVGID_8_);fill:#183B4D;}
	.st9{fill-rule:evenodd;clip-rule:evenodd;fill:#FFFFFF;}
	.st10{clip-path:url(#SVGID_10_);}
	.st11{clip-path:url(#SVGID_12_);fill:#183B4D;}
	.st12{fill:#234B5F;}
	.st13{fill:#2D5E72;}
	.st14{fill:#45778F;}
	.st15{fill:#7B9FB6;}
	.st16{fill:#CBD8E0;}
	.st17{fill:#F0F4F8;}
	.st18{fill:#CECDCA;}
	.st19{fill:#DC462F;}
	.st20{fill:#FFFFFF;stroke:#2D5E72;stroke-miterlimit:10;}
</style>
<g>
	<polygon class="st18" points="70,122.2 50.7,88.7 70,55.2 108.7,55.2 128,88.7 108.7,122.2 	"/>
	<path class="st14" d="M73.3,118L56.1,88.6l-9.4-16.1c-0.7-1.2-1-2.8-0.9-4.4l-9.9,17.2c-1.2,2.1-1.2,5.4,0,7.5L59.7,134
		c1.2,2.1,4.1,3.7,6.5,3.7h28.4c1.1-0.7,2.1-1.6,2.7-2.6l9.7-17.1H73.3z"/>
	<polygon class="st19" points="144.1,85.3 120.3,44 130,60.8 	"/>
	<path class="st0" d="M144.1,85.3L130,60.8c-1.2-0.8-2.6-1.2-3.9-1.2h-19.2l16.6,29.2L106.9,118l-9.7,17.1c-0.6,1-1.6,1.9-2.7,2.6
		h19.3c2.4,0,5.3-1.7,6.5-3.7l9.5-16.4l14.3-24.9C145.3,90.7,145.3,87.3,144.1,85.3z"/>
	<path class="st13" d="M120.3,44c-1.2-2.1-4.1-3.7-6.5-3.7H95.1H66.2c-2.4,0-5.3,1.7-6.5,3.7L45.8,68.1c-0.1,1.6,0.2,3.2,0.9,4.4
		l9.4,16.1l16.8-29.1h34h19.2c1.3,0,2.7,0.5,3.9,1.2L120.3,44z"/>
	<polygon class="st16" points="56.1,88.6 73.3,118 106.9,118 123.5,88.8 106.9,59.5 72.9,59.5 	"/>
	<circle class="st3" cx="67.4" cy="49.8" r="2.9"/>
	<path class="st13" d="M67.4,47.1c1.5,0,2.7,1.2,2.7,2.7c0,1.5-1.2,2.7-2.7,2.7c-1.5,0-2.7-1.2-2.7-2.7
		C64.7,48.3,65.9,47.1,67.4,47.1 M67.4,46.6c-1.7,0-3.1,1.4-3.1,3.1c0,1.7,1.4,3.1,3.1,3.1c1.7,0,3.1-1.4,3.1-3.1
		C70.5,48,69.1,46.6,67.4,46.6L67.4,46.6z"/>
	<circle class="st20" cx="112.4" cy="49.8" r="2.7"/>
	<circle class="st3" cx="67.4" cy="127.7" r="2.9"/>
	<path class="st14" d="M67.4,125c1.5,0,2.7,1.2,2.7,2.7c0,1.5-1.2,2.7-2.7,2.7c-1.5,0-2.7-1.2-2.7-2.7C64.7,126.2,65.9,125,67.4,125
		 M67.4,124.6c-1.7,0-3.1,1.4-3.1,3.1c0,1.7,1.4,3.1,3.1,3.1c1.7,0,3.1-1.4,3.1-3.1C70.5,126,69.1,124.6,67.4,124.6L67.4,124.6z"/>
	<circle class="st3" cx="112.4" cy="127.7" r="2.9"/>
	<path class="st0" d="M112.4,125c1.5,0,2.7,1.2,2.7,2.7c0,1.5-1.2,2.7-2.7,2.7c-1.5,0-2.7-1.2-2.7-2.7
		C109.7,126.2,110.9,125,112.4,125 M112.4,124.6c-1.7,0-3.1,1.4-3.1,3.1c0,1.7,1.4,3.1,3.1,3.1c1.7,0,3.1-1.4,3.1-3.1
		C115.5,126,114.1,124.6,112.4,124.6L112.4,124.6z"/>
	<path class="st3" d="M135,86.2c1.5,0,2.7,1.2,2.7,2.7c0,1.5-1.2,2.7-2.7,2.7c-1.5,0-2.7-1.2-2.7-2.7
		C132.3,87.4,133.5,86.2,135,86.2"/>
	<circle class="st3" cx="44.7" cy="88.9" r="2.9"/>
	<path class="st14" d="M44.7,86.2c1.5,0,2.7,1.2,2.7,2.7c0,1.5-1.2,2.7-2.7,2.7c-1.5,0-2.7-1.2-2.7-2.7C42,87.4,43.2,86.2,44.7,86.2
		 M44.7,85.8c-1.7,0-3.1,1.4-3.1,3.1c0,1.7,1.4,3.1,3.1,3.1c1.7,0,3.1-1.4,3.1-3.1C47.9,87.2,46.5,85.8,44.7,85.8L44.7,85.8z"/>
	<path class="st3" d="M90,104c-8.3,0-15.1-6.8-15.1-15.1c0-8.3,6.8-15.1,15.1-15.1c8.3,0,15.1,6.8,15.1,15.1
		C105,97.2,98.3,104,90,104z"/>
</g>
</svg>
