<?xml version="1.0" encoding="utf-8"?>
<!-- Generator: Adobe Illustrator 19.2.1, SVG Export Plug-In . SVG Version: 6.00 Build 0)  -->
<svg version="1.1" id="Layer_1" xmlns="http://www.w3.org/2000/svg" xmlns:xlink="http://www.w3.org/1999/xlink" x="0px" y="0px"
	 viewBox="0 0 180 180" style="enable-background:new 0 0 180 180;" xml:space="preserve">
<style type="text/css">
	.st0{fill:#183B4D;}
	.st1{display:none;}
	.st2{display:inline;fill:#183B4D;}
	.st3{fill:#FFFFFF;}
	.st4{fill-rule:evenodd;clip-rule:evenodd;fill:#183B4D;}
	.st5{clip-path:url(#SVGID_2_);}
	.st6{clip-path:url(#SVGID_4_);fill:#183B4D;}
	.st7{clip-path:url(#SVGID_6_);}
	.st8{clip-path:url(#SVGID_8_);fill:#183B4D;}
	.st9{fill-rule:evenodd;clip-rule:evenodd;fill:#FFFFFF;}
	.st10{clip-path:url(#SVGID_10_);}
	.st11{clip-path:url(#SVGID_12_);fill:#183B4D;}
	.st12{fill:#234B5F;}
	.st13{fill:#2D5E72;}
	.st14{fill:#45778F;}
	.st15{fill:#7B9FB6;}
	.st16{fill:#CBD8E0;}
	.st17{fill:#F0F4F8;}
	.st18{fill:#CECDCA;}
	.st19{fill:#DC462F;}
	.st20{fill:#FFFFFF;stroke:#2D5E72;stroke-miterlimit:10;}
</style>
<g>
	<defs>
		<path id="SVGID_1_" d="M55.6,279.9l-5.5,5.5c-0.3,0.3-0.3,0.8,0,1.1l39.2,39.2c0.3,0.3,0.8,0.3,1.1,0l39.2-39.2
			c0.3-0.3,0.3-0.8,0-1.1l-5.5-5.5L92,311.8c-1.2,1.2-3.3,1.2-4.5,0L55.6,279.9z"/>
	</defs>
	<use xlink:href="#SVGID_1_"  style="overflow:visible;fill-rule:evenodd;clip-rule:evenodd;fill:#183B4D;"/>
	<clipPath id="SVGID_2_">
		<use xlink:href="#SVGID_1_"  style="overflow:visible;"/>
	</clipPath>
	<g class="st5">
		<defs>
			<rect id="SVGID_3_" x="-70.1" y="176.2" width="319.7" height="239.8"/>
		</defs>
		<use xlink:href="#SVGID_3_"  style="overflow:visible;fill:#183B4D;"/>
		<clipPath id="SVGID_4_">
			<use xlink:href="#SVGID_3_"  style="overflow:visible;"/>
		</clipPath>
	</g>
</g>
<g>
	<path class="st0" d="M71.9,102.6c-2.2,0-4.2-1-5.6-2.7l-20.9-26c-1.4-1.7-1.9-3.9-1.4-6.1l7.5-32.5c0.5-2.2,1.9-3.9,3.9-4.8
		L85.7,16c1-0.5,2-0.7,3.1-0.7c1.1,0,2.2,0.2,3.1,0.7l30.3,14.4c2,1,3.4,2.7,3.9,4.8l7.5,32.5c0.5,2.2,0,4.4-1.4,6.1l-20.9,26
		c-1.4,1.7-3.4,2.7-5.6,2.7L71.9,102.6L71.9,102.6z"/>
	<path class="st3" d="M119,65.5L119,65.5L119,65.5C119,65.5,119,65.5,119,65.5L119,65.5c-0.1,0-0.2,0-0.2-0.1
		c-0.1,0-0.2-0.1-0.4-0.1c-0.4-0.1-0.8-0.1-1.1-0.1c-0.2,0-0.4,0-0.6-0.1h-0.1c-1.3-0.1-2.3-0.2-3.2-0.5c-0.4-0.2-0.5-0.4-0.7-0.7
		c0-0.1-0.1-0.1-0.1-0.1l0,0l-0.8-0.2c0.4-2.8,0.2-5.6-0.4-8.4s-1.8-5.4-3.4-7.8l0.6-0.5v-0.1c0-0.3,0.1-0.6,0.3-0.9
		c0.7-0.7,1.6-1.2,2.7-1.9l0,0c0.2-0.1,0.4-0.2,0.5-0.3c0.4-0.2,0.7-0.4,1-0.6c0.1-0.1,0.2-0.1,0.3-0.2c0.1-0.1,0.1-0.1,0.1-0.1l0,0
		c0.8-0.7,1-1.9,0.4-2.7c-0.3-0.4-0.8-0.7-1.4-0.7c-0.5,0-0.9,0.2-1.3,0.5l0,0l0,0c-0.1,0.1-0.1,0.1-0.1,0.1
		c-0.1,0.1-0.2,0.2-0.3,0.2c-0.3,0.3-0.5,0.5-0.8,0.8c-0.1,0.1-0.2,0.3-0.4,0.4l0,0c-0.8,0.9-1.6,1.6-2.4,2.2
		c-0.2,0.1-0.4,0.2-0.5,0.2c-0.1,0-0.2,0-0.4-0.1h-0.1l0,0l-0.7,0.5c-0.8-0.8-1.6-1.6-2.5-2.3c-3.6-2.8-8-4.5-12.5-5l-0.1-0.8
		c-0.1-0.1-0.1-0.1-0.1-0.1c-0.2-0.2-0.4-0.4-0.5-0.8c-0.1-1,0.1-2,0.2-3.2V32c0-0.2,0.1-0.4,0.1-0.6c0.1-0.4,0.1-0.7,0.2-1.1v-0.4
		v-0.2l0,0l0,0c0-1.1-0.8-2-1.9-2c-0.5,0-1,0.2-1.3,0.6c-0.4,0.4-0.5,0.8-0.5,1.4l0,0l0,0v0.1v0.4c0,0.4,0.1,0.8,0.2,1.1
		c0.1,0.2,0.1,0.4,0.1,0.6V32c0.1,1.2,0.3,2.3,0.2,3.2c-0.1,0.4-0.3,0.6-0.5,0.8c-0.1,0.1-0.1,0.1-0.1,0.1l0,0l-0.1,0.8
		c-1.1,0.1-2.2,0.2-3.2,0.5c-4.6,1-8.7,3.4-11.8,6.7l-0.6-0.4h-0.1c-0.1,0-0.2,0.1-0.4,0.1c-0.2,0-0.4-0.1-0.5-0.2
		c-0.8-0.5-1.6-1.3-2.4-2.2l0,0c-0.1-0.1-0.2-0.3-0.4-0.4c-0.2-0.3-0.5-0.5-0.8-0.8c-0.1-0.1-0.2-0.1-0.3-0.2
		c-0.1-0.1-0.1-0.1-0.1-0.1l0,0c-0.4-0.3-0.8-0.5-1.3-0.5c-0.5,0-1.1,0.2-1.4,0.7c-0.6,0.8-0.4,2,0.4,2.7l0,0l0,0
		c0.1,0,0.1,0.1,0.1,0.1c0.1,0.1,0.2,0.2,0.3,0.2c0.4,0.2,0.7,0.4,1,0.6c0.2,0.1,0.4,0.2,0.5,0.3l0,0c1.1,0.7,2,1.2,2.7,1.9
		c0.3,0.3,0.3,0.6,0.3,0.9v0.1l0,0l0.6,0.5c-0.1,0.2-0.2,0.3-0.3,0.5c-3,4.7-4.1,10.3-3.4,15.8l-0.8,0.2c0,0.1-0.1,0.1-0.1,0.1
		c-0.1,0.2-0.3,0.5-0.7,0.7c-0.9,0.3-2,0.4-3.2,0.5h-0.1c-0.2,0-0.4,0-0.6,0.1c-0.4,0-0.7,0.1-1.1,0.1c-0.1,0-0.2,0.1-0.4,0.1
		c-0.1,0-0.1,0-0.2,0.1l0,0l0,0c-1.1,0.2-1.7,1.3-1.6,2.2c0.2,0.8,1,1.4,1.9,1.4c0.2,0,0.3,0,0.5-0.1l0,0l0,0c0.1,0,0.1,0,0.1-0.1
		c0.1,0,0.2-0.1,0.4-0.1c0.4-0.1,0.7-0.2,1.1-0.4c0.2-0.1,0.4-0.2,0.5-0.2h0.1c1.1-0.4,2.2-0.8,3.1-0.9h0.1c0.4,0,0.6,0.2,0.8,0.3
		c0.1,0,0.1,0.1,0.1,0.1l0,0l0.8-0.1c1.4,4.4,4.2,8.4,7.8,11.2c0.8,0.7,1.7,1.2,2.6,1.7l-0.4,0.8c0,0.1,0.1,0.1,0.1,0.1
		c0.1,0.2,0.2,0.5,0.1,1c-0.4,0.9-0.9,1.8-1.6,2.8v0.1c-0.1,0.2-0.2,0.3-0.4,0.5c-0.2,0.3-0.4,0.6-0.7,1c-0.1,0.1-0.1,0.2-0.2,0.3
		C74,86.9,74,87,74,87l0,0l0,0c-0.5,1-0.1,2.2,0.8,2.6c0.2,0.1,0.5,0.2,0.7,0.2c0.7,0,1.4-0.5,1.8-1.1l0,0l0,0
		c0-0.1,0.1-0.1,0.1-0.1c0.1-0.1,0.1-0.2,0.2-0.3c0.2-0.4,0.2-0.7,0.4-1.1c0.1-0.2,0.1-0.4,0.2-0.5l0,0c0.4-1.2,0.7-2.2,1.3-3
		c0.2-0.4,0.5-0.4,0.8-0.5c0.1,0,0.1,0,0.1-0.1l0,0l0.4-0.8c2.6,1,5.5,1.6,8.4,1.6c1.7,0,3.5-0.2,5.2-0.6c1.1-0.2,2.1-0.5,3.1-0.9
		l0.4,0.7c0.1,0,0.1,0,0.1,0.1c0.3,0.1,0.5,0.2,0.8,0.5c0.5,0.8,0.8,1.9,1.3,3v0.1c0.1,0.2,0.1,0.4,0.2,0.5c0.1,0.4,0.2,0.7,0.4,1.1
		c0.1,0.1,0.1,0.2,0.2,0.3c0,0.1,0.1,0.1,0.1,0.1l0,0l0,0c0.4,0.7,1.1,1.1,1.8,1.1c0.2,0,0.5-0.1,0.7-0.2c0.4-0.2,0.8-0.6,0.9-1.1
		c0.1-0.5,0.1-1-0.1-1.5l0,0l0,0c0-0.1-0.1-0.1-0.1-0.1c-0.1-0.1-0.1-0.2-0.2-0.3c-0.2-0.4-0.4-0.7-0.7-1c-0.1-0.2-0.2-0.3-0.4-0.5
		v-0.1c-0.7-1-1.3-1.9-1.6-2.8c-0.1-0.4,0-0.7,0.1-1c0-0.1,0.1-0.1,0.1-0.1l0,0l-0.3-0.7c3.2-1.9,5.9-4.5,7.9-7.7
		c1.1-1.7,1.9-3.5,2.5-5.4l0.7,0.1c0.1,0,0.1-0.1,0.1-0.1c0.2-0.1,0.4-0.3,0.8-0.3h0.1c1,0.1,2,0.5,3.1,0.9h0.1
		c0.2,0.1,0.4,0.2,0.5,0.2c0.4,0.2,0.7,0.3,1.1,0.4c0.1,0,0.2,0.1,0.4,0.1c0.1,0,0.1,0,0.2,0.1l0,0c0.2,0.1,0.3,0.1,0.5,0.1
		c0.9,0,1.7-0.6,1.9-1.4C120.8,66.8,120.1,65.8,119,65.5L119,65.5z M91.3,62.6l-2.6,1.3l-2.6-1.3l-0.7-2.8l1.8-2.3h2.9l1.8,2.3
		L91.3,62.6L91.3,62.6z M107,56.4c0.5,2,0.6,4.1,0.4,6l-9.2-2.6c-0.8-0.2-1.3-1.1-1.1-1.9c0.1-0.2,0.2-0.5,0.4-0.7l7.2-6.5
		C105.7,52.4,106.5,54.3,107,56.4L107,56.4z M101.8,47.1L94,52.7c-0.7,0.4-1.6,0.3-2.1-0.4c-0.2-0.2-0.2-0.4-0.3-0.7L91,41.9
		C95.2,42.4,98.9,44.2,101.8,47.1L101.8,47.1z M84.5,42.2c0.7-0.1,1.3-0.2,1.9-0.4l-0.5,9.6c-0.1,0.8-0.7,1.6-1.6,1.6
		c-0.2,0-0.5-0.1-0.7-0.2l-8-5.7C78,44.6,81,43,84.5,42.2L84.5,42.2z M72.7,50.7l7.1,6.3c0.7,0.5,0.7,1.6,0.2,2.2
		c-0.2,0.2-0.4,0.4-0.7,0.5L70,62.4C69.6,58.3,70.5,54.2,72.7,50.7L72.7,50.7z M71.1,66.9l9.5-1.6c0.8-0.1,1.5,0.5,1.7,1.3
		c0.1,0.4,0.1,0.7-0.1,1l0,0l-3.6,8.8C75.2,74.1,72.5,70.8,71.1,66.9L71.1,66.9z M92.9,78.8c-1.4,0.3-2.8,0.5-4.2,0.5
		c-2.1,0-4.1-0.4-6-1l4.7-8.6c0.5-0.5,1.3-0.8,1.9-0.4c0.3,0.2,0.5,0.4,0.7,0.7l0,0l4.6,8.3C94.1,78.5,93.5,78.6,92.9,78.8
		L92.9,78.8z M104.6,70.5c-1.5,2.4-3.5,4.3-5.7,5.8l-3.8-9c-0.2-0.7,0.1-1.5,0.8-1.9c0.2-0.1,0.5-0.2,0.8-0.2l9.6,1.6
		C105.9,68.2,105.3,69.3,104.6,70.5L104.6,70.5z"/>
</g>
<g>
	<path class="st0" d="M15.1,144.8c0.4-0.5,0.9-1,1.4-1.5s0.9-1,1.4-1.5c0.4-0.5,0.9-1,1.2-1.4c0.4-0.5,0.7-0.9,1-1.2h5.3
		c-1.1,1.2-2.1,2.4-3.1,3.5s-2.1,2.2-3.3,3.4c0.6,0.5,1.2,1.2,1.9,1.9c0.6,0.8,1.3,1.5,1.9,2.3c0.6,0.8,1.2,1.6,1.7,2.4
		c0.5,0.8,0.9,1.5,1.3,2.2h-5.1c-0.3-0.5-0.7-1.1-1.1-1.7c-0.4-0.6-0.8-1.3-1.3-1.9s-0.9-1.2-1.5-1.8c-0.5-0.6-1-1.1-1.5-1.5v6.9
		h-4.5v-22.6l4.5-0.7V144.8z"/>
	<path class="st0" d="M41.1,154.4c-0.8,0.2-1.7,0.4-2.9,0.6c-1.2,0.2-2.5,0.3-3.8,0.3c-1.3,0-2.5-0.2-3.3-0.5
		c-0.9-0.4-1.6-0.9-2.1-1.5s-0.9-1.4-1.1-2.3c-0.2-0.9-0.3-1.9-0.3-3v-8.8H32v8.2c0,1.4,0.2,2.5,0.6,3.1c0.4,0.6,1.1,1,2.1,1
		c0.3,0,0.7,0,1,0c0.4,0,0.7-0.1,1-0.1v-12.2h4.5V154.4z"/>
	<path class="st0" d="M60,147.1c0,1.3-0.2,2.4-0.6,3.4c-0.4,1-0.9,1.9-1.6,2.6c-0.7,0.7-1.6,1.3-2.6,1.7c-1,0.4-2.2,0.6-3.5,0.6
		c-0.5,0-1.1,0-1.7-0.1c-0.6-0.1-1.2-0.1-1.7-0.2c-0.6-0.1-1.1-0.2-1.6-0.3c-0.5-0.1-1-0.2-1.4-0.3v-22.1l4.5-0.7v7.9
		c0.5-0.2,1-0.4,1.6-0.5c0.5-0.1,1.1-0.2,1.7-0.2c1.1,0,2.1,0.2,3,0.6s1.6,0.9,2.2,1.7c0.6,0.7,1,1.6,1.3,2.6
		C59.9,144.7,60,145.8,60,147.1z M55.4,146.9c0-2.9-1.1-4.3-3.2-4.3c-0.5,0-0.9,0.1-1.4,0.2c-0.5,0.1-0.8,0.3-1.1,0.4v8.1
		c0.2,0,0.5,0.1,0.8,0.1c0.3,0,0.7,0,1.1,0c1.2,0,2.1-0.4,2.8-1.3C55.1,149.4,55.4,148.3,55.4,146.9z"/>
	<path class="st0" d="M62.7,147.2c0-1.4,0.2-2.6,0.6-3.7c0.4-1.1,1-1.9,1.7-2.6c0.7-0.7,1.5-1.2,2.4-1.6c0.9-0.4,1.8-0.5,2.8-0.5
		c2.2,0,4,0.7,5.3,2.1c1.3,1.4,2,3.4,2,6c0,0.3,0,0.5,0,0.9c0,0.3,0,0.6-0.1,0.8H67.3c0.1,0.9,0.5,1.6,1.3,2.2
		c0.8,0.5,1.8,0.8,3.1,0.8c0.8,0,1.6-0.1,2.4-0.2c0.8-0.1,1.4-0.3,1.9-0.6l0.6,3.6c-0.2,0.1-0.6,0.2-1,0.4s-0.8,0.2-1.3,0.3
		c-0.5,0.1-1,0.2-1.6,0.2s-1.1,0.1-1.7,0.1c-1.4,0-2.7-0.2-3.7-0.6s-1.9-1-2.6-1.7c-0.7-0.7-1.2-1.6-1.5-2.6S62.7,148.3,62.7,147.2z
		 M73.2,145.5c0-0.4-0.1-0.8-0.2-1.1c-0.1-0.4-0.3-0.7-0.5-1s-0.5-0.5-0.9-0.7c-0.4-0.2-0.8-0.3-1.3-0.3c-0.5,0-0.9,0.1-1.3,0.3
		s-0.7,0.4-0.9,0.7c-0.2,0.3-0.4,0.6-0.6,1c-0.1,0.4-0.2,0.7-0.3,1.1H73.2z"/>
	<path class="st0" d="M90.5,143.1c-0.4-0.1-0.9-0.2-1.4-0.3c-0.5-0.1-1.1-0.2-1.7-0.2c-0.3,0-0.6,0-1,0.1c-0.4,0.1-0.7,0.1-0.9,0.2
		V155H81V140c0.8-0.3,1.7-0.5,2.8-0.8s2.3-0.4,3.6-0.4c0.2,0,0.5,0,0.9,0c0.3,0,0.7,0.1,1,0.1s0.7,0.1,1,0.2
		c0.3,0.1,0.6,0.2,0.9,0.3L90.5,143.1z"/>
	<path class="st0" d="M93.6,139.7c0.8-0.2,1.7-0.4,2.9-0.6c1.2-0.2,2.5-0.3,3.8-0.3c1.3,0,2.5,0.2,3.3,0.5c0.9,0.4,1.6,0.8,2.1,1.5
		s0.9,1.4,1.1,2.3c0.2,0.9,0.3,1.9,0.3,2.9v8.9h-4.5v-8.4c0-1.4-0.2-2.5-0.6-3.1c-0.4-0.6-1.1-0.9-2.1-0.9c-0.3,0-0.7,0-1,0
		c-0.4,0-0.7,0.1-1,0.1V155h-4.5V139.7z"/>
	<path class="st0" d="M110.6,147.2c0-1.4,0.2-2.6,0.6-3.7c0.4-1.1,1-1.9,1.7-2.6c0.7-0.7,1.5-1.2,2.4-1.6c0.9-0.4,1.8-0.5,2.8-0.5
		c2.2,0,4,0.7,5.3,2.1c1.3,1.4,2,3.4,2,6c0,0.3,0,0.5,0,0.9c0,0.3,0,0.6-0.1,0.8h-10.1c0.1,0.9,0.5,1.6,1.3,2.2
		c0.8,0.5,1.8,0.8,3.1,0.8c0.8,0,1.6-0.1,2.4-0.2c0.8-0.1,1.4-0.3,1.9-0.6l0.6,3.6c-0.2,0.1-0.6,0.2-1,0.4s-0.8,0.2-1.3,0.3
		c-0.5,0.1-1,0.2-1.6,0.2s-1.1,0.1-1.7,0.1c-1.4,0-2.7-0.2-3.7-0.6s-1.9-1-2.6-1.7c-0.7-0.7-1.2-1.6-1.5-2.6
		S110.6,148.3,110.6,147.2z M121.1,145.5c0-0.4-0.1-0.8-0.2-1.1c-0.1-0.4-0.3-0.7-0.5-1s-0.5-0.5-0.9-0.7c-0.4-0.2-0.8-0.3-1.3-0.3
		c-0.5,0-0.9,0.1-1.3,0.3s-0.7,0.4-0.9,0.7c-0.2,0.3-0.4,0.6-0.6,1c-0.1,0.4-0.2,0.7-0.3,1.1H121.1z"/>
	<path class="st0" d="M128.7,135.2l4.5-0.7v4.7h5.4v3.7h-5.4v5.6c0,0.9,0.2,1.7,0.5,2.2s1,0.8,2,0.8c0.5,0,1,0,1.5-0.1
		c0.5-0.1,1-0.2,1.4-0.4l0.6,3.5c-0.5,0.2-1.1,0.4-1.8,0.6c-0.7,0.2-1.5,0.2-2.4,0.2c-1.2,0-2.2-0.2-3-0.5c-0.8-0.3-1.4-0.8-1.9-1.4
		c-0.5-0.6-0.8-1.3-1-2.1c-0.2-0.8-0.3-1.8-0.3-2.8V135.2z"/>
	<path class="st0" d="M140.8,147.2c0-1.4,0.2-2.6,0.6-3.7c0.4-1.1,1-1.9,1.7-2.6c0.7-0.7,1.5-1.2,2.4-1.6c0.9-0.4,1.8-0.5,2.8-0.5
		c2.2,0,4,0.7,5.3,2.1c1.3,1.4,1.9,3.4,1.9,6c0,0.3,0,0.5,0,0.9c0,0.3,0,0.6-0.1,0.8h-10.1c0.1,0.9,0.5,1.6,1.3,2.2s1.8,0.8,3.1,0.8
		c0.8,0,1.6-0.1,2.4-0.2c0.8-0.1,1.4-0.3,1.9-0.6l0.6,3.6c-0.2,0.1-0.6,0.2-1,0.4c-0.4,0.1-0.8,0.2-1.3,0.3s-1,0.2-1.6,0.2
		c-0.6,0.1-1.1,0.1-1.7,0.1c-1.4,0-2.7-0.2-3.7-0.6c-1.1-0.4-1.9-1-2.6-1.7c-0.7-0.7-1.2-1.6-1.5-2.6S140.8,148.3,140.8,147.2z
		 M151.3,145.5c0-0.4-0.1-0.8-0.2-1.1c-0.1-0.4-0.3-0.7-0.5-1c-0.2-0.3-0.5-0.5-0.9-0.7c-0.3-0.2-0.8-0.3-1.3-0.3
		c-0.5,0-0.9,0.1-1.3,0.3c-0.4,0.2-0.7,0.4-0.9,0.7c-0.2,0.3-0.4,0.6-0.6,1c-0.1,0.4-0.2,0.7-0.3,1.1H151.3z"/>
	<path class="st0" d="M163.6,151.7c0.8,0,1.4-0.1,1.7-0.2c0.3-0.2,0.5-0.5,0.5-0.9c0-0.4-0.2-0.7-0.7-0.9s-1.1-0.6-2-0.9
		c-0.7-0.3-1.3-0.5-1.9-0.8c-0.6-0.3-1.1-0.6-1.5-1c-0.4-0.4-0.7-0.9-0.9-1.4s-0.3-1.2-0.3-1.9c0-1.5,0.6-2.6,1.7-3.5
		c1.1-0.9,2.6-1.3,4.5-1.3c1,0,1.9,0.1,2.8,0.3c0.9,0.2,1.6,0.4,2.1,0.6l-0.8,3.5c-0.5-0.2-1.1-0.3-1.7-0.5
		c-0.6-0.1-1.3-0.2-2.1-0.2c-1.4,0-2.1,0.4-2.1,1.2c0,0.2,0,0.3,0.1,0.5c0.1,0.1,0.2,0.3,0.4,0.4c0.2,0.1,0.4,0.3,0.7,0.4
		c0.3,0.2,0.7,0.3,1.2,0.5c1,0.4,1.8,0.7,2.4,1.1c0.6,0.4,1.1,0.7,1.5,1.1c0.4,0.4,0.6,0.9,0.8,1.4c0.2,0.5,0.2,1.1,0.2,1.7
		c0,1.6-0.6,2.7-1.8,3.5c-1.2,0.8-2.8,1.2-5,1.2c-1.4,0-2.6-0.1-3.5-0.4c-0.9-0.2-1.6-0.4-1.9-0.6l0.8-3.6c0.8,0.3,1.5,0.5,2.3,0.7
		C162,151.7,162.8,151.7,163.6,151.7z"/>
</g>
</svg>
