<?xml version="1.0" encoding="utf-8"?>
<!-- Generator: Adobe Illustrator 19.2.1, SVG Export Plug-In . SVG Version: 6.00 Build 0)  -->
<svg version="1.1" id="Layer_1" xmlns="http://www.w3.org/2000/svg" xmlns:xlink="http://www.w3.org/1999/xlink" x="0px" y="0px"
	 viewBox="0 0 180 180" style="enable-background:new 0 0 180 180;" xml:space="preserve">
<style type="text/css">
	.st0{fill:#183B4D;}
	.st1{display:none;}
	.st2{display:inline;fill:#183B4D;}
	.st3{fill:#FFFFFF;}
	.st4{fill-rule:evenodd;clip-rule:evenodd;fill:#183B4D;}
	.st5{clip-path:url(#SVGID_2_);}
	.st6{clip-path:url(#SVGID_4_);fill:#183B4D;}
	.st7{clip-path:url(#SVGID_6_);}
	.st8{clip-path:url(#SVGID_8_);fill:#183B4D;}
	.st9{fill-rule:evenodd;clip-rule:evenodd;fill:#FFFFFF;}
	.st10{clip-path:url(#SVGID_10_);}
	.st11{clip-path:url(#SVGID_12_);fill:#183B4D;}
	.st12{fill:#234B5F;}
	.st13{fill:#2D5E72;}
	.st14{fill:#45778F;}
	.st15{fill:#7B9FB6;}
	.st16{fill:#CBD8E0;}
	.st17{fill:#F0F4F8;}
	.st18{fill:#CECDCA;}
	.st19{fill:#DC462F;}
	.st20{fill:#FFFFFF;stroke:#2D5E72;stroke-miterlimit:10;}
</style>
<g>
	<path class="st0" d="M69.8,142.9c-2.6,0-5.1-1.2-6.8-3.3l-25.6-31.8c-1.7-2.1-2.3-4.8-1.7-7.5l9.2-39.8c0.6-2.6,2.3-4.8,4.8-5.9
		l37-17.7c1.2-0.6,2.5-0.9,3.8-0.9s2.6,0.3,3.8,0.9l37,17.6c2.4,1.2,4.2,3.3,4.8,5.9l9.2,39.8c0.6,2.6,0,5.3-1.7,7.5l-25.6,31.8
		c-1.7,2-4.2,3.3-6.8,3.3L69.8,142.9L69.8,142.9z"/>
	<path class="st3" d="M127.5,97.5L127.5,97.5L127.5,97.5C127.4,97.5,127.4,97.5,127.5,97.5L127.5,97.5c-0.1,0-0.2,0-0.2-0.1
		c-0.1,0-0.3-0.1-0.4-0.1c-0.5-0.1-1-0.1-1.4-0.1c-0.2,0-0.4,0-0.7-0.1h-0.1c-1.5-0.1-2.8-0.3-4-0.7c-0.5-0.2-0.7-0.5-0.8-0.8
		c0-0.1-0.1-0.1-0.1-0.1l0,0l-1-0.3c0.4-3.4,0.3-6.9-0.5-10.3c-0.8-3.4-2.2-6.7-4.1-9.6l0.7-0.7v-0.1c0-0.4,0.1-0.7,0.4-1.1
		c0.9-0.8,2-1.5,3.3-2.3l0,0c0.2-0.1,0.4-0.2,0.7-0.4c0.4-0.2,0.8-0.4,1.2-0.7c0.1-0.1,0.2-0.1,0.4-0.3c0.1-0.1,0.1-0.1,0.1-0.1l0,0
		c1-0.9,1.2-2.3,0.5-3.3c-0.4-0.5-1-0.8-1.7-0.8c-0.6,0-1.1,0.2-1.6,0.6l0,0l0,0c-0.1,0.1-0.1,0.1-0.1,0.1c-0.1,0.1-0.2,0.2-0.4,0.3
		c-0.4,0.4-0.7,0.7-1,1c-0.1,0.1-0.3,0.4-0.5,0.5l0,0c-1,1.1-2,2-2.9,2.6c-0.2,0.1-0.4,0.2-0.7,0.2c-0.1,0-0.3,0-0.4-0.1h-0.1l0,0
		l-0.9,0.6c-1-1-2-1.9-3-2.8c-4.4-3.4-9.7-5.6-15.3-6.1l-0.1-1c-0.1-0.1-0.1-0.1-0.1-0.1c-0.2-0.2-0.5-0.4-0.6-1
		c-0.1-1.2,0.1-2.5,0.2-4v-0.1c0-0.2,0.1-0.5,0.1-0.7c0.1-0.4,0.1-0.9,0.2-1.4v-0.4v-0.2l0,0l0,0c0-1.3-1-2.4-2.3-2.4
		c-0.6,0-1.2,0.3-1.6,0.7c-0.4,0.4-0.7,1-0.7,1.7l0,0l0,0v0.1v0.4c0,0.5,0.1,1,0.2,1.4c0.1,0.2,0.1,0.4,0.1,0.7v0.1
		c0.1,1.5,0.4,2.8,0.2,4c-0.1,0.5-0.4,0.7-0.6,1c-0.1,0.1-0.1,0.1-0.1,0.1l0,0l-0.1,1c-1.3,0.1-2.6,0.3-4,0.6
		c-5.6,1.2-10.6,4.1-14.5,8.2l-0.7-0.5h-0.1c-0.1,0-0.3,0.1-0.4,0.1c-0.2,0-0.4-0.1-0.7-0.2c-1-0.7-1.9-1.6-2.9-2.7l0,0
		c-0.1-0.1-0.3-0.4-0.5-0.5c-0.3-0.4-0.6-0.7-1-1c-0.1-0.1-0.2-0.1-0.4-0.3c-0.1-0.1-0.1-0.1-0.1-0.1l0,0c-0.4-0.4-1-0.6-1.6-0.6
		c-0.7,0-1.3,0.3-1.7,0.8c-0.7,1-0.5,2.4,0.5,3.3l0,0l0,0c0.1,0,0.1,0.1,0.1,0.1c0.1,0.1,0.2,0.2,0.4,0.3c0.4,0.3,0.8,0.5,1.2,0.7
		c0.2,0.1,0.4,0.2,0.7,0.4l0,0c1.3,0.8,2.4,1.5,3.3,2.3c0.4,0.4,0.4,0.7,0.4,1.1v0.1l0,0l0.7,0.7c-0.1,0.2-0.3,0.4-0.4,0.6
		c-3.7,5.8-5.1,12.6-4.1,19.3l-1,0.3c0,0.1-0.1,0.1-0.1,0.1c-0.1,0.3-0.4,0.6-0.8,0.8c-1.1,0.4-2.4,0.5-4,0.7h-0.1
		c-0.2,0-0.5,0-0.7,0.1c-0.4,0-0.9,0.1-1.4,0.1c-0.1,0-0.3,0.1-0.4,0.1c-0.1,0-0.1,0-0.2,0.1l0,0l0,0c-1.3,0.3-2.1,1.5-1.9,2.7
		c0.2,1,1.2,1.7,2.3,1.7c0.2,0,0.4,0,0.6-0.1l0,0l0,0c0.1,0,0.1,0,0.1-0.1c0.1,0,0.3-0.1,0.4-0.1c0.5-0.1,0.9-0.3,1.3-0.5
		c0.2-0.1,0.4-0.2,0.7-0.3h0.1c1.4-0.5,2.6-1,3.8-1.1h0.1c0.4,0,0.7,0.2,1,0.4c0.1,0,0.1,0.1,0.1,0.1l0,0l1-0.1
		c1.8,5.4,5.1,10.2,9.6,13.8c1,0.8,2,1.5,3.1,2.1l-0.4,1c0,0.1,0.1,0.1,0.1,0.1c0.1,0.3,0.3,0.7,0.1,1.2c-0.4,1.1-1.1,2.2-1.9,3.4
		v0.1c-0.1,0.2-0.3,0.4-0.4,0.6c-0.3,0.4-0.5,0.7-0.8,1.2c-0.1,0.1-0.1,0.2-0.2,0.4c0,0.1-0.1,0.1-0.1,0.1l0,0l0,0
		c-0.6,1.2-0.1,2.6,1,3.1c0.3,0.1,0.6,0.2,0.9,0.2c0.9,0,1.8-0.6,2.2-1.4l0,0l0,0c0-0.1,0.1-0.1,0.1-0.1c0.1-0.1,0.1-0.3,0.2-0.4
		c0.2-0.5,0.3-0.9,0.4-1.3c0.1-0.2,0.1-0.4,0.2-0.7l0,0c0.5-1.5,0.9-2.6,1.5-3.7c0.3-0.4,0.7-0.5,1-0.7c0.1,0,0.1,0,0.1-0.1l0,0
		l0.5-1c3.2,1.2,6.7,1.9,10.2,1.9c2.1,0,4.3-0.2,6.4-0.7c1.3-0.3,2.6-0.7,3.8-1.1l0.4,0.8c0.1,0,0.1,0,0.1,0.1
		c0.4,0.1,0.7,0.2,1,0.7c0.6,1,1,2.3,1.5,3.7v0.1c0.1,0.2,0.1,0.4,0.2,0.7c0.1,0.4,0.2,0.9,0.4,1.3c0.1,0.1,0.1,0.2,0.2,0.4
		c0,0.1,0.1,0.1,0.1,0.1l0,0l0,0c0.4,0.9,1.3,1.4,2.2,1.4c0.3,0,0.6-0.1,0.9-0.2c0.5-0.3,1-0.7,1.1-1.3c0.1-0.6,0.1-1.2-0.1-1.8l0,0
		l0,0c0-0.1-0.1-0.1-0.1-0.1c-0.1-0.1-0.1-0.3-0.2-0.4c-0.2-0.4-0.5-0.8-0.8-1.2c-0.1-0.2-0.3-0.4-0.4-0.6v-0.1
		c-0.8-1.2-1.5-2.3-1.9-3.4c-0.1-0.5,0-0.8,0.1-1.2c0-0.1,0.1-0.1,0.1-0.1l0,0l-0.4-0.9c3.9-2.3,7.2-5.5,9.7-9.4
		c1.3-2,2.3-4.3,3.1-6.6l0.9,0.1c0.1,0,0.1-0.1,0.1-0.1c0.3-0.1,0.5-0.4,1-0.4h0.1c1.2,0.1,2.4,0.6,3.8,1.1h0.1
		c0.2,0.1,0.4,0.2,0.7,0.3c0.4,0.2,0.8,0.4,1.3,0.5c0.1,0,0.3,0.1,0.4,0.1c0.1,0,0.1,0,0.2,0.1l0,0c0.2,0.1,0.4,0.1,0.6,0.1
		c1.1,0,2-0.7,2.3-1.7C129.6,99,128.8,97.9,127.5,97.5L127.5,97.5z M93.6,93.9l-3.2,1.5l-3.2-1.5l-0.8-3.4l2.2-2.8h3.6l2.2,2.8
		L93.6,93.9L93.6,93.9z M112.7,86.3c0.6,2.5,0.7,5,0.5,7.4L102,90.5c-1-0.3-1.6-1.3-1.4-2.3c0.1-0.3,0.2-0.6,0.4-0.8l8.9-8
		C111.2,81.4,112.1,83.7,112.7,86.3L112.7,86.3z M106.4,74.9l-9.6,6.8c-0.8,0.5-1.9,0.4-2.6-0.4c-0.2-0.2-0.3-0.5-0.4-0.8l-0.7-11.9
		C98.3,69.2,102.9,71.4,106.4,74.9L106.4,74.9z M85.2,68.9c0.8-0.1,1.5-0.3,2.3-0.4l-0.7,11.7c-0.1,1-0.9,1.9-2,1.9
		c-0.3,0-0.7-0.1-0.9-0.2l-9.7-7C77.3,71.9,81,69.9,85.2,68.9L85.2,68.9z M70.8,79.3l8.7,7.8c0.8,0.7,0.9,1.9,0.2,2.7
		c-0.2,0.3-0.5,0.5-0.9,0.6l-11.3,3.3C67,88.7,68.1,83.7,70.8,79.3L70.8,79.3z M68.8,99.2l11.6-2c1-0.1,1.8,0.6,2,1.5
		c0.1,0.4,0.1,0.8-0.1,1.2l0,0l-4.5,10.8C73.8,108,70.5,104,68.8,99.2L68.8,99.2z M95.5,113.8c-1.7,0.4-3.4,0.6-5.1,0.6
		c-2.6,0-5.1-0.4-7.4-1.2l5.8-10.5c0.6-0.7,1.5-1,2.3-0.5c0.4,0.2,0.7,0.5,0.9,0.8l0,0l5.6,10.2C97,113.4,96.2,113.5,95.5,113.8
		L95.5,113.8z M109.8,103.6c-1.8,2.9-4.2,5.3-7,7.1l-4.6-11.1c-0.2-0.9,0.1-1.8,1-2.3c0.3-0.1,0.7-0.2,1-0.2l11.7,2
		C111.5,100.7,110.7,102.2,109.8,103.6L109.8,103.6z"/>
</g>
</svg>
