<?xml version="1.0" encoding="utf-8"?>
<!-- Generator: Adobe Illustrator 19.2.1, SVG Export Plug-In . SVG Version: 6.00 Build 0)  -->
<svg version="1.1" id="Layer_1" xmlns="http://www.w3.org/2000/svg" xmlns:xlink="http://www.w3.org/1999/xlink" x="0px" y="0px"
	 viewBox="0 0 360 180" style="enable-background:new 0 0 360 180;" xml:space="preserve">
<style type="text/css">
	.st0{fill:#183B4D;}
	.st1{display:none;}
	.st2{display:inline;fill:#183B4D;}
	.st3{fill:#FFFFFF;}
	.st4{fill-rule:evenodd;clip-rule:evenodd;fill:#183B4D;}
	.st5{clip-path:url(#SVGID_2_);}
	.st6{clip-path:url(#SVGID_4_);fill:#183B4D;}
	.st7{clip-path:url(#SVGID_6_);}
	.st8{clip-path:url(#SVGID_8_);fill:#183B4D;}
	.st9{fill-rule:evenodd;clip-rule:evenodd;fill:#FFFFFF;}
	.st10{clip-path:url(#SVGID_10_);}
	.st11{clip-path:url(#SVGID_12_);fill:#183B4D;}
	.st12{fill:#234B5F;}
	.st13{fill:#2D5E72;}
	.st14{fill:#45778F;}
	.st15{fill:#7B9FB6;}
	.st16{fill:#CBD8E0;}
	.st17{fill:#F0F4F8;}
	.st18{fill:#CECDCA;}
	.st19{fill:#DC462F;}
	.st20{fill:#FFFFFF;stroke:#2D5E72;stroke-miterlimit:10;}
</style>
<g>
	<defs>
		<path id="SVGID_1_" d="M-181.4,279.9l-5.5,5.5c-0.3,0.3-0.3,0.8,0,1.1l39.2,39.2c0.3,0.3,0.8,0.3,1.1,0l39.2-39.2
			c0.3-0.3,0.3-0.8,0-1.1l-5.5-5.5l-31.9,31.9c-1.2,1.2-3.3,1.2-4.5,0L-181.4,279.9z"/>
	</defs>
	<use xlink:href="#SVGID_1_"  style="overflow:visible;fill-rule:evenodd;clip-rule:evenodd;fill:#183B4D;"/>
	<clipPath id="SVGID_2_">
		<use xlink:href="#SVGID_1_"  style="overflow:visible;"/>
	</clipPath>
	<g class="st5">
		<defs>
			<rect id="SVGID_3_" x="-307.1" y="176.2" width="319.7" height="239.8"/>
		</defs>
		<use xlink:href="#SVGID_3_"  style="overflow:visible;fill:#183B4D;"/>
		<clipPath id="SVGID_4_">
			<use xlink:href="#SVGID_3_"  style="overflow:visible;"/>
		</clipPath>
	</g>
</g>
<g>
	<g>
		<path class="st0" d="M42,127.9c-1.9,0-3.7-0.9-5-2.4l-18.6-23.2c-1.2-1.5-1.7-3.5-1.2-5.4L23.9,68c0.4-1.9,1.7-3.5,3.5-4.3
			l26.9-12.9c0.9-0.4,1.8-0.6,2.8-0.6c1,0,1.9,0.2,2.8,0.6l26.9,12.8c1.8,0.9,3,2.4,3.5,4.3l6.7,28.9c0.4,1.9,0,3.9-1.2,5.4
			L77,125.4c-1.2,1.5-3,2.4-5,2.4L42,127.9L42,127.9z"/>
		<path class="st3" d="M84,94.9L84,94.9L84,94.9C83.9,94.9,83.9,94.9,84,94.9L84,94.9c-0.1,0-0.2,0-0.2-0.1c-0.1,0-0.2-0.1-0.3-0.1
			c-0.4-0.1-0.7-0.1-1-0.1c-0.2,0-0.3,0-0.5-0.1h-0.1c-1.1-0.1-2-0.2-2.9-0.5c-0.4-0.2-0.5-0.4-0.6-0.6c0-0.1-0.1-0.1-0.1-0.1l0,0
			l-0.7-0.2c0.3-2.4,0.2-5-0.4-7.5c-0.6-2.5-1.6-4.8-3-7l0.5-0.5v-0.1c0-0.3,0.1-0.5,0.3-0.8c0.6-0.6,1.4-1.1,2.4-1.7l0,0
			c0.2-0.1,0.3-0.2,0.5-0.3c0.3-0.2,0.6-0.3,0.9-0.5c0.1-0.1,0.2-0.1,0.3-0.2c0.1-0.1,0.1-0.1,0.1-0.1l0,0c0.7-0.6,0.9-1.7,0.4-2.4
			c-0.3-0.4-0.7-0.6-1.2-0.6c-0.4,0-0.8,0.2-1.2,0.4l0,0l0,0c-0.1,0.1-0.1,0.1-0.1,0.1c-0.1,0.1-0.2,0.2-0.3,0.2
			c-0.3,0.3-0.5,0.5-0.7,0.7c-0.1,0.1-0.2,0.3-0.4,0.4l0,0c-0.7,0.8-1.4,1.4-2.1,1.9c-0.2,0.1-0.3,0.2-0.5,0.2c-0.1,0-0.2,0-0.3-0.1
			h-0.1l0,0l-0.6,0.4c-0.7-0.7-1.4-1.4-2.2-2c-3.2-2.5-7.1-4-11.1-4.4l-0.1-0.7c-0.1-0.1-0.1-0.1-0.1-0.1c-0.2-0.2-0.4-0.3-0.4-0.7
			c-0.1-0.9,0.1-1.8,0.2-2.9V65c0-0.2,0.1-0.4,0.1-0.5c0.1-0.3,0.1-0.6,0.2-1v-0.3V63l0,0l0,0c0-1-0.7-1.8-1.7-1.8
			c-0.4,0-0.9,0.2-1.2,0.5s-0.5,0.7-0.5,1.2l0,0l0,0v0.1v0.3c0,0.4,0.1,0.7,0.2,1c0.1,0.2,0.1,0.3,0.1,0.5V65c0.1,1.1,0.3,2,0.2,2.9
			c-0.1,0.4-0.3,0.5-0.4,0.7c-0.1,0.1-0.1,0.1-0.1,0.1l0,0l-0.1,0.7c-1,0.1-1.9,0.2-2.9,0.4c-4.1,0.9-7.7,3-10.5,6l-0.5-0.4h-0.1
			c-0.1,0-0.2,0.1-0.3,0.1c-0.2,0-0.3-0.1-0.5-0.2c-0.7-0.5-1.4-1.2-2.1-2l0,0c-0.1-0.1-0.2-0.3-0.4-0.4c-0.2-0.3-0.4-0.5-0.7-0.7
			c-0.1-0.1-0.2-0.1-0.3-0.2c-0.1-0.1-0.1-0.1-0.1-0.1l0,0c-0.3-0.3-0.7-0.4-1.2-0.4c-0.5,0-1,0.2-1.2,0.6c-0.5,0.7-0.4,1.8,0.4,2.4
			l0,0l0,0c0.1,0,0.1,0.1,0.1,0.1c0.1,0.1,0.2,0.2,0.3,0.2c0.3,0.2,0.6,0.4,0.9,0.5c0.2,0.1,0.3,0.2,0.5,0.3l0,0
			c1,0.6,1.8,1.1,2.4,1.7c0.3,0.3,0.3,0.5,0.3,0.8v0.1l0,0l0.5,0.5c-0.1,0.2-0.2,0.3-0.3,0.4c-2.7,4.2-3.7,9.2-3,14.1l-0.7,0.2
			c0,0.1-0.1,0.1-0.1,0.1c-0.1,0.2-0.3,0.4-0.6,0.6c-0.8,0.3-1.8,0.4-2.9,0.5h-0.1c-0.2,0-0.4,0-0.5,0.1c-0.3,0-0.6,0.1-1,0.1
			c-0.1,0-0.2,0.1-0.3,0.1c-0.1,0-0.1,0-0.2,0.1l0,0l0,0c-1,0.2-1.5,1.1-1.4,2c0.2,0.7,0.9,1.2,1.7,1.2c0.2,0,0.3,0,0.4-0.1l0,0l0,0
			c0.1,0,0.1,0,0.1-0.1c0.1,0,0.2-0.1,0.3-0.1c0.4-0.1,0.6-0.2,1-0.4c0.2-0.1,0.3-0.2,0.5-0.2h0.1c1-0.4,1.9-0.7,2.8-0.8h0.1
			c0.3,0,0.5,0.2,0.7,0.3c0.1,0,0.1,0.1,0.1,0.1l0,0l0.7-0.1c1.3,3.9,3.7,7.5,7,10c0.7,0.6,1.5,1.1,2.3,1.5l-0.3,0.7
			c0,0.1,0.1,0.1,0.1,0.1c0.1,0.2,0.2,0.5,0.1,0.9c-0.3,0.8-0.8,1.6-1.4,2.5v0.1c-0.1,0.2-0.2,0.3-0.3,0.4c-0.2,0.3-0.4,0.5-0.6,0.9
			c-0.1,0.1-0.1,0.2-0.2,0.3c0,0.1-0.1,0.1-0.1,0.1l0,0l0,0c-0.4,0.9-0.1,1.9,0.7,2.3c0.2,0.1,0.4,0.2,0.6,0.2c0.6,0,1.3-0.4,1.6-1
			l0,0l0,0c0-0.1,0.1-0.1,0.1-0.1c0.1-0.1,0.1-0.2,0.2-0.3c0.2-0.4,0.2-0.6,0.3-1c0.1-0.2,0.1-0.3,0.2-0.5l0,0
			c0.4-1.1,0.6-1.9,1.1-2.7c0.2-0.3,0.5-0.4,0.7-0.5c0.1,0,0.1,0,0.1-0.1l0,0l0.4-0.7c2.3,0.9,4.9,1.4,7.5,1.4
			c1.5,0,3.1-0.2,4.6-0.5c1-0.2,1.9-0.5,2.8-0.8l0.3,0.6c0.1,0,0.1,0,0.1,0.1c0.3,0.1,0.5,0.2,0.7,0.5c0.4,0.7,0.7,1.7,1.1,2.7v0.1
			c0.1,0.2,0.1,0.3,0.2,0.5c0.1,0.3,0.2,0.6,0.3,1c0.1,0.1,0.1,0.2,0.2,0.3c0,0.1,0.1,0.1,0.1,0.1l0,0l0,0c0.3,0.6,1,1,1.6,1
			c0.2,0,0.4-0.1,0.6-0.2c0.4-0.2,0.7-0.5,0.8-1c0.1-0.4,0.1-0.9-0.1-1.3l0,0l0,0c0-0.1-0.1-0.1-0.1-0.1c-0.1-0.1-0.1-0.2-0.2-0.3
			c-0.2-0.3-0.4-0.6-0.6-0.9c-0.1-0.2-0.2-0.3-0.3-0.4v-0.1c-0.6-0.9-1.1-1.7-1.4-2.5c-0.1-0.4,0-0.6,0.1-0.9c0-0.1,0.1-0.1,0.1-0.1
			l0,0l-0.3-0.6c2.8-1.7,5.2-4,7-6.9c1-1.5,1.7-3.1,2.2-4.8l0.6,0.1c0.1,0,0.1-0.1,0.1-0.1c0.2-0.1,0.4-0.3,0.7-0.3h0.1
			c0.9,0.1,1.8,0.4,2.8,0.8h0.1c0.2,0.1,0.3,0.2,0.5,0.2c0.3,0.2,0.6,0.3,1,0.4c0.1,0,0.2,0.1,0.3,0.1c0.1,0,0.1,0,0.2,0.1l0,0
			c0.2,0.1,0.3,0.1,0.4,0.1c0.8,0,1.5-0.5,1.7-1.2C85.5,96,84.9,95.1,84,94.9L84,94.9z M59.3,92.3L57,93.4l-2.3-1.1l-0.6-2.5l1.6-2
			h2.6l1.6,2L59.3,92.3L59.3,92.3z M73.2,86.7c0.4,1.8,0.5,3.6,0.4,5.4l-8.1-2.3c-0.7-0.2-1.2-1-1-1.7c0.1-0.2,0.2-0.4,0.3-0.6
			l6.4-5.8C72.1,83.1,72.8,84.9,73.2,86.7L73.2,86.7z M68.7,78.5l-7,5c-0.6,0.4-1.4,0.3-1.9-0.3c-0.2-0.2-0.2-0.4-0.3-0.6l-0.5-8.7
			C62.7,74.3,66.1,75.9,68.7,78.5L68.7,78.5z M53.2,74.1c0.6-0.1,1.1-0.2,1.7-0.3l-0.5,8.5c-0.1,0.7-0.6,1.4-1.4,1.4
			c-0.2,0-0.5-0.1-0.6-0.2l-7.1-5.1C47.5,76.3,50.2,74.8,53.2,74.1L53.2,74.1z M42.7,81.7l6.3,5.6c0.6,0.5,0.6,1.4,0.2,2
			c-0.2,0.2-0.4,0.4-0.6,0.4l-8.3,2.4C40,88.5,40.8,84.8,42.7,81.7L42.7,81.7z M41.3,96.1l8.5-1.4c0.7-0.1,1.3,0.4,1.5,1.1
			c0.1,0.3,0.1,0.6-0.1,0.9l0,0l-3.2,7.8C45,102.5,42.6,99.6,41.3,96.1L41.3,96.1z M60.7,106.7c-1.2,0.3-2.4,0.4-3.7,0.4
			c-1.9,0-3.7-0.3-5.4-0.9l4.2-7.6c0.4-0.5,1.1-0.7,1.7-0.4c0.3,0.2,0.5,0.4,0.6,0.6l0,0l4.1,7.4C61.8,106.4,61.3,106.5,60.7,106.7
			L60.7,106.7z M71.1,99.3c-1.3,2.1-3.1,3.8-5.1,5.2l-3.4-8c-0.2-0.6,0.1-1.3,0.7-1.7c0.2-0.1,0.5-0.2,0.7-0.2l8.5,1.4
			C72.3,97.2,71.8,98.3,71.1,99.3L71.1,99.3z"/>
	</g>
</g>
<g>
	<path class="st0" d="M118.2,91.1c0.7-0.7,1.3-1.5,2-2.2s1.4-1.5,2-2.3c0.7-0.8,1.3-1.5,1.9-2.2c0.6-0.7,1.1-1.3,1.5-1.8h8
		c-1.6,1.8-3.1,3.6-4.6,5.2c-1.5,1.7-3.2,3.4-5,5.1c0.9,0.8,1.8,1.8,2.8,2.9c1,1.1,1.9,2.3,2.8,3.5c0.9,1.2,1.7,2.4,2.5,3.6
		c0.7,1.2,1.4,2.3,1.9,3.3h-7.7c-0.5-0.8-1-1.6-1.6-2.6c-0.6-0.9-1.3-1.9-1.9-2.8c-0.7-0.9-1.4-1.9-2.2-2.7
		c-0.8-0.9-1.5-1.6-2.3-2.2v10.3h-6.7V72.4l6.7-1.1V91.1z"/>
	<path class="st0" d="M157.1,105.4c-1.1,0.3-2.6,0.6-4.4,0.9c-1.8,0.3-3.7,0.4-5.7,0.4c-2,0-3.7-0.3-5-0.8c-1.3-0.5-2.4-1.3-3.2-2.3
		c-0.8-1-1.3-2.1-1.7-3.5c-0.3-1.3-0.5-2.8-0.5-4.4V82.6h6.7v12.3c0,2.2,0.3,3.7,0.9,4.7c0.6,1,1.6,1.4,3.2,1.4c0.5,0,1,0,1.5-0.1
		c0.5,0,1-0.1,1.4-0.2V82.6h6.7V105.4z"/>
	<path class="st0" d="M185.4,94.4c0,1.9-0.3,3.6-0.8,5.1c-0.6,1.5-1.4,2.8-2.4,3.9c-1,1.1-2.3,1.9-3.9,2.5c-1.5,0.6-3.3,0.9-5.2,0.9
		c-0.8,0-1.7,0-2.5-0.1c-0.9-0.1-1.8-0.2-2.6-0.3c-0.9-0.1-1.7-0.3-2.4-0.4c-0.8-0.2-1.5-0.3-2.1-0.5v-33l6.7-1.1v11.8
		c0.7-0.3,1.5-0.6,2.3-0.8c0.8-0.2,1.7-0.3,2.6-0.3c1.7,0,3.2,0.3,4.4,0.9c1.3,0.6,2.4,1.4,3.2,2.5c0.9,1.1,1.5,2.4,2,3.9
		C185.2,90.8,185.4,92.5,185.4,94.4z M178.6,94.2c0-4.3-1.6-6.5-4.8-6.5c-0.7,0-1.4,0.1-2,0.3c-0.7,0.2-1.2,0.4-1.6,0.7v12.2
		c0.3,0.1,0.7,0.1,1.3,0.2c0.5,0,1.1,0.1,1.7,0.1c1.8,0,3.2-0.6,4.1-1.9C178.1,97.9,178.6,96.3,178.6,94.2z"/>
	<path class="st0" d="M189.4,94.6c0-2.1,0.3-3.9,1-5.5c0.6-1.6,1.5-2.9,2.5-3.9c1-1,2.2-1.8,3.6-2.4c1.4-0.5,2.8-0.8,4.2-0.8
		c3.3,0,6,1,7.9,3.1c1.9,2,2.9,5.1,2.9,9c0,0.4,0,0.8,0,1.3c0,0.5-0.1,0.9-0.1,1.2h-15.2c0.1,1.4,0.8,2.5,1.9,3.3
		c1.1,0.8,2.7,1.2,4.6,1.2c1.2,0,2.4-0.1,3.6-0.3c1.2-0.2,2.1-0.5,2.9-0.8l0.9,5.4c-0.4,0.2-0.8,0.4-1.4,0.5c-0.6,0.2-1.3,0.3-2,0.5
		c-0.7,0.1-1.5,0.2-2.4,0.3c-0.8,0.1-1.7,0.1-2.5,0.1c-2.1,0-4-0.3-5.5-0.9c-1.6-0.6-2.9-1.5-3.9-2.6c-1-1.1-1.8-2.4-2.3-3.9
		C189.7,97.9,189.4,96.3,189.4,94.6z M205.1,92c0-0.6-0.1-1.1-0.3-1.7c-0.2-0.5-0.4-1-0.8-1.4c-0.3-0.4-0.8-0.8-1.3-1
		c-0.5-0.3-1.2-0.4-2-0.4c-0.7,0-1.4,0.1-1.9,0.4c-0.5,0.3-1,0.6-1.3,1c-0.4,0.4-0.6,0.9-0.8,1.5c-0.2,0.6-0.3,1.1-0.4,1.7H205.1z"
		/>
	<path class="st0" d="M231,88.5c-0.6-0.1-1.3-0.3-2.1-0.5c-0.8-0.2-1.7-0.2-2.6-0.2c-0.4,0-0.9,0-1.5,0.1c-0.6,0.1-1,0.2-1.3,0.2v18
		h-6.7V83.8c1.2-0.4,2.6-0.8,4.2-1.2s3.5-0.6,5.5-0.6c0.4,0,0.8,0,1.3,0.1c0.5,0,1,0.1,1.5,0.2c0.5,0.1,1,0.2,1.5,0.3
		c0.5,0.1,0.9,0.2,1.3,0.4L231,88.5z"/>
	<path class="st0" d="M235.7,83.4c1.1-0.3,2.6-0.6,4.4-0.9c1.8-0.3,3.7-0.4,5.7-0.4c2,0,3.7,0.3,5,0.8c1.3,0.5,2.4,1.3,3.2,2.2
		s1.3,2.1,1.7,3.4c0.3,1.3,0.5,2.8,0.5,4.4v13.3h-6.7V93.7c0-2.2-0.3-3.7-0.9-4.6c-0.6-0.9-1.6-1.3-3.2-1.3c-0.5,0-1,0-1.5,0.1
		c-0.5,0-1,0.1-1.4,0.2v18.2h-6.7V83.4z"/>
	<path class="st0" d="M261,94.6c0-2.1,0.3-3.9,1-5.5c0.6-1.6,1.5-2.9,2.5-3.9c1-1,2.2-1.8,3.6-2.4c1.4-0.5,2.8-0.8,4.2-0.8
		c3.3,0,6,1,7.9,3.1c1.9,2,2.9,5.1,2.9,9c0,0.4,0,0.8,0,1.3c0,0.5-0.1,0.9-0.1,1.2h-15.2c0.1,1.4,0.8,2.5,1.9,3.3
		c1.1,0.8,2.7,1.2,4.6,1.2c1.2,0,2.4-0.1,3.6-0.3c1.2-0.2,2.1-0.5,2.9-0.8l0.9,5.4c-0.4,0.2-0.8,0.4-1.4,0.5c-0.6,0.2-1.3,0.3-2,0.5
		c-0.7,0.1-1.5,0.2-2.4,0.3c-0.8,0.1-1.7,0.1-2.5,0.1c-2.1,0-4-0.3-5.5-0.9c-1.6-0.6-2.9-1.5-3.9-2.6c-1-1.1-1.8-2.4-2.3-3.9
		C261.2,97.9,261,96.3,261,94.6z M276.7,92c0-0.6-0.1-1.1-0.3-1.7c-0.2-0.5-0.4-1-0.8-1.4c-0.3-0.4-0.8-0.8-1.3-1
		c-0.5-0.3-1.2-0.4-2-0.4c-0.7,0-1.4,0.1-1.9,0.4c-0.5,0.3-1,0.6-1.3,1c-0.4,0.4-0.6,0.9-0.8,1.5c-0.2,0.6-0.3,1.1-0.4,1.7H276.7z"
		/>
	<path class="st0" d="M288.1,76.7l6.7-1.1v7h8v5.6h-8v8.3c0,1.4,0.2,2.5,0.7,3.4c0.5,0.8,1.5,1.3,3,1.3c0.7,0,1.5-0.1,2.2-0.2
		c0.8-0.1,1.5-0.3,2.1-0.6l0.9,5.2c-0.8,0.3-1.7,0.6-2.7,0.9c-1,0.2-2.2,0.4-3.6,0.4c-1.8,0-3.3-0.2-4.5-0.7
		c-1.2-0.5-2.2-1.2-2.9-2.1c-0.7-0.9-1.2-2-1.5-3.2c-0.3-1.3-0.4-2.6-0.4-4.2V76.7z"/>
	<path class="st0" d="M306.2,94.6c0-2.1,0.3-3.9,1-5.5c0.6-1.6,1.5-2.9,2.5-3.9c1-1,2.2-1.8,3.6-2.4c1.4-0.5,2.8-0.8,4.2-0.8
		c3.4,0,6,1,7.9,3.1c1.9,2,2.9,5.1,2.9,9c0,0.4,0,0.8,0,1.3c0,0.5-0.1,0.9-0.1,1.2h-15.2c0.1,1.4,0.8,2.5,1.9,3.3
		c1.1,0.8,2.7,1.2,4.6,1.2c1.2,0,2.4-0.1,3.6-0.3c1.2-0.2,2.1-0.5,2.9-0.8l0.9,5.4c-0.4,0.2-0.8,0.4-1.4,0.5c-0.6,0.2-1.3,0.3-2,0.5
		c-0.7,0.1-1.5,0.2-2.4,0.3c-0.8,0.1-1.7,0.1-2.5,0.1c-2.1,0-4-0.3-5.5-0.9c-1.6-0.6-2.9-1.5-3.9-2.6c-1-1.1-1.8-2.4-2.3-3.9
		C306.5,97.9,306.2,96.3,306.2,94.6z M321.9,92c0-0.6-0.1-1.1-0.3-1.7c-0.2-0.5-0.4-1-0.8-1.4c-0.3-0.4-0.8-0.8-1.3-1
		c-0.5-0.3-1.2-0.4-2-0.4c-0.7,0-1.4,0.1-1.9,0.4c-0.5,0.3-1,0.6-1.3,1c-0.4,0.4-0.6,0.9-0.8,1.5c-0.2,0.6-0.3,1.1-0.4,1.7H321.9z"
		/>
	<path class="st0" d="M340.3,101.4c1.2,0,2.1-0.1,2.6-0.4c0.5-0.2,0.8-0.7,0.8-1.4c0-0.5-0.3-1-1-1.4s-1.7-0.9-3-1.4
		c-1-0.4-2-0.8-2.9-1.2c-0.9-0.4-1.6-0.9-2.2-1.5c-0.6-0.6-1.1-1.3-1.4-2.1c-0.3-0.8-0.5-1.8-0.5-2.9c0-2.2,0.8-4,2.5-5.3
		c1.6-1.3,3.9-1.9,6.8-1.9c1.4,0,2.8,0.1,4.1,0.4c1.3,0.3,2.4,0.5,3.1,0.8l-1.2,5.2c-0.8-0.3-1.6-0.5-2.5-0.7
		c-0.9-0.2-1.9-0.3-3.1-0.3c-2.1,0-3.1,0.6-3.1,1.8c0,0.3,0,0.5,0.1,0.7c0.1,0.2,0.3,0.4,0.5,0.6c0.3,0.2,0.6,0.4,1.1,0.6
		c0.5,0.2,1.1,0.5,1.8,0.7c1.5,0.5,2.7,1.1,3.6,1.6c1,0.5,1.7,1.1,2.3,1.7c0.6,0.6,0.9,1.3,1.2,2c0.2,0.7,0.3,1.6,0.3,2.6
		c0,2.3-0.9,4.1-2.6,5.3c-1.8,1.2-4.2,1.8-7.4,1.8c-2.1,0-3.8-0.2-5.2-0.5c-1.4-0.4-2.4-0.7-2.9-0.9l1.1-5.4
		c1.1,0.4,2.3,0.8,3.5,1.1C338,101.2,339.2,101.4,340.3,101.4z"/>
</g>
</svg>
