<?xml version="1.0" encoding="utf-8"?>
<!-- Generator: Adobe Illustrator 19.2.1, SVG Export Plug-In . SVG Version: 6.00 Build 0)  -->
<svg version="1.1" id="Layer_1" xmlns="http://www.w3.org/2000/svg" xmlns:xlink="http://www.w3.org/1999/xlink" x="0px" y="0px"
	 viewBox="0 0 180 180" style="enable-background:new 0 0 180 180;" xml:space="preserve">
<style type="text/css">
	.st0{fill:#183B4D;}
	.st1{display:none;}
	.st2{display:inline;fill:#183B4D;}
	.st3{fill:#FFFFFF;}
	.st4{fill-rule:evenodd;clip-rule:evenodd;fill:#183B4D;}
	.st5{clip-path:url(#SVGID_2_);}
	.st6{clip-path:url(#SVGID_4_);fill:#183B4D;}
	.st7{clip-path:url(#SVGID_6_);}
	.st8{clip-path:url(#SVGID_8_);fill:#183B4D;}
	.st9{fill-rule:evenodd;clip-rule:evenodd;fill:#FFFFFF;}
	.st10{clip-path:url(#SVGID_10_);}
	.st11{clip-path:url(#SVGID_12_);fill:#183B4D;}
	.st12{fill:#234B5F;}
	.st13{fill:#2D5E72;}
	.st14{fill:#45778F;}
	.st15{fill:#7B9FB6;}
	.st16{fill:#CBD8E0;}
	.st17{fill:#F0F4F8;}
	.st18{fill:#CECDCA;}
	.st19{fill:#DC462F;}
	.st20{fill:#FFFFFF;stroke:#2D5E72;stroke-miterlimit:10;}
</style>
<g>
	<g>
		<defs>
			<path id="SVGID_5_" d="M-209.3-120.4l-6.7,6.7c-0.4,0.4-0.4,1,0,1.4l47.3,47.3c0.4,0.4,1,0.4,1.4,0l47.3-47.3
				c0.4-0.4,0.4-1,0-1.4l-6.7-6.7l-38.6,38.6c-1.5,1.5-4,1.5-5.5,0L-209.3-120.4z"/>
		</defs>
		<use xlink:href="#SVGID_5_"  style="overflow:visible;fill-rule:evenodd;clip-rule:evenodd;fill:#183B4D;"/>
		<clipPath id="SVGID_2_">
			<use xlink:href="#SVGID_5_"  style="overflow:visible;"/>
		</clipPath>
		<g class="st5">
			<defs>
				<rect id="SVGID_7_" x="-361.2" y="-245.6" width="386.4" height="289.8"/>
			</defs>
			<use xlink:href="#SVGID_7_"  style="overflow:visible;fill:#183B4D;"/>
			<clipPath id="SVGID_4_">
				<use xlink:href="#SVGID_7_"  style="overflow:visible;"/>
			</clipPath>
		</g>
	</g>
</g>
<g>
	<g>
		<defs>
			<path id="SVGID_9_" d="M270.5-121.2l-5.5,5.5c-0.3,0.3-0.3,0.8,0,1.1l39.2,39.2c0.3,0.3,0.8,0.3,1.1,0l39.2-39.2
				c0.3-0.3,0.3-0.8,0-1.1l-5.5-5.5L307-89.3c-1.2,1.2-3.3,1.2-4.5,0L270.5-121.2z"/>
		</defs>
		<use xlink:href="#SVGID_9_"  style="overflow:visible;fill-rule:evenodd;clip-rule:evenodd;fill:#183B4D;"/>
		<clipPath id="SVGID_6_">
			<use xlink:href="#SVGID_9_"  style="overflow:visible;"/>
		</clipPath>
		<g class="st7">
			<defs>
				<rect id="SVGID_11_" x="144.8" y="-224.8" width="319.7" height="239.8"/>
			</defs>
			<use xlink:href="#SVGID_11_"  style="overflow:visible;fill:#183B4D;"/>
			<clipPath id="SVGID_8_">
				<use xlink:href="#SVGID_11_"  style="overflow:visible;"/>
			</clipPath>
		</g>
	</g>
</g>
<g>
	<g>
		<path class="st0" d="M19.2,161c-2.3,0-4.4,0-6.6,0c0-9.1,0-18.1,0-27.1c0.1,0,0.1-0.1,0.2-0.1c4.3,0,8.6,0,12.9,0.2
			c3.7,0.2,6.3,2.5,6.8,5.7c0.7,4-1,7.2-4.5,8.8c-0.2,0.1-0.5,0.2-0.5,0.3c1,1.8,1.9,3.6,2.8,5.3c0.6,1.1,1.3,2.1,2.7,2.4
			c1.1,0.2,1.5,0,1.8-1.1c2.3-6.9,4.6-13.8,6.9-20.6c0.2-0.6,0.5-0.9,1.2-0.9c1.7,0.1,3.5,0,5.2,0c0.3,0,0.7,0.3,0.8,0.5
			c3,8.7,5.9,17.5,8.9,26.2c0,0.1,0.1,0.3,0.1,0.5c-2.1,0-4.2,0-6.2,0c-0.2,0-0.5-0.3-0.6-0.6c-0.5-1.3-0.9-2.7-1.3-4
			c-0.1-0.5-0.4-0.7-0.9-0.7c-2.6,0-5.2,0-7.9,0c-0.5,0-0.8,0.2-0.9,0.7c-0.4,1.3-0.8,2.6-1.2,3.9c-0.1,0.5-0.4,0.7-0.9,0.7
			c-2.2,0-4.4,0.1-6.5,0.2c-2.4,0.1-4.4-0.8-5.7-3c-0.7-1.3-1.3-2.7-2-4c-0.5-1-1-2-1.5-3c-0.6-1-1.6-1.2-2.6-1
			c-0.2,0-0.4,0.5-0.4,0.8c0,2.9,0,5.8,0,8.7C19.2,160.1,19.2,160.5,19.2,161z M19.2,145.6c1.7-0.2,3.4-0.2,4.9-0.6
			c1.4-0.4,2-1.9,1.9-3.5c-0.1-1.5-0.9-2.5-2.5-2.7c-1.3-0.2-2.5-0.1-3.8-0.1c-0.2,0-0.5,0.4-0.5,0.6
			C19.2,141.2,19.2,143.2,19.2,145.6z M45,140.9c-0.9,3.1-1.9,6.5-2.9,9.9c2,0,3.9,0,5.7,0C46.8,147.4,45.9,144,45,140.9z"/>
		<path class="st0" d="M63.7,143.1c0,6,0,12,0,18c-1.5,0-3.1,0-4.8,0c-0.2,0-0.4-0.3-0.5-0.5c-0.1-0.2,0-0.4,0-0.6
			c0-8.3,0-16.6,0-24.9c0-0.9,0.2-1.3,1.2-1.2c1.7,0.1,3.5,0,5.2,0c0.5,0,0.8,0.2,1.1,0.6c2.9,5.8,6.3,11.3,8.7,17.4
			c0,0.1,0.1,0.2,0.4,0.3c0-0.3,0-0.6,0-0.8c-0.1-5.6-0.2-11.1-0.2-16.7c0-0.4-0.1-0.8,0.6-0.8c1.6,0,3.2,0,4.8,0
			c0,9.1,0,18.1,0,27.3c-1.2,0-2.4,0-3.6,0c-1.1,0-2.4,0.3-3.3-0.2c-0.8-0.5-1.1-1.8-1.7-2.7c-1.9-3.5-3.9-7-5.8-10.6
			C65,146.1,64.4,144.6,63.7,143.1z"/>
		<path class="st0" d="M106.1,161c0-9.1,0-18,0-27.1c2.2,0,4.3,0,6.6,0c0,3.4,0,6.7,0,10.1c2.9,0,5.6,0,8.5,0c0-3.4,0-6.8,0-10.2
			c2.3,0,4.4,0,6.6,0c0,9,0,18.1,0,27.2c-2.2,0-4.3,0-6.6,0c0-0.4-0.1-0.7-0.1-1.1c0-3.2,0-6.4,0-9.6c0-0.7-0.2-1-1-0.9
			c-2.5,0-4.9,0-7.5,0c0,3.9,0,7.7,0,11.5C110.5,161,108.4,161,106.1,161z"/>
		<path class="st0" d="M150.5,161c0-9.1,0-18.1,0-27.1c0.3,0,0.5-0.1,0.7-0.1c3.6,0,7.1,0,10.7,0c1.1,0,2.2,0.2,3.2,0.4
			c3.2,0.8,5,2.9,5.4,6.3c0.4,2.9-1.1,5.9-3.7,7.4c-0.5,0.3-1,0.5-1.4,0.7c1,1.8,1.9,3.6,2.9,5.4c0.8,1.6,1.9,2.6,4,2.2
			c-0.2,1.5-0.3,2.9-0.5,4.3c0,0.2-0.4,0.4-0.6,0.4c-3.5,0.7-6.1,0.1-7.9-3.3c-0.7-1.3-1.3-2.8-1.9-4.2c-0.3-0.7-0.7-1.4-1.1-2.1
			c-0.5-0.9-1.2-1.3-2.3-1.3c-0.7,0-0.9,0.2-0.9,0.9c0,2.9,0,5.9,0,8.8c0,0.3,0,0.7,0,1.1C154.9,161,152.7,161,150.5,161z
			 M157.2,145.6c1.7-0.2,3.2-0.2,4.7-0.5c1.5-0.4,2.2-1.9,2.1-3.6c-0.1-1.6-1-2.6-2.5-2.8c-1.2-0.2-2.5-0.1-3.7-0.1
			c-0.2,0-0.5,0.4-0.5,0.6C157.1,141.2,157.2,143.2,157.2,145.6z"/>
		<path class="st0" d="M148.8,133.8c0,1.5,0,2.9,0,4.4c0,0.2-0.5,0.4-0.8,0.4c-3.1,0-6.2,0-9.3,0c-0.4,0-0.7,0-1.2,0
			c0,2,0,3.9,0,5.9c0.4,0,0.7,0.1,1.1,0.1c2,0,4,0,6,0c2.4,0,2.4,0,2.4,2.4c0,0.8,0,1.6,0,2.4c-3.2,0-6.3,0-9.5,0c0,2.2,0,4.3,0,6.5
			c3.9,0,7.7,0,11.6,0c0,1.7,0,3.3,0,4.9c-6.1,0-12.2,0-18.3,0c0-9,0-18.1,0-27.1C136.8,133.8,142.8,133.8,148.8,133.8z"/>
		<path class="st0" d="M99,151.4c1.8,0.2,3.4,0.4,5.1,0.5c0.8,0.1,0.7,0.6,0.7,1.1c-0.2,3.7-2,6.3-5.5,7.6
			c-3.4,1.3-6.8,1.3-10.3,0.1c-3.4-1.2-5.4-3.7-6.4-7.1c-1.2-4.2-1.2-8.4-0.1-12.6c1.3-4.6,4.7-7.3,9.5-7.8c2.4-0.2,4.7-0.1,7,0.6
			c4.1,1.3,6.2,5.1,5.3,9.5c-1.9,0.2-3.9,0.4-6,0.6c0-0.6,0-1.2,0-1.8c0-2.2-0.8-3.5-2.6-4.1c-2.1-0.7-4.2,0-5.4,1.6
			c-1,1.4-1.4,3.1-1.5,4.8c-0.3,2.7-0.3,5.4,0.5,8c0.9,3.2,3.1,4.6,6.1,4.1c2.3-0.4,3.6-2,3.6-4.4C99,152,99,151.8,99,151.4z"/>
	</g>
	<rect x="58.1" y="133.8" class="st0" width="5.6" height="27.4"/>
	<rect x="12.3" y="133.8" class="st0" width="7.1" height="27.4"/>
	<polygon class="st0" points="80,161.1 73,161.1 58.1,133.8 65.7,133.8 	"/>
	<polygon class="st0" points="58.1,161.1 51.1,161.1 41.9,133.8 48.8,133.8 	"/>
	<polygon class="st0" points="31.5,161.1 38.6,161.1 47.8,133.8 40.9,133.8 	"/>
	<rect x="74.4" y="133.8" class="st0" width="5.6" height="27.4"/>
	<rect x="105.9" y="133.8" class="st0" width="7" height="27.4"/>
	<rect x="120.9" y="133.8" class="st0" width="7" height="27.4"/>
	<rect x="130.6" y="133.8" class="st0" width="7" height="27.4"/>
	<rect x="150.3" y="133.8" class="st0" width="7" height="27.4"/>
	<rect x="136.1" y="133.8" class="st0" width="12.8" height="5"/>
	<rect x="134.1" y="144.6" class="st0" width="12.8" height="5"/>
	<rect x="110.9" y="144.1" class="st0" width="12.8" height="5.6"/>
	<rect x="38.4" y="150.5" class="st0" width="12.8" height="5.6"/>
	<rect x="134.1" y="156.1" class="st0" width="15.1" height="5"/>
</g>
<g>
	<path class="st0" d="M40.4,57.3c-2.3,1.8-4.4,3.4-6.3,5C33.2,63,32.6,63,31.8,62c-1.6-1.9-1.6-1.9-0.2-4c3-4.5,6-9.1,9-13.7
		c0.8-1.3,1.9-1.9,3.4-1.9c17.6,0,35.2,0,52.8,0c2.7,0,3.7,1.3,3.3,4c-0.3,1.8-0.6,3.6-0.9,5.4c-0.4,2.4,0.9,4,3.4,4
		c3.4,0,6.7,0,10.1,0c1.9,0,2.8-0.7,3.2-2.3c-3.1,0-6.2,0-9.4,0c-3.3,0-4.8-1.9-4.2-5.1c0.5-2.7,0.9-5.4,1.4-8.1
		c0.3-1.3,0.9-2.5,1.6-4c1.8,2.1,1.4,4.1,1.7,6.2c0.6,0,1.1,0,1.6,0c7.8,0,15.7,0,23.5,0c3.9,0,5.6,1.4,5.7,5.3
		c0.2,5.2,0,10.5,0,15.7c0,2.7,0,5.5,0,8.2c-0.1,2.5-1.8,4.2-4.3,4.2c-4.3,0-8.6,0-12.8,0c-2.6,0-4.4-1.9-4.4-4.5c0-3.1,0-6.2,0-9.8
		c-0.6,0.6-1.1,0.8-1.3,1.2c-0.4,1-0.9,2.1-1,3.2c-0.1,2.4-0.1,4.8,0,7.2c0.1,3.3,2.1,5.3,5.4,5.3c2.1,0,4.2,0,6.3,0
		c0.9,0,1.3,0.3,1.3,1.2c0,3.7,0,7.3,0,11c0,1.8-1.1,2.8-2.9,2.8c-4.9,0-9.9,0-14.8,0c-2,0-3-1.1-3-3c0-3.5,0-6.9,0-10.4
		c0-2.8-1.2-3.9-4-4c-12.2,0-24.4,0-36.7,0c-2.9,0-4,1.1-4,4.1c0,3.4,0,6.7,0,10.1c0,2.2-1,3.2-3.3,3.2c-4.6,0-9.3,0-13.9,0
		c-2.6,0-3.6-0.9-3.6-3.6c0-10.1,0-20.2,0-30.2C40.5,59.1,40.5,58.4,40.4,57.3z"/>
	<path class="st0" d="M148.8,36.7c0.5,1,1.1,1.9,1.3,2.9c0.6,3.2,1.2,6.4,1.6,9.6c0.3,2.8-1.2,4.3-4,4.3c-2.5,0-5.1,0-7.8,0
		c0-1.6,0-3.1,0-4.6c0-0.3,0.5-0.7,0.9-0.7c0.6-0.1,1.2,0,1.8-0.1c2.8-0.4,4.4-2.4,4.5-5.4c0.1-1.5,0.2-3,0.3-4.5
		c0.1-0.5,0.4-1,0.6-1.5C148.4,36.7,148.6,36.7,148.8,36.7z"/>
</g>
</svg>
