<?xml version="1.0" encoding="utf-8"?>
<!-- Generator: Adobe Illustrator 19.2.1, SVG Export Plug-In . SVG Version: 6.00 Build 0)  -->
<svg version="1.1" id="Layer_1" xmlns="http://www.w3.org/2000/svg" xmlns:xlink="http://www.w3.org/1999/xlink" x="0px" y="0px"
	 viewBox="0 0 180 180" style="enable-background:new 0 0 180 180;" xml:space="preserve">
<style type="text/css">
	.st0{fill:#183B4D;}
	.st1{display:none;}
	.st2{display:inline;fill:#183B4D;}
	.st3{fill:#FFFFFF;}
	.st4{fill-rule:evenodd;clip-rule:evenodd;fill:#183B4D;}
	.st5{clip-path:url(#SVGID_2_);}
	.st6{clip-path:url(#SVGID_4_);fill:#183B4D;}
	.st7{clip-path:url(#SVGID_6_);}
	.st8{clip-path:url(#SVGID_8_);fill:#183B4D;}
	.st9{fill-rule:evenodd;clip-rule:evenodd;fill:#FFFFFF;}
	.st10{clip-path:url(#SVGID_10_);}
	.st11{clip-path:url(#SVGID_12_);fill:#183B4D;}
	.st12{fill:#234B5F;}
	.st13{fill:#2D5E72;}
	.st14{fill:#45778F;}
	.st15{fill:#7B9FB6;}
	.st16{fill:#CBD8E0;}
	.st17{fill:#F0F4F8;}
	.st18{fill:#CECDCA;}
	.st19{fill:#DC462F;}
	.st20{fill:#FFFFFF;stroke:#2D5E72;stroke-miterlimit:10;}
</style>
<g>
	<g>
		<defs>
			<path id="SVGID_5_" d="M48.7-120.4l-6.7,6.7c-0.4,0.4-0.4,1,0,1.4L89.3-65c0.4,0.4,1,0.4,1.4,0l47.3-47.3c0.4-0.4,0.4-1,0-1.4
				l-6.7-6.7L92.7-81.8c-1.5,1.5-4,1.5-5.5,0L48.7-120.4z"/>
		</defs>
		<use xlink:href="#SVGID_5_"  style="overflow:visible;fill-rule:evenodd;clip-rule:evenodd;fill:#183B4D;"/>
		<clipPath id="SVGID_2_">
			<use xlink:href="#SVGID_5_"  style="overflow:visible;"/>
		</clipPath>
		<g class="st5">
			<defs>
				<rect id="SVGID_7_" x="-103.2" y="-245.6" width="386.4" height="289.8"/>
			</defs>
			<use xlink:href="#SVGID_7_"  style="overflow:visible;fill:#183B4D;"/>
			<clipPath id="SVGID_4_">
				<use xlink:href="#SVGID_7_"  style="overflow:visible;"/>
			</clipPath>
		</g>
	</g>
</g>
<g>
	<path class="st0" d="M159.9,70.6l-1.5-9.1c-0.5-2.9-1.6-5.3-2.5-5.3c-0.9,0-1.6,2.4-1.6,5.4V64c0,3-2.4,5.4-5.4,5.4h-2.4
		c-0.2,0-0.3,0-0.5,0v6.5c0.2,0,0.3,0,0.5,0h9C158.4,75.9,160.4,73.5,159.9,70.6z M138.4,62.9h-14.5c-0.1,0-0.2,0-0.4,0h-14.9
		c-0.2,0-0.3,0-0.5,0v-1.4c0-3-0.7-5.4-1.6-5.4c-0.9,0-2,2.4-2.5,5.3l-1.5,9.1c-0.5,2.9,1.5,5.3,4.5,5.3h9c0.9,0,1.8-0.1,2.6-0.4
		c-0.3,1.5-1.6,2.7-3.2,2.7h-12.6c-2,0-3.6-1.8-3.2-3.8l1.3-7.6c0.3-2-1.2-3.8-3.2-3.8H34.9c-1.3,0-2.5,0.8-3,1.9L20.1,82.8
		c-0.2,0.3-0.2,0.7,0.1,1l2.3,2.7c0.3,0.3,0.8,0.4,1.1,0.1l8-6.3v38.2c0,1.8,1.5,3.3,3.3,3.3h17.8c1.8,0,3.3-1.5,3.3-3.3v-13.3
		c0-1.8,1.5-3.3,3.3-3.3h44.3c1.8,0,3.3,1.5,3.3,3.3v13.3c0,1.8,1.5,3.3,3.3,3.3h17.8c1.8,0,3.3-1.5,3.3-3.3v-14.3h-9.4
		c-3,0-5.4-2.4-5.4-5.4v-9.2c0-1.8,0.9-3.3,2.2-4.3v11c0,3,2.4,5.4,5.4,5.4h14.5c3,0,5.4-2.4,5.4-5.4v-28
		C143.8,65.4,141.4,62.9,138.4,62.9z"/>
</g>
</svg>
