<svg xmlns="http://www.w3.org/2000/svg" width="738.635" height="126.65"><path d="M30.115 69.4c1.98-2.16 4.005-4.41 6.075-6.75 2.16-2.34 4.23-4.635 6.21-6.885 1.98-2.34 3.825-4.545 5.535-6.615 1.8-2.07 3.33-3.87 4.59-5.4H76.42a905.28 905.28 0 0 1-14.04 15.795c-4.5 4.95-9.45 10.08-14.85 15.39 2.7 2.43 5.49 5.355 8.37 8.775a191.86 191.86 0 0 1 8.37 10.395c2.7 3.6 5.175 7.2 7.425 10.8 2.25 3.6 4.14 6.885 5.67 9.855H54.28a211.443 211.443 0 0 0-4.995-7.695c-1.8-2.88-3.735-5.715-5.805-8.505a98.071 98.071 0 0 0-6.615-8.235c-2.25-2.61-4.5-4.815-6.75-6.615v31.05H10V13.24L30.115 10v59.4m117.229 42.93c-3.42.99-7.83 1.89-13.23 2.7-5.4.9-11.07 1.35-17.01 1.35-6.03 0-11.07-.81-15.12-2.43-3.96-1.62-7.11-3.87-9.45-6.75-2.34-2.97-4.005-6.48-4.995-10.53-.99-4.05-1.485-8.505-1.485-13.365V43.75h20.115v37.125c0 6.48.854 11.16 2.565 14.04 1.71 2.88 4.904 4.32 9.585 4.32 1.44 0 2.97-.045 4.59-.135 1.62-.18 3.06-.36 4.32-.54V43.75h20.115v68.58m64.508-33.615c0-12.96-4.77-19.44-14.31-19.44-2.07 0-4.14.27-6.21.81-1.98.54-3.6 1.215-4.86 2.025v36.585c.99.18 2.25.36 3.78.54 1.53.09 3.195.135 4.995.135 5.49 0 9.63-1.89 12.42-5.67 2.79-3.78 4.185-8.775 4.185-14.985m20.52.54c0 5.67-.855 10.8-2.565 15.39-1.62 4.59-4.005 8.505-7.155 11.745-3.15 3.24-7.02 5.76-11.61 7.56-4.59 1.71-9.81 2.565-15.66 2.565-2.43 0-4.995-.135-7.695-.405-2.61-.18-5.22-.45-7.83-.81-2.52-.36-4.95-.765-7.29-1.215-2.34-.54-4.41-1.08-6.21-1.62V13.24L186.472 10v35.37c2.25-.99 4.59-1.755 7.02-2.295 2.43-.54 5.04-.81 7.83-.81 5.04 0 9.495.9 13.365 2.7 3.87 1.71 7.11 4.185 9.72 7.425 2.61 3.24 4.59 7.155 5.94 11.745 1.35 4.5 2.025 9.54 2.025 15.12m12.085.54c0-6.3.945-11.79 2.835-16.47 1.98-4.77 4.545-8.73 7.695-11.88 3.15-3.15 6.75-5.535 10.8-7.155 4.14-1.62 8.37-2.43 12.69-2.43 10.08 0 18.045 3.105 23.895 9.315 5.85 6.12 8.775 15.165 8.775 27.135 0 1.17-.045 2.475-.135 3.915-.09 1.35-.18 2.565-.27 3.645h-45.63c.45 4.14 2.385 7.425 5.805 9.855 3.42 2.43 8.01 3.645 13.77 3.645 3.69 0 7.29-.315 10.8-.945 3.6-.72 6.525-1.575 8.775-2.565l2.7 16.335c-1.08.54-2.52 1.08-4.32 1.62-1.8.54-3.825.99-6.075 1.35-2.16.45-4.5.81-7.02 1.08-2.52.27-5.04.405-7.56.405-6.39 0-11.97-.945-16.74-2.835-4.68-1.89-8.595-4.455-11.745-7.695-3.06-3.33-5.355-7.245-6.885-11.745-1.44-4.5-2.16-9.36-2.16-14.58m47.25-7.695a18.86 18.86 0 0 0-.945-4.995 11.136 11.136 0 0 0-2.295-4.32c-.99-1.26-2.295-2.295-3.915-3.105-1.53-.81-3.465-1.215-5.805-1.215-2.25 0-4.185.405-5.805 1.215-1.62.72-2.97 1.71-4.05 2.97-1.08 1.26-1.935 2.745-2.565 4.455a31.108 31.108 0 0 0-1.215 4.995h26.595m77.758-10.53c-1.8-.45-3.915-.9-6.345-1.35-2.43-.54-5.04-.81-7.83-.81-1.26 0-2.79.135-4.59.405-1.71.18-3.015.405-3.915.675v54.27H326.67V47.53c3.6-1.26 7.83-2.43 12.69-3.51 4.95-1.17 10.44-1.755 16.47-1.755 1.08 0 2.385.09 3.915.27 1.53.09 3.06.27 4.59.54 1.53.18 3.06.45 4.59.81 1.53.27 2.835.63 3.915 1.08l-3.375 16.605m14.158-15.39c3.42-.99 7.83-1.89 13.23-2.7 5.4-.9 11.07-1.35 17.01-1.35 6.03 0 11.025.81 14.985 2.43 4.05 1.53 7.245 3.735 9.585 6.615 2.34 2.88 4.005 6.3 4.995 10.26.99 3.96 1.485 8.37 1.485 13.23v40.095h-20.115V77.095c0-6.48-.855-11.07-2.565-13.77-1.71-2.7-4.905-4.05-9.585-4.05-1.44 0-2.97.09-4.59.27-1.62.09-3.06.225-4.32.405v54.81h-20.115V46.18m76.254 33.615c0-6.3.945-11.79 2.835-16.47 1.98-4.77 4.545-8.73 7.695-11.88 3.15-3.15 6.75-5.535 10.8-7.155 4.14-1.62 8.37-2.43 12.69-2.43 10.08 0 18.045 3.105 23.895 9.315 5.85 6.12 8.775 15.165 8.775 27.135 0 1.17-.045 2.475-.135 3.915-.09 1.35-.18 2.565-.27 3.645h-45.63c.45 4.14 2.385 7.425 5.805 9.855 3.42 2.43 8.01 3.645 13.77 3.645 3.69 0 7.29-.315 10.8-.945 3.6-.72 6.525-1.575 8.775-2.565l2.7 16.335c-1.08.54-2.52 1.08-4.32 1.62-1.8.54-3.825.99-6.075 1.35-2.16.45-4.5.81-7.02 1.08-2.52.27-5.04.405-7.56.405-6.39 0-11.97-.945-16.74-2.835-4.68-1.89-8.595-4.455-11.745-7.695-3.06-3.33-5.355-7.245-6.885-11.745-1.44-4.5-2.16-9.36-2.16-14.58m47.25-7.695a18.865 18.865 0 0 0-.945-4.995 11.136 11.136 0 0 0-2.295-4.32c-.99-1.26-2.295-2.295-3.915-3.105-1.53-.81-3.465-1.215-5.805-1.215-2.25 0-4.185.405-5.805 1.215-1.62.72-2.97 1.71-4.05 2.97-1.08 1.26-1.935 2.745-2.565 4.455a31.109 31.109 0 0 0-1.215 4.995h26.595m34.288-46.035l20.115-3.24V43.75h24.165v16.74H561.53v24.975c0 4.23.72 7.605 2.16 10.125 1.53 2.52 4.545 3.78 9.045 3.78 2.16 0 4.365-.18 6.615-.54 2.34-.45 4.455-1.035 6.345-1.755l2.835 15.66c-2.43.99-5.13 1.845-8.1 2.565-2.97.72-6.615 1.08-10.935 1.08-5.49 0-10.035-.72-13.635-2.16-3.6-1.53-6.48-3.6-8.64-6.21-2.16-2.7-3.69-5.94-4.59-9.72-.81-3.78-1.215-7.965-1.215-12.555v-59.67m54.517 53.73c0-6.3.945-11.79 2.835-16.47 1.98-4.77 4.545-8.73 7.695-11.88 3.15-3.15 6.75-5.535 10.8-7.155 4.14-1.62 8.37-2.43 12.69-2.43 10.08 0 18.045 3.105 23.895 9.315 5.85 6.12 8.775 15.165 8.775 27.135 0 1.17-.045 2.475-.135 3.915-.09 1.35-.18 2.565-.27 3.645h-45.63c.45 4.14 2.385 7.425 5.805 9.855 3.42 2.43 8.01 3.645 13.77 3.645 3.69 0 7.29-.315 10.8-.945 3.6-.72 6.525-1.575 8.775-2.565l2.7 16.335c-1.08.54-2.52 1.08-4.32 1.62-1.8.54-3.825.99-6.075 1.35-2.16.45-4.5.81-7.02 1.08-2.52.27-5.04.405-7.56.405-6.39 0-11.97-.945-16.74-2.835-4.68-1.89-8.595-4.455-11.745-7.695-3.06-3.33-5.355-7.245-6.885-11.745-1.44-4.5-2.16-9.36-2.16-14.58m47.25-7.695a18.86 18.86 0 0 0-.945-4.995 11.136 11.136 0 0 0-2.295-4.32c-.99-1.26-2.295-2.295-3.915-3.105-1.53-.81-3.465-1.215-5.805-1.215-2.25 0-4.185.405-5.805 1.215-1.62.72-2.97 1.71-4.05 2.97-1.08 1.26-1.935 2.745-2.565 4.455a31.107 31.107 0 0 0-1.215 4.995h26.595m55.348 28.215c3.69 0 6.3-.36 7.83-1.08 1.53-.72 2.294-2.115 2.295-4.185 0-1.62-.99-3.015-2.97-4.185-1.98-1.26-4.996-2.655-9.045-4.185-3.15-1.17-6.03-2.385-8.64-3.645-2.52-1.26-4.68-2.745-6.48-4.455-1.8-1.8-3.195-3.915-4.185-6.345-.99-2.43-1.485-5.355-1.485-8.775 0-6.66 2.475-11.925 7.425-15.795 4.95-3.87 11.745-5.805 20.385-5.805 4.32 0 8.46.405 12.42 1.215 3.96.72 7.11 1.53 9.45 2.43l-3.51 15.66c-2.34-.81-4.906-1.53-7.695-2.16-2.7-.63-5.76-.945-9.18-.945-6.3 0-9.45 1.755-9.45 5.265 0 .81.134 1.53.405 2.16.27.63.81 1.26 1.62 1.89.81.54 1.89 1.17 3.24 1.89 1.44.63 3.24 1.35 5.4 2.16 4.41 1.62 8.054 3.24 10.935 4.86 2.88 1.53 5.13 3.24 6.75 5.13 1.71 1.8 2.88 3.825 3.51 6.075.72 2.25 1.08 4.86 1.08 7.83 0 7.02-2.656 12.33-7.965 15.93-5.22 3.6-12.646 5.4-22.275 5.4-6.3 0-11.565-.54-15.795-1.62-4.14-1.08-7.02-1.98-8.64-2.7l3.375-16.335a71.2 71.2 0 0 0 10.53 3.24c3.6.72 7.155 1.08 10.665 1.08" style="-inkscape-font-specification:Ubuntu Bold" font-size="135" font-weight="700" letter-spacing="0" word-spacing="0" fill="#326de5" font-family="Ubuntu"/></svg>