<?xml version="1.0" encoding="utf-8"?>
<!-- Generator: Adobe Illustrator 19.2.1, SVG Export Plug-In . SVG Version: 6.00 Build 0)  -->
<svg version="1.1" id="Layer_1" xmlns="http://www.w3.org/2000/svg" xmlns:xlink="http://www.w3.org/1999/xlink" x="0px" y="0px"
	 viewBox="0 0 180 180" style="enable-background:new 0 0 180 180;" xml:space="preserve">
<style type="text/css">
	.st0{fill:#234B5F;}
	.st1{display:none;}
	.st2{display:inline;fill:#234B5F;}
	.st3{fill:#FFFFFF;}
	.st4{fill-rule:evenodd;clip-rule:evenodd;fill:#234B5F;}
	.st5{clip-path:url(#SVGID_2_);}
	.st6{clip-path:url(#SVGID_4_);fill:#234B5F;}
	.st7{clip-path:url(#SVGID_6_);}
	.st8{clip-path:url(#SVGID_8_);fill:#234B5F;}
	.st9{fill-rule:evenodd;clip-rule:evenodd;fill:#FFFFFF;}
	.st10{clip-path:url(#SVGID_10_);}
	.st11{clip-path:url(#SVGID_12_);fill:#234B5F;}
</style>
<g>
	<g>
		<defs>
			<path id="SVGID_1_" d="M51.7-146.6l-6.3,6.3c-0.4,0.4-0.4,0.9,0,1.3l44.7,44.7c0.4,0.4,0.9,0.4,1.3,0l44.7-44.7
				c0.4-0.4,0.4-0.9,0-1.3l-6.3-6.3l-36.4,36.4c-1.4,1.4-3.7,1.4-5.2,0L51.7-146.6z"/>
		</defs>
		<use xlink:href="#SVGID_1_"  style="overflow:visible;fill-rule:evenodd;clip-rule:evenodd;fill:#234B5F;"/>
		<clipPath id="SVGID_2_">
			<use xlink:href="#SVGID_1_"  style="overflow:visible;"/>
		</clipPath>
		<g class="st5">
			<defs>
				<rect id="SVGID_3_" x="-91.7" y="-264.8" width="364.8" height="273.6"/>
			</defs>
			<use xlink:href="#SVGID_3_"  style="overflow:visible;fill:#234B5F;"/>
			<clipPath id="SVGID_4_">
				<use xlink:href="#SVGID_3_"  style="overflow:visible;"/>
			</clipPath>
		</g>
	</g>
</g>
<g>
	<g>
		<defs>
			<path id="SVGID_5_" d="M-212.6-119.1l-7.2,7.2c-0.4,0.4-0.4,1.1,0,1.5l51.1,51.1c0.4,0.4,1.1,0.4,1.5,0l51.1-51.1
				c0.4-0.4,0.4-1.1,0-1.5l-7.2-7.2l-41.6,41.6c-1.6,1.6-4.3,1.6-5.9,0L-212.6-119.1z"/>
		</defs>
		<use xlink:href="#SVGID_5_"  style="overflow:visible;fill-rule:evenodd;clip-rule:evenodd;fill:#234B5F;"/>
		<clipPath id="SVGID_6_">
			<use xlink:href="#SVGID_5_"  style="overflow:visible;"/>
		</clipPath>
		<g class="st7">
			<defs>
				<rect id="SVGID_7_" x="-376.4" y="-254.1" width="416.8" height="312.6"/>
			</defs>
			<use xlink:href="#SVGID_7_"  style="overflow:visible;fill:#234B5F;"/>
			<clipPath id="SVGID_8_">
				<use xlink:href="#SVGID_7_"  style="overflow:visible;"/>
			</clipPath>
		</g>
	</g>
</g>
<g>
	<g>
		<defs>
			<path id="SVGID_9_" d="M274-119.4l-6.7,6.7c-0.4,0.4-0.4,1,0,1.4L315-63.5c0.4,0.4,1,0.4,1.4,0l47.7-47.7c0.4-0.4,0.4-1,0-1.4
				l-6.7-6.7l-38.9,38.9c-1.5,1.5-4,1.5-5.5,0L274-119.4z"/>
		</defs>
		<use xlink:href="#SVGID_9_"  style="overflow:visible;fill-rule:evenodd;clip-rule:evenodd;fill:#234B5F;"/>
		<clipPath id="SVGID_10_">
			<use xlink:href="#SVGID_9_"  style="overflow:visible;"/>
		</clipPath>
		<g class="st10">
			<defs>
				<rect id="SVGID_11_" x="120.9" y="-245.6" width="389.6" height="292.2"/>
			</defs>
			<use xlink:href="#SVGID_11_"  style="overflow:visible;fill:#234B5F;"/>
			<clipPath id="SVGID_12_">
				<use xlink:href="#SVGID_11_"  style="overflow:visible;"/>
			</clipPath>
		</g>
	</g>
</g>
<g>
	<g>
		<path class="st0" d="M18.2,129c-2.3,0-4.4,0-6.6,0c0-9.1,0-18.1,0-27.1c0.1,0,0.1-0.1,0.2-0.1c4.3,0,8.6,0,12.9,0.2
			c3.7,0.2,6.3,2.5,6.8,5.7c0.7,4-1,7.2-4.5,8.8c-0.2,0.1-0.5,0.2-0.5,0.3c1,1.8,1.9,3.6,2.8,5.3c0.6,1.1,1.3,2.1,2.7,2.4
			c1.1,0.2,1.5,0,1.8-1.1c2.3-6.9,4.6-13.8,6.9-20.6c0.2-0.6,0.5-0.9,1.2-0.9c1.7,0.1,3.5,0,5.2,0c0.3,0,0.7,0.3,0.8,0.5
			c3,8.7,5.9,17.5,8.9,26.2c0,0.1,0.1,0.3,0.1,0.5c-2.1,0-4.2,0-6.2,0c-0.2,0-0.5-0.3-0.6-0.6c-0.5-1.3-0.9-2.7-1.3-4
			c-0.1-0.5-0.4-0.7-0.9-0.7c-2.6,0-5.2,0-7.9,0c-0.5,0-0.8,0.2-0.9,0.7c-0.4,1.3-0.8,2.6-1.2,3.9c-0.1,0.5-0.4,0.7-0.9,0.7
			c-2.2,0-4.4,0.1-6.5,0.2c-2.4,0.1-4.4-0.8-5.7-3c-0.7-1.3-1.3-2.7-2-4c-0.5-1-1-2-1.5-3c-0.6-1-1.6-1.2-2.6-1
			c-0.2,0-0.4,0.5-0.4,0.8c0,2.9,0,5.8,0,8.7C18.2,128.1,18.2,128.5,18.2,129z M18.2,113.6c1.7-0.2,3.4-0.2,4.9-0.6
			c1.4-0.4,2-1.9,1.9-3.5c-0.1-1.5-0.9-2.5-2.5-2.7c-1.3-0.2-2.5-0.1-3.8-0.1c-0.2,0-0.5,0.4-0.5,0.6
			C18.2,109.2,18.2,111.2,18.2,113.6z M44,108.9c-0.9,3.1-1.9,6.5-2.9,9.9c2,0,3.9,0,5.7,0C45.8,115.4,44.9,112,44,108.9z"/>
		<path class="st0" d="M62.7,111.1c0,6,0,12,0,18c-1.5,0-3.1,0-4.8,0c-0.2,0-0.4-0.3-0.5-0.5c-0.1-0.2,0-0.4,0-0.6
			c0-8.3,0-16.6,0-24.9c0-0.9,0.2-1.3,1.2-1.2c1.7,0.1,3.5,0,5.2,0c0.5,0,0.8,0.2,1.1,0.6c2.9,5.8,6.3,11.3,8.7,17.4
			c0,0.1,0.1,0.2,0.4,0.3c0-0.3,0-0.6,0-0.8c-0.1-5.6-0.2-11.1-0.2-16.7c0-0.4-0.1-0.8,0.6-0.8c1.6,0,3.2,0,4.8,0
			c0,9.1,0,18.1,0,27.3c-1.2,0-2.4,0-3.6,0c-1.1,0-2.4,0.3-3.3-0.2c-0.8-0.5-1.1-1.8-1.7-2.7c-1.9-3.5-3.9-7-5.8-10.6
			C64,114.1,63.4,112.6,62.7,111.1z"/>
		<path class="st0" d="M105.1,129c0-9.1,0-18,0-27.1c2.2,0,4.3,0,6.6,0c0,3.4,0,6.7,0,10.1c2.9,0,5.6,0,8.5,0c0-3.4,0-6.8,0-10.2
			c2.3,0,4.4,0,6.6,0c0,9,0,18.1,0,27.2c-2.2,0-4.3,0-6.6,0c0-0.4-0.1-0.7-0.1-1.1c0-3.2,0-6.4,0-9.6c0-0.7-0.2-1-1-0.9
			c-2.5,0-4.9,0-7.5,0c0,3.9,0,7.7,0,11.5C109.5,129,107.4,129,105.1,129z"/>
		<path class="st0" d="M149.5,129c0-9.1,0-18.1,0-27.1c0.3,0,0.5-0.1,0.7-0.1c3.6,0,7.1,0,10.7,0c1.1,0,2.2,0.2,3.2,0.4
			c3.2,0.8,5,2.9,5.4,6.3c0.4,2.9-1.1,5.9-3.7,7.4c-0.5,0.3-1,0.5-1.4,0.7c1,1.8,1.9,3.6,2.9,5.4c0.8,1.6,1.9,2.6,4,2.2
			c-0.2,1.5-0.3,2.9-0.5,4.3c0,0.2-0.4,0.4-0.6,0.4c-3.5,0.7-6.1,0.1-7.9-3.3c-0.7-1.3-1.3-2.8-1.9-4.2c-0.3-0.7-0.7-1.4-1.1-2.1
			c-0.5-0.9-1.2-1.3-2.3-1.3c-0.7,0-0.9,0.2-0.9,0.9c0,2.9,0,5.9,0,8.8c0,0.3,0,0.7,0,1.1C153.9,129,151.7,129,149.5,129z
			 M156.2,113.6c1.7-0.2,3.2-0.2,4.7-0.5c1.5-0.4,2.2-1.9,2.1-3.6c-0.1-1.6-1-2.6-2.5-2.8c-1.2-0.2-2.5-0.1-3.7-0.1
			c-0.2,0-0.5,0.4-0.5,0.6C156.1,109.2,156.2,111.2,156.2,113.6z"/>
		<path class="st0" d="M147.8,101.8c0,1.5,0,2.9,0,4.4c0,0.2-0.5,0.4-0.8,0.4c-3.1,0-6.2,0-9.3,0c-0.4,0-0.7,0-1.2,0
			c0,2,0,3.9,0,5.9c0.4,0,0.7,0.1,1.1,0.1c2,0,4,0,6,0c2.4,0,2.4,0,2.4,2.4c0,0.8,0,1.6,0,2.4c-3.2,0-6.3,0-9.5,0c0,2.2,0,4.3,0,6.5
			c3.9,0,7.7,0,11.6,0c0,1.7,0,3.3,0,4.9c-6.1,0-12.2,0-18.3,0c0-9,0-18.1,0-27.1C135.8,101.8,141.8,101.8,147.8,101.8z"/>
		<path class="st0" d="M98,119.4c1.8,0.2,3.4,0.4,5.1,0.5c0.8,0.1,0.7,0.6,0.7,1.1c-0.2,3.7-2,6.3-5.5,7.6
			c-3.4,1.3-6.8,1.3-10.3,0.1c-3.4-1.2-5.4-3.7-6.4-7.1c-1.2-4.2-1.2-8.4-0.1-12.6c1.3-4.6,4.7-7.3,9.5-7.8c2.4-0.2,4.7-0.1,7,0.6
			c4.1,1.3,6.2,5.1,5.3,9.5c-1.9,0.2-3.9,0.4-6,0.6c0-0.6,0-1.2,0-1.8c0-2.2-0.8-3.5-2.6-4.1c-2.1-0.7-4.2,0-5.4,1.6
			c-1,1.4-1.4,3.1-1.5,4.8c-0.3,2.7-0.3,5.4,0.5,8c0.9,3.2,3.1,4.6,6.1,4.1c2.3-0.4,3.6-2,3.6-4.4C98,120,98,119.8,98,119.4z"/>
	</g>
	<rect x="57.1" y="101.8" class="st0" width="5.6" height="27.4"/>
	<rect x="11.3" y="101.8" class="st0" width="7.1" height="27.4"/>
	<polygon class="st0" points="79,129.1 72,129.1 57.1,101.8 64.7,101.8 	"/>
	<polygon class="st0" points="57.1,129.1 50.1,129.1 40.9,101.8 47.8,101.8 	"/>
	<polygon class="st0" points="30.5,129.1 37.6,129.1 46.8,101.8 39.9,101.8 	"/>
	<rect x="73.4" y="101.8" class="st0" width="5.6" height="27.4"/>
	<rect x="104.9" y="101.8" class="st0" width="7" height="27.4"/>
	<rect x="119.9" y="101.8" class="st0" width="7" height="27.4"/>
	<rect x="129.6" y="101.8" class="st0" width="7" height="27.4"/>
	<rect x="149.3" y="101.8" class="st0" width="7" height="27.4"/>
	<rect x="135.1" y="101.8" class="st0" width="12.8" height="5"/>
	<rect x="133.1" y="112.6" class="st0" width="12.8" height="5"/>
	<rect x="109.9" y="112.1" class="st0" width="12.8" height="5.6"/>
	<rect x="37.4" y="118.5" class="st0" width="12.8" height="5.6"/>
	<rect x="133.1" y="124.1" class="st0" width="15.1" height="5"/>
</g>
<g>
	<path class="st0" d="M60,63.2c-1.4,1.1-2.7,2.1-3.9,3.1c-0.6,0.5-0.9,0.4-1.4-0.1c-1-1.2-1-1.2-0.1-2.5c1.8-2.8,3.7-5.6,5.5-8.4
		c0.5-0.8,1.2-1.1,2.1-1.1c10.8,0,21.6,0,32.5,0c1.7,0,2.3,0.8,2,2.4c-0.2,1.1-0.4,2.2-0.6,3.3c-0.2,1.5,0.6,2.4,2.1,2.5
		c2.1,0,4.1,0,6.2,0c1.2,0,1.7-0.4,1.9-1.4c-1.9,0-3.8,0-5.8,0c-2,0-3-1.2-2.6-3.1c0.3-1.7,0.5-3.3,0.9-5c0.2-0.8,0.6-1.5,1-2.5
		c1.1,1.3,0.9,2.5,1,3.8c0.3,0,0.7,0,1,0c4.8,0,9.6,0,14.5,0c2.4,0,3.4,0.8,3.5,3.2c0.1,3.2,0,6.4,0,9.7c0,1.7,0,3.4,0,5.1
		c0,1.5-1.1,2.6-2.7,2.6c-2.6,0-5.3,0-7.9,0c-1.6,0-2.7-1.2-2.7-2.7c0-1.9,0-3.8,0-6c-0.4,0.3-0.7,0.5-0.8,0.7
		c-0.3,0.6-0.5,1.3-0.6,1.9c-0.1,1.5,0,2.9,0,4.4c0,2,1.3,3.3,3.3,3.3c1.3,0,2.6,0,3.8,0c0.6,0,0.8,0.2,0.8,0.8c0,2.3,0,4.5,0,6.8
		c0,1.1-0.7,1.7-1.8,1.7c-3,0-6.1,0-9.1,0c-1.2,0-1.8-0.7-1.8-1.9c0-2.1,0-4.3,0-6.4c0-1.7-0.7-2.4-2.5-2.4c-7.5,0-15,0-22.5,0
		c-1.8,0-2.5,0.7-2.5,2.5c0,2.1,0,4.1,0,6.2c0,1.4-0.6,2-2,2c-2.8,0-5.7,0-8.5,0c-1.6,0-2.2-0.6-2.2-2.2c0-6.2,0-12.4,0-18.6
		C60.1,64.3,60,63.9,60,63.2z"/>
	<path class="st0" d="M126.6,50.6c0.3,0.6,0.7,1.2,0.8,1.8c0.4,2,0.7,3.9,1,5.9c0.2,1.7-0.7,2.7-2.4,2.7c-1.6,0-3.1,0-4.8,0
		c0-1,0-1.9,0-2.8c0-0.2,0.3-0.4,0.5-0.5c0.4-0.1,0.7,0,1.1-0.1c1.7-0.3,2.7-1.4,2.8-3.3c0-0.9,0.1-1.9,0.2-2.8
		c0-0.3,0.3-0.6,0.4-0.9C126.3,50.6,126.5,50.6,126.6,50.6z"/>
</g>
</svg>
