<?xml version="1.0" encoding="utf-8"?>
<!-- Generator: Adobe Illustrator 19.2.1, SVG Export Plug-In . SVG Version: 6.00 Build 0)  -->
<svg version="1.1" id="Layer_1" xmlns="http://www.w3.org/2000/svg" xmlns:xlink="http://www.w3.org/1999/xlink" x="0px" y="0px"
	 viewBox="0 0 180 180" style="enable-background:new 0 0 180 180;" xml:space="preserve">
<style type="text/css">
	.st0{fill:#2D5E72;}
	.st1{display:none;}
	.st2{display:inline;fill:#2D5E72;}
	.st3{fill:#FFFFFF;}
	.st4{fill:#46778A;}
</style>
<g>
	<g id="body_colors_21_">
		<path class="st0" d="M148.5,42.7c0.9-7.3-4.5-13-7.9-15.7c-3.9,4.5-4.5,16.3,1.6,21.3c-3.4,3-10.6,5.8-18,5.8H34.7
			c-0.7,7.7,0.6,14.8,3.7,20.8l1,1.9c0.6,1.1,1.4,2.2,2.1,3.2l0,0c3.7,0.2,7.1,0.3,10.2,0.2l0,0c6.1-0.1,11.1-0.9,14.9-2.2
			c0.6-0.2,1.2,0.1,1.4,0.7c0.2,0.6-0.1,1.2-0.7,1.4c-0.5,0.2-1,0.3-1.6,0.5l0,0c-3,0.8-6.2,1.4-10.3,1.7c0.2,0-0.3,0-0.3,0
			c-0.1,0-0.3,0-0.5,0c-1.6,0.1-3.4,0.1-5.2,0.1c-2,0-3.9,0-6-0.1h-0.1c7.5,8.4,19.1,13.4,33.8,13.4c31,0,57.2-13.7,68.9-44.5
			c8.3,0.8,16.2-1.3,19.8-8.3C160.1,39.5,152.8,40.6,148.5,42.7z"/>
		<path class="st0" d="M148.5,42.7c0.9-7.3-4.5-13-7.9-15.7c-3.9,4.5-4.5,16.3,1.6,21.3c-3.4,3-10.6,5.8-18,5.8H40
			c-0.4,11.8,4,20.7,11.7,26.1l0,0c6.1-0.1,11.1-0.9,14.9-2.2c0.6-0.2,1.2,0.1,1.4,0.7c0.2,0.6-0.1,1.2-0.7,1.4
			c-0.5,0.2-1,0.3-1.6,0.5l0,0c-3,0.8-6.4,1.5-10.5,1.7l-0.1-0.1c10.5,5.4,25.8,5.4,43.3-1.3c19.6-7.5,37.9-21.9,50.7-38.4
			C148.9,42.5,148.7,42.6,148.5,42.7z"/>
		<path class="st0" d="M34.8,63.4c0.6,4.1,1.8,8,3.5,11.5l1,1.9c0.6,1.1,1.4,2.2,2.1,3.2c3.7,0.2,7.1,0.3,10.2,0.2
			c6.1-0.1,11.1-0.9,14.9-2.2c0.6-0.2,1.2,0.1,1.4,0.7c0.2,0.6-0.1,1.2-0.7,1.4c-0.5,0.2-1,0.3-1.6,0.5l0,0c-3,0.8-6.4,1.5-10.5,1.7
			c-0.1,0-0.4,0-0.5,0c-1.6,0.1-3.3,0.1-5.1,0.1c-2,0-4,0-6.1-0.1c7.5,8.4,19.2,13.4,33.8,13.4c26.5,0,49.6-10.1,63-32.3L34.8,63.4z
			"/>
		<path class="st0" d="M40.8,63.4c1.6,7.2,5.4,12.9,10.9,16.8c6.1-0.1,11.1-0.9,14.9-2.2c0.6-0.2,1.2,0.1,1.4,0.7
			c0.2,0.6-0.1,1.2-0.7,1.4c-0.5,0.2-1,0.3-1.6,0.5l0,0c-3,0.8-6.5,1.5-10.6,1.7c10.5,5.4,25.8,5.3,43.3-1.4
			c10.6-4.1,20.8-10.1,29.9-17.4L40.8,63.4L40.8,63.4z"/>
	</g>
	<g class="st1">
		<path class="st2" d="M49.5,82.3c1.8,0,3.5,0,5.1-0.1c0.1,0,0.3,0,0.4,0l0,0c4.1-0.3,7.7-0.8,10.6-1.7l0,0c0.5-0.2,1.1-0.3,1.6-0.5
			c0.6-0.2,0.9-0.8,0.7-1.4s-0.8-0.9-1.4-0.7c-3.8,1.3-8.8,2-14.9,2.2l0,0c-3.1,0.1-6.5,0-10.2-0.2l0,0c-0.2,0-0.4,0-0.6,0
			c-0.6,0-1.1,0.4-1.1,1s0.4,1.1,1,1.1c0.8,0.1,1.5,0.1,2.2,0.1c0.1,0,0.2,0,0.3,0l0,0C45.5,82.3,47.6,82.3,49.5,82.3z"/>
	</g>
	<g id="Containers_21_">
		<path class="st0" d="M57,40.8h1v10.1h-1V40.8z M55.1,40.8h1v10.1h-1V40.8z M53.3,40.8h1v10.1h-1V40.8z M51.5,40.8h1v10.1h-1V40.8z
			 M49.6,40.8h1v10.1h-1V40.8z M47.8,40.8h1v10.1h-1V40.8z M46.8,39.8h12.1v12.1H46.8V39.8z"/>
		<path class="st0" d="M70.9,26.8h1v10.1h-1V26.8z M69,26.8h1v10.1h-1V26.8z M67.2,26.8h1v10.1h-1V26.8z M65.4,26.8h1v10.1h-1V26.8z
			 M63.6,26.8h1v10.1h-1V26.8z M61.8,26.8h1v10.1h-1V26.8z M60.8,25.8h12.1v12.1H60.8V25.8z"/>
		<path class="st0" d="M70.9,40.8h1v10.1h-1V40.8z M69,40.8h1v10.1h-1V40.8z M67.2,40.8h1v10.1h-1V40.8z M65.4,40.8h1v10.1h-1V40.8z
			 M63.6,40.8h1v10.1h-1V40.8z M61.8,40.8h1v10.1h-1V40.8z M60.8,39.8h12.1v12.1H60.8V39.8z"/>
		<path class="st0" d="M84.8,40.8h1v10.1h-1V40.8z M83,40.8h1v10.1h-1V40.8z M81.2,40.8h1v10.1h-1V40.8z M79.3,40.8h1v10.1h-1V40.8z
			 M77.5,40.8h1v10.1h-1V40.8z M75.8,40.8h1v10.1h-1V40.8z M74.8,39.8h12.1v12.1H74.8V39.8z"/>
		<path class="st0" d="M84.8,26.8h1v10.1h-1V26.8z M83,26.8h1v10.1h-1V26.8z M81.2,26.8h1v10.1h-1V26.8z M79.3,26.8h1v10.1h-1V26.8z
			 M77.5,26.8h1v10.1h-1V26.8z M75.8,26.8h1v10.1h-1V26.8z M74.8,25.8h12.1v12.1H74.8V25.8z"/>
		<path class="st0" d="M98.8,40.8h1v10.1h-1V40.8z M97,40.8h1v10.1h-1V40.8z M95.2,40.8h1v10.1h-1V40.8z M93.3,40.8h1v10.1h-1V40.8z
			 M91.5,40.8h1v10.1h-1V40.8z M89.8,40.8h1v10.1h-1V40.8z M88.8,39.8h12.1v12.1H88.8V39.8z"/>
		<path class="st0" d="M98.8,26.8h1v10.1h-1V26.8z M97,26.8h1v10.1h-1V26.8z M95.2,26.8h1v10.1h-1V26.8z M93.3,26.8h1v10.1h-1V26.8z
			 M91.5,26.8h1v10.1h-1V26.8z M89.8,26.8h1v10.1h-1V26.8z M88.8,25.8h12.1v12.1H88.8V25.8z"/>
		<path class="st0" d="M98.8,12.8h1v10.1h-1V12.8z M97,12.8h1v10.1h-1V12.8z M95.2,12.8h1v10.1h-1V12.8z M93.3,12.8h1v10.1h-1V12.8z
			 M91.5,12.8h1v10.1h-1V12.8z M89.8,12.8h1v10.1h-1V12.8z M88.8,11.8h12.1v12.1H88.8V11.8z"/>
		<path class="st0" d="M112.8,40.8h1v10.1h-1V40.8z M111,40.8h1v10.1h-1V40.8z M109.2,40.8h1v10.1h-1V40.8z M107.3,40.8h1v10.1h-1
			V40.8z M105.5,40.8h1v10.1h-1V40.8z M103.8,40.8h1v10.1h-1V40.8z M102.7,39.8h12.1v12.1h-12.1V39.8z"/>
	</g>
	<path class="st3" d="M72.2,71.5c1.8,0,3.3,1.5,3.3,3.3s-1.5,3.3-3.3,3.3s-3.3-1.5-3.3-3.3C68.8,73,70.2,71.5,72.2,71.5"/>
	<path class="st0" d="M72.2,72.5c0.3,0,0.6,0.1,0.9,0.2c-0.3,0.2-0.5,0.5-0.5,0.8c0,0.5,0.4,1,1,1c0.4,0,0.7-0.2,0.9-0.5
		c0.1,0.3,0.2,0.6,0.2,0.9c0,1.3-1.1,2.4-2.4,2.4s-2.4-1.1-2.4-2.4C69.8,73.5,70.8,72.5,72.2,72.5"/>
	<path class="st0" d="M13,64.6h73.2h9.1h73.2c-3.4-0.9-10.7-2-9.5-6.5c-6.2,7.1-21,5-24.7,1.5c-4.2,6.1-28.5,3.8-30.2-1
		c-5.2,6.1-21.4,6.1-26.7,0c-1.7,4.7-26,7-30.2,1c-3.7,3.5-18.6,5.6-24.7-1.5C23.8,62.6,16.4,63.7,13,64.6"/>
	<path class="st0" d="M81,95.6c-8.3-3.9-12.8-9.3-15.3-15.1c-3.1,0.9-6.8,1.4-11.1,1.7c-1.6,0.1-3.3,0.1-5.1,0.1
		c-2.1,0-4.2-0.1-6.5-0.2c7.6,7.6,16.9,13.4,34.2,13.5C78.4,95.7,79.8,95.6,81,95.6z"/>
	<path class="st0" d="M68.8,85.9c-1.1-1.6-2.3-3.5-3.1-5.4c-3.1,0.9-6.8,1.4-11.1,1.7C57.6,83.8,61.8,85.3,68.8,85.9z"/>
</g>
<path id="docker_16_" class="st0" d="M127.9,153.1c3.5-3,7-6,10.5-9.1c1.2-1,2.5-2.1,3.7-3.2c-1-1.2-2.5-2.1-3.9-2.6
	c-2.7-1-5.4-0.7-7.9,0.8c-3.3,1.9-4.7,4.9-4.6,8.7c0,1.5,0.4,2.9,1.2,4.2C127.2,152.2,127.5,152.8,127.9,153.1 M131.9,155.9
	c1.7,0.6,3.7,0.5,5.5,0.2c0.9-0.4,3.2-1.4,4.1-1.2h0.1l0.1,0.1c0.5,0.3,1,0.6,1.3,1.1c0.6,1.2,0.3,2.5-0.9,3.2l-0.4,0.2
	c-4.5,2.6-9.3,2.2-13.8-0.2c-2.1-1.2-3.8-2.9-5-5l-0.3-0.5c-2.9-5-2.5-10.3,0.8-15c1.1-1.6,2.6-2.9,4.3-3.9l0.6-0.4
	c4.2-2.4,8.8-2.3,13.1-0.1c2.3,1.2,4.2,2.9,5.5,5.1l0.2,0.4c0.9,1.6-0.3,3.1-1.5,4.1c-1.5,1.1-3,2.5-4.4,3.7
	C138.2,150.6,135.1,153.2,131.9,155.9z M165.6,133.2h0.5c1.4,0,2.4,1,2.4,2.4c0,2-1.9,2.5-3.5,2.5c-2.1,0-4.2,1.3-5.6,2.7
	c-1.8,1.8-2.6,4.1-2.6,6.6v11.5c0,1.3-0.8,2.4-2.2,2.4h-0.4c-1.4,0-2.2-1.1-2.2-2.4v-12.1c0-4.7,2.3-8.5,6-11.1
	C160.3,134,162.8,133.2,165.6,133.2z M106.6,141.3c1.8-1.8,3.7-3.7,5.6-5.5c0.5-0.5,2.5-2.6,3.3-2.6h0.8h0.1
	c1.1,0.2,1.9,0.9,1.9,2.1v0.5c0,0.8-0.9,1.7-1.4,2.3c-1.1,1.2-2.2,2.3-3.3,3.4l-5.7,5.8c2.5,2.5,4.9,4.9,7.4,7.4
	c0.7,0.7,1.4,1.4,2,2.1c0.2,0.2,0.6,0.6,0.8,0.9c0.2,0.3,0.3,0.7,0.3,1.1v0.5v0.1c-0.3,1.1-1,2-2.1,2h-0.4c-0.8,0-1.7-0.9-2.2-1.4
	c-1.1-1-2.2-2.1-3.3-3.2l-3.6-3.6v5.7c0,1.3-0.8,2.4-2.2,2.4h-0.4c-1.4,0-2.2-1.1-2.2-2.4v-32.2c0-1.3,0.8-2.4,2.2-2.4h0.4
	c1.4,0,2.2,1.1,2.2,2.4v14.6L106.6,141.3L106.6,141.3z M91.2,138.1c-0.7-0.3-2.1-0.4-2.8-0.5c-4-0.1-6.8,2.1-8.5,5.6
	c-0.6,1.2-0.8,2.5-0.8,3.8c0,4.1,2.1,6.9,5.8,8.6c1.3,0.6,3,0.8,4.5,0.8c1.3,0,3.1-0.8,4.2-1.3l0.2-0.1h0.9h0.1
	c1.1,0.2,1.9,0.9,1.9,2.1v0.5c0,2.9-5.3,3.5-7.3,3.7c-7.1,0.5-12.4-3.4-14.4-10.2c-0.4-1.2-0.5-2.3-0.5-3.6v-0.9
	c0-5.1,2.5-9.2,7-11.8c2-1.2,4.3-1.8,6.7-1.8h0.9c2.5,0,4.9,0.7,6.9,2.1l0.2,0.1l0.1,0.2c0.2,0.4,0.4,0.8,0.4,1.2v0.5
	c0,1.2-0.9,1.9-2,2.1h-0.1h-0.3C93.4,139.1,91.8,138.4,91.2,138.1z M48,147.1c0,3.6,1.8,6.2,4.8,8.1c1.4,0.9,3,1.3,4.7,1.3
	c3.6,0,6.2-1.8,8-4.8c0.9-1.4,1.3-3,1.3-4.7c0-3.3-1.6-5.9-4.4-7.8c-1.5-1-3.2-1.5-5-1.5c-4,0-6.8,2-8.5,5.6
	C48.3,144.5,48,145.8,48,147.1z M56.9,133h0.7c5.5,0,9.7,2.7,12.3,7.5c1.1,1.9,1.6,4,1.6,6.2v0.9c0,5.1-2.5,9.2-7,11.8
	c-2.1,1.2-4.3,1.8-6.7,1.8h-0.9c-5.1,0-9.2-2.5-11.8-7c-1.2-2.1-1.8-4.3-1.8-6.7v-0.9c0-5.1,2.5-9.2,7-11.8
	C52.3,133.6,54.5,133,56.9,133z M17,147.1c0,3.7,1.8,6.5,5,8.3c1.3,0.7,2.7,1.1,4.2,1.1c3.6,0,6.3-1.7,8.2-4.8
	c0.9-1.4,1.3-3,1.3-4.7c0-3.2-1.5-5.7-4.1-7.6c-1.6-1.1-3.3-1.7-5.3-1.7c-4,0-6.8,2-8.5,5.6C17.3,144.5,17,145.8,17,147.1z
	 M35.8,136.5v-10c0-1.3,0.8-2.4,2.2-2.4h0.4c1.4,0,2.2,1.1,2.2,2.4v21.1c0,5.1-2.5,9.2-7,11.8c-2.1,1.2-4.3,1.8-6.7,1.8H26
	c-5.1,0-9.2-2.5-11.8-7c-1.2-2.1-1.8-4.3-1.8-6.7v-0.9c0-5.1,2.5-9.2,7-11.8c2.1-1.2,4.3-1.8,6.7-1.8h0.7
	C30.3,133,33.3,134.3,35.8,136.5z"/>
<polygon class="st4" points="33.6,119.9 12.1,119.9 17,111.9 12.1,102.5 33.6,102.5 "/>
<polygon class="st0" points="28.9,112.1 33.6,119.9 33.6,106.8 "/>
<polygon class="st4" points="147.4,119.9 168.9,119.9 164,111.5 168.9,101.5 147.4,101.5 "/>
<polygon class="st0" points="152.1,112.1 147.4,119.9 147.4,106.8 "/>
<rect x="28.9" y="87.7" class="st4" width="123.1" height="24.3"/>
<g>
	<path class="st3" d="M59.1,94.5H61l2.9,8.5l2.9-8.5h1.9v10h-1.3v-5.9c0-0.2,0-0.5,0-1c0-0.5,0-1,0-1.5l-2.9,8.5h-1.3l-2.9-8.5v0.3
		c0,0.2,0,0.6,0,1.1c0,0.5,0,0.9,0,1.1v5.9h-1.3V94.5z"/>
	<path class="st3" d="M70.9,94.5h7.3v1.2h-6v3h5.5v1.2h-5.5v3.4h6.1v1.2h-7.4V94.5z"/>
	<path class="st3" d="M80.1,94.5H82l2.9,8.5l2.9-8.5h1.9v10h-1.3v-5.9c0-0.2,0-0.5,0-1c0-0.5,0-1,0-1.5l-2.9,8.5h-1.3l-2.9-8.5v0.3
		c0,0.2,0,0.6,0,1.1c0,0.5,0,0.9,0,1.1v5.9h-1.3V94.5z"/>
	<path class="st3" d="M91.7,94.5h4.3c1.2,0,2,0.4,2.5,1.1C98.9,96,99,96.5,99,97c0,0.6-0.2,1.2-0.5,1.6c-0.2,0.2-0.5,0.4-0.8,0.6
		c0.5,0.2,0.9,0.4,1.2,0.7c0.5,0.4,0.7,1,0.7,1.8c0,0.6-0.2,1.2-0.6,1.8c-0.6,0.8-1.6,1.2-2.9,1.2h-4.3V94.5z M95.6,98.8
		c0.6,0,1-0.1,1.4-0.2c0.5-0.2,0.8-0.7,0.8-1.4c0-0.7-0.3-1.1-0.8-1.3c-0.3-0.1-0.8-0.2-1.4-0.2h-2.5v3.1H95.6z M96,103.4
		c0.8,0,1.4-0.2,1.8-0.7c0.2-0.3,0.3-0.7,0.3-1.1c0-0.7-0.3-1.2-1-1.5c-0.3-0.1-0.8-0.2-1.4-0.2h-2.7v3.5H96z"/>
	<path class="st3" d="M101.2,94.5h7.3v1.2h-6v3h5.5v1.2h-5.5v3.4h6.1v1.2h-7.4V94.5z"/>
	<path class="st3" d="M110.6,94.5h4.6c0.8,0,1.4,0.1,1.9,0.3c0.9,0.4,1.4,1.2,1.4,2.4c0,0.6-0.1,1.1-0.4,1.5c-0.2,0.4-0.6,0.7-1,0.9
		c0.4,0.2,0.7,0.4,0.9,0.6s0.3,0.7,0.3,1.3l0,1.3c0,0.4,0,0.7,0.1,0.9c0.1,0.3,0.2,0.5,0.4,0.6v0.2h-1.7c0-0.1-0.1-0.2-0.1-0.3
		s-0.1-0.4-0.1-0.8l-0.1-1.7c0-0.7-0.3-1.1-0.7-1.3c-0.3-0.1-0.6-0.2-1.2-0.2h-3v4.3h-1.4V94.5z M115,99.1c0.6,0,1.1-0.1,1.5-0.4
		c0.4-0.3,0.5-0.7,0.5-1.4c0-0.7-0.3-1.2-0.8-1.5c-0.3-0.1-0.6-0.2-1.1-0.2H112v3.4H115z"/>
</g>
</svg>
