<svg id="Layer_1" xmlns="http://www.w3.org/2000/svg" viewBox="0 0 180 180"><style>.st0{fill:#183b4d}.st1{display:none}.st2{display:inline;fill:#183b4d}.st3{fill:#fff}.st4{fill-rule:evenodd;clip-rule:evenodd;fill:#183b4d}.st5{clip-path:url(#SVGID_2_)}.st6{clip-path:url(#SVGID_4_);fill:#183b4d}.st7{clip-path:url(#SVGID_6_)}.st8{clip-path:url(#SVGID_8_);fill:#183b4d}.st9{fill-rule:evenodd;clip-rule:evenodd;fill:#fff}.st10{clip-path:url(#SVGID_10_)}.st11{clip-path:url(#SVGID_12_);fill:#183b4d}.st12{fill:#234b5f}.st13{fill:#2d5e72}.st14{fill:#45778f}.st15{fill:#7b9fb6}.st16{fill:#cbd8e0}.st17{fill:#f0f4f8}.st18{fill:#cecdca}.st19{fill:#dc462f}.st20{fill:#fff;stroke:#2d5e72;stroke-miterlimit:10}</style><path class="st4" d="M132.2 134.1c.4-.2.5-.2.3-.7-.9-2.7-4.5-4.2-7.5-2.9-2.4 1-4.1 3.5-4.1 6.4 0 3.8 2.8 7.2 6.5 7.2 1.7 0 2.9-.2 4-.9.2-.2 1.5-1.3 1.6-1.5 0-.1-.2.1-.5.3-.8.4-2.1.6-3.1.6-2 0-3.6-1.3-4.7-3-.7-1-1.1-2.2-1.2-3.5-.2-2 .3-4.2 2.5-4.8 1.5-.4 2.9.5 3.4 1.9.2.6.1 1-.5 1.2l-5.4 2.2 1.8.1c2.3-.9 4.7-1.7 6.9-2.6zm-16.5-11h4c-.6.4-.7.5-1 .9-.2.3-.2.8-.2 1.3-.2 5.3-.1 10.7-.1 16.1 0 1.5.6 1.3 2.5 1.2-.3.2-.7.7-1.1.9h-5.1c.6-.7 1-1.1.9-2.8 0-5.6-.2-11 .2-16.3h-2.3c.7-.4 1.4-1 2.2-1.3z"/><path class="st4" d="M108.5 144.4l.9.6c1.7 1.1 2.2 2.4 2.1 3.6-.2 1.4-1.6 2.6-3.9 2.7-2.5.2-6-.9-5.3-4.2.3-1.8 2.7-2.7 4.7-2.8.4 0 .9.1 1.5.1zm5.7-13.9l-1.7 1.1h-1.9c.8.6 1.5 1.4 1.8 2.3.4 1 .4 2.1 0 3.1-.4.9-1.1 1.8-2.1 2.4-.6.4-.9.8-.9 1.2-.1 1.2 1.4 2.2 2.3 2.8 1.9 1.4 2.7 3.8 1.4 6.1-1.2 2.2-4.1 3.2-7.2 3.2-3.8 0-6.3-1.8-6.4-4.2-.2-3.1 3-4.6 5.9-4.9.8-.1 1.5-.1 2.2 0-1-.7-1.4-2-.9-2.9.1-.2 0-.2-.2-.1-2.3.4-4.8-1.2-5.3-3.5-.3-1.2-.1-2.4.3-3.4 1-2.1 3.1-3.2 5.5-3.2h7.2zm-4.3 5.1c.3 1.9-.2 3.6-1.8 4.1-1.7.5-3.6-.9-4.2-3.2-.7-2.6 0-4.3 1.6-4.8 1.9-.7 3.9 1 4.4 3.9zm-17.5-5.5c4.6 0 7 3.1 7.2 6.6.2 3.6-2.7 6.8-6.3 7.1-4.3.5-8.1-2.5-8.1-6.9 0-3.7 3.2-6.8 7.2-6.8zm4.4 7.1c.3 2.6-.6 5.1-3 5.6-2.4.6-5-1.4-5.6-4.8-.7-3.7.5-6.2 2.7-6.8 2.7-.7 5.5 2 5.9 6zm-20.1-7.1c4.7 0 7.1 3.1 7.3 6.6.2 3.6-2.8 6.8-6.4 7.1-4.4.5-8.2-2.5-8.2-6.9 0-3.7 3.2-6.8 7.3-6.8zm4.4 7.1c.3 2.6-.6 5.1-3 5.6-2.4.6-5-1.4-5.7-4.8-.7-3.7.5-6.2 2.8-6.8 2.7-.7 5.5 2 5.9 6zm-16-9l2.1-2.1c-3.5-2.9-9.6-3.3-13.7-1.3-3.5 1.8-6.1 5.3-6.2 9.2-.1 4.1 2.3 7.4 4.7 9.1 4 2.7 11 2.1 15.2 0v-4.7l1-1.1h-6.1l-2.3 1.3 4.4-.1v3.8c0 .5 0 .6-.9.9-1.3.3-2.7.4-4 .3-4.4-.4-7.8-3.8-8.6-8.2-.8-4.1 1.2-8 4.5-9.6 1.6-.8 3.5-1.2 5.6-.5 1.3.4 2.5 1.2 3.5 2.2l-.7 1.3 1.5-.5z"/><path class="st0" d="M49.1 157.5c-1 0-1.7.3-2.3.9-.5.6-.8 1.4-.8 2.5s.3 1.9.8 2.5c.5.6 1.3.9 2.2.9.6 0 1.2-.1 1.8-.2v.5c-.5.2-1.1.3-1.9.3-1.1 0-1.9-.3-2.5-1-.6-.7-.9-1.7-.9-2.9 0-.8.1-1.5.4-2 .3-.6.7-1 1.3-1.4.6-.3 1.2-.5 1.9-.5s1.4.1 2 .4l-.2.5c-.7-.4-1.2-.5-1.8-.5zm3.6 7.2h-.5v-8.1h.5v8.1zm6.6-2.8c0 .9-.2 1.6-.7 2.2-.4.5-1.1.8-1.9.8-.5 0-.9-.1-1.3-.4-.4-.2-.7-.6-.9-1-.2-.4-.3-1-.3-1.6 0-.9.2-1.6.7-2.2.4-.5 1.1-.8 1.8-.8.8 0 1.4.3 1.8.8.5.5.8 1.3.8 2.2zm-4.5 0c0 .8.2 1.4.5 1.8.3.4.8.7 1.5.7.6 0 1.1-.2 1.5-.7.3-.4.5-1 .5-1.8s-.2-1.4-.5-1.8c-.3-.4-.8-.6-1.5-.6-.6 0-1.1.2-1.4.6-.4.4-.6 1-.6 1.8zm6.3-2.9v3.7c0 .6.1 1 .4 1.2.2.3.6.4 1.1.4.7 0 1.2-.2 1.5-.5.3-.3.5-.9.5-1.7V159h.5v5.7h-.4l-.1-.8c-.4.6-1 .9-2 .9-1.3 0-1.9-.7-1.9-2.1V159h.4zm7.7-.1c.4 0 .8.1 1.1.2.3.1.6.4.8.8v-3.3h.5v8.1h-.3l-.1-.9c-.4.6-1 1-1.9 1-.8 0-1.4-.2-1.8-.7-.4-.5-.6-1.2-.6-2.1 0-1 .2-1.7.6-2.2.4-.6 1-.9 1.7-.9zm0 .5c-.6 0-1.1.2-1.4.7-.3.4-.5 1.1-.5 1.9 0 1.6.6 2.4 1.9 2.4.6 0 1.1-.2 1.4-.6.3-.4.4-1 .4-1.8v-.1c0-.9-.1-1.5-.4-1.9-.2-.4-.7-.6-1.4-.6zm11.4-.1c0 .7-.3 1.3-.8 1.7-.5.4-1.2.6-2.1.6h-1.2v3.1h-.5v-7.6h1.9c1.8 0 2.7.7 2.7 2.2zm-4.1 1.8h1c.9 0 1.5-.1 1.9-.4.4-.3.6-.7.6-1.4 0-.6-.2-1-.5-1.3-.4-.3-.9-.4-1.7-.4h-1.3v3.5zm5.8 3.6h-.5v-8.1h.5v8.1zm5.2 0l-.1-.9c-.3.4-.6.6-.9.8-.3.2-.7.2-1.1.2-.6 0-1-.1-1.3-.4-.3-.3-.5-.7-.5-1.2 0-.6.2-1 .7-1.3.5-.3 1.1-.5 2-.5H87v-.4c0-.5-.1-.9-.3-1.2-.2-.3-.6-.4-1.1-.4-.5 0-1.1.1-1.6.4l-.2-.4c.6-.3 1.2-.4 1.8-.4.6 0 1.1.2 1.4.5.3.3.5.8.5 1.5v3.8h-.4zm-2.1-.4c.6 0 1.1-.2 1.4-.5.3-.3.5-.8.5-1.4v-.6h-1c-.8 0-1.4.2-1.7.4-.3.2-.5.5-.5 1 0 .4.1.6.3.8.3.2.6.3 1 .3zm5.8.1c.3 0 .6 0 .9-.1v.4c-.3.1-.5.1-.9.1-.5 0-.9-.1-1.1-.4-.2-.3-.4-.7-.4-1.3v-3.7h-.8v-.3l.8-.2.3-1.3h.3v1.4h1.7v.4h-1.7v3.6c0 .4.1.8.2 1 .1.2.4.4.7.4zm4.2-4.9h-1.3v5.2h-.5v-5.2h-1.1v-.3l1.1-.2v-.4c0-.7.1-1.2.4-1.5.3-.3.7-.5 1.3-.5.3 0 .6 0 .9.1l-.1.4c-.3-.1-.6-.1-.8-.1-.4 0-.7.1-.9.4-.2.2-.3.6-.3 1.2v.5H95v.4zm5.6 2.4c0 .9-.2 1.6-.7 2.2-.4.5-1.1.8-1.9.8-.5 0-.9-.1-1.3-.4-.4-.2-.7-.6-.9-1-.2-.4-.3-1-.3-1.6 0-.9.2-1.6.7-2.2.4-.5 1.1-.8 1.8-.8.8 0 1.4.3 1.8.8.5.5.8 1.3.8 2.2zm-4.5 0c0 .8.2 1.4.5 1.8.3.4.8.7 1.5.7.6 0 1.1-.2 1.5-.7.3-.4.5-1 .5-1.8s-.2-1.4-.5-1.8c-.3-.4-.8-.6-1.5-.6-.6 0-1.1.2-1.4.6-.4.4-.6 1-.6 1.8zm8.2-3c.2 0 .5 0 .8.1l-.1.5c-.2-.1-.5-.1-.7-.1-.5 0-.9.2-1.2.6-.3.4-.5.9-.5 1.6v3.1h-.5V159h.4l.1 1c.2-.4.5-.7.7-.9.4-.1.7-.2 1-.2zm8.8 5.8V161c0-.6-.1-1-.3-1.2-.2-.3-.5-.4-1-.4-.6 0-1 .2-1.3.5-.3.3-.4.8-.4 1.5v3.3h-.5v-3.9c0-1-.4-1.4-1.3-1.4-.6 0-1 .2-1.3.5-.3.3-.4.9-.4 1.7v3.1h-.5V159h.4l.1.8c.2-.3.4-.5.7-.7.3-.2.6-.2 1-.2.9 0 1.5.3 1.7 1 .2-.3.4-.6.7-.7.3-.2.7-.3 1.1-.3.6 0 1.1.2 1.4.5.3.3.5.9.5 1.6v3.7h-.6zm4.8 0v-7.6h.5v7.1h3.6v.5h-4.1zm5.3-7.2c0-.3.1-.5.3-.5.1 0 .2 0 .3.1.1.1.1.2.1.4s0 .3-.1.4c-.1.1-.1.1-.3.1-.2 0-.3-.2-.3-.5zm.6 7.2h-.5V159h.5v5.7zm3.1 0l-2.2-5.7h.5l1.5 3.8c.2.5.3.9.4 1.3.1-.5.3-.9.4-1.3l1.5-3.8h.5l-2.2 5.7h-.4zm6 .1c-.8 0-1.5-.3-1.9-.8-.5-.5-.7-1.2-.7-2.1 0-.9.2-1.6.7-2.2.4-.5 1-.8 1.8-.8.7 0 1.2.2 1.6.7.4.5.6 1.1.6 1.9v.4h-4.1c0 .8.2 1.4.5 1.8.4.4.9.6 1.5.6.3 0 .6 0 .9-.1.2 0 .6-.1.9-.3v.5l-.9.3c-.3.1-.6.1-.9.1zm-.2-5.4c-.5 0-1 .2-1.3.5-.3.4-.5.9-.6 1.6h3.5c0-.7-.1-1.2-.4-1.5-.3-.4-.7-.6-1.2-.6z"/><path class="st18" d="M74.9 84.1L60.2 58.7l14.7-25.5h29.4L119 58.7l-14.7 25.4z"/><path class="st14" d="M77.4 80.9L64.3 58.6l-7.2-12.2c-.5-.9-.7-2.1-.7-3.3L49 56c-.9 1.6-.9 4.1 0 5.7l18.1 31.4c.9 1.6 3.1 2.8 4.9 2.8h21.6c.9-.5 1.6-1.2 2.1-2l7.4-13H77.4z"/><path class="st19" d="M131.3 56l-18.1-31.3 7.3 12.7z"/><path class="st0" d="M131.3 56l-10.8-18.6c-.9-.6-2-.9-3-.9H103l12.6 22.2L103 80.9l-7.4 13c-.4.8-1.2 1.5-2.1 2h14.7c1.8 0 4-1.3 4.9-2.8l7.2-12.5 10.9-18.9c1-1.6 1-4.1.1-5.7z"/><path class="st13" d="M113.2 24.7c-.9-1.6-3.1-2.8-4.9-2.8H72c-1.8 0-4 1.3-4.9 2.8L56.5 43c-.1 1.2.1 2.4.7 3.3l7.2 12.2 12.8-22.1h40.4c1 0 2 .4 3 .9l-7.4-12.6z"/><path class="st16" d="M64.3 58.6l13.1 22.3H103l12.6-22.2L103 36.5H77.1z"/><circle class="st3" cx="73" cy="29" r="2.2"/><path class="st13" d="M73 27c1.1 0 2 .9 2 2s-.9 2-2 2-2-.9-2-2c-.1-1.1.8-2 2-2m0-.3c-1.3 0-2.4 1.1-2.4 2.4 0 1.3 1.1 2.4 2.4 2.4 1.3 0 2.4-1.1 2.4-2.4-.1-1.4-1.1-2.4-2.4-2.4z"/><circle class="st20" cx="107.1" cy="29" r="2"/><circle class="st3" cx="73" cy="88.3" r="2.2"/><path class="st14" d="M73 86.2c1.1 0 2 .9 2 2s-.9 2-2 2-2-.9-2-2c-.1-1.1.8-2 2-2m0-.3c-1.3 0-2.4 1.1-2.4 2.4 0 1.3 1.1 2.4 2.4 2.4 1.3 0 2.4-1.1 2.4-2.4-.1-1.3-1.1-2.4-2.4-2.4z"/><circle class="st3" cx="107.1" cy="88.3" r="2.2"/><path class="st0" d="M107.1 86.2c1.1 0 2 .9 2 2s-.9 2-2 2-2-.9-2-2 .9-2 2-2m0-.3c-1.3 0-2.4 1.1-2.4 2.4 0 1.3 1.1 2.4 2.4 2.4 1.3 0 2.4-1.1 2.4-2.4 0-1.3-1.1-2.4-2.4-2.4z"/><path class="st3" d="M124.3 56.8c1.1 0 2 .9 2 2s-.9 2-2 2-2-.9-2-2 .9-2 2-2"/><circle class="st3" cx="55.7" cy="58.8" r="2.2"/><path class="st14" d="M55.7 56.8c1.1 0 2 .9 2 2s-.9 2-2 2-2-.9-2-2 .9-2 2-2m0-.4c-1.3 0-2.4 1.1-2.4 2.4 0 1.3 1.1 2.4 2.4 2.4 1.3 0 2.4-1.1 2.4-2.4 0-1.3-1.1-2.4-2.4-2.4z"/><path class="st3" d="M90.1 70.3c-6.3 0-11.5-5.1-11.5-11.5 0-6.3 5.1-11.5 11.5-11.5 6.3 0 11.5 5.1 11.5 11.5 0 6.3-5.2 11.5-11.5 11.5z"/></svg>