<?xml version="1.0" encoding="utf-8"?>
<!-- Generator: Adobe Illustrator 19.2.1, SVG Export Plug-In . SVG Version: 6.00 Build 0)  -->
<svg version="1.1" id="Layer_1" xmlns="http://www.w3.org/2000/svg" xmlns:xlink="http://www.w3.org/1999/xlink" x="0px" y="0px"
	 viewBox="0 0 180 180" style="enable-background:new 0 0 180 180;" xml:space="preserve">
<style type="text/css">
	.st0{fill:#234B5F;}
	.st1{display:none;}
	.st2{display:inline;fill:#234B5F;}
	.st3{fill:#FFFFFF;}
	.st4{fill-rule:evenodd;clip-rule:evenodd;fill:#234B5F;}
	.st5{clip-path:url(#SVGID_2_);}
	.st6{clip-path:url(#SVGID_4_);fill:#234B5F;}
	.st7{clip-path:url(#SVGID_6_);}
	.st8{clip-path:url(#SVGID_8_);fill:#234B5F;}
	.st9{fill-rule:evenodd;clip-rule:evenodd;fill:#FFFFFF;}
	.st10{clip-path:url(#SVGID_10_);}
	.st11{clip-path:url(#SVGID_12_);fill:#234B5F;}
</style>
<g>
	<g id="body_colors_6_">
		<path class="st0" d="M145.2,85c0.9-7.5-4.6-13.4-8.1-16.2c-4,4.6-4.6,16.8,1.6,21.9c-3.5,3.1-10.9,6-18.5,6H28.1
			c-0.7,7.9,0.6,15.2,3.8,21.4l1,2c0.6,1.1,1.4,2.3,2.2,3.3l0,0c3.8,0.2,7.3,0.3,10.5,0.2l0,0c6.3-0.1,11.4-0.9,15.3-2.3
			c0.6-0.2,1.2,0.1,1.4,0.7c0.2,0.6-0.1,1.2-0.7,1.4c-0.5,0.2-1,0.3-1.6,0.5l0,0c-3.1,0.8-6.4,1.4-10.6,1.7c0.2,0-0.3,0-0.3,0
			c-0.1,0-0.3,0-0.5,0c-1.6,0.1-3.5,0.1-5.4,0.1c-2.1,0-4,0-6.2-0.1h-0.1c7.7,8.6,19.7,13.8,34.8,13.8c31.9,0,58.9-14.1,70.9-45.8
			c8.5,0.8,16.7-1.3,20.4-8.5C157.1,81.7,149.6,82.9,145.2,85z"/>
		<path class="st0" d="M145.2,85c0.9-7.5-4.6-13.4-8.1-16.2c-4,4.6-4.6,16.8,1.6,21.9c-3.5,3.1-10.9,6-18.5,6H33.5
			c-0.4,12.1,4.1,21.3,12,26.9l0,0c6.3-0.1,11.4-0.9,15.3-2.3c0.6-0.2,1.2,0.1,1.4,0.7c0.2,0.6-0.1,1.2-0.7,1.4
			c-0.5,0.2-1,0.3-1.6,0.5l0,0c-3.1,0.8-6.6,1.5-10.8,1.7l-0.1-0.1c10.8,5.6,26.5,5.6,44.6-1.3c20.2-7.7,39-22.5,52.2-39.5
			C145.6,84.8,145.4,84.9,145.2,85z"/>
		<path class="st0" d="M28.2,106.3c0.6,4.2,1.9,8.2,3.6,11.8l1,2c0.6,1.1,1.4,2.3,2.2,3.3c3.8,0.2,7.3,0.3,10.5,0.2
			c6.3-0.1,11.4-0.9,15.3-2.3c0.6-0.2,1.2,0.1,1.4,0.7c0.2,0.6-0.1,1.2-0.7,1.4c-0.5,0.2-1,0.3-1.6,0.5l0,0
			c-3.1,0.8-6.6,1.5-10.8,1.7c-0.1,0-0.4,0-0.5,0c-1.6,0.1-3.4,0.1-5.2,0.1c-2.1,0-4.1,0-6.3-0.1c7.7,8.6,19.8,13.8,34.8,13.8
			c27.3,0,51-10.4,64.8-33.2C136.6,106.3,28.2,106.3,28.2,106.3z"/>
		<path class="st0" d="M34.3,106.3c1.6,7.4,5.6,13.3,11.2,17.3c6.3-0.1,11.4-0.9,15.3-2.3c0.6-0.2,1.2,0.1,1.4,0.7
			c0.2,0.6-0.1,1.2-0.7,1.4c-0.5,0.2-1,0.3-1.6,0.5l0,0c-3.1,0.8-6.7,1.5-10.9,1.7c10.8,5.6,26.5,5.5,44.6-1.4
			c10.9-4.2,21.4-10.4,30.8-17.9h-90V106.3z"/>
	</g>
	<g id="Containers_6_">
		<path class="st0" d="M51,83.1h1v10.4h-1V83.1z M49.1,83.1h1v10.4h-1V83.1z M47.2,83.1h1v10.4h-1V83.1z M45.4,83.1h1v10.4h-1V83.1z
			 M43.4,83.1h1v10.4h-1V83.1z M41.6,83.1h1v10.4h-1V83.1z M40.5,82H53v12.5H40.5V82z"/>
		<path class="st0" d="M65.4,68.7h1v10.4h-1V68.7z M63.5,68.7h1v10.4h-1V68.7z M61.6,68.7h1v10.4h-1V68.7z M59.8,68.7h1v10.4h-1
			V68.7z M57.8,68.7h1v10.4h-1V68.7z M56,68.7h1v10.4h-1V68.7z M54.9,67.6h12.5v12.5H54.9V67.6z"/>
		<path class="st0" d="M65.4,83.1h1v10.4h-1V83.1z M63.5,83.1h1v10.4h-1V83.1z M61.6,83.1h1v10.4h-1V83.1z M59.8,83.1h1v10.4h-1
			V83.1z M57.8,83.1h1v10.4h-1V83.1z M56,83.1h1v10.4h-1V83.1z M54.9,82h12.5v12.5H54.9V82z"/>
		<path class="st0" d="M79.7,83.1h1v10.4h-1V83.1z M77.9,83.1h1v10.4h-1V83.1z M76,83.1h1v10.4h-1V83.1z M74.1,83.1h1v10.4h-1V83.1z
			 M72.2,83.1h1v10.4h-1V83.1z M70.4,83.1h1v10.4h-1V83.1z M69.3,82h12.5v12.5H69.3V82z"/>
		<path class="st0" d="M79.7,68.7h1v10.4h-1V68.7z M77.9,68.7h1v10.4h-1V68.7z M76,68.7h1v10.4h-1V68.7z M74.1,68.7h1v10.4h-1V68.7z
			 M72.2,68.7h1v10.4h-1V68.7z M70.4,68.7h1v10.4h-1V68.7z M69.3,67.6h12.5v12.5H69.3V67.6z"/>
		<path class="st0" d="M94.1,83.1h1v10.4h-1V83.1z M92.3,83.1h1v10.4h-1V83.1z M90.3,83.1h1v10.4h-1V83.1z M88.5,83.1h1v10.4h-1
			V83.1z M86.6,83.1h1v10.4h-1V83.1z M84.8,83.1h1v10.4h-1V83.1z M83.7,82h12.5v12.5H83.7V82z"/>
		<path class="st0" d="M94.1,68.7h1v10.4h-1V68.7z M92.3,68.7h1v10.4h-1V68.7z M90.3,68.7h1v10.4h-1V68.7z M88.5,68.7h1v10.4h-1
			V68.7z M86.6,68.7h1v10.4h-1V68.7z M84.8,68.7h1v10.4h-1V68.7z M83.7,67.6h12.5v12.5H83.7V67.6z"/>
		<path class="st0" d="M94.1,54.3h1v10.4h-1V54.3z M92.3,54.3h1v10.4h-1V54.3z M90.3,54.3h1v10.4h-1V54.3z M88.5,54.3h1v10.4h-1
			V54.3z M86.6,54.3h1v10.4h-1V54.3z M84.8,54.3h1v10.4h-1V54.3z M83.7,53.2h12.5v12.5H83.7V53.2z"/>
		<path class="st0" d="M108.5,83.1h1v10.4h-1V83.1z M106.7,83.1h1v10.4h-1V83.1z M104.7,83.1h1v10.4h-1V83.1z M102.9,83.1h1v10.4h-1
			V83.1z M101,83.1h1v10.4h-1V83.1z M99.2,83.1h1v10.4h-1V83.1z M98,82h12.5v12.5H98V82z"/>
	</g>
	<path class="st3" d="M66.7,114.7c1.9,0,3.4,1.5,3.4,3.4c0,1.9-1.5,3.4-3.4,3.4c-1.9,0-3.4-1.5-3.4-3.4
		C63.2,116.2,64.7,114.7,66.7,114.7"/>
	<path class="st0" d="M66.7,115.7c0.3,0,0.6,0.1,0.9,0.2c-0.3,0.2-0.5,0.5-0.5,0.8c0,0.5,0.4,1,1,1c0.4,0,0.7-0.2,0.9-0.5
		c0.1,0.3,0.2,0.6,0.2,0.9c0,1.3-1.1,2.5-2.5,2.5s-2.5-1.1-2.5-2.5C64.2,116.7,65.2,115.7,66.7,115.7"/>
	<path class="st0" d="M5.7,107.6h75.3h9.4h75.3c-3.5-0.9-11-2.1-9.8-6.7c-6.4,7.3-21.6,5.1-25.4,1.5c-4.3,6.3-29.3,3.9-31.1-1
		c-5.4,6.3-22,6.3-27.5,0c-1.7,4.8-26.8,7.2-31.1,1c-3.8,3.6-19.1,5.8-25.4-1.5C16.9,105.5,9.2,106.6,5.7,107.6"/>
	<path class="st0" d="M75.8,139.5c-8.5-4-13.2-9.6-15.7-15.5c-3.2,0.9-7,1.4-11.4,1.7c-1.6,0.1-3.4,0.1-5.2,0.1
		c-2.2,0-4.3-0.1-6.7-0.2c7.8,7.8,17.4,13.8,35.2,13.9C73.1,139.6,74.5,139.5,75.8,139.5z"/>
	<path class="st0" d="M63.2,129.5c-1.1-1.6-2.4-3.6-3.2-5.6c-3.2,0.9-7,1.4-11.4,1.7C51.6,127.3,56,128.9,63.2,129.5z"/>
</g>
</svg>
