<?xml version="1.0" encoding="utf-8"?>
<!-- Generator: Adobe Illustrator 19.2.1, SVG Export Plug-In . SVG Version: 6.00 Build 0)  -->
<svg version="1.1" id="Layer_1" xmlns="http://www.w3.org/2000/svg" xmlns:xlink="http://www.w3.org/1999/xlink" x="0px" y="0px"
	 viewBox="0 0 360 180" style="enable-background:new 0 0 360 180;" xml:space="preserve">
<style type="text/css">
	.st0{fill:#234B5F;}
	.st1{display:none;}
	.st2{display:inline;fill:#234B5F;}
	.st3{fill:#FFFFFF;}
	.st4{fill-rule:evenodd;clip-rule:evenodd;fill:#234B5F;}
	.st5{clip-path:url(#SVGID_2_);}
	.st6{clip-path:url(#SVGID_4_);fill:#234B5F;}
	.st7{clip-path:url(#SVGID_6_);}
	.st8{clip-path:url(#SVGID_8_);fill:#234B5F;}
	.st9{fill-rule:evenodd;clip-rule:evenodd;fill:#FFFFFF;}
	.st10{clip-path:url(#SVGID_10_);}
	.st11{clip-path:url(#SVGID_12_);fill:#234B5F;}
</style>
<g>
	<g>
		<defs>
			<path id="SVGID_1_" d="M-185.3,283.4l-6.3,6.3c-0.4,0.4-0.4,0.9,0,1.3l44.7,44.7c0.4,0.4,0.9,0.4,1.3,0l44.7-44.7
				c0.4-0.4,0.4-0.9,0-1.3l-6.3-6.3l-36.4,36.4c-1.4,1.4-3.7,1.4-5.2,0L-185.3,283.4z"/>
		</defs>
		<use xlink:href="#SVGID_1_"  style="overflow:visible;fill-rule:evenodd;clip-rule:evenodd;fill:#234B5F;"/>
		<clipPath id="SVGID_2_">
			<use xlink:href="#SVGID_1_"  style="overflow:visible;"/>
		</clipPath>
		<g class="st5">
			<defs>
				<rect id="SVGID_3_" x="-328.7" y="165.2" width="364.8" height="273.6"/>
			</defs>
			<use xlink:href="#SVGID_3_"  style="overflow:visible;fill:#234B5F;"/>
			<clipPath id="SVGID_4_">
				<use xlink:href="#SVGID_3_"  style="overflow:visible;"/>
			</clipPath>
		</g>
	</g>
</g>
<g>
	<g>
		<path class="st0" d="M38.3,138.5c-2.4,0-4.6-1.1-6.2-3L8.9,106.6c-1.5-1.9-2.1-4.4-1.5-6.8l8.3-36.1c0.5-2.4,2.1-4.3,4.3-5.4
			l33.6-16.1c1.1-0.5,2.3-0.8,3.5-0.8s2.4,0.3,3.5,0.8l33.6,16c2.2,1.1,3.8,3,4.3,5.4l8.3,36.1c0.5,2.4,0,4.8-1.5,6.8l-23.2,28.9
			c-1.5,1.9-3.8,3-6.2,3L38.3,138.5L38.3,138.5z"/>
		<path class="st3" d="M90.6,97.3L90.6,97.3L90.6,97.3C90.6,97.3,90.6,97.3,90.6,97.3L90.6,97.3c-0.1,0-0.2,0-0.2-0.1
			c-0.1,0-0.3-0.1-0.4-0.1c-0.5-0.1-0.9-0.1-1.3-0.1c-0.2,0-0.4,0-0.7-0.1h-0.1c-1.4-0.1-2.5-0.3-3.6-0.6c-0.5-0.2-0.6-0.5-0.7-0.7
			c0-0.1-0.1-0.1-0.1-0.1l0,0l-0.9-0.3c0.4-3.1,0.3-6.2-0.5-9.4s-2-6-3.7-8.7l0.7-0.6v-0.1c0-0.3,0.1-0.7,0.3-1
			c0.8-0.7,1.8-1.3,3-2.1l0,0c0.2-0.1,0.4-0.2,0.6-0.3c0.4-0.2,0.7-0.4,1.1-0.7c0.1-0.1,0.2-0.1,0.3-0.3c0.1-0.1,0.1-0.1,0.1-0.1
			l0,0c0.9-0.8,1.1-2.1,0.5-3c-0.3-0.5-0.9-0.7-1.5-0.7c-0.5,0-1,0.2-1.5,0.5l0,0l0,0c-0.1,0.1-0.1,0.1-0.1,0.1
			c-0.1,0.1-0.2,0.2-0.3,0.3c-0.3,0.3-0.6,0.6-0.9,0.9c-0.1,0.1-0.3,0.3-0.5,0.5l0,0c-0.9,1-1.8,1.8-2.7,2.4
			c-0.2,0.1-0.4,0.2-0.6,0.2c-0.1,0-0.3,0-0.4-0.1h-0.1l0,0l-0.8,0.5c-0.9-0.9-1.8-1.7-2.7-2.5c-4-3.1-8.8-5-13.9-5.5l-0.1-0.9
			c-0.1-0.1-0.1-0.1-0.1-0.1c-0.2-0.2-0.5-0.4-0.5-0.9c-0.1-1.1,0.1-2.3,0.2-3.6v-0.1c0-0.2,0.1-0.5,0.1-0.7
			c0.1-0.4,0.1-0.8,0.2-1.3v-0.4v-0.2l0,0l0,0c0-1.2-0.9-2.2-2.1-2.2c-0.5,0-1.1,0.3-1.5,0.7C55.2,56.5,55,57,55,57.6l0,0l0,0v0.1
			v0.4c0,0.5,0.1,0.9,0.2,1.3c0.1,0.2,0.1,0.4,0.1,0.7v0.1c0.1,1.3,0.3,2.5,0.2,3.6c-0.1,0.5-0.3,0.7-0.5,0.9
			c-0.1,0.1-0.1,0.1-0.1,0.1l0,0l-0.1,0.9c-1.2,0.1-2.4,0.3-3.6,0.5c-5.1,1.1-9.6,3.7-13.1,7.4l-0.7-0.5h-0.1
			c-0.1,0-0.3,0.1-0.4,0.1c-0.2,0-0.4-0.1-0.6-0.2c-0.9-0.6-1.7-1.5-2.7-2.5l0,0c-0.1-0.1-0.3-0.3-0.5-0.5c-0.3-0.3-0.5-0.6-0.9-0.9
			c-0.1-0.1-0.2-0.1-0.3-0.3c-0.1-0.1-0.1-0.1-0.1-0.1l0,0c-0.4-0.3-0.9-0.5-1.5-0.5c-0.6,0-1.2,0.3-1.5,0.7c-0.7,0.9-0.5,2.2,0.5,3
			l0,0l0,0c0.1,0,0.1,0.1,0.1,0.1c0.1,0.1,0.2,0.2,0.3,0.3c0.4,0.3,0.7,0.5,1.1,0.7c0.2,0.1,0.4,0.2,0.6,0.3l0,0
			c1.2,0.7,2.2,1.3,3,2.1c0.3,0.3,0.3,0.7,0.3,1v0.1l0,0l0.7,0.6c-0.1,0.2-0.3,0.3-0.3,0.5c-3.3,5.2-4.6,11.4-3.7,17.5l-0.9,0.3
			c0,0.1-0.1,0.1-0.1,0.1c-0.1,0.3-0.3,0.5-0.7,0.7c-1,0.3-2.2,0.5-3.6,0.6h-0.1c-0.2,0-0.5,0-0.7,0.1c-0.4,0-0.8,0.1-1.3,0.1
			C24,97,23.9,97,23.8,97c-0.1,0-0.1,0-0.2,0.1l0,0l0,0c-1.2,0.3-1.9,1.4-1.7,2.5c0.2,0.9,1.1,1.5,2.1,1.5c0.2,0,0.3,0,0.5-0.1l0,0
			l0,0c0.1,0,0.1,0,0.1-0.1c0.1,0,0.3-0.1,0.4-0.1c0.5-0.1,0.8-0.3,1.2-0.5c0.2-0.1,0.4-0.2,0.6-0.3h0.1c1.3-0.5,2.4-0.9,3.5-1h0.1
			c0.4,0,0.7,0.2,0.9,0.3c0.1,0,0.1,0.1,0.1,0.1l0,0l0.9-0.1c1.6,4.9,4.6,9.3,8.7,12.5c0.9,0.7,1.9,1.3,2.9,1.9l-0.4,0.9
			c0,0.1,0.1,0.1,0.1,0.1c0.1,0.3,0.3,0.6,0.1,1.1c-0.4,1-1,2-1.7,3.1v0.1c-0.1,0.2-0.3,0.3-0.4,0.5c-0.3,0.3-0.5,0.7-0.7,1.1
			c-0.1,0.1-0.1,0.2-0.2,0.3c0,0.1-0.1,0.1-0.1,0.1l0,0l0,0c-0.5,1.1-0.1,2.4,0.9,2.9c0.3,0.1,0.5,0.2,0.8,0.2c0.8,0,1.6-0.5,2-1.3
			l0,0l0,0c0-0.1,0.1-0.1,0.1-0.1c0.1-0.1,0.1-0.3,0.2-0.3c0.2-0.5,0.3-0.8,0.4-1.2c0.1-0.2,0.1-0.4,0.2-0.6l0,0
			c0.5-1.3,0.8-2.4,1.4-3.3c0.3-0.4,0.6-0.5,0.9-0.6c0.1,0,0.1,0,0.1-0.1l0,0l0.5-0.9c2.9,1.1,6.1,1.7,9.3,1.7
			c1.9,0,3.9-0.2,5.8-0.7c1.2-0.3,2.3-0.6,3.5-1l0.4,0.7c0.1,0,0.1,0,0.1,0.1c0.3,0.1,0.6,0.2,0.9,0.6c0.5,0.9,0.9,2.1,1.4,3.3v0.1
			c0.1,0.2,0.1,0.4,0.2,0.6c0.1,0.4,0.2,0.8,0.4,1.2c0.1,0.1,0.1,0.2,0.2,0.3c0,0.1,0.1,0.1,0.1,0.1l0,0l0,0c0.4,0.8,1.2,1.3,2,1.3
			c0.3,0,0.5-0.1,0.8-0.2c0.5-0.3,0.9-0.7,1-1.2c0.1-0.5,0.1-1.1-0.1-1.7l0,0l0,0c0-0.1-0.1-0.1-0.1-0.1c-0.1-0.1-0.1-0.3-0.2-0.3
			c-0.2-0.4-0.5-0.7-0.7-1.1c-0.1-0.2-0.3-0.3-0.4-0.5V119c-0.7-1.1-1.4-2.1-1.7-3.1c-0.1-0.5,0-0.7,0.1-1.1c0-0.1,0.1-0.1,0.1-0.1
			l0,0l-0.3-0.8c3.5-2.1,6.5-5,8.8-8.6c1.2-1.9,2.1-3.9,2.8-6l0.8,0.1c0.1,0,0.1-0.1,0.1-0.1c0.3-0.1,0.5-0.3,0.9-0.3H84
			c1.1,0.1,2.2,0.5,3.5,1h0.1c0.2,0.1,0.4,0.2,0.6,0.3c0.4,0.2,0.7,0.3,1.2,0.5c0.1,0,0.3,0.1,0.4,0.1c0.1,0,0.1,0,0.2,0.1l0,0
			c0.2,0.1,0.3,0.1,0.5,0.1c1,0,1.9-0.7,2.1-1.5C92.6,98.7,91.8,97.6,90.6,97.3L90.6,97.3z M59.9,94.1L57,95.4l-2.9-1.4l-0.7-3.1
			l2-2.5h3.3l2,2.5L59.9,94.1L59.9,94.1z M77.2,87.1c0.5,2.3,0.7,4.5,0.5,6.7l-10.2-2.9c-0.9-0.3-1.5-1.2-1.3-2.1
			c0.1-0.3,0.2-0.5,0.4-0.7l8-7.2C75.8,82.7,76.7,84.8,77.2,87.1L77.2,87.1z M71.5,76.9L62.8,83c-0.7,0.5-1.7,0.3-2.3-0.4
			c-0.2-0.2-0.3-0.5-0.3-0.7l-0.6-10.8C64.2,71.6,68.3,73.7,71.5,76.9L71.5,76.9z M52.3,71.4c0.7-0.1,1.4-0.3,2.1-0.4l-0.6,10.6
			c-0.1,0.9-0.8,1.7-1.8,1.7c-0.3,0-0.6-0.1-0.8-0.2l-8.8-6.3C45.1,74.1,48.5,72.3,52.3,71.4L52.3,71.4z M39.2,80.8l7.9,7
			c0.7,0.6,0.8,1.7,0.2,2.5c-0.2,0.3-0.5,0.5-0.8,0.5l-10.3,3C35.8,89.3,36.8,84.8,39.2,80.8L39.2,80.8z M37.4,98.8L48,97
			c0.9-0.1,1.7,0.5,1.9,1.4c0.1,0.4,0.1,0.7-0.1,1.1l0,0l-4.1,9.8C42,106.9,39,103.2,37.4,98.8L37.4,98.8z M61.6,112
			c-1.5,0.3-3.1,0.5-4.6,0.5c-2.3,0-4.6-0.4-6.7-1.1l5.2-9.5c0.5-0.6,1.4-0.9,2.1-0.5c0.3,0.2,0.6,0.5,0.8,0.7l0,0l5.1,9.2
			C63,111.7,62.3,111.8,61.6,112L61.6,112z M74.6,102.8c-1.7,2.7-3.9,4.8-6.4,6.4l-4.2-10c-0.2-0.8,0.1-1.7,0.9-2.1
			c0.3-0.1,0.6-0.2,0.9-0.2l10.6,1.8C76.1,100.2,75.4,101.6,74.6,102.8L74.6,102.8z"/>
	</g>
</g>
<g>
	<path class="st0" d="M121.2,92.1c0.7-0.7,1.3-1.5,2-2.2s1.4-1.5,2-2.3c0.7-0.8,1.3-1.5,1.9-2.2c0.6-0.7,1.1-1.3,1.5-1.8h8
		c-1.6,1.8-3.1,3.6-4.6,5.2c-1.5,1.7-3.2,3.4-5,5.1c0.9,0.8,1.8,1.8,2.8,2.9c1,1.1,1.9,2.3,2.8,3.5c0.9,1.2,1.7,2.4,2.5,3.6
		c0.7,1.2,1.4,2.3,1.9,3.3h-7.7c-0.5-0.8-1-1.6-1.6-2.6c-0.6-0.9-1.3-1.9-1.9-2.8c-0.7-0.9-1.4-1.9-2.2-2.7
		c-0.8-0.9-1.5-1.6-2.3-2.2v10.3h-6.7V73.4l6.7-1.1V92.1z"/>
	<path class="st0" d="M160.1,106.4c-1.1,0.3-2.6,0.6-4.4,0.9c-1.8,0.3-3.7,0.4-5.7,0.4c-2,0-3.7-0.3-5-0.8c-1.3-0.5-2.4-1.3-3.2-2.3
		c-0.8-1-1.3-2.1-1.7-3.5c-0.3-1.3-0.5-2.8-0.5-4.4V83.6h6.7v12.3c0,2.2,0.3,3.7,0.9,4.7c0.6,1,1.6,1.4,3.2,1.4c0.5,0,1,0,1.5-0.1
		c0.5,0,1-0.1,1.4-0.2V83.6h6.7V106.4z"/>
	<path class="st0" d="M188.4,95.4c0,1.9-0.3,3.6-0.8,5.1c-0.6,1.5-1.4,2.8-2.4,3.9c-1,1.1-2.3,1.9-3.9,2.5c-1.5,0.6-3.3,0.9-5.2,0.9
		c-0.8,0-1.7,0-2.5-0.1c-0.9-0.1-1.8-0.2-2.6-0.3c-0.9-0.1-1.7-0.3-2.4-0.4c-0.8-0.2-1.5-0.3-2.1-0.5v-33l6.7-1.1v11.8
		c0.7-0.3,1.5-0.6,2.3-0.8c0.8-0.2,1.7-0.3,2.6-0.3c1.7,0,3.2,0.3,4.4,0.9c1.3,0.6,2.4,1.4,3.2,2.5c0.9,1.1,1.5,2.4,2,3.9
		C188.2,91.8,188.4,93.5,188.4,95.4z M181.6,95.2c0-4.3-1.6-6.5-4.8-6.5c-0.7,0-1.4,0.1-2,0.3c-0.7,0.2-1.2,0.4-1.6,0.7v12.2
		c0.3,0.1,0.7,0.1,1.3,0.2c0.5,0,1.1,0.1,1.7,0.1c1.8,0,3.2-0.6,4.1-1.9C181.1,98.9,181.6,97.3,181.6,95.2z"/>
	<path class="st0" d="M192.4,95.6c0-2.1,0.3-3.9,1-5.5c0.6-1.6,1.5-2.9,2.5-3.9c1-1,2.2-1.8,3.6-2.4c1.4-0.5,2.8-0.8,4.2-0.8
		c3.3,0,6,1,7.9,3.1c1.9,2,2.9,5.1,2.9,9c0,0.4,0,0.8,0,1.3c0,0.5-0.1,0.9-0.1,1.2h-15.2c0.1,1.4,0.8,2.5,1.9,3.3
		c1.1,0.8,2.7,1.2,4.6,1.2c1.2,0,2.4-0.1,3.6-0.3c1.2-0.2,2.1-0.5,2.9-0.8l0.9,5.4c-0.4,0.2-0.8,0.4-1.4,0.5c-0.6,0.2-1.3,0.3-2,0.5
		c-0.7,0.1-1.5,0.2-2.4,0.3c-0.8,0.1-1.7,0.1-2.5,0.1c-2.1,0-4-0.3-5.5-0.9c-1.6-0.6-2.9-1.5-3.9-2.6c-1-1.1-1.8-2.4-2.3-3.9
		C192.7,98.9,192.4,97.3,192.4,95.6z M208.1,93c0-0.6-0.1-1.1-0.3-1.7c-0.2-0.5-0.4-1-0.8-1.4c-0.3-0.4-0.8-0.8-1.3-1
		c-0.5-0.3-1.2-0.4-2-0.4c-0.7,0-1.4,0.1-1.9,0.4c-0.5,0.3-1,0.6-1.3,1c-0.4,0.4-0.6,0.9-0.8,1.5c-0.2,0.6-0.3,1.1-0.4,1.7H208.1z"
		/>
	<path class="st0" d="M234,89.5c-0.6-0.1-1.3-0.3-2.1-0.5c-0.8-0.2-1.7-0.2-2.6-0.2c-0.4,0-0.9,0-1.5,0.1c-0.6,0.1-1,0.2-1.3,0.2v18
		h-6.7V84.8c1.2-0.4,2.6-0.8,4.2-1.2s3.5-0.6,5.5-0.6c0.4,0,0.8,0,1.3,0.1c0.5,0,1,0.1,1.5,0.2c0.5,0.1,1,0.2,1.5,0.3
		c0.5,0.1,0.9,0.2,1.3,0.4L234,89.5z"/>
	<path class="st0" d="M238.7,84.4c1.1-0.3,2.6-0.6,4.4-0.9c1.8-0.3,3.7-0.4,5.7-0.4c2,0,3.7,0.3,5,0.8c1.3,0.5,2.4,1.3,3.2,2.2
		c0.8,1,1.3,2.1,1.7,3.4c0.3,1.3,0.5,2.8,0.5,4.4v13.3h-6.7V94.7c0-2.2-0.3-3.7-0.9-4.6c-0.6-0.9-1.6-1.3-3.2-1.3
		c-0.5,0-1,0-1.5,0.1c-0.5,0-1,0.1-1.4,0.2v18.2h-6.7V84.4z"/>
	<path class="st0" d="M264,95.6c0-2.1,0.3-3.9,1-5.5c0.6-1.6,1.5-2.9,2.5-3.9c1-1,2.2-1.8,3.6-2.4c1.4-0.5,2.8-0.8,4.2-0.8
		c3.3,0,6,1,7.9,3.1c1.9,2,2.9,5.1,2.9,9c0,0.4,0,0.8,0,1.3c0,0.5-0.1,0.9-0.1,1.2h-15.2c0.1,1.4,0.8,2.5,1.9,3.3
		c1.1,0.8,2.7,1.2,4.6,1.2c1.2,0,2.4-0.1,3.6-0.3c1.2-0.2,2.1-0.5,2.9-0.8l0.9,5.4c-0.4,0.2-0.8,0.4-1.4,0.5c-0.6,0.2-1.3,0.3-2,0.5
		c-0.7,0.1-1.5,0.2-2.4,0.3c-0.8,0.1-1.7,0.1-2.5,0.1c-2.1,0-4-0.3-5.5-0.9c-1.6-0.6-2.9-1.5-3.9-2.6c-1-1.1-1.8-2.4-2.3-3.9
		C264.2,98.9,264,97.3,264,95.6z M279.7,93c0-0.6-0.1-1.1-0.3-1.7c-0.2-0.5-0.4-1-0.8-1.4c-0.3-0.4-0.8-0.8-1.3-1
		c-0.5-0.3-1.2-0.4-2-0.4c-0.7,0-1.4,0.1-1.9,0.4c-0.5,0.3-1,0.6-1.3,1c-0.4,0.4-0.6,0.9-0.8,1.5c-0.2,0.6-0.3,1.1-0.4,1.7H279.7z"
		/>
	<path class="st0" d="M291.1,77.7l6.7-1.1v7h8v5.6h-8v8.3c0,1.4,0.2,2.5,0.7,3.4c0.5,0.8,1.5,1.3,3,1.3c0.7,0,1.5-0.1,2.2-0.2
		c0.8-0.1,1.5-0.3,2.1-0.6l0.9,5.2c-0.8,0.3-1.7,0.6-2.7,0.9c-1,0.2-2.2,0.4-3.6,0.4c-1.8,0-3.3-0.2-4.5-0.7
		c-1.2-0.5-2.2-1.2-2.9-2.1c-0.7-0.9-1.2-2-1.5-3.2c-0.3-1.3-0.4-2.6-0.4-4.2V77.7z"/>
	<path class="st0" d="M309.2,95.6c0-2.1,0.3-3.9,1-5.5c0.6-1.6,1.5-2.9,2.5-3.9c1-1,2.2-1.8,3.6-2.4c1.4-0.5,2.8-0.8,4.2-0.8
		c3.4,0,6,1,7.9,3.1c1.9,2,2.9,5.1,2.9,9c0,0.4,0,0.8,0,1.3c0,0.5-0.1,0.9-0.1,1.2h-15.2c0.1,1.4,0.8,2.5,1.9,3.3
		c1.1,0.8,2.7,1.2,4.6,1.2c1.2,0,2.4-0.1,3.6-0.3c1.2-0.2,2.1-0.5,2.9-0.8l0.9,5.4c-0.4,0.2-0.8,0.4-1.4,0.5c-0.6,0.2-1.3,0.3-2,0.5
		c-0.7,0.1-1.5,0.2-2.4,0.3c-0.8,0.1-1.7,0.1-2.5,0.1c-2.1,0-4-0.3-5.5-0.9c-1.6-0.6-2.9-1.5-3.9-2.6c-1-1.1-1.8-2.4-2.3-3.9
		C309.5,98.9,309.2,97.3,309.2,95.6z M324.9,93c0-0.6-0.1-1.1-0.3-1.7c-0.2-0.5-0.4-1-0.8-1.4c-0.3-0.4-0.8-0.8-1.3-1
		c-0.5-0.3-1.2-0.4-2-0.4c-0.7,0-1.4,0.1-1.9,0.4c-0.5,0.3-1,0.6-1.3,1c-0.4,0.4-0.6,0.9-0.8,1.5c-0.2,0.6-0.3,1.1-0.4,1.7H324.9z"
		/>
	<path class="st0" d="M343.3,102.4c1.2,0,2.1-0.1,2.6-0.4c0.5-0.2,0.8-0.7,0.8-1.4c0-0.5-0.3-1-1-1.4s-1.7-0.9-3-1.4
		c-1-0.4-2-0.8-2.9-1.2c-0.9-0.4-1.6-0.9-2.2-1.5c-0.6-0.6-1.1-1.3-1.4-2.1c-0.3-0.8-0.5-1.8-0.5-2.9c0-2.2,0.8-4,2.5-5.3
		c1.6-1.3,3.9-1.9,6.8-1.9c1.4,0,2.8,0.1,4.1,0.4c1.3,0.3,2.4,0.5,3.1,0.8l-1.2,5.2c-0.8-0.3-1.6-0.5-2.5-0.7
		c-0.9-0.2-1.9-0.3-3.1-0.3c-2.1,0-3.1,0.6-3.1,1.8c0,0.3,0,0.5,0.1,0.7c0.1,0.2,0.3,0.4,0.5,0.6c0.3,0.2,0.6,0.4,1.1,0.6
		c0.5,0.2,1.1,0.5,1.8,0.7c1.5,0.5,2.7,1.1,3.6,1.6c1,0.5,1.7,1.1,2.3,1.7c0.6,0.6,0.9,1.3,1.2,2c0.2,0.7,0.3,1.6,0.3,2.6
		c0,2.3-0.9,4.1-2.6,5.3c-1.8,1.2-4.2,1.8-7.4,1.8c-2.1,0-3.8-0.2-5.2-0.5c-1.4-0.4-2.4-0.7-2.9-0.9l1.1-5.4
		c1.1,0.4,2.3,0.8,3.5,1.1C341,102.2,342.2,102.4,343.3,102.4z"/>
</g>
</svg>
