<svg id="Layer_1" xmlns="http://www.w3.org/2000/svg" xmlns:xlink="http://www.w3.org/1999/xlink" viewBox="0 0 180 180"><style>.st0{fill:#234b5f}.st1{display:none}.st2{display:inline;fill:#234b5f}.st3{fill:#fff}.st4{fill-rule:evenodd;clip-rule:evenodd;fill:#234b5f}.st5{clip-path:url(#SVGID_2_)}.st6{clip-path:url(#SVGID_4_);fill:#234b5f}.st7{clip-path:url(#SVGID_6_)}.st8{clip-path:url(#SVGID_8_);fill:#234b5f}.st9{fill-rule:evenodd;clip-rule:evenodd;fill:#fff}.st10{clip-path:url(#SVGID_10_)}.st11{clip-path:url(#SVGID_12_);fill:#234b5f}</style><defs><path id="SVGID_1_" d="M309.7 67.4l-6.3 6.3c-.4.4-.4.9 0 1.3l44.7 44.7c.4.4.9.4 1.3 0L394.1 75c.4-.4.4-.9 0-1.3l-6.3-6.3-36.4 36.4c-1.4 1.4-3.7 1.4-5.2 0l-36.5-36.4z"/></defs><use xlink:href="#SVGID_1_" overflow="visible" fill-rule="evenodd" clip-rule="evenodd" fill="#234b5f"/><clipPath id="SVGID_2_"><use xlink:href="#SVGID_1_" overflow="visible"/></clipPath><g class="st5"><defs><path id="SVGID_3_" d="M166.3-50.8h364.8v273.6H166.3z"/></defs><use xlink:href="#SVGID_3_" overflow="visible" fill="#234b5f"/><clipPath id="SVGID_4_"><use xlink:href="#SVGID_3_" overflow="visible"/></clipPath></g><path id="Square_32_" class="st4" d="M90.7 103.5c-.4-.4-1.1-.4-1.5 0L75 117.7c-.4.4-.4 1.1 0 1.5l14.3 14.3c.4.4 1.1.4 1.5 0l14.3-14.3c.4-.4.4-1.1 0-1.5l-14.4-14.2z"/><g id="Fourth_Row_4_"><path id="Square_31_" class="st4" d="M123.4 99.3L109.1 85c-.4-.4-1.1-.4-1.5 0L93.4 99.3c-.4.4-.4 1.1 0 1.5l14.3 14.3c.4.4 1.1.4 1.5 0l14.3-14.3c.3-.4.3-1-.1-1.5z"/><path id="Square_30_" class="st4" d="M86.6 99.3L72.3 85.1c-.4-.4-1.1-.4-1.5 0L56.6 99.3c-.4.4-.4 1.1 0 1.5l14.3 14.3c.4.4 1.1.4 1.5 0l14.3-14.3c.3-.4.3-1-.1-1.5z"/></g><g id="Third_Row_4_"><path id="Square_29_" class="st4" d="M141.8 82.4l-14.3 14.3c-.4.4-1.1.4-1.5 0l-14.3-14.3c-.4-.4-.4-1.1 0-1.5L126 66.6c.4-.4 1.1-.4 1.5 0L141.8 81c.4.4.4 1 0 1.4z"/><path id="Square_28_" class="st4" d="M105 82.4L90.7 96.7c-.4.4-1.1.4-1.5 0L75 82.4c-.4-.4-.4-1.1 0-1.5l14.3-14.3c.4-.4 1.1-.4 1.5 0L105 81c.4.4.4 1 0 1.4z"/><path id="Square_27_" class="st4" d="M68.2 82.4L53.9 96.7c-.4.4-1.1.4-1.5 0L38.2 82.4c-.4-.4-.4-1.1 0-1.5l14.3-14.3c.4-.4 1.1-.4 1.5 0L68.2 81c.4.4.4 1 0 1.4z"/></g><g id="Second_Row_4_"><path id="Square_26_" class="st4" d="M107.6 76.3c.4.4 1.1.4 1.5 0L123.4 62c.4-.4.4-1.1 0-1.5l-14.3-14.3c-.4-.4-1.1-.4-1.5 0L93.4 60.6c-.4.4-.4 1 0 1.4l14.2 14.3z"/><path id="Square_25_" class="st4" d="M70.9 76.2c.4.4 1.1.4 1.5 0L86.6 62c.4-.4.4-1.1 0-1.5L72.4 46.2c-.4-.4-1.1-.4-1.5 0L56.6 60.5c-.4.4-.4 1.1 0 1.5l14.3 14.2z"/></g><path id="Sqaure_4_" class="st4" d="M89.3 55.3c.4.4 1.1.4 1.5 0L105 41.1c.4-.4.4-1.1 0-1.5L90.7 25.3c-.4-.4-1.1-.4-1.5 0L75 39.6c-.4.4-.4 1.1 0 1.5l14.3 14.2z"/><defs><path id="SVGID_5_" d="M45.4 94.9l-7.2 7.2c-.4.4-.4 1.1 0 1.5l51.1 51.1c.4.4 1.1.4 1.5 0l51.1-51.1c.4-.4.4-1.1 0-1.5l-7.2-7.2-41.6 41.6c-1.6 1.6-4.3 1.6-5.9 0L45.4 94.9z"/></defs><use xlink:href="#SVGID_5_" overflow="visible" fill-rule="evenodd" clip-rule="evenodd" fill="#234b5f"/><clipPath id="SVGID_6_"><use xlink:href="#SVGID_5_" overflow="visible"/></clipPath><g class="st7"><defs><path id="SVGID_7_" d="M-118.4-40.1h416.8v312.6h-416.8z"/></defs><use xlink:href="#SVGID_7_" overflow="visible" fill="#234b5f"/><clipPath id="SVGID_8_"><use xlink:href="#SVGID_7_" overflow="visible"/></clipPath><path class="st8" d="M35.3 92.3h109.4v65.3H35.3z"/></g></svg>