<svg id="Layer_1" xmlns="http://www.w3.org/2000/svg" viewBox="0 0 180 180"><style>.st0{fill:#234b5f}.st1{display:none}.st2{display:inline;fill:#234b5f}.st3{fill:#fff}.st4{fill-rule:evenodd;clip-rule:evenodd;fill:#234b5f}.st5{clip-path:url(#SVGID_2_)}.st6{clip-path:url(#SVGID_4_);fill:#234b5f}.st7{clip-path:url(#SVGID_6_)}.st8{clip-path:url(#SVGID_8_);fill:#234b5f}.st9{fill-rule:evenodd;clip-rule:evenodd;fill:#fff}.st10{clip-path:url(#SVGID_10_)}.st11{clip-path:url(#SVGID_12_);fill:#234b5f}</style><g id="body_colors_6_"><path class="st0" d="M145.2 85c.9-7.5-4.6-13.4-8.1-16.2-4 4.6-4.6 16.8 1.6 21.9-3.5 3.1-10.9 6-18.5 6H28.1c-.7 7.9.6 15.2 3.8 21.4l1 2c.6 1.1 1.4 2.3 2.2 3.3 3.8.2 7.3.3 10.5.2 6.3-.1 11.4-.9 15.3-2.3.6-.2 1.2.1 1.4.7.2.6-.1 1.2-.7 1.4-.5.2-1 .3-1.6.5-3.1.8-6.4 1.4-10.6 1.7h-.8c-1.6.1-3.5.1-5.4.1-2.1 0-4 0-6.2-.1h-.1c7.7 8.6 19.7 13.8 34.8 13.8 31.9 0 58.9-14.1 70.9-45.8 8.5.8 16.7-1.3 20.4-8.5-5.9-3.4-13.4-2.2-17.8-.1z"/><path class="st0" d="M145.2 85c.9-7.5-4.6-13.4-8.1-16.2-4 4.6-4.6 16.8 1.6 21.9-3.5 3.1-10.9 6-18.5 6H33.5c-.4 12.1 4.1 21.3 12 26.9 6.3-.1 11.4-.9 15.3-2.3.6-.2 1.2.1 1.4.7.2.6-.1 1.2-.7 1.4-.5.2-1 .3-1.6.5-3.1.8-6.6 1.5-10.8 1.7l-.1-.1c10.8 5.6 26.5 5.6 44.6-1.3 20.2-7.7 39-22.5 52.2-39.5l-.6.3z"/><path class="st0" d="M28.2 106.3c.6 4.2 1.9 8.2 3.6 11.8l1 2c.6 1.1 1.4 2.3 2.2 3.3 3.8.2 7.3.3 10.5.2 6.3-.1 11.4-.9 15.3-2.3.6-.2 1.2.1 1.4.7.2.6-.1 1.2-.7 1.4-.5.2-1 .3-1.6.5-3.1.8-6.6 1.5-10.8 1.7h-.5c-1.6.1-3.4.1-5.2.1-2.1 0-4.1 0-6.3-.1 7.7 8.6 19.8 13.8 34.8 13.8 27.3 0 51-10.4 64.8-33.2-.1.1-108.5.1-108.5.1z"/><path class="st0" d="M34.3 106.3c1.6 7.4 5.6 13.3 11.2 17.3 6.3-.1 11.4-.9 15.3-2.3.6-.2 1.2.1 1.4.7.2.6-.1 1.2-.7 1.4-.5.2-1 .3-1.6.5-3.1.8-6.7 1.5-10.9 1.7 10.8 5.6 26.5 5.5 44.6-1.4 10.9-4.2 21.4-10.4 30.8-17.9h-90z"/></g><path class="st0" d="M51 83.1h1v10.4h-1V83.1zm-1.9 0h1v10.4h-1V83.1zm-1.9 0h1v10.4h-1V83.1zm-1.8 0h1v10.4h-1V83.1zm-2 0h1v10.4h-1V83.1zm-1.8 0h1v10.4h-1V83.1zM40.5 82H53v12.5H40.5V82zm24.9-13.3h1v10.4h-1V68.7zm-1.9 0h1v10.4h-1V68.7zm-1.9 0h1v10.4h-1V68.7zm-1.8 0h1v10.4h-1V68.7zm-2 0h1v10.4h-1V68.7zm-1.8 0h1v10.4h-1V68.7zm-1.1-1.1h12.5v12.5H54.9V67.6zm10.5 15.5h1v10.4h-1V83.1zm-1.9 0h1v10.4h-1V83.1zm-1.9 0h1v10.4h-1V83.1zm-1.8 0h1v10.4h-1V83.1zm-2 0h1v10.4h-1V83.1zm-1.8 0h1v10.4h-1V83.1zM54.9 82h12.5v12.5H54.9V82zm24.8 1.1h1v10.4h-1V83.1zm-1.8 0h1v10.4h-1V83.1zm-1.9 0h1v10.4h-1V83.1zm-1.9 0h1v10.4h-1V83.1zm-1.9 0h1v10.4h-1V83.1zm-1.8 0h1v10.4h-1V83.1zM69.3 82h12.5v12.5H69.3V82zm10.4-13.3h1v10.4h-1V68.7zm-1.8 0h1v10.4h-1V68.7zm-1.9 0h1v10.4h-1V68.7zm-1.9 0h1v10.4h-1V68.7zm-1.9 0h1v10.4h-1V68.7zm-1.8 0h1v10.4h-1V68.7zm-1.1-1.1h12.5v12.5H69.3V67.6zm24.8 15.5h1v10.4h-1V83.1zm-1.8 0h1v10.4h-1V83.1zm-2 0h1v10.4h-1V83.1zm-1.8 0h1v10.4h-1V83.1zm-1.9 0h1v10.4h-1V83.1zm-1.8 0h1v10.4h-1V83.1zM83.7 82h12.5v12.5H83.7V82zm10.4-13.3h1v10.4h-1V68.7zm-1.8 0h1v10.4h-1V68.7zm-2 0h1v10.4h-1V68.7zm-1.8 0h1v10.4h-1V68.7zm-1.9 0h1v10.4h-1V68.7zm-1.8 0h1v10.4h-1V68.7zm-1.1-1.1h12.5v12.5H83.7V67.6zm10.4-13.3h1v10.4h-1V54.3zm-1.8 0h1v10.4h-1V54.3zm-2 0h1v10.4h-1V54.3zm-1.8 0h1v10.4h-1V54.3zm-1.9 0h1v10.4h-1V54.3zm-1.8 0h1v10.4h-1V54.3zm-1.1-1.1h12.5v12.5H83.7V53.2zm24.8 29.9h1v10.4h-1V83.1zm-1.8 0h1v10.4h-1V83.1zm-2 0h1v10.4h-1V83.1zm-1.8 0h1v10.4h-1V83.1zm-1.9 0h1v10.4h-1V83.1zm-1.8 0h1v10.4h-1V83.1zM98 82h12.5v12.5H98V82z" id="Containers_6_"/><path class="st3" d="M66.7 114.7c1.9 0 3.4 1.5 3.4 3.4s-1.5 3.4-3.4 3.4-3.4-1.5-3.4-3.4c-.1-1.9 1.4-3.4 3.4-3.4"/><path class="st0" d="M66.7 115.7c.3 0 .6.1.9.2-.3.2-.5.5-.5.8 0 .5.4 1 1 1 .4 0 .7-.2.9-.5.1.3.2.6.2.9 0 1.3-1.1 2.5-2.5 2.5s-2.5-1.1-2.5-2.5 1-2.4 2.5-2.4m-61-8.1h160c-3.5-.9-11-2.1-9.8-6.7-6.4 7.3-21.6 5.1-25.4 1.5-4.3 6.3-29.3 3.9-31.1-1-5.4 6.3-22 6.3-27.5 0-1.7 4.8-26.8 7.2-31.1 1-3.8 3.6-19.1 5.8-25.4-1.5 1.5 4.6-6.2 5.7-9.7 6.7m70.1 31.9c-8.5-4-13.2-9.6-15.7-15.5-3.2.9-7 1.4-11.4 1.7-1.6.1-3.4.1-5.2.1-2.2 0-4.3-.1-6.7-.2 7.8 7.8 17.4 13.8 35.2 13.9 1.1.1 2.5 0 3.8 0z"/><path class="st0" d="M63.2 129.5c-1.1-1.6-2.4-3.6-3.2-5.6-3.2.9-7 1.4-11.4 1.7 3 1.7 7.4 3.3 14.6 3.9z"/></svg>