<svg id="Layer_1" xmlns="http://www.w3.org/2000/svg" xmlns:xlink="http://www.w3.org/1999/xlink" viewBox="0 0 180 180"><style>.st0{fill:#234b5f}.st1{display:none}.st2{display:inline;fill:#234b5f}.st3{fill:#fff}.st4{fill-rule:evenodd;clip-rule:evenodd;fill:#234b5f}.st5{clip-path:url(#SVGID_2_)}.st6{clip-path:url(#SVGID_4_);fill:#234b5f}.st7{clip-path:url(#SVGID_6_)}.st8{clip-path:url(#SVGID_8_);fill:#234b5f}.st9{fill-rule:evenodd;clip-rule:evenodd;fill:#fff}.st10{clip-path:url(#SVGID_10_)}.st11{clip-path:url(#SVGID_12_);fill:#234b5f}</style><defs><path id="SVGID_1_" d="M309.7-146.6l-6.3 6.3c-.4.4-.4.9 0 1.3l44.7 44.7c.4.4.9.4 1.3 0l44.7-44.7c.4-.4.4-.9 0-1.3l-6.3-6.3-36.4 36.4c-1.4 1.4-3.7 1.4-5.2 0l-36.5-36.4z"/></defs><use xlink:href="#SVGID_1_" overflow="visible" fill-rule="evenodd" clip-rule="evenodd" fill="#234b5f"/><clipPath id="SVGID_2_"><use xlink:href="#SVGID_1_" overflow="visible"/></clipPath><g class="st5"><defs><path id="SVGID_3_" d="M166.3-264.8h364.8V8.8H166.3z"/></defs><use xlink:href="#SVGID_3_" overflow="visible" fill="#234b5f"/><clipPath id="SVGID_4_"><use xlink:href="#SVGID_3_" overflow="visible"/></clipPath></g><defs><path id="SVGID_5_" d="M45.4-119.1l-7.2 7.2c-.4.4-.4 1.1 0 1.5l51.1 51.1c.4.4 1.1.4 1.5 0l51.1-51.1c.4-.4.4-1.1 0-1.5l-7.2-7.2-41.8 41.7c-1.6 1.6-4.3 1.6-5.9 0l-41.6-41.7z"/></defs><use xlink:href="#SVGID_5_" overflow="visible" fill-rule="evenodd" clip-rule="evenodd" fill="#234b5f"/><clipPath id="SVGID_6_"><use xlink:href="#SVGID_5_" overflow="visible"/></clipPath><g class="st7"><defs><path id="SVGID_7_" d="M-118.4-254.1h416.8V58.5h-416.8z"/></defs><use xlink:href="#SVGID_7_" overflow="visible" fill="#234b5f"/><clipPath id="SVGID_8_"><use xlink:href="#SVGID_7_" overflow="visible"/></clipPath></g><path class="st0" d="M169.9 69l-1.7-10.4c-.6-3.3-1.9-6.1-2.9-6.1s-1.9 2.8-1.9 6.1v2.7c0 3.4-2.8 6.1-6.2 6.1h-3.3V75h10.8c3.5.1 5.8-2.7 5.2-6zm-24.5-8.8h-34.6v-1.6c0-3.4-.8-6.1-1.9-6.1-1 0-2.3 2.7-2.9 6.1L104.2 69c-.6 3.3 1.8 6.1 5.1 6.1h10.2c1.1 0 2.1-.2 2.9-.5-.3 1.7-1.9 3.1-3.7 3.1h-14.4c-2.3 0-4.1-2.1-3.7-4.4l1.5-8.7c.4-2.3-1.4-4.4-3.7-4.4H27c-1.5 0-2.8.9-3.4 2.2L10.2 82.9c-.2.3-.2.8.1 1.1l2.6 3.1c.3.4.9.4 1.3.1l9.1-7.2v43.7c0 2.1 1.7 3.8 3.8 3.8h20.3c2.1 0 3.8-1.7 3.8-3.8v-15.2c0-2.1 1.7-3.8 3.8-3.8h50.7c2.1 0 3.8 1.7 3.8 3.8v15.2c0 2.1 1.7 3.8 3.8 3.8h20.3c2.1 0 3.8-1.7 3.8-3.8v-16.4h-10.8c-3.4 0-6.2-2.8-6.2-6.1V90.7c0-2 1-3.8 2.5-4.9v12.6c0 3.4 2.8 6.1 6.2 6.1h16.6c3.4 0 6.2-2.8 6.2-6.1v-32c-.4-3.4-3.1-6.2-6.5-6.2z"/></svg>