<?xml version="1.0" encoding="utf-8"?>
<!-- Generator: Adobe Illustrator 19.2.1, SVG Export Plug-In . SVG Version: 6.00 Build 0)  -->
<svg version="1.1" id="Layer_1" xmlns="http://www.w3.org/2000/svg" xmlns:xlink="http://www.w3.org/1999/xlink" x="0px" y="0px"
	 viewBox="0 0 180 180" style="enable-background:new 0 0 180 180;" xml:space="preserve">
<style type="text/css">
	.st0{fill:#234B5F;}
	.st1{display:none;}
	.st2{display:inline;fill:#234B5F;}
	.st3{fill:#FFFFFF;}
	.st4{fill-rule:evenodd;clip-rule:evenodd;fill:#234B5F;}
	.st5{clip-path:url(#SVGID_2_);}
	.st6{clip-path:url(#SVGID_4_);fill:#234B5F;}
	.st7{clip-path:url(#SVGID_6_);}
	.st8{clip-path:url(#SVGID_8_);fill:#234B5F;}
	.st9{fill-rule:evenodd;clip-rule:evenodd;fill:#FFFFFF;}
	.st10{clip-path:url(#SVGID_10_);}
	.st11{clip-path:url(#SVGID_12_);fill:#234B5F;}
</style>
<g>
	<path id="DC_x2F_OS" class="st4" d="M53.7,141c2.7,0,4.2,1,4.2,2.9v11.9c0,1.9-1.6,2.9-4.2,2.9h-4.2V141H53.7z M53.7,163.2
		c7.1,0,9.5-3.1,9.5-6.4V143c0-3.3-2.5-6.4-9.5-6.4h-8.5c-0.7,0-0.9,0.3-0.9,1v24.5c0,0.7,0.2,1,0.8,1H53.7z M85.2,154.8
		c0-0.7-0.2-1-0.9-1h-3.2c-0.7,0-1,0.3-1,1v1.5c0,1.9-1.4,2.9-4,2.9c-2.6,0-3.9-1-3.9-2.9v-12.6c0-1.9,1.3-2.9,3.9-2.9
		c2.6,0,4,1,4,2.9v0.9c0,0.7,0.3,1,1,1h3.2c0.7,0,0.9-0.3,0.9-1v-1.9c0-3.3-2.1-6.4-9.2-6.4s-9.2,3.1-9.2,6.4v14.4
		c0,3.3,2.1,6.4,9.2,6.4s9.2-3.1,9.2-6.4V154.8z M115.4,157.8c0,2.4-1.5,4-6.1,4c-4.5,0-6-1.6-6-4v-15.5c0-2.4,1.5-4,6-4
		c4.6,0,6.1,1.6,6.1,4V157.8z M101.2,158.1c0,3,1.9,5.5,8.1,5.5c6.3,0,8.2-2.5,8.2-5.5V142c0-3-1.9-5.5-8.2-5.5
		c-6.2,0-8.1,2.5-8.1,5.5V158.1z M134.9,143.8c0,0.3,0.1,0.5,0.4,0.5h1.1c0.4,0,0.5-0.2,0.5-0.5v-1.9c0-3-1.8-5.5-7.8-5.5
		c-6.1,0-7.8,2.5-7.8,5.5v2.1c0,2.5,1.8,4,3.4,4.6l7.3,2.8c1.5,0.6,3.2,1.5,3.2,3.6v2.8c0,2.3-1.5,4-6.1,4c-4.6,0-6-1.6-6-4V156
		c0-0.4-0.2-0.5-0.5-0.5h-1.1c-0.3,0-0.5,0.2-0.5,0.5v2c0,3,1.9,5.5,8.1,5.5c6.2,0,8.1-2.5,8.1-5.5v-3.4c0-2.7-1.9-4.1-3.9-4.9
		l-7.5-2.8c-1.1-0.4-2.5-1.3-2.5-3.3v-1.4c0-2.3,1.3-4,5.8-4c4.5,0,5.8,1.6,5.8,4V143.8z"/>
	<path id="_x2F_" class="st4" d="M98.4,133.7c0.1,0,0.2,0.1,0.2,0.3l-8.6,32c0,0.1-0.2,0.3-0.3,0.3h-1.5c-0.1,0-0.2-0.1-0.2-0.3
		l8.6-32c0-0.1,0.2-0.3,0.3-0.3H98.4z"/>
	<path id="Square_14_" class="st4" d="M91.4,74.8c-0.4-0.4-0.9-0.4-1.3,0L77.6,87.3c-0.4,0.4-0.4,0.9,0,1.3l12.5,12.5
		c0.4,0.4,0.9,0.4,1.3,0l12.5-12.5c0.4-0.4,0.4-0.9,0-1.3L91.4,74.8z"/>
	<g id="Fourth_Row_1_">
		<path id="Square_13_" class="st4" d="M120,71.2l-12.5-12.5c-0.4-0.4-0.9-0.4-1.3,0L93.7,71.2c-0.4,0.4-0.4,0.9,0,1.3L106.2,85
			c0.4,0.4,0.9,0.4,1.3,0L120,72.5C120.4,72.2,120.4,71.6,120,71.2z"/>
		<path id="Square_12_" class="st4" d="M87.8,71.2L75.3,58.8c-0.4-0.4-0.9-0.4-1.3,0L61.5,71.2c-0.4,0.4-0.4,0.9,0,1.3L74,85
			c0.4,0.4,0.9,0.4,1.3,0l12.5-12.5C88.1,72.2,88.1,71.6,87.8,71.2z"/>
	</g>
	<g id="Third_Row_1_">
		<path id="Square_11_" class="st4" d="M136.1,56.5l-12.5,12.5c-0.4,0.4-0.9,0.4-1.3,0l-12.5-12.5c-0.4-0.4-0.4-0.9,0-1.3l12.5-12.5
			c0.4-0.4,0.9-0.4,1.3,0l12.5,12.5C136.5,55.5,136.5,56.1,136.1,56.5z"/>
		<path id="Square_10_" class="st4" d="M103.9,56.5L91.4,68.9c-0.4,0.4-0.9,0.4-1.3,0L77.6,56.5c-0.4-0.4-0.4-0.9,0-1.3l12.5-12.5
			c0.4-0.4,0.9-0.4,1.3,0l12.5,12.5C104.3,55.5,104.3,56.1,103.9,56.5z"/>
		<path id="Square_9_" class="st4" d="M71.7,56.5L59.2,68.9c-0.4,0.4-0.9,0.4-1.3,0L45.4,56.5c-0.4-0.4-0.4-0.9,0-1.3l12.5-12.5
			c0.4-0.4,0.9-0.4,1.3,0l12.5,12.5C72,55.5,72,56.1,71.7,56.5z"/>
	</g>
	<g id="Second_Row_1_">
		<path id="Square_8_" class="st4" d="M106.2,51.1c0.4,0.4,0.9,0.4,1.3,0L120,38.6c0.4-0.4,0.4-0.9,0-1.3l-12.5-12.5
			c-0.4-0.4-0.9-0.4-1.3,0L93.7,37.3c-0.4,0.4-0.4,0.9,0,1.3L106.2,51.1z"/>
		<path id="Square_7_" class="st4" d="M74,51c0.4,0.4,0.9,0.4,1.3,0l12.5-12.5c0.4-0.4,0.4-0.9,0-1.3L75.3,24.7
			c-0.4-0.4-0.9-0.4-1.3,0L61.5,37.2c-0.4,0.4-0.4,0.9,0,1.3L74,51z"/>
	</g>
	<path id="Sqaure_1_" class="st4" d="M90.1,32.7c0.4,0.4,0.9,0.4,1.3,0l12.5-12.5c0.4-0.4,0.4-0.9,0-1.3L91.4,6.4
		c-0.4-0.4-0.9-0.4-1.3,0L77.6,18.9c-0.4,0.4-0.4,0.9,0,1.3L90.1,32.7z"/>
	<g>
		<defs>
			<path id="SVGID_1_" d="M51.7,67.4l-6.3,6.3c-0.4,0.4-0.4,0.9,0,1.3l44.7,44.7c0.4,0.4,0.9,0.4,1.3,0L136.1,75
				c0.4-0.4,0.4-0.9,0-1.3l-6.3-6.3l-36.4,36.4c-1.4,1.4-3.7,1.4-5.2,0L51.7,67.4z"/>
		</defs>
		<use xlink:href="#SVGID_1_"  style="overflow:visible;fill-rule:evenodd;clip-rule:evenodd;fill:#234B5F;"/>
		<clipPath id="SVGID_2_">
			<use xlink:href="#SVGID_1_"  style="overflow:visible;"/>
		</clipPath>
		<g class="st5">
			<defs>
				<rect id="SVGID_3_" x="-91.7" y="-50.8" width="364.8" height="273.6"/>
			</defs>
			<use xlink:href="#SVGID_3_"  style="overflow:visible;fill:#234B5F;"/>
			<clipPath id="SVGID_4_">
				<use xlink:href="#SVGID_3_"  style="overflow:visible;"/>
			</clipPath>
			<rect x="42.9" y="65.1" class="st6" width="95.8" height="57.1"/>
		</g>
	</g>
</g>
<g>
	<g>
		<defs>
			<path id="SVGID_5_" d="M-212.6,94.9l-7.2,7.2c-0.4,0.4-0.4,1.1,0,1.5l51.1,51.1c0.4,0.4,1.1,0.4,1.5,0l51.1-51.1
				c0.4-0.4,0.4-1.1,0-1.5l-7.2-7.2l-41.6,41.6c-1.6,1.6-4.3,1.6-5.9,0L-212.6,94.9z"/>
		</defs>
		<use xlink:href="#SVGID_5_"  style="overflow:visible;fill-rule:evenodd;clip-rule:evenodd;fill:#234B5F;"/>
		<clipPath id="SVGID_6_">
			<use xlink:href="#SVGID_5_"  style="overflow:visible;"/>
		</clipPath>
		<g class="st7">
			<defs>
				<rect id="SVGID_7_" x="-376.4" y="-40.1" width="416.8" height="312.6"/>
			</defs>
			<use xlink:href="#SVGID_7_"  style="overflow:visible;fill:#234B5F;"/>
			<clipPath id="SVGID_8_">
				<use xlink:href="#SVGID_7_"  style="overflow:visible;"/>
			</clipPath>
		</g>
	</g>
</g>
<g>
	<g>
		<defs>
			<path id="SVGID_9_" d="M274,94.6l-6.7,6.7c-0.4,0.4-0.4,1,0,1.4l47.7,47.7c0.4,0.4,1,0.4,1.4,0l47.7-47.7c0.4-0.4,0.4-1,0-1.4
				l-6.7-6.7l-38.9,38.9c-1.5,1.5-4,1.5-5.5,0L274,94.6z"/>
		</defs>
		<use xlink:href="#SVGID_9_"  style="overflow:visible;fill-rule:evenodd;clip-rule:evenodd;fill:#234B5F;"/>
		<clipPath id="SVGID_10_">
			<use xlink:href="#SVGID_9_"  style="overflow:visible;"/>
		</clipPath>
		<g class="st10">
			<defs>
				<rect id="SVGID_11_" x="120.9" y="-31.6" width="389.6" height="292.2"/>
			</defs>
			<use xlink:href="#SVGID_11_"  style="overflow:visible;fill:#234B5F;"/>
			<clipPath id="SVGID_12_">
				<use xlink:href="#SVGID_11_"  style="overflow:visible;"/>
			</clipPath>
		</g>
	</g>
</g>
</svg>
