<?xml version="1.0" encoding="utf-8"?>
<!-- Generator: Adobe Illustrator 19.2.1, SVG Export Plug-In . SVG Version: 6.00 Build 0)  -->
<svg version="1.1" id="Layer_1" xmlns="http://www.w3.org/2000/svg" xmlns:xlink="http://www.w3.org/1999/xlink" x="0px" y="0px"
	 viewBox="0 0 360 180" style="enable-background:new 0 0 360 180;" xml:space="preserve">
<style type="text/css">
	.st0{fill:#234B5F;}
	.st1{display:none;}
	.st2{display:inline;fill:#234B5F;}
	.st3{fill:#FFFFFF;}
	.st4{fill-rule:evenodd;clip-rule:evenodd;fill:#234B5F;}
	.st5{clip-path:url(#SVGID_2_);}
	.st6{clip-path:url(#SVGID_4_);fill:#234B5F;}
	.st7{clip-path:url(#SVGID_6_);}
	.st8{clip-path:url(#SVGID_8_);fill:#234B5F;}
	.st9{fill-rule:evenodd;clip-rule:evenodd;fill:#FFFFFF;}
	.st10{clip-path:url(#SVGID_10_);}
	.st11{clip-path:url(#SVGID_12_);fill:#234B5F;}
</style>
<g>
	<g>
		<defs>
			<path id="SVGID_1_" d="M-185.3-146.6l-6.3,6.3c-0.4,0.4-0.4,0.9,0,1.3l44.7,44.7c0.4,0.4,0.9,0.4,1.3,0l44.7-44.7
				c0.4-0.4,0.4-0.9,0-1.3l-6.3-6.3l-36.4,36.4c-1.4,1.4-3.7,1.4-5.2,0L-185.3-146.6z"/>
		</defs>
		<use xlink:href="#SVGID_1_"  style="overflow:visible;fill-rule:evenodd;clip-rule:evenodd;fill:#234B5F;"/>
		<clipPath id="SVGID_2_">
			<use xlink:href="#SVGID_1_"  style="overflow:visible;"/>
		</clipPath>
		<g class="st5">
			<defs>
				<rect id="SVGID_3_" x="-328.7" y="-264.8" width="364.8" height="273.6"/>
			</defs>
			<use xlink:href="#SVGID_3_"  style="overflow:visible;fill:#234B5F;"/>
			<clipPath id="SVGID_4_">
				<use xlink:href="#SVGID_3_"  style="overflow:visible;"/>
			</clipPath>
		</g>
	</g>
</g>
<g>
	<g>
		<defs>
			<path id="SVGID_9_" d="M37-119.4l-6.7,6.7c-0.4,0.4-0.4,1,0,1.4L78-63.5c0.4,0.4,1,0.4,1.4,0l47.7-47.7c0.4-0.4,0.4-1,0-1.4
				l-6.7-6.7L81.4-80.5c-1.5,1.5-4,1.5-5.5,0L37-119.4z"/>
		</defs>
		<use xlink:href="#SVGID_9_"  style="overflow:visible;fill-rule:evenodd;clip-rule:evenodd;fill:#234B5F;"/>
		<clipPath id="SVGID_6_">
			<use xlink:href="#SVGID_9_"  style="overflow:visible;"/>
		</clipPath>
		<g class="st7">
			<defs>
				<rect id="SVGID_11_" x="-116.1" y="-245.6" width="389.6" height="292.2"/>
			</defs>
			<use xlink:href="#SVGID_11_"  style="overflow:visible;fill:#234B5F;"/>
			<clipPath id="SVGID_8_">
				<use xlink:href="#SVGID_11_"  style="overflow:visible;"/>
			</clipPath>
		</g>
	</g>
</g>
<g>
	<g>
		<g>
			<path class="st0" d="M148,110.3c-2.8,0-5.5,0-8.3,0c0-11.4,0-22.7,0-34c0.1-0.1,0.2-0.1,0.3-0.1c5.4,0.1,10.8-0.1,16.2,0.2
				c4.6,0.2,7.9,3.2,8.5,7.1c0.8,5-1.2,9-5.6,11c-0.3,0.1-0.6,0.3-0.7,0.3c1.2,2.3,2.3,4.5,3.5,6.7c0.8,1.4,1.6,2.7,3.4,3
				c1.4,0.2,1.8,0,2.3-1.3c2.9-8.6,5.8-17.2,8.7-25.9c0.3-0.8,0.6-1.1,1.5-1.1c2.2,0.1,4.4,0,6.6,0.1c0.3,0,0.9,0.3,1,0.6
				c3.7,10.9,7.4,21.9,11.1,32.8c0.1,0.2,0.1,0.4,0.1,0.7c-2.6,0-5.2,0-7.8,0c-0.3,0-0.6-0.4-0.7-0.7c-0.6-1.7-1.1-3.3-1.6-5
				c-0.2-0.6-0.5-0.9-1.2-0.9c-3.3,0-6.6,0-9.9,0c-0.7,0-1,0.2-1.2,0.8c-0.5,1.6-1,3.3-1.5,4.9c-0.2,0.6-0.5,0.8-1.1,0.8
				c-2.7,0-5.5,0.1-8.2,0.2c-3.1,0.1-5.5-1-7.1-3.7c-0.9-1.6-1.6-3.4-2.5-5c-0.6-1.3-1.2-2.5-1.9-3.8c-0.7-1.3-2-1.5-3.3-1.2
				c-0.2,0-0.5,0.7-0.5,1c0,3.6,0,7.3,0,10.9C148,109.2,148,109.7,148,110.3z M148,91c2.2-0.3,4.2-0.3,6.1-0.8
				c1.7-0.5,2.6-2.3,2.4-4.4c-0.2-1.9-1.2-3.2-3.1-3.4c-1.6-0.2-3.2-0.2-4.8-0.1c-0.2,0-0.6,0.5-0.6,0.7C148,85.5,148,88,148,91z
				 M180.3,85.1c-1.2,3.9-2.4,8.2-3.7,12.5c2.5,0,4.8,0,7.2,0C182.6,93.2,181.4,89,180.3,85.1z"/>
			<path class="st0" d="M203.7,87.8c0,7.6,0,15,0,22.5c-1.9,0-3.9,0-6,0c-0.2,0-0.5-0.4-0.6-0.6c-0.1-0.2,0-0.5,0-0.8
				c0-10.4,0-20.8,0-31.2c0-1.1,0.2-1.6,1.5-1.5c2.2,0.1,4.4,0.1,6.6,0c0.7,0,1.1,0.2,1.4,0.8c3.6,7.3,7.9,14.2,10.9,21.8
				c0.1,0.1,0.2,0.2,0.5,0.4c0-0.3,0-0.7,0-1c-0.1-7-0.2-13.9-0.3-20.9c0-0.5-0.1-1,0.7-1c2,0,4,0,6,0c0,11.4,0,22.7,0,34.2
				c-1.5,0-3,0-4.5,0c-1.4,0-3.1,0.4-4.1-0.2c-1-0.6-1.4-2.2-2.1-3.4c-2.4-4.4-4.9-8.8-7.2-13.3C205.4,91.6,204.6,89.8,203.7,87.8z"
				/>
			<path class="st0" d="M256.9,110.3c0-11.4,0-22.6,0-34c2.7,0,5.4,0,8.3,0c0,4.2,0,8.4,0,12.7c3.6,0,7,0,10.7,0c0-4.2,0-8.5,0-12.8
				c2.9,0,5.5,0,8.3,0c0,11.3,0,22.7,0,34.1c-2.7,0-5.4,0-8.2,0c0-0.5-0.1-0.9-0.1-1.4c0-4,0-8,0-12c0-0.9-0.3-1.2-1.2-1.2
				c-3.1,0.1-6.2,0-9.4,0c0,4.9,0,9.6,0,14.5C262.5,110.3,259.8,110.3,256.9,110.3z"/>
			<path class="st0" d="M312.6,110.3c0-11.4,0-22.6,0-34c0.3,0,0.6-0.1,0.9-0.1c4.5,0,8.9,0,13.4,0c1.4,0,2.7,0.2,4.1,0.5
				c4.1,1,6.2,3.6,6.8,7.9c0.5,3.7-1.4,7.4-4.7,9.3c-0.6,0.4-1.3,0.7-1.8,0.9c1.2,2.3,2.4,4.6,3.6,6.8c1,1.9,2.4,3.3,5.1,2.7
				c-0.2,1.9-0.3,3.6-0.6,5.4c0,0.2-0.5,0.5-0.8,0.5c-4.4,0.8-7.7,0.1-10-4.2c-0.9-1.7-1.6-3.5-2.4-5.2c-0.4-0.9-0.8-1.8-1.3-2.6
				c-0.6-1.1-1.6-1.6-2.9-1.6c-0.9,0-1.1,0.3-1.1,1.2c0,3.7,0,7.4,0,11c0,0.4,0,0.9,0,1.3C318.1,110.3,315.4,110.3,312.6,110.3z
				 M320.9,90.9c2.1-0.2,4.1-0.2,5.9-0.7c1.9-0.5,2.8-2.3,2.6-4.5c-0.2-1.9-1.2-3.2-3.2-3.5c-1.5-0.2-3.1-0.1-4.7-0.1
				c-0.2,0-0.6,0.5-0.6,0.7C320.9,85.5,320.9,88,320.9,90.9z"/>
			<path class="st0" d="M310.5,76.3c0,1.9,0,3.7,0,5.5c0,0.2-0.7,0.6-1,0.6c-3.9,0-7.8,0-11.6,0c-0.5,0-0.9,0-1.5,0
				c0,2.5,0,4.9,0,7.5c0.5,0,0.9,0.1,1.4,0.1c2.5,0,5,0,7.5,0c3,0,3,0,3,3c0,1,0,2,0,3.1c-4,0-7.9,0-11.9,0c0,2.8,0,5.4,0,8.2
				c4.8,0,9.7,0,14.6,0c0,2.1,0,4.1,0,6.1c-7.6,0-15.2,0-23,0c0-11.3,0-22.6,0-34C295.5,76.3,302.9,76.3,310.5,76.3z"/>
			<path class="st0" d="M248.1,98.3c2.2,0.2,4.3,0.5,6.4,0.6c1,0.1,0.9,0.7,0.8,1.3c-0.2,4.7-2.5,7.9-6.9,9.6
				c-4.2,1.6-8.6,1.7-12.9,0.2c-4.2-1.5-6.8-4.7-8-8.9c-1.5-5.2-1.6-10.5-0.1-15.7c1.6-5.8,5.9-9.2,11.9-9.7c3-0.3,5.9-0.2,8.8,0.7
				c5.2,1.7,7.8,6.4,6.6,11.9c-2.4,0.2-4.9,0.5-7.5,0.7c0-0.8,0-1.5,0-2.3c0-2.8-1-4.4-3.2-5.1c-2.7-0.8-5.3,0-6.8,2.1
				c-1.3,1.8-1.7,3.9-1.9,6.1c-0.3,3.4-0.3,6.7,0.6,10c1.1,4,3.8,5.8,7.6,5.1c2.9-0.5,4.5-2.5,4.6-5.5
				C248.1,99.1,248.1,98.7,248.1,98.3z"/>
		</g>
		<rect x="196.8" y="76.2" class="st0" width="7.1" height="34.3"/>
		<rect x="139.4" y="76.2" class="st0" width="8.9" height="34.3"/>
		<polygon class="st0" points="224.3,110.5 215.4,110.5 196.8,76.2 206.2,76.2 		"/>
		<polygon class="st0" points="196.8,110.5 187.9,110.5 176.4,76.2 185,76.2 		"/>
		<polygon class="st0" points="163.4,110.5 172.3,110.5 183.8,76.2 175.1,76.2 		"/>
		<rect x="217.2" y="76.2" class="st0" width="7.1" height="34.3"/>
		<rect x="256.7" y="76.2" class="st0" width="8.8" height="34.3"/>
		<rect x="275.5" y="76.2" class="st0" width="8.8" height="34.3"/>
		<rect x="287.7" y="76.2" class="st0" width="8.8" height="34.3"/>
		<rect x="312.4" y="76.2" class="st0" width="8.8" height="34.3"/>
		<rect x="294.5" y="76.2" class="st0" width="16" height="6.3"/>
		<rect x="292.1" y="89.8" class="st0" width="16" height="6.3"/>
		<rect x="262.9" y="89" class="st0" width="16" height="7"/>
		<rect x="172.1" y="97.1" class="st0" width="16" height="7"/>
		<rect x="292.1" y="104.2" class="st0" width="18.9" height="6.3"/>
	</g>
	<g>
		<path class="st0" d="M27.5,83.1c-1.8,1.4-3.4,2.6-4.9,3.9c-0.7,0.6-1.1,0.5-1.7-0.2c-1.2-1.5-1.2-1.5-0.2-3.1
			c2.3-3.5,4.6-7,6.9-10.5c0.7-1,1.5-1.4,2.6-1.4c13.6,0,27.1,0,40.7,0c2.1,0,2.9,1,2.5,3.1c-0.2,1.4-0.5,2.8-0.7,4.2
			c-0.3,1.9,0.7,3.1,2.6,3.1c2.6,0,5.2,0,7.8,0c1.5,0,2.2-0.6,2.4-1.8c-2.4,0-4.8,0-7.2,0c-2.5,0-3.7-1.5-3.3-3.9
			c0.4-2.1,0.7-4.2,1.1-6.2c0.2-1,0.7-1.9,1.2-3.1c1.4,1.6,1.1,3.2,1.3,4.8c0.4,0,0.8,0,1.3,0c6,0,12.1,0,18.1,0
			c3,0,4.3,1.1,4.4,4.1c0.1,4,0,8.1,0,12.1c0,2.1,0,4.2,0,6.4c-0.1,1.9-1.4,3.2-3.3,3.2c-3.3,0-6.6,0-9.9,0c-2,0-3.4-1.4-3.4-3.4
			c0-2.4,0-4.8,0-7.5c-0.5,0.4-0.9,0.6-1,0.9c-0.3,0.8-0.7,1.6-0.7,2.4c-0.1,1.8-0.1,3.7,0,5.5c0,2.6,1.6,4.1,4.1,4.1
			c1.6,0,3.2,0,4.8,0c0.7,0,1,0.3,1,1c0,2.8,0,5.6,0,8.5c0,1.4-0.8,2.2-2.2,2.2c-3.8,0-7.6,0-11.4,0c-1.5,0-2.3-0.8-2.3-2.3
			c0-2.7,0-5.3,0-8c0-2.2-0.9-3-3.1-3c-9.4,0-18.8,0-28.2,0c-2.3,0-3.1,0.8-3.1,3.1c0,2.6,0,5.2,0,7.8c0,1.7-0.8,2.5-2.5,2.5
			c-3.6,0-7.1,0-10.7,0c-2,0-2.7-0.7-2.8-2.8c0-7.8,0-15.5,0-23.3C27.6,84.5,27.6,84,27.5,83.1z"/>
		<path class="st0" d="M111.1,67.3c0.3,0.8,0.9,1.5,1,2.3c0.5,2.4,0.9,4.9,1.2,7.4c0.3,2.1-0.9,3.3-3.1,3.3c-1.9,0-3.9,0-6,0
			c0-1.3,0-2.4,0-3.5c0-0.2,0.4-0.5,0.7-0.6c0.4-0.1,0.9,0,1.4-0.1c2.2-0.3,3.4-1.8,3.5-4.2c0-1.2,0.1-2.3,0.3-3.5
			c0-0.4,0.3-0.8,0.5-1.1C110.8,67.3,110.9,67.3,111.1,67.3z"/>
	</g>
</g>
</svg>
