<?xml version="1.0" encoding="utf-8"?>
<!-- Generator: Adobe Illustrator 19.2.1, SVG Export Plug-In . SVG Version: 6.00 Build 0)  -->
<svg version="1.1" id="Layer_1" xmlns="http://www.w3.org/2000/svg" xmlns:xlink="http://www.w3.org/1999/xlink" x="0px" y="0px"
	 viewBox="0 0 50 50" style="enable-background:new 0 0 50 50;" xml:space="preserve">
<style type="text/css">
	.st0{fill:#173B4D;}
	.st1{clip-path:url(#SVGID_2_);fill:#173B4D;}
	.st2{clip-path:url(#SVGID_2_);fill:#FF405E;}
	.st3{fill:#CCD9E3;}
</style>
<g id="Layer_2">
</g>
<g id="Layer_2_1_">
</g>
<polygon class="st0" points="8.1,36.5 5.4,43.7 2.6,36.5 0.5,36.5 4.3,45.9 6.3,45.9 10,36.5 "/>
<g>
	<defs>
		<rect id="SVGID_1_" x="0.5" y="2" width="48.9" height="46.4"/>
	</defs>
	<clipPath id="SVGID_2_">
		<use xlink:href="#SVGID_1_"  style="overflow:visible;"/>
	</clipPath>
	<path class="st1" d="M23.1,36.5h1.7v1.5h0c0-0.1,0.1-0.3,0.3-0.5c0.2-0.2,0.4-0.4,0.6-0.6c0.3-0.2,0.6-0.3,0.9-0.5
		c0.4-0.1,0.7-0.2,1.2-0.2c0.7,0,1.3,0.1,1.8,0.4c0.5,0.3,0.9,0.7,1.2,1.3c0.3-0.6,0.7-1,1.3-1.3c0.6-0.3,1.1-0.4,1.7-0.4
		c0.7,0,1.3,0.1,1.8,0.4c0.5,0.2,0.8,0.6,1.1,0.9c0.3,0.4,0.4,0.8,0.5,1.3c0.1,0.5,0.1,1,0.1,1.5v5.5h-1.8v-5.2c0-0.4,0-0.7-0.1-1
		c0-0.3-0.1-0.6-0.3-0.9c-0.1-0.3-0.4-0.5-0.6-0.6c-0.3-0.2-0.6-0.2-1.1-0.2c-0.9,0-1.5,0.3-1.8,0.8c-0.4,0.5-0.6,1.2-0.6,2v5.1
		h-1.8v-4.9c0-0.4,0-0.9-0.1-1.2c0-0.4-0.1-0.7-0.3-1c-0.1-0.3-0.3-0.5-0.6-0.6c-0.3-0.2-0.6-0.2-1-0.2c-0.3,0-0.6,0.1-0.9,0.2
		c-0.3,0.1-0.6,0.3-0.8,0.6c-0.2,0.3-0.4,0.6-0.5,1c-0.1,0.4-0.2,0.9-0.2,1.4v4.9h-1.8V36.5z"/>
	<path class="st1" d="M44.5,37.9c-0.5,0-0.9,0.1-1.3,0.2c-0.4,0.2-0.7,0.4-1,0.7c-0.3,0.3-0.5,0.6-0.6,1c-0.1,0.4-0.2,0.8-0.2,1.3
		s0.1,0.9,0.2,1.3c0.1,0.4,0.3,0.7,0.6,1c0.3,0.3,0.6,0.5,1,0.7c0.4,0.2,0.8,0.2,1.3,0.2c0.5,0,0.9-0.1,1.3-0.2
		c0.4-0.2,0.7-0.4,1-0.7c0.3-0.3,0.5-0.6,0.6-1c0.1-0.4,0.2-0.8,0.2-1.3s-0.1-0.9-0.2-1.3c-0.1-0.4-0.4-0.7-0.6-1
		c-0.3-0.3-0.6-0.5-1-0.7C45.4,38,44.9,37.9,44.5,37.9 M39.6,36.5h1.8v1.3h0c0.3-0.5,0.8-0.9,1.4-1.2c0.6-0.3,1.2-0.4,1.9-0.4
		c0.7,0,1.4,0.1,2,0.4c0.6,0.3,1.1,0.6,1.5,1.1c0.4,0.5,0.7,1,1,1.6c0.2,0.6,0.3,1.2,0.3,1.9c0,0.7-0.1,1.4-0.3,2
		c-0.2,0.6-0.5,1.1-1,1.6c-0.4,0.4-0.9,0.8-1.5,1c-0.6,0.3-1.2,0.4-2,0.4c-0.7,0-1.3-0.1-1.9-0.4c-0.6-0.3-1.1-0.7-1.4-1.2h0v3.8
		h-1.8V36.5z"/>
	<path class="st1" d="M15.7,37.9c1.7,0,3.1,1.5,3.1,3.3c0,1.8-1.4,3.3-3.1,3.3c-2,0-3.1-1.5-3.1-3.3C12.6,39.3,13.8,37.9,15.7,37.9
		 M15.5,46.1c1.4,0,2.7-0.6,3.5-1.6v1.3h1.6v-9.5H19v1.4c-0.8-1-2.2-1.6-3.5-1.6c-2.6,0-4.7,2.2-4.7,5S12.8,46.1,15.5,46.1"/>
	<path class="st2" d="M36.7,6.8l-6.6,11.4c-0.5,0.7-1.1,1.1-1.6,1.1c-0.6,0-1.3-0.5-1.8-1.4L26,16.8c0.3-0.2,0.6-0.5,0.8-0.8
		l4.7-8.2c0.8-1.5,1-2.9,0.3-4c0,0,0,0,0,0h3.1c1,0,1.8,0.3,2.1,0.9C37.3,5.1,37.2,5.9,36.7,6.8 M27,23.7c-0.5,0.9-1.2,1.4-1.8,1.4
		c-0.6,0-1.3-0.5-1.8-1.4L16.6,12c-0.3-0.7-0.3-1.4-0.1-1.8c0.3-0.6,1.1-0.9,2.1-0.9H20c0,0.3,0.1,0.7,0.3,1.1l4.9,8.4
		c0.8,1.5,2,2.3,3.3,2.3c0,0,0,0,0,0L27,23.7z M25.1,15.2c0,0-0.1-0.1-0.1-0.2L22.6,11l-0.9-1.5c0-0.1-0.1-0.1-0.1-0.2
		c0,0,0.1,0,0.2,0h6.5c0.1,0,0.2,0,0.2,0c0,0,0,0,0,0l-3.3,5.7C25.2,15.2,25.2,15.2,25.1,15.2 M13.3,4.6c0.3-0.6,1.1-0.9,2.1-0.9
		h12.7c1,0,1.8,0.3,2.1,0.9C30.6,5.1,30.5,6,30,6.8l-0.6,1c-0.3-0.2-0.7-0.2-1.1-0.2l-9.7,0c-1.7,0-3,0.6-3.6,1.7l-1.4-2.4
		C13.1,6,13,5.1,13.3,4.6 M38.5,3.7C37.8,2.6,36.5,2,34.9,2h-6.7H15.4c-1.7,0-3,0.6-3.6,1.7c-0.6,1.1-0.5,2.5,0.3,4l9.7,16.8
		c0.8,1.5,2,2.3,3.3,2.3c1.3,0,2.5-0.8,3.3-2.3l9.7-16.8C39,6.2,39.1,4.8,38.5,3.7"/>
</g>
<g>
	<polygon class="st3" points="112,13.7 111.1,13.7 111.1,14.6 112,14.6 112,14.6 112.9,14.6 112.9,13.7 112,13.7 	"/>
	<polygon class="st3" points="109.4,13.7 109.4,14.6 110.3,14.6 111.1,14.6 111.1,13.7 110.3,13.7 	"/>
	<rect x="108.5" y="13.7" class="st3" width="0.9" height="0.9"/>
	<polygon class="st3" points="109.4,8.5 110.3,8.5 111.1,8.5 111.1,7.6 111.1,7.6 111.1,6.8 110.3,6.8 109.4,6.8 109.4,6.8 
		108.5,6.8 108.5,7.6 108.5,7.6 108.5,8.5 109.4,8.5 	"/>
	<polygon class="st3" points="112.9,8.5 112.9,8.5 113.7,8.5 113.7,7.6 113.7,7.6 113.7,6.8 112.9,6.8 112,6.8 111.1,6.8 111.1,7.6 
		111.1,7.6 111.1,8.5 112,8.5 	"/>
	<polygon class="st3" points="108.5,7.6 108.5,7.6 108.5,6.8 107.7,6.8 107.7,7.6 107.7,7.6 107.7,8.5 108.5,8.5 	"/>
	<rect x="107.7" y="5.9" class="st3" width="0.9" height="0.9"/>
	<rect x="112.9" y="5.9" class="st3" width="0.9" height="0.9"/>
	<path class="st3" d="M114.6,8.5h-0.9h0h-0.9v0.9H112V8.5h-0.9v0.9v0.9h0V9.4V8.5h-0.9h-0.9v0.9h0h-0.9v0.9h0V9.4V8.5h-0.9v0.9h0
		V8.5h-0.9v0.9h-0.9V8.5h-0.9v0.9v0.9h0.9v0.9h0.9V12v0v0.9h0.9v0.9h0.9h0.9v-0.9h-0.9V12v0v-0.9h0.9v-0.9h0v0.9V12h0.9v-0.9h0.9
		v-0.9h0v0.9V12h0.9v-0.9h0.9V12v0v0.9H112v0.9h0.9h0.9v-0.9h0.9V12v0v-0.9v-0.9V9.4h0V8.5z M110.3,9.4L110.3,9.4l0,0.9h0V9.4z"/>
	<polygon class="st3" points="120.6,9.4 121.5,9.4 121.5,8.5 120.6,8.5 120.6,7.6 119.8,7.6 119.8,6.8 118.9,6.8 118.9,7.6 
		118.9,7.6 118.9,8.5 119.8,8.5 119.8,8.5 118.9,8.5 118.9,9.4 118.9,9.4 118.9,10.2 119.8,10.2 119.8,11.1 120.6,11.1 121.5,11.1 
		121.5,10.2 121.5,10.2 121.5,9.4 120.6,9.4 119.8,9.4 119.8,9.4 119.8,9.4 	"/>
	<polygon class="st3" points="118,6.8 117.2,6.8 117.2,6.8 116.3,6.8 116.3,7.6 116.3,7.6 116.3,8.5 117.2,8.5 117.2,8.5 118,8.5 
		118,8.5 118.9,8.5 118.9,7.6 118.9,7.6 118.9,6.8 118,6.8 	"/>
	<rect x="115.4" y="7.6" class="st3" width="0.9" height="0.9"/>
	<polygon class="st3" points="118,8.5 117.2,8.5 117.2,8.5 116.3,8.5 116.3,9.4 116.3,9.4 116.3,8.5 115.4,8.5 115.4,9.4 114.6,9.4 
		114.6,10.2 114.6,10.2 114.6,11.1 115.4,11.1 115.4,10.2 115.4,10.2 116.3,10.2 117.2,10.2 117.2,9.4 117.2,9.4 118,9.4 118,10.2 
		118.9,10.2 118.9,9.4 118.9,8.5 118,8.5 	"/>
	<rect x="120.6" y="11.1" class="st3" width="0.9" height="0.9"/>
	<polygon class="st3" points="104.2,8.5 104.2,8.5 105.1,8.5 105.1,7.6 105.1,7.6 105.1,6.8 104.2,6.8 104.2,6.8 103.3,6.8 
		102.5,6.8 102.5,7.6 102.5,7.6 102.5,8.5 103.3,8.5 	"/>
	<rect x="105.1" y="7.6" class="st3" width="0.9" height="0.9"/>
	<polygon class="st3" points="103.3,9.4 104.2,9.4 104.2,9.4 104.2,10.2 105.1,10.2 105.1,9.4 105.1,9.4 105.1,8.5 104.2,8.5 
		104.2,8.5 103.3,8.5 102.5,8.5 102.5,9.4 102.5,10.2 103.3,10.2 	"/>
	<path class="st3" d="M100.8,11.1h0.9v-0.9h0.9V9.4h0V8.5h-0.9v0h0.9V7.6v0V6.8h-0.9v0.9h-0.9v0.9v0h-0.9v0.9v0.9v0.9V12h0.9V11.1z
		 M100.8,9.4h0.9v0h0L100.8,9.4L100.8,9.4z"/>
	<polygon class="st3" points="95.4,42.7 94,42.7 94,44.1 95.4,44.1 95.4,44.1 96.8,44.1 96.8,42.7 95.4,42.7 	"/>
	<polygon class="st3" points="92.6,42.7 91.2,42.7 91.2,44.1 92.6,44.1 92.6,44.1 94,44.1 94,42.7 92.6,42.7 	"/>
	<rect x="89.8" y="42.7" class="st3" width="1.4" height="1.4"/>
	<polygon class="st3" points="88.4,34.3 88.4,34.3 88.4,35.7 89.8,35.7 89.8,34.3 91.2,34.3 91.2,35.7 92.6,35.7 94,35.7 95.4,35.7 
		95.4,34.3 96.8,34.3 96.8,34.3 96.8,34.3 96.8,35.7 98.2,35.7 98.2,35.7 99.6,35.7 99.6,34.3 98.2,34.3 98.2,34.3 98.2,33 98.2,33 
		98.2,31.6 98.2,30.2 96.8,30.2 96.8,31.6 96.8,33 96.8,33 96.8,31.6 95.4,31.6 94,31.6 92.6,31.6 91.2,31.6 91.2,31.6 89.8,31.6 
		89.8,33 89.8,33 89.8,34.3 89.8,34.3 89.8,33 89.8,33 89.8,31.6 89.8,30.2 88.4,30.2 88.4,31.6 88.4,33 88.4,33 88.4,34.3 87,34.3 
		87,35.7 88.4,35.7 	"/>
	<polygon class="st3" points="99.6,35.7 98.2,35.7 98.2,35.7 96.8,35.7 96.8,37.1 96.8,37.1 96.8,35.7 95.4,35.7 94,35.7 92.6,35.7 
		92.6,37.1 92.6,37.1 92.6,35.7 91.2,35.7 91.2,35.7 89.8,35.7 88.4,35.7 87,35.7 87,35.7 85.6,35.7 84.2,35.7 84.2,37.1 85.6,37.1 
		85.6,38.5 87,38.5 87,39.9 87,39.9 87,41.3 88.4,41.3 88.4,42.7 89.8,42.7 91.2,42.7 91.2,41.3 89.8,41.3 89.8,39.9 89.8,39.9 
		89.8,38.5 91.2,38.5 91.2,39.9 92.6,39.9 92.6,38.5 94,38.5 94,39.9 95.4,39.9 95.4,38.5 96.8,38.5 96.8,39.9 96.8,39.9 96.8,41.3 
		95.4,41.3 95.4,42.7 96.8,42.7 98.2,42.7 98.2,41.3 98.2,39.9 98.2,39.9 98.2,38.5 98.2,37.1 98.2,37.1 98.2,38.5 98.2,39.9 
		98.2,39.9 98.2,41.3 99.6,41.3 99.6,39.9 99.6,39.9 99.6,38.5 99.6,37.1 99.6,37.1 	"/>
	<polygon class="st3" points="109.3,33 107.9,33 107.9,31.6 106.5,31.6 106.5,33 106.5,33 106.5,34.3 106.5,34.3 106.5,35.7 
		106.5,35.7 106.5,37.1 107.9,37.1 107.9,37.1 107.9,38.5 109.3,38.5 109.3,39.9 110.7,39.9 110.7,38.5 110.7,37.1 110.7,35.7 
		109.3,35.7 109.3,35.7 110.7,35.7 110.7,34.3 109.3,34.3 	"/>
	<polygon class="st3" points="105.1,31.6 103.7,31.6 103.7,31.6 102.3,31.6 102.3,33 102.3,33 102.3,34.3 102.3,34.3 102.3,33 
		100.9,33 100.9,34.3 101,34.3 101,35.7 102.3,35.7 102.3,34.3 102.3,34.3 102.3,35.7 103.7,35.7 103.7,35.7 105.1,35.7 105.1,35.7 
		106.5,35.7 106.5,34.3 106.5,34.3 106.5,33 106.5,33 106.5,31.6 105.1,31.6 	"/>
	<polygon class="st3" points="101,35.7 99.6,35.7 99.6,37.1 99.6,38.5 101,38.5 101,37.1 102.3,37.1 103.7,37.1 103.7,35.7 
		102.3,35.7 	"/>
	<rect x="105.1" y="35.7" class="st3" width="1.4" height="1.4"/>
	<polygon class="st3" points="82.9,31.6 81.5,31.6 80.1,31.6 78.7,31.6 78.7,33 77.3,33 77.3,34.3 77.3,35.7 77.3,37.1 77.3,38.5 
		78.7,38.5 78.7,37.1 78.7,37.1 80.1,37.1 80.1,35.7 80.1,35.7 81.5,35.7 82.9,35.7 82.9,35.7 84.2,35.7 84.2,34.3 84.2,34.3 
		84.2,33 84.2,33 84.2,31.6 82.9,31.6 	"/>
	<polygon class="st3" points="85.6,34.3 85.6,34.3 85.6,33 84.3,33 84.3,34.3 84.2,34.3 84.2,35.7 85.6,35.7 	"/>
	<rect x="75.9" y="34.3" class="st3" width="1.4" height="1.4"/>
	<rect x="82.9" y="35.7" class="st3" width="1.4" height="1.4"/>
	<rect x="80.1" y="35.7" class="st3" width="1.4" height="1.4"/>
	<rect x="75.9" y="38.5" class="st3" width="1.4" height="1.4"/>
	<polygon class="st3" points="75.9,37.1 75.9,38.5 77.3,38.5 77.3,37.1 77.3,35.7 75.9,35.7 	"/>
</g>
</svg>
