<?xml version="1.0" encoding="utf-8"?>
<!-- Generator: Adobe Illustrator 19.2.1, SVG Export Plug-In . SVG Version: 6.00 Build 0)  -->
<svg version="1.1" id="Layer_1" xmlns="http://www.w3.org/2000/svg" xmlns:xlink="http://www.w3.org/1999/xlink" x="0px" y="0px"
	 viewBox="0 0 180 180" style="enable-background:new 0 0 180 180;" xml:space="preserve">
<style type="text/css">
	.st0{fill:#234B5F;}
	.st1{display:none;}
	.st2{display:inline;fill:#234B5F;}
	.st3{fill:#FFFFFF;}
	.st4{fill-rule:evenodd;clip-rule:evenodd;fill:#234B5F;}
	.st5{clip-path:url(#SVGID_2_);}
	.st6{clip-path:url(#SVGID_4_);fill:#234B5F;}
	.st7{clip-path:url(#SVGID_6_);}
	.st8{clip-path:url(#SVGID_8_);fill:#234B5F;}
	.st9{fill-rule:evenodd;clip-rule:evenodd;fill:#FFFFFF;}
	.st10{clip-path:url(#SVGID_10_);}
	.st11{clip-path:url(#SVGID_12_);fill:#234B5F;}
</style>
<g>
	<g>
		<defs>
			<path id="SVGID_1_" d="M51.7,283.4l-6.3,6.3c-0.4,0.4-0.4,0.9,0,1.3l44.7,44.7c0.4,0.4,0.9,0.4,1.3,0l44.7-44.7
				c0.4-0.4,0.4-0.9,0-1.3l-6.3-6.3l-36.4,36.4c-1.4,1.4-3.7,1.4-5.2,0L51.7,283.4z"/>
		</defs>
		<use xlink:href="#SVGID_1_"  style="overflow:visible;fill-rule:evenodd;clip-rule:evenodd;fill:#234B5F;"/>
		<clipPath id="SVGID_2_">
			<use xlink:href="#SVGID_1_"  style="overflow:visible;"/>
		</clipPath>
		<g class="st5">
			<defs>
				<rect id="SVGID_3_" x="-91.7" y="165.2" width="364.8" height="273.6"/>
			</defs>
			<use xlink:href="#SVGID_3_"  style="overflow:visible;fill:#234B5F;"/>
			<clipPath id="SVGID_4_">
				<use xlink:href="#SVGID_3_"  style="overflow:visible;"/>
			</clipPath>
		</g>
	</g>
</g>
<g>
	<g>
		<defs>
			<path id="SVGID_5_" d="M-212.6,310.9l-7.2,7.2c-0.4,0.4-0.4,1.1,0,1.5l51.1,51.1c0.4,0.4,1.1,0.4,1.5,0l51.1-51.1
				c0.4-0.4,0.4-1.1,0-1.5l-7.2-7.2l-41.6,41.6c-1.6,1.6-4.3,1.6-5.9,0L-212.6,310.9z"/>
		</defs>
		<use xlink:href="#SVGID_5_"  style="overflow:visible;fill-rule:evenodd;clip-rule:evenodd;fill:#234B5F;"/>
		<clipPath id="SVGID_6_">
			<use xlink:href="#SVGID_5_"  style="overflow:visible;"/>
		</clipPath>
		<g class="st7">
			<defs>
				<rect id="SVGID_7_" x="-376.4" y="175.9" width="416.8" height="312.6"/>
			</defs>
			<use xlink:href="#SVGID_7_"  style="overflow:visible;fill:#234B5F;"/>
			<clipPath id="SVGID_8_">
				<use xlink:href="#SVGID_7_"  style="overflow:visible;"/>
			</clipPath>
		</g>
	</g>
</g>
<g>
	<path class="st0" d="M71.4,118.6c-2.4,0-4.6-1.1-6.2-3L42,86.7c-1.5-1.9-2.1-4.4-1.5-6.8l8.3-36.1c0.5-2.4,2.1-4.3,4.3-5.4
		l33.6-16.1c1.1-0.5,2.3-0.8,3.5-0.8c1.2,0,2.4,0.3,3.5,0.8l33.6,16c2.2,1.1,3.8,3,4.3,5.4l8.3,36.1c0.5,2.4,0,4.8-1.5,6.8
		l-23.2,28.9c-1.5,1.9-3.8,3-6.2,3L71.4,118.6L71.4,118.6z"/>
	<path class="st3" d="M123.8,77.4L123.8,77.4L123.8,77.4C123.7,77.4,123.7,77.4,123.8,77.4L123.8,77.4c-0.1,0-0.2,0-0.2-0.1
		c-0.1,0-0.3-0.1-0.4-0.1c-0.5-0.1-0.9-0.1-1.3-0.1c-0.2,0-0.4,0-0.7-0.1h-0.1c-1.4-0.1-2.5-0.3-3.6-0.6c-0.5-0.2-0.6-0.5-0.7-0.7
		c0-0.1-0.1-0.1-0.1-0.1l0,0l-0.9-0.3c0.4-3.1,0.3-6.2-0.5-9.4c-0.7-3.1-2-6-3.7-8.7l0.7-0.6v-0.1c0-0.3,0.1-0.7,0.3-1
		c0.8-0.7,1.8-1.3,3-2.1l0,0c0.2-0.1,0.4-0.2,0.6-0.3c0.4-0.2,0.7-0.4,1.1-0.7c0.1-0.1,0.2-0.1,0.3-0.3c0.1-0.1,0.1-0.1,0.1-0.1l0,0
		c0.9-0.8,1.1-2.1,0.5-3c-0.3-0.5-0.9-0.7-1.5-0.7c-0.5,0-1,0.2-1.5,0.5l0,0l0,0c-0.1,0.1-0.1,0.1-0.1,0.1c-0.1,0.1-0.2,0.2-0.3,0.3
		c-0.3,0.3-0.6,0.6-0.9,0.9c-0.1,0.1-0.3,0.3-0.5,0.5l0,0c-0.9,1-1.8,1.8-2.7,2.4c-0.2,0.1-0.4,0.2-0.6,0.2c-0.1,0-0.3,0-0.4-0.1
		h-0.1l0,0l-0.8,0.5c-0.9-0.9-1.8-1.7-2.7-2.5c-4-3.1-8.8-5-13.9-5.5l-0.1-0.9c-0.1-0.1-0.1-0.1-0.1-0.1c-0.2-0.2-0.5-0.4-0.5-0.9
		c-0.1-1.1,0.1-2.3,0.2-3.6v-0.1c0-0.2,0.1-0.5,0.1-0.7c0.1-0.4,0.1-0.8,0.2-1.3v-0.4v-0.2l0,0l0,0c0-1.2-0.9-2.2-2.1-2.2
		c-0.5,0-1.1,0.3-1.5,0.7c-0.4,0.4-0.6,0.9-0.6,1.5l0,0l0,0v0.1v0.4c0,0.5,0.1,0.9,0.2,1.3c0.1,0.2,0.1,0.4,0.1,0.7v0.1
		c0.1,1.3,0.3,2.5,0.2,3.6c-0.1,0.5-0.3,0.7-0.5,0.9C88,44.7,88,44.7,88,44.8l0,0l-0.1,0.9c-1.2,0.1-2.4,0.3-3.6,0.5
		c-5.1,1.1-9.6,3.7-13.1,7.4l-0.7-0.5h-0.1c-0.1,0-0.3,0.1-0.4,0.1c-0.2,0-0.4-0.1-0.6-0.2c-0.9-0.6-1.7-1.5-2.7-2.5l0,0
		c-0.1-0.1-0.3-0.3-0.5-0.5c-0.3-0.3-0.5-0.6-0.9-0.9c-0.1-0.1-0.2-0.1-0.3-0.3c-0.1-0.1-0.1-0.1-0.1-0.1l0,0
		c-0.4-0.3-0.9-0.5-1.5-0.5c-0.6,0-1.2,0.3-1.5,0.7c-0.7,0.9-0.5,2.2,0.5,3l0,0l0,0c0.1,0,0.1,0.1,0.1,0.1c0.1,0.1,0.2,0.2,0.3,0.3
		c0.4,0.3,0.7,0.5,1.1,0.7c0.2,0.1,0.4,0.2,0.6,0.3l0,0c1.2,0.7,2.2,1.3,3,2.1c0.3,0.3,0.3,0.7,0.3,1v0.1l0,0l0.7,0.6
		c-0.1,0.2-0.3,0.3-0.3,0.5c-3.3,5.2-4.6,11.4-3.7,17.5l-0.9,0.3c0,0.1-0.1,0.1-0.1,0.1c-0.1,0.3-0.3,0.5-0.7,0.7
		c-1,0.3-2.2,0.5-3.6,0.6h-0.1c-0.2,0-0.5,0-0.7,0.1c-0.4,0-0.8,0.1-1.3,0.1c-0.1,0-0.3,0.1-0.4,0.1c-0.1,0-0.1,0-0.2,0.1l0,0l0,0
		c-1.2,0.3-1.9,1.4-1.7,2.5c0.2,0.9,1.1,1.5,2.1,1.5c0.2,0,0.3,0,0.5-0.1l0,0l0,0c0.1,0,0.1,0,0.1-0.1c0.1,0,0.3-0.1,0.4-0.1
		c0.5-0.1,0.8-0.3,1.2-0.5c0.2-0.1,0.4-0.2,0.6-0.3H60c1.3-0.5,2.4-0.9,3.5-1h0.1c0.4,0,0.7,0.2,0.9,0.3c0.1,0,0.1,0.1,0.1,0.1l0,0
		l0.9-0.1c1.6,4.9,4.6,9.3,8.7,12.5c0.9,0.7,1.9,1.3,2.9,1.9l-0.4,0.9c0,0.1,0.1,0.1,0.1,0.1c0.1,0.3,0.3,0.6,0.1,1.1
		c-0.4,1-1,2-1.7,3.1v0.1c-0.1,0.2-0.3,0.3-0.4,0.5c-0.3,0.3-0.5,0.7-0.7,1.1c-0.1,0.1-0.1,0.2-0.2,0.3c0,0.1-0.1,0.1-0.1,0.1l0,0
		l0,0c-0.5,1.1-0.1,2.4,0.9,2.9c0.3,0.1,0.5,0.2,0.8,0.2c0.8,0,1.6-0.5,2-1.3l0,0l0,0c0-0.1,0.1-0.1,0.1-0.1
		c0.1-0.1,0.1-0.3,0.2-0.3c0.2-0.5,0.3-0.8,0.4-1.2c0.1-0.2,0.1-0.4,0.2-0.6l0,0c0.5-1.3,0.8-2.4,1.4-3.3c0.3-0.4,0.6-0.5,0.9-0.6
		c0.1,0,0.1,0,0.1-0.1l0,0l0.5-0.9c2.9,1.1,6.1,1.7,9.3,1.7c1.9,0,3.9-0.2,5.8-0.7c1.2-0.3,2.3-0.6,3.5-1l0.4,0.7
		c0.1,0,0.1,0,0.1,0.1c0.3,0.1,0.6,0.2,0.9,0.6c0.5,0.9,0.9,2.1,1.4,3.3v0.1c0.1,0.2,0.1,0.4,0.2,0.6c0.1,0.4,0.2,0.8,0.4,1.2
		c0.1,0.1,0.1,0.2,0.2,0.3c0,0.1,0.1,0.1,0.1,0.1l0,0l0,0c0.4,0.8,1.2,1.3,2,1.3c0.3,0,0.5-0.1,0.8-0.2c0.5-0.3,0.9-0.7,1-1.2
		c0.1-0.5,0.1-1.1-0.1-1.7l0,0l0,0c0-0.1-0.1-0.1-0.1-0.1c-0.1-0.1-0.1-0.3-0.2-0.3c-0.2-0.4-0.5-0.7-0.7-1.1
		c-0.1-0.2-0.3-0.3-0.4-0.5v-0.1c-0.7-1.1-1.4-2.1-1.7-3.1c-0.1-0.5,0-0.7,0.1-1.1c0-0.1,0.1-0.1,0.1-0.1l0,0l-0.3-0.8
		c3.5-2.1,6.5-5,8.8-8.6c1.2-1.9,2.1-3.9,2.8-6l0.8,0.1c0.1,0,0.1-0.1,0.1-0.1c0.3-0.1,0.5-0.3,0.9-0.3h0.1c1.1,0.1,2.2,0.5,3.5,1
		h0.1c0.2,0.1,0.4,0.2,0.6,0.3c0.4,0.2,0.7,0.3,1.2,0.5c0.1,0,0.3,0.1,0.4,0.1c0.1,0,0.1,0,0.2,0.1l0,0c0.2,0.1,0.3,0.1,0.5,0.1
		c1,0,1.9-0.7,2.1-1.5C125.7,78.8,125,77.7,123.8,77.4L123.8,77.4z M93,74.2l-2.9,1.4l-2.9-1.4L86.4,71l2-2.5h3.3l2,2.5L93,74.2
		L93,74.2z M110.4,67.2c0.5,2.3,0.7,4.5,0.5,6.7L100.7,71c-0.9-0.3-1.5-1.2-1.3-2.1c0.1-0.3,0.2-0.5,0.4-0.7l8-7.2
		C109,62.8,109.8,64.9,110.4,67.2L110.4,67.2z M104.6,57l-8.7,6.2c-0.7,0.5-1.7,0.3-2.3-0.4c-0.2-0.2-0.3-0.5-0.3-0.7l-0.6-10.8
		C97.3,51.7,101.5,53.8,104.6,57L104.6,57z M85.4,51.5c0.7-0.1,1.4-0.3,2.1-0.4l-0.6,10.6c-0.1,0.9-0.8,1.7-1.8,1.7
		c-0.3,0-0.6-0.1-0.8-0.2L75.5,57C78.2,54.2,81.6,52.4,85.4,51.5L85.4,51.5z M72.3,60.9l7.9,7c0.7,0.6,0.8,1.7,0.2,2.5
		c-0.2,0.3-0.5,0.5-0.8,0.5l-10.3,3C68.9,69.4,69.9,64.9,72.3,60.9L72.3,60.9z M70.5,78.9l10.6-1.8c0.9-0.1,1.7,0.5,1.9,1.4
		c0.1,0.4,0.1,0.7-0.1,1.1l0,0l-4.1,9.8C75.1,87,72.1,83.3,70.5,78.9L70.5,78.9z M94.7,92.1c-1.5,0.3-3.1,0.5-4.6,0.5
		c-2.3,0-4.6-0.4-6.7-1.1l5.2-9.5c0.5-0.6,1.4-0.9,2.1-0.5c0.3,0.2,0.6,0.5,0.8,0.7l0,0l5.1,9.2C96.1,91.8,95.4,91.9,94.7,92.1
		L94.7,92.1z M107.7,82.9c-1.7,2.7-3.9,4.8-6.4,6.4l-4.2-10c-0.2-0.8,0.1-1.7,0.9-2.1c0.3-0.1,0.6-0.2,0.9-0.2l10.6,1.8
		C109.2,80.3,108.6,81.7,107.7,82.9L107.7,82.9z"/>
</g>
<g>
	<path class="st0" d="M15.1,146.8c0.4-0.5,0.9-1,1.4-1.5s0.9-1,1.4-1.5c0.4-0.5,0.9-1,1.2-1.4c0.4-0.5,0.7-0.9,1-1.2h5.3
		c-1.1,1.2-2.1,2.4-3.1,3.5s-2.1,2.2-3.3,3.4c0.6,0.5,1.2,1.2,1.9,1.9c0.6,0.8,1.3,1.5,1.9,2.3c0.6,0.8,1.2,1.6,1.7,2.4
		c0.5,0.8,0.9,1.5,1.3,2.2h-5.1c-0.3-0.5-0.7-1.1-1.1-1.7c-0.4-0.6-0.8-1.3-1.3-1.9s-0.9-1.2-1.5-1.8c-0.5-0.6-1-1.1-1.5-1.5v6.9
		h-4.5v-22.6l4.5-0.7V146.8z"/>
	<path class="st0" d="M41.1,156.4c-0.8,0.2-1.7,0.4-2.9,0.6c-1.2,0.2-2.5,0.3-3.8,0.3c-1.3,0-2.5-0.2-3.3-0.5
		c-0.9-0.4-1.6-0.9-2.1-1.5s-0.9-1.4-1.1-2.3c-0.2-0.9-0.3-1.9-0.3-3v-8.8H32v8.2c0,1.4,0.2,2.5,0.6,3.1c0.4,0.6,1.1,1,2.1,1
		c0.3,0,0.7,0,1,0c0.4,0,0.7-0.1,1-0.1v-12.2h4.5V156.4z"/>
	<path class="st0" d="M60,149.1c0,1.3-0.2,2.4-0.6,3.4c-0.4,1-0.9,1.9-1.6,2.6c-0.7,0.7-1.6,1.3-2.6,1.7c-1,0.4-2.2,0.6-3.5,0.6
		c-0.5,0-1.1,0-1.7-0.1c-0.6-0.1-1.2-0.1-1.7-0.2c-0.6-0.1-1.1-0.2-1.6-0.3c-0.5-0.1-1-0.2-1.4-0.3v-22.1l4.5-0.7v7.9
		c0.5-0.2,1-0.4,1.6-0.5c0.5-0.1,1.1-0.2,1.7-0.2c1.1,0,2.1,0.2,3,0.6s1.6,0.9,2.2,1.7c0.6,0.7,1,1.6,1.3,2.6
		C59.9,146.7,60,147.8,60,149.1z M55.4,148.9c0-2.9-1.1-4.3-3.2-4.3c-0.5,0-0.9,0.1-1.4,0.2c-0.5,0.1-0.8,0.3-1.1,0.4v8.1
		c0.2,0,0.5,0.1,0.8,0.1c0.3,0,0.7,0,1.1,0c1.2,0,2.1-0.4,2.8-1.3C55.1,151.4,55.4,150.3,55.4,148.9z"/>
	<path class="st0" d="M62.7,149.2c0-1.4,0.2-2.6,0.6-3.7c0.4-1.1,1-1.9,1.7-2.6c0.7-0.7,1.5-1.2,2.4-1.6c0.9-0.4,1.8-0.5,2.8-0.5
		c2.2,0,4,0.7,5.3,2.1c1.3,1.4,2,3.4,2,6c0,0.3,0,0.5,0,0.9c0,0.3,0,0.6-0.1,0.8H67.3c0.1,0.9,0.5,1.6,1.3,2.2
		c0.8,0.5,1.8,0.8,3.1,0.8c0.8,0,1.6-0.1,2.4-0.2c0.8-0.1,1.4-0.3,1.9-0.6l0.6,3.6c-0.2,0.1-0.6,0.2-1,0.4s-0.8,0.2-1.3,0.3
		c-0.5,0.1-1,0.2-1.6,0.2s-1.1,0.1-1.7,0.1c-1.4,0-2.7-0.2-3.7-0.6s-1.9-1-2.6-1.7c-0.7-0.7-1.2-1.6-1.5-2.6S62.7,150.3,62.7,149.2z
		 M73.2,147.5c0-0.4-0.1-0.8-0.2-1.1c-0.1-0.4-0.3-0.7-0.5-1s-0.5-0.5-0.9-0.7c-0.4-0.2-0.8-0.3-1.3-0.3c-0.5,0-0.9,0.1-1.3,0.3
		s-0.7,0.4-0.9,0.7c-0.2,0.3-0.4,0.6-0.6,1c-0.1,0.4-0.2,0.7-0.3,1.1H73.2z"/>
	<path class="st0" d="M90.5,145.1c-0.4-0.1-0.9-0.2-1.4-0.3c-0.5-0.1-1.1-0.2-1.7-0.2c-0.3,0-0.6,0-1,0.1c-0.4,0.1-0.7,0.1-0.9,0.2
		V157H81V142c0.8-0.3,1.7-0.5,2.8-0.8s2.3-0.4,3.6-0.4c0.2,0,0.5,0,0.9,0c0.3,0,0.7,0.1,1,0.1s0.7,0.1,1,0.2
		c0.3,0.1,0.6,0.2,0.9,0.3L90.5,145.1z"/>
	<path class="st0" d="M93.6,141.7c0.8-0.2,1.7-0.4,2.9-0.6c1.2-0.2,2.5-0.3,3.8-0.3c1.3,0,2.5,0.2,3.3,0.5c0.9,0.4,1.6,0.8,2.1,1.5
		s0.9,1.4,1.1,2.3c0.2,0.9,0.3,1.9,0.3,2.9v8.9h-4.5v-8.4c0-1.4-0.2-2.5-0.6-3.1c-0.4-0.6-1.1-0.9-2.1-0.9c-0.3,0-0.7,0-1,0
		c-0.4,0-0.7,0.1-1,0.1V157h-4.5V141.7z"/>
	<path class="st0" d="M110.6,149.2c0-1.4,0.2-2.6,0.6-3.7c0.4-1.1,1-1.9,1.7-2.6c0.7-0.7,1.5-1.2,2.4-1.6c0.9-0.4,1.8-0.5,2.8-0.5
		c2.2,0,4,0.7,5.3,2.1c1.3,1.4,2,3.4,2,6c0,0.3,0,0.5,0,0.9c0,0.3,0,0.6-0.1,0.8h-10.1c0.1,0.9,0.5,1.6,1.3,2.2
		c0.8,0.5,1.8,0.8,3.1,0.8c0.8,0,1.6-0.1,2.4-0.2c0.8-0.1,1.4-0.3,1.9-0.6l0.6,3.6c-0.2,0.1-0.6,0.2-1,0.4s-0.8,0.2-1.3,0.3
		c-0.5,0.1-1,0.2-1.6,0.2s-1.1,0.1-1.7,0.1c-1.4,0-2.7-0.2-3.7-0.6s-1.9-1-2.6-1.7c-0.7-0.7-1.2-1.6-1.5-2.6
		S110.6,150.3,110.6,149.2z M121.1,147.5c0-0.4-0.1-0.8-0.2-1.1c-0.1-0.4-0.3-0.7-0.5-1s-0.5-0.5-0.9-0.7c-0.4-0.2-0.8-0.3-1.3-0.3
		c-0.5,0-0.9,0.1-1.3,0.3s-0.7,0.4-0.9,0.7c-0.2,0.3-0.4,0.6-0.6,1c-0.1,0.4-0.2,0.7-0.3,1.1H121.1z"/>
	<path class="st0" d="M128.7,137.2l4.5-0.7v4.7h5.4v3.7h-5.4v5.6c0,0.9,0.2,1.7,0.5,2.2s1,0.8,2,0.8c0.5,0,1,0,1.5-0.1
		c0.5-0.1,1-0.2,1.4-0.4l0.6,3.5c-0.5,0.2-1.1,0.4-1.8,0.6c-0.7,0.2-1.5,0.2-2.4,0.2c-1.2,0-2.2-0.2-3-0.5c-0.8-0.3-1.4-0.8-1.9-1.4
		c-0.5-0.6-0.8-1.3-1-2.1c-0.2-0.8-0.3-1.8-0.3-2.8V137.2z"/>
	<path class="st0" d="M140.8,149.2c0-1.4,0.2-2.6,0.6-3.7c0.4-1.1,1-1.9,1.7-2.6c0.7-0.7,1.5-1.2,2.4-1.6c0.9-0.4,1.8-0.5,2.8-0.5
		c2.2,0,4,0.7,5.3,2.1c1.3,1.4,1.9,3.4,1.9,6c0,0.3,0,0.5,0,0.9c0,0.3,0,0.6-0.1,0.8h-10.1c0.1,0.9,0.5,1.6,1.3,2.2s1.8,0.8,3.1,0.8
		c0.8,0,1.6-0.1,2.4-0.2c0.8-0.1,1.4-0.3,1.9-0.6l0.6,3.6c-0.2,0.1-0.6,0.2-1,0.4c-0.4,0.1-0.8,0.2-1.3,0.3s-1,0.2-1.6,0.2
		c-0.6,0.1-1.1,0.1-1.7,0.1c-1.4,0-2.7-0.2-3.7-0.6c-1.1-0.4-1.9-1-2.6-1.7c-0.7-0.7-1.2-1.6-1.5-2.6S140.8,150.3,140.8,149.2z
		 M151.3,147.5c0-0.4-0.1-0.8-0.2-1.1c-0.1-0.4-0.3-0.7-0.5-1c-0.2-0.3-0.5-0.5-0.9-0.7c-0.3-0.2-0.8-0.3-1.3-0.3
		c-0.5,0-0.9,0.1-1.3,0.3c-0.4,0.2-0.7,0.4-0.9,0.7c-0.2,0.3-0.4,0.6-0.6,1c-0.1,0.4-0.2,0.7-0.3,1.1H151.3z"/>
	<path class="st0" d="M163.6,153.7c0.8,0,1.4-0.1,1.7-0.2c0.3-0.2,0.5-0.5,0.5-0.9c0-0.4-0.2-0.7-0.7-0.9s-1.1-0.6-2-0.9
		c-0.7-0.3-1.3-0.5-1.9-0.8c-0.6-0.3-1.1-0.6-1.5-1c-0.4-0.4-0.7-0.9-0.9-1.4s-0.3-1.2-0.3-1.9c0-1.5,0.6-2.6,1.7-3.5
		c1.1-0.9,2.6-1.3,4.5-1.3c1,0,1.9,0.1,2.8,0.3c0.9,0.2,1.6,0.4,2.1,0.6l-0.8,3.5c-0.5-0.2-1.1-0.3-1.7-0.5
		c-0.6-0.1-1.3-0.2-2.1-0.2c-1.4,0-2.1,0.4-2.1,1.2c0,0.2,0,0.3,0.1,0.5c0.1,0.1,0.2,0.3,0.4,0.4c0.2,0.1,0.4,0.3,0.7,0.4
		c0.3,0.2,0.7,0.3,1.2,0.5c1,0.4,1.8,0.7,2.4,1.1c0.6,0.4,1.1,0.7,1.5,1.1c0.4,0.4,0.6,0.9,0.8,1.4c0.2,0.5,0.2,1.1,0.2,1.7
		c0,1.6-0.6,2.7-1.8,3.5c-1.2,0.8-2.8,1.2-5,1.2c-1.4,0-2.6-0.1-3.5-0.4c-0.9-0.2-1.6-0.4-1.9-0.6l0.8-3.6c0.8,0.3,1.5,0.5,2.3,0.7
		C162,153.7,162.8,153.7,163.6,153.7z"/>
</g>
</svg>
