<?xml version="1.0" encoding="utf-8"?>
<!-- Generator: Adobe Illustrator 19.2.1, SVG Export Plug-In . SVG Version: 6.00 Build 0)  -->
<svg version="1.1" xmlns="http://www.w3.org/2000/svg" xmlns:xlink="http://www.w3.org/1999/xlink" x="0px" y="0px"
	 viewBox="0 0 45 45" style="enable-background:new 0 0 45 45;" xml:space="preserve">
<style type="text/css">
	.st0{fill:none;stroke:#FF405E;stroke-width:1.5;stroke-linejoin:round;stroke-miterlimit:10;}
	.st1{fill:#FF405E;}
	.st2{fill:#264C5F;}
	.st3{fill:#FFFFFF;}
	.st4{fill:#C3D0DB;}
	.st5{fill:#99B1C1;}
	.st6{fill:#F2F5F7;}
	.st7{fill:#14283C;}
	.st8{fill:#6A94A8;}
</style>
<g id="Layer_1">
	<g>
		<g>
			<path class="st2" d="M35,27.5H10c-0.3,0-0.5-0.2-0.5-0.5s0.2-0.5,0.5-0.5h25c0.3,0,0.5,0.2,0.5,0.5S35.3,27.5,35,27.5z"/>
		</g>
		<g>
			<path class="st1" d="M35,27.5H24.6c-0.3,0-0.5-0.2-0.5-0.5s0.2-0.5,0.5-0.5H35c0.3,0,0.5,0.2,0.5,0.5S35.3,27.5,35,27.5z"/>
		</g>
		<g>
			<path class="st2" d="M38,32.5h-1v-7.5c0-0.8-0.7-1.5-1.5-1.5H9.6c-0.8,0-1.5,0.7-1.5,1.5v7.5H7v-7.5c0-1.4,1.1-2.5,2.5-2.5h25.9
				c1.4,0,2.5,1.1,2.5,2.5V32.5z"/>
		</g>
		<g>
			<path class="st2" d="M24.5,13c-3,0-5.5-2.5-5.5-5.5S21.5,2,24.5,2S30,4.5,30,7.5S27.5,13,24.5,13z M24.5,3C22,3,20,5.1,20,7.5
				s2,4.5,4.5,4.5S29,10,29,7.5S27,3,24.5,3z"/>
		</g>
		<g>
			<path class="st2" d="M7.5,43c-3,0-5.5-2.5-5.5-5.5S4.5,32,7.5,32s5.5,2.5,5.5,5.5S10.6,43,7.5,43z M7.5,33C5.1,33,3,35,3,37.5
				s2,4.5,4.5,4.5s4.5-2,4.5-4.5S10,33,7.5,33z"/>
		</g>
		<g>
			<path class="st1" d="M37.5,43c-3,0-5.5-2.5-5.5-5.5s2.5-5.5,5.5-5.5s5.5,2.5,5.5,5.5S40.5,43,37.5,43z M37.5,33
				C35,33,33,35,33,37.5s2,4.5,4.5,4.5s4.5-2,4.5-4.5S39.9,33,37.5,33z"/>
		</g>
		<g>
			<path class="st2" d="M7.5,40.5c-1.7,0-3-1.3-3-3s1.3-3,3-3s3,1.3,3,3S9.2,40.5,7.5,40.5z M7.5,35.5c-1.1,0-2,0.9-2,2s0.9,2,2,2
				s2-0.9,2-2S8.6,35.5,7.5,35.5z"/>
		</g>
		<g>
			<path class="st1" d="M37.5,40.5c-1.7,0-3-1.3-3-3s1.3-3,3-3s3,1.3,3,3S39.1,40.5,37.5,40.5z M37.5,35.5c-1.1,0-2,0.9-2,2
				s0.9,2,2,2s2-0.9,2-2S38.6,35.5,37.5,35.5z"/>
		</g>
		<g>
			<circle class="st2" cx="24.5" cy="7.5" r="2.5"/>
		</g>
		<g>
			<path class="st1" d="M38,32.5h-1v-7.5c0-0.8-0.7-1.5-1.5-1.5H24.5v-1h10.9c1.4,0,2.5,1.1,2.5,2.5V32.5z"/>
		</g>
		<g>
			<rect x="24" y="12.5" class="st2" width="1" height="11"/>
		</g>
		<g>
			<path class="st2" d="M24.5,29c-0.3,0-0.5-0.2-0.5-0.5v-3c0-0.3,0.2-0.5,0.5-0.5s0.5,0.2,0.5,0.5v3C25,28.8,24.8,29,24.5,29z"/>
		</g>
	</g>
</g>
<g id="Layer_2">
</g>
</svg>
