<?xml version="1.0" encoding="utf-8"?>
<!-- Generator: Adobe Illustrator 19.2.1, SVG Export Plug-In . SVG Version: 6.00 Build 0)  -->
<svg version="1.1" xmlns="http://www.w3.org/2000/svg" xmlns:xlink="http://www.w3.org/1999/xlink" x="0px" y="0px"
	 viewBox="0 0 45 45" style="enable-background:new 0 0 45 45;" xml:space="preserve">
<style type="text/css">
	.st0{fill:none;stroke:#FF405E;stroke-width:1.5;stroke-linejoin:round;stroke-miterlimit:10;}
	.st1{fill:#FF405E;}
	.st2{fill:#264C5F;}
	.st3{fill:#FFFFFF;}
	.st4{fill:#C3D0DB;}
	.st5{fill:#99B1C1;}
	.st6{fill:#F2F5F7;}
	.st7{fill:#14283C;}
	.st8{fill:#6A94A8;}
</style>
<g id="Layer_1">
	<g>
		<g>
			<polygon class="st6" points="22.5,6.4 22.5,38.6 34.6,33.7 38.6,6.4 			"/>
		</g>
		<g>
			<polygon class="st6" points="22.5,2.5 22.5,6.4 6.4,6.4 10.4,33.7 22.5,38.6 22.5,42.5 7.5,36.5 2.5,2.5 			"/>
		</g>
		<g>
			<path class="st2" d="M22.5,43c-0.1,0-0.1,0-0.2,0l-15-6c-0.2-0.1-0.3-0.2-0.3-0.4L2,2.6c0-0.1,0-0.3,0.1-0.4C2.3,2.1,2.4,2,2.5,2
				h39.9c0.1,0,0.3,0.1,0.4,0.2C42.9,2.3,43,2.5,43,2.6l-5,33.9c0,0.2-0.1,0.3-0.3,0.4l-15,6C22.6,42.9,22.6,43,22.5,43z M8,36.1
				l14.5,5.8L37,36.1L41.9,3H3.1L8,36.1z"/>
		</g>
		<g>
			<g>
				<path class="st1" d="M18,13.2h2.4v9.6c0,1.3-0.4,2.3-1.2,3.1s-1.9,1.2-3.2,1.2c-1.4,0-2.5-0.4-3.3-1.1c-0.8-0.7-1.2-1.7-1.2-3
					h2.4c0,0.7,0.2,1.3,0.5,1.6c0.4,0.4,0.9,0.5,1.6,0.5c0.6,0,1.1-0.2,1.5-0.6c0.4-0.4,0.6-1,0.6-1.7V13.2z"/>
			</g>
			<g>
				<path class="st1" d="M31.2,23.4c0-0.6-0.2-1.1-0.6-1.4c-0.4-0.3-1.2-0.7-2.3-1c-1.1-0.3-2-0.7-2.6-1.1c-1.2-0.8-1.9-1.8-1.9-3.1
					c0-1.1,0.4-2,1.3-2.7c0.9-0.7,2.1-1.1,3.5-1.1c1,0,1.8,0.2,2.5,0.5c0.7,0.4,1.3,0.8,1.8,1.5c0.4,0.6,0.6,1.4,0.6,2.2h-2.4
					c0-0.7-0.2-1.3-0.7-1.7c-0.4-0.4-1.1-0.6-1.9-0.6c-0.8,0-1.4,0.2-1.8,0.5c-0.4,0.3-0.6,0.8-0.6,1.4c0,0.5,0.2,0.9,0.7,1.2
					c0.5,0.3,1.2,0.7,2.3,1c1.1,0.3,1.9,0.7,2.6,1.1c0.6,0.4,1.1,0.9,1.4,1.4c0.3,0.5,0.5,1.1,0.5,1.8c0,1.1-0.4,2-1.3,2.7
					c-0.9,0.7-2.1,1-3.6,1c-1,0-1.9-0.2-2.7-0.5c-0.8-0.4-1.5-0.9-1.9-1.5c-0.5-0.6-0.7-1.4-0.7-2.3h2.4c0,0.8,0.3,1.4,0.8,1.8
					c0.5,0.4,1.2,0.6,2.2,0.6c0.8,0,1.4-0.2,1.9-0.5C31,24.3,31.2,23.9,31.2,23.4z"/>
			</g>
		</g>
		<g>
			<path class="st2" d="M22.5,39.1c-0.1,0-0.1,0-0.2,0l-12.1-4.8C10.1,34.1,10,34,10,33.8l-4-27.3c0-0.1,0-0.3,0.1-0.4
				C6.1,6,6.3,5.9,6.4,5.9h32.2c0.1,0,0.3,0.1,0.4,0.2c0.1,0.1,0.1,0.3,0.1,0.4l-4,27.3c0,0.2-0.1,0.3-0.3,0.4L22.7,39
				C22.6,39.1,22.6,39.1,22.5,39.1z M10.9,33.4L22.5,38l11.6-4.7L38,6.9H7L10.9,33.4z"/>
		</g>
	</g>
</g>
<g id="Layer_2">
</g>
</svg>
