<?xml version="1.0" encoding="utf-8"?>
<!-- Generator: Adobe Illustrator 19.2.1, SVG Export Plug-In . SVG Version: 6.00 Build 0)  -->
<svg version="1.1" id="Layer_1" xmlns="http://www.w3.org/2000/svg" xmlns:xlink="http://www.w3.org/1999/xlink" x="0px" y="0px"
	 viewBox="0 0 250 200" style="enable-background:new 0 0 250 200;" xml:space="preserve">
<style type="text/css">
	.st0{fill:#C3D0DB;}
	.st1{clip-path:url(#SVGID_2_);}
	.st2{clip-path:url(#SVGID_4_);}
	.st3{fill:#FFFFFF;}
	.st4{display:none;}
	.st5{display:inline;}
	.st6{fill:#F2F5F7;}
	.st7{fill:#99B1C1;}
	.st8{fill:#FF405E;}
	.st9{fill:#14283C;}
	.st10{fill:none;stroke:#FFFFFF;stroke-width:2;stroke-linecap:round;stroke-linejoin:round;stroke-miterlimit:10;}
</style>
<g>
	<g>
		<g id="Layer_1_1_">
			<g id="Square_40_">
				<path class="st0" d="M190.9,54.5c-0.1-0.1-0.2-0.1-0.3,0l-3.3,3.3c-0.1,0.1-0.1,0.2,0,0.3l3.3,3.3c0.1,0.1,0.2,0.1,0.3,0
					l3.3-3.3c0.1-0.1,0.1-0.2,0-0.3L190.9,54.5z"/>
			</g>
			<g id="Fourth_Row_5_">
				<g id="Square_39_">
					<path class="st0" d="M198.5,53.6l-3.3-3.3c-0.1-0.1-0.2-0.1-0.3,0l-3.3,3.3c-0.1,0.1-0.1,0.2,0,0.3l3.3,3.3
						c0.1,0.1,0.2,0.1,0.3,0l3.3-3.3C198.6,53.8,198.6,53.7,198.5,53.6z"/>
				</g>
				<g id="Square_38_">
					<path class="st0" d="M190,53.6l-3.3-3.3c-0.1-0.1-0.2-0.1-0.3,0l-3.3,3.3c-0.1,0.1-0.1,0.2,0,0.3l3.3,3.3
						c0.1,0.1,0.2,0.1,0.3,0l3.3-3.3C190.1,53.8,190.1,53.7,190,53.6z"/>
				</g>
			</g>
			<g id="Third_Row_5_">
				<g id="Square_37_">
					<path class="st0" d="M202.7,49.7l-3.3,3.3c-0.1,0.1-0.2,0.1-0.3,0l-3.3-3.3c-0.1-0.1-0.1-0.2,0-0.3l3.3-3.3
						c0.1-0.1,0.2-0.1,0.3,0l3.3,3.3C202.8,49.4,202.8,49.6,202.7,49.7z"/>
				</g>
				<g id="Square_36_">
					<path class="st0" d="M194.2,49.7l-3.3,3.3c-0.1,0.1-0.2,0.1-0.3,0l-3.3-3.3c-0.1-0.1-0.1-0.2,0-0.3l3.3-3.3
						c0.1-0.1,0.2-0.1,0.3,0l3.3,3.3C194.3,49.4,194.3,49.6,194.2,49.7z"/>
				</g>
				<g id="Square_35_">
					<path class="st0" d="M185.7,49.7l-3.3,3.3c-0.1,0.1-0.2,0.1-0.3,0l-3.3-3.3c-0.1-0.1-0.1-0.2,0-0.3l3.3-3.3
						c0.1-0.1,0.2-0.1,0.3,0l3.3,3.3C185.8,49.4,185.8,49.6,185.7,49.7z"/>
				</g>
			</g>
			<g id="Second_Row_5_">
				<g id="Square_34_">
					<path class="st0" d="M194.8,48.3c0.1,0.1,0.2,0.1,0.3,0l3.3-3.3c0.1-0.1,0.1-0.2,0-0.3l-3.3-3.3c-0.1-0.1-0.2-0.1-0.3,0
						l-3.3,3.3c-0.1,0.1-0.1,0.2,0,0.3L194.8,48.3z"/>
				</g>
				<g id="Square_33_">
					<path class="st0" d="M186.3,48.2c0.1,0.1,0.2,0.1,0.3,0L190,45c0.1-0.1,0.1-0.2,0-0.3l-3.3-3.3c-0.1-0.1-0.2-0.1-0.3,0
						l-3.3,3.3c-0.1,0.1-0.1,0.2,0,0.3L186.3,48.2z"/>
				</g>
			</g>
			<g id="Sqaure_5_">
				<path class="st0" d="M190.6,43.4c0.1,0.1,0.2,0.1,0.3,0l3.3-3.3c0.1-0.1,0.1-0.2,0-0.3l-3.3-3.3c-0.1-0.1-0.2-0.1-0.3,0
					l-3.3,3.3c-0.1,0.1-0.1,0.2,0,0.3L190.6,43.4z"/>
			</g>
			<g>
				<g>
					<path id="SVGID_63_" class="st0" d="M180.5,52.6l-1.7,1.7c-0.1,0.1-0.1,0.2,0,0.3l11.8,11.8c0.1,0.1,0.2,0.1,0.3,0l11.8-11.8
						c0.1-0.1,0.1-0.2,0-0.3l-1.7-1.7l-9.6,9.6c-0.4,0.4-1,0.4-1.4,0L180.5,52.6z"/>
				</g>
				<g>
					<defs>
						<path id="SVGID_1_" d="M180.5,52.6l-1.7,1.7c-0.1,0.1-0.1,0.2,0,0.3l11.8,11.8c0.1,0.1,0.2,0.1,0.3,0l11.8-11.8
							c0.1-0.1,0.1-0.2,0-0.3l-1.7-1.7l-9.6,9.6c-0.4,0.4-1,0.4-1.4,0L180.5,52.6z"/>
					</defs>
					<clipPath id="SVGID_2_">
						<use xlink:href="#SVGID_1_"  style="overflow:visible;"/>
					</clipPath>
					<g class="st1">
						<g>
							<rect id="SVGID_65_" x="142.6" y="21.4" class="st0" width="96.2" height="72.1"/>
						</g>
						<g>
							<defs>
								<rect id="SVGID_3_" x="142.6" y="21.4" width="96.2" height="72.1"/>
							</defs>
							<clipPath id="SVGID_4_">
								<use xlink:href="#SVGID_3_"  style="overflow:visible;"/>
							</clipPath>
							<g class="st2">
								<rect x="178.1" y="52" class="st0" width="25.2" height="15.1"/>
							</g>
						</g>
					</g>
				</g>
				<g>
					<g id="outline_20_">
						<path class="st3" d="M165.4,15h4.7v4.8h2.4c1.1,0,2.2-0.2,3.3-0.6c0.5-0.2,1.1-0.4,1.6-0.7c-0.7-0.9-1-2-1.1-3.1
							c-0.1-1.5,0.2-3.4,1.2-4.6l0.5-0.6l0.6,0.5c1.5,1.2,2.8,2.9,3,4.8c1.8-0.5,3.9-0.4,5.5,0.5l0.7,0.4l-0.3,0.7
							c-1.3,2.6-4.1,3.4-6.9,3.3c-4.1,10.2-13,15.1-23.9,15.1c-5.6,0-10.7-2.1-13.6-7.1v-0.1l-0.4-0.9c-1-2.2-1.3-4.6-1.1-7l0.1-0.7
							h4.1V15h4.7v-4.7h9.5V5.6h5.7V15H165.4z"/>
					</g>
					<g id="body_colors_20_">
						<g>
							<path class="st0" d="M180.7,16.8c0.3-2.5-1.5-4.4-2.7-5.3c-1.3,1.5-1.5,5.5,0.5,7.2c-1.2,1-3.6,2-6.1,2H142
								c-0.2,2.6,0.2,5,1.3,7.1l0.3,0.6c0.2,0.4,0.5,0.7,0.7,1.1l0,0c1.2,0.1,2.4,0.1,3.5,0.1l0,0c2.1,0,3.8-0.3,5-0.7
								c0.2-0.1,0.4,0,0.5,0.2s0,0.4-0.2,0.5s-0.3,0.1-0.5,0.2l0,0c-1,0.3-2.1,0.5-3.5,0.6c0.1,0-0.1,0-0.1,0s-0.1,0-0.2,0
								c-0.5,0-1.1,0-1.7,0c-0.7,0-1.3,0-2,0l0,0c2.5,2.8,6.5,4.5,11.4,4.5c10.5,0,19.4-4.7,23.3-15.1c2.8,0.3,5.5-0.4,6.7-2.8
								C184.7,15.8,182.2,16.1,180.7,16.8z"/>
						</g>
						<g>
							<path class="st0" d="M180.7,16.8c0.3-2.5-1.5-4.4-2.7-5.3c-1.3,1.5-1.5,5.5,0.5,7.2c-1.2,1-3.6,2-6.1,2H144
								c-0.1,4,1.4,7,4,8.8l0,0c2.1,0,3.8-0.3,5-0.7c0.2-0.1,0.4,0,0.5,0.2s0,0.4-0.2,0.5s-0.3,0.1-0.5,0.2l0,0
								c-1,0.3-2.2,0.5-3.6,0.6l0,0c3.6,1.8,8.7,1.8,14.7-0.5c6.7-2.6,12.8-7.4,17.2-13C180.9,16.8,180.8,16.8,180.7,16.8z"/>
						</g>
						<g>
							<path class="st0" d="M142.2,23.8c0.2,1.4,0.6,2.7,1.2,3.9l0.3,0.6c0.2,0.4,0.5,0.7,0.7,1.1c1.2,0.1,2.4,0.1,3.5,0.1
								c2.1,0,3.8-0.3,5-0.7c0.2-0.1,0.4,0,0.5,0.2s0,0.4-0.2,0.5s-0.3,0.1-0.5,0.2l0,0c-1,0.3-2.2,0.5-3.6,0.6c0,0-0.1,0-0.2,0
								c-0.5,0-1.1,0-1.7,0c-0.7,0-1.3,0-2.1,0c2.5,2.8,6.5,4.6,11.5,4.6c9,0,16.8-3.4,21.3-10.9h-35.7V23.8z"/>
						</g>
						<g>
							<path class="st0" d="M144.2,23.8c0.5,2.4,1.8,4.4,3.7,5.7c2.1,0,3.8-0.3,5-0.7c0.2-0.1,0.4,0,0.5,0.2s0,0.4-0.2,0.5
								s-0.3,0.1-0.5,0.2l0,0c-1,0.3-2.2,0.5-3.6,0.6c3.6,1.8,8.7,1.8,14.7-0.5c3.6-1.4,7-3.4,10.1-5.9h-29.7V23.8z"/>
						</g>
					</g>
					<g class="st4">
						<g class="st5">
							<path class="st0" d="M147.2,30.3c0.6,0,1.2,0,1.7,0h0.1l0,0c1.4-0.1,2.6-0.3,3.6-0.6l0,0c0.2-0.1,0.4-0.1,0.5-0.2
								c0.2-0.1,0.3-0.3,0.2-0.5s-0.3-0.3-0.5-0.2c-1.3,0.4-3,0.7-5,0.7l0,0c-1.1,0-2.2,0-3.5-0.1l0,0c-0.1,0-0.1,0-0.2,0
								c-0.2,0-0.4,0.1-0.4,0.3c0,0.2,0.1,0.4,0.3,0.4c0.3,0,0.5,0,0.8,0h0.1l0,0C145.8,30.2,146.5,30.3,147.2,30.3z"/>
						</g>
					</g>
					<g id="Containers_20_">
						<g>
							<path class="st0" d="M149.7,16.2h0.3v3.4h-0.3V16.2z M149.1,16.2h0.3v3.4h-0.3V16.2z M148.5,16.2h0.3v3.4h-0.3V16.2z
								 M147.9,16.2h0.3v3.4h-0.3V16.2z M147.2,16.2h0.3v3.4h-0.3V16.2z M146.6,16.2h0.3v3.4h-0.3V16.2z M146.3,15.8h4.1v4.1h-4.1
								V15.8z"/>
						</g>
						<g>
							<path class="st0" d="M154.5,11.4h0.3v3.4h-0.3V11.4z M153.8,11.4h0.3v3.4h-0.3V11.4z M153.2,11.4h0.3v3.4h-0.3V11.4z
								 M152.6,11.4h0.3v3.4h-0.3V11.4z M152,11.4h0.3v3.4H152V11.4z M151.4,11.4h0.3v3.4h-0.3V11.4z M151,11.1h4.1v4.1H151V11.1z"
								/>
						</g>
						<g>
							<path class="st0" d="M154.5,16.2h0.3v3.4h-0.3V16.2z M153.8,16.2h0.3v3.4h-0.3V16.2z M153.2,16.2h0.3v3.4h-0.3V16.2z
								 M152.6,16.2h0.3v3.4h-0.3V16.2z M152,16.2h0.3v3.4H152V16.2z M151.4,16.2h0.3v3.4h-0.3V16.2z M151,15.8h4.1v4.1H151V15.8z"
								/>
						</g>
						<g>
							<path class="st0" d="M159.2,16.2h0.3v3.4h-0.3V16.2z M158.6,16.2h0.3v3.4h-0.3V16.2z M158,16.2h0.3v3.4H158V16.2z
								 M157.3,16.2h0.3v3.4h-0.3V16.2z M156.7,16.2h0.3v3.4h-0.3V16.2z M156.1,16.2h0.3v3.4h-0.3V16.2z M155.8,15.8h4.1v4.1h-4.1
								V15.8z"/>
						</g>
						<g>
							<path class="st0" d="M159.2,11.4h0.3v3.4h-0.3V11.4z M158.6,11.4h0.3v3.4h-0.3V11.4z M158,11.4h0.3v3.4H158V11.4z
								 M157.3,11.4h0.3v3.4h-0.3V11.4z M156.7,11.4h0.3v3.4h-0.3V11.4z M156.1,11.4h0.3v3.4h-0.3V11.4z M155.8,11.1h4.1v4.1h-4.1
								V11.1z"/>
						</g>
						<g>
							<path class="st0" d="M163.9,16.2h0.3v3.4h-0.3V16.2z M163.3,16.2h0.3v3.4h-0.3V16.2z M162.7,16.2h0.3v3.4h-0.3V16.2z
								 M162.1,16.2h0.3v3.4h-0.3V16.2z M161.5,16.2h0.3v3.4h-0.3V16.2z M160.8,16.2h0.3v3.4h-0.3V16.2z M160.5,15.8h4.1v4.1h-4.1
								V15.8z"/>
						</g>
						<g>
							<path class="st0" d="M163.9,11.4h0.3v3.4h-0.3V11.4z M163.3,11.4h0.3v3.4h-0.3V11.4z M162.7,11.4h0.3v3.4h-0.3V11.4z
								 M162.1,11.4h0.3v3.4h-0.3V11.4z M161.5,11.4h0.3v3.4h-0.3V11.4z M160.8,11.4h0.3v3.4h-0.3V11.4z M160.5,11.1h4.1v4.1h-4.1
								V11.1z"/>
						</g>
						<g>
							<path class="st0" d="M163.9,6.7h0.3v3.4h-0.3V6.7z M163.3,6.7h0.3v3.4h-0.3V6.7z M162.7,6.7h0.3v3.4h-0.3V6.7z M162.1,6.7
								h0.3v3.4h-0.3V6.7z M161.5,6.7h0.3v3.4h-0.3V6.7z M160.8,6.7h0.3v3.4h-0.3V6.7z M160.5,6.4h4.1v4.1h-4.1V6.4z"/>
						</g>
						<g>
							<path class="st0" d="M168.7,16.2h0.3v3.4h-0.3V16.2z M168.1,16.2h0.3v3.4h-0.3V16.2z M167.4,16.2h0.3v3.4h-0.3V16.2z
								 M166.8,16.2h0.3v3.4h-0.3V16.2z M166.2,16.2h0.3v3.4h-0.3V16.2z M165.6,16.2h0.3v3.4h-0.3V16.2z M165.2,15.8h4.1v4.1h-4.1
								V15.8z"/>
						</g>
					</g>
					<g>
						<path class="st0" d="M157.9,34.8c-2.8-1.3-4.3-3.1-5.2-5.1c-1,0.3-2.3,0.5-3.7,0.6c-0.5,0-1.1,0-1.7,0c-0.7,0-1.4,0-2.2-0.1
							c2.6,2.6,5.7,4.5,11.6,4.6C157,34.8,157.5,34.8,157.9,34.8z"/>
					</g>
					<g>
						<path class="st0" d="M153.7,31.5c-0.4-0.5-0.8-1.2-1-1.8c-1,0.3-2.3,0.5-3.8,0.6C149.9,30.8,151.4,31.3,153.7,31.5z"/>
					</g>
				</g>
				<g>
					<g>
						<path class="st0" d="M108.4,30.4c-0.7,0-1.4-0.3-1.9-0.9l-7-8.7c-0.5-0.6-0.6-1.3-0.5-2L101.6,8c0.2-0.7,0.6-1.3,1.3-1.6
							L113,1.5c0.3-0.2,0.7-0.2,1-0.2s0.7,0.1,1,0.2l10.1,4.8c0.7,0.3,1.1,0.9,1.3,1.6l2.5,10.8c0.2,0.7,0,1.5-0.5,2l-7,8.7
							c-0.5,0.6-1.1,0.9-1.9,0.9L108.4,30.4L108.4,30.4z"/>
					</g>
					<g>
						<path class="st3" d="M114,1.8c0.3,0,0.6,0.1,0.8,0.2l10.1,4.8c0.5,0.3,0.9,0.7,1,1.3l2.5,10.8c0.1,0.6,0,1.2-0.4,1.6l-7,8.7
							c-0.4,0.5-0.9,0.7-1.5,0.7h-11.2c-0.6,0-1.1-0.3-1.5-0.7l-7-8.7c-0.4-0.5-0.5-1.1-0.4-1.6l2.5-10.8c0.1-0.6,0.5-1.1,1-1.3
							L113,2C113.5,1.8,113.8,1.8,114,1.8L114,1.8z M114,0.8L114,0.8c-0.4,0-0.8,0.1-1.2,0.3l-10.1,4.8c-0.8,0.4-1.4,1.1-1.6,1.9
							l-2.5,10.8c-0.2,0.9,0,1.7,0.6,2.4l7,8.7c0.5,0.7,1.4,1.1,2.2,1.1h11.2c0.9,0,1.7-0.4,2.2-1.1l7-8.7c0.6-0.7,0.8-1.6,0.6-2.4
							l-2.5-10.8c-0.2-0.9-0.8-1.6-1.6-1.9l-10-4.8C114.9,0.9,114.4,0.8,114,0.8L114,0.8L114,0.8z"/>
					</g>
					<g>
						<path class="st3" d="M124.1,18L124.1,18L124.1,18L124.1,18L124.1,18L124.1,18c-0.1,0-0.1,0-0.2,0s-0.3,0-0.4,0s-0.1,0-0.2,0
							l0,0c-0.4,0-0.8-0.1-1.1-0.2c-0.1-0.1-0.2-0.1-0.2-0.2l0,0l0,0l-0.3-0.1c0.1-0.9,0.1-1.9-0.1-2.8c-0.2-0.9-0.6-1.8-1.1-2.6
							l0.2-0.2l0,0c0-0.1,0-0.2,0.1-0.3c0.2-0.2,0.5-0.4,0.9-0.6l0,0c0.1,0,0.1-0.1,0.2-0.1c0.1-0.1,0.2-0.1,0.3-0.2
							c0,0,0.1,0,0.1-0.1l0,0l0,0c0.3-0.2,0.3-0.6,0.1-0.9c-0.1-0.1-0.3-0.2-0.5-0.2s-0.3,0.1-0.4,0.2l0,0l0,0l0,0l-0.1,0.1
							c-0.1,0.1-0.2,0.2-0.3,0.3l-0.1,0.1l0,0c-0.3,0.3-0.5,0.5-0.8,0.7c-0.1,0-0.1,0.1-0.2,0.1h-0.1l0,0l0,0l-0.2,0.2
							c-0.3-0.3-0.5-0.5-0.8-0.8c-1.2-0.9-2.6-1.5-4.2-1.7V8.4l0,0c-0.1-0.1-0.1-0.1-0.2-0.3c0-0.3,0-0.7,0.1-1.1l0,0
							c0-0.1,0-0.1,0-0.2s0-0.2,0.1-0.4V6.2V6.1l0,0l0,0c0-0.4-0.3-0.7-0.6-0.7c-0.2,0-0.3,0.1-0.4,0.2s-0.2,0.3-0.2,0.5l0,0l0,0
							l0,0v0.1c0,0.1,0,0.3,0.1,0.4c0,0.1,0,0.1,0,0.2l0,0c0,0.4,0.1,0.8,0.1,1.1c0,0.1-0.1,0.2-0.2,0.3l0,0l0,0v0.3
							c-0.4,0-0.7,0.1-1.1,0.2c-1.5,0.3-2.9,1.1-3.9,2.2l-0.2-0.1l0,0h-0.1c-0.1,0-0.1,0-0.2-0.1c-0.3-0.2-0.5-0.4-0.8-0.7l0,0
							l-0.1-0.1c-0.1-0.1-0.2-0.2-0.3-0.3c0,0-0.1,0-0.1-0.1l0,0l0,0c-0.1-0.1-0.3-0.2-0.4-0.2c-0.2,0-0.4,0.1-0.5,0.2
							c-0.2,0.3-0.1,0.7,0.1,0.9l0,0l0,0l0,0l0.1,0.1c0.1,0.1,0.2,0.1,0.3,0.2c0.1,0,0.1,0.1,0.2,0.1l0,0c0.4,0.2,0.7,0.4,0.9,0.6
							c0.1,0.1,0.1,0.2,0.1,0.3l0,0l0,0l0.2,0.2c0,0.1-0.1,0.1-0.1,0.2c-1,1.6-1.4,3.4-1.1,5.3l-0.3,0.1l0,0c0,0.1-0.1,0.2-0.2,0.2
							c-0.3,0.1-0.7,0.1-1.1,0.2l0,0c-0.1,0-0.1,0-0.2,0s-0.2,0-0.4,0h-0.1c0,0,0,0-0.1,0l0,0l0,0c-0.4,0.1-0.6,0.4-0.5,0.7
							c0.1,0.3,0.3,0.5,0.6,0.5c0.1,0,0.1,0,0.2,0l0,0l0,0l0,0h0.1c0.1,0,0.2-0.1,0.4-0.1c0.1,0,0.1-0.1,0.2-0.1l0,0
							c0.4-0.1,0.7-0.3,1-0.3l0,0c0.1,0,0.2,0.1,0.3,0.1l0,0l0,0h0.3c0.5,1.5,1.4,2.8,2.6,3.7c0.3,0.2,0.6,0.4,0.9,0.6l-0.1,0.3l0,0
							c0,0.1,0.1,0.2,0,0.3c-0.1,0.3-0.3,0.6-0.5,0.9l0,0c0,0.1-0.1,0.1-0.1,0.2c-0.1,0.1-0.1,0.2-0.2,0.3c0,0,0,0.1-0.1,0.1l0,0
							l0,0l0,0c-0.2,0.3,0,0.7,0.3,0.9c0.1,0,0.2,0.1,0.2,0.1c0.2,0,0.5-0.2,0.6-0.4l0,0l0,0l0,0c0,0,0-0.1,0.1-0.1
							c0.1-0.1,0.1-0.2,0.1-0.4c0-0.1,0-0.1,0.1-0.2l0,0c0.1-0.4,0.2-0.7,0.4-1c0.1-0.1,0.2-0.1,0.3-0.2l0,0l0,0l0.1-0.3
							c0.9,0.3,1.8,0.5,2.8,0.5c0.6,0,1.2-0.1,1.7-0.2c0.4-0.1,0.7-0.2,1-0.3l0.1,0.2l0,0c0.1,0,0.2,0.1,0.3,0.2
							c0.2,0.3,0.3,0.6,0.4,1l0,0c0,0.1,0,0.1,0.1,0.2c0,0.1,0.1,0.2,0.1,0.4c0,0,0,0.1,0.1,0.1l0,0l0,0l0,0
							c0.1,0.2,0.4,0.4,0.6,0.4c0.1,0,0.2,0,0.2-0.1c0.1-0.1,0.3-0.2,0.3-0.4s0-0.3,0-0.5l0,0l0,0l0,0c0,0,0-0.1-0.1-0.1
							c-0.1-0.1-0.1-0.2-0.2-0.3c0-0.1-0.1-0.1-0.1-0.2l0,0c-0.2-0.3-0.4-0.6-0.5-0.9c0-0.1,0-0.2,0-0.3l0,0l0,0l-0.1-0.2
							c1.1-0.6,2-1.5,2.6-2.6c0.4-0.6,0.6-1.2,0.8-1.8h0.2l0,0c0.1,0,0.1-0.1,0.3-0.1l0,0c0.3,0,0.7,0.2,1,0.3l0,0
							c0.1,0,0.1,0.1,0.2,0.1c0.1,0.1,0.2,0.1,0.4,0.1h0.1c0,0,0,0,0.1,0l0,0c0.1,0,0.1,0,0.2,0c0.3,0,0.6-0.2,0.6-0.5
							C124.7,18.4,124.5,18.1,124.1,18L124.1,18z M114.9,17l-0.9,0.4l-0.9-0.4l-0.2-0.9l0.6-0.8h1l0.6,0.8L114.9,17L114.9,17z
							 M120.1,15c0.2,0.7,0.2,1.4,0.1,2l-3-0.9c-0.3-0.1-0.4-0.4-0.4-0.6c0-0.1,0.1-0.2,0.1-0.2l2.4-2.2
							C119.7,13.6,119.9,14.3,120.1,15L120.1,15z M118.4,11.9l-2.6,1.9c-0.2,0.1-0.5,0.1-0.7-0.1c-0.1-0.1-0.1-0.1-0.1-0.2l-0.2-3.2
							C116.2,10.3,117.4,10.9,118.4,11.9L118.4,11.9z M112.6,10.2c0.2,0,0.4-0.1,0.6-0.1l-0.2,3.2c0,0.3-0.2,0.5-0.5,0.5
							c-0.1,0-0.2,0-0.2-0.1l-2.6-1.9C110.5,11.1,111.5,10.5,112.6,10.2L112.6,10.2z M108.7,13.1l2.4,2.1c0.2,0.2,0.2,0.5,0.1,0.7
							c-0.1,0.1-0.1,0.1-0.2,0.2l-3.1,0.9C107.7,15.6,108,14.2,108.7,13.1L108.7,13.1z M108.2,18.5l3.2-0.5c0.3,0,0.5,0.2,0.6,0.4
							c0,0.1,0,0.2,0,0.3l0,0l-1.2,2.9C109.5,20.9,108.6,19.8,108.2,18.5L108.2,18.5z M115.4,22.4c-0.5,0.1-0.9,0.2-1.4,0.2
							c-0.7,0-1.4-0.1-2-0.3l1.6-2.8c0.2-0.2,0.4-0.3,0.6-0.1c0.1,0.1,0.2,0.1,0.2,0.2l0,0l1.5,2.8
							C115.8,22.3,115.6,22.4,115.4,22.4L115.4,22.4z M119.3,19.7c-0.5,0.8-1.2,1.4-1.9,1.9l-1.3-3c-0.1-0.2,0-0.5,0.3-0.6
							c0.1,0,0.2-0.1,0.3-0.1l3.2,0.5C119.8,18.9,119.6,19.3,119.3,19.7L119.3,19.7z"/>
					</g>
				</g>
				<g>
					<g>
						<g>
							<polygon class="st0" points="63.7,61 58.9,59.3 58.9,52.3 63.7,53.9 							"/>
						</g>
						<g>
							<polygon class="st0" points="64.6,61 69.3,59.3 69.3,52.3 64.6,53.9 							"/>
						</g>
						<g>
							<polygon class="st0" points="59.4,51.8 64.2,50.4 68.7,51.9 64.2,53.4 							"/>
						</g>
					</g>
					<g>
						<g>
							<polygon class="st0" points="58,51.2 53.3,49.5 53.3,42.6 58,44.2 							"/>
						</g>
						<g>
							<polygon class="st0" points="58.9,51.2 63.7,49.5 63.7,42.6 58.9,44.2 							"/>
						</g>
						<g>
							<polygon class="st0" points="53.8,42.1 58.6,40.7 63,42.1 58.6,43.7 							"/>
						</g>
					</g>
					<g>
						<g>
							<polygon class="st0" points="69.1,51.2 64.4,49.5 64.4,42.6 69.1,44.2 							"/>
						</g>
						<g>
							<polygon class="st0" points="70,51.2 74.7,49.5 74.7,42.6 70,44.2 							"/>
						</g>
						<g>
							<polygon class="st0" points="64.9,42.1 69.7,40.7 74.1,42.1 69.7,43.7 							"/>
						</g>
					</g>
					<g>
						<g>
							<polygon class="st0" points="74.8,41.5 70,39.8 70,32.8 74.8,34.5 							"/>
						</g>
						<g>
							<polygon class="st0" points="75.7,41.5 80.4,39.8 80.4,32.8 75.7,34.5 							"/>
						</g>
						<g>
							<polygon class="st0" points="70.5,32.3 75.3,31 79.8,32.4 75.3,33.9 							"/>
						</g>
					</g>
					<g>
						<g>
							<polygon class="st0" points="85.9,41.5 81.1,39.8 81.1,32.8 85.9,34.5 							"/>
						</g>
						<g>
							<polygon class="st0" points="86.7,41.5 91.5,39.8 91.5,32.8 86.7,34.5 							"/>
						</g>
						<g>
							<polygon class="st0" points="81.6,32.3 86.4,31 90.9,32.4 86.4,33.9 							"/>
						</g>
					</g>
				</g>
				<g>
					<polygon class="st3" points="82.7,61.6 131.9,33.2 181.2,61.6 181.2,118.6 131.9,147 82.7,118.6 					"/>
				</g>
				<g>
					<path class="st6" d="M131.8,160.9c-0.1,0-0.2,0-0.3-0.1l-72.5-42c-0.2-0.1-0.2-0.3-0.2-0.4c0-0.2,0.1-0.3,0.2-0.4l72.7-42
						c0.2-0.1,0.3-0.1,0.5,0l72.5,42c0.2,0.1,0.2,0.3,0.2,0.4c0,0.2-0.1,0.3-0.2,0.4l-72.7,42C132,160.9,131.9,160.9,131.8,160.9z
						 M60.3,118.5l71.5,41.4l71.7-41.4L132,77L60.3,118.5z"/>
				</g>
				<g>
					<path class="st7" d="M131.9,152.1c-0.1,0-0.2,0-0.3-0.1l-57.2-33.1c-0.2-0.1-0.2-0.3-0.2-0.4c0-0.2,0.1-0.3,0.2-0.4L131.8,85
						c0.2-0.1,0.3-0.1,0.5,0l57.2,33.1c0.2,0.1,0.2,0.3,0.2,0.4c0,0.2-0.1,0.3-0.2,0.4L132.1,152C132,152,132,152.1,131.9,152.1z
						 M75.6,118.4l56.2,32.5l56.4-32.6L132,85.9L75.6,118.4z"/>
				</g>
				<g>
					<path class="st0" d="M131.9,156.3c-0.1,0-0.2,0-0.3-0.1l-64.5-37.3c-0.2-0.1-0.2-0.3-0.2-0.4c0-0.2,0.1-0.3,0.2-0.4l64.7-37.4
						c0.2-0.1,0.3-0.1,0.5,0l64.5,37.3c0.2,0.1,0.2,0.3,0.2,0.4c0,0.2-0.1,0.3-0.2,0.4l-64.7,37.4
						C132,156.2,131.9,156.3,131.9,156.3z M68.3,118.4l63.5,36.7l63.7-36.8L132,81.7L68.3,118.4z"/>
				</g>
				<g>
					<path class="st8" d="M131.9,147.5c-0.1,0-0.2,0-0.2-0.1L82.4,119c-0.2-0.1-0.2-0.3-0.2-0.4v-57c0-0.2,0.1-0.3,0.2-0.4
						l49.3-28.5c0.2-0.1,0.3-0.1,0.5,0l49.3,28.5c0.2,0.1,0.2,0.3,0.2,0.4v56.9c0,0.2-0.1,0.3-0.2,0.4l-49.3,28.5
						C132.1,147.5,132,147.5,131.9,147.5z M83.2,118.3l48.8,28.2l48.8-28.2V61.9L132,33.7L83.2,61.9V118.3z"/>
				</g>
				<g>
					<g>
						<polygon class="st3" points="111.6,76.9 131.3,65.6 151,76.9 151,99.7 131.3,111.1 111.6,99.7 						"/>
						<path class="st9" d="M131.3,111.6c-0.1,0-0.2,0-0.2-0.1l-19.7-11.4c-0.2-0.1-0.2-0.3-0.2-0.4V76.9c0-0.2,0.1-0.3,0.2-0.4
							L131,65.1c0.2-0.1,0.3-0.1,0.5,0l19.7,11.4c0.2,0.1,0.2,0.3,0.2,0.4v22.7c0,0.2-0.1,0.3-0.2,0.4l-19.7,11.4
							C131.5,111.5,131.4,111.6,131.3,111.6z M112.1,99.4l19.2,11.1l19.2-11.1V77.2l-19.2-11.1l-19.2,11.1
							C112.1,77.2,112.1,99.4,112.1,99.4z"/>
					</g>
					<g>
						<polygon class="st6" points="150.9,76.9 131.4,88.3 131.2,111.1 151.1,99.6 						"/>
					</g>
					<g>
						<path class="st9" d="M131.4,111.5c-0.1,0-0.2,0-0.2-0.1L111.5,100c-0.2-0.1-0.2-0.3-0.2-0.4V76.9c0-0.2,0.1-0.3,0.2-0.4
							l19.7-11.4c0.2-0.1,0.3-0.1,0.5,0l19.7,11.4c0.2,0.1,0.2,0.3,0.2,0.4v22.7c0,0.2-0.1,0.3-0.2,0.4l-19.7,11.4
							C131.5,111.5,131.5,111.5,131.4,111.5z M112.2,99.4l19.2,11.1l19.2-11.1V77.2l-19.2-11.1l-19.2,11.1V99.4z"/>
					</g>
					<g>
						<polygon class="st3" points="136.8,91.3 156.5,80 176.2,91.3 176.2,114.1 156.5,125.4 136.8,114.1 						"/>
						<path class="st9" d="M156.5,125.9c-0.1,0-0.2,0-0.2-0.1l-19.7-11.4c-0.2-0.1-0.2-0.3-0.2-0.4V91.3c0-0.2,0.1-0.3,0.2-0.4
							l19.7-11.4c0.2-0.1,0.3-0.1,0.5,0l19.7,11.4c0.2,0.1,0.2,0.3,0.2,0.4V114c0,0.2-0.1,0.3-0.2,0.4l-19.7,11.4
							C156.6,125.9,156.5,125.9,156.5,125.9z M137.3,113.8l19.2,11.1l19.2-11.1V91.6l-19.2-11.1l-19.2,11.1V113.8z"/>
					</g>
					<g>
						<polygon class="st6" points="176,91.5 156.5,102.8 156.3,125.6 176.2,114.2 						"/>
					</g>
					<g>
						<path class="st9" d="M156.5,126c-0.1,0-0.2,0-0.2-0.1l-19.7-11.4c-0.2-0.1-0.2-0.3-0.2-0.4V91.4c0-0.2,0.1-0.3,0.2-0.4
							l19.7-11.4c0.2-0.1,0.3-0.1,0.5,0L176.4,91c0.2,0.1,0.2,0.3,0.2,0.4v22.7c0,0.2-0.1,0.3-0.2,0.4L156.7,126
							C156.6,126,156.5,126,156.5,126z M137.3,113.9l19.2,11.1l19.2-11.1V91.7l-19.2-11.1l-19.2,11.1V113.9z"/>
					</g>
					<g>
						<polygon class="st3" points="86.3,92.9 106,81.6 125.7,92.9 125.7,115.7 106,127 86.3,115.7 						"/>
						<path class="st9" d="M106,127.5c-0.1,0-0.2,0-0.2-0.1L86.1,116c-0.2-0.1-0.2-0.3-0.2-0.4V92.9c0-0.2,0.1-0.3,0.2-0.4
							l19.7-11.4c0.2-0.1,0.3-0.1,0.5,0L126,92.5c0.2,0.1,0.2,0.3,0.2,0.4v22.7c0,0.2-0.1,0.3-0.2,0.4l-19.7,11.4
							C106.2,127.5,106.1,127.5,106,127.5z M86.8,115.4l19.2,11.1l19.2-11.1V93.2L106,82.1L86.8,93.2V115.4z"/>
					</g>
					<g>
						<polygon class="st6" points="125.6,93 106,104.3 105.9,127.2 125.7,115.7 						"/>
					</g>
					<g>
						<path class="st9" d="M106,127.6c-0.1,0-0.2,0-0.2-0.1L86,116.1c-0.2-0.1-0.2-0.3-0.2-0.4V93c0-0.2,0.1-0.3,0.2-0.4l19.7-11.4
							c0.2-0.1,0.3-0.1,0.5,0l19.7,11.4c0.2,0.1,0.2,0.3,0.2,0.4v22.7c0,0.2-0.1,0.3-0.2,0.4l-19.7,11.4
							C106.2,127.6,106.1,127.6,106,127.6z M86.8,115.4l19.2,11.1l19.2-11.1V93.3L106,82.2L86.8,93.3V115.4z"/>
					</g>
					<g>
						<polygon class="st3" points="111.6,107.5 131.3,96.1 151,107.5 151,130.2 131.3,141.6 111.6,130.2 						"/>
						<path class="st9" d="M131.3,142.1c-0.1,0-0.2,0-0.2-0.1l-19.7-11.4c-0.2-0.1-0.2-0.3-0.2-0.4v-22.7c0-0.2,0.1-0.3,0.2-0.4
							L131,95.7c0.2-0.1,0.3-0.1,0.5,0l19.7,11.4c0.2,0.1,0.2,0.3,0.2,0.4v22.7c0,0.2-0.1,0.3-0.2,0.4L131.5,142
							C131.5,142.1,131.4,142.1,131.3,142.1z M112.1,130l19.2,11.1l19.2-11.1v-22.2l-19.2-11.1l-19.2,11.1
							C112.1,107.8,112.1,130,112.1,130z"/>
					</g>
					<g>
						<polygon class="st6" points="150.9,107.6 131.4,118.9 131.2,141.8 151.1,130.3 						"/>
					</g>
					<g>
						<path class="st9" d="M131.4,142.2c-0.1,0-0.2,0-0.2-0.1l-19.7-11.4c-0.2-0.1-0.2-0.3-0.2-0.4v-22.7c0-0.2,0.1-0.3,0.2-0.4
							l19.7-11.4c0.2-0.1,0.3-0.1,0.5,0l19.7,11.4c0.2,0.1,0.2,0.3,0.2,0.4v22.7c0,0.2-0.1,0.3-0.2,0.4l-19.7,11.4
							C131.5,142.2,131.5,142.2,131.4,142.2z M112.2,130l19.2,11.1l19.2-11.1v-22.2l-19.2-11.1l-19.2,11.1V130z"/>
					</g>
				</g>
				<g>
					<g>
						<polygon class="st3" points="111.6,50.2 131.3,38.9 151,50.2 151,73 131.3,84.3 111.6,73 						"/>
						<path class="st9" d="M131.3,84.8c-0.1,0-0.2,0-0.2-0.1l-19.7-11.4c-0.2-0.1-0.2-0.3-0.2-0.4V50.2c0-0.2,0.1-0.3,0.2-0.4
							L131,38.4c0.2-0.1,0.3-0.1,0.5,0l19.7,11.4c0.2,0.1,0.2,0.3,0.2,0.4V73c0,0.2-0.1,0.3-0.2,0.4l-19.7,11.4
							C131.5,84.8,131.4,84.8,131.3,84.8z M112.1,72.7l19.2,11.1l19.2-11.1V50.5l-19.2-11.1l-19.2,11.1
							C112.1,50.5,112.1,72.7,112.1,72.7z"/>
					</g>
					<g>
						<polygon class="st6" points="150.9,50.2 131.4,61.6 131.2,84.4 151.1,72.9 						"/>
					</g>
					<g>
						<path class="st9" d="M131.4,84.8c-0.1,0-0.2,0-0.2-0.1l-19.7-11.4c-0.2-0.1-0.2-0.3-0.2-0.4V50.2c0-0.2,0.1-0.3,0.2-0.4
							l19.7-11.4c0.2-0.1,0.3-0.1,0.5,0l19.7,11.4c0.2,0.1,0.2,0.3,0.2,0.4v22.7c0,0.2-0.1,0.3-0.2,0.4l-19.7,11.4
							C131.5,84.8,131.5,84.8,131.4,84.8z M112.2,72.6l19.2,11.1l19.2-11.1V50.5l-19.2-11.1l-19.2,11.1V72.6z"/>
					</g>
					<g>
						<polygon class="st3" points="136.8,64.6 156.5,53.2 176.2,64.6 176.2,87.4 156.5,98.7 136.8,87.4 						"/>
						<path class="st9" d="M156.5,99.2c-0.1,0-0.2,0-0.2-0.1l-19.7-11.4c-0.2-0.1-0.2-0.3-0.2-0.4V64.6c0-0.2,0.1-0.3,0.2-0.4
							l19.7-11.4c0.2-0.1,0.3-0.1,0.5,0l19.7,11.4c0.2,0.1,0.2,0.3,0.2,0.4v22.7c0,0.2-0.1,0.3-0.2,0.4l-19.7,11.4
							C156.6,99.2,156.5,99.2,156.5,99.2z M137.3,87.1l19.2,11.1l19.2-11.1V64.9l-19.2-11.1l-19.2,11.1V87.1z"/>
					</g>
					<g>
						<polygon class="st6" points="176,64.8 156.5,76.1 156.3,98.9 176.2,87.5 						"/>
					</g>
					<g>
						<path class="st9" d="M156.5,99.3c-0.1,0-0.2,0-0.2-0.1l-19.7-11.4c-0.2-0.1-0.2-0.3-0.2-0.4V64.7c0-0.2,0.1-0.3,0.2-0.4
							l19.7-11.4c0.2-0.1,0.3-0.1,0.5,0l19.7,11.4c0.2,0.1,0.2,0.3,0.2,0.4v22.7c0,0.2-0.1,0.3-0.2,0.4l-19.7,11.4
							C156.6,99.3,156.5,99.3,156.5,99.3z M137.3,87.2l19.2,11.1l19.2-11.1V65l-19.2-11.1L137.3,65V87.2z"/>
					</g>
					<g>
						<polygon class="st3" points="86.3,66.2 106,54.8 125.7,66.2 125.7,89 106,100.3 86.3,89 						"/>
						<path class="st9" d="M106,100.8c-0.1,0-0.2,0-0.2-0.1L86.1,89.4c-0.2-0.1-0.2-0.3-0.2-0.4V66.2c0-0.2,0.1-0.3,0.2-0.4
							l19.7-11.4c0.2-0.1,0.3-0.1,0.5,0L126,65.8c0.2,0.1,0.2,0.3,0.2,0.4V89c0,0.2-0.1,0.3-0.2,0.4l-19.7,11.4
							C106.2,100.8,106.1,100.8,106,100.8z M86.8,88.7L106,99.8l19.2-11.1V66.5L106,55.4L86.8,66.5V88.7z"/>
					</g>
					<g>
						<polygon class="st6" points="125.6,66.3 106,77.6 105.9,100.5 125.7,89 						"/>
					</g>
					<g>
						<path class="st9" d="M106,100.9c-0.1,0-0.2,0-0.2-0.1L86,89.4c-0.2-0.1-0.2-0.3-0.2-0.4V66.3c0-0.2,0.1-0.3,0.2-0.4l19.7-11.4
							c0.2-0.1,0.3-0.1,0.5,0l19.7,11.4c0.2,0.1,0.2,0.3,0.2,0.4V89c0,0.2-0.1,0.3-0.2,0.4l-19.7,11.4
							C106.2,100.9,106.1,100.9,106,100.9z M86.8,88.7L106,99.8l19.2-11.1V66.5l-19.2-11l-19.2,11V88.7z"/>
					</g>
					<g>
						<polygon class="st3" points="111.6,80.8 131.3,69.4 151,80.8 151,103.5 131.3,114.9 111.6,103.5 						"/>
						<path class="st9" d="M131.3,115.4c-0.1,0-0.2,0-0.2-0.1L111.3,104c-0.2-0.1-0.2-0.3-0.2-0.4V80.8c0-0.2,0.1-0.3,0.2-0.4
							L131,69c0.2-0.1,0.3-0.1,0.5,0l19.7,11.4c0.2,0.1,0.2,0.3,0.2,0.4v22.7c0,0.2-0.1,0.3-0.2,0.4l-19.7,11.4
							C131.5,115.4,131.4,115.4,131.3,115.4z M112.1,103.2l19.2,11.1l19.2-11.1V81.1L131.3,70l-19.2,11.1
							C112.1,81.1,112.1,103.2,112.1,103.2z"/>
					</g>
					<g>
						<polygon class="st6" points="150.9,80.9 131.4,92.2 131.2,115.1 151.1,103.6 						"/>
					</g>
					<g>
						<path class="st9" d="M131.4,115.5c-0.1,0-0.2,0-0.2-0.1L111.4,104c-0.2-0.1-0.2-0.3-0.2-0.4V80.9c0-0.2,0.1-0.3,0.2-0.4
							l19.7-11.4c0.2-0.1,0.3-0.1,0.5,0l19.7,11.4c0.2,0.1,0.2,0.3,0.2,0.4v22.7c0,0.2-0.1,0.3-0.2,0.4l-19.7,11.4
							C131.5,115.5,131.5,115.5,131.4,115.5z M112.2,103.3l19.2,11.1l19.2-11.1V81.2l-19.2-11.1l-19.2,11.1V103.3z"/>
					</g>
				</g>
				<g>
					<g>
						<path class="st9" d="M82.6,77.6c-8.8,0-16-7.2-16-16s7.2-16,16-16s16,7.2,16,16S91.4,77.6,82.6,77.6z"/>
					</g>
					<g>
						<path class="st3" d="M82.6,46.6c8.3,0,15,6.7,15,15s-6.7,15-15,15s-15-6.7-15-15S74.3,46.6,82.6,46.6 M82.6,44.6
							c-9.4,0-17,7.6-17,17s7.6,17,17,17s17-7.6,17-17S92,44.6,82.6,44.6L82.6,44.6z"/>
					</g>
				</g>
			</g>
		</g>
		<g id="Layer_2">
		</g>
	</g>
</g>
<g>
	<path class="st10" d="M89.4,62.6h-0.1c0.2-0.6,0.4-1.3,0.4-2c0-3.4-2.8-6.2-6.2-6.2c-2.7,0-5,1.8-5.9,4.2c-0.2,0-0.4,0-0.6,0
		c-2.3,0-4.1,1.9-4.1,4.1c0,2.2,1.8,4,4,4.1l12.6,0c1.1,0,2.1-0.9,2.1-2.1C91.5,63.5,90.6,62.6,89.4,62.6z"/>
</g>
</svg>
