<?xml version="1.0" encoding="utf-8"?>
<!-- Generator: Adobe Illustrator 19.2.1, SVG Export Plug-In . SVG Version: 6.00 Build 0)  -->
<svg version="1.1" id="Layer_1" xmlns="http://www.w3.org/2000/svg" xmlns:xlink="http://www.w3.org/1999/xlink" x="0px" y="0px"
	 viewBox="0 0 862.8 437.7" style="enable-background:new 0 0 862.8 437.7;" xml:space="preserve">
<style type="text/css">
	.st0{fill:#F2F6FA;}
	.st1{fill:#7BA1B8;}
	.st2{fill:url(#SVGID_1_);}
	.st3{fill:url(#SVGID_2_);}
	.st4{fill:#183B4D;}
	.st5{fill:none;}
	.st6{enable-background:new    ;}
	.st7{fill:#FFFFFF;}
	.st8{fill:#CDDAE2;}
	.st9{fill:#2D5E72;}
	.st10{fill:#FF405E;}
</style>
<g>
	<g>
		<rect x="75.9" y="-0.1" class="st0" width="0.2" height="434.9"/>
	</g>
	<g>
		<g>
			<path class="st1" d="M76,2.4c-0.2,0-0.4-0.2-0.4-0.4s0.2-0.4,0.4-0.4s0.4,0.1,0.4,0.3V2C76.4,2.2,76.2,2.4,76,2.4z"/>
		</g>
		<g>
			<path class="st1" d="M76,397.7c-0.2,0-0.4-0.2-0.4-0.4v-0.1c0-0.2,0.2-0.4,0.4-0.4s0.4,0.2,0.4,0.4v0.1
				C76.4,397.5,76.2,397.7,76,397.7z M76,358.2c-0.2,0-0.4-0.2-0.4-0.4v-0.1c0-0.2,0.2-0.4,0.4-0.4s0.4,0.2,0.4,0.4v0.1
				C76.4,358,76.2,358.2,76,358.2z M76,318.6c-0.2,0-0.4-0.2-0.4-0.4v-0.1c0-0.2,0.2-0.4,0.4-0.4s0.4,0.2,0.4,0.4v0.1
				C76.4,318.5,76.2,318.6,76,318.6z M76,279.1c-0.2,0-0.4-0.2-0.4-0.4v-0.1c0-0.2,0.2-0.4,0.4-0.4s0.4,0.2,0.4,0.4v0.1
				C76.4,278.9,76.2,279.1,76,279.1z M76,239.6c-0.2,0-0.4-0.2-0.4-0.4v-0.1c0-0.2,0.2-0.4,0.4-0.4s0.4,0.2,0.4,0.4v0.1
				C76.4,239.4,76.2,239.6,76,239.6z M76,200c-0.2,0-0.4-0.2-0.4-0.4v-0.1c0-0.2,0.2-0.4,0.4-0.4s0.4,0.2,0.4,0.4v0.1
				C76.4,199.9,76.2,200,76,200z M76,160.5c-0.2,0-0.4-0.2-0.4-0.4V160c0-0.2,0.2-0.4,0.4-0.4s0.4,0.2,0.4,0.4v0.1
				C76.4,160.3,76.2,160.5,76,160.5z M76,121c-0.2,0-0.4-0.2-0.4-0.4v-0.1c0-0.2,0.2-0.4,0.4-0.4s0.4,0.2,0.4,0.4v0.1
				C76.4,120.8,76.2,121,76,121z M76,81.4c-0.2,0-0.4-0.2-0.4-0.4V81c0-0.2,0.2-0.4,0.4-0.4s0.4,0.2,0.4,0.4v0.1
				C76.4,81.3,76.2,81.4,76,81.4z M76,41.9c-0.2,0-0.4-0.2-0.4-0.4v-0.1c0-0.2,0.2-0.4,0.4-0.4s0.4,0.2,0.4,0.4v0.1
				C76.4,41.7,76.2,41.9,76,41.9z"/>
		</g>
		<g>
			<path class="st1" d="M76,437.2c-0.2,0-0.4-0.2-0.4-0.4s0.2-0.4,0.4-0.4s0.4,0.1,0.4,0.4v0C76.4,437,76.2,437.2,76,437.2z"/>
		</g>
	</g>
	<g>
		<rect x="113.2" y="-0.1" class="st0" width="0.2" height="434.9"/>
	</g>
	<g>
		<g>
			<path class="st1" d="M113.3,2.4c-0.2,0-0.4-0.2-0.4-0.4s0.2-0.4,0.4-0.4s0.4,0.1,0.4,0.3V2C113.7,2.2,113.5,2.4,113.3,2.4z"/>
		</g>
		<g>
			<path class="st1" d="M113.3,397.7c-0.2,0-0.4-0.2-0.4-0.4v-0.1c0-0.2,0.2-0.4,0.4-0.4s0.4,0.2,0.4,0.4v0.1
				C113.7,397.5,113.5,397.7,113.3,397.7z M113.3,358.2c-0.2,0-0.4-0.2-0.4-0.4v-0.1c0-0.2,0.2-0.4,0.4-0.4s0.4,0.2,0.4,0.4v0.1
				C113.7,358,113.5,358.2,113.3,358.2z M113.3,318.6c-0.2,0-0.4-0.2-0.4-0.4v-0.1c0-0.2,0.2-0.4,0.4-0.4s0.4,0.2,0.4,0.4v0.1
				C113.7,318.5,113.5,318.6,113.3,318.6z M113.3,279.1c-0.2,0-0.4-0.2-0.4-0.4v-0.1c0-0.2,0.2-0.4,0.4-0.4s0.4,0.2,0.4,0.4v0.1
				C113.7,278.9,113.5,279.1,113.3,279.1z M113.3,239.6c-0.2,0-0.4-0.2-0.4-0.4v-0.1c0-0.2,0.2-0.4,0.4-0.4s0.4,0.2,0.4,0.4v0.1
				C113.7,239.4,113.5,239.6,113.3,239.6z M113.3,200c-0.2,0-0.4-0.2-0.4-0.4v-0.1c0-0.2,0.2-0.4,0.4-0.4s0.4,0.2,0.4,0.4v0.1
				C113.7,199.9,113.5,200,113.3,200z M113.3,160.5c-0.2,0-0.4-0.2-0.4-0.4V160c0-0.2,0.2-0.4,0.4-0.4s0.4,0.2,0.4,0.4v0.1
				C113.7,160.3,113.5,160.5,113.3,160.5z M113.3,121c-0.2,0-0.4-0.2-0.4-0.4v-0.1c0-0.2,0.2-0.4,0.4-0.4s0.4,0.2,0.4,0.4v0.1
				C113.7,120.8,113.5,121,113.3,121z M113.3,81.4c-0.2,0-0.4-0.2-0.4-0.4V81c0-0.2,0.2-0.4,0.4-0.4s0.4,0.2,0.4,0.4v0.1
				C113.7,81.3,113.5,81.4,113.3,81.4z M113.3,41.9c-0.2,0-0.4-0.2-0.4-0.4v-0.1c0-0.2,0.2-0.4,0.4-0.4s0.4,0.2,0.4,0.4v0.1
				C113.7,41.7,113.5,41.9,113.3,41.9z"/>
		</g>
		<g>
			<path class="st1" d="M113.3,437.2c-0.2,0-0.4-0.2-0.4-0.4s0.2-0.4,0.4-0.4s0.4,0.1,0.4,0.4v0C113.7,437,113.5,437.2,113.3,437.2z
				"/>
		</g>
	</g>
	<g>
		<rect x="151.2" y="-0.1" class="st0" width="0.2" height="434.9"/>
	</g>
	<g>
		<g>
			<path class="st1" d="M151.3,2.4c-0.2,0-0.4-0.2-0.4-0.4s0.2-0.4,0.4-0.4s0.4,0.1,0.4,0.3V2C151.7,2.2,151.5,2.4,151.3,2.4z"/>
		</g>
		<g>
			<path class="st1" d="M151.3,397.7c-0.2,0-0.4-0.2-0.4-0.4v-0.1c0-0.2,0.2-0.4,0.4-0.4s0.4,0.2,0.4,0.4v0.1
				C151.7,397.5,151.5,397.7,151.3,397.7z M151.3,358.2c-0.2,0-0.4-0.2-0.4-0.4v-0.1c0-0.2,0.2-0.4,0.4-0.4s0.4,0.2,0.4,0.4v0.1
				C151.7,358,151.5,358.2,151.3,358.2z M151.3,318.6c-0.2,0-0.4-0.2-0.4-0.4v-0.1c0-0.2,0.2-0.4,0.4-0.4s0.4,0.2,0.4,0.4v0.1
				C151.7,318.5,151.5,318.6,151.3,318.6z M151.3,279.1c-0.2,0-0.4-0.2-0.4-0.4v-0.1c0-0.2,0.2-0.4,0.4-0.4s0.4,0.2,0.4,0.4v0.1
				C151.7,278.9,151.5,279.1,151.3,279.1z M151.3,239.6c-0.2,0-0.4-0.2-0.4-0.4v-0.1c0-0.2,0.2-0.4,0.4-0.4s0.4,0.2,0.4,0.4v0.1
				C151.7,239.4,151.5,239.6,151.3,239.6z M151.3,200c-0.2,0-0.4-0.2-0.4-0.4v-0.1c0-0.2,0.2-0.4,0.4-0.4s0.4,0.2,0.4,0.4v0.1
				C151.7,199.9,151.5,200,151.3,200z M151.3,160.5c-0.2,0-0.4-0.2-0.4-0.4V160c0-0.2,0.2-0.4,0.4-0.4s0.4,0.2,0.4,0.4v0.1
				C151.7,160.3,151.5,160.5,151.3,160.5z M151.3,121c-0.2,0-0.4-0.2-0.4-0.4v-0.1c0-0.2,0.2-0.4,0.4-0.4s0.4,0.2,0.4,0.4v0.1
				C151.7,120.8,151.5,121,151.3,121z M151.3,81.4c-0.2,0-0.4-0.2-0.4-0.4V81c0-0.2,0.2-0.4,0.4-0.4s0.4,0.2,0.4,0.4v0.1
				C151.7,81.3,151.5,81.4,151.3,81.4z M151.3,41.9c-0.2,0-0.4-0.2-0.4-0.4v-0.1c0-0.2,0.2-0.4,0.4-0.4s0.4,0.2,0.4,0.4v0.1
				C151.7,41.7,151.5,41.9,151.3,41.9z"/>
		</g>
		<g>
			<path class="st1" d="M151.3,437.2c-0.2,0-0.4-0.2-0.4-0.4s0.2-0.4,0.4-0.4s0.4,0.1,0.4,0.4v0C151.7,437,151.5,437.2,151.3,437.2z
				"/>
		</g>
	</g>
	<g>
		<rect x="188.5" y="-0.1" class="st0" width="0.2" height="434.9"/>
	</g>
	<g>
		<g>
			<path class="st1" d="M188.6,2.4c-0.2,0-0.4-0.2-0.4-0.4s0.2-0.4,0.4-0.4s0.4,0.1,0.4,0.3V2C189,2.2,188.9,2.4,188.6,2.4z"/>
		</g>
		<g>
			<path class="st1" d="M188.6,397.7c-0.2,0-0.4-0.2-0.4-0.4v-0.1c0-0.2,0.2-0.4,0.4-0.4s0.4,0.2,0.4,0.4v0.1
				C189,397.5,188.9,397.7,188.6,397.7z M188.6,358.2c-0.2,0-0.4-0.2-0.4-0.4v-0.1c0-0.2,0.2-0.4,0.4-0.4s0.4,0.2,0.4,0.4v0.1
				C189,358,188.9,358.2,188.6,358.2z M188.6,318.6c-0.2,0-0.4-0.2-0.4-0.4v-0.1c0-0.2,0.2-0.4,0.4-0.4s0.4,0.2,0.4,0.4v0.1
				C189,318.5,188.9,318.6,188.6,318.6z M188.6,279.1c-0.2,0-0.4-0.2-0.4-0.4v-0.1c0-0.2,0.2-0.4,0.4-0.4s0.4,0.2,0.4,0.4v0.1
				C189,278.9,188.9,279.1,188.6,279.1z M188.6,239.6c-0.2,0-0.4-0.2-0.4-0.4v-0.1c0-0.2,0.2-0.4,0.4-0.4s0.4,0.2,0.4,0.4v0.1
				C189,239.4,188.9,239.6,188.6,239.6z M188.6,200c-0.2,0-0.4-0.2-0.4-0.4v-0.1c0-0.2,0.2-0.4,0.4-0.4s0.4,0.2,0.4,0.4v0.1
				C189,199.9,188.9,200,188.6,200z M188.6,160.5c-0.2,0-0.4-0.2-0.4-0.4V160c0-0.2,0.2-0.4,0.4-0.4s0.4,0.2,0.4,0.4v0.1
				C189,160.3,188.9,160.5,188.6,160.5z M188.6,121c-0.2,0-0.4-0.2-0.4-0.4v-0.1c0-0.2,0.2-0.4,0.4-0.4s0.4,0.2,0.4,0.4v0.1
				C189,120.8,188.9,121,188.6,121z M188.6,81.4c-0.2,0-0.4-0.2-0.4-0.4V81c0-0.2,0.2-0.4,0.4-0.4s0.4,0.2,0.4,0.4v0.1
				C189,81.3,188.9,81.4,188.6,81.4z M188.6,41.9c-0.2,0-0.4-0.2-0.4-0.4v-0.1c0-0.2,0.2-0.4,0.4-0.4s0.4,0.2,0.4,0.4v0.1
				C189,41.7,188.9,41.9,188.6,41.9z"/>
		</g>
		<g>
			<path class="st1" d="M188.6,437.2c-0.2,0-0.4-0.2-0.4-0.4s0.2-0.4,0.4-0.4s0.4,0.1,0.4,0.4v0C189,437,188.9,437.2,188.6,437.2z"
				/>
		</g>
	</g>
	<g>
		<rect x="226" y="-0.1" class="st0" width="0.2" height="434.9"/>
	</g>
	<g>
		<g>
			<path class="st1" d="M226.1,2.4c-0.2,0-0.4-0.2-0.4-0.4s0.2-0.4,0.4-0.4s0.4,0.1,0.4,0.3V2C226.5,2.2,226.3,2.4,226.1,2.4z"/>
		</g>
		<g>
			<path class="st1" d="M226.1,397.7c-0.2,0-0.4-0.2-0.4-0.4v-0.1c0-0.2,0.2-0.4,0.4-0.4s0.4,0.2,0.4,0.4v0.1
				C226.5,397.5,226.3,397.7,226.1,397.7z M226.1,358.2c-0.2,0-0.4-0.2-0.4-0.4v-0.1c0-0.2,0.2-0.4,0.4-0.4s0.4,0.2,0.4,0.4v0.1
				C226.5,358,226.3,358.2,226.1,358.2z M226.1,318.6c-0.2,0-0.4-0.2-0.4-0.4v-0.1c0-0.2,0.2-0.4,0.4-0.4s0.4,0.2,0.4,0.4v0.1
				C226.5,318.5,226.3,318.6,226.1,318.6z M226.1,279.1c-0.2,0-0.4-0.2-0.4-0.4v-0.1c0-0.2,0.2-0.4,0.4-0.4s0.4,0.2,0.4,0.4v0.1
				C226.5,278.9,226.3,279.1,226.1,279.1z M226.1,239.6c-0.2,0-0.4-0.2-0.4-0.4v-0.1c0-0.2,0.2-0.4,0.4-0.4s0.4,0.2,0.4,0.4v0.1
				C226.5,239.4,226.3,239.6,226.1,239.6z M226.1,200c-0.2,0-0.4-0.2-0.4-0.4v-0.1c0-0.2,0.2-0.4,0.4-0.4s0.4,0.2,0.4,0.4v0.1
				C226.5,199.9,226.3,200,226.1,200z M226.1,160.5c-0.2,0-0.4-0.2-0.4-0.4V160c0-0.2,0.2-0.4,0.4-0.4s0.4,0.2,0.4,0.4v0.1
				C226.5,160.3,226.3,160.5,226.1,160.5z M226.1,121c-0.2,0-0.4-0.2-0.4-0.4v-0.1c0-0.2,0.2-0.4,0.4-0.4s0.4,0.2,0.4,0.4v0.1
				C226.5,120.8,226.3,121,226.1,121z M226.1,81.4c-0.2,0-0.4-0.2-0.4-0.4V81c0-0.2,0.2-0.4,0.4-0.4s0.4,0.2,0.4,0.4v0.1
				C226.5,81.3,226.3,81.4,226.1,81.4z M226.1,41.9c-0.2,0-0.4-0.2-0.4-0.4v-0.1c0-0.2,0.2-0.4,0.4-0.4s0.4,0.2,0.4,0.4v0.1
				C226.5,41.7,226.3,41.9,226.1,41.9z"/>
		</g>
		<g>
			<path class="st1" d="M226.1,437.2c-0.2,0-0.4-0.2-0.4-0.4s0.2-0.4,0.4-0.4s0.4,0.1,0.4,0.4v0C226.5,437,226.3,437.2,226.1,437.2z
				"/>
		</g>
	</g>
	<g>
		<rect x="263.5" y="-0.1" class="st0" width="0.2" height="434.9"/>
	</g>
	<g>
		<g>
			<path class="st1" d="M263.6,2.4c-0.2,0-0.4-0.2-0.4-0.4s0.2-0.4,0.4-0.4s0.4,0.1,0.4,0.3V2C264,2.2,263.8,2.4,263.6,2.4z"/>
		</g>
		<g>
			<path class="st1" d="M263.6,397.7c-0.2,0-0.4-0.2-0.4-0.4v-0.1c0-0.2,0.2-0.4,0.4-0.4s0.4,0.2,0.4,0.4v0.1
				C264,397.5,263.8,397.7,263.6,397.7z M263.6,358.2c-0.2,0-0.4-0.2-0.4-0.4v-0.1c0-0.2,0.2-0.4,0.4-0.4s0.4,0.2,0.4,0.4v0.1
				C264,358,263.8,358.2,263.6,358.2z M263.6,318.6c-0.2,0-0.4-0.2-0.4-0.4v-0.1c0-0.2,0.2-0.4,0.4-0.4s0.4,0.2,0.4,0.4v0.1
				C264,318.5,263.8,318.6,263.6,318.6z M263.6,279.1c-0.2,0-0.4-0.2-0.4-0.4v-0.1c0-0.2,0.2-0.4,0.4-0.4s0.4,0.2,0.4,0.4v0.1
				C264,278.9,263.8,279.1,263.6,279.1z M263.6,239.6c-0.2,0-0.4-0.2-0.4-0.4v-0.1c0-0.2,0.2-0.4,0.4-0.4s0.4,0.2,0.4,0.4v0.1
				C264,239.4,263.8,239.6,263.6,239.6z M263.6,200c-0.2,0-0.4-0.2-0.4-0.4v-0.1c0-0.2,0.2-0.4,0.4-0.4s0.4,0.2,0.4,0.4v0.1
				C264,199.9,263.8,200,263.6,200z M263.6,160.5c-0.2,0-0.4-0.2-0.4-0.4V160c0-0.2,0.2-0.4,0.4-0.4s0.4,0.2,0.4,0.4v0.1
				C264,160.3,263.8,160.5,263.6,160.5z M263.6,121c-0.2,0-0.4-0.2-0.4-0.4v-0.1c0-0.2,0.2-0.4,0.4-0.4s0.4,0.2,0.4,0.4v0.1
				C264,120.8,263.8,121,263.6,121z M263.6,81.4c-0.2,0-0.4-0.2-0.4-0.4V81c0-0.2,0.2-0.4,0.4-0.4s0.4,0.2,0.4,0.4v0.1
				C264,81.3,263.8,81.4,263.6,81.4z M263.6,41.9c-0.2,0-0.4-0.2-0.4-0.4v-0.1c0-0.2,0.2-0.4,0.4-0.4s0.4,0.2,0.4,0.4v0.1
				C264,41.7,263.8,41.9,263.6,41.9z"/>
		</g>
		<g>
			<path class="st1" d="M263.6,437.2c-0.2,0-0.4-0.2-0.4-0.4s0.2-0.4,0.4-0.4s0.4,0.1,0.4,0.4v0C264,437,263.8,437.2,263.6,437.2z"
				/>
		</g>
	</g>
	<g>
		<rect x="300.8" y="-0.1" class="st0" width="0.2" height="434.9"/>
	</g>
	<g>
		<g>
			<path class="st1" d="M301,2.4c-0.2,0-0.4-0.2-0.4-0.4s0.2-0.4,0.4-0.4s0.4,0.1,0.4,0.3V2C301.3,2.2,301.2,2.4,301,2.4z"/>
		</g>
		<g>
			<path class="st1" d="M301,397.7c-0.2,0-0.4-0.2-0.4-0.4v-0.1c0-0.2,0.2-0.4,0.4-0.4s0.4,0.2,0.4,0.4v0.1
				C301.3,397.5,301.2,397.7,301,397.7z M301,358.2c-0.2,0-0.4-0.2-0.4-0.4v-0.1c0-0.2,0.2-0.4,0.4-0.4s0.4,0.2,0.4,0.4v0.1
				C301.3,358,301.2,358.2,301,358.2z M301,318.6c-0.2,0-0.4-0.2-0.4-0.4v-0.1c0-0.2,0.2-0.4,0.4-0.4s0.4,0.2,0.4,0.4v0.1
				C301.3,318.5,301.2,318.6,301,318.6z M301,279.1c-0.2,0-0.4-0.2-0.4-0.4v-0.1c0-0.2,0.2-0.4,0.4-0.4s0.4,0.2,0.4,0.4v0.1
				C301.3,278.9,301.2,279.1,301,279.1z M301,239.6c-0.2,0-0.4-0.2-0.4-0.4v-0.1c0-0.2,0.2-0.4,0.4-0.4s0.4,0.2,0.4,0.4v0.1
				C301.3,239.4,301.2,239.6,301,239.6z M301,200c-0.2,0-0.4-0.2-0.4-0.4v-0.1c0-0.2,0.2-0.4,0.4-0.4s0.4,0.2,0.4,0.4v0.1
				C301.3,199.9,301.2,200,301,200z M301,160.5c-0.2,0-0.4-0.2-0.4-0.4V160c0-0.2,0.2-0.4,0.4-0.4s0.4,0.2,0.4,0.4v0.1
				C301.3,160.3,301.2,160.5,301,160.5z M301,121c-0.2,0-0.4-0.2-0.4-0.4v-0.1c0-0.2,0.2-0.4,0.4-0.4s0.4,0.2,0.4,0.4v0.1
				C301.3,120.8,301.2,121,301,121z M301,81.4c-0.2,0-0.4-0.2-0.4-0.4V81c0-0.2,0.2-0.4,0.4-0.4s0.4,0.2,0.4,0.4v0.1
				C301.3,81.3,301.2,81.4,301,81.4z M301,41.9c-0.2,0-0.4-0.2-0.4-0.4v-0.1c0-0.2,0.2-0.4,0.4-0.4s0.4,0.2,0.4,0.4v0.1
				C301.3,41.7,301.2,41.9,301,41.9z"/>
		</g>
		<g>
			<path class="st1" d="M301,437.2c-0.2,0-0.4-0.2-0.4-0.4s0.2-0.4,0.4-0.4s0.4,0.1,0.4,0.4v0C301.3,437,301.2,437.2,301,437.2z"/>
		</g>
	</g>
	<g>
		<rect x="337.8" y="-0.1" class="st0" width="0.2" height="434.9"/>
	</g>
	<g>
		<g>
			<path class="st1" d="M338,2.4c-0.2,0-0.4-0.2-0.4-0.4s0.2-0.4,0.4-0.4s0.4,0.1,0.4,0.3V2C338.3,2.2,338.2,2.4,338,2.4z"/>
		</g>
		<g>
			<path class="st1" d="M338,397.7c-0.2,0-0.4-0.2-0.4-0.4v-0.1c0-0.2,0.2-0.4,0.4-0.4s0.4,0.2,0.4,0.4v0.1
				C338.3,397.5,338.2,397.7,338,397.7z M338,358.2c-0.2,0-0.4-0.2-0.4-0.4v-0.1c0-0.2,0.2-0.4,0.4-0.4s0.4,0.2,0.4,0.4v0.1
				C338.3,358,338.2,358.2,338,358.2z M338,318.6c-0.2,0-0.4-0.2-0.4-0.4v-0.1c0-0.2,0.2-0.4,0.4-0.4s0.4,0.2,0.4,0.4v0.1
				C338.3,318.5,338.2,318.6,338,318.6z M338,279.1c-0.2,0-0.4-0.2-0.4-0.4v-0.1c0-0.2,0.2-0.4,0.4-0.4s0.4,0.2,0.4,0.4v0.1
				C338.3,278.9,338.2,279.1,338,279.1z M338,239.6c-0.2,0-0.4-0.2-0.4-0.4v-0.1c0-0.2,0.2-0.4,0.4-0.4s0.4,0.2,0.4,0.4v0.1
				C338.3,239.4,338.2,239.6,338,239.6z M338,200c-0.2,0-0.4-0.2-0.4-0.4v-0.1c0-0.2,0.2-0.4,0.4-0.4s0.4,0.2,0.4,0.4v0.1
				C338.3,199.9,338.2,200,338,200z M338,160.5c-0.2,0-0.4-0.2-0.4-0.4V160c0-0.2,0.2-0.4,0.4-0.4s0.4,0.2,0.4,0.4v0.1
				C338.3,160.3,338.2,160.5,338,160.5z M338,121c-0.2,0-0.4-0.2-0.4-0.4v-0.1c0-0.2,0.2-0.4,0.4-0.4s0.4,0.2,0.4,0.4v0.1
				C338.3,120.8,338.2,121,338,121z M338,81.4c-0.2,0-0.4-0.2-0.4-0.4V81c0-0.2,0.2-0.4,0.4-0.4s0.4,0.2,0.4,0.4v0.1
				C338.3,81.3,338.2,81.4,338,81.4z M338,41.9c-0.2,0-0.4-0.2-0.4-0.4v-0.1c0-0.2,0.2-0.4,0.4-0.4s0.4,0.2,0.4,0.4v0.1
				C338.3,41.7,338.2,41.9,338,41.9z"/>
		</g>
		<g>
			<path class="st1" d="M338,437.2c-0.2,0-0.4-0.2-0.4-0.4s0.2-0.4,0.4-0.4s0.4,0.1,0.4,0.4v0C338.3,437,338.2,437.2,338,437.2z"/>
		</g>
	</g>
	<g>
		<rect x="375.7" y="-0.1" class="st0" width="0.2" height="434.9"/>
	</g>
	<g>
		<g>
			<path class="st1" d="M375.9,2.4c-0.2,0-0.4-0.2-0.4-0.4s0.2-0.4,0.4-0.4s0.4,0.1,0.4,0.3V2C376.2,2.2,376.1,2.4,375.9,2.4z"/>
		</g>
		<g>
			<path class="st1" d="M375.9,397.7c-0.2,0-0.4-0.2-0.4-0.4v-0.1c0-0.2,0.2-0.4,0.4-0.4s0.4,0.2,0.4,0.4v0.1
				C376.2,397.5,376.1,397.7,375.9,397.7z M375.9,358.2c-0.2,0-0.4-0.2-0.4-0.4v-0.1c0-0.2,0.2-0.4,0.4-0.4s0.4,0.2,0.4,0.4v0.1
				C376.2,358,376.1,358.2,375.9,358.2z M375.9,318.6c-0.2,0-0.4-0.2-0.4-0.4v-0.1c0-0.2,0.2-0.4,0.4-0.4s0.4,0.2,0.4,0.4v0.1
				C376.2,318.5,376.1,318.6,375.9,318.6z M375.9,279.1c-0.2,0-0.4-0.2-0.4-0.4v-0.1c0-0.2,0.2-0.4,0.4-0.4s0.4,0.2,0.4,0.4v0.1
				C376.2,278.9,376.1,279.1,375.9,279.1z M375.9,239.6c-0.2,0-0.4-0.2-0.4-0.4v-0.1c0-0.2,0.2-0.4,0.4-0.4s0.4,0.2,0.4,0.4v0.1
				C376.2,239.4,376.1,239.6,375.9,239.6z M375.9,200c-0.2,0-0.4-0.2-0.4-0.4v-0.1c0-0.2,0.2-0.4,0.4-0.4s0.4,0.2,0.4,0.4v0.1
				C376.2,199.9,376.1,200,375.9,200z M375.9,160.5c-0.2,0-0.4-0.2-0.4-0.4V160c0-0.2,0.2-0.4,0.4-0.4s0.4,0.2,0.4,0.4v0.1
				C376.2,160.3,376.1,160.5,375.9,160.5z M375.9,121c-0.2,0-0.4-0.2-0.4-0.4v-0.1c0-0.2,0.2-0.4,0.4-0.4s0.4,0.2,0.4,0.4v0.1
				C376.2,120.8,376.1,121,375.9,121z M375.9,81.4c-0.2,0-0.4-0.2-0.4-0.4V81c0-0.2,0.2-0.4,0.4-0.4s0.4,0.2,0.4,0.4v0.1
				C376.2,81.3,376.1,81.4,375.9,81.4z M375.9,41.9c-0.2,0-0.4-0.2-0.4-0.4v-0.1c0-0.2,0.2-0.4,0.4-0.4s0.4,0.2,0.4,0.4v0.1
				C376.2,41.7,376.1,41.9,375.9,41.9z"/>
		</g>
		<g>
			<path class="st1" d="M375.9,437.2c-0.2,0-0.4-0.2-0.4-0.4s0.2-0.4,0.4-0.4s0.4,0.1,0.4,0.4v0C376.2,437,376.1,437.2,375.9,437.2z
				"/>
		</g>
	</g>
	<g>
		<rect x="413.2" y="-0.1" class="st0" width="0.2" height="434.9"/>
	</g>
	<g>
		<g>
			<path class="st1" d="M413.3,2.4c-0.2,0-0.4-0.2-0.4-0.4s0.2-0.4,0.4-0.4s0.4,0.1,0.4,0.3V2C413.7,2.2,413.5,2.4,413.3,2.4z"/>
		</g>
		<g>
			<path class="st1" d="M413.3,397.7c-0.2,0-0.4-0.2-0.4-0.4v-0.1c0-0.2,0.2-0.4,0.4-0.4s0.4,0.2,0.4,0.4v0.1
				C413.7,397.5,413.5,397.7,413.3,397.7z M413.3,358.2c-0.2,0-0.4-0.2-0.4-0.4v-0.1c0-0.2,0.2-0.4,0.4-0.4s0.4,0.2,0.4,0.4v0.1
				C413.7,358,413.5,358.2,413.3,358.2z M413.3,318.6c-0.2,0-0.4-0.2-0.4-0.4v-0.1c0-0.2,0.2-0.4,0.4-0.4s0.4,0.2,0.4,0.4v0.1
				C413.7,318.5,413.5,318.6,413.3,318.6z M413.3,279.1c-0.2,0-0.4-0.2-0.4-0.4v-0.1c0-0.2,0.2-0.4,0.4-0.4s0.4,0.2,0.4,0.4v0.1
				C413.7,278.9,413.5,279.1,413.3,279.1z M413.3,239.6c-0.2,0-0.4-0.2-0.4-0.4v-0.1c0-0.2,0.2-0.4,0.4-0.4s0.4,0.2,0.4,0.4v0.1
				C413.7,239.4,413.5,239.6,413.3,239.6z M413.3,200c-0.2,0-0.4-0.2-0.4-0.4v-0.1c0-0.2,0.2-0.4,0.4-0.4s0.4,0.2,0.4,0.4v0.1
				C413.7,199.9,413.5,200,413.3,200z M413.3,160.5c-0.2,0-0.4-0.2-0.4-0.4V160c0-0.2,0.2-0.4,0.4-0.4s0.4,0.2,0.4,0.4v0.1
				C413.7,160.3,413.5,160.5,413.3,160.5z M413.3,121c-0.2,0-0.4-0.2-0.4-0.4v-0.1c0-0.2,0.2-0.4,0.4-0.4s0.4,0.2,0.4,0.4v0.1
				C413.7,120.8,413.5,121,413.3,121z M413.3,81.4c-0.2,0-0.4-0.2-0.4-0.4V81c0-0.2,0.2-0.4,0.4-0.4s0.4,0.2,0.4,0.4v0.1
				C413.7,81.3,413.5,81.4,413.3,81.4z M413.3,41.9c-0.2,0-0.4-0.2-0.4-0.4v-0.1c0-0.2,0.2-0.4,0.4-0.4s0.4,0.2,0.4,0.4v0.1
				C413.7,41.7,413.5,41.9,413.3,41.9z"/>
		</g>
		<g>
			<path class="st1" d="M413.3,437.2c-0.2,0-0.4-0.2-0.4-0.4s0.2-0.4,0.4-0.4s0.4,0.1,0.4,0.4v0C413.7,437,413.5,437.2,413.3,437.2z
				"/>
		</g>
	</g>
	<g>
		<rect x="38.9" y="-0.1" class="st0" width="0.2" height="434.9"/>
	</g>
	<g>
		<g>
			<path class="st1" d="M39,2.4c-0.2,0-0.4-0.2-0.4-0.4s0.2-0.4,0.4-0.4s0.4,0.1,0.4,0.3V2C39.4,2.2,39.3,2.4,39,2.4z"/>
		</g>
		<g>
			<path class="st1" d="M39,397.7c-0.2,0-0.4-0.2-0.4-0.4v-0.1c0-0.2,0.2-0.4,0.4-0.4s0.4,0.2,0.4,0.4v0.1
				C39.4,397.5,39.3,397.7,39,397.7z M39,358.2c-0.2,0-0.4-0.2-0.4-0.4v-0.1c0-0.2,0.2-0.4,0.4-0.4s0.4,0.2,0.4,0.4v0.1
				C39.4,358,39.3,358.2,39,358.2z M39,318.6c-0.2,0-0.4-0.2-0.4-0.4v-0.1c0-0.2,0.2-0.4,0.4-0.4s0.4,0.2,0.4,0.4v0.1
				C39.4,318.5,39.3,318.6,39,318.6z M39,279.1c-0.2,0-0.4-0.2-0.4-0.4v-0.1c0-0.2,0.2-0.4,0.4-0.4s0.4,0.2,0.4,0.4v0.1
				C39.4,278.9,39.3,279.1,39,279.1z M39,239.6c-0.2,0-0.4-0.2-0.4-0.4v-0.1c0-0.2,0.2-0.4,0.4-0.4s0.4,0.2,0.4,0.4v0.1
				C39.4,239.4,39.3,239.6,39,239.6z M39,200c-0.2,0-0.4-0.2-0.4-0.4v-0.1c0-0.2,0.2-0.4,0.4-0.4s0.4,0.2,0.4,0.4v0.1
				C39.4,199.9,39.3,200,39,200z M39,160.5c-0.2,0-0.4-0.2-0.4-0.4V160c0-0.2,0.2-0.4,0.4-0.4s0.4,0.2,0.4,0.4v0.1
				C39.4,160.3,39.3,160.5,39,160.5z M39,121c-0.2,0-0.4-0.2-0.4-0.4v-0.1c0-0.2,0.2-0.4,0.4-0.4s0.4,0.2,0.4,0.4v0.1
				C39.4,120.8,39.3,121,39,121z M39,81.4c-0.2,0-0.4-0.2-0.4-0.4V81c0-0.2,0.2-0.4,0.4-0.4s0.4,0.2,0.4,0.4v0.1
				C39.4,81.3,39.3,81.4,39,81.4z M39,41.9c-0.2,0-0.4-0.2-0.4-0.4v-0.1c0-0.2,0.2-0.4,0.4-0.4s0.4,0.2,0.4,0.4v0.1
				C39.4,41.7,39.3,41.9,39,41.9z"/>
		</g>
		<g>
			<path class="st1" d="M39,437.2c-0.2,0-0.4-0.2-0.4-0.4s0.2-0.4,0.4-0.4s0.4,0.1,0.4,0.4v0C39.4,437,39.3,437.2,39,437.2z"/>
		</g>
	</g>
	<g>
		<rect x="487.6" y="-0.1" class="st0" width="0.2" height="434.9"/>
	</g>
	<g>
		<g>
			<path class="st1" d="M487.7,2.4c-0.2,0-0.4-0.2-0.4-0.4s0.2-0.4,0.4-0.4s0.4,0.1,0.4,0.3V2C488.1,2.2,487.9,2.4,487.7,2.4z"/>
		</g>
		<g>
			<path class="st1" d="M487.7,397.7c-0.2,0-0.4-0.2-0.4-0.4v-0.1c0-0.2,0.2-0.4,0.4-0.4s0.4,0.2,0.4,0.4v0.1
				C488.1,397.5,487.9,397.7,487.7,397.7z M487.7,358.2c-0.2,0-0.4-0.2-0.4-0.4v-0.1c0-0.2,0.2-0.4,0.4-0.4s0.4,0.2,0.4,0.4v0.1
				C488.1,358,487.9,358.2,487.7,358.2z M487.7,318.6c-0.2,0-0.4-0.2-0.4-0.4v-0.1c0-0.2,0.2-0.4,0.4-0.4s0.4,0.2,0.4,0.4v0.1
				C488.1,318.5,487.9,318.6,487.7,318.6z M487.7,279.1c-0.2,0-0.4-0.2-0.4-0.4v-0.1c0-0.2,0.2-0.4,0.4-0.4s0.4,0.2,0.4,0.4v0.1
				C488.1,278.9,487.9,279.1,487.7,279.1z M487.7,239.6c-0.2,0-0.4-0.2-0.4-0.4v-0.1c0-0.2,0.2-0.4,0.4-0.4s0.4,0.2,0.4,0.4v0.1
				C488.1,239.4,487.9,239.6,487.7,239.6z M487.7,200c-0.2,0-0.4-0.2-0.4-0.4v-0.1c0-0.2,0.2-0.4,0.4-0.4s0.4,0.2,0.4,0.4v0.1
				C488.1,199.9,487.9,200,487.7,200z M487.7,160.5c-0.2,0-0.4-0.2-0.4-0.4V160c0-0.2,0.2-0.4,0.4-0.4s0.4,0.2,0.4,0.4v0.1
				C488.1,160.3,487.9,160.5,487.7,160.5z M487.7,121c-0.2,0-0.4-0.2-0.4-0.4v-0.1c0-0.2,0.2-0.4,0.4-0.4s0.4,0.2,0.4,0.4v0.1
				C488.1,120.8,487.9,121,487.7,121z M487.7,81.4c-0.2,0-0.4-0.2-0.4-0.4V81c0-0.2,0.2-0.4,0.4-0.4s0.4,0.2,0.4,0.4v0.1
				C488.1,81.3,487.9,81.4,487.7,81.4z M487.7,41.9c-0.2,0-0.4-0.2-0.4-0.4v-0.1c0-0.2,0.2-0.4,0.4-0.4s0.4,0.2,0.4,0.4v0.1
				C488.1,41.7,487.9,41.9,487.7,41.9z"/>
		</g>
		<g>
			<path class="st1" d="M487.7,437.2c-0.2,0-0.4-0.2-0.4-0.4s0.2-0.4,0.4-0.4s0.4,0.1,0.4,0.4v0C488.1,437,487.9,437.2,487.7,437.2z
				"/>
		</g>
	</g>
	<g>
		<rect x="524.9" y="-0.1" class="st0" width="0.2" height="434.9"/>
	</g>
	<g>
		<g>
			<path class="st1" d="M525,2.4c-0.2,0-0.4-0.2-0.4-0.4s0.2-0.4,0.4-0.4s0.4,0.1,0.4,0.3V2C525.4,2.2,525.2,2.4,525,2.4z"/>
		</g>
		<g>
			<path class="st1" d="M525,397.7c-0.2,0-0.4-0.2-0.4-0.4v-0.1c0-0.2,0.2-0.4,0.4-0.4s0.4,0.2,0.4,0.4v0.1
				C525.4,397.5,525.2,397.7,525,397.7z M525,358.2c-0.2,0-0.4-0.2-0.4-0.4v-0.1c0-0.2,0.2-0.4,0.4-0.4s0.4,0.2,0.4,0.4v0.1
				C525.4,358,525.2,358.2,525,358.2z M525,318.6c-0.2,0-0.4-0.2-0.4-0.4v-0.1c0-0.2,0.2-0.4,0.4-0.4s0.4,0.2,0.4,0.4v0.1
				C525.4,318.5,525.2,318.6,525,318.6z M525,279.1c-0.2,0-0.4-0.2-0.4-0.4v-0.1c0-0.2,0.2-0.4,0.4-0.4s0.4,0.2,0.4,0.4v0.1
				C525.4,278.9,525.2,279.1,525,279.1z M525,239.6c-0.2,0-0.4-0.2-0.4-0.4v-0.1c0-0.2,0.2-0.4,0.4-0.4s0.4,0.2,0.4,0.4v0.1
				C525.4,239.4,525.2,239.6,525,239.6z M525,200c-0.2,0-0.4-0.2-0.4-0.4v-0.1c0-0.2,0.2-0.4,0.4-0.4s0.4,0.2,0.4,0.4v0.1
				C525.4,199.9,525.2,200,525,200z M525,160.5c-0.2,0-0.4-0.2-0.4-0.4V160c0-0.2,0.2-0.4,0.4-0.4s0.4,0.2,0.4,0.4v0.1
				C525.4,160.3,525.2,160.5,525,160.5z M525,121c-0.2,0-0.4-0.2-0.4-0.4v-0.1c0-0.2,0.2-0.4,0.4-0.4s0.4,0.2,0.4,0.4v0.1
				C525.4,120.8,525.2,121,525,121z M525,81.4c-0.2,0-0.4-0.2-0.4-0.4V81c0-0.2,0.2-0.4,0.4-0.4s0.4,0.2,0.4,0.4v0.1
				C525.4,81.3,525.2,81.4,525,81.4z M525,41.9c-0.2,0-0.4-0.2-0.4-0.4v-0.1c0-0.2,0.2-0.4,0.4-0.4s0.4,0.2,0.4,0.4v0.1
				C525.4,41.7,525.2,41.9,525,41.9z"/>
		</g>
		<g>
			<path class="st1" d="M525,437.2c-0.2,0-0.4-0.2-0.4-0.4s0.2-0.4,0.4-0.4s0.4,0.1,0.4,0.4v0C525.4,437,525.2,437.2,525,437.2z"/>
		</g>
	</g>
	<g>
		<rect x="562.9" y="-0.1" class="st0" width="0.2" height="434.9"/>
	</g>
	<g>
		<g>
			<path class="st1" d="M563,2.4c-0.2,0-0.4-0.2-0.4-0.4s0.2-0.4,0.4-0.4s0.4,0.1,0.4,0.3V2C563.4,2.2,563.2,2.4,563,2.4z"/>
		</g>
		<g>
			<path class="st1" d="M563,397.7c-0.2,0-0.4-0.2-0.4-0.4v-0.1c0-0.2,0.2-0.4,0.4-0.4s0.4,0.2,0.4,0.4v0.1
				C563.4,397.5,563.2,397.7,563,397.7z M563,358.2c-0.2,0-0.4-0.2-0.4-0.4v-0.1c0-0.2,0.2-0.4,0.4-0.4s0.4,0.2,0.4,0.4v0.1
				C563.4,358,563.2,358.2,563,358.2z M563,318.6c-0.2,0-0.4-0.2-0.4-0.4v-0.1c0-0.2,0.2-0.4,0.4-0.4s0.4,0.2,0.4,0.4v0.1
				C563.4,318.5,563.2,318.6,563,318.6z M563,279.1c-0.2,0-0.4-0.2-0.4-0.4v-0.1c0-0.2,0.2-0.4,0.4-0.4s0.4,0.2,0.4,0.4v0.1
				C563.4,278.9,563.2,279.1,563,279.1z M563,239.6c-0.2,0-0.4-0.2-0.4-0.4v-0.1c0-0.2,0.2-0.4,0.4-0.4s0.4,0.2,0.4,0.4v0.1
				C563.4,239.4,563.2,239.6,563,239.6z M563,200c-0.2,0-0.4-0.2-0.4-0.4v-0.1c0-0.2,0.2-0.4,0.4-0.4s0.4,0.2,0.4,0.4v0.1
				C563.4,199.9,563.2,200,563,200z M563,160.5c-0.2,0-0.4-0.2-0.4-0.4V160c0-0.2,0.2-0.4,0.4-0.4s0.4,0.2,0.4,0.4v0.1
				C563.4,160.3,563.2,160.5,563,160.5z M563,121c-0.2,0-0.4-0.2-0.4-0.4v-0.1c0-0.2,0.2-0.4,0.4-0.4s0.4,0.2,0.4,0.4v0.1
				C563.4,120.8,563.2,121,563,121z M563,81.4c-0.2,0-0.4-0.2-0.4-0.4V81c0-0.2,0.2-0.4,0.4-0.4s0.4,0.2,0.4,0.4v0.1
				C563.4,81.3,563.2,81.4,563,81.4z M563,41.9c-0.2,0-0.4-0.2-0.4-0.4v-0.1c0-0.2,0.2-0.4,0.4-0.4s0.4,0.2,0.4,0.4v0.1
				C563.4,41.7,563.2,41.9,563,41.9z"/>
		</g>
		<g>
			<path class="st1" d="M563,437.2c-0.2,0-0.4-0.2-0.4-0.4s0.2-0.4,0.4-0.4s0.4,0.1,0.4,0.4v0C563.4,437,563.2,437.2,563,437.2z"/>
		</g>
	</g>
	<g>
		<rect x="600.2" y="-0.1" class="st0" width="0.2" height="434.9"/>
	</g>
	<g>
		<g>
			<path class="st1" d="M600.3,2.4c-0.2,0-0.4-0.2-0.4-0.4s0.2-0.4,0.4-0.4s0.4,0.1,0.4,0.3V2C600.7,2.2,600.5,2.4,600.3,2.4z"/>
		</g>
		<g>
			<path class="st1" d="M600.3,397.7c-0.2,0-0.4-0.2-0.4-0.4v-0.1c0-0.2,0.2-0.4,0.4-0.4s0.4,0.2,0.4,0.4v0.1
				C600.7,397.5,600.5,397.7,600.3,397.7z M600.3,358.2c-0.2,0-0.4-0.2-0.4-0.4v-0.1c0-0.2,0.2-0.4,0.4-0.4s0.4,0.2,0.4,0.4v0.1
				C600.7,358,600.5,358.2,600.3,358.2z M600.3,318.6c-0.2,0-0.4-0.2-0.4-0.4v-0.1c0-0.2,0.2-0.4,0.4-0.4s0.4,0.2,0.4,0.4v0.1
				C600.7,318.5,600.5,318.6,600.3,318.6z M600.3,279.1c-0.2,0-0.4-0.2-0.4-0.4v-0.1c0-0.2,0.2-0.4,0.4-0.4s0.4,0.2,0.4,0.4v0.1
				C600.7,278.9,600.5,279.1,600.3,279.1z M600.3,239.6c-0.2,0-0.4-0.2-0.4-0.4v-0.1c0-0.2,0.2-0.4,0.4-0.4s0.4,0.2,0.4,0.4v0.1
				C600.7,239.4,600.5,239.6,600.3,239.6z M600.3,200c-0.2,0-0.4-0.2-0.4-0.4v-0.1c0-0.2,0.2-0.4,0.4-0.4s0.4,0.2,0.4,0.4v0.1
				C600.7,199.9,600.5,200,600.3,200z M600.3,160.5c-0.2,0-0.4-0.2-0.4-0.4V160c0-0.2,0.2-0.4,0.4-0.4s0.4,0.2,0.4,0.4v0.1
				C600.7,160.3,600.5,160.5,600.3,160.5z M600.3,121c-0.2,0-0.4-0.2-0.4-0.4v-0.1c0-0.2,0.2-0.4,0.4-0.4s0.4,0.2,0.4,0.4v0.1
				C600.7,120.8,600.5,121,600.3,121z M600.3,81.4c-0.2,0-0.4-0.2-0.4-0.4V81c0-0.2,0.2-0.4,0.4-0.4s0.4,0.2,0.4,0.4v0.1
				C600.7,81.3,600.5,81.4,600.3,81.4z M600.3,41.9c-0.2,0-0.4-0.2-0.4-0.4v-0.1c0-0.2,0.2-0.4,0.4-0.4s0.4,0.2,0.4,0.4v0.1
				C600.7,41.7,600.5,41.9,600.3,41.9z"/>
		</g>
		<g>
			<path class="st1" d="M600.3,437.2c-0.2,0-0.4-0.2-0.4-0.4s0.2-0.4,0.4-0.4s0.4,0.1,0.4,0.4v0C600.7,437,600.5,437.2,600.3,437.2z
				"/>
		</g>
	</g>
	<g>
		<rect x="637.7" y="-0.1" class="st0" width="0.2" height="434.9"/>
	</g>
	<g>
		<g>
			<path class="st1" d="M637.8,2.4c-0.2,0-0.4-0.2-0.4-0.4s0.2-0.4,0.4-0.4s0.4,0.1,0.4,0.3V2C638.2,2.2,638,2.4,637.8,2.4z"/>
		</g>
		<g>
			<path class="st1" d="M637.8,397.7c-0.2,0-0.4-0.2-0.4-0.4v-0.1c0-0.2,0.2-0.4,0.4-0.4s0.4,0.2,0.4,0.4v0.1
				C638.2,397.5,638,397.7,637.8,397.7z M637.8,358.2c-0.2,0-0.4-0.2-0.4-0.4v-0.1c0-0.2,0.2-0.4,0.4-0.4s0.4,0.2,0.4,0.4v0.1
				C638.2,358,638,358.2,637.8,358.2z M637.8,318.6c-0.2,0-0.4-0.2-0.4-0.4v-0.1c0-0.2,0.2-0.4,0.4-0.4s0.4,0.2,0.4,0.4v0.1
				C638.2,318.5,638,318.6,637.8,318.6z M637.8,279.1c-0.2,0-0.4-0.2-0.4-0.4v-0.1c0-0.2,0.2-0.4,0.4-0.4s0.4,0.2,0.4,0.4v0.1
				C638.2,278.9,638,279.1,637.8,279.1z M637.8,239.6c-0.2,0-0.4-0.2-0.4-0.4v-0.1c0-0.2,0.2-0.4,0.4-0.4s0.4,0.2,0.4,0.4v0.1
				C638.2,239.4,638,239.6,637.8,239.6z M637.8,200c-0.2,0-0.4-0.2-0.4-0.4v-0.1c0-0.2,0.2-0.4,0.4-0.4s0.4,0.2,0.4,0.4v0.1
				C638.2,199.9,638,200,637.8,200z M637.8,160.5c-0.2,0-0.4-0.2-0.4-0.4V160c0-0.2,0.2-0.4,0.4-0.4s0.4,0.2,0.4,0.4v0.1
				C638.2,160.3,638,160.5,637.8,160.5z M637.8,121c-0.2,0-0.4-0.2-0.4-0.4v-0.1c0-0.2,0.2-0.4,0.4-0.4s0.4,0.2,0.4,0.4v0.1
				C638.2,120.8,638,121,637.8,121z M637.8,81.4c-0.2,0-0.4-0.2-0.4-0.4V81c0-0.2,0.2-0.4,0.4-0.4s0.4,0.2,0.4,0.4v0.1
				C638.2,81.3,638,81.4,637.8,81.4z M637.8,41.9c-0.2,0-0.4-0.2-0.4-0.4v-0.1c0-0.2,0.2-0.4,0.4-0.4s0.4,0.2,0.4,0.4v0.1
				C638.2,41.7,638,41.9,637.8,41.9z"/>
		</g>
		<g>
			<path class="st1" d="M637.8,437.2c-0.2,0-0.4-0.2-0.4-0.4s0.2-0.4,0.4-0.4s0.4,0.1,0.4,0.4v0C638.2,437,638,437.2,637.8,437.2z"
				/>
		</g>
	</g>
	<g>
		<rect x="675.2" y="-0.1" class="st0" width="0.2" height="434.9"/>
	</g>
	<g>
		<g>
			<path class="st1" d="M675.3,2.4c-0.2,0-0.4-0.2-0.4-0.4s0.2-0.4,0.4-0.4s0.4,0.1,0.4,0.3V2C675.7,2.2,675.5,2.4,675.3,2.4z"/>
		</g>
		<g>
			<path class="st1" d="M675.3,397.7c-0.2,0-0.4-0.2-0.4-0.4v-0.1c0-0.2,0.2-0.4,0.4-0.4s0.4,0.2,0.4,0.4v0.1
				C675.7,397.5,675.5,397.7,675.3,397.7z M675.3,358.2c-0.2,0-0.4-0.2-0.4-0.4v-0.1c0-0.2,0.2-0.4,0.4-0.4s0.4,0.2,0.4,0.4v0.1
				C675.7,358,675.5,358.2,675.3,358.2z M675.3,318.6c-0.2,0-0.4-0.2-0.4-0.4v-0.1c0-0.2,0.2-0.4,0.4-0.4s0.4,0.2,0.4,0.4v0.1
				C675.7,318.5,675.5,318.6,675.3,318.6z M675.3,279.1c-0.2,0-0.4-0.2-0.4-0.4v-0.1c0-0.2,0.2-0.4,0.4-0.4s0.4,0.2,0.4,0.4v0.1
				C675.7,278.9,675.5,279.1,675.3,279.1z M675.3,239.6c-0.2,0-0.4-0.2-0.4-0.4v-0.1c0-0.2,0.2-0.4,0.4-0.4s0.4,0.2,0.4,0.4v0.1
				C675.7,239.4,675.5,239.6,675.3,239.6z M675.3,200c-0.2,0-0.4-0.2-0.4-0.4v-0.1c0-0.2,0.2-0.4,0.4-0.4s0.4,0.2,0.4,0.4v0.1
				C675.7,199.9,675.5,200,675.3,200z M675.3,160.5c-0.2,0-0.4-0.2-0.4-0.4V160c0-0.2,0.2-0.4,0.4-0.4s0.4,0.2,0.4,0.4v0.1
				C675.7,160.3,675.5,160.5,675.3,160.5z M675.3,121c-0.2,0-0.4-0.2-0.4-0.4v-0.1c0-0.2,0.2-0.4,0.4-0.4s0.4,0.2,0.4,0.4v0.1
				C675.7,120.8,675.5,121,675.3,121z M675.3,81.4c-0.2,0-0.4-0.2-0.4-0.4V81c0-0.2,0.2-0.4,0.4-0.4s0.4,0.2,0.4,0.4v0.1
				C675.7,81.3,675.5,81.4,675.3,81.4z M675.3,41.9c-0.2,0-0.4-0.2-0.4-0.4v-0.1c0-0.2,0.2-0.4,0.4-0.4s0.4,0.2,0.4,0.4v0.1
				C675.7,41.7,675.5,41.9,675.3,41.9z"/>
		</g>
		<g>
			<path class="st1" d="M675.3,437.2c-0.2,0-0.4-0.2-0.4-0.4s0.2-0.4,0.4-0.4s0.4,0.1,0.4,0.4v0C675.7,437,675.5,437.2,675.3,437.2z
				"/>
		</g>
	</g>
	<g>
		<rect x="712.5" y="-0.1" class="st0" width="0.2" height="434.9"/>
	</g>
	<g>
		<g>
			<path class="st1" d="M712.6,2.4c-0.2,0-0.4-0.2-0.4-0.4s0.2-0.4,0.4-0.4s0.4,0.1,0.4,0.3V2C713,2.2,712.9,2.4,712.6,2.4z"/>
		</g>
		<g>
			<path class="st1" d="M712.6,397.7c-0.2,0-0.4-0.2-0.4-0.4v-0.1c0-0.2,0.2-0.4,0.4-0.4s0.4,0.2,0.4,0.4v0.1
				C713,397.5,712.9,397.7,712.6,397.7z M712.6,358.2c-0.2,0-0.4-0.2-0.4-0.4v-0.1c0-0.2,0.2-0.4,0.4-0.4s0.4,0.2,0.4,0.4v0.1
				C713,358,712.9,358.2,712.6,358.2z M712.6,318.6c-0.2,0-0.4-0.2-0.4-0.4v-0.1c0-0.2,0.2-0.4,0.4-0.4s0.4,0.2,0.4,0.4v0.1
				C713,318.5,712.9,318.6,712.6,318.6z M712.6,279.1c-0.2,0-0.4-0.2-0.4-0.4v-0.1c0-0.2,0.2-0.4,0.4-0.4s0.4,0.2,0.4,0.4v0.1
				C713,278.9,712.9,279.1,712.6,279.1z M712.6,239.6c-0.2,0-0.4-0.2-0.4-0.4v-0.1c0-0.2,0.2-0.4,0.4-0.4s0.4,0.2,0.4,0.4v0.1
				C713,239.4,712.9,239.6,712.6,239.6z M712.6,200c-0.2,0-0.4-0.2-0.4-0.4v-0.1c0-0.2,0.2-0.4,0.4-0.4s0.4,0.2,0.4,0.4v0.1
				C713,199.9,712.9,200,712.6,200z M712.6,160.5c-0.2,0-0.4-0.2-0.4-0.4V160c0-0.2,0.2-0.4,0.4-0.4s0.4,0.2,0.4,0.4v0.1
				C713,160.3,712.9,160.5,712.6,160.5z M712.6,121c-0.2,0-0.4-0.2-0.4-0.4v-0.1c0-0.2,0.2-0.4,0.4-0.4s0.4,0.2,0.4,0.4v0.1
				C713,120.8,712.9,121,712.6,121z M712.6,81.4c-0.2,0-0.4-0.2-0.4-0.4V81c0-0.2,0.2-0.4,0.4-0.4s0.4,0.2,0.4,0.4v0.1
				C713,81.3,712.9,81.4,712.6,81.4z M712.6,41.9c-0.2,0-0.4-0.2-0.4-0.4v-0.1c0-0.2,0.2-0.4,0.4-0.4s0.4,0.2,0.4,0.4v0.1
				C713,41.7,712.9,41.9,712.6,41.9z"/>
		</g>
		<g>
			<path class="st1" d="M712.6,437.2c-0.2,0-0.4-0.2-0.4-0.4s0.2-0.4,0.4-0.4s0.4,0.1,0.4,0.4v0C713,437,712.9,437.2,712.6,437.2z"
				/>
		</g>
	</g>
	<g>
		<rect x="749.5" y="-0.1" class="st0" width="0.2" height="434.9"/>
	</g>
	<g>
		<g>
			<path class="st1" d="M749.6,2.4c-0.2,0-0.4-0.2-0.4-0.4s0.2-0.4,0.4-0.4s0.4,0.1,0.4,0.3V2C750,2.2,749.8,2.4,749.6,2.4z"/>
		</g>
		<g>
			<path class="st1" d="M749.6,397.7c-0.2,0-0.4-0.2-0.4-0.4v-0.1c0-0.2,0.2-0.4,0.4-0.4s0.4,0.2,0.4,0.4v0.1
				C750,397.5,749.8,397.7,749.6,397.7z M749.6,358.2c-0.2,0-0.4-0.2-0.4-0.4v-0.1c0-0.2,0.2-0.4,0.4-0.4s0.4,0.2,0.4,0.4v0.1
				C750,358,749.8,358.2,749.6,358.2z M749.6,318.6c-0.2,0-0.4-0.2-0.4-0.4v-0.1c0-0.2,0.2-0.4,0.4-0.4s0.4,0.2,0.4,0.4v0.1
				C750,318.5,749.8,318.6,749.6,318.6z M749.6,279.1c-0.2,0-0.4-0.2-0.4-0.4v-0.1c0-0.2,0.2-0.4,0.4-0.4s0.4,0.2,0.4,0.4v0.1
				C750,278.9,749.8,279.1,749.6,279.1z M749.6,239.6c-0.2,0-0.4-0.2-0.4-0.4v-0.1c0-0.2,0.2-0.4,0.4-0.4s0.4,0.2,0.4,0.4v0.1
				C750,239.4,749.8,239.6,749.6,239.6z M749.6,200c-0.2,0-0.4-0.2-0.4-0.4v-0.1c0-0.2,0.2-0.4,0.4-0.4s0.4,0.2,0.4,0.4v0.1
				C750,199.9,749.8,200,749.6,200z M749.6,160.5c-0.2,0-0.4-0.2-0.4-0.4V160c0-0.2,0.2-0.4,0.4-0.4s0.4,0.2,0.4,0.4v0.1
				C750,160.3,749.8,160.5,749.6,160.5z M749.6,121c-0.2,0-0.4-0.2-0.4-0.4v-0.1c0-0.2,0.2-0.4,0.4-0.4s0.4,0.2,0.4,0.4v0.1
				C750,120.8,749.8,121,749.6,121z M749.6,81.4c-0.2,0-0.4-0.2-0.4-0.4V81c0-0.2,0.2-0.4,0.4-0.4s0.4,0.2,0.4,0.4v0.1
				C750,81.3,749.8,81.4,749.6,81.4z M749.6,41.9c-0.2,0-0.4-0.2-0.4-0.4v-0.1c0-0.2,0.2-0.4,0.4-0.4s0.4,0.2,0.4,0.4v0.1
				C750,41.7,749.8,41.9,749.6,41.9z"/>
		</g>
		<g>
			<path class="st1" d="M749.6,437.2c-0.2,0-0.4-0.2-0.4-0.4s0.2-0.4,0.4-0.4s0.4,0.1,0.4,0.4v0C750,437,749.8,437.2,749.6,437.2z"
				/>
		</g>
	</g>
	<g>
		<rect x="787.4" y="-0.1" class="st0" width="0.2" height="434.9"/>
	</g>
	<g>
		<g>
			<path class="st1" d="M787.6,2.4c-0.2,0-0.4-0.2-0.4-0.4s0.2-0.4,0.4-0.4s0.4,0.1,0.4,0.3V2C787.9,2.2,787.8,2.4,787.6,2.4z"/>
		</g>
		<g>
			<path class="st1" d="M787.6,397.7c-0.2,0-0.4-0.2-0.4-0.4v-0.1c0-0.2,0.2-0.4,0.4-0.4s0.4,0.2,0.4,0.4v0.1
				C787.9,397.5,787.8,397.7,787.6,397.7z M787.6,358.2c-0.2,0-0.4-0.2-0.4-0.4v-0.1c0-0.2,0.2-0.4,0.4-0.4s0.4,0.2,0.4,0.4v0.1
				C787.9,358,787.8,358.2,787.6,358.2z M787.6,318.6c-0.2,0-0.4-0.2-0.4-0.4v-0.1c0-0.2,0.2-0.4,0.4-0.4s0.4,0.2,0.4,0.4v0.1
				C787.9,318.5,787.8,318.6,787.6,318.6z M787.6,279.1c-0.2,0-0.4-0.2-0.4-0.4v-0.1c0-0.2,0.2-0.4,0.4-0.4s0.4,0.2,0.4,0.4v0.1
				C787.9,278.9,787.8,279.1,787.6,279.1z M787.6,239.6c-0.2,0-0.4-0.2-0.4-0.4v-0.1c0-0.2,0.2-0.4,0.4-0.4s0.4,0.2,0.4,0.4v0.1
				C787.9,239.4,787.8,239.6,787.6,239.6z M787.6,200c-0.2,0-0.4-0.2-0.4-0.4v-0.1c0-0.2,0.2-0.4,0.4-0.4s0.4,0.2,0.4,0.4v0.1
				C787.9,199.9,787.8,200,787.6,200z M787.6,160.5c-0.2,0-0.4-0.2-0.4-0.4V160c0-0.2,0.2-0.4,0.4-0.4s0.4,0.2,0.4,0.4v0.1
				C787.9,160.3,787.8,160.5,787.6,160.5z M787.6,121c-0.2,0-0.4-0.2-0.4-0.4v-0.1c0-0.2,0.2-0.4,0.4-0.4s0.4,0.2,0.4,0.4v0.1
				C787.9,120.8,787.8,121,787.6,121z M787.6,81.4c-0.2,0-0.4-0.2-0.4-0.4V81c0-0.2,0.2-0.4,0.4-0.4s0.4,0.2,0.4,0.4v0.1
				C787.9,81.3,787.8,81.4,787.6,81.4z M787.6,41.9c-0.2,0-0.4-0.2-0.4-0.4v-0.1c0-0.2,0.2-0.4,0.4-0.4s0.4,0.2,0.4,0.4v0.1
				C787.9,41.7,787.8,41.9,787.6,41.9z"/>
		</g>
		<g>
			<path class="st1" d="M787.6,437.2c-0.2,0-0.4-0.2-0.4-0.4s0.2-0.4,0.4-0.4s0.4,0.1,0.4,0.4v0C787.9,437,787.8,437.2,787.6,437.2z
				"/>
		</g>
	</g>
	<g>
		<rect x="824.9" y="-0.1" class="st0" width="0.2" height="434.9"/>
	</g>
	<g>
		<g>
			<path class="st1" d="M825,2.4c-0.2,0-0.4-0.2-0.4-0.4s0.2-0.4,0.4-0.4s0.4,0.1,0.4,0.3V2C825.4,2.2,825.2,2.4,825,2.4z"/>
		</g>
		<g>
			<path class="st1" d="M825,397.7c-0.2,0-0.4-0.2-0.4-0.4v-0.1c0-0.2,0.2-0.4,0.4-0.4s0.4,0.2,0.4,0.4v0.1
				C825.4,397.5,825.2,397.7,825,397.7z M825,358.2c-0.2,0-0.4-0.2-0.4-0.4v-0.1c0-0.2,0.2-0.4,0.4-0.4s0.4,0.2,0.4,0.4v0.1
				C825.4,358,825.2,358.2,825,358.2z M825,318.6c-0.2,0-0.4-0.2-0.4-0.4v-0.1c0-0.2,0.2-0.4,0.4-0.4s0.4,0.2,0.4,0.4v0.1
				C825.4,318.5,825.2,318.6,825,318.6z M825,279.1c-0.2,0-0.4-0.2-0.4-0.4v-0.1c0-0.2,0.2-0.4,0.4-0.4s0.4,0.2,0.4,0.4v0.1
				C825.4,278.9,825.2,279.1,825,279.1z M825,239.6c-0.2,0-0.4-0.2-0.4-0.4v-0.1c0-0.2,0.2-0.4,0.4-0.4s0.4,0.2,0.4,0.4v0.1
				C825.4,239.4,825.2,239.6,825,239.6z M825,200c-0.2,0-0.4-0.2-0.4-0.4v-0.1c0-0.2,0.2-0.4,0.4-0.4s0.4,0.2,0.4,0.4v0.1
				C825.4,199.9,825.2,200,825,200z M825,160.5c-0.2,0-0.4-0.2-0.4-0.4V160c0-0.2,0.2-0.4,0.4-0.4s0.4,0.2,0.4,0.4v0.1
				C825.4,160.3,825.2,160.5,825,160.5z M825,121c-0.2,0-0.4-0.2-0.4-0.4v-0.1c0-0.2,0.2-0.4,0.4-0.4s0.4,0.2,0.4,0.4v0.1
				C825.4,120.8,825.2,121,825,121z M825,81.4c-0.2,0-0.4-0.2-0.4-0.4V81c0-0.2,0.2-0.4,0.4-0.4s0.4,0.2,0.4,0.4v0.1
				C825.4,81.3,825.2,81.4,825,81.4z M825,41.9c-0.2,0-0.4-0.2-0.4-0.4v-0.1c0-0.2,0.2-0.4,0.4-0.4s0.4,0.2,0.4,0.4v0.1
				C825.4,41.7,825.2,41.9,825,41.9z"/>
		</g>
		<g>
			<path class="st1" d="M825,437.2c-0.2,0-0.4-0.2-0.4-0.4s0.2-0.4,0.4-0.4s0.4,0.1,0.4,0.4v0C825.4,437,825.2,437.2,825,437.2z"/>
		</g>
	</g>
	<g>
		<rect x="450.6" y="-0.1" class="st0" width="0.2" height="434.9"/>
	</g>
	<g>
		<g>
			<path class="st1" d="M450.7,2.4c-0.2,0-0.4-0.2-0.4-0.4s0.2-0.4,0.4-0.4s0.4,0.1,0.4,0.3V2C451.1,2.2,450.9,2.4,450.7,2.4z"/>
		</g>
		<g>
			<path class="st1" d="M450.7,397.7c-0.2,0-0.4-0.2-0.4-0.4v-0.1c0-0.2,0.2-0.4,0.4-0.4s0.4,0.2,0.4,0.4v0.1
				C451.1,397.5,450.9,397.7,450.7,397.7z M450.7,358.2c-0.2,0-0.4-0.2-0.4-0.4v-0.1c0-0.2,0.2-0.4,0.4-0.4s0.4,0.2,0.4,0.4v0.1
				C451.1,358,450.9,358.2,450.7,358.2z M450.7,318.6c-0.2,0-0.4-0.2-0.4-0.4v-0.1c0-0.2,0.2-0.4,0.4-0.4s0.4,0.2,0.4,0.4v0.1
				C451.1,318.5,450.9,318.6,450.7,318.6z M450.7,279.1c-0.2,0-0.4-0.2-0.4-0.4v-0.1c0-0.2,0.2-0.4,0.4-0.4s0.4,0.2,0.4,0.4v0.1
				C451.1,278.9,450.9,279.1,450.7,279.1z M450.7,239.6c-0.2,0-0.4-0.2-0.4-0.4v-0.1c0-0.2,0.2-0.4,0.4-0.4s0.4,0.2,0.4,0.4v0.1
				C451.1,239.4,450.9,239.6,450.7,239.6z M450.7,200c-0.2,0-0.4-0.2-0.4-0.4v-0.1c0-0.2,0.2-0.4,0.4-0.4s0.4,0.2,0.4,0.4v0.1
				C451.1,199.9,450.9,200,450.7,200z M450.7,160.5c-0.2,0-0.4-0.2-0.4-0.4V160c0-0.2,0.2-0.4,0.4-0.4s0.4,0.2,0.4,0.4v0.1
				C451.1,160.3,450.9,160.5,450.7,160.5z M450.7,121c-0.2,0-0.4-0.2-0.4-0.4v-0.1c0-0.2,0.2-0.4,0.4-0.4s0.4,0.2,0.4,0.4v0.1
				C451.1,120.8,450.9,121,450.7,121z M450.7,81.4c-0.2,0-0.4-0.2-0.4-0.4V81c0-0.2,0.2-0.4,0.4-0.4s0.4,0.2,0.4,0.4v0.1
				C451.1,81.3,450.9,81.4,450.7,81.4z M450.7,41.9c-0.2,0-0.4-0.2-0.4-0.4v-0.1c0-0.2,0.2-0.4,0.4-0.4s0.4,0.2,0.4,0.4v0.1
				C451.1,41.7,450.9,41.9,450.7,41.9z"/>
		</g>
		<g>
			<path class="st1" d="M450.7,437.2c-0.2,0-0.4-0.2-0.4-0.4s0.2-0.4,0.4-0.4s0.4,0.1,0.4,0.4v0C451.1,437,450.9,437.2,450.7,437.2z
				"/>
		</g>
	</g>
</g>
<linearGradient id="SVGID_1_" gradientUnits="userSpaceOnUse" x1="431.4" y1="124.4" x2="431.4" y2="-0.1215">
	<stop  offset="0" style="stop-color:#FFFFFF;stop-opacity:0"/>
	<stop  offset="1" style="stop-color:#FFFFFF"/>
</linearGradient>
<rect y="-0.1" class="st2" width="862.8" height="124.5"/>
<linearGradient id="SVGID_2_" gradientUnits="userSpaceOnUse" x1="431.4" y1="526.6729" x2="431.4" y2="391.918" gradientTransform="matrix(-1 0 0 -1 862.8 830.9062)">
	<stop  offset="0" style="stop-color:#FFFFFF;stop-opacity:0"/>
	<stop  offset="1" style="stop-color:#FFFFFF"/>
</linearGradient>
<polygon class="st3" points="0,304.2 862.8,304.2 862.8,439 0,439 "/>
<g>
	<path class="st4" d="M423.2,196.1c-0.3,0-0.5-0.2-0.5-0.5V88.5c0-3,2.5-5.5,5.5-5.5h94.3c0.3,0,0.5,0.2,0.5,0.5s-0.2,0.5-0.5,0.5
		h-94.3c-2.5,0-4.5,2-4.5,4.5v107.1C423.7,195.8,423.5,196.1,423.2,196.1z"/>
</g>
<g>
	<path class="st4" d="M707.5,333.5H562.6c-0.3,0-0.5-0.2-0.5-0.5s0.2-0.5,0.5-0.5h144.9c2.5,0,4.5-2,4.5-4.5V100.9
		c0-2.5-2-4.5-4.5-4.5h-128c-0.3,0-0.5-0.2-0.5-0.5s0.2-0.5,0.5-0.5h128c3,0,5.5,2.5,5.5,5.5V328C713,331,710.5,333.5,707.5,333.5z"
		/>
</g>
<g>
	<path class="st4" d="M733.8,390.7H380c-3,0-5.5-2.5-5.5-5.5V237.1c0-0.3,0.2-0.5,0.5-0.5s0.5,0.2,0.5,0.5v148.1
		c0,2.5,2,4.5,4.5,4.5h353.8c2.5,0,4.5-2,4.5-4.5v-309c0-2.5-2-4.5-4.5-4.5H582.5c-0.3,0-0.5-0.2-0.5-0.5c0-0.3,0.2-0.5,0.5-0.5
		h151.3c3,0,5.5,2.5,5.5,5.5v309C739.3,388.2,736.8,390.7,733.8,390.7z"/>
</g>
<g>
	<path class="st4" d="M586.9,309.2c-0.3,0-0.5-0.2-0.5-0.5V265c0-0.3,0.2-0.5,0.5-0.5s0.5,0.2,0.5,0.5v43.8
		C587.4,309,587.2,309.2,586.9,309.2z"/>
</g>
<g>
	<path class="st4" d="M373.7,338.3c-0.3,0-0.5-0.2-0.5-0.5l-0.2-25c0-0.3,0.2-0.5,0.5-0.5c0,0,0,0,0,0c0.3,0,0.5,0.2,0.5,0.5l0.2,25
		C374.2,338.1,374,338.3,373.7,338.3C373.7,338.3,373.7,338.3,373.7,338.3z"/>
</g>
<g>
	<path class="st4" d="M677.2,260c0,2.8-2.2,5-5,5h-80.3c-2.8,0-7.2,0-10,0h-80.3c-2.8,0-5-2.2-5-5v-30c0-2.8,2.2-5,5-5h170.6
		c2.8,0,5,2.2,5,5V260z"/>
</g>
<g>
	<path class="st4" d="M677.2,199.7c0,2.8-2.2,5-5,5H501.6c-2.8,0-5-2.2-5-5v-30c0-2.8,2.2-5,5-5h170.6c2.8,0,5,2.2,5,5V199.7z"/>
</g>
<g>
	<path class="st4" d="M434.9,230.7c0,2.8-2.2,5-5,5H320.2c-2.8,0-5-2.2-5-5v-30c0-2.8,2.2-5,5-5h109.7c2.8,0,5,2.2,5,5V230.7z"/>
</g>
<g>
	<path class="st4" d="M258,230.6c0,2.8-2.2,5-5,5H143.3c-2.8,0-5-2.2-5-5v-30c0-2.8,2.2-5,5-5H253c2.8,0,5,2.2,5,5V230.6z"/>
</g>
<g>
	<path class="st0" d="M258,170.8c0,2.8-2.2,5-5,5H143.3c-2.8,0-5-2.2-5-5v-30c0-2.8,2.2-5,5-5H253c2.8,0,5,2.2,5,5V170.8z"/>
</g>
<g>
	<rect x="162.1" y="209.5" class="st5" width="72.1" height="24.9"/>
</g>
<g class="st6">
	<path class="st4" d="M154.3,157.3h-3.6l-0.7,2.2h-1.7l3.5-9.2h1.4l3.5,9.2H155L154.3,157.3z M151.2,156h2.7l-1.3-3.8L151.2,156z"/>
	<path class="st4" d="M159.4,156v3.4h-1.6v-9.2h3.5c1,0,1.9,0.3,2.5,0.8c0.6,0.5,0.9,1.2,0.9,2.1c0,0.9-0.3,1.6-0.9,2.1
		c-0.6,0.5-1.4,0.8-2.5,0.8H159.4z M159.4,154.7h1.9c0.6,0,1-0.1,1.3-0.4s0.5-0.7,0.5-1.2c0-0.5-0.2-0.9-0.5-1.2
		c-0.3-0.3-0.7-0.5-1.3-0.5h-2V154.7z"/>
	<path class="st4" d="M167.8,159.5h-1.6v-9.2h1.6V159.5z"/>
	<path class="st4" d="M175.7,158.4c0.4,0,0.7-0.1,1-0.3c0.3-0.2,0.4-0.5,0.4-0.8h1.5c0,0.4-0.2,0.8-0.4,1.2s-0.6,0.7-1,0.9
		c-0.4,0.2-0.9,0.3-1.4,0.3c-1,0-1.7-0.3-2.3-0.9c-0.6-0.6-0.8-1.5-0.8-2.6v-0.2c0-1,0.3-1.9,0.8-2.5c0.6-0.6,1.3-0.9,2.3-0.9
		c0.8,0,1.5,0.2,2,0.7c0.5,0.5,0.8,1.1,0.8,1.9H177c0-0.4-0.2-0.7-0.4-1c-0.3-0.3-0.6-0.4-1-0.4c-0.5,0-0.9,0.2-1.2,0.5
		c-0.3,0.4-0.4,0.9-0.4,1.6v0.2c0,0.7,0.1,1.3,0.4,1.7C174.8,158.2,175.1,158.4,175.7,158.4z"/>
	<path class="st4" d="M183.7,159.5c-0.1-0.1-0.1-0.3-0.2-0.6c-0.5,0.5-1.1,0.8-1.8,0.8c-0.7,0-1.3-0.2-1.7-0.6
		c-0.4-0.4-0.7-0.9-0.7-1.5c0-0.7,0.3-1.3,0.8-1.7c0.5-0.4,1.3-0.6,2.3-0.6h0.9v-0.5c0-0.4-0.1-0.6-0.3-0.9s-0.5-0.3-0.9-0.3
		c-0.4,0-0.6,0.1-0.9,0.3s-0.3,0.4-0.3,0.7h-1.5c0-0.4,0.1-0.7,0.4-1.1s0.6-0.6,1-0.8c0.4-0.2,0.9-0.3,1.4-0.3
		c0.8,0,1.4,0.2,1.9,0.6s0.7,1,0.7,1.7v3.1c0,0.6,0.1,1.1,0.3,1.5v0.1H183.7z M182,158.4c0.3,0,0.6-0.1,0.9-0.2
		c0.3-0.1,0.5-0.3,0.6-0.6v-1.3h-0.8c-0.6,0-1,0.1-1.3,0.3c-0.3,0.2-0.4,0.5-0.4,0.8c0,0.3,0.1,0.5,0.3,0.7
		C181.5,158.3,181.7,158.4,182,158.4z"/>
	<path class="st4" d="M188.3,159.5h-1.5v-9.8h1.5V159.5z"/>
	<path class="st4" d="M191.6,159.5h-1.5v-9.8h1.5V159.5z"/>
	<path class="st4" d="M197.2,157.6c0-0.3-0.1-0.5-0.3-0.6c-0.2-0.1-0.6-0.3-1.1-0.4c-0.5-0.1-1-0.2-1.3-0.4
		c-0.8-0.4-1.2-0.9-1.2-1.6c0-0.6,0.2-1.1,0.7-1.5s1.1-0.6,1.9-0.6c0.8,0,1.5,0.2,2,0.6c0.5,0.4,0.8,0.9,0.8,1.6h-1.5
		c0-0.3-0.1-0.5-0.3-0.7c-0.2-0.2-0.5-0.3-0.9-0.3c-0.3,0-0.6,0.1-0.8,0.2c-0.2,0.2-0.3,0.4-0.3,0.6c0,0.2,0.1,0.4,0.3,0.6
		c0.2,0.1,0.6,0.3,1.2,0.4c0.6,0.1,1.1,0.3,1.4,0.5c0.3,0.2,0.6,0.4,0.8,0.7c0.2,0.3,0.3,0.6,0.3,0.9c0,0.6-0.3,1.1-0.8,1.5
		s-1.2,0.6-2,0.6c-0.6,0-1.1-0.1-1.5-0.3s-0.8-0.5-1-0.8s-0.4-0.7-0.4-1.1h1.5c0,0.4,0.2,0.6,0.4,0.8c0.3,0.2,0.6,0.3,1,0.3
		c0.4,0,0.7-0.1,0.9-0.2S197.2,157.9,197.2,157.6z"/>
</g>
<g>
	<rect x="162.1" y="271.4" class="st5" width="72.1" height="24.2"/>
</g>
<g>
	<path class="st7" d="M214,211.8v6.3c0,0.6-0.1,1.2-0.4,1.6s-0.7,0.8-1.1,1.1c-0.5,0.2-1.1,0.4-1.7,0.4c-1,0-1.8-0.3-2.3-0.8
		c-0.6-0.5-0.9-1.3-0.9-2.2v-6.4h0.8v6.3c0,0.8,0.2,1.4,0.7,1.8s1,0.6,1.8,0.6s1.4-0.2,1.8-0.6c0.4-0.4,0.7-1,0.7-1.8v-6.3H214z"/>
	<path class="st7" d="M217.2,221.1h-0.8v-9.2h0.8V221.1z"/>
</g>
<g>
	<circle class="st7" cx="563.4" cy="83.5" r="40.9"/>
	<path class="st8" d="M563.4,124.9c-22.8,0-41.4-18.6-41.4-41.4s18.6-41.4,41.4-41.4s41.4,18.6,41.4,41.4S586.2,124.9,563.4,124.9z
		 M563.4,43.1c-22.3,0-40.4,18.1-40.4,40.4s18.1,40.4,40.4,40.4s40.4-18.1,40.4-40.4S585.7,43.1,563.4,43.1z"/>
</g>
<g class="st6">
	<path class="st4" d="M542.5,96.8v-8.4h2.9c1,0,1.7,0.2,2.2,0.6c0.5,0.4,0.7,0.9,0.7,1.7c0,0.4-0.1,0.7-0.3,1
		c-0.2,0.3-0.5,0.5-0.9,0.7c0.5,0.1,0.8,0.4,1.1,0.7s0.4,0.8,0.4,1.2c0,0.8-0.3,1.4-0.8,1.8c-0.5,0.4-1.2,0.6-2.2,0.6H542.5z
		 M544,91.9h1.4c0.5,0,0.8-0.1,1.1-0.3s0.4-0.5,0.4-0.9c0-0.4-0.1-0.7-0.4-0.9c-0.2-0.2-0.6-0.3-1.1-0.3H544V91.9z M544,93v2.6h1.6
		c0.5,0,0.8-0.1,1.1-0.3c0.3-0.2,0.4-0.5,0.4-0.9c0-0.9-0.4-1.3-1.3-1.3H544z"/>
	<path class="st4" d="M549.8,88.9c0-0.2,0.1-0.4,0.2-0.5s0.3-0.2,0.6-0.2c0.3,0,0.5,0.1,0.6,0.2c0.1,0.1,0.2,0.3,0.2,0.5
		c0,0.2-0.1,0.4-0.2,0.5c-0.1,0.1-0.3,0.2-0.6,0.2c-0.3,0-0.4-0.1-0.6-0.2S549.8,89.1,549.8,88.9z M551.3,96.8h-1.4v-6.2h1.4V96.8z"
		/>
	<path class="st4" d="M552.6,93.6c0-1,0.2-1.7,0.7-2.3c0.5-0.6,1.1-0.9,1.8-0.9c0.7,0,1.3,0.2,1.7,0.7l0.1-0.6h1.3v6.1
		c0,0.8-0.3,1.5-0.8,1.9c-0.5,0.5-1.2,0.7-2.1,0.7c-0.5,0-0.9-0.1-1.3-0.3c-0.4-0.2-0.8-0.4-1-0.7l0.7-0.8c0.4,0.5,1,0.8,1.6,0.8
		c0.5,0,0.8-0.1,1.1-0.4c0.3-0.3,0.4-0.6,0.4-1.1v-0.4c-0.4,0.5-0.9,0.7-1.6,0.7c-0.7,0-1.3-0.3-1.8-0.9
		C552.8,95.5,552.6,94.7,552.6,93.6z M554,93.7c0,0.6,0.1,1.1,0.4,1.5c0.3,0.4,0.6,0.5,1.1,0.5c0.6,0,1-0.2,1.3-0.7v-2.7
		c-0.3-0.5-0.7-0.7-1.2-0.7c-0.5,0-0.8,0.2-1.1,0.5C554.1,92.5,554,93,554,93.7z"/>
	<path class="st4" d="M562.2,93.6c0-1,0.2-1.7,0.7-2.3c0.4-0.6,1-0.9,1.8-0.9c0.7,0,1.2,0.2,1.6,0.7v-3.2h1.4v8.9h-1.3l-0.1-0.6
		c-0.4,0.5-1,0.8-1.7,0.8c-0.7,0-1.3-0.3-1.8-0.9C562.5,95.4,562.2,94.6,562.2,93.6z M563.6,93.7c0,0.6,0.1,1.1,0.4,1.5
		c0.2,0.4,0.6,0.5,1,0.5c0.6,0,1-0.3,1.3-0.8v-2.7c-0.3-0.5-0.7-0.8-1.2-0.8c-0.5,0-0.8,0.2-1.1,0.5C563.8,92.5,563.6,93,563.6,93.7
		z"/>
	<path class="st4" d="M572.9,96.8c-0.1-0.1-0.1-0.3-0.2-0.6c-0.4,0.5-1,0.7-1.6,0.7c-0.6,0-1.1-0.2-1.5-0.5
		c-0.4-0.4-0.6-0.8-0.6-1.3c0-0.7,0.2-1.2,0.7-1.5c0.5-0.4,1.2-0.5,2.1-0.5h0.9v-0.4c0-0.3-0.1-0.6-0.3-0.8
		c-0.2-0.2-0.5-0.3-0.8-0.3c-0.3,0-0.6,0.1-0.8,0.2s-0.3,0.4-0.3,0.6h-1.4c0-0.3,0.1-0.7,0.3-1c0.2-0.3,0.5-0.5,0.9-0.7
		c0.4-0.2,0.8-0.3,1.3-0.3c0.7,0,1.3,0.2,1.8,0.6c0.4,0.4,0.7,0.9,0.7,1.6v2.8c0,0.6,0.1,1,0.2,1.3v0.1H572.9z M571.4,95.8
		c0.3,0,0.5-0.1,0.8-0.2s0.4-0.3,0.6-0.5v-1.2H572c-0.5,0-0.9,0.1-1.2,0.3c-0.3,0.2-0.4,0.4-0.4,0.8c0,0.3,0.1,0.5,0.3,0.6
		C570.8,95.7,571.1,95.8,571.4,95.8z"/>
	<path class="st4" d="M577.3,89v1.5h1.1v1h-1.1v3.5c0,0.2,0,0.4,0.1,0.5c0.1,0.1,0.3,0.2,0.5,0.2c0.2,0,0.3,0,0.5-0.1v1.1
		c-0.3,0.1-0.6,0.1-0.9,0.1c-1.1,0-1.6-0.6-1.6-1.8v-3.5h-1v-1h1V89H577.3z"/>
	<path class="st4" d="M583.2,96.8c-0.1-0.1-0.1-0.3-0.2-0.6c-0.4,0.5-1,0.7-1.6,0.7c-0.6,0-1.1-0.2-1.5-0.5
		c-0.4-0.4-0.6-0.8-0.6-1.3c0-0.7,0.2-1.2,0.7-1.5c0.5-0.4,1.2-0.5,2.1-0.5h0.9v-0.4c0-0.3-0.1-0.6-0.3-0.8
		c-0.2-0.2-0.5-0.3-0.8-0.3c-0.3,0-0.6,0.1-0.8,0.2s-0.3,0.4-0.3,0.6h-1.4c0-0.3,0.1-0.7,0.3-1c0.2-0.3,0.5-0.5,0.9-0.7
		c0.4-0.2,0.8-0.3,1.3-0.3c0.7,0,1.3,0.2,1.8,0.6c0.4,0.4,0.7,0.9,0.7,1.6v2.8c0,0.6,0.1,1,0.2,1.3v0.1H583.2z M581.7,95.8
		c0.3,0,0.5-0.1,0.8-0.2c0.2-0.1,0.4-0.3,0.6-0.5v-1.2h-0.8c-0.5,0-0.9,0.1-1.2,0.3c-0.3,0.2-0.4,0.4-0.4,0.8c0,0.3,0.1,0.5,0.3,0.6
		C581.2,95.7,581.4,95.8,581.7,95.8z"/>
</g>
<g>
	<path class="st7" d="M563.4,73.8c-3.2,0-5.9,1.5-5.9,3.3v3.3c0,1.8,2.7,3.3,5.9,3.3s5.9-1.5,5.9-3.3v-3.3
		C569.3,75.3,566.6,73.8,563.4,73.8z"/>
	<path class="st9" d="M563.4,84.2c-3.5,0-6.4-1.7-6.4-3.8v-3.3c0-2.1,2.9-3.8,6.4-3.8c3.5,0,6.4,1.7,6.4,3.8v3.3
		C569.8,82.5,566.9,84.2,563.4,84.2z M563.4,74.3c-2.9,0-5.4,1.3-5.4,2.8v3.3c0,1.5,2.5,2.8,5.4,2.8c2.9,0,5.4-1.3,5.4-2.8v-3.3
		C568.8,75.6,566.3,74.3,563.4,74.3z"/>
</g>
<g>
	<path class="st7" d="M563.4,70.5c-3.2,0-5.9,1.5-5.9,3.3v3.3c0,1.8,2.7,3.3,5.9,3.3s5.9-1.5,5.9-3.3v-3.3
		C569.3,72,566.6,70.5,563.4,70.5z"/>
	<path class="st9" d="M563.4,80.9c-3.5,0-6.4-1.7-6.4-3.8v-3.3c0-2.1,2.9-3.8,6.4-3.8c3.5,0,6.4,1.7,6.4,3.8v3.3
		C569.8,79.2,566.9,80.9,563.4,80.9z M563.4,71c-2.9,0-5.4,1.3-5.4,2.8v3.3c0,1.5,2.5,2.8,5.4,2.8c2.9,0,5.4-1.3,5.4-2.8v-3.3
		C568.8,72.3,566.3,71,563.4,71z"/>
</g>
<g>
	<path class="st7" d="M563.4,67.2c-3.2,0-5.9,1.5-5.9,3.3v3.3c0,1.8,2.7,3.3,5.9,3.3s5.9-1.5,5.9-3.3v-3.3
		C569.3,68.7,566.6,67.2,563.4,67.2z"/>
	<path class="st9" d="M563.4,77.6c-3.5,0-6.4-1.7-6.4-3.8v-3.3c0-2.1,2.9-3.8,6.4-3.8c3.5,0,6.4,1.7,6.4,3.8v3.3
		C569.8,75.9,566.9,77.6,563.4,77.6z M563.4,67.7c-2.9,0-5.4,1.3-5.4,2.8v3.3c0,1.5,2.5,2.8,5.4,2.8c2.9,0,5.4-1.3,5.4-2.8v-3.3
		C568.8,69,566.3,67.7,563.4,67.7z"/>
</g>
<g>
	<path class="st7" d="M557.5,70.5c0,1.8,2.7,3.3,5.9,3.3s5.9-1.5,5.9-3.3"/>
	<path class="st9" d="M563.4,74.3c-3.5,0-6.4-1.7-6.4-3.8c0-0.3,0.2-0.5,0.5-0.5s0.5,0.2,0.5,0.5c0,1.5,2.5,2.8,5.4,2.8
		c2.9,0,5.4-1.3,5.4-2.8c0-0.3,0.2-0.5,0.5-0.5s0.5,0.2,0.5,0.5C569.8,72.6,566.9,74.3,563.4,74.3z"/>
</g>
<g>
	<path class="st7" d="M511.2,210.8v6.3c0,0.6-0.1,1.2-0.4,1.6c-0.3,0.5-0.7,0.8-1.1,1.1c-0.5,0.2-1.1,0.4-1.7,0.4
		c-1,0-1.8-0.3-2.3-0.8c-0.6-0.5-0.9-1.3-0.9-2.2v-6.4h0.8v6.3c0,0.8,0.2,1.4,0.7,1.8s1,0.6,1.8,0.6s1.4-0.2,1.8-0.6
		c0.4-0.4,0.7-1,0.7-1.8v-6.3H511.2z"/>
	<path class="st7" d="M514.4,220.1h-0.8v-9.2h0.8V220.1z"/>
</g>
<g>
	<path class="st7" d="M569,186.7l0.3,1.4l0.3-1.4l2-6.8h0.7l2,6.8l0.3,1.4l0.3-1.4l1.7-6.7h0.8l-2.4,9.2h-0.8l-2.1-7.2l-0.2-0.9
		l-0.2,0.9l-2.1,7.2h-0.7l-2.4-9.2h0.8L569,186.7z"/>
	<path class="st7" d="M578.1,185.7c0-0.7,0.1-1.3,0.4-1.8c0.3-0.5,0.6-0.9,1.1-1.2s1-0.4,1.6-0.4c0.9,0,1.7,0.3,2.2,1
		c0.6,0.6,0.9,1.5,0.9,2.5v0.2c0,0.7-0.1,1.3-0.4,1.8s-0.6,0.9-1.1,1.2c-0.5,0.3-1,0.4-1.6,0.4c-0.9,0-1.6-0.3-2.2-1
		c-0.6-0.6-0.9-1.5-0.9-2.5V185.7z M578.9,185.9c0,0.8,0.2,1.5,0.6,2c0.4,0.5,1,0.8,1.7,0.8c0.7,0,1.2-0.3,1.7-0.8
		c0.4-0.5,0.6-1.2,0.6-2.1v-0.1c0-0.5-0.1-1-0.3-1.4c-0.2-0.4-0.5-0.8-0.8-1s-0.8-0.4-1.2-0.4c-0.7,0-1.2,0.3-1.7,0.8
		c-0.4,0.5-0.6,1.2-0.6,2.1V185.9z"/>
	<path class="st7" d="M589,183c-0.2,0-0.3,0-0.5,0c-0.5,0-0.9,0.1-1.2,0.4s-0.6,0.6-0.7,1.2v4.7h-0.8v-6.9h0.7l0,1.1
		c0.4-0.8,1-1.2,1.9-1.2c0.2,0,0.4,0,0.5,0.1L589,183z"/>
	<path class="st7" d="M591.9,185.8l-0.9,0.8v2.6h-0.8v-9.8h0.8v6.2l0.7-0.8l2.6-2.6h1l-2.9,2.9l3.2,4h-0.9L591.9,185.8z"/>
	<path class="st7" d="M597.1,189.2V183H596v-0.6h1.1v-0.8c0-0.7,0.2-1.2,0.5-1.6c0.4-0.4,0.9-0.6,1.5-0.6c0.3,0,0.6,0,0.8,0.1
		l-0.1,0.6c-0.2-0.1-0.4-0.1-0.7-0.1c-0.4,0-0.7,0.1-1,0.4c-0.2,0.3-0.3,0.6-0.3,1.1v0.9h1.6v0.6h-1.6v6.2H597.1z"/>
	<path class="st7" d="M601.7,189.2H601v-9.8h0.8V189.2z"/>
	<path class="st7" d="M603.4,185.7c0-0.7,0.1-1.3,0.4-1.8c0.3-0.5,0.6-0.9,1.1-1.2s1-0.4,1.6-0.4c0.9,0,1.7,0.3,2.2,1
		c0.6,0.6,0.9,1.5,0.9,2.5v0.2c0,0.7-0.1,1.3-0.4,1.8s-0.6,0.9-1.1,1.2c-0.5,0.3-1,0.4-1.6,0.4c-0.9,0-1.6-0.3-2.2-1
		c-0.6-0.6-0.9-1.5-0.9-2.5V185.7z M604.1,185.9c0,0.8,0.2,1.5,0.6,2c0.4,0.5,1,0.8,1.7,0.8c0.7,0,1.2-0.3,1.7-0.8
		c0.4-0.5,0.6-1.2,0.6-2.1v-0.1c0-0.5-0.1-1-0.3-1.4c-0.2-0.4-0.5-0.8-0.8-1s-0.8-0.4-1.2-0.4c-0.7,0-1.2,0.3-1.7,0.8
		c-0.4,0.5-0.6,1.2-0.6,2.1V185.9z"/>
	<path class="st7" d="M612.7,187.6l0.1,0.6l0.2-0.6l1.7-5.3h0.6l1.6,5.2l0.2,0.7l0.1-0.7l1.4-5.3h0.8l-2,6.9h-0.6l-1.8-5.4l-0.1-0.4
		l-0.1,0.4l-1.7,5.4h-0.6l-2-6.9h0.8L612.7,187.6z"/>
	<path class="st7" d="M625,187.5c0-0.4-0.2-0.7-0.5-0.9s-0.8-0.4-1.4-0.5s-1.1-0.3-1.4-0.4s-0.6-0.4-0.7-0.6
		c-0.2-0.2-0.2-0.5-0.2-0.9c0-0.5,0.2-1,0.7-1.3c0.5-0.4,1-0.5,1.7-0.5c0.8,0,1.4,0.2,1.8,0.6s0.7,0.9,0.7,1.5H625
		c0-0.4-0.2-0.7-0.5-1c-0.3-0.3-0.8-0.4-1.3-0.4c-0.5,0-0.9,0.1-1.2,0.3c-0.3,0.2-0.5,0.5-0.5,0.9c0,0.3,0.1,0.6,0.4,0.8
		s0.7,0.4,1.4,0.5s1.2,0.3,1.5,0.5s0.6,0.4,0.7,0.6c0.2,0.2,0.2,0.6,0.2,0.9c0,0.6-0.2,1-0.7,1.4c-0.5,0.3-1.1,0.5-1.8,0.5
		c-0.8,0-1.4-0.2-1.9-0.6c-0.5-0.4-0.7-0.9-0.7-1.5h0.8c0,0.4,0.2,0.8,0.6,1c0.3,0.2,0.8,0.4,1.4,0.4c0.5,0,1-0.1,1.3-0.3
		S625,187.8,625,187.5z"/>
</g>
<g>
	<path class="st7" d="M572.7,248.4c-0.3,0.4-0.7,0.7-1.3,0.9c-0.6,0.2-1.2,0.3-1.9,0.3c-0.7,0-1.4-0.2-1.9-0.5
		c-0.6-0.3-1-0.8-1.3-1.5c-0.3-0.6-0.5-1.4-0.5-2.2v-1.2c0-1.3,0.3-2.3,1-3c0.6-0.7,1.5-1.1,2.6-1.1c1,0,1.7,0.2,2.3,0.7
		c0.6,0.5,0.9,1.2,1,2h-0.8c-0.1-0.7-0.4-1.2-0.8-1.5c-0.4-0.4-1-0.5-1.7-0.5c-0.9,0-1.5,0.3-2.1,0.9c-0.5,0.6-0.8,1.5-0.8,2.6v1.1
		c0,0.7,0.1,1.3,0.4,1.9c0.2,0.5,0.6,1,1,1.3c0.4,0.3,1,0.4,1.5,0.4c0.7,0,1.2-0.1,1.7-0.3c0.3-0.1,0.5-0.3,0.7-0.5v-2.4h-2.5v-0.7
		h3.3V248.4z"/>
	<path class="st7" d="M579.1,249.5c-0.1-0.2-0.1-0.5-0.1-1c-0.3,0.3-0.6,0.6-1,0.8c-0.4,0.2-0.8,0.3-1.3,0.3c-0.7,0-1.2-0.2-1.6-0.6
		c-0.4-0.4-0.6-0.8-0.6-1.4c0-0.7,0.3-1.2,0.8-1.6c0.6-0.4,1.3-0.6,2.3-0.6h1.4v-0.8c0-0.5-0.2-0.9-0.5-1.2s-0.7-0.4-1.3-0.4
		c-0.5,0-1,0.1-1.3,0.4c-0.3,0.3-0.5,0.6-0.5,1l-0.8,0c0-0.5,0.3-1,0.8-1.4c0.5-0.4,1.1-0.6,1.9-0.6c0.8,0,1.4,0.2,1.8,0.6
		s0.7,0.9,0.7,1.6v3.2c0,0.7,0.1,1.2,0.2,1.5v0.1H579.1z M576.7,248.9c0.5,0,1-0.1,1.4-0.4c0.4-0.2,0.7-0.6,0.9-1v-1.5h-1.4
		c-0.8,0-1.4,0.1-1.8,0.4c-0.4,0.3-0.6,0.6-0.6,1.1c0,0.4,0.1,0.7,0.4,1C575.9,248.8,576.2,248.9,576.7,248.9z"/>
	<path class="st7" d="M582.9,240.8v1.8h1.4v0.6h-1.4v4.6c0,0.4,0.1,0.7,0.2,0.9c0.1,0.2,0.4,0.3,0.7,0.3c0.1,0,0.3,0,0.6-0.1l0,0.6
		c-0.2,0.1-0.5,0.1-0.8,0.1c-0.5,0-0.9-0.2-1.1-0.5c-0.2-0.3-0.4-0.7-0.4-1.3v-4.6h-1.3v-0.6h1.3v-1.8H582.9z"/>
	<path class="st7" d="M588.5,249.6c-0.6,0-1.1-0.1-1.6-0.4c-0.5-0.3-0.8-0.7-1.1-1.2c-0.3-0.5-0.4-1.1-0.4-1.7V246
		c0-0.7,0.1-1.3,0.4-1.8c0.3-0.5,0.6-0.9,1.1-1.2s1-0.5,1.5-0.5c0.8,0,1.5,0.3,2,0.9s0.7,1.3,0.7,2.3v0.4h-4.9v0.1
		c0,0.8,0.2,1.4,0.7,1.9c0.4,0.5,1,0.8,1.7,0.8c0.4,0,0.8-0.1,1.1-0.2s0.6-0.4,0.8-0.7l0.5,0.4C590.4,249.2,589.6,249.6,588.5,249.6
		z M588.4,243.1c-0.6,0-1.1,0.2-1.4,0.6c-0.4,0.4-0.6,1-0.7,1.7h4.1v-0.1c0-0.7-0.2-1.2-0.6-1.6S589,243.1,588.4,243.1z"/>
	<path class="st7" d="M594.2,247.9l0.1,0.6l0.2-0.6l1.7-5.3h0.6l1.6,5.2l0.2,0.7l0.1-0.7l1.4-5.3h0.8l-2,6.9h-0.6l-1.8-5.4l-0.1-0.4
		l-0.1,0.4l-1.7,5.4H594l-2-6.9h0.8L594.2,247.9z"/>
	<path class="st7" d="M606.7,249.5c-0.1-0.2-0.1-0.5-0.1-1c-0.3,0.3-0.6,0.6-1,0.8s-0.8,0.3-1.3,0.3c-0.7,0-1.2-0.2-1.6-0.6
		c-0.4-0.4-0.6-0.8-0.6-1.4c0-0.7,0.3-1.2,0.8-1.6c0.6-0.4,1.3-0.6,2.3-0.6h1.4v-0.8c0-0.5-0.2-0.9-0.5-1.2s-0.7-0.4-1.3-0.4
		c-0.5,0-1,0.1-1.3,0.4c-0.3,0.3-0.5,0.6-0.5,1l-0.8,0c0-0.5,0.3-1,0.8-1.4c0.5-0.4,1.1-0.6,1.9-0.6c0.8,0,1.4,0.2,1.8,0.6
		c0.4,0.4,0.7,0.9,0.7,1.6v3.2c0,0.7,0.1,1.2,0.2,1.5v0.1H606.7z M604.3,248.9c0.5,0,1-0.1,1.4-0.4c0.4-0.2,0.7-0.6,0.9-1v-1.5h-1.4
		c-0.8,0-1.3,0.1-1.8,0.4s-0.6,0.6-0.6,1.1c0,0.4,0.1,0.7,0.4,1S603.9,248.9,604.3,248.9z"/>
	<path class="st7" d="M611.4,248.4l2-5.8h0.8l-2.9,8l-0.2,0.4c-0.4,0.8-1,1.2-1.7,1.2c-0.2,0-0.4,0-0.6-0.1l0-0.6l0.4,0
		c0.4,0,0.7-0.1,0.9-0.3c0.2-0.2,0.4-0.5,0.6-0.9l0.3-0.9l-2.6-6.8h0.8L611.4,248.4z"/>
	<path class="st7" d="M622.9,249.5c-0.1-0.2-0.1-0.5-0.1-1c-0.3,0.3-0.6,0.6-1,0.8c-0.4,0.2-0.8,0.3-1.3,0.3c-0.7,0-1.2-0.2-1.6-0.6
		c-0.4-0.4-0.6-0.8-0.6-1.4c0-0.7,0.3-1.2,0.8-1.6c0.6-0.4,1.3-0.6,2.3-0.6h1.4v-0.8c0-0.5-0.2-0.9-0.5-1.2
		c-0.3-0.3-0.7-0.4-1.3-0.4c-0.5,0-1,0.1-1.3,0.4c-0.3,0.3-0.5,0.6-0.5,1l-0.8,0c0-0.5,0.3-1,0.8-1.4c0.5-0.4,1.1-0.6,1.9-0.6
		c0.8,0,1.4,0.2,1.8,0.6c0.4,0.4,0.7,0.9,0.7,1.6v3.2c0,0.7,0.1,1.2,0.2,1.5v0.1H622.9z M620.6,248.9c0.5,0,1-0.1,1.4-0.4
		c0.4-0.2,0.7-0.6,0.9-1v-1.5h-1.4c-0.8,0-1.3,0.1-1.8,0.4c-0.4,0.3-0.6,0.6-0.6,1.1c0,0.4,0.1,0.7,0.4,1
		C619.7,248.8,620.1,248.9,620.6,248.9z"/>
	<path class="st7" d="M625.3,246c0-1.1,0.2-1.9,0.7-2.6c0.5-0.6,1.1-0.9,1.9-0.9c0.9,0,1.6,0.4,2.1,1.1l0-1h0.7v6.7
		c0,0.9-0.2,1.6-0.7,2.1c-0.5,0.5-1.2,0.8-2,0.8c-0.5,0-0.9-0.1-1.4-0.3c-0.4-0.2-0.8-0.5-1-0.9l0.4-0.5c0.5,0.7,1.2,1,1.9,1
		c0.6,0,1.1-0.2,1.5-0.6c0.4-0.4,0.5-0.9,0.6-1.6v-0.9c-0.5,0.7-1.2,1-2.1,1c-0.8,0-1.4-0.3-1.9-1s-0.7-1.5-0.7-2.6V246z M626,246.1
		c0,0.9,0.2,1.6,0.5,2.1c0.4,0.5,0.8,0.8,1.5,0.8c0.9,0,1.6-0.4,2-1.3v-3.2c-0.2-0.4-0.4-0.8-0.8-1c-0.3-0.2-0.7-0.3-1.2-0.3
		c-0.6,0-1.1,0.3-1.5,0.8C626.2,244.4,626,245.1,626,246.1z"/>
	<path class="st7" d="M635.4,249.6c-0.6,0-1.1-0.1-1.6-0.4c-0.5-0.3-0.8-0.7-1.1-1.2c-0.3-0.5-0.4-1.1-0.4-1.7V246
		c0-0.7,0.1-1.3,0.4-1.8c0.3-0.5,0.6-0.9,1.1-1.2s1-0.5,1.5-0.5c0.8,0,1.5,0.3,2,0.9s0.7,1.3,0.7,2.3v0.4h-4.9v0.1
		c0,0.8,0.2,1.4,0.7,1.9c0.4,0.5,1,0.8,1.7,0.8c0.4,0,0.8-0.1,1.1-0.2s0.6-0.4,0.8-0.7l0.5,0.4C637.3,249.2,636.5,249.6,635.4,249.6
		z M635.3,243.1c-0.6,0-1.1,0.2-1.4,0.6c-0.4,0.4-0.6,1-0.7,1.7h4.1v-0.1c0-0.7-0.2-1.2-0.6-1.6S635.9,243.1,635.3,243.1z"/>
	<path class="st7" d="M640.2,242.6l0,1.2c0.3-0.4,0.6-0.7,1-1c0.4-0.2,0.8-0.3,1.3-0.3c0.7,0,1.3,0.2,1.6,0.6c0.4,0.4,0.5,1,0.5,1.9
		v4.5h-0.8V245c0-0.6-0.1-1.1-0.4-1.4c-0.3-0.3-0.7-0.5-1.2-0.5c-0.5,0-0.9,0.1-1.2,0.4c-0.4,0.3-0.6,0.7-0.8,1.2v4.7h-0.8v-6.9
		H640.2z"/>
	<path class="st7" d="M647.8,240.8v1.8h1.4v0.6h-1.4v4.6c0,0.4,0.1,0.7,0.2,0.9c0.1,0.2,0.4,0.3,0.7,0.3c0.1,0,0.3,0,0.6-0.1l0,0.6
		c-0.2,0.1-0.5,0.1-0.8,0.1c-0.5,0-0.9-0.2-1.1-0.5s-0.4-0.7-0.4-1.3v-4.6h-1.3v-0.6h1.3v-1.8H647.8z"/>
</g>
<g>
	<path class="st4" d="M258,290.6c0,2.8-2.2,5-5,5H143.3c-2.8,0-5-2.2-5-5v-30c0-2.8,2.2-5,5-5H253c2.8,0,5,2.3,5,5V290.6z"/>
</g>
<g>
	<path class="st7" d="M214.2,277.2c-0.1,1-0.5,1.7-1,2.2c-0.6,0.5-1.4,0.8-2.4,0.8c-0.7,0-1.3-0.2-1.8-0.5c-0.5-0.3-0.9-0.8-1.2-1.5
		c-0.3-0.6-0.4-1.3-0.4-2.2v-1.2c0-0.8,0.1-1.5,0.4-2.2s0.7-1.1,1.2-1.5c0.5-0.3,1.2-0.5,1.9-0.5c1,0,1.8,0.3,2.3,0.8
		c0.6,0.5,0.9,1.3,1,2.2h-0.8c-0.2-1.6-1-2.4-2.6-2.4c-0.8,0-1.5,0.3-2,0.9c-0.5,0.6-0.7,1.5-0.7,2.6v1.1c0,1.1,0.2,1.9,0.7,2.6
		c0.5,0.6,1.1,1,2,1c0.8,0,1.4-0.2,1.8-0.6s0.7-1,0.8-1.8H214.2z"/>
	<path class="st7" d="M216.9,279.4h4.6v0.7h-5.4v-9.2h0.8V279.4z"/>
	<path class="st7" d="M223.9,280.1h-0.8v-9.2h0.8V280.1z"/>
</g>
<g>
	<path class="st4" d="M271,304.7h-4.5c-0.3,0-0.5-0.2-0.5-0.5s0.2-0.5,0.5-0.5h4.5c2.2,0,4-2,4-4.5v-165c0-2.5-1.8-4.5-4-4.5h-4.5
		c-0.3,0-0.5-0.2-0.5-0.5s0.2-0.5,0.5-0.5h4.5c2.8,0,5,2.5,5,5.5v165C276,302.3,273.8,304.7,271,304.7z"/>
</g>
<g>
	<path class="st4" d="M315.2,217.2h-39.7c-0.3,0-0.5-0.2-0.5-0.5s0.2-0.5,0.5-0.5h39.7c0.3,0,0.5,0.2,0.5,0.5
		S315.5,217.2,315.2,217.2z"/>
</g>
<g>
	<path class="st4" d="M446,211.2h-11.1c-0.3,0-0.5-0.2-0.5-0.5s0.2-0.5,0.5-0.5H446c2.5,0,4.5-2,4.5-4.5v-16c0-3,2.5-5.5,5.5-5.5
		h40.6c0.3,0,0.5,0.2,0.5,0.5s-0.2,0.5-0.5,0.5H456c-2.5,0-4.5,2-4.5,4.5v16C451.5,208.7,449,211.2,446,211.2z"/>
</g>
<g>
	<g>
		<path class="st4" d="M434.8,220.1c-0.1,0-0.2,0-0.3,0c-0.1,0-0.2,0-0.3-0.1c-0.1,0-0.2-0.1-0.3-0.1c-0.1-0.1-0.2-0.1-0.2-0.2
			c-0.3-0.3-0.4-0.7-0.4-1.1c0-0.4,0.2-0.8,0.4-1.1c0.1-0.1,0.1-0.1,0.2-0.2c0.1-0.1,0.2-0.1,0.3-0.1c0.1,0,0.2-0.1,0.3-0.1
			c0.2,0,0.4,0,0.6,0c0.1,0,0.2,0.1,0.3,0.1s0.2,0.1,0.2,0.1c0.1,0.1,0.2,0.1,0.2,0.2c0.3,0.3,0.4,0.7,0.4,1.1
			c0,0.4-0.2,0.8-0.4,1.1c-0.1,0.1-0.1,0.1-0.2,0.2c-0.1,0.1-0.2,0.1-0.2,0.1c-0.1,0-0.2,0.1-0.3,0.1
			C435,220.1,435,220.1,434.8,220.1z"/>
	</g>
	<g>
		<path class="st4" d="M478.4,244.6c0-0.8,0.7-1.5,1.5-1.5l0,0c0.8,0,1.5,0.7,1.5,1.5l0,0c0,0.8-0.7,1.5-1.5,1.5l0,0
			C479.1,246.1,478.4,245.5,478.4,244.6z M461.7,244.6c0-0.8,0.7-1.5,1.5-1.5l0,0c0.8,0,1.5,0.7,1.5,1.5l0,0c0,0.8-0.7,1.5-1.5,1.5
			l0,0C462.4,246.1,461.7,245.5,461.7,244.6z M449.5,238c0-0.8,0.7-1.5,1.5-1.5l0,0c0.8,0,1.5,0.7,1.5,1.5l0,0
			c0,0.8-0.7,1.5-1.5,1.5l0,0C450.2,239.5,449.5,238.9,449.5,238z M449.1,222.1L449.1,222.1c-0.4-0.7-0.1-1.6,0.7-2l0,0
			c0.7-0.4,1.6-0.1,2,0.7l0,0c0,0,0,0,0,0l0,0c0.4,0.7,0.1,1.6-0.7,2l0,0c-0.2,0.1-0.4,0.2-0.7,0.2l0,0
			C449.9,222.9,449.4,222.6,449.1,222.1z"/>
	</g>
	<g>
		<path class="st4" d="M496.6,246.1c-0.4,0-0.8-0.2-1.1-0.4c-0.2-0.1-0.3-0.3-0.3-0.5c-0.1-0.2-0.1-0.4-0.1-0.6
			c0-0.4,0.2-0.8,0.4-1.1c0.1-0.1,0.1-0.1,0.2-0.2c0.1-0.1,0.2-0.1,0.3-0.1c0.1,0,0.2-0.1,0.3-0.1c0.2,0,0.4,0,0.6,0
			c0.1,0,0.2,0,0.3,0.1s0.2,0.1,0.3,0.1c0.1,0,0.2,0.1,0.2,0.2c0.3,0.3,0.4,0.7,0.4,1.1c0,0.4-0.2,0.8-0.4,1.1
			c-0.2,0.2-0.3,0.2-0.5,0.3S496.8,246.1,496.6,246.1z"/>
	</g>
</g>
<g>
	<g>
		<path class="st4" d="M434.8,219.1c-0.1,0-0.1,0-0.2,0c-0.1,0-0.1-0.1-0.2-0.1c0,0-0.1-0.1-0.1-0.2c0-0.1,0-0.1,0-0.2
			c0-0.1,0-0.1,0-0.2c0-0.1,0.1-0.1,0.1-0.2c0,0,0.1-0.1,0.2-0.1c0.2-0.1,0.4,0,0.5,0.1c0,0,0.1,0.1,0.1,0.2c0,0.1,0,0.1,0,0.2
			c0,0.1,0,0.1,0,0.2c0,0.1-0.1,0.1-0.1,0.2C435.1,219.1,435,219.1,434.8,219.1z"/>
	</g>
	<g>
		<path class="st4" d="M490.1,244.6c0-0.3,0.2-0.5,0.5-0.5l0,0c0.3,0,0.5,0.2,0.5,0.5l0,0c0,0.3-0.2,0.5-0.5,0.5l0,0
			C490.4,245.1,490.1,244.9,490.1,244.6z M484.2,244.6c0-0.3,0.2-0.5,0.5-0.5l0,0c0.3,0,0.5,0.2,0.5,0.5l0,0c0,0.3-0.2,0.5-0.5,0.5
			l0,0C484.4,245.1,484.2,244.9,484.2,244.6z M478.2,244.6c0-0.3,0.2-0.5,0.5-0.5l0,0c0.3,0,0.5,0.2,0.5,0.5l0,0
			c0,0.3-0.2,0.5-0.5,0.5l0,0C478.5,245.1,478.2,244.9,478.2,244.6z M472.3,244.6c0-0.3,0.2-0.5,0.5-0.5l0,0c0.3,0,0.5,0.2,0.5,0.5
			l0,0c0,0.3-0.2,0.5-0.5,0.5l0,0C472.5,245.1,472.3,244.9,472.3,244.6z M466.3,244.6c0-0.3,0.2-0.5,0.5-0.5l0,0
			c0.3,0,0.5,0.2,0.5,0.5l0,0c0,0.3-0.2,0.5-0.5,0.5l0,0C466.5,245.1,466.3,244.9,466.3,244.6z M460.3,244.6c0-0.3,0.2-0.5,0.5-0.5
			l0,0c0.3,0,0.5,0.2,0.5,0.5l0,0c0,0.3-0.2,0.5-0.5,0.5l0,0C460.6,245.1,460.3,244.9,460.3,244.6z M454.8,245
			c-0.3-0.1-0.4-0.3-0.4-0.6l0,0c0.1-0.3,0.3-0.4,0.6-0.4l0,0c0.3,0.1,0.4,0.3,0.4,0.6l0,0c0,0.2-0.3,0.4-0.5,0.4l0,0
			C454.8,245,454.8,245,454.8,245z M450.6,240.5c0-0.3,0.2-0.5,0.4-0.6l0,0c0.3,0,0.5,0.1,0.6,0.4l0,0c0,0.3-0.1,0.5-0.4,0.6l0,0
			c0,0,0,0-0.1,0l0,0C450.8,240.9,450.6,240.7,450.6,240.5z M450.5,234.4c0-0.3,0.2-0.5,0.5-0.5l0,0c0.3,0,0.5,0.2,0.5,0.5l0,0
			c0,0.3-0.2,0.5-0.5,0.5l0,0C450.7,234.9,450.5,234.7,450.5,234.4z M450.5,228.5c0-0.3,0.2-0.5,0.5-0.5l0,0c0.3,0,0.5,0.2,0.5,0.5
			l0,0c0,0.3-0.2,0.5-0.5,0.5l0,0C450.7,229,450.5,228.8,450.5,228.5z M450.4,222.6L450.4,222.6c-0.1-0.3,0.1-0.5,0.4-0.6l0,0
			c0.3-0.1,0.5,0.1,0.6,0.4l0,0l0,0l0,0c0.1,0.3-0.1,0.5-0.4,0.6l0,0c0,0-0.1,0-0.1,0l0,0C450.6,223,450.4,222.9,450.4,222.6z
			 M446.7,219.2c-0.3,0-0.5-0.3-0.4-0.6l0,0c0-0.3,0.3-0.5,0.6-0.4l0,0c0.3,0,0.5,0.3,0.4,0.6l0,0C447.2,219,447,219.2,446.7,219.2
			L446.7,219.2C446.8,219.2,446.7,219.2,446.7,219.2z M440.3,218.6c0-0.3,0.2-0.5,0.5-0.5l0,0c0.3,0,0.5,0.2,0.5,0.5l0,0
			c0,0.3-0.2,0.5-0.5,0.5l0,0C440.5,219.1,440.3,218.9,440.3,218.6z"/>
	</g>
	<g>
		<path class="st4" d="M496.6,245.1c-0.1,0-0.1,0-0.2,0c-0.1,0-0.1-0.1-0.2-0.1c0-0.1-0.1-0.1-0.1-0.2c0-0.1,0-0.1,0-0.2
			c0-0.1,0.1-0.3,0.2-0.3c0-0.1,0.1-0.1,0.2-0.1c0.2-0.1,0.4,0,0.5,0.1c0.1,0.1,0.1,0.2,0.1,0.3c0,0.1,0,0.1,0,0.2
			c0,0.1-0.1,0.1-0.1,0.2c0,0-0.1,0.1-0.2,0.1C496.8,245.1,496.7,245.1,496.6,245.1z"/>
	</g>
</g>
<g>
	<circle class="st7" cx="375" cy="295.6" r="48.2"/>
	<path class="st8" d="M375,344.2c-26.8,0-48.7-21.8-48.7-48.7c0-26.8,21.8-48.7,48.7-48.7c26.8,0,48.7,21.8,48.7,48.7
		C423.7,322.4,401.9,344.2,375,344.2z M375,247.9c-26.3,0-47.7,21.4-47.7,47.7s21.4,47.7,47.7,47.7s47.7-21.4,47.7-47.7
		S401.3,247.9,375,247.9z"/>
</g>
<g class="st6">
	<path class="st4" d="M346.7,279.9c0,0.8-0.1,1.5-0.4,2.2s-0.7,1.1-1.2,1.4c-0.5,0.3-1.1,0.5-1.8,0.5c-0.7,0-1.3-0.2-1.8-0.5
		c-0.5-0.3-0.9-0.8-1.2-1.4c-0.3-0.6-0.4-1.3-0.4-2.1v-0.5c0-0.8,0.1-1.5,0.4-2.2c0.3-0.6,0.7-1.1,1.2-1.4s1.1-0.5,1.8-0.5
		s1.3,0.2,1.8,0.5s0.9,0.8,1.2,1.4c0.3,0.6,0.4,1.3,0.4,2.2V279.9z M345.2,279.4c0-0.9-0.2-1.6-0.5-2.1c-0.4-0.5-0.9-0.7-1.5-0.7
		c-0.6,0-1.1,0.2-1.5,0.7c-0.4,0.5-0.5,1.2-0.5,2.1v0.5c0,0.9,0.2,1.6,0.5,2.1c0.4,0.5,0.9,0.8,1.5,0.8c0.6,0,1.1-0.2,1.5-0.7
		c0.3-0.5,0.5-1.2,0.5-2.2V279.4z"/>
	<path class="st4" d="M351.2,278.9c-0.2,0-0.4,0-0.6,0c-0.6,0-1.1,0.2-1.3,0.7v4.3H348v-6.2h1.3l0,0.7c0.3-0.5,0.8-0.8,1.4-0.8
		c0.2,0,0.4,0,0.5,0.1L351.2,278.9z"/>
	<path class="st4" d="M354.6,282.8c0.4,0,0.6-0.1,0.9-0.3c0.2-0.2,0.4-0.5,0.4-0.8h1.3c0,0.4-0.1,0.8-0.4,1.1s-0.5,0.6-0.9,0.8
		c-0.4,0.2-0.8,0.3-1.3,0.3c-0.9,0-1.6-0.3-2.1-0.8c-0.5-0.6-0.8-1.3-0.8-2.3v-0.1c0-1,0.3-1.7,0.8-2.3c0.5-0.6,1.2-0.9,2.1-0.9
		c0.7,0,1.3,0.2,1.8,0.7c0.5,0.4,0.7,1,0.7,1.7h-1.3c0-0.4-0.1-0.7-0.4-0.9c-0.2-0.2-0.5-0.3-0.9-0.3c-0.5,0-0.8,0.2-1.1,0.5
		c-0.2,0.3-0.4,0.8-0.4,1.5v0.2c0,0.7,0.1,1.2,0.4,1.5S354.1,282.8,354.6,282.8z"/>
	<path class="st4" d="M359.6,278.3c0.5-0.5,1-0.8,1.7-0.8c1.3,0,2,0.8,2,2.3v4.1H362v-4c0-0.4-0.1-0.7-0.3-0.9
		c-0.2-0.2-0.5-0.3-0.8-0.3c-0.6,0-1,0.3-1.3,0.8v4.5h-1.4V275h1.4V278.3z"/>
	<path class="st4" d="M367.5,284c-0.9,0-1.6-0.3-2.2-0.8c-0.6-0.6-0.8-1.3-0.8-2.2v-0.2c0-0.6,0.1-1.2,0.4-1.7
		c0.2-0.5,0.6-0.9,1-1.1s0.9-0.4,1.5-0.4c0.9,0,1.5,0.3,2,0.8s0.7,1.3,0.7,2.3v0.6H366c0,0.5,0.2,0.9,0.5,1.2
		c0.3,0.3,0.7,0.5,1.1,0.5c0.6,0,1.2-0.3,1.6-0.8l0.8,0.7c-0.3,0.4-0.6,0.7-1,0.9C368.5,283.8,368.1,284,367.5,284z M367.4,278.6
		c-0.4,0-0.7,0.1-0.9,0.4s-0.4,0.6-0.5,1.1h2.7V280c0-0.5-0.2-0.8-0.4-1.1C368.1,278.7,367.8,278.6,367.4,278.6z"/>
	<path class="st4" d="M374.6,282.1c0-0.2-0.1-0.4-0.3-0.6s-0.5-0.2-1-0.3c-0.5-0.1-0.9-0.2-1.2-0.4c-0.7-0.3-1.1-0.8-1.1-1.5
		c0-0.5,0.2-1,0.7-1.4c0.5-0.4,1-0.5,1.7-0.5c0.7,0,1.4,0.2,1.8,0.6c0.5,0.4,0.7,0.8,0.7,1.4h-1.4c0-0.3-0.1-0.5-0.3-0.7
		s-0.5-0.3-0.8-0.3c-0.3,0-0.6,0.1-0.8,0.2c-0.2,0.1-0.3,0.3-0.3,0.6c0,0.2,0.1,0.4,0.3,0.5c0.2,0.1,0.5,0.2,1.1,0.4
		c0.6,0.1,1,0.3,1.3,0.4c0.3,0.2,0.5,0.4,0.7,0.6c0.2,0.2,0.2,0.5,0.2,0.9c0,0.6-0.2,1-0.7,1.4c-0.5,0.3-1.1,0.5-1.8,0.5
		c-0.5,0-1-0.1-1.4-0.3c-0.4-0.2-0.7-0.4-0.9-0.8s-0.3-0.7-0.3-1h1.4c0,0.3,0.1,0.6,0.4,0.8c0.2,0.2,0.5,0.3,0.9,0.3
		c0.4,0,0.7-0.1,0.8-0.2C374.5,282.5,374.6,282.4,374.6,282.1z"/>
	<path class="st4" d="M379,276.1v1.5h1.1v1H379v3.5c0,0.2,0,0.4,0.1,0.5c0.1,0.1,0.3,0.2,0.5,0.2c0.2,0,0.3,0,0.5-0.1v1.1
		c-0.3,0.1-0.6,0.1-0.9,0.1c-1.1,0-1.6-0.6-1.6-1.8v-3.5h-1v-1h1v-1.5H379z"/>
	<path class="st4" d="M384.4,278.9c-0.2,0-0.4,0-0.6,0c-0.6,0-1.1,0.2-1.3,0.7v4.3h-1.4v-6.2h1.3l0,0.7c0.3-0.5,0.8-0.8,1.4-0.8
		c0.2,0,0.4,0,0.5,0.1L384.4,278.9z"/>
	<path class="st4" d="M388.9,283.8c-0.1-0.1-0.1-0.3-0.2-0.6c-0.4,0.5-1,0.7-1.6,0.7c-0.6,0-1.1-0.2-1.5-0.5
		c-0.4-0.4-0.6-0.8-0.6-1.3c0-0.7,0.2-1.2,0.7-1.5c0.5-0.4,1.2-0.5,2.1-0.5h0.9v-0.4c0-0.3-0.1-0.6-0.3-0.8s-0.5-0.3-0.8-0.3
		c-0.3,0-0.6,0.1-0.8,0.2s-0.3,0.4-0.3,0.6h-1.4c0-0.3,0.1-0.7,0.3-1c0.2-0.3,0.5-0.5,0.9-0.7c0.4-0.2,0.8-0.3,1.3-0.3
		c0.7,0,1.3,0.2,1.8,0.6c0.4,0.4,0.7,0.9,0.7,1.6v2.8c0,0.6,0.1,1,0.2,1.3v0.1H388.9z M387.3,282.8c0.3,0,0.5-0.1,0.8-0.2
		c0.2-0.1,0.4-0.3,0.6-0.5v-1.2h-0.8c-0.5,0-0.9,0.1-1.2,0.3c-0.3,0.2-0.4,0.4-0.4,0.8c0,0.3,0.1,0.5,0.3,0.6
		C386.8,282.7,387,282.8,387.3,282.8z"/>
	<path class="st4" d="M393.3,276.1v1.5h1.1v1h-1.1v3.5c0,0.2,0,0.4,0.1,0.5c0.1,0.1,0.3,0.2,0.5,0.2c0.2,0,0.3,0,0.5-0.1v1.1
		c-0.3,0.1-0.6,0.1-0.9,0.1c-1.1,0-1.6-0.6-1.6-1.8v-3.5h-1v-1h1v-1.5H393.3z"/>
	<path class="st4" d="M395.5,276c0-0.2,0.1-0.4,0.2-0.5s0.3-0.2,0.6-0.2c0.3,0,0.5,0.1,0.6,0.2c0.1,0.1,0.2,0.3,0.2,0.5
		c0,0.2-0.1,0.4-0.2,0.5c-0.1,0.1-0.3,0.2-0.6,0.2c-0.3,0-0.4-0.1-0.6-0.2S395.5,276.2,395.5,276z M397,283.8h-1.4v-6.2h1.4V283.8z"
		/>
	<path class="st4" d="M398.2,280.7c0-0.6,0.1-1.2,0.4-1.7c0.2-0.5,0.6-0.9,1-1.1s0.9-0.4,1.5-0.4c0.8,0,1.5,0.3,2.1,0.8
		c0.5,0.5,0.8,1.3,0.9,2.2l0,0.3c0,0.6-0.1,1.2-0.4,1.7s-0.6,0.9-1,1.1s-1,0.4-1.5,0.4c-0.9,0-1.6-0.3-2.1-0.9
		C398.5,282.5,398.2,281.7,398.2,280.7L398.2,280.7z M399.6,280.8c0,0.6,0.1,1.1,0.4,1.5s0.6,0.5,1.1,0.5s0.8-0.2,1.1-0.6
		c0.3-0.4,0.4-0.9,0.4-1.6c0-0.6-0.1-1.1-0.4-1.5c-0.3-0.4-0.6-0.6-1.1-0.6c-0.5,0-0.8,0.2-1.1,0.5
		C399.8,279.5,399.6,280.1,399.6,280.8z"/>
	<path class="st4" d="M406.5,277.6l0,0.7c0.5-0.6,1.1-0.8,1.8-0.8c1.3,0,2,0.7,2,2.2v4.1H409v-4c0-0.4-0.1-0.7-0.3-0.9
		s-0.5-0.3-0.8-0.3c-0.6,0-1,0.3-1.3,0.8v4.4h-1.4v-6.2H406.5z"/>
</g>
<g>
	<g>
		<path class="st7" d="M408.8,319.2h-9.2c-0.9,0-1.5-0.7-1.5-1.5v-9.2c0-0.9,0.7-1.5,1.5-1.5h9.2c0.9,0,1.5,0.7,1.5,1.5v9.2
			C410.3,318.5,409.6,319.2,408.8,319.2z"/>
		<path class="st4" d="M408.8,319.7h-9.2c-1.1,0-2-0.9-2-2v-9.2c0-1.1,0.9-2,2-2h9.2c1.1,0,2,0.9,2,2v9.2
			C410.8,318.8,409.9,319.7,408.8,319.7z M399.6,307.5c-0.6,0-1,0.5-1,1v9.2c0,0.6,0.5,1,1,1h9.2c0.6,0,1-0.5,1-1v-9.2
			c0-0.6-0.5-1-1-1H399.6z"/>
	</g>
	<g>
		<path class="st7" d="M407.3,317.7h-9.2c-0.9,0-1.5-0.7-1.5-1.5V307c0-0.9,0.7-1.5,1.5-1.5h9.2c0.9,0,1.5,0.7,1.5,1.5v9.2
			C408.8,317,408.1,317.7,407.3,317.7z"/>
		<path class="st4" d="M407.3,318.2h-9.2c-1.1,0-2-0.9-2-2V307c0-1.1,0.9-2,2-2h9.2c1.1,0,2,0.9,2,2v9.2
			C409.3,317.3,408.4,318.2,407.3,318.2z M398.1,306c-0.6,0-1,0.5-1,1v9.2c0,0.6,0.5,1,1,1h9.2c0.6,0,1-0.5,1-1V307c0-0.6-0.5-1-1-1
			H398.1z"/>
	</g>
	<g>
		<path class="st7" d="M405.7,316.2h-9.2c-0.9,0-1.5-0.7-1.5-1.5v-9.2c0-0.9,0.7-1.5,1.5-1.5h9.2c0.9,0,1.5,0.7,1.5,1.5v9.2
			C407.3,315.5,406.6,316.2,405.7,316.2z"/>
		<path class="st4" d="M405.7,316.7h-9.2c-1.1,0-2-0.9-2-2v-9.2c0-1.1,0.9-2,2-2h9.2c1.1,0,2,0.9,2,2v9.2
			C407.8,315.8,406.9,316.7,405.7,316.7z M396.6,304.4c-0.6,0-1,0.5-1,1v9.2c0,0.6,0.5,1,1,1h9.2c0.6,0,1-0.5,1-1v-9.2
			c0-0.6-0.5-1-1-1H396.6z"/>
	</g>
	<g>
		<path class="st7" d="M390.5,319.2h-9.2c-0.9,0-1.5-0.7-1.5-1.5v-9.2c0-0.9,0.7-1.5,1.5-1.5h9.2c0.9,0,1.5,0.7,1.5,1.5v9.2
			C392,318.5,391.3,319.2,390.5,319.2z"/>
		<path class="st4" d="M390.5,319.7h-9.2c-1.1,0-2-0.9-2-2v-9.2c0-1.1,0.9-2,2-2h9.2c1.1,0,2,0.9,2,2v9.2
			C392.5,318.8,391.6,319.7,390.5,319.7z M381.3,307.5c-0.6,0-1,0.5-1,1v9.2c0,0.6,0.5,1,1,1h9.2c0.6,0,1-0.5,1-1v-9.2
			c0-0.6-0.5-1-1-1H381.3z"/>
	</g>
	<g>
		<path class="st7" d="M389,317.7h-9.2c-0.9,0-1.5-0.7-1.5-1.5V307c0-0.9,0.7-1.5,1.5-1.5h9.2c0.9,0,1.5,0.7,1.5,1.5v9.2
			C390.5,317,389.8,317.7,389,317.7z"/>
		<path class="st4" d="M389,318.2h-9.2c-1.1,0-2-0.9-2-2V307c0-1.1,0.9-2,2-2h9.2c1.1,0,2,0.9,2,2v9.2
			C391,317.3,390.1,318.2,389,318.2z M379.8,306c-0.6,0-1,0.5-1,1v9.2c0,0.6,0.5,1,1,1h9.2c0.6,0,1-0.5,1-1V307c0-0.6-0.5-1-1-1
			H379.8z"/>
	</g>
	<g>
		<path class="st7" d="M387.4,316.2h-9.2c-0.9,0-1.5-0.7-1.5-1.5v-9.2c0-0.9,0.7-1.5,1.5-1.5h9.2c0.9,0,1.5,0.7,1.5,1.5v9.2
			C389,315.5,388.3,316.2,387.4,316.2z"/>
		<path class="st4" d="M387.4,316.7h-9.2c-1.1,0-2-0.9-2-2v-9.2c0-1.1,0.9-2,2-2h9.2c1.1,0,2,0.9,2,2v9.2
			C389.5,315.8,388.6,316.7,387.4,316.7z M378.3,304.4c-0.6,0-1,0.5-1,1v9.2c0,0.6,0.5,1,1,1h9.2c0.6,0,1-0.5,1-1v-9.2
			c0-0.6-0.5-1-1-1H378.3z"/>
	</g>
	<g>
		<path class="st7" d="M372.4,319.2h-9.2c-0.9,0-1.5-0.7-1.5-1.5v-9.2c0-0.9,0.7-1.5,1.5-1.5h9.2c0.9,0,1.5,0.7,1.5,1.5v9.2
			C373.9,318.5,373.2,319.2,372.4,319.2z"/>
		<path class="st4" d="M372.4,319.7h-9.2c-1.1,0-2-0.9-2-2v-9.2c0-1.1,0.9-2,2-2h9.2c1.1,0,2,0.9,2,2v9.2
			C374.4,318.8,373.5,319.7,372.4,319.7z M363.2,307.5c-0.6,0-1,0.5-1,1v9.2c0,0.6,0.5,1,1,1h9.2c0.6,0,1-0.5,1-1v-9.2
			c0-0.6-0.5-1-1-1H363.2z"/>
	</g>
	<g>
		<path class="st7" d="M370.9,317.7h-9.2c-0.9,0-1.5-0.7-1.5-1.5V307c0-0.9,0.7-1.5,1.5-1.5h9.2c0.9,0,1.5,0.7,1.5,1.5v9.2
			C372.4,317,371.7,317.7,370.9,317.7z"/>
		<path class="st4" d="M370.9,318.2h-9.2c-1.1,0-2-0.9-2-2V307c0-1.1,0.9-2,2-2h9.2c1.1,0,2,0.9,2,2v9.2
			C372.9,317.3,372,318.2,370.9,318.2z M361.7,306c-0.6,0-1,0.5-1,1v9.2c0,0.6,0.5,1,1,1h9.2c0.6,0,1-0.5,1-1V307c0-0.6-0.5-1-1-1
			H361.7z"/>
	</g>
	<g>
		<path class="st7" d="M369.3,316.2h-9.2c-0.9,0-1.5-0.7-1.5-1.5v-9.2c0-0.9,0.7-1.5,1.5-1.5h9.2c0.9,0,1.5,0.7,1.5,1.5v9.2
			C370.9,315.5,370.2,316.2,369.3,316.2z"/>
		<path class="st4" d="M369.3,316.7h-9.2c-1.1,0-2-0.9-2-2v-9.2c0-1.1,0.9-2,2-2h9.2c1.1,0,2,0.9,2,2v9.2
			C371.4,315.8,370.5,316.7,369.3,316.7z M360.2,304.4c-0.6,0-1,0.5-1,1v9.2c0,0.6,0.5,1,1,1h9.2c0.6,0,1-0.5,1-1v-9.2
			c0-0.6-0.5-1-1-1H360.2z"/>
	</g>
	<g>
		<path class="st7" d="M354.1,319.2h-9.2c-0.9,0-1.5-0.7-1.5-1.5v-9.2c0-0.9,0.7-1.5,1.5-1.5h9.2c0.9,0,1.5,0.7,1.5,1.5v9.2
			C355.6,318.5,354.9,319.2,354.1,319.2z"/>
		<path class="st4" d="M354.1,319.7h-9.2c-1.1,0-2-0.9-2-2v-9.2c0-1.1,0.9-2,2-2h9.2c1.1,0,2,0.9,2,2v9.2
			C356.1,318.8,355.2,319.7,354.1,319.7z M344.9,307.5c-0.6,0-1,0.5-1,1v9.2c0,0.6,0.5,1,1,1h9.2c0.6,0,1-0.5,1-1v-9.2
			c0-0.6-0.5-1-1-1H344.9z"/>
	</g>
	<g>
		<path class="st7" d="M352.5,317.7h-9.2c-0.9,0-1.5-0.7-1.5-1.5V307c0-0.9,0.7-1.5,1.5-1.5h9.2c0.9,0,1.5,0.7,1.5,1.5v9.2
			C354.1,317,353.4,317.7,352.5,317.7z"/>
		<path class="st4" d="M352.5,318.2h-9.2c-1.1,0-2-0.9-2-2V307c0-1.1,0.9-2,2-2h9.2c1.1,0,2,0.9,2,2v9.2
			C354.6,317.3,353.7,318.2,352.5,318.2z M343.4,306c-0.6,0-1,0.5-1,1v9.2c0,0.6,0.5,1,1,1h9.2c0.6,0,1-0.5,1-1V307c0-0.6-0.5-1-1-1
			H343.4z"/>
	</g>
	<g>
		<path class="st7" d="M351,316.2h-9.2c-0.9,0-1.5-0.7-1.5-1.5v-9.2c0-0.9,0.7-1.5,1.5-1.5h9.2c0.9,0,1.5,0.7,1.5,1.5v9.2
			C352.5,315.5,351.9,316.2,351,316.2z"/>
		<path class="st4" d="M351,316.7h-9.2c-1.1,0-2-0.9-2-2v-9.2c0-1.1,0.9-2,2-2h9.2c1.1,0,2,0.9,2,2v9.2
			C353,315.8,352.2,316.7,351,316.7z M341.9,304.4c-0.6,0-1,0.5-1,1v9.2c0,0.6,0.5,1,1,1h9.2c0.6,0,1-0.5,1-1v-9.2c0-0.6-0.5-1-1-1
			H341.9z"/>
	</g>
	<g>
		<path class="st4" d="M401.2,304.4c-0.3,0-0.5-0.2-0.5-0.5v-3.4c0-1.5-2.1-2.9-4.5-2.9h-44.7c-2.4,0-4.5,1.3-4.5,2.9v3.4
			c0,0.3-0.2,0.5-0.5,0.5s-0.5-0.2-0.5-0.5v-3.4c0-2.1,2.5-3.9,5.5-3.9h44.7c3,0,5.5,1.7,5.5,3.9v3.4
			C401.7,304.2,401.4,304.4,401.2,304.4z"/>
	</g>
	<g>
		<path class="st4" d="M364.8,304.4c-0.3,0-0.5-0.2-0.5-0.5v-6.7c0-0.3,0.2-0.5,0.5-0.5s0.5,0.2,0.5,0.5v6.7
			C365.3,304.2,365,304.4,364.8,304.4z"/>
	</g>
	<g>
		<path class="st4" d="M382.9,304.4c-0.3,0-0.5-0.2-0.5-0.5v-6.7c0-0.3,0.2-0.5,0.5-0.5s0.5,0.2,0.5,0.5v6.7
			C383.4,304.2,383.1,304.4,382.9,304.4z"/>
	</g>
</g>
<g>
	<circle class="st7" cx="586.3" cy="332.5" r="40.9"/>
	<path class="st8" d="M586.3,373.9c-22.8,0-41.4-18.6-41.4-41.4s18.6-41.4,41.4-41.4s41.4,18.6,41.4,41.4S609.1,373.9,586.3,373.9z
		 M586.3,292.1c-22.3,0-40.4,18.1-40.4,40.4s18.1,40.4,40.4,40.4s40.4-18.1,40.4-40.4S608.6,292.1,586.3,292.1z"/>
</g>
<g class="st6">
	<path class="st4" d="M569.9,344.9h-1.6v3.2h-1.5v-8.4h3c1,0,1.7,0.2,2.2,0.7s0.8,1.1,0.8,1.9c0,0.6-0.1,1-0.4,1.4
		c-0.3,0.4-0.6,0.7-1.1,0.9l1.9,3.5v0.1h-1.6L569.9,344.9z M568.3,343.7h1.5c0.5,0,0.9-0.1,1.2-0.4s0.4-0.6,0.4-1
		c0-0.5-0.1-0.8-0.4-1c-0.3-0.2-0.6-0.4-1.1-0.4h-1.5V343.7z"/>
	<path class="st4" d="M573.8,344.9c0-0.6,0.1-1.2,0.4-1.7c0.2-0.5,0.6-0.9,1-1.1c0.4-0.3,0.9-0.4,1.5-0.4c0.8,0,1.5,0.3,2.1,0.8
		s0.8,1.3,0.9,2.2l0,0.3c0,0.6-0.1,1.2-0.4,1.7c-0.2,0.5-0.6,0.9-1,1.1c-0.4,0.3-1,0.4-1.5,0.4c-0.9,0-1.6-0.3-2.1-0.9
		C574.1,346.7,573.8,346,573.8,344.9L573.8,344.9z M575.2,345c0,0.6,0.1,1.1,0.4,1.5s0.6,0.5,1.1,0.5s0.8-0.2,1.1-0.6
		c0.3-0.4,0.4-0.9,0.4-1.6c0-0.6-0.1-1.1-0.4-1.5c-0.3-0.4-0.6-0.6-1.1-0.6c-0.5,0-0.8,0.2-1.1,0.5
		C575.3,343.8,575.2,344.3,575.2,345z"/>
	<path class="st4" d="M584.6,347.5c-0.4,0.5-1,0.7-1.8,0.7c-0.7,0-1.2-0.2-1.5-0.6s-0.5-1-0.5-1.7v-4h1.4v4c0,0.8,0.3,1.2,1,1.2
		c0.7,0,1.1-0.2,1.4-0.7v-4.5h1.4v6.2h-1.3L584.6,347.5z"/>
	<path class="st4" d="M589.1,340.3v1.5h1.1v1h-1.1v3.5c0,0.2,0,0.4,0.1,0.5c0.1,0.1,0.3,0.2,0.5,0.2c0.2,0,0.3,0,0.5-0.1v1.1
		c-0.3,0.1-0.6,0.1-0.9,0.1c-1.1,0-1.6-0.6-1.6-1.8v-3.5h-1v-1h1v-1.5H589.1z"/>
	<path class="st4" d="M591.3,340.2c0-0.2,0.1-0.4,0.2-0.5s0.3-0.2,0.6-0.2s0.5,0.1,0.6,0.2s0.2,0.3,0.2,0.5c0,0.2-0.1,0.4-0.2,0.5
		s-0.3,0.2-0.6,0.2s-0.5-0.1-0.6-0.2S591.3,340.4,591.3,340.2z M592.8,348.1h-1.4v-6.2h1.4V348.1z"/>
	<path class="st4" d="M595.6,341.8l0,0.7c0.5-0.6,1.1-0.8,1.8-0.8c1.3,0,2,0.7,2,2.2v4.1h-1.4v-4c0-0.4-0.1-0.7-0.3-0.9
		c-0.2-0.2-0.5-0.3-0.8-0.3c-0.6,0-1,0.3-1.3,0.8v4.4h-1.4v-6.2H595.6z"/>
	<path class="st4" d="M600.7,344.9c0-1,0.2-1.7,0.7-2.3c0.5-0.6,1.1-0.9,1.8-0.9c0.7,0,1.3,0.2,1.7,0.7l0.1-0.6h1.3v6.1
		c0,0.8-0.3,1.5-0.8,1.9c-0.5,0.5-1.2,0.7-2.1,0.7c-0.5,0-0.9-0.1-1.3-0.3c-0.4-0.2-0.8-0.4-1-0.7l0.7-0.8c0.4,0.5,1,0.8,1.6,0.8
		c0.5,0,0.8-0.1,1.1-0.4c0.3-0.3,0.4-0.6,0.4-1.1v-0.4c-0.4,0.5-0.9,0.7-1.6,0.7c-0.7,0-1.3-0.3-1.8-0.9
		C600.9,346.8,600.7,345.9,600.7,344.9z M602,345c0,0.6,0.1,1.1,0.4,1.5c0.3,0.4,0.6,0.5,1.1,0.5c0.6,0,1-0.2,1.3-0.7v-2.7
		c-0.3-0.5-0.7-0.7-1.2-0.7c-0.5,0-0.8,0.2-1.1,0.5C602.2,343.8,602,344.3,602,345z"/>
</g>
<g>
	<path class="st9" d="M591.6,333.5c-1.4,0-2.5-1.1-2.5-2.5s1.1-2.5,2.5-2.5s2.5,1.1,2.5,2.5S593,333.5,591.6,333.5z M591.6,329.5
		c-0.8,0-1.5,0.7-1.5,1.5s0.7,1.5,1.5,1.5s1.5-0.7,1.5-1.5S592.4,329.5,591.6,329.5z"/>
</g>
<g>
	<path class="st9" d="M581.2,333.5c-1.4,0-2.5-1.1-2.5-2.5s1.1-2.5,2.5-2.5s2.5,1.1,2.5,2.5S582.6,333.5,581.2,333.5z M581.2,329.5
		c-0.8,0-1.5,0.7-1.5,1.5s0.7,1.5,1.5,1.5s1.5-0.7,1.5-1.5S582,329.5,581.2,329.5z"/>
</g>
<g>
	<path class="st9" d="M586.4,323.1c-1.4,0-2.5-1.1-2.5-2.5s1.1-2.5,2.5-2.5s2.5,1.1,2.5,2.5S587.8,323.1,586.4,323.1z M586.4,319.1
		c-0.8,0-1.5,0.7-1.5,1.5s0.7,1.5,1.5,1.5s1.5-0.7,1.5-1.5S587.2,319.1,586.4,319.1z"/>
</g>
<g>
	<path class="st9" d="M590.7,329.7c-0.2,0-0.4-0.1-0.4-0.3l-3.4-6.8c-0.1-0.2,0-0.5,0.2-0.7c0.2-0.1,0.5,0,0.7,0.2l3.4,6.8
		c0.1,0.2,0,0.5-0.2,0.7C590.9,329.7,590.8,329.7,590.7,329.7z"/>
</g>
<g>
	<path class="st9" d="M582.1,329.7c-0.1,0-0.2,0-0.2-0.1c-0.2-0.1-0.3-0.4-0.2-0.7l3.4-6.8c0.1-0.2,0.4-0.3,0.7-0.2
		c0.2,0.1,0.3,0.4,0.2,0.7l-3.4,6.8C582.5,329.6,582.3,329.7,582.1,329.7z"/>
</g>
<g>
	<path class="st4" d="M330.5,196.1c-0.3,0-0.5-0.2-0.5-0.5V92.4c0-0.3,0.2-0.5,0.5-0.5s0.5,0.2,0.5,0.5v103.2
		C331,195.8,330.8,196.1,330.5,196.1z"/>
</g>
<g>
	<circle class="st7" cx="330.5" cy="83.5" r="40.9"/>
	<path class="st8" d="M330.5,124.9c-22.8,0-41.4-18.6-41.4-41.4s18.6-41.4,41.4-41.4s41.4,18.6,41.4,41.4S353.3,124.9,330.5,124.9z
		 M330.5,43.1c-22.3,0-40.4,18.1-40.4,40.4s18.1,40.4,40.4,40.4s40.4-18.1,40.4-40.4S352.8,43.1,330.5,43.1z"/>
</g>
<g>
	<rect x="297" y="87.4" class="st5" width="68.7" height="9.9"/>
</g>
<g class="st6">
	<path class="st4" d="M302.4,93.1v3.1h-1.5v-8.4h3.2c0.9,0,1.7,0.2,2.2,0.7c0.6,0.5,0.8,1.1,0.8,1.9c0,0.8-0.3,1.5-0.8,1.9
		c-0.5,0.5-1.3,0.7-2.3,0.7H302.4z M302.4,91.9h1.8c0.5,0,0.9-0.1,1.2-0.4c0.3-0.2,0.4-0.6,0.4-1.1c0-0.5-0.1-0.8-0.4-1.1
		s-0.7-0.4-1.1-0.4h-1.8V91.9z"/>
	<path class="st4" d="M311,96.3c-0.9,0-1.6-0.3-2.2-0.8c-0.6-0.6-0.8-1.3-0.8-2.2v-0.2c0-0.6,0.1-1.2,0.4-1.7c0.2-0.5,0.6-0.9,1-1.1
		c0.4-0.3,0.9-0.4,1.5-0.4c0.9,0,1.5,0.3,2,0.8s0.7,1.3,0.7,2.3v0.6h-4.1c0,0.5,0.2,0.9,0.5,1.2c0.3,0.3,0.7,0.5,1.1,0.5
		c0.6,0,1.2-0.3,1.6-0.8l0.8,0.7c-0.3,0.4-0.6,0.7-1,0.9C312,96.2,311.5,96.3,311,96.3z M310.8,91c-0.4,0-0.7,0.1-0.9,0.4
		c-0.2,0.3-0.4,0.6-0.5,1.1h2.7v-0.1c0-0.5-0.2-0.8-0.4-1.1C311.5,91.1,311.2,91,310.8,91z"/>
	<path class="st4" d="M317.9,91.2c-0.2,0-0.4,0-0.6,0c-0.6,0-1.1,0.2-1.3,0.7v4.3h-1.4V90h1.3l0,0.7c0.3-0.5,0.8-0.8,1.4-0.8
		c0.2,0,0.4,0,0.5,0.1L317.9,91.2z"/>
	<path class="st4" d="M322.3,94.5c0-0.2-0.1-0.4-0.3-0.6s-0.5-0.2-1-0.3c-0.5-0.1-0.9-0.2-1.2-0.4c-0.7-0.3-1.1-0.8-1.1-1.5
		c0-0.5,0.2-1,0.7-1.4c0.5-0.4,1-0.5,1.7-0.5c0.7,0,1.4,0.2,1.8,0.6c0.5,0.4,0.7,0.8,0.7,1.4h-1.4c0-0.3-0.1-0.5-0.3-0.7
		s-0.5-0.3-0.8-0.3c-0.3,0-0.6,0.1-0.8,0.2s-0.3,0.3-0.3,0.6c0,0.2,0.1,0.4,0.3,0.5c0.2,0.1,0.5,0.2,1.1,0.4c0.6,0.1,1,0.3,1.3,0.4
		c0.3,0.2,0.5,0.4,0.7,0.6c0.2,0.2,0.2,0.5,0.2,0.9c0,0.6-0.2,1-0.7,1.4c-0.5,0.3-1.1,0.5-1.8,0.5c-0.5,0-1-0.1-1.4-0.3
		c-0.4-0.2-0.7-0.4-0.9-0.8c-0.2-0.3-0.3-0.7-0.3-1h1.4c0,0.3,0.1,0.6,0.4,0.8s0.5,0.3,0.9,0.3c0.4,0,0.7-0.1,0.8-0.2
		S322.3,94.7,322.3,94.5z"/>
	<path class="st4" d="M324.9,88.3c0-0.2,0.1-0.4,0.2-0.5s0.3-0.2,0.6-0.2c0.3,0,0.5,0.1,0.6,0.2c0.1,0.1,0.2,0.3,0.2,0.5
		c0,0.2-0.1,0.4-0.2,0.5c-0.1,0.1-0.3,0.2-0.6,0.2c-0.3,0-0.4-0.1-0.6-0.2S324.9,88.5,324.9,88.3z M326.4,96.2H325V90h1.4V96.2z"/>
	<path class="st4" d="M331.4,94.5c0-0.2-0.1-0.4-0.3-0.6s-0.5-0.2-1-0.3c-0.5-0.1-0.9-0.2-1.2-0.4c-0.7-0.3-1.1-0.8-1.1-1.5
		c0-0.5,0.2-1,0.7-1.4c0.5-0.4,1-0.5,1.7-0.5c0.7,0,1.4,0.2,1.8,0.6c0.5,0.4,0.7,0.8,0.7,1.4h-1.4c0-0.3-0.1-0.5-0.3-0.7
		s-0.5-0.3-0.8-0.3c-0.3,0-0.6,0.1-0.8,0.2c-0.2,0.1-0.3,0.3-0.3,0.6c0,0.2,0.1,0.4,0.3,0.5s0.5,0.2,1.1,0.4c0.5,0.1,1,0.3,1.3,0.4
		c0.3,0.2,0.5,0.4,0.7,0.6c0.2,0.2,0.2,0.5,0.2,0.9c0,0.6-0.2,1-0.7,1.4s-1.1,0.5-1.8,0.5c-0.5,0-1-0.1-1.4-0.3
		c-0.4-0.2-0.7-0.4-0.9-0.8c-0.2-0.3-0.3-0.7-0.3-1h1.4c0,0.3,0.1,0.6,0.4,0.8c0.2,0.2,0.5,0.3,0.9,0.3c0.4,0,0.7-0.1,0.8-0.2
		C331.3,94.9,331.4,94.7,331.4,94.5z"/>
	<path class="st4" d="M335.8,88.4V90h1.1v1h-1.1v3.5c0,0.2,0,0.4,0.1,0.5c0.1,0.1,0.3,0.2,0.5,0.2c0.2,0,0.3,0,0.5-0.1v1.1
		c-0.3,0.1-0.6,0.1-0.9,0.1c-1.1,0-1.6-0.6-1.6-1.8V91h-1v-1h1v-1.5H335.8z"/>
	<path class="st4" d="M340.7,96.3c-0.9,0-1.6-0.3-2.2-0.8c-0.6-0.6-0.8-1.3-0.8-2.2v-0.2c0-0.6,0.1-1.2,0.4-1.7
		c0.2-0.5,0.6-0.9,1-1.1c0.4-0.3,0.9-0.4,1.5-0.4c0.9,0,1.5,0.3,2,0.8s0.7,1.3,0.7,2.3v0.6h-4.1c0,0.5,0.2,0.9,0.5,1.2
		c0.3,0.3,0.7,0.5,1.1,0.5c0.6,0,1.2-0.3,1.6-0.8l0.8,0.7c-0.3,0.4-0.6,0.7-1,0.9C341.7,96.2,341.2,96.3,340.7,96.3z M340.5,91
		c-0.4,0-0.7,0.1-0.9,0.4c-0.2,0.3-0.4,0.6-0.5,1.1h2.7v-0.1c0-0.5-0.2-0.8-0.4-1.1C341.2,91.1,340.9,91,340.5,91z"/>
	<path class="st4" d="M345.6,90l0,0.7c0.5-0.6,1.1-0.8,1.8-0.8c1.3,0,2,0.7,2,2.2v4.1H348v-4c0-0.4-0.1-0.7-0.3-0.9
		c-0.2-0.2-0.5-0.3-0.8-0.3c-0.6,0-1,0.3-1.3,0.8v4.4h-1.4V90H345.6z"/>
	<path class="st4" d="M353.4,95.2c0.4,0,0.6-0.1,0.9-0.3c0.2-0.2,0.4-0.5,0.4-0.8h1.3c0,0.4-0.1,0.8-0.4,1.1
		c-0.2,0.3-0.5,0.6-0.9,0.8c-0.4,0.2-0.8,0.3-1.3,0.3c-0.9,0-1.6-0.3-2.1-0.8c-0.5-0.6-0.8-1.3-0.8-2.3V93c0-1,0.3-1.7,0.8-2.3
		c0.5-0.6,1.2-0.9,2.1-0.9c0.7,0,1.3,0.2,1.8,0.7c0.5,0.4,0.7,1,0.7,1.7h-1.3c0-0.4-0.1-0.7-0.4-0.9c-0.2-0.2-0.5-0.3-0.9-0.3
		c-0.5,0-0.8,0.2-1.1,0.5c-0.2,0.3-0.4,0.8-0.4,1.5v0.2c0,0.7,0.1,1.2,0.4,1.5C352.6,95,353,95.2,353.4,95.2z"/>
	<path class="st4" d="M359.8,96.3c-0.9,0-1.6-0.3-2.2-0.8c-0.6-0.6-0.8-1.3-0.8-2.2v-0.2c0-0.6,0.1-1.2,0.4-1.7
		c0.2-0.5,0.6-0.9,1-1.1c0.4-0.3,0.9-0.4,1.5-0.4c0.9,0,1.5,0.3,2,0.8s0.7,1.3,0.7,2.3v0.6h-4.1c0,0.5,0.2,0.9,0.5,1.2
		c0.3,0.3,0.7,0.5,1.1,0.5c0.6,0,1.2-0.3,1.6-0.8l0.8,0.7c-0.2,0.4-0.6,0.7-1,0.9S360.3,96.3,359.8,96.3z M359.6,91
		c-0.4,0-0.7,0.1-0.9,0.4c-0.2,0.3-0.4,0.6-0.5,1.1h2.7v-0.1c0-0.5-0.2-0.8-0.4-1.1C360.3,91.1,360,91,359.6,91z"/>
</g>
<g>
	<path class="st9" d="M337.7,74.4c-1.3,0-2.6-0.5-3.5-1.5c-1.3-1.3-1.8-3.3-1.2-5c0.1-0.2,0.2-0.3,0.4-0.3c0.2,0,0.3,0,0.5,0.1
		l5.6,5.6c0.1,0.1,0.2,0.3,0.1,0.5c0,0.2-0.2,0.3-0.3,0.4C338.7,74.3,338.2,74.4,337.7,74.4z M333.7,69.1c-0.1,1.1,0.3,2.3,1.2,3.1
		c0.8,0.8,2,1.2,3.1,1.2L333.7,69.1z"/>
</g>
<g>
	<path class="st9" d="M333,82.4c-0.1,0-0.3-0.1-0.4-0.1l-7.6-7.6c-0.1-0.1-0.2-0.3-0.1-0.5c0-0.2,0.2-0.3,0.3-0.4
		c2.3-0.8,4.8-0.2,6.6,1.6c1.8,1.7,2.4,4.3,1.6,6.6c-0.1,0.2-0.2,0.3-0.4,0.3C333.1,82.4,333,82.4,333,82.4z M326.4,74.6l6.4,6.4
		c0.3-1.7-0.3-3.5-1.6-4.8C329.8,74.8,328.1,74.3,326.4,74.6z"/>
</g>
<g>
	<path class="st9" d="M329.8,75.1c-0.1,0-0.3,0-0.4-0.1c-0.2-0.2-0.2-0.5,0-0.7l3.7-3.7c0.2-0.2,0.5-0.2,0.7,0s0.2,0.5,0,0.7
		l-3.7,3.7C330.1,75.1,329.9,75.1,329.8,75.1z"/>
</g>
<g>
	<path class="st9" d="M332.6,77.9c-0.1,0-0.3,0-0.4-0.1c-0.2-0.2-0.2-0.5,0-0.7l3.7-3.7c0.2-0.2,0.5-0.2,0.7,0s0.2,0.5,0,0.7
		l-3.7,3.7C332.9,77.9,332.7,77.9,332.6,77.9z"/>
</g>
<g>
	<path class="st9" d="M323.7,84c-0.1,0-0.3,0-0.4-0.1c-0.2-0.2-0.2-0.5,0-0.7l5.4-5.4c0.2-0.2,0.5-0.2,0.7,0s0.2,0.5,0,0.7l-5.4,5.4
		C324,84,323.8,84,323.7,84z"/>
</g>
<g>
	<path class="st10" d="M361.9,208.8c-0.4-0.7-1.2-1.1-2.2-1.1h-4.1h-7.8c-1,0-1.8,0.4-2.2,1.1c-0.4,0.7-0.3,1.6,0.2,2.5l6,10.5
		c0.5,0.9,1.2,1.4,2,1.4c0.8,0,1.5-0.5,2-1.4l6-10.5C362.3,210.4,362.3,209.5,361.9,208.8z M346.5,209.4c0.2-0.3,0.7-0.5,1.3-0.5
		h7.8c0.6,0,1.1,0.2,1.3,0.5c0.2,0.3,0.1,0.9-0.2,1.4l-0.3,0.6c-0.2-0.1-0.4-0.2-0.6-0.2l-6,0c-1,0-1.8,0.4-2.2,1.1l-0.9-1.5
		C346.3,210.2,346.3,209.7,346.5,209.4z M353.7,216C353.7,216,353.7,216,353.7,216l-1.5-2.7l-0.5-0.9c0,0,0-0.1,0-0.1
		c0,0,0.1,0,0.1,0h4c0.1,0,0.1,0,0.1,0c0,0,0,0,0,0L353.7,216C353.8,216,353.8,216,353.7,216z M354.9,221.2
		c-0.3,0.6-0.7,0.9-1.1,0.9c-0.4,0-0.8-0.3-1.1-0.9l-4.1-7.3c-0.2-0.4-0.2-0.9,0-1.1c0.2-0.3,0.7-0.5,1.3-0.5h0.8
		c0,0.2,0.1,0.4,0.2,0.7l3,5.3c0.5,0.9,1.2,1.4,2,1.4c0,0,0,0,0,0L354.9,221.2z M360.8,210.8l-4,7.1c-0.3,0.4-0.7,0.7-1,0.7
		c-0.4,0-0.8-0.3-1.1-0.9l-0.4-0.7c0.2-0.1,0.3-0.3,0.5-0.5l2.9-5.1c0.5-0.9,0.6-1.8,0.2-2.5c0,0,0,0,0,0h1.9c0.6,0,1.1,0.2,1.3,0.5
		C361.2,209.7,361.1,210.2,360.8,210.8z"/>
</g>
<g>
	<g>
		<path class="st7" d="M367.9,215.7h1.3l1.8,4.6l1.7-4.6h1.2l-2.3,6h-1.2L367.9,215.7z"/>
	</g>
	<g>
		<path class="st7" d="M382.2,215.7h1.1v0.9h0c0-0.1,0.1-0.2,0.2-0.3c0.1-0.1,0.2-0.2,0.4-0.4c0.2-0.1,0.4-0.2,0.6-0.3
			c0.2-0.1,0.5-0.1,0.7-0.1c0.4,0,0.8,0.1,1.1,0.3c0.3,0.2,0.5,0.5,0.7,0.8c0.2-0.4,0.5-0.6,0.8-0.8c0.4-0.2,0.7-0.3,1.1-0.3
			c0.5,0,0.8,0.1,1.1,0.2c0.3,0.2,0.5,0.4,0.7,0.6c0.2,0.2,0.3,0.5,0.3,0.8s0.1,0.6,0.1,1v3.5h-1.1v-3.3c0-0.2,0-0.4,0-0.7
			c0-0.2-0.1-0.4-0.2-0.6c-0.1-0.2-0.2-0.3-0.4-0.4c-0.2-0.1-0.4-0.1-0.7-0.1c-0.5,0-0.9,0.2-1.2,0.5c-0.2,0.3-0.4,0.8-0.4,1.3v3.3
			h-1.1v-3.1c0-0.3,0-0.5,0-0.8c0-0.2-0.1-0.4-0.2-0.6c-0.1-0.2-0.2-0.3-0.4-0.4c-0.2-0.1-0.4-0.1-0.7-0.1c-0.2,0-0.4,0-0.6,0.1
			c-0.2,0.1-0.4,0.2-0.5,0.4c-0.1,0.2-0.3,0.4-0.3,0.6c-0.1,0.2-0.1,0.5-0.1,0.9v3.1h-1.1V215.7z"/>
	</g>
	<g>
		<path class="st7" d="M392.7,215.7h1.1v0.9h0c0.2-0.3,0.5-0.6,0.9-0.7c0.4-0.2,0.8-0.3,1.2-0.3c0.5,0,0.9,0.1,1.3,0.2
			c0.4,0.2,0.7,0.4,1,0.7c0.3,0.3,0.5,0.6,0.6,1c0.1,0.4,0.2,0.8,0.2,1.2c0,0.4-0.1,0.9-0.2,1.2c-0.1,0.4-0.3,0.7-0.6,1
			c-0.3,0.3-0.6,0.5-1,0.7c-0.4,0.2-0.8,0.2-1.3,0.2c-0.4,0-0.8-0.1-1.2-0.3c-0.4-0.2-0.7-0.4-0.9-0.7h0v2.4h-1.1V215.7z
			 M395.8,216.6c-0.3,0-0.6,0.1-0.8,0.2c-0.2,0.1-0.4,0.2-0.6,0.4c-0.2,0.2-0.3,0.4-0.4,0.7c-0.1,0.3-0.1,0.5-0.1,0.8
			c0,0.3,0,0.6,0.1,0.8c0.1,0.3,0.2,0.5,0.4,0.7c0.2,0.2,0.4,0.3,0.6,0.4c0.2,0.1,0.5,0.2,0.8,0.2s0.6-0.1,0.8-0.2
			c0.2-0.1,0.4-0.2,0.6-0.4c0.2-0.2,0.3-0.4,0.4-0.7c0.1-0.3,0.1-0.5,0.1-0.8c0-0.3,0-0.6-0.1-0.8c-0.1-0.3-0.2-0.5-0.4-0.7
			c-0.2-0.2-0.4-0.3-0.6-0.4C396.4,216.6,396.1,216.6,395.8,216.6z"/>
	</g>
	<g>
		<path class="st7" d="M377.4,221.8c0.9,0,1.7-0.4,2.2-1v0.8h1v-6h-1v0.9c-0.5-0.6-1.4-1-2.2-1c-1.7,0-3,1.4-3,3.1
			C374.4,220.4,375.8,221.8,377.4,221.8z M377.6,216.6c1.1,0,2,0.9,2,2.1c0,1.2-0.9,2.1-2,2.1c-1.2,0-2-0.9-2-2.1
			C375.6,217.5,376.4,216.6,377.6,216.6z"/>
	</g>
</g>
<g>
	<path class="st10" d="M164,208.3c-0.4-0.7-1.2-1.1-2.2-1.1h-4.1h-7.8c-1,0-1.8,0.4-2.2,1.1c-0.4,0.7-0.3,1.6,0.2,2.5l6,10.5
		c0.5,0.9,1.2,1.4,2,1.4c0.8,0,1.5-0.5,2-1.4l6-10.5C164.4,209.8,164.4,209,164,208.3z M148.6,208.8c0.2-0.3,0.7-0.5,1.3-0.5h7.8
		c0.6,0,1.1,0.2,1.3,0.5c0.2,0.3,0.1,0.9-0.2,1.4l-0.3,0.6c-0.2-0.1-0.4-0.2-0.6-0.2l-6,0c-1,0-1.8,0.4-2.2,1.1l-0.9-1.5
		C148.4,209.7,148.4,209.1,148.6,208.8z M155.8,215.4C155.8,215.4,155.8,215.4,155.8,215.4l-1.5-2.7l-0.5-0.9c0,0,0-0.1,0-0.1
		c0,0,0.1,0,0.1,0h4c0.1,0,0.1,0,0.1,0c0,0,0,0,0,0L155.8,215.4C155.9,215.4,155.9,215.4,155.8,215.4z M157,220.7
		c-0.3,0.6-0.7,0.9-1.1,0.9c-0.4,0-0.8-0.3-1.1-0.9l-4.1-7.3c-0.2-0.4-0.2-0.9,0-1.1c0.2-0.3,0.7-0.5,1.3-0.5h0.8
		c0,0.2,0.1,0.4,0.2,0.7l3,5.3c0.5,0.9,1.2,1.4,2,1.4c0,0,0,0,0,0L157,220.7z M162.9,210.2l-4,7.1c-0.3,0.4-0.7,0.7-1,0.7
		c-0.4,0-0.8-0.3-1.1-0.9l-0.4-0.7c0.2-0.1,0.3-0.3,0.5-0.5l2.9-5.1c0.5-0.9,0.6-1.8,0.2-2.5c0,0,0,0,0,0h1.9c0.6,0,1.1,0.2,1.3,0.5
		C163.3,209.1,163.2,209.7,162.9,210.2z"/>
</g>
<g>
	<g>
		<path class="st7" d="M170,215.1h1.3l1.8,4.6l1.7-4.6h1.2l-2.3,6h-1.2L170,215.1z"/>
	</g>
	<g>
		<path class="st7" d="M184.3,215.1h1.1v0.9h0c0-0.1,0.1-0.2,0.2-0.3c0.1-0.1,0.2-0.2,0.4-0.4c0.2-0.1,0.4-0.2,0.6-0.3
			c0.2-0.1,0.5-0.1,0.7-0.1c0.4,0,0.8,0.1,1.1,0.3c0.3,0.2,0.5,0.5,0.7,0.8c0.2-0.4,0.5-0.6,0.8-0.8c0.4-0.2,0.7-0.3,1.1-0.3
			c0.5,0,0.8,0.1,1.1,0.2c0.3,0.2,0.5,0.4,0.7,0.6c0.2,0.2,0.3,0.5,0.3,0.8s0.1,0.6,0.1,1v3.5h-1.1v-3.3c0-0.2,0-0.4,0-0.7
			c0-0.2-0.1-0.4-0.2-0.6c-0.1-0.2-0.2-0.3-0.4-0.4c-0.2-0.1-0.4-0.1-0.7-0.1c-0.5,0-0.9,0.2-1.2,0.5c-0.2,0.3-0.4,0.8-0.4,1.3v3.3
			h-1.1v-3.1c0-0.3,0-0.5,0-0.8c0-0.2-0.1-0.4-0.2-0.6c-0.1-0.2-0.2-0.3-0.4-0.4c-0.2-0.1-0.4-0.1-0.7-0.1c-0.2,0-0.4,0-0.6,0.1
			c-0.2,0.1-0.4,0.2-0.5,0.4c-0.1,0.2-0.3,0.4-0.3,0.6c-0.1,0.2-0.1,0.5-0.1,0.9v3.1h-1.1V215.1z"/>
	</g>
	<g>
		<path class="st7" d="M194.8,215.1h1.1v0.9h0c0.2-0.3,0.5-0.6,0.9-0.7c0.4-0.2,0.8-0.3,1.2-0.3c0.5,0,0.9,0.1,1.3,0.2
			c0.4,0.2,0.7,0.4,1,0.7c0.3,0.3,0.5,0.6,0.6,1c0.1,0.4,0.2,0.8,0.2,1.2c0,0.4-0.1,0.9-0.2,1.2c-0.1,0.4-0.3,0.7-0.6,1
			c-0.3,0.3-0.6,0.5-1,0.7s-0.8,0.2-1.3,0.2c-0.4,0-0.8-0.1-1.2-0.3s-0.7-0.4-0.9-0.7h0v2.4h-1.1V215.1z M197.9,216
			c-0.3,0-0.6,0.1-0.8,0.2c-0.2,0.1-0.4,0.2-0.6,0.4c-0.2,0.2-0.3,0.4-0.4,0.7c-0.1,0.3-0.1,0.5-0.1,0.8c0,0.3,0,0.6,0.1,0.8
			c0.1,0.3,0.2,0.5,0.4,0.7c0.2,0.2,0.4,0.3,0.6,0.4c0.2,0.1,0.5,0.2,0.8,0.2c0.3,0,0.6-0.1,0.8-0.2c0.2-0.1,0.4-0.2,0.6-0.4
			c0.2-0.2,0.3-0.4,0.4-0.7c0.1-0.3,0.1-0.5,0.1-0.8c0-0.3,0-0.6-0.1-0.8c-0.1-0.3-0.2-0.5-0.4-0.7c-0.2-0.2-0.4-0.3-0.6-0.4
			C198.5,216.1,198.2,216,197.9,216z"/>
	</g>
	<g>
		<path class="st7" d="M179.5,221.2c0.9,0,1.7-0.4,2.2-1v0.8h1v-6h-1v0.9c-0.5-0.6-1.4-1-2.2-1c-1.7,0-3,1.4-3,3.1
			S177.9,221.2,179.5,221.2z M179.7,216c1.1,0,2,0.9,2,2.1s-0.9,2.1-2,2.1c-1.2,0-2-0.9-2-2.1S178.5,216,179.7,216z"/>
	</g>
</g>
<g>
	<path class="st10" d="M164,267.1c-0.4-0.7-1.2-1.1-2.2-1.1h-4.1h-7.8c-1,0-1.8,0.4-2.2,1.1c-0.4,0.7-0.3,1.6,0.2,2.5l6,10.5
		c0.5,0.9,1.2,1.4,2,1.4c0.8,0,1.5-0.5,2-1.4l6-10.5C164.4,268.7,164.4,267.8,164,267.1z M148.6,267.7c0.2-0.3,0.7-0.5,1.3-0.5h7.8
		c0.6,0,1.1,0.2,1.3,0.5c0.2,0.3,0.1,0.9-0.2,1.4l-0.3,0.6c-0.2-0.1-0.4-0.2-0.6-0.2l-6,0c-1,0-1.8,0.4-2.2,1.1l-0.9-1.5
		C148.4,268.5,148.4,268,148.6,267.7z M155.8,274.3C155.8,274.3,155.8,274.3,155.8,274.3l-1.5-2.7l-0.5-0.9c0,0,0-0.1,0-0.1
		c0,0,0.1,0,0.1,0h4c0.1,0,0.1,0,0.1,0c0,0,0,0,0,0L155.8,274.3C155.9,274.3,155.9,274.3,155.8,274.3z M157,279.6
		c-0.3,0.6-0.7,0.9-1.1,0.9c-0.4,0-0.8-0.3-1.1-0.9l-4.1-7.3c-0.2-0.4-0.2-0.9,0-1.1c0.2-0.3,0.7-0.5,1.3-0.5h0.8
		c0,0.2,0.1,0.4,0.2,0.7l3,5.3c0.5,0.9,1.2,1.4,2,1.4c0,0,0,0,0,0L157,279.6z M162.9,269.1l-4,7.1c-0.3,0.4-0.7,0.7-1,0.7
		c-0.4,0-0.8-0.3-1.1-0.9l-0.4-0.7c0.2-0.1,0.3-0.3,0.5-0.5l2.9-5.1c0.5-0.9,0.6-1.8,0.2-2.5c0,0,0,0,0,0h1.9c0.6,0,1.1,0.2,1.3,0.5
		C163.3,268,163.2,268.5,162.9,269.1z"/>
</g>
<g>
	<g>
		<path class="st7" d="M170,274h1.3l1.8,4.6l1.7-4.6h1.2l-2.3,6h-1.2L170,274z"/>
	</g>
	<g>
		<path class="st7" d="M184.3,274h1.1v0.9h0c0-0.1,0.1-0.2,0.2-0.3c0.1-0.1,0.2-0.2,0.4-0.4c0.2-0.1,0.4-0.2,0.6-0.3
			c0.2-0.1,0.5-0.1,0.7-0.1c0.4,0,0.8,0.1,1.1,0.3c0.3,0.2,0.5,0.5,0.7,0.8c0.2-0.4,0.5-0.6,0.8-0.8c0.4-0.2,0.7-0.3,1.1-0.3
			c0.5,0,0.8,0.1,1.1,0.2c0.3,0.2,0.5,0.4,0.7,0.6c0.2,0.2,0.3,0.5,0.3,0.8s0.1,0.6,0.1,1v3.5h-1.1v-3.3c0-0.2,0-0.4,0-0.7
			c0-0.2-0.1-0.4-0.2-0.6c-0.1-0.2-0.2-0.3-0.4-0.4c-0.2-0.1-0.4-0.1-0.7-0.1c-0.5,0-0.9,0.2-1.2,0.5c-0.2,0.3-0.4,0.8-0.4,1.3v3.3
			h-1.1v-3.1c0-0.3,0-0.5,0-0.8c0-0.2-0.1-0.4-0.2-0.6c-0.1-0.2-0.2-0.3-0.4-0.4c-0.2-0.1-0.4-0.1-0.7-0.1c-0.2,0-0.4,0-0.6,0.1
			c-0.2,0.1-0.4,0.2-0.5,0.4c-0.1,0.2-0.3,0.4-0.3,0.6c-0.1,0.2-0.1,0.5-0.1,0.9v3.1h-1.1V274z"/>
	</g>
	<g>
		<path class="st7" d="M194.8,274h1.1v0.9h0c0.2-0.3,0.5-0.6,0.9-0.7c0.4-0.2,0.8-0.3,1.2-0.3c0.5,0,0.9,0.1,1.3,0.2
			c0.4,0.2,0.7,0.4,1,0.7c0.3,0.3,0.5,0.6,0.6,1c0.1,0.4,0.2,0.8,0.2,1.2c0,0.4-0.1,0.9-0.2,1.2c-0.1,0.4-0.3,0.7-0.6,1
			c-0.3,0.3-0.6,0.5-1,0.7s-0.8,0.2-1.3,0.2c-0.4,0-0.8-0.1-1.2-0.3s-0.7-0.4-0.9-0.7h0v2.4h-1.1V274z M197.9,274.9
			c-0.3,0-0.6,0.1-0.8,0.2c-0.2,0.1-0.4,0.2-0.6,0.4c-0.2,0.2-0.3,0.4-0.4,0.7c-0.1,0.3-0.1,0.5-0.1,0.8c0,0.3,0,0.6,0.1,0.8
			c0.1,0.3,0.2,0.5,0.4,0.7c0.2,0.2,0.4,0.3,0.6,0.4c0.2,0.1,0.5,0.2,0.8,0.2c0.3,0,0.6-0.1,0.8-0.2c0.2-0.1,0.4-0.2,0.6-0.4
			c0.2-0.2,0.3-0.4,0.4-0.7c0.1-0.3,0.1-0.5,0.1-0.8c0-0.3,0-0.6-0.1-0.8c-0.1-0.3-0.2-0.5-0.4-0.7c-0.2-0.2-0.4-0.3-0.6-0.4
			C198.5,274.9,198.2,274.9,197.9,274.9z"/>
	</g>
	<g>
		<path class="st7" d="M179.5,280.1c0.9,0,1.7-0.4,2.2-1v0.8h1v-6h-1v0.9c-0.5-0.6-1.4-1-2.2-1c-1.7,0-3,1.4-3,3.1
			C176.5,278.7,177.9,280.1,179.5,280.1z M179.7,274.9c1.1,0,2,0.9,2,2.1c0,1.2-0.9,2.1-2,2.1c-1.2,0-2-0.9-2-2.1
			C177.7,275.8,178.5,274.9,179.7,274.9z"/>
	</g>
</g>
<g>
	<path class="st10" d="M522,236.7c-0.4-0.7-1.2-1.1-2.2-1.1h-4.1h-7.8c-1,0-1.8,0.4-2.2,1.1c-0.4,0.7-0.3,1.6,0.2,2.5l6,10.5
		c0.5,0.9,1.2,1.4,2,1.4c0.8,0,1.5-0.5,2-1.4l6-10.5C522.3,238.3,522.4,237.4,522,236.7z M506.6,237.2c0.2-0.3,0.7-0.5,1.3-0.5h7.8
		c0.6,0,1.1,0.2,1.3,0.5c0.2,0.3,0.1,0.9-0.2,1.4l-0.3,0.6c-0.2-0.1-0.4-0.2-0.6-0.2l-6,0c-1,0-1.8,0.4-2.2,1.1l-0.9-1.5
		C506.4,238.1,506.4,237.6,506.6,237.2z M513.8,243.9C513.8,243.9,513.8,243.8,513.8,243.9l-1.5-2.7l-0.5-0.9c0,0,0-0.1,0-0.1
		c0,0,0.1,0,0.1,0h4c0.1,0,0.1,0,0.1,0c0,0,0,0,0,0L513.8,243.9C513.9,243.8,513.8,243.9,513.8,243.9z M514.9,249.1
		c-0.3,0.6-0.7,0.9-1.1,0.9c-0.4,0-0.8-0.3-1.1-0.9l-4.1-7.3c-0.2-0.4-0.2-0.9,0-1.1c0.2-0.3,0.7-0.5,1.3-0.5h0.8
		c0,0.2,0.1,0.4,0.2,0.7l3,5.3c0.5,0.9,1.2,1.4,2,1.4c0,0,0,0,0,0L514.9,249.1z M520.9,238.6l-4,7.1c-0.3,0.4-0.7,0.7-1,0.7
		c-0.4,0-0.8-0.3-1.1-0.9l-0.4-0.7c0.2-0.1,0.3-0.3,0.5-0.5l2.9-5.1c0.5-0.9,0.6-1.8,0.2-2.5c0,0,0,0,0,0h1.9c0.6,0,1.1,0.2,1.3,0.5
		C521.3,237.6,521.2,238.1,520.9,238.6z"/>
</g>
<g>
	<g>
		<path class="st7" d="M528,243.5h1.3l1.8,4.6l1.7-4.6h1.2l-2.3,6h-1.2L528,243.5z"/>
	</g>
	<g>
		<path class="st7" d="M542.3,243.5h1.1v0.9h0c0-0.1,0.1-0.2,0.2-0.3c0.1-0.1,0.2-0.2,0.4-0.4c0.2-0.1,0.4-0.2,0.6-0.3
			c0.2-0.1,0.5-0.1,0.7-0.1c0.4,0,0.8,0.1,1.1,0.3c0.3,0.2,0.5,0.5,0.7,0.8c0.2-0.4,0.5-0.6,0.8-0.8c0.4-0.2,0.7-0.3,1.1-0.3
			c0.5,0,0.8,0.1,1.1,0.2c0.3,0.2,0.5,0.4,0.7,0.6c0.2,0.2,0.3,0.5,0.3,0.8c0.1,0.3,0.1,0.6,0.1,1v3.5h-1.1v-3.3c0-0.2,0-0.4,0-0.7
			c0-0.2-0.1-0.4-0.2-0.6c-0.1-0.2-0.2-0.3-0.4-0.4c-0.2-0.1-0.4-0.1-0.7-0.1c-0.5,0-0.9,0.2-1.2,0.5c-0.2,0.3-0.4,0.8-0.4,1.3v3.3
			h-1.1v-3.1c0-0.3,0-0.5,0-0.8c0-0.2-0.1-0.4-0.2-0.6c-0.1-0.2-0.2-0.3-0.4-0.4c-0.2-0.1-0.4-0.1-0.7-0.1c-0.2,0-0.4,0-0.6,0.1
			c-0.2,0.1-0.4,0.2-0.5,0.4c-0.1,0.2-0.3,0.4-0.3,0.6c-0.1,0.2-0.1,0.5-0.1,0.9v3.1h-1.1V243.5z"/>
	</g>
	<g>
		<path class="st7" d="M552.8,243.5h1.1v0.9h0c0.2-0.3,0.5-0.6,0.9-0.7c0.4-0.2,0.8-0.3,1.2-0.3c0.5,0,0.9,0.1,1.3,0.2
			c0.4,0.2,0.7,0.4,1,0.7c0.3,0.3,0.5,0.6,0.6,1c0.1,0.4,0.2,0.8,0.2,1.2c0,0.4-0.1,0.9-0.2,1.2c-0.1,0.4-0.3,0.7-0.6,1
			c-0.3,0.3-0.6,0.5-1,0.7c-0.4,0.2-0.8,0.2-1.3,0.2c-0.4,0-0.8-0.1-1.2-0.3c-0.4-0.2-0.7-0.4-0.9-0.7h0v2.4h-1.1V243.5z
			 M555.9,244.4c-0.3,0-0.6,0.1-0.8,0.2c-0.2,0.1-0.4,0.2-0.6,0.4c-0.2,0.2-0.3,0.4-0.4,0.7c-0.1,0.3-0.1,0.5-0.1,0.8
			c0,0.3,0,0.6,0.1,0.8c0.1,0.3,0.2,0.5,0.4,0.7c0.2,0.2,0.4,0.3,0.6,0.4c0.2,0.1,0.5,0.2,0.8,0.2c0.3,0,0.6-0.1,0.8-0.2
			c0.2-0.1,0.4-0.2,0.6-0.4c0.2-0.2,0.3-0.4,0.4-0.7c0.1-0.3,0.1-0.5,0.1-0.8c0-0.3,0-0.6-0.1-0.8c-0.1-0.3-0.2-0.5-0.4-0.7
			c-0.2-0.2-0.4-0.3-0.6-0.4C556.5,244.5,556.2,244.4,555.9,244.4z"/>
	</g>
	<g>
		<path class="st7" d="M537.5,249.7c0.9,0,1.7-0.4,2.2-1v0.8h1v-6h-1v0.9c-0.5-0.6-1.4-1-2.2-1c-1.7,0-3,1.4-3,3.1
			C534.5,248.3,535.8,249.7,537.5,249.7z M537.7,244.4c1.1,0,2,0.9,2,2.1c0,1.2-0.9,2.1-2,2.1c-1.2,0-2-0.9-2-2.1
			C535.7,245.4,536.5,244.4,537.7,244.4z"/>
	</g>
</g>
<g>
	<path class="st10" d="M522,176.3c-0.4-0.7-1.2-1.1-2.2-1.1h-4.1h-7.8c-1,0-1.8,0.4-2.2,1.1c-0.4,0.7-0.3,1.6,0.2,2.5l6,10.5
		c0.5,0.9,1.2,1.4,2,1.4c0.8,0,1.5-0.5,2-1.4l6-10.5C522.3,177.9,522.4,177,522,176.3z M506.6,176.8c0.2-0.3,0.7-0.5,1.3-0.5h7.8
		c0.6,0,1.1,0.2,1.3,0.5c0.2,0.3,0.1,0.9-0.2,1.4l-0.3,0.6c-0.2-0.1-0.4-0.2-0.6-0.2l-6,0c-1,0-1.8,0.4-2.2,1.1l-0.9-1.5
		C506.4,177.7,506.4,177.2,506.6,176.8z M513.8,183.5C513.8,183.4,513.8,183.4,513.8,183.5l-1.5-2.7l-0.5-0.9c0,0,0-0.1,0-0.1
		c0,0,0.1,0,0.1,0h4c0.1,0,0.1,0,0.1,0c0,0,0,0,0,0L513.8,183.5C513.9,183.4,513.8,183.4,513.8,183.5z M514.9,188.7
		c-0.3,0.6-0.7,0.9-1.1,0.9c-0.4,0-0.8-0.3-1.1-0.9l-4.1-7.3c-0.2-0.4-0.2-0.9,0-1.1c0.2-0.3,0.7-0.5,1.3-0.5h0.8
		c0,0.2,0.1,0.4,0.2,0.7l3,5.3c0.5,0.9,1.2,1.4,2,1.4c0,0,0,0,0,0L514.9,188.7z M520.9,178.2l-4,7.1c-0.3,0.4-0.7,0.7-1,0.7
		c-0.4,0-0.8-0.3-1.1-0.9l-0.4-0.7c0.2-0.1,0.3-0.3,0.5-0.5l2.9-5.1c0.5-0.9,0.6-1.8,0.2-2.5c0,0,0,0,0,0h1.9c0.6,0,1.1,0.2,1.3,0.5
		C521.3,177.2,521.2,177.7,520.9,178.2z"/>
</g>
<g>
	<g>
		<path class="st7" d="M528,183.1h1.3l1.8,4.6l1.7-4.6h1.2l-2.3,6h-1.2L528,183.1z"/>
	</g>
	<g>
		<path class="st7" d="M542.3,183.1h1.1v0.9h0c0-0.1,0.1-0.2,0.2-0.3c0.1-0.1,0.2-0.2,0.4-0.4c0.2-0.1,0.4-0.2,0.6-0.3
			c0.2-0.1,0.5-0.1,0.7-0.1c0.4,0,0.8,0.1,1.1,0.3c0.3,0.2,0.5,0.5,0.7,0.8c0.2-0.4,0.5-0.6,0.8-0.8c0.4-0.2,0.7-0.3,1.1-0.3
			c0.5,0,0.8,0.1,1.1,0.2c0.3,0.2,0.5,0.4,0.7,0.6c0.2,0.2,0.3,0.5,0.3,0.8c0.1,0.3,0.1,0.6,0.1,1v3.5h-1.1v-3.3c0-0.2,0-0.4,0-0.7
			c0-0.2-0.1-0.4-0.2-0.6c-0.1-0.2-0.2-0.3-0.4-0.4c-0.2-0.1-0.4-0.1-0.7-0.1c-0.5,0-0.9,0.2-1.2,0.5c-0.2,0.3-0.4,0.8-0.4,1.3v3.3
			h-1.1V186c0-0.3,0-0.5,0-0.8c0-0.2-0.1-0.4-0.2-0.6c-0.1-0.2-0.2-0.3-0.4-0.4c-0.2-0.1-0.4-0.1-0.7-0.1c-0.2,0-0.4,0-0.6,0.1
			c-0.2,0.1-0.4,0.2-0.5,0.4c-0.1,0.2-0.3,0.4-0.3,0.6c-0.1,0.2-0.1,0.5-0.1,0.9v3.1h-1.1V183.1z"/>
	</g>
	<g>
		<path class="st7" d="M552.8,183.1h1.1v0.9h0c0.2-0.3,0.5-0.6,0.9-0.7c0.4-0.2,0.8-0.3,1.2-0.3c0.5,0,0.9,0.1,1.3,0.2
			c0.4,0.2,0.7,0.4,1,0.7c0.3,0.3,0.5,0.6,0.6,1c0.1,0.4,0.2,0.8,0.2,1.2c0,0.4-0.1,0.9-0.2,1.2c-0.1,0.4-0.3,0.7-0.6,1
			c-0.3,0.3-0.6,0.5-1,0.7c-0.4,0.2-0.8,0.2-1.3,0.2c-0.4,0-0.8-0.1-1.2-0.3c-0.4-0.2-0.7-0.4-0.9-0.7h0v2.4h-1.1V183.1z M555.9,184
			c-0.3,0-0.6,0.1-0.8,0.2c-0.2,0.1-0.4,0.2-0.6,0.4c-0.2,0.2-0.3,0.4-0.4,0.7c-0.1,0.3-0.1,0.5-0.1,0.8c0,0.3,0,0.6,0.1,0.8
			c0.1,0.3,0.2,0.5,0.4,0.7c0.2,0.2,0.4,0.3,0.6,0.4c0.2,0.1,0.5,0.2,0.8,0.2c0.3,0,0.6-0.1,0.8-0.2c0.2-0.1,0.4-0.2,0.6-0.4
			c0.2-0.2,0.3-0.4,0.4-0.7c0.1-0.3,0.1-0.5,0.1-0.8c0-0.3,0-0.6-0.1-0.8c-0.1-0.3-0.2-0.5-0.4-0.7c-0.2-0.2-0.4-0.3-0.6-0.4
			C556.5,184.1,556.2,184,555.9,184z"/>
	</g>
	<g>
		<path class="st7" d="M537.5,189.3c0.9,0,1.7-0.4,2.2-1v0.8h1v-6h-1v0.9c-0.5-0.6-1.4-1-2.2-1c-1.7,0-3,1.4-3,3.1
			C534.5,187.8,535.8,189.3,537.5,189.3z M537.7,184c1.1,0,2,0.9,2,2.1c0,1.2-0.9,2.1-2,2.1c-1.2,0-2-0.9-2-2.1
			C535.7,184.9,536.5,184,537.7,184z"/>
	</g>
</g>
</svg>
