<?xml version="1.0" encoding="UTF-8"?>
<svg width="134px" height="40px" viewBox="0 0 134 40" version="1.1" xmlns="http://www.w3.org/2000/svg" xmlns:xlink="http://www.w3.org/1999/xlink">
    <!-- Generator: Sketch 45.1 (43504) - http://www.bohemiancoding.com/sketch -->
    <title>logo-long-colour</title>
    <desc>Created with Sketch.</desc>
    <defs></defs>
    <g id="Page-1" stroke="none" stroke-width="1" fill="none" fill-rule="evenodd">
        <g id="logo-long-colour" fill-rule="nonzero">
            <path d="M43.3641117,2.8 C42.3641117,1 40.2641117,0 37.5641117,0 L26.8641117,0 L6.46411171,0 C3.76411171,0 1.66411171,1 0.664111714,2.8 C-0.335888286,4.6 -0.235888286,6.9 1.16411171,9.2 L16.7641117,36.1 C18.1641117,38.4 19.9641117,39.7 22.0641117,39.7 C24.1641117,39.7 26.0641117,38.4 27.3641117,36.1 L42.9641117,9.2 C44.2641117,6.8 44.4641117,4.6 43.3641117,2.8 Z M3.06411171,4.1 C3.56411171,3.2 4.86411171,2.7 6.46411171,2.7 L26.8641117,2.7 C28.5641117,2.7 29.7641117,3.2 30.2641117,4.1 C30.7641117,5 30.5641117,6.3 29.7641117,7.8 L28.8641117,9.4 C28.3641117,9.1 27.7641117,9 27.1641117,9 L11.5641117,9 C8.86411171,9 6.76411171,10 5.76411171,11.8 L3.56411171,7.8 C2.76411171,6.4 2.56411171,5 3.06411171,4.1 Z M22.0641117,21.3 C22.0641117,21.3 21.9641117,21.2 21.8641117,21.1 L18.0641117,14.5 L16.6641117,12.1 C16.5641117,12 16.5641117,11.9 16.5641117,11.8 C16.6641117,11.8 16.7641117,11.8 16.8641117,11.8 L27.2641117,11.8 C27.3641117,11.8 27.4641117,11.8 27.5641117,11.8 C27.5641117,11.8 27.5641117,11.8 27.5641117,11.9 L22.2641117,21.1 C22.1641117,21.1 22.0641117,21.2 22.0641117,21.3 Z M24.9641117,34.8 C24.1641117,36.2 23.0641117,37.1 22.0641117,37.1 C21.0641117,37.1 19.9641117,36.3 19.1641117,34.8 L8.36411171,16.1 C7.86411171,15 7.86411171,13.9 8.26411171,13.2 C8.76411171,12.3 10.0641117,11.8 11.6641117,11.8 L13.8641117,11.8 C13.8641117,12.4 14.0641117,12.9 14.3641117,13.5 L22.1641117,27 C23.5641117,29.3 25.3641117,30.6 27.4641117,30.6 C27.4641117,30.6 27.4641117,30.6 27.4641117,30.6 L24.9641117,34.8 Z M40.5641117,7.8 L29.9641117,26.1 C29.1641117,27.2 28.2641117,27.8 27.3641117,27.8 C26.3641117,27.8 25.2641117,27 24.4641117,25.5 L23.3641117,23.6 C23.8641117,23.3 24.2641117,22.9 24.5641117,22.3 L32.1641117,9.1 C33.5641117,6.8 33.6641117,4.5 32.6641117,2.7 C32.6641117,2.7 32.6641117,2.7 32.6641117,2.7 L37.5641117,2.7 C39.2641117,2.7 40.4641117,3.2 40.9641117,4.1 C41.5641117,5 41.3641117,6.4 40.5641117,7.8 Z" id="Shape" fill="#FF405E"></path>
            <g id="Group" transform="translate(51.000000, 13.000000)" fill="#FFFFFF">
                <polygon id="Shape" points="0.9 0.9 4.4 0.9 9.1 13 13.6 0.9 16.8 0.9 10.6 16.7 7.3 16.7"></polygon>
                <path d="M38.7,0.9 L41.5,0.9 L41.5,3.4 L41.6,3.4 C41.7,3.2 41.8,2.9 42.1,2.6 C42.4,2.3 42.7,2 43.2,1.7 C43.6,1.4 44.1,1.1 44.7,0.9 C45.3,0.7 45.9,0.6 46.6,0.6 C47.8,0.6 48.8,0.8 49.6,1.3 C50.4,1.8 51.1,2.5 51.6,3.5 C52.1,2.5 52.8,1.8 53.8,1.3 C54.7,0.8 55.7,0.6 56.6,0.6 C57.8,0.6 58.8,0.8 59.6,1.2 C60.4,1.6 61,2.1 61.4,2.8 C61.8,3.5 62.1,4.2 62.3,5 C62.5,5.8 62.5,6.7 62.5,7.6 L62.5,16.8 L59.5,16.8 L59.5,8 C59.5,7.4 59.5,6.8 59.4,6.3 C59.3,5.7 59.2,5.3 58.9,4.8 C58.7,4.4 58.3,4 57.9,3.8 C57.5,3.5 56.9,3.4 56.1,3.4 C54.7,3.4 53.6,3.8 53,4.7 C52.4,5.6 52.1,6.7 52.1,8.1 L52.1,16.7 L49.1,16.7 L49.1,8.4 C49.1,7.6 49.1,7 49,6.3 C48.9,5.7 48.8,5.1 48.5,4.7 C48.3,4.2 47.9,3.9 47.5,3.6 C47.1,3.3 46.5,3.2 45.8,3.2 C45.3,3.2 44.8,3.3 44.3,3.5 C43.8,3.7 43.4,4 43,4.4 C42.6,4.8 42.3,5.4 42.1,6 C41.9,6.7 41.8,7.4 41.8,8.3 L41.8,16.5 L38.8,16.5 L38.8,0.9 L38.7,0.9 Z" id="Shape"></path>
                <path d="M66.4,0.9 L69.4,0.9 L69.4,3.2 L69.5,3.2 C70.1,2.4 70.9,1.7 71.9,1.2 C72.9,0.7 73.9,0.5 75,0.5 C76.2,0.5 77.3,0.7 78.3,1.1 C79.3,1.5 80.1,2.1 80.8,2.9 C81.5,3.7 82,4.5 82.4,5.5 C82.8,6.5 83,7.6 83,8.7 C83,9.9 82.8,11 82.4,12 C82,13 81.5,13.9 80.8,14.6 C80.1,15.3 79.3,15.9 78.3,16.3 C77.3,16.7 76.2,16.9 75,16.9 C73.9,16.9 72.8,16.7 71.8,16.2 C70.8,15.7 70,15.1 69.5,14.3 L69.4,14.3 L69.4,20.7 L66.4,20.7 L66.4,0.9 Z M74.6,3.3 C73.8,3.3 73.1,3.4 72.4,3.7 C71.8,4 71.2,4.4 70.8,4.8 C70.4,5.3 70,5.9 69.8,6.5 C69.6,7.2 69.4,7.9 69.4,8.7 C69.4,9.5 69.5,10.2 69.8,10.9 C70,11.6 70.4,12.2 70.8,12.6 C71.2,13.1 71.8,13.5 72.4,13.7 C73,14 73.8,14.1 74.6,14.1 C75.4,14.1 76.1,14 76.8,13.7 C77.4,13.4 78,13 78.4,12.6 C78.8,12.1 79.2,11.5 79.4,10.9 C79.6,10.2 79.8,9.5 79.8,8.7 C79.8,7.9 79.7,7.2 79.4,6.5 C79.2,5.8 78.8,5.2 78.4,4.8 C78,4.3 77.4,3.9 76.8,3.7 C76.1,3.5 75.4,3.3 74.6,3.3 Z" id="Shape"></path>
                <path d="M26,17.2 C28.3,17.2 30.6,16.2 31.9,14.5 L31.9,16.7 L34.6,16.7 L34.6,0.7 L31.9,0.7 L31.9,3.1 C30.6,1.5 28.3,0.4 26,0.4 C21.6,0.4 18.1,4.1 18.1,8.7 C18,13.4 21.6,17.2 26,17.2 Z M26.4,3.3 C29.3,3.2 31.6,5.8 31.6,8.9 C31.6,12 29.3,14.5 26.4,14.5 C23.1,14.5 21.2,12 21.2,8.9 C21.2,5.8 23.2,3.3 26.4,3.3 Z" id="Shape"></path>
            </g>
        </g>
    </g>
</svg>