<svg id="Layer_1" xmlns="http://www.w3.org/2000/svg" viewBox="0 0 50 50"><style>.st0{fill:#ff405e}</style><path class="st0" d="M46.5 7.8C45.4 6 43.4 5 40.6 5H9.4C6.6 5 4.6 6 3.5 7.8c-1 1.8-.9 4.1.5 6.5l15.6 27.1C21 43.7 22.9 45 25 45c2.1 0 4-1.3 5.3-3.7l15.7-27c1.3-2.4 1.5-4.7.5-6.5zM5.9 9.2c.5-.9 1.8-1.4 3.4-1.4h20.5c1.7 0 2.9.5 3.4 1.4.5.9.3 2.2-.5 3.7l-.9 1.6c-.5-.3-1.1-.4-1.7-.4H14.4c-2.7 0-4.8 1-5.8 2.8L6.3 13c-.7-1.6-.9-2.9-.4-3.8zM25 26.4l-.2-.2-3.8-6.7-1.4-2.4c-.1-.1-.1-.2-.1-.3h11v.1l-5.3 9.3-.2.2zM27.9 40c-.8 1.4-1.9 2.3-2.9 2.3s-2.1-.8-2.9-2.3L11.2 21.2c-.5-1.2-.5-2.2-.1-2.9.5-.9 1.8-1.4 3.4-1.4h2.2c0 .6.2 1.1.5 1.7L25 32.1c1.4 2.4 3.3 3.7 5.3 3.7L27.9 40zm15.7-27.1L33 31.3c-.8 1.1-1.7 1.7-2.6 1.7-1 0-2.1-.8-2.9-2.3l-1.1-1.9c.5-.3.9-.7 1.2-1.3l7.6-13.3c1.4-2.4 1.5-4.6.5-6.4h5c1.7 0 2.9.5 3.4 1.4.5.9.3 2.2-.5 3.7z"/></svg>