<?xml version="1.0" encoding="utf-8"?>
<!-- Generator: Adobe Illustrator 19.2.1, SVG Export Plug-In . SVG Version: 6.00 Build 0)  -->
<svg version="1.1" id="Layer_1" xmlns="http://www.w3.org/2000/svg" xmlns:xlink="http://www.w3.org/1999/xlink" x="0px" y="0px"
	 viewBox="0 0 150 50" style="enable-background:new 0 0 150 50;" xml:space="preserve">
<style type="text/css">
	.st0{fill:#FF405E;}
	.st1{fill:#FFFFFF;}
</style>
<g id="Layer_2">
</g>
<g id="Layer_2_1_">
</g>
<path class="st0" d="M50.9,8c-1-1.8-3.1-2.8-5.8-2.8H34.4H14c-2.7,0-4.8,1-5.8,2.8c-1,1.8-0.9,4.1,0.5,6.4l15.6,26.9
	c1.4,2.3,3.2,3.6,5.3,3.6c2.1,0,4-1.3,5.3-3.6l15.6-26.9C51.8,12,52,9.8,50.9,8z M10.6,9.3c0.5-0.9,1.8-1.4,3.4-1.4h20.4
	c1.7,0,2.9,0.5,3.4,1.4c0.5,0.9,0.3,2.2-0.5,3.7l-0.9,1.6c-0.5-0.3-1.1-0.4-1.7-0.4l-15.6,0c-2.7,0-4.8,1-5.8,2.8L11.1,13
	C10.3,11.6,10.1,10.2,10.6,9.3z M29.6,26.5c0,0-0.1-0.1-0.2-0.2l-3.8-6.6l-1.4-2.4c-0.1-0.1-0.1-0.2-0.1-0.3c0.1,0,0.2,0,0.3,0h10.4
	c0.1,0,0.2,0,0.3,0c0,0,0,0,0,0.1l-5.3,9.2C29.7,26.3,29.6,26.4,29.6,26.5z M32.5,40c-0.8,1.4-1.9,2.3-2.9,2.3c-1,0-2.1-0.8-2.9-2.3
	L15.9,21.3c-0.5-1.1-0.5-2.2-0.1-2.9c0.5-0.9,1.8-1.4,3.4-1.4h2.2c0,0.6,0.2,1.1,0.5,1.7l7.8,13.5c1.4,2.3,3.2,3.6,5.3,3.6
	c0,0,0,0,0,0L32.5,40z M48.1,13L37.5,31.3c-0.8,1.1-1.7,1.7-2.6,1.7c-1,0-2.1-0.8-2.9-2.3l-1.1-1.9c0.5-0.3,0.9-0.7,1.2-1.3
	l7.6-13.2c1.4-2.3,1.5-4.6,0.5-6.4c0,0,0,0,0,0h4.9c1.7,0,2.9,0.5,3.4,1.4C49.1,10.2,48.9,11.6,48.1,13z"/>
<g>
	<path class="st1" d="M59.9,24.9h3.5L68.1,37l4.5-12.1h3.2l-6.2,15.8h-3.3L59.9,24.9z"/>
	<path class="st1" d="M97.7,24.9h2.8v2.5h0.1c0.1-0.2,0.2-0.5,0.5-0.8c0.3-0.3,0.6-0.6,1.1-0.9c0.4-0.3,0.9-0.6,1.5-0.8
		c0.6-0.2,1.2-0.3,1.9-0.3c1.2,0,2.2,0.2,3,0.7c0.8,0.5,1.5,1.2,2,2.2c0.5-1,1.2-1.7,2.2-2.2c0.9-0.5,1.9-0.7,2.8-0.7
		c1.2,0,2.2,0.2,3,0.6c0.8,0.4,1.4,0.9,1.8,1.6c0.4,0.7,0.7,1.4,0.9,2.2c0.2,0.8,0.2,1.7,0.2,2.6v9.2h-3v-8.8c0-0.6,0-1.2-0.1-1.7
		c-0.1-0.6-0.2-1-0.5-1.5c-0.2-0.4-0.6-0.8-1-1c-0.4-0.3-1-0.4-1.8-0.4c-1.4,0-2.5,0.4-3.1,1.3c-0.6,0.9-0.9,2-0.9,3.4v8.6h-3v-8.3
		c0-0.8,0-1.4-0.1-2.1c-0.1-0.6-0.2-1.2-0.5-1.6c-0.2-0.5-0.6-0.8-1-1.1c-0.4-0.3-1-0.4-1.7-0.4c-0.5,0-1,0.1-1.5,0.3
		c-0.5,0.2-0.9,0.5-1.3,0.9c-0.4,0.4-0.7,1-0.9,1.6c-0.2,0.7-0.3,1.4-0.3,2.3v8.2h-3V24.9z"/>
	<path class="st1" d="M125.4,24.9h3v2.3h0.1c0.6-0.8,1.4-1.5,2.4-2c1-0.5,2-0.7,3.1-0.7c1.2,0,2.3,0.2,3.3,0.6c1,0.4,1.8,1,2.5,1.8
		c0.7,0.8,1.2,1.6,1.6,2.6c0.4,1,0.6,2.1,0.6,3.2c0,1.2-0.2,2.3-0.6,3.3c-0.4,1-0.9,1.9-1.6,2.6c-0.7,0.7-1.5,1.3-2.5,1.7
		s-2.1,0.6-3.3,0.6c-1.1,0-2.2-0.2-3.2-0.7c-1-0.5-1.8-1.1-2.3-1.9h-0.1v6.4h-3V24.9z M133.6,27.3c-0.8,0-1.5,0.1-2.2,0.4
		c-0.6,0.3-1.2,0.7-1.6,1.1c-0.4,0.5-0.8,1.1-1,1.7c-0.2,0.7-0.4,1.4-0.4,2.2c0,0.8,0.1,1.5,0.4,2.2c0.2,0.7,0.6,1.3,1,1.7
		c0.4,0.5,1,0.9,1.6,1.1c0.6,0.3,1.4,0.4,2.2,0.4c0.8,0,1.5-0.1,2.2-0.4c0.6-0.3,1.2-0.7,1.6-1.1c0.4-0.5,0.8-1.1,1-1.7
		c0.2-0.7,0.4-1.4,0.4-2.2c0-0.8-0.1-1.5-0.4-2.2c-0.2-0.7-0.6-1.3-1-1.7c-0.4-0.5-1-0.9-1.6-1.1C135.1,27.5,134.4,27.3,133.6,27.3z
		"/>
	<path class="st1" d="M85,41.2c2.3,0,4.6-1,5.9-2.7v2.2h2.7v-16h-2.7v2.4c-1.3-1.6-3.6-2.7-5.9-2.7c-4.4,0-7.9,3.7-7.9,8.3
		C77,37.4,80.6,41.2,85,41.2z M85.4,27.3c2.9-0.1,5.2,2.5,5.2,5.6c0,3.1-2.3,5.6-5.2,5.6c-3.3,0-5.2-2.5-5.2-5.6
		C80.2,29.8,82.2,27.3,85.4,27.3z"/>
</g>
</svg>
