<svg id="Layer_1" xmlns="http://www.w3.org/2000/svg" viewBox="0 0 150 50"><style>.st0{fill:#ff405e}.st1{fill:#183b4d}</style><path class="st0" d="M50.9 8c-1-1.8-3.1-2.8-5.8-2.8H14c-2.7 0-4.8 1-5.8 2.8-1 1.8-.9 4.1.5 6.4l15.6 26.9c1.4 2.3 3.2 3.6 5.3 3.6 2.1 0 4-1.3 5.3-3.6l15.6-26.9c1.3-2.4 1.5-4.6.4-6.4zM10.6 9.3c.5-.9 1.8-1.4 3.4-1.4h20.4c1.7 0 2.9.5 3.4 1.4.5.9.3 2.2-.5 3.7l-.9 1.6c-.5-.3-1.1-.4-1.7-.4H19.1c-2.7 0-4.8 1-5.8 2.8l-2.2-4c-.8-1.4-1-2.8-.5-3.7zm19 17.2l-.2-.2-3.8-6.6-1.4-2.4c-.1-.1-.1-.2-.1-.3h11v.1l-5.3 9.2c-.1 0-.2.1-.2.2zM32.5 40c-.8 1.4-1.9 2.3-2.9 2.3s-2.1-.8-2.9-2.3L15.9 21.3c-.5-1.1-.5-2.2-.1-2.9.5-.9 1.8-1.4 3.4-1.4h2.2c0 .6.2 1.1.5 1.7l7.8 13.5c1.4 2.3 3.2 3.6 5.3 3.6L32.5 40zm15.6-27L37.5 31.3c-.8 1.1-1.7 1.7-2.6 1.7-1 0-2.1-.8-2.9-2.3l-1.1-1.9c.5-.3.9-.7 1.2-1.3l7.6-13.2c1.4-2.3 1.5-4.6.5-6.4h4.9c1.7 0 2.9.5 3.4 1.4.6.9.4 2.3-.4 3.7z"/><path class="st1" d="M59.9 24.9h3.5L68.1 37l4.5-12.1h3.2l-6.2 15.8h-3.3l-6.4-15.8zm37.8 0h2.8v2.5h.1c.1-.2.2-.5.5-.8.3-.3.6-.6 1.1-.9.4-.3.9-.6 1.5-.8.6-.2 1.2-.3 1.9-.3 1.2 0 2.2.2 3 .7.8.5 1.5 1.2 2 2.2.5-1 1.2-1.7 2.2-2.2.9-.5 1.9-.7 2.8-.7 1.2 0 2.2.2 3 .6.8.4 1.4.9 1.8 1.6.4.7.7 1.4.9 2.2.2.8.2 1.7.2 2.6v9.2h-3V32c0-.6 0-1.2-.1-1.7-.1-.6-.2-1-.5-1.5-.2-.4-.6-.8-1-1-.4-.3-1-.4-1.8-.4-1.4 0-2.5.4-3.1 1.3-.6.9-.9 2-.9 3.4v8.6h-3v-8.3c0-.8 0-1.4-.1-2.1-.1-.6-.2-1.2-.5-1.6-.2-.5-.6-.8-1-1.1-.4-.3-1-.4-1.7-.4-.5 0-1 .1-1.5.3-.5.2-.9.5-1.3.9s-.7 1-.9 1.6c-.2.7-.3 1.4-.3 2.3v8.2h-3V24.9zm27.7 0h3v2.3h.1c.6-.8 1.4-1.5 2.4-2s2-.7 3.1-.7c1.2 0 2.3.2 3.3.6 1 .4 1.8 1 2.5 1.8s1.2 1.6 1.6 2.6c.4 1 .6 2.1.6 3.2 0 1.2-.2 2.3-.6 3.3-.4 1-.9 1.9-1.6 2.6-.7.7-1.5 1.3-2.5 1.7s-2.1.6-3.3.6c-1.1 0-2.2-.2-3.2-.7-1-.5-1.8-1.1-2.3-1.9h-.1v6.4h-3V24.9zm8.2 2.4c-.8 0-1.5.1-2.2.4-.6.3-1.2.7-1.6 1.1-.4.5-.8 1.1-1 1.7-.2.7-.4 1.4-.4 2.2 0 .8.1 1.5.4 2.2.2.7.6 1.3 1 1.7.4.5 1 .9 1.6 1.1.6.3 1.4.4 2.2.4.8 0 1.5-.1 2.2-.4.6-.3 1.2-.7 1.6-1.1.4-.5.8-1.1 1-1.7.2-.7.4-1.4.4-2.2 0-.8-.1-1.5-.4-2.2-.2-.7-.6-1.3-1-1.7-.4-.5-1-.9-1.6-1.1-.7-.2-1.4-.4-2.2-.4zM85 41.2c2.3 0 4.6-1 5.9-2.7v2.2h2.7v-16h-2.7v2.4c-1.3-1.6-3.6-2.7-5.9-2.7-4.4 0-7.9 3.7-7.9 8.3-.1 4.7 3.5 8.5 7.9 8.5zm.4-13.9c2.9-.1 5.2 2.5 5.2 5.6 0 3.1-2.3 5.6-5.2 5.6-3.3 0-5.2-2.5-5.2-5.6 0-3.1 2-5.6 5.2-5.6z"/></svg>