<svg id="Layer_1" xmlns="http://www.w3.org/2000/svg" viewBox="0 0 400 80"><style>.st0{fill:#ff405e}.st1{fill:#cddae2}.st2{fill:#183b4d}.st3{fill:#a5afb7}.st4{fill:#f2f6fa}.st5{fill:#7ba1b8}.st6{fill:#45778f}.st7{fill:#2d5e72}.st8{fill:#fff}.st9{clip-path:url(#SVGID_2_)}.st10,.st9{fill:none;stroke:#f0f5fa}.st11,.st12{fill:#173b4d}.st12{clip-path:url(#SVGID_4_)}.st13,.st14{fill:#f0f5fa}.st14{clip-path:url(#SVGID_6_)}.st15{fill:#173b4d}.st15,.st16,.st17{clip-path:url(#SVGID_8_)}.st16{fill:#ff405e}.st17{fill:none;stroke:#f0f5fa}.st18{fill:#96a1ab}.st19{clip-path:url(#SVGID_10_);fill:none;stroke:#f0f5fa}.st20{clip-path:url(#SVGID_12_);fill:#f0f5fa}.st21{fill:#19364d}.st22{fill:#174d60}.st23,.st24{fill:#bacad4}.st24{opacity:.5}</style><path class="st22" d="M12.7 69.4c-1.2 0-2.4-.3-3.4-.9-2.4-1.4-3.7-4.1-3.7-7.8V19.2c0-3.6 1.3-6.4 3.7-7.8 2.4-1.4 5.4-1.2 8.6.7l20.3 11.7 20.3-11.7c3.1-1.8 6.2-2 8.6-.7 2.4 1.4 3.7 4.1 3.7 7.8v41.6c0 3.6-1.3 6.4-3.7 7.8-2.4 1.4-5.4 1.2-8.6-.7L38.1 56.2 17.9 67.9c-1.8 1-3.6 1.5-5.2 1.5zm0-55.1c-.6 0-1.1.1-1.6.4-1.2.7-1.9 2.4-1.9 4.6v41.6c0 2.2.7 3.9 1.9 4.6 1.2.7 3 .5 4.9-.7l18.4-10.6-12-7c-2.9-1.7-4.7-4.1-4.8-6.6v-7.4c0-1.6.7-3 1.9-3.6 1.2-.7 2.7-.6 4.1.2l31.1 17.5c.2.1.3.2.4.2v-7.7c-.1-1.2-1.2-2.5-3-3.6L16 15.3c-1.2-.7-2.3-1-3.3-1zm8.6 18.4v7.7c.1 1.2 1.2 2.5 3 3.6l36 20.8c1.9 1.1 3.7 1.3 4.9.7 1.2-.7 1.9-2.4 1.9-4.6V19.2c0-2.2-.7-3.9-1.9-4.6-1.2-.7-3-.5-4.9.7L41.8 25.9l12 7c2.9 1.7 4.7 4.1 4.8 6.6v7.4c0 1.6-.7 3-1.9 3.6-1.2.7-2.7.6-4.1-.2L21.7 32.8c-.2-.1-.3-.1-.4-.1z"/><path class="st23" d="M105.5 34.1h4.1v3.6h.1c.1-.3.3-.7.8-1.2.4-.5.9-.9 1.6-1.4.6-.4 1.4-.8 2.2-1.1.9-.3 1.8-.5 2.8-.5 1.7 0 3.2.4 4.3 1.1 1.2.7 2.1 1.8 2.9 3.2.7-1.4 1.8-2.5 3.2-3.2 1.4-.7 2.7-1.1 4.1-1.1 1.8 0 3.2.3 4.4.9 1.1.6 2 1.4 2.7 2.3.6 1 1.1 2 1.3 3.3.2 1.2.4 2.5.4 3.8v13.4H136V44.3c0-.9-.1-1.7-.2-2.5s-.3-1.5-.7-2.1c-.4-.6-.9-1.1-1.5-1.5-.6-.4-1.5-.6-2.6-.6-2.1 0-3.6.6-4.5 1.9-.9 1.3-1.4 3-1.4 5v12.6h-4.4v-12c0-1.1-.1-2.1-.2-3-.1-.9-.3-1.7-.7-2.4-.3-.7-.8-1.2-1.5-1.6-.6-.4-1.5-.6-2.5-.6-.8 0-1.5.2-2.3.5-.7.3-1.4.8-1.9 1.4-.6.6-1 1.4-1.3 2.4-.3 1-.5 2.1-.5 3.4v11.9h-4.4v-23zM205.6 57c0 1.7-.3 3.3-.9 4.8-.6 1.4-1.4 2.7-2.5 3.7-1.1 1.1-2.4 1.9-4 2.5-1.6.6-3.3.9-5.1.9-2.2 0-4.2-.3-6-.9-1.8-.6-3.6-1.7-5.2-3.2l3-3.7c1.1 1.2 2.4 2.2 3.7 2.8 1.3.6 2.8.9 4.5.9 1.6 0 3-.2 4-.7 1.1-.5 1.9-1.1 2.6-1.8.6-.7 1.1-1.6 1.3-2.5.3-1 .4-1.9.4-2.9v-3.4h-.4c-.8 1.4-2 2.4-3.4 3.1-1.4.7-3 1-4.5 1-1.7 0-3.2-.3-4.7-.9-1.4-.6-2.7-1.4-3.7-2.5s-1.8-2.3-2.4-3.7c-.6-1.4-.9-3-.9-4.7 0-1.7.3-3.3.8-4.7.5-1.5 1.3-2.8 2.4-3.9 1-1.1 2.3-2 3.7-2.6 1.4-.6 3.1-.9 4.8-.9 1.6 0 3.1.3 4.5 1 1.5.7 2.6 1.6 3.5 2.9h.1v-3.3h4.4V57zm-12-19.4c-1.2 0-2.2.2-3.2.6-.9.4-1.7 1-2.4 1.7-.6.7-1.2 1.5-1.5 2.5-.4 1-.5 2.1-.5 3.2 0 2.3.7 4.2 2 5.6 1.4 1.4 3.2 2.1 5.5 2.1s4.2-.7 5.5-2.1c1.4-1.4 2-3.3 2-5.6 0-1.2-.2-2.2-.5-3.2-.4-1-.9-1.8-1.5-2.5s-1.4-1.2-2.4-1.7c-.8-.4-1.8-.6-3-.6zm21.8-3.5h4.4v3.5h.1c.6-1.2 1.5-2.2 2.9-3s2.9-1.1 4.7-1.1c1.1 0 2.2.2 3.2.5s1.9.9 2.7 1.6c.8.7 1.4 1.6 1.8 2.7.5 1.1.7 2.4.7 4v14.8h-4.4V43.6c0-1.1-.1-2-.4-2.7-.3-.8-.7-1.4-1.2-1.8-.5-.5-1-.8-1.7-1-.6-.2-1.3-.3-2-.3-.9 0-1.7.1-2.5.4-.8.3-1.5.8-2 1.4-.6.6-1 1.4-1.4 2.4-.3 1-.5 2.1-.5 3.4v11.9h-4.4V34.1zm33.5 13.2c0 1 .2 1.9.7 2.7s1 1.5 1.7 2.1c.7.6 1.5 1 2.5 1.4.9.3 1.9.5 2.9.5 1.4 0 2.5-.3 3.5-.9 1-.6 1.9-1.5 2.8-2.5l3.3 2.5c-2.4 3.1-5.8 4.7-10.2 4.7-1.8 0-3.5-.3-4.9-.9-1.5-.6-2.7-1.5-3.7-2.5-1-1.1-1.8-2.4-2.4-3.8-.6-1.5-.8-3.1-.8-4.8 0-1.7.3-3.3.9-4.8.6-1.5 1.4-2.8 2.5-3.8 1.1-1.1 2.3-1.9 3.8-2.5 1.5-.6 3-.9 4.8-.9 2 0 3.8.4 5.2 1.1 1.4.7 2.6 1.6 3.5 2.8.9 1.1 1.6 2.4 2 3.9.4 1.4.6 2.9.6 4.4v1.6h-18.7zm13.8-3.5c0-1-.2-1.9-.5-2.7-.3-.8-.7-1.5-1.2-2.1-.6-.6-1.2-1.1-2.1-1.4s-1.8-.5-2.9-.5c-1.1 0-2 .2-2.9.6-.9.4-1.6.9-2.3 1.6-.6.6-1.1 1.4-1.4 2.2-.3.8-.5 1.6-.5 2.4h13.8zm25.5-5.9h-6.3v12.3c0 .6.2 1.2.4 1.7s.5.9 1 1.2c.4.3 1.1.5 1.9.5.5 0 1.1 0 1.6-.1.6-.1 1.1-.3 1.5-.5v4c-.5.3-1.2.5-2 .6-.8.1-1.5.2-1.9.2-1.7 0-3-.2-3.9-.7-.9-.5-1.6-1.1-2-1.8-.4-.7-.7-1.6-.8-2.5-.1-.9-.1-1.9-.1-2.8V38h-5.1v-3.8h5.1v-6.5h4.4v6.5h6.3v3.7zm9.1-12c0-.9.3-1.6.9-2.3.6-.6 1.4-.9 2.3-.9.9 0 1.6.3 2.3.9.6.6.9 1.4.9 2.3s-.3 1.6-.9 2.3c-.6.6-1.4.9-2.3.9-.9 0-1.6-.3-2.3-.9-.6-.7-.9-1.4-.9-2.3zm1 8.2h4.4v23h-4.4v-23zm31 6.2c-.8-.8-1.7-1.5-2.6-1.9-.9-.4-2-.7-3.2-.7-1.2 0-2.2.2-3.1.7-.9.4-1.6 1-2.2 1.8-.6.8-1.1 1.6-1.4 2.6-.3 1-.5 2-.5 3.1s.2 2.1.5 3c.4 1 .9 1.8 1.5 2.5s1.4 1.3 2.3 1.7c.9.4 1.9.6 3.1.6 1.2 0 2.3-.2 3.2-.7.9-.4 1.7-1.1 2.4-1.9l3.1 3.1c-1.1 1.3-2.5 2.2-4 2.7-1.5.6-3.1.8-4.8.8-1.8 0-3.4-.3-4.9-.9-1.5-.6-2.7-1.4-3.8-2.5-1.1-1.1-1.9-2.3-2.5-3.8-.6-1.5-.9-3.1-.9-4.9 0-1.8.3-3.4.9-4.9.6-1.5 1.4-2.8 2.5-3.8 1.1-1.1 2.3-1.9 3.8-2.5 1.5-.6 3.1-.9 4.9-.9 1.7 0 3.3.3 4.8.9 1.5.6 2.9 1.5 4 2.7l-3.1 3.2z"/><path class="st24" d="M342.9 57.5c-.9 0-1.6-.3-2.3-.9-.6-.6-.9-1.4-.9-2.3 0-.9.3-1.6.9-2.3.6-.6 1.4-.9 2.3-.9.9 0 1.6.3 2.3.9.6.6.9 1.4.9 2.3 0 .9-.3 1.6-.9 2.3-.6.5-1.4.9-2.3.9zm12.6-31.6c0-.9.3-1.6.9-2.3.6-.6 1.4-.9 2.3-.9.9 0 1.6.3 2.3.9.6.6.9 1.4.9 2.3s-.3 1.6-.9 2.3c-.6.6-1.4.9-2.3.9-.9 0-1.6-.3-2.3-.9-.6-.7-.9-1.4-.9-2.3zm1 8.2h4.4v23h-4.4v-23zM370 45.7c0-1.7.3-3.3.9-4.7.6-1.5 1.5-2.7 2.6-3.8 1.1-1.1 2.4-2 3.9-2.6 1.5-.6 3.1-.9 4.8-.9 1.7 0 3.3.3 4.8.9 1.5.6 2.8 1.5 3.9 2.6s2 2.4 2.6 3.8c.6 1.5.9 3 .9 4.7 0 1.7-.3 3.3-.9 4.7-.6 1.5-1.5 2.8-2.6 3.8-1.1 1.1-2.4 1.9-3.9 2.6-1.5.6-3.1.9-4.8.9-1.7 0-3.3-.3-4.8-.9-1.5-.6-2.8-1.5-3.9-2.6s-2-2.4-2.6-3.8c-.6-1.5-.9-3.1-.9-4.7zm4.6 0c0 1.2.2 2.2.5 3.2.4 1 .9 1.8 1.5 2.5s1.4 1.2 2.4 1.7c.9.4 2 .6 3.2.6 1.2 0 2.2-.2 3.2-.6.9-.4 1.7-1 2.4-1.7.6-.7 1.1-1.5 1.5-2.5.4-1 .5-2.1.5-3.2 0-1.2-.2-2.2-.5-3.2-.4-1-.9-1.8-1.5-2.5s-1.4-1.2-2.4-1.7c-.9-.4-2-.6-3.2-.6-1.2 0-2.2.2-3.2.6-.9.4-1.7 1-2.4 1.7-.6.7-1.2 1.5-1.5 2.5-.3.9-.5 2-.5 3.2z"/><path class="st23" d="M159.4 58.1c3.4 0 6.8-1.5 8.8-4v3.3h4V33.7h-4v3.6c-2-2.4-5.4-4-8.8-4-6.5 0-11.8 5.5-11.8 12.4 0 6.8 5.3 12.4 11.8 12.4zm.6-20.7c4.3-.1 7.8 3.7 7.8 8.3 0 4.6-3.5 8.3-7.8 8.3-4.9 0-7.8-3.7-7.8-8.3 0-4.6 3.1-8.2 7.8-8.3z"/></svg>