<svg id="Layer_1" xmlns="http://www.w3.org/2000/svg" xmlns:xlink="http://www.w3.org/1999/xlink" viewBox="0 0 180 180"><style>.st0{fill:#fff}.st1{display:none}.st2{display:inline;fill:#fff}.st3{fill-rule:evenodd;clip-rule:evenodd;fill:#fff}.st4{clip-path:url(#SVGID_2_)}.st5{clip-path:url(#SVGID_4_);fill:#fff}.st6{clip-path:url(#SVGID_6_)}.st7{clip-path:url(#SVGID_8_);fill:#fff}.st8{clip-path:url(#SVGID_10_)}.st9{clip-path:url(#SVGID_12_);fill:#fff}</style><path id="DC_x2F_OS" class="st3" d="M53.7 141c2.7 0 4.2 1 4.2 2.9v11.9c0 1.9-1.6 2.9-4.2 2.9h-4.2V141h4.2zm0 22.2c7.1 0 9.5-3.1 9.5-6.4V143c0-3.3-2.5-6.4-9.5-6.4h-8.5c-.7 0-.9.3-.9 1v24.5c0 .7.2 1 .8 1h8.6zm31.5-8.4c0-.7-.2-1-.9-1h-3.2c-.7 0-1 .3-1 1v1.5c0 1.9-1.4 2.9-4 2.9s-3.9-1-3.9-2.9v-12.6c0-1.9 1.3-2.9 3.9-2.9 2.6 0 4 1 4 2.9v.9c0 .7.3 1 1 1h3.2c.7 0 .9-.3.9-1v-1.9c0-3.3-2.1-6.4-9.2-6.4s-9.2 3.1-9.2 6.4v14.4c0 3.3 2.1 6.4 9.2 6.4s9.2-3.1 9.2-6.4v-2.3zm30.2 3c0 2.4-1.5 4-6.1 4-4.5 0-6-1.6-6-4v-15.5c0-2.4 1.5-4 6-4 4.6 0 6.1 1.6 6.1 4v15.5zm-14.2.3c0 3 1.9 5.5 8.1 5.5 6.3 0 8.2-2.5 8.2-5.5V142c0-3-1.9-5.5-8.2-5.5-6.2 0-8.1 2.5-8.1 5.5v16.1zm33.7-14.3c0 .3.1.5.4.5h1.1c.4 0 .5-.2.5-.5v-1.9c0-3-1.8-5.5-7.8-5.5-6.1 0-7.8 2.5-7.8 5.5v2.1c0 2.5 1.8 4 3.4 4.6l7.3 2.8c1.5.6 3.2 1.5 3.2 3.6v2.8c0 2.3-1.5 4-6.1 4s-6-1.6-6-4V156c0-.4-.2-.5-.5-.5h-1.1c-.3 0-.5.2-.5.5v2c0 3 1.9 5.5 8.1 5.5 6.2 0 8.1-2.5 8.1-5.5v-3.4c0-2.7-1.9-4.1-3.9-4.9l-7.5-2.8c-1.1-.4-2.5-1.3-2.5-3.3v-1.4c0-2.3 1.3-4 5.8-4s5.8 1.6 5.8 4v1.6z"/><path id="_x2F_" class="st3" d="M98.4 133.7c.1 0 .2.1.2.3L90 166c0 .1-.2.3-.3.3h-1.5c-.1 0-.2-.1-.2-.3l8.6-32c0-.1.2-.3.3-.3h1.5z"/><path id="Square_14_" class="st3" d="M91.4 74.8c-.4-.4-.9-.4-1.3 0L77.6 87.3c-.4.4-.4.9 0 1.3l12.5 12.5c.4.4.9.4 1.3 0l12.5-12.5c.4-.4.4-.9 0-1.3L91.4 74.8z"/><g id="Fourth_Row_1_"><path id="Square_13_" class="st3" d="M120 71.2l-12.5-12.5c-.4-.4-.9-.4-1.3 0L93.7 71.2c-.4.4-.4.9 0 1.3L106.2 85c.4.4.9.4 1.3 0L120 72.5c.4-.3.4-.9 0-1.3z"/><path id="Square_12_" class="st3" d="M87.8 71.2L75.3 58.8c-.4-.4-.9-.4-1.3 0L61.5 71.2c-.4.4-.4.9 0 1.3L74 85c.4.4.9.4 1.3 0l12.5-12.5c.3-.3.3-.9 0-1.3z"/></g><g id="Third_Row_1_"><path id="Square_11_" class="st3" d="M136.1 56.5L123.6 69c-.4.4-.9.4-1.3 0l-12.5-12.5c-.4-.4-.4-.9 0-1.3l12.5-12.5c.4-.4.9-.4 1.3 0l12.5 12.5c.4.3.4.9 0 1.3z"/><path id="Square_10_" class="st3" d="M103.9 56.5L91.4 68.9c-.4.4-.9.4-1.3 0L77.6 56.5c-.4-.4-.4-.9 0-1.3l12.5-12.5c.4-.4.9-.4 1.3 0l12.5 12.5c.4.3.4.9 0 1.3z"/><path id="Square_9_" class="st3" d="M71.7 56.5L59.2 68.9c-.4.4-.9.4-1.3 0L45.4 56.5c-.4-.4-.4-.9 0-1.3l12.5-12.5c.4-.4.9-.4 1.3 0l12.5 12.5c.3.3.3.9 0 1.3z"/></g><g id="Second_Row_1_"><path id="Square_8_" class="st3" d="M106.2 51.1c.4.4.9.4 1.3 0L120 38.6c.4-.4.4-.9 0-1.3l-12.5-12.5c-.4-.4-.9-.4-1.3 0L93.7 37.3c-.4.4-.4.9 0 1.3l12.5 12.5z"/><path id="Square_7_" class="st3" d="M74 51c.4.4.9.4 1.3 0l12.5-12.5c.4-.4.4-.9 0-1.3L75.3 24.7c-.4-.4-.9-.4-1.3 0L61.5 37.2c-.4.4-.4.9 0 1.3L74 51z"/></g><path id="Sqaure_1_" class="st3" d="M90.1 32.7c.4.4.9.4 1.3 0l12.5-12.5c.4-.4.4-.9 0-1.3L91.4 6.4c-.4-.4-.9-.4-1.3 0L77.6 18.9c-.4.4-.4.9 0 1.3l12.5 12.5z"/><defs><path id="SVGID_1_" d="M51.7 67.4l-6.3 6.3c-.4.4-.4.9 0 1.3l44.7 44.7c.4.4.9.4 1.3 0L136.1 75c.4-.4.4-.9 0-1.3l-6.3-6.3-36.4 36.4c-1.4 1.4-3.7 1.4-5.2 0L51.7 67.4z"/></defs><use xlink:href="#SVGID_1_" overflow="visible" fill-rule="evenodd" clip-rule="evenodd" fill="#fff"/><clipPath id="SVGID_2_"><use xlink:href="#SVGID_1_" overflow="visible"/></clipPath><g class="st4"><defs><path id="SVGID_3_" d="M-91.7-50.8h364.8v273.6H-91.7z"/></defs><use xlink:href="#SVGID_3_" overflow="visible" fill="#fff"/><clipPath id="SVGID_4_"><use xlink:href="#SVGID_3_" overflow="visible"/></clipPath><path class="st5" d="M42.9 65.1h95.8v57.1H42.9z"/></g><defs><path id="SVGID_5_" d="M-212.6 94.9l-7.2 7.2c-.4.4-.4 1.1 0 1.5l51.1 51.1c.4.4 1.1.4 1.5 0l51.1-51.1c.4-.4.4-1.1 0-1.5l-7.2-7.2-41.6 41.6c-1.6 1.6-4.3 1.6-5.9 0l-41.8-41.6z"/></defs><use xlink:href="#SVGID_5_" overflow="visible" fill-rule="evenodd" clip-rule="evenodd" fill="#fff"/><clipPath id="SVGID_6_"><use xlink:href="#SVGID_5_" overflow="visible"/></clipPath><g class="st6"><defs><path id="SVGID_7_" d="M-376.4-40.1H40.4v312.6h-416.8z"/></defs><use xlink:href="#SVGID_7_" overflow="visible" fill="#fff"/><clipPath id="SVGID_8_"><use xlink:href="#SVGID_7_" overflow="visible"/></clipPath></g><defs><path id="SVGID_9_" d="M274 94.6l-6.7 6.7c-.4.4-.4 1 0 1.4l47.7 47.7c.4.4 1 .4 1.4 0l47.7-47.7c.4-.4.4-1 0-1.4l-6.7-6.7-38.9 38.9c-1.5 1.5-4 1.5-5.5 0l-39-38.9z"/></defs><use xlink:href="#SVGID_9_" overflow="visible" fill-rule="evenodd" clip-rule="evenodd" fill="#fff"/><clipPath id="SVGID_10_"><use xlink:href="#SVGID_9_" overflow="visible"/></clipPath><g class="st8"><defs><path id="SVGID_11_" d="M120.9-31.6h389.6v292.2H120.9z"/></defs><use xlink:href="#SVGID_11_" overflow="visible" fill="#fff"/><clipPath id="SVGID_12_"><use xlink:href="#SVGID_11_" overflow="visible"/></clipPath></g></svg>