<svg id="Layer_1" xmlns="http://www.w3.org/2000/svg" xmlns:xlink="http://www.w3.org/1999/xlink" viewBox="0 0 360 180"><style>.st0{fill:#fff}.st1{display:none}.st2{display:inline;fill:#fff}.st3{fill-rule:evenodd;clip-rule:evenodd;fill:#fff}.st4{clip-path:url(#SVGID_2_)}.st5{clip-path:url(#SVGID_4_);fill:#fff}.st6{clip-path:url(#SVGID_6_)}.st7{clip-path:url(#SVGID_8_);fill:#fff}.st8{clip-path:url(#SVGID_10_)}.st9{clip-path:url(#SVGID_12_);fill:#fff}</style><defs><path id="SVGID_1_" d="M-185.3-146.6l-6.3 6.3c-.4.4-.4.9 0 1.3l44.7 44.7c.4.4.9.4 1.3 0l44.7-44.7c.4-.4.4-.9 0-1.3l-6.3-6.3-36.4 36.4c-1.4 1.4-3.7 1.4-5.2 0l-36.5-36.4z"/></defs><use xlink:href="#SVGID_1_" overflow="visible" fill-rule="evenodd" clip-rule="evenodd" fill="#fff"/><clipPath id="SVGID_2_"><use xlink:href="#SVGID_1_" overflow="visible"/></clipPath><g class="st4"><defs><path id="SVGID_3_" d="M-328.7-264.8H36.1V8.8h-364.8z"/></defs><use xlink:href="#SVGID_3_" overflow="visible" fill="#fff"/><clipPath id="SVGID_4_"><use xlink:href="#SVGID_3_" overflow="visible"/></clipPath></g><defs><path id="SVGID_9_" d="M37-119.4l-6.7 6.7c-.4.4-.4 1 0 1.4L78-63.5c.4.4 1 .4 1.4 0l47.7-47.7c.4-.4.4-1 0-1.4l-6.7-6.7-39 38.8c-1.5 1.5-4 1.5-5.5 0L37-119.4z"/></defs><use xlink:href="#SVGID_9_" overflow="visible" fill-rule="evenodd" clip-rule="evenodd" fill="#fff"/><clipPath id="SVGID_6_"><use xlink:href="#SVGID_9_" overflow="visible"/></clipPath><g class="st6"><defs><path id="SVGID_11_" d="M-116.1-245.6h389.6V46.6h-389.6z"/></defs><use xlink:href="#SVGID_11_" overflow="visible" fill="#fff"/><clipPath id="SVGID_8_"><use xlink:href="#SVGID_11_" overflow="visible"/></clipPath></g><path class="st0" d="M148 110.3h-8.3v-34c.1-.1.2-.1.3-.1 5.4.1 10.8-.1 16.2.2 4.6.2 7.9 3.2 8.5 7.1.8 5-1.2 9-5.6 11-.3.1-.6.3-.7.3 1.2 2.3 2.3 4.5 3.5 6.7.8 1.4 1.6 2.7 3.4 3 1.4.2 1.8 0 2.3-1.3 2.9-8.6 5.8-17.2 8.7-25.9.3-.8.6-1.1 1.5-1.1 2.2.1 4.4 0 6.6.1.3 0 .9.3 1 .6 3.7 10.9 7.4 21.9 11.1 32.8.1.2.1.4.1.7h-7.8c-.3 0-.6-.4-.7-.7-.6-1.7-1.1-3.3-1.6-5-.2-.6-.5-.9-1.2-.9h-9.9c-.7 0-1 .2-1.2.8-.5 1.6-1 3.3-1.5 4.9-.2.6-.5.8-1.1.8-2.7 0-5.5.1-8.2.2-3.1.1-5.5-1-7.1-3.7-.9-1.6-1.6-3.4-2.5-5-.6-1.3-1.2-2.5-1.9-3.8-.7-1.3-2-1.5-3.3-1.2-.2 0-.5.7-.5 1v10.9c-.1.5-.1 1-.1 1.6zm0-19.3c2.2-.3 4.2-.3 6.1-.8 1.7-.5 2.6-2.3 2.4-4.4-.2-1.9-1.2-3.2-3.1-3.4-1.6-.2-3.2-.2-4.8-.1-.2 0-.6.5-.6.7v8zm32.3-5.9c-1.2 3.9-2.4 8.2-3.7 12.5h7.2c-1.2-4.4-2.4-8.6-3.5-12.5zm23.4 2.7v22.5h-6c-.2 0-.5-.4-.6-.6-.1-.2 0-.5 0-.8V77.7c0-1.1.2-1.6 1.5-1.5 2.2.1 4.4.1 6.6 0 .7 0 1.1.2 1.4.8 3.6 7.3 7.9 14.2 10.9 21.8.1.1.2.2.5.4v-1l-.3-20.9c0-.5-.1-1 .7-1h6v34.2h-4.5c-1.4 0-3.1.4-4.1-.2-1-.6-1.4-2.2-2.1-3.4-2.4-4.4-4.9-8.8-7.2-13.3-1.1-2-1.9-3.8-2.8-5.8zm53.2 22.5v-34h8.3V89h10.7V76.2h8.3v34.1H276c0-.5-.1-.9-.1-1.4v-12c0-.9-.3-1.2-1.2-1.2-3.1.1-6.2 0-9.4 0v14.5c-2.8.1-5.5.1-8.4.1zm55.7 0v-34c.3 0 .6-.1.9-.1h13.4c1.4 0 2.7.2 4.1.5 4.1 1 6.2 3.6 6.8 7.9.5 3.7-1.4 7.4-4.7 9.3-.6.4-1.3.7-1.8.9 1.2 2.3 2.4 4.6 3.6 6.8 1 1.9 2.4 3.3 5.1 2.7-.2 1.9-.3 3.6-.6 5.4 0 .2-.5.5-.8.5-4.4.8-7.7.1-10-4.2-.9-1.7-1.6-3.5-2.4-5.2-.4-.9-.8-1.8-1.3-2.6-.6-1.1-1.6-1.6-2.9-1.6-.9 0-1.1.3-1.1 1.2v12.3c-2.8.2-5.5.2-8.3.2zm8.3-19.4c2.1-.2 4.1-.2 5.9-.7 1.9-.5 2.8-2.3 2.6-4.5-.2-1.9-1.2-3.2-3.2-3.5-1.5-.2-3.1-.1-4.7-.1-.2 0-.6.5-.6.7v8.1zm-10.4-14.6v5.5c0 .2-.7.6-1 .6h-13.1v7.5c.5 0 .9.1 1.4.1h7.5c3 0 3 0 3 3v3.1h-11.9v8.2H311v6.1h-23v-34c7.5-.1 14.9-.1 22.5-.1zm-62.4 22c2.2.2 4.3.5 6.4.6 1 .1.9.7.8 1.3-.2 4.7-2.5 7.9-6.9 9.6-4.2 1.6-8.6 1.7-12.9.2-4.2-1.5-6.8-4.7-8-8.9-1.5-5.2-1.6-10.5-.1-15.7 1.6-5.8 5.9-9.2 11.9-9.7 3-.3 5.9-.2 8.8.7 5.2 1.7 7.8 6.4 6.6 11.9-2.4.2-4.9.5-7.5.7v-2.3c0-2.8-1-4.4-3.2-5.1-2.7-.8-5.3 0-6.8 2.1-1.3 1.8-1.7 3.9-1.9 6.1-.3 3.4-.3 6.7.6 10 1.1 4 3.8 5.8 7.6 5.1 2.9-.5 4.5-2.5 4.6-5.5v-1.1z"/><path class="st0" d="M196.8 76.2h7.1v34.3h-7.1zm-57.4 0h8.9v34.3h-8.9z"/><path class="st0" d="M224.3 110.5h-8.9l-18.6-34.3h9.4zm-27.5 0h-8.9l-11.5-34.3h8.6z"/><path class="st0" d="M163.4 110.5h8.9l11.5-34.3h-8.7zm53.8-34.3h7.1v34.3h-7.1zm39.5 0h8.8v34.3h-8.8zm18.8 0h8.8v34.3h-8.8zm12.2 0h8.8v34.3h-8.8zm24.7 0h8.8v34.3h-8.8z"/><path class="st0" d="M294.5 76.2h16v6.3h-16zm-2.4 13.6h16v6.3h-16zm-29.2-.8h16v7h-16zm-90.8 8.1h16v7h-16zm120 7.1H311v6.3h-18.9zM27.5 83.1c-1.8 1.4-3.4 2.6-4.9 3.9-.7.6-1.1.5-1.7-.2-1.2-1.5-1.2-1.5-.2-3.1l6.9-10.5c.7-1 1.5-1.4 2.6-1.4h40.7c2.1 0 2.9 1 2.5 3.1-.2 1.4-.5 2.8-.7 4.2-.3 1.9.7 3.1 2.6 3.1h7.8c1.5 0 2.2-.6 2.4-1.8h-7.2c-2.5 0-3.7-1.5-3.3-3.9.4-2.1.7-4.2 1.1-6.2.2-1 .7-1.9 1.2-3.1 1.4 1.6 1.1 3.2 1.3 4.8H98c3 0 4.3 1.1 4.4 4.1.1 4 0 8.1 0 12.1v6.4c-.1 1.9-1.4 3.2-3.3 3.2h-9.9c-2 0-3.4-1.4-3.4-3.4v-7.5c-.5.4-.9.6-1 .9-.3.8-.7 1.6-.7 2.4-.1 1.8-.1 3.7 0 5.5 0 2.6 1.6 4.1 4.1 4.1H93c.7 0 1 .3 1 1v8.5c0 1.4-.8 2.2-2.2 2.2H80.4c-1.5 0-2.3-.8-2.3-2.3v-8c0-2.2-.9-3-3.1-3H46.8c-2.3 0-3.1.8-3.1 3.1v7.8c0 1.7-.8 2.5-2.5 2.5H30.5c-2 0-2.7-.7-2.8-2.8V85.5c-.1-1-.1-1.5-.2-2.4zm83.6-15.8c.3.8.9 1.5 1 2.3.5 2.4.9 4.9 1.2 7.4.3 2.1-.9 3.3-3.1 3.3h-6v-3.5c0-.2.4-.5.7-.6.4-.1.9 0 1.4-.1 2.2-.3 3.4-1.8 3.5-4.2 0-1.2.1-2.3.3-3.5 0-.4.3-.8.5-1.1h.5z"/></svg>