<svg id="Layer_1" xmlns="http://www.w3.org/2000/svg" xmlns:xlink="http://www.w3.org/1999/xlink" viewBox="0 0 180 180"><style>.st0{fill:#fff}.st1{display:none}.st2{display:inline;fill:#fff}.st3{fill-rule:evenodd;clip-rule:evenodd;fill:#fff}.st4{clip-path:url(#SVGID_2_)}.st5{clip-path:url(#SVGID_4_);fill:#fff}.st6{clip-path:url(#SVGID_6_)}.st7{clip-path:url(#SVGID_8_);fill:#fff}.st8{clip-path:url(#SVGID_10_)}.st9{clip-path:url(#SVGID_12_);fill:#fff}</style><defs><path id="SVGID_1_" d="M51.7 283.4l-6.3 6.3c-.4.4-.4.9 0 1.3l44.7 44.7c.4.4.9.4 1.3 0l44.7-44.7c.4-.4.4-.9 0-1.3l-6.3-6.3-36.4 36.4c-1.4 1.4-3.7 1.4-5.2 0l-36.5-36.4z"/></defs><use xlink:href="#SVGID_1_" overflow="visible" fill-rule="evenodd" clip-rule="evenodd" fill="#fff"/><clipPath id="SVGID_2_"><use xlink:href="#SVGID_1_" overflow="visible"/></clipPath><g class="st4"><defs><path id="SVGID_3_" d="M-91.7 165.2h364.8v273.6H-91.7z"/></defs><use xlink:href="#SVGID_3_" overflow="visible" fill="#fff"/><clipPath id="SVGID_4_"><use xlink:href="#SVGID_3_" overflow="visible"/></clipPath></g><defs><path id="SVGID_5_" d="M-212.6 310.9l-7.2 7.2c-.4.4-.4 1.1 0 1.5l51.1 51.1c.4.4 1.1.4 1.5 0l51.1-51.1c.4-.4.4-1.1 0-1.5l-7.2-7.2-41.6 41.6c-1.6 1.6-4.3 1.6-5.9 0l-41.8-41.6z"/></defs><use xlink:href="#SVGID_5_" overflow="visible" fill-rule="evenodd" clip-rule="evenodd" fill="#fff"/><clipPath id="SVGID_6_"><use xlink:href="#SVGID_5_" overflow="visible"/></clipPath><g class="st6"><defs><path id="SVGID_7_" d="M-376.4 175.9H40.4v312.6h-416.8z"/></defs><use xlink:href="#SVGID_7_" overflow="visible" fill="#fff"/><clipPath id="SVGID_8_"><use xlink:href="#SVGID_7_" overflow="visible"/></clipPath></g><path class="st0" d="M71.4 118.6c-2.4 0-4.6-1.1-6.2-3L42 86.7c-1.5-1.9-2.1-4.4-1.5-6.8l8.3-36.1c.5-2.4 2.1-4.3 4.3-5.4l33.6-16.1c1.1-.5 2.3-.8 3.5-.8 1.2 0 2.4.3 3.5.8l33.6 16c2.2 1.1 3.8 3 4.3 5.4l8.3 36.1c.5 2.4 0 4.8-1.5 6.8l-23.2 28.9c-1.5 1.9-3.8 3-6.2 3l-37.6.1z"/><path class="st0" d="M123.8 77.4c-.1 0-.1 0 0 0-.1 0-.2 0-.2-.1-.1 0-.3-.1-.4-.1-.5-.1-.9-.1-1.3-.1-.2 0-.4 0-.7-.1h-.1c-1.4-.1-2.5-.3-3.6-.6-.5-.2-.6-.5-.7-.7 0-.1-.1-.1-.1-.1l-.9-.3c.4-3.1.3-6.2-.5-9.4-.7-3.1-2-6-3.7-8.7l.7-.6v-.1c0-.3.1-.7.3-1 .8-.7 1.8-1.3 3-2.1l.6-.3c.4-.2.7-.4 1.1-.7.1-.1.2-.1.3-.3l.1-.1c.9-.8 1.1-2.1.5-3-.3-.5-.9-.7-1.5-.7-.5 0-1 .2-1.5.5l-.1.1-.3.3-.9.9-.5.5c-.9 1-1.8 1.8-2.7 2.4-.2.1-.4.2-.6.2-.1 0-.3 0-.4-.1h-.1l-.8.5c-.9-.9-1.8-1.7-2.7-2.5-4-3.1-8.8-5-13.9-5.5l-.1-.9-.1-.1c-.2-.2-.5-.4-.5-.9-.1-1.1.1-2.3.2-3.6V40c0-.2.1-.5.1-.7.1-.4.1-.8.2-1.3v-.6c0-1.2-.9-2.2-2.1-2.2-.5 0-1.1.3-1.5.7-.4.4-.6.9-.6 1.5v.5c0 .5.1.9.2 1.3.1.2.1.4.1.7v.1c.1 1.3.3 2.5.2 3.6-.1.5-.3.7-.5.9.2.2.2.2.2.3l-.1.9c-1.2.1-2.4.3-3.6.5-5.1 1.1-9.6 3.7-13.1 7.4l-.7-.5h-.1c-.1 0-.3.1-.4.1-.2 0-.4-.1-.6-.2-.9-.6-1.7-1.5-2.7-2.5l-.5-.5c-.3-.3-.5-.6-.9-.9-.1-.1-.2-.1-.3-.3l-.1-.1c-.4-.3-.9-.5-1.5-.5s-1.2.3-1.5.7c-.7.9-.5 2.2.5 3 .1 0 .1.1.1.1l.3.3c.4.3.7.5 1.1.7l.6.3c1.2.7 2.2 1.3 3 2.1.3.3.3.7.3 1v.1l.7.6c-.1.2-.3.3-.3.5-3.3 5.2-4.6 11.4-3.7 17.5l-.9.3c0 .1-.1.1-.1.1-.1.3-.3.5-.7.7-1 .3-2.2.5-3.6.6h-.1c-.2 0-.5 0-.7.1-.4 0-.8.1-1.3.1-.1 0-.3.1-.4.1-.1 0-.1 0-.2.1-1.2.3-1.9 1.4-1.7 2.5.2.9 1.1 1.5 2.1 1.5.2 0 .3 0 .5-.1.1 0 .1 0 .1-.1.1 0 .3-.1.4-.1.5-.1.8-.3 1.2-.5l.6-.3h.3c1.3-.5 2.4-.9 3.5-1h.1c.4 0 .7.2.9.3.1 0 .1.1.1.1l.9-.1c1.6 4.9 4.6 9.3 8.7 12.5.9.7 1.9 1.3 2.9 1.9l-.4.9c0 .1.1.1.1.1.1.3.3.6.1 1.1-.4 1-1 2-1.7 3.1v.1c-.1.2-.3.3-.4.5-.3.3-.5.7-.7 1.1-.1.1-.1.2-.2.3 0 .1-.1.1-.1.1-.5 1.1-.1 2.4.9 2.9.3.1.5.2.8.2.8 0 1.6-.5 2-1.3 0-.1.1-.1.1-.1.1-.1.1-.3.2-.3.2-.5.3-.8.4-1.2.1-.2.1-.4.2-.6.5-1.3.8-2.4 1.4-3.3.3-.4.6-.5.9-.6.1 0 .1 0 .1-.1l.5-.9c2.9 1.1 6.1 1.7 9.3 1.7 1.9 0 3.9-.2 5.8-.7 1.2-.3 2.3-.6 3.5-1l.4.7c.1 0 .1 0 .1.1.3.1.6.2.9.6.5.9.9 2.1 1.4 3.3v.1c.1.2.1.4.2.6.1.4.2.8.4 1.2.1.1.1.2.2.3 0 .1.1.1.1.1.4.8 1.2 1.3 2 1.3.3 0 .5-.1.8-.2.5-.3.9-.7 1-1.2.1-.5.1-1.1-.1-1.7 0-.1-.1-.1-.1-.1-.1-.1-.1-.3-.2-.3-.2-.4-.5-.7-.7-1.1-.1-.2-.3-.3-.4-.5v-.1c-.7-1.1-1.4-2.1-1.7-3.1-.1-.5 0-.7.1-1.1 0-.1.1-.1.1-.1l-.3-.8c3.5-2.1 6.5-5 8.8-8.6 1.2-1.9 2.1-3.9 2.8-6l.8.1c.1 0 .1-.1.1-.1.3-.1.5-.3.9-.3h.1c1.1.1 2.2.5 3.5 1h.1l.6.3c.4.2.7.3 1.2.5.1 0 .3.1.4.1.1 0 .1 0 .2.1.2.1.3.1.5.1 1 0 1.9-.7 2.1-1.5-.5-.7-1.2-1.8-2.4-2.1zM93 74.2l-2.9 1.4-2.9-1.4-.8-3.2 2-2.5h3.3l2 2.5-.7 3.2zm17.4-7c.5 2.3.7 4.5.5 6.7L100.7 71c-.9-.3-1.5-1.2-1.3-2.1.1-.3.2-.5.4-.7l8-7.2c1.2 1.8 2 3.9 2.6 6.2zM104.6 57l-8.7 6.2c-.7.5-1.7.3-2.3-.4-.2-.2-.3-.5-.3-.7l-.6-10.8c4.6.4 8.8 2.5 11.9 5.7zm-19.2-5.5c.7-.1 1.4-.3 2.1-.4l-.6 10.6c-.1.9-.8 1.7-1.8 1.7-.3 0-.6-.1-.8-.2L75.5 57c2.7-2.8 6.1-4.6 9.9-5.5zm-13.1 9.4l7.9 7c.7.6.8 1.7.2 2.5-.2.3-.5.5-.8.5l-10.3 3c-.4-4.5.6-9 3-13zm-1.8 18l10.6-1.8c.9-.1 1.7.5 1.9 1.4.1.4.1.7-.1 1.1l-4.1 9.8c-3.7-2.4-6.7-6.1-8.3-10.5zm24.2 13.2c-1.5.3-3.1.5-4.6.5-2.3 0-4.6-.4-6.7-1.1l5.2-9.5c.5-.6 1.4-.9 2.1-.5.3.2.6.5.8.7l5.1 9.2c-.5.4-1.2.5-1.9.7zm13-9.2c-1.7 2.7-3.9 4.8-6.4 6.4l-4.2-10c-.2-.8.1-1.7.9-2.1.3-.1.6-.2.9-.2l10.6 1.8c-.3 1.5-.9 2.9-1.8 4.1zm-92.6 63.9c.4-.5.9-1 1.4-1.5s.9-1 1.4-1.5c.4-.5.9-1 1.2-1.4.4-.5.7-.9 1-1.2h5.3c-1.1 1.2-2.1 2.4-3.1 3.5s-2.1 2.2-3.3 3.4c.6.5 1.2 1.2 1.9 1.9.6.8 1.3 1.5 1.9 2.3.6.8 1.2 1.6 1.7 2.4.5.8.9 1.5 1.3 2.2h-5.1c-.3-.5-.7-1.1-1.1-1.7-.4-.6-.8-1.3-1.3-1.9s-.9-1.2-1.5-1.8c-.5-.6-1-1.1-1.5-1.5v6.9h-4.5v-22.6l4.5-.7v13.2zm26 9.6c-.8.2-1.7.4-2.9.6-1.2.2-2.5.3-3.8.3-1.3 0-2.5-.2-3.3-.5-.9-.4-1.6-.9-2.1-1.5s-.9-1.4-1.1-2.3c-.2-.9-.3-1.9-.3-3v-8.8H32v8.2c0 1.4.2 2.5.6 3.1.4.6 1.1 1 2.1 1h1c.4 0 .7-.1 1-.1v-12.2h4.5v15.2zm18.9-7.3c0 1.3-.2 2.4-.6 3.4-.4 1-.9 1.9-1.6 2.6-.7.7-1.6 1.3-2.6 1.7-1 .4-2.2.6-3.5.6-.5 0-1.1 0-1.7-.1-.6-.1-1.2-.1-1.7-.2-.6-.1-1.1-.2-1.6-.3-.5-.1-1-.2-1.4-.3v-22.1l4.5-.7v7.9c.5-.2 1-.4 1.6-.5.5-.1 1.1-.2 1.7-.2 1.1 0 2.1.2 3 .6s1.6.9 2.2 1.7c.6.7 1 1.6 1.3 2.6.3.9.4 2 .4 3.3zm-4.6-.2c0-2.9-1.1-4.3-3.2-4.3-.5 0-.9.1-1.4.2-.5.1-.8.3-1.1.4v8.1c.2 0 .5.1.8.1h1.1c1.2 0 2.1-.4 2.8-1.3.7-.7 1-1.8 1-3.2zm7.3.3c0-1.4.2-2.6.6-3.7.4-1.1 1-1.9 1.7-2.6.7-.7 1.5-1.2 2.4-1.6.9-.4 1.8-.5 2.8-.5 2.2 0 4 .7 5.3 2.1 1.3 1.4 2 3.4 2 6v.9c0 .3 0 .6-.1.8H67.3c.1.9.5 1.6 1.3 2.2.8.5 1.8.8 3.1.8.8 0 1.6-.1 2.4-.2.8-.1 1.4-.3 1.9-.6l.6 3.6c-.2.1-.6.2-1 .4s-.8.2-1.3.3c-.5.1-1 .2-1.6.2s-1.1.1-1.7.1c-1.4 0-2.7-.2-3.7-.6s-1.9-1-2.6-1.7c-.7-.7-1.2-1.6-1.5-2.6s-.5-2.2-.5-3.3zm10.5-1.7c0-.4-.1-.8-.2-1.1-.1-.4-.3-.7-.5-1s-.5-.5-.9-.7c-.4-.2-.8-.3-1.3-.3s-.9.1-1.3.3-.7.4-.9.7c-.2.3-.4.6-.6 1-.1.4-.2.7-.3 1.1h6zm17.3-2.4c-.4-.1-.9-.2-1.4-.3-.5-.1-1.1-.2-1.7-.2-.3 0-.6 0-1 .1s-.7.1-.9.2V157H81v-15c.8-.3 1.7-.5 2.8-.8s2.3-.4 3.6-.4h.9c.3 0 .7.1 1 .1s.7.1 1 .2l.9.3-.7 3.7zm3.1-3.4c.8-.2 1.7-.4 2.9-.6 1.2-.2 2.5-.3 3.8-.3 1.3 0 2.5.2 3.3.5.9.4 1.6.8 2.1 1.5s.9 1.4 1.1 2.3c.2.9.3 1.9.3 2.9v8.9h-4.5v-8.4c0-1.4-.2-2.5-.6-3.1-.4-.6-1.1-.9-2.1-.9h-1c-.4 0-.7.1-1 .1V157h-4.5v-15.3zm17 7.5c0-1.4.2-2.6.6-3.7.4-1.1 1-1.9 1.7-2.6.7-.7 1.5-1.2 2.4-1.6.9-.4 1.8-.5 2.8-.5 2.2 0 4 .7 5.3 2.1 1.3 1.4 2 3.4 2 6v.9c0 .3 0 .6-.1.8h-10.1c.1.9.5 1.6 1.3 2.2.8.5 1.8.8 3.1.8.8 0 1.6-.1 2.4-.2.8-.1 1.4-.3 1.9-.6l.6 3.6c-.2.1-.6.2-1 .4s-.8.2-1.3.3c-.5.1-1 .2-1.6.2s-1.1.1-1.7.1c-1.4 0-2.7-.2-3.7-.6s-1.9-1-2.6-1.7c-.7-.7-1.2-1.6-1.5-2.6s-.5-2.2-.5-3.3zm10.5-1.7c0-.4-.1-.8-.2-1.1-.1-.4-.3-.7-.5-1s-.5-.5-.9-.7c-.4-.2-.8-.3-1.3-.3s-.9.1-1.3.3-.7.4-.9.7c-.2.3-.4.6-.6 1-.1.4-.2.7-.3 1.1h6zm7.6-10.3l4.5-.7v4.7h5.4v3.7h-5.4v5.6c0 .9.2 1.7.5 2.2s1 .8 2 .8c.5 0 1 0 1.5-.1s1-.2 1.4-.4l.6 3.5c-.5.2-1.1.4-1.8.6-.7.2-1.5.2-2.4.2-1.2 0-2.2-.2-3-.5-.8-.3-1.4-.8-1.9-1.4-.5-.6-.8-1.3-1-2.1-.2-.8-.3-1.8-.3-2.8v-13.3zm12.1 12c0-1.4.2-2.6.6-3.7.4-1.1 1-1.9 1.7-2.6.7-.7 1.5-1.2 2.4-1.6.9-.4 1.8-.5 2.8-.5 2.2 0 4 .7 5.3 2.1 1.3 1.4 1.9 3.4 1.9 6v.9c0 .3 0 .6-.1.8h-10.1c.1.9.5 1.6 1.3 2.2s1.8.8 3.1.8c.8 0 1.6-.1 2.4-.2.8-.1 1.4-.3 1.9-.6l.6 3.6c-.2.1-.6.2-1 .4-.4.1-.8.2-1.3.3s-1 .2-1.6.2c-.6.1-1.1.1-1.7.1-1.4 0-2.7-.2-3.7-.6-1.1-.4-1.9-1-2.6-1.7-.7-.7-1.2-1.6-1.5-2.6s-.4-2.2-.4-3.3zm10.5-1.7c0-.4-.1-.8-.2-1.1-.1-.4-.3-.7-.5-1-.2-.3-.5-.5-.9-.7-.3-.2-.8-.3-1.3-.3s-.9.1-1.3.3c-.4.2-.7.4-.9.7-.2.3-.4.6-.6 1-.1.4-.2.7-.3 1.1h6zm12.3 6.2c.8 0 1.4-.1 1.7-.2.3-.2.5-.5.5-.9s-.2-.7-.7-.9-1.1-.6-2-.9c-.7-.3-1.3-.5-1.9-.8-.6-.3-1.1-.6-1.5-1-.4-.4-.7-.9-.9-1.4s-.3-1.2-.3-1.9c0-1.5.6-2.6 1.7-3.5 1.1-.9 2.6-1.3 4.5-1.3 1 0 1.9.1 2.8.3.9.2 1.6.4 2.1.6l-.8 3.5c-.5-.2-1.1-.3-1.7-.5-.6-.1-1.3-.2-2.1-.2-1.4 0-2.1.4-2.1 1.2 0 .2 0 .3.1.5.1.1.2.3.4.4.2.1.4.3.7.4.3.2.7.3 1.2.5 1 .4 1.8.7 2.4 1.1.6.4 1.1.7 1.5 1.1.4.4.6.9.8 1.4.2.5.2 1.1.2 1.7 0 1.6-.6 2.7-1.8 3.5-1.2.8-2.8 1.2-5 1.2-1.4 0-2.6-.1-3.5-.4-.9-.2-1.6-.4-1.9-.6l.8-3.6c.8.3 1.5.5 2.3.7h2.5z"/></svg>