<svg id="Layer_1" xmlns="http://www.w3.org/2000/svg" xmlns:xlink="http://www.w3.org/1999/xlink" viewBox="0 0 360 180"><style>.st0{fill:#fff}.st1{display:none}.st2{display:inline;fill:#fff}.st3{fill-rule:evenodd;clip-rule:evenodd;fill:#fff}.st4{clip-path:url(#SVGID_2_)}.st5{clip-path:url(#SVGID_4_);fill:#fff}.st6{clip-path:url(#SVGID_6_)}.st7{clip-path:url(#SVGID_8_);fill:#fff}.st8{clip-path:url(#SVGID_10_)}.st9{clip-path:url(#SVGID_12_);fill:#fff}</style><defs><path id="SVGID_1_" d="M-185.3 283.4l-6.3 6.3c-.4.4-.4.9 0 1.3l44.7 44.7c.4.4.9.4 1.3 0l44.7-44.7c.4-.4.4-.9 0-1.3l-6.3-6.3-36.4 36.4c-1.4 1.4-3.7 1.4-5.2 0l-36.5-36.4z"/></defs><use xlink:href="#SVGID_1_" overflow="visible" fill-rule="evenodd" clip-rule="evenodd" fill="#fff"/><clipPath id="SVGID_2_"><use xlink:href="#SVGID_1_" overflow="visible"/></clipPath><g class="st4"><defs><path id="SVGID_3_" d="M-328.7 165.2H36.1v273.6h-364.8z"/></defs><use xlink:href="#SVGID_3_" overflow="visible" fill="#fff"/><clipPath id="SVGID_4_"><use xlink:href="#SVGID_3_" overflow="visible"/></clipPath></g><path class="st0" d="M38.3 138.5c-2.4 0-4.6-1.1-6.2-3L8.9 106.6c-1.5-1.9-2.1-4.4-1.5-6.8l8.3-36.1c.5-2.4 2.1-4.3 4.3-5.4l33.6-16.1c1.1-.5 2.3-.8 3.5-.8s2.4.3 3.5.8l33.6 16c2.2 1.1 3.8 3 4.3 5.4l8.3 36.1c.5 2.4 0 4.8-1.5 6.8l-23.2 28.9c-1.5 1.9-3.8 3-6.2 3l-37.6.1z"/><path class="st0" d="M90.6 97.3c-.1 0-.2 0-.2-.1-.1 0-.3-.1-.4-.1-.5-.1-.9-.1-1.3-.1-.2 0-.4 0-.7-.1h-.1c-1.4-.1-2.5-.3-3.6-.6-.5-.2-.6-.5-.7-.7 0-.1-.1-.1-.1-.1l-.9-.3c.4-3.1.3-6.2-.5-9.4s-2-6-3.7-8.7l.7-.6v-.1c0-.3.1-.7.3-1 .8-.7 1.8-1.3 3-2.1l.6-.3c.4-.2.7-.4 1.1-.7.1-.1.2-.1.3-.3l.1-.1c.9-.8 1.1-2.1.5-3-.3-.5-.9-.7-1.5-.7-.5 0-1 .2-1.5.5l-.1.1-.3.3-.9.9-.5.5c-.9 1-1.8 1.8-2.7 2.4-.2.1-.4.2-.6.2-.1 0-.3 0-.4-.1h-.1l-.8.5c-.9-.9-1.8-1.7-2.7-2.5-4-3.1-8.8-5-13.9-5.5l-.1-.9-.1-.1c-.2-.2-.5-.4-.5-.9-.1-1.1.1-2.3.2-3.6v-.1c0-.2.1-.5.1-.7.1-.4.1-.8.2-1.3v-.6c0-1.2-.9-2.2-2.1-2.2-.5 0-1.1.3-1.5.7 0 .7-.2 1.2-.2 1.8v.5c0 .5.1.9.2 1.3.1.2.1.4.1.7v.1c.1 1.3.3 2.5.2 3.6-.1.5-.3.7-.5.9l-.1.1-.1.9c-1.2.1-2.4.3-3.6.5-5.1 1.1-9.6 3.7-13.1 7.4l-.7-.5h-.1c-.1 0-.3.1-.4.1-.2 0-.4-.1-.6-.2-.9-.6-1.7-1.5-2.7-2.5l-.5-.5c-.3-.3-.5-.6-.9-.9-.1-.1-.2-.1-.3-.3l-.1-.1c-.4-.3-.9-.5-1.5-.5s-1.2.3-1.5.7c-.7.9-.5 2.2.5 3 .1 0 .1.1.1.1l.3.3c.4.3.7.5 1.1.7l.6.3c1.2.7 2.2 1.3 3 2.1.3.3.3.7.3 1v.1l.7.6c-.1.2-.3.3-.3.5-3.3 5.2-4.6 11.4-3.7 17.5l-.9.3c0 .1-.1.1-.1.1-.1.3-.3.5-.7.7-1 .3-2.2.5-3.6.6H26c-.2 0-.5 0-.7.1-.4 0-.8.1-1.3.1h-.2c-.1 0-.1 0-.2.1-1.2.3-1.9 1.4-1.7 2.5.2.9 1.1 1.5 2.1 1.5.2 0 .3 0 .5-.1.1 0 .1 0 .1-.1.1 0 .3-.1.4-.1.5-.1.8-.3 1.2-.5l.6-.3h.1c1.3-.5 2.4-.9 3.5-1h.1c.4 0 .7.2.9.3.1 0 .1.1.1.1l.9-.1c1.6 4.9 4.6 9.3 8.7 12.5.9.7 1.9 1.3 2.9 1.9l-.4.9c0 .1.1.1.1.1.1.3.3.6.1 1.1-.4 1-1 2-1.7 3.1v.1c-.1.2-.3.3-.4.5-.3.3-.5.7-.7 1.1-.1.1-.1.2-.2.3 0 .1-.1.1-.1.1-.5 1.1-.1 2.4.9 2.9.3.1.5.2.8.2.8 0 1.6-.5 2-1.3 0-.1.1-.1.1-.1.1-.1.1-.3.2-.3.2-.5.3-.8.4-1.2.1-.2.1-.4.2-.6.5-1.3.8-2.4 1.4-3.3.3-.4.6-.5.9-.6.1 0 .1 0 .1-.1l.5-.9c2.9 1.1 6.1 1.7 9.3 1.7 1.9 0 3.9-.2 5.8-.7 1.2-.3 2.3-.6 3.5-1l.4.7c.1 0 .1 0 .1.1.3.1.6.2.9.6.5.9.9 2.1 1.4 3.3v.1c.1.2.1.4.2.6.1.4.2.8.4 1.2.1.1.1.2.2.3 0 .1.1.1.1.1.4.8 1.2 1.3 2 1.3.3 0 .5-.1.8-.2.5-.3.9-.7 1-1.2.1-.5.1-1.1-.1-1.7 0-.1-.1-.1-.1-.1-.1-.1-.1-.3-.2-.3-.2-.4-.5-.7-.7-1.1-.1-.2-.3-.3-.4-.5v.1c-.7-1.1-1.4-2.1-1.7-3.1-.1-.5 0-.7.1-1.1 0-.1.1-.1.1-.1l-.3-.8c3.5-2.1 6.5-5 8.8-8.6 1.2-1.9 2.1-3.9 2.8-6l.8.1c.1 0 .1-.1.1-.1.3-.1.5-.3.9-.3H84c1.1.1 2.2.5 3.5 1h.1l.6.3c.4.2.7.3 1.2.5.1 0 .3.1.4.1.1 0 .1 0 .2.1.2.1.3.1.5.1 1 0 1.9-.7 2.1-1.5 0-.9-.8-2-2-2.3zm-30.7-3.2L57 95.4 54.1 94l-.7-3.1 2-2.5h3.3l2 2.5-.8 3.2zm17.3-7c.5 2.3.7 4.5.5 6.7l-10.2-2.9c-.9-.3-1.5-1.2-1.3-2.1.1-.3.2-.5.4-.7l8-7.2c1.2 1.8 2.1 3.9 2.6 6.2zm-5.7-10.2L62.8 83c-.7.5-1.7.3-2.3-.4-.2-.2-.3-.5-.3-.7l-.6-10.8c4.6.5 8.7 2.6 11.9 5.8zm-19.2-5.5c.7-.1 1.4-.3 2.1-.4l-.6 10.6c-.1.9-.8 1.7-1.8 1.7-.3 0-.6-.1-.8-.2l-8.8-6.3c2.7-2.7 6.1-4.5 9.9-5.4zm-13.1 9.4l7.9 7c.7.6.8 1.7.2 2.5-.2.3-.5.5-.8.5l-10.3 3c-.4-4.5.6-9 3-13zm-1.8 18L48 97c.9-.1 1.7.5 1.9 1.4.1.4.1.7-.1 1.1l-4.1 9.8c-3.7-2.4-6.7-6.1-8.3-10.5zM61.6 112c-1.5.3-3.1.5-4.6.5-2.3 0-4.6-.4-6.7-1.1l5.2-9.5c.5-.6 1.4-.9 2.1-.5.3.2.6.5.8.7l5.1 9.2c-.5.4-1.2.5-1.9.7zm13-9.2c-1.7 2.7-3.9 4.8-6.4 6.4l-4.2-10c-.2-.8.1-1.7.9-2.1.3-.1.6-.2.9-.2l10.6 1.8c-.3 1.5-1 2.9-1.8 4.1zm46.6-10.7c.7-.7 1.3-1.5 2-2.2s1.4-1.5 2-2.3c.7-.8 1.3-1.5 1.9-2.2.6-.7 1.1-1.3 1.5-1.8h8c-1.6 1.8-3.1 3.6-4.6 5.2-1.5 1.7-3.2 3.4-5 5.1.9.8 1.8 1.8 2.8 2.9 1 1.1 1.9 2.3 2.8 3.5.9 1.2 1.7 2.4 2.5 3.6.7 1.2 1.4 2.3 1.9 3.3h-7.7c-.5-.8-1-1.6-1.6-2.6-.6-.9-1.3-1.9-1.9-2.8-.7-.9-1.4-1.9-2.2-2.7-.8-.9-1.5-1.6-2.3-2.2v10.3h-6.7V73.4l6.7-1.1v19.8zm38.9 14.3c-1.1.3-2.6.6-4.4.9-1.8.3-3.7.4-5.7.4s-3.7-.3-5-.8c-1.3-.5-2.4-1.3-3.2-2.3-.8-1-1.3-2.1-1.7-3.5-.3-1.3-.5-2.8-.5-4.4V83.6h6.7v12.3c0 2.2.3 3.7.9 4.7.6 1 1.6 1.4 3.2 1.4.5 0 1 0 1.5-.1.5 0 1-.1 1.4-.2V83.6h6.7v22.8zm28.3-11c0 1.9-.3 3.6-.8 5.1-.6 1.5-1.4 2.8-2.4 3.9s-2.3 1.9-3.9 2.5c-1.5.6-3.3.9-5.2.9-.8 0-1.7 0-2.5-.1-.9-.1-1.8-.2-2.6-.3-.9-.1-1.7-.3-2.4-.4-.8-.2-1.5-.3-2.1-.5v-33l6.7-1.1v11.8c.7-.3 1.5-.6 2.3-.8.8-.2 1.7-.3 2.6-.3 1.7 0 3.2.3 4.4.9 1.3.6 2.4 1.4 3.2 2.5.9 1.1 1.5 2.4 2 3.9.5 1.4.7 3.1.7 5zm-6.8-.2c0-4.3-1.6-6.5-4.8-6.5-.7 0-1.4.1-2 .3-.7.2-1.2.4-1.6.7v12.2c.3.1.7.1 1.3.2.5 0 1.1.1 1.7.1 1.8 0 3.2-.6 4.1-1.9.8-1.4 1.3-3 1.3-5.1zm10.8.4c0-2.1.3-3.9 1-5.5.6-1.6 1.5-2.9 2.5-3.9s2.2-1.8 3.6-2.4c1.4-.5 2.8-.8 4.2-.8 3.3 0 6 1 7.9 3.1 1.9 2 2.9 5.1 2.9 9v1.3c0 .5-.1.9-.1 1.2h-15.2c.1 1.4.8 2.5 1.9 3.3 1.1.8 2.7 1.2 4.6 1.2 1.2 0 2.4-.1 3.6-.3 1.2-.2 2.1-.5 2.9-.8l.9 5.4c-.4.2-.8.4-1.4.5-.6.2-1.3.3-2 .5-.7.1-1.5.2-2.4.3-.8.1-1.7.1-2.5.1-2.1 0-4-.3-5.5-.9-1.6-.6-2.9-1.5-3.9-2.6s-1.8-2.4-2.3-3.9c-.4-1.5-.7-3.1-.7-4.8zm15.7-2.6c0-.6-.1-1.1-.3-1.7-.2-.5-.4-1-.8-1.4-.3-.4-.8-.8-1.3-1-.5-.3-1.2-.4-2-.4-.7 0-1.4.1-1.9.4-.5.3-1 .6-1.3 1-.4.4-.6.9-.8 1.5-.2.6-.3 1.1-.4 1.7h8.8zm25.9-3.5c-.6-.1-1.3-.3-2.1-.5s-1.7-.2-2.6-.2c-.4 0-.9 0-1.5.1s-1 .2-1.3.2v18h-6.7V84.8c1.2-.4 2.6-.8 4.2-1.2s3.5-.6 5.5-.6c.4 0 .8 0 1.3.1.5 0 1 .1 1.5.2l1.5.3c.5.1.9.2 1.3.4l-1.1 5.5zm4.7-5.1c1.1-.3 2.6-.6 4.4-.9 1.8-.3 3.7-.4 5.7-.4s3.7.3 5 .8c1.3.5 2.4 1.3 3.2 2.2.8 1 1.3 2.1 1.7 3.4.3 1.3.5 2.8.5 4.4v13.3h-6.7V94.7c0-2.2-.3-3.7-.9-4.6-.6-.9-1.6-1.3-3.2-1.3-.5 0-1 0-1.5.1-.5 0-1 .1-1.4.2v18.2h-6.7V84.4zM264 95.6c0-2.1.3-3.9 1-5.5.6-1.6 1.5-2.9 2.5-3.9s2.2-1.8 3.6-2.4c1.4-.5 2.8-.8 4.2-.8 3.3 0 6 1 7.9 3.1 1.9 2 2.9 5.1 2.9 9v1.3c0 .5-.1.9-.1 1.2h-15.2c.1 1.4.8 2.5 1.9 3.3 1.1.8 2.7 1.2 4.6 1.2 1.2 0 2.4-.1 3.6-.3 1.2-.2 2.1-.5 2.9-.8l.9 5.4c-.4.2-.8.4-1.4.5-.6.2-1.3.3-2 .5-.7.1-1.5.2-2.4.3-.8.1-1.7.1-2.5.1-2.1 0-4-.3-5.5-.9-1.6-.6-2.9-1.5-3.9-2.6s-1.8-2.4-2.3-3.9c-.5-1.5-.7-3.1-.7-4.8zm15.7-2.6c0-.6-.1-1.1-.3-1.7-.2-.5-.4-1-.8-1.4-.3-.4-.8-.8-1.3-1-.5-.3-1.2-.4-2-.4-.7 0-1.4.1-1.9.4-.5.3-1 .6-1.3 1-.4.4-.6.9-.8 1.5-.2.6-.3 1.1-.4 1.7h8.8zm11.4-15.3l6.7-1.1v7h8v5.6h-8v8.3c0 1.4.2 2.5.7 3.4.5.8 1.5 1.3 3 1.3.7 0 1.5-.1 2.2-.2.8-.1 1.5-.3 2.1-.6l.9 5.2c-.8.3-1.7.6-2.7.9-1 .2-2.2.4-3.6.4-1.8 0-3.3-.2-4.5-.7-1.2-.5-2.2-1.2-2.9-2.1-.7-.9-1.2-2-1.5-3.2-.3-1.3-.4-2.6-.4-4.2v-20zm18.1 17.9c0-2.1.3-3.9 1-5.5.6-1.6 1.5-2.9 2.5-3.9s2.2-1.8 3.6-2.4c1.4-.5 2.8-.8 4.2-.8 3.4 0 6 1 7.9 3.1 1.9 2 2.9 5.1 2.9 9v1.3c0 .5-.1.9-.1 1.2H316c.1 1.4.8 2.5 1.9 3.3 1.1.8 2.7 1.2 4.6 1.2 1.2 0 2.4-.1 3.6-.3 1.2-.2 2.1-.5 2.9-.8l.9 5.4c-.4.2-.8.4-1.4.5-.6.2-1.3.3-2 .5-.7.1-1.5.2-2.4.3-.8.1-1.7.1-2.5.1-2.1 0-4-.3-5.5-.9-1.6-.6-2.9-1.5-3.9-2.6s-1.8-2.4-2.3-3.9c-.4-1.5-.7-3.1-.7-4.8zm15.7-2.6c0-.6-.1-1.1-.3-1.7-.2-.5-.4-1-.8-1.4-.3-.4-.8-.8-1.3-1-.5-.3-1.2-.4-2-.4-.7 0-1.4.1-1.9.4-.5.3-1 .6-1.3 1-.4.4-.6.9-.8 1.5-.2.6-.3 1.1-.4 1.7h8.8zm18.4 9.4c1.2 0 2.1-.1 2.6-.4.5-.2.8-.7.8-1.4 0-.5-.3-1-1-1.4s-1.7-.9-3-1.4c-1-.4-2-.8-2.9-1.2-.9-.4-1.6-.9-2.2-1.5-.6-.6-1.1-1.3-1.4-2.1-.3-.8-.5-1.8-.5-2.9 0-2.2.8-4 2.5-5.3 1.6-1.3 3.9-1.9 6.8-1.9 1.4 0 2.8.1 4.1.4 1.3.3 2.4.5 3.1.8l-1.2 5.2c-.8-.3-1.6-.5-2.5-.7-.9-.2-1.9-.3-3.1-.3-2.1 0-3.1.6-3.1 1.8 0 .3 0 .5.1.7.1.2.3.4.5.6.3.2.6.4 1.1.6.5.2 1.1.5 1.8.7 1.5.5 2.7 1.1 3.6 1.6 1 .5 1.7 1.1 2.3 1.7.6.6.9 1.3 1.2 2 .2.7.3 1.6.3 2.6 0 2.3-.9 4.1-2.6 5.3-1.8 1.2-4.2 1.8-7.4 1.8-2.1 0-3.8-.2-5.2-.5-1.4-.4-2.4-.7-2.9-.9l1.1-5.4c1.1.4 2.3.8 3.5 1.1 1.3.2 2.5.4 3.6.4z"/></svg>