<svg id="Layer_1" xmlns="http://www.w3.org/2000/svg" viewBox="0 0 360 180"><style>.st0{fill:#fff}.st1{display:none}.st2{display:inline;fill:#fff}.st3{fill-rule:evenodd;clip-rule:evenodd;fill:#fff}.st4{clip-path:url(#SVGID_2_)}.st5{clip-path:url(#SVGID_4_);fill:#fff}.st6{clip-path:url(#SVGID_6_)}.st7{clip-path:url(#SVGID_8_);fill:#fff}.st8{clip-path:url(#SVGID_10_)}.st9{clip-path:url(#SVGID_12_);fill:#fff}</style><path class="st0" d="M135.9 80.6c.8-6.2-3.9-11.1-6.8-13.5-3.3 3.9-3.9 14 1.4 18.2-2.9 2.6-9.1 4.9-15.4 4.9H38.5c-.6 6.6.5 12.6 3.2 17.8l.9 1.6 1.8 2.7c3.2.2 6.1.3 8.7.2 5.2-.1 9.5-.7 12.7-1.9.5-.2 1 .1 1.2.6.2.5-.1 1-.6 1.2-.4.1-.9.3-1.3.4-2.5.7-5.3 1.2-8.8 1.4h-.6c-1.4.1-2.9.1-4.4.1-1.7 0-3.3 0-5.2-.1 6.4 7.2 16.4 11.5 28.9 11.5 26.5 0 49-11.7 58.9-38.1 7.1.7 13.8-1.1 16.9-7.1-5-2.7-11.3-1.8-14.9.1z"/><path class="st3" d="M57.6 78.9h.8v8.6h-.8v-8.6zm-1.6 0h.9v8.6H56v-8.6zm-1.6 0h.9v8.6h-.9v-8.6zm-1.5 0h.9v8.6h-.9v-8.6zm-1.6 0h.9v8.6h-.9v-8.6zm-1.5 0h.8v8.6h-.8v-8.6zm-.9-.9h10.4v10.4H48.9V78zm20.6-11.1h.8v8.6h-.8v-8.6zm-1.5 0h.9v8.6H68v-8.6zm-1.6 0h.8v8.6h-.8v-8.6zm-1.6 0h.9v8.6h-.9v-8.6zm-1.5 0h.8v8.6h-.8v-8.6zm-1.6 0h.8v8.6h-.8v-8.6zm-.8-.8h10.4v10.4H60.9V66.1zm8.6 12.8h.8v8.6h-.8v-8.6zm-1.5 0h.9v8.6H68v-8.6zm-1.6 0h.8v8.6h-.8v-8.6zm-1.6 0h.9v8.6h-.9v-8.6zm-1.5 0h.8v8.6h-.8v-8.6zm-1.6 0h.8v8.6h-.8v-8.6zm-.8-.9h10.4v10.4H60.9V78zm20.6.9h.8v8.6h-.8v-8.6zm-1.6 0h.9v8.6h-.9v-8.6zm-1.5 0h.8v8.6h-.8v-8.6zm-1.6 0h.8v8.6h-.8v-8.6zm-1.6 0h.9v8.6h-.9v-8.6zm-1.5 0h.8v8.6h-.8v-8.6zm-.9-.9h10.4v10.4H72.8V78zm8.7-11.1h.8v8.6h-.8v-8.6zm-1.6 0h.9v8.6h-.9v-8.6zm-1.5 0h.8v8.6h-.8v-8.6zm-1.6 0h.8v8.6h-.8v-8.6zm-1.6 0h.9v8.6h-.9v-8.6zm-1.5 0h.8v8.6h-.8v-8.6zm-.9-.8h10.4v10.4H72.8V66.1zm20.7 12.8h.8v8.6h-.8v-8.6zm-1.6 0h.9v8.6h-.9v-8.6zm-1.6 0h.9v8.6h-.9v-8.6zm-1.5 0h.9v8.6h-.9v-8.6zm-1.6 0h.8v8.6h-.9v-8.6zm-1.6 0h.8v8.6h-.8v-8.6zm-.8-.9h10.4v10.4H84.8V78zm8.7-11.1h.8v8.6h-.8v-8.6zm-1.6 0h.9v8.6h-.9v-8.6zm-1.6 0h.9v8.6h-.9v-8.6zm-1.5 0h.9v8.6h-.9v-8.6zm-1.6 0h.8v8.6h-.9v-8.6zm-1.6 0h.8v8.6h-.8v-8.6zm-.8-.8h10.4v10.4H84.8V66.1zM93.5 55h.8v8.6h-.8V55zm-1.6 0h.9v8.6h-.9V55zm-1.6 0h.9v8.6h-.9V55zm-1.5 0h.9v8.6h-.9V55zm-1.6 0h.8v8.6h-.9V55zm-1.6 0h.8v8.6h-.8V55zm-.8-.9h10.4v10.4H84.8V54.1zm20.6 24.8h.8v8.6h-.8v-8.6zm-1.5 0h.8v8.6h-.8v-8.6zm-1.6 0h.9v8.6h-.9v-8.6zm-1.6 0h.9v8.6h-.9v-8.6zm-1.6 0h.8v8.6h-.8v-8.6zm-1.5 0h.8v8.6h-.8v-8.6zm-.9-.9h10.4v10.4H96.7V78zm-26.1 27.2c1.6 0 2.9 1.3 2.9 2.9 0 1.6-1.3 2.9-2.9 2.9-1.6 0-2.9-1.3-2.9-2.9 0-1.6 1.3-2.9 2.9-2.9"/><path class="st3" d="M70.6 106c.3 0 .5.1.7.1-.2.1-.4.4-.4.7 0 .5.4.8.8.8.3 0 .6-.2.7-.4.1.2.2.5.2.8 0 1.1-.9 2-2 2s-2-.9-2-2c-.1-1.1.8-2 2-2M20 99.3h133c-2.9-.7-9.2-1.7-8.1-5.5-5.3 6.1-18 4.3-21.2 1.3-3.6 5.2-24.3 3.2-25.8-.8-4.5 5.3-18.3 5.3-22.8 0-1.4 4-22.2 6-25.8.8-3.2 3-15.9 4.8-21.2-1.3 1.1 3.8-5.2 4.7-8.1 5.5"/><path class="st0" d="M78.2 125.8c-7.1-3.4-11-7.9-13.1-12.9-2.6.8-5.8 1.2-9.5 1.4-1.4.1-2.8.1-4.4.1-1.8 0-3.6-.1-5.6-.2 6.5 6.5 14.5 11.5 29.3 11.6 1.1.1 2.2.1 3.3 0z"/><path class="st3" d="M292.8 104.8l12.3-10.5c1.4-1.2 2.9-2.4 4.3-3.7-1.1-1.4-3-2.4-4.5-3-3.2-1.2-6.3-.8-9.2.9-3.8 2.2-5.4 5.7-5.3 10.1.1 1.7.5 3.4 1.4 4.8.2.4.6.9 1 1.4m4.7 3.3c2 .7 4.3.6 6.4.2 1.1-.4 3.7-1.6 4.7-1.5h.2l.1.1c.6.3 1.2.7 1.5 1.3.7 1.4.4 2.9-1 3.7l-.5.3c-5.2 3-10.8 2.6-16-.2-2.5-1.3-4.4-3.3-5.8-5.8l-.3-.6c-3.4-5.8-2.9-11.9.9-17.5 1.3-1.9 3-3.4 5-4.5l.8-.4c4.9-2.8 10.2-2.6 15.3-.2 2.7 1.3 4.9 3.3 6.4 6l.3.5c1.1 1.9-.3 3.6-1.8 4.7-1.7 1.3-3.4 2.9-5.1 4.3-3.8 3.3-7.4 6.5-11.1 9.6zm39.2-26.4h.5c1.7 0 2.8 1.1 2.8 2.8 0 2.3-2.2 2.9-4.1 2.9-2.5 0-4.8 1.5-6.5 3.2-2.1 2.1-3.1 4.8-3.1 7.7v13.3c0 1.5-1 2.8-2.5 2.8h-.4c-1.6 0-2.5-1.2-2.5-2.8V97.4c0-5.4 2.6-9.8 7-12.9 2.6-1.9 5.6-2.8 8.8-2.8zM268 91.1c2.1-2.1 4.3-4.3 6.5-6.4.6-.6 2.9-3.1 3.8-3.1h1.1c1.3.3 2.2 1.1 2.2 2.4v.5c0 .9-1.1 2-1.7 2.6-1.3 1.3-2.6 2.6-3.9 4l-6.7 6.8c2.9 2.9 5.7 5.8 8.6 8.6.8.8 1.6 1.6 2.3 2.4.3.3.7.6.9 1 .2.4.4.8.4 1.2v.7c-.3 1.3-1.1 2.3-2.5 2.3h-.4c-.9 0-1.9-1-2.6-1.6-1.3-1.2-2.5-2.5-3.8-3.7l-4.2-4.2v6.6c0 1.5-1 2.8-2.5 2.8h-.5c-1.6 0-2.5-1.2-2.5-2.8V74c0-1.5 1-2.8 2.5-2.8h.4c1.6 0 2.5 1.2 2.5 2.8v17.1zm-17.9-3.7c-.8-.4-2.4-.5-3.3-.6-4.6-.2-7.9 2.4-9.9 6.5-.7 1.4-1 2.9-1 4.4 0 4.7 2.5 8 6.7 10 1.5.7 3.5.9 5.2.9 1.5 0 3.6-.9 4.9-1.5l.2-.1h1.1c1.3.3 2.2 1.1 2.2 2.4v.5c0 3.4-6.1 4.1-8.5 4.3-8.3.6-14.4-4-16.8-11.8-.4-1.4-.6-2.7-.6-4.2v-1.1c0-6 3-10.7 8.1-13.8 2.4-1.4 5-2.1 7.8-2.1h1.1c2.9 0 5.6.8 8.1 2.5l.2.1.1.2c.3.4.5.9.5 1.5v.5c0 1.4-1.1 2.2-2.3 2.4h-.4c-.8.2-2.7-.6-3.4-1zm-50.3 10.5c0 4.2 2.1 7.3 5.6 9.4 1.7 1 3.5 1.5 5.4 1.5 4.1 0 7.2-2.1 9.3-5.6 1-1.7 1.5-3.5 1.5-5.4 0-3.9-1.9-6.9-5.1-9-1.8-1.2-3.7-1.8-5.8-1.8-4.6 0-7.9 2.3-9.9 6.5-.7 1.3-1 2.8-1 4.4zm10.4-16.5h.8c6.4 0 11.2 3.1 14.3 8.7 1.2 2.2 1.9 4.7 1.9 7.2v1.1c0 6-2.9 10.7-8.1 13.8-2.4 1.4-5 2.1-7.8 2.1h-1.1c-6 0-10.7-3-13.8-8.1-1.4-2.4-2.1-5-2.1-7.8v-1.1c0-6 3-10.7 8.1-13.8 2.4-1.3 5-2.1 7.8-2.1zm-46.5 16.5c0 4.3 2.1 7.6 5.9 9.6 1.5.8 3.2 1.3 4.9 1.3 4.2 0 7.4-2 9.5-5.6 1-1.7 1.5-3.5 1.5-5.4 0-3.7-1.8-6.7-4.8-8.8-1.8-1.3-3.9-2-6.1-2-4.6 0-7.9 2.3-9.9 6.5-.7 1.3-1 2.8-1 4.4zm21.9-12.3V73.9c0-1.5 1-2.8 2.5-2.8h.4c1.6 0 2.5 1.2 2.5 2.8v24.5c0 6-3 10.7-8.1 13.8-2.4 1.4-5 2.1-7.8 2.1H174c-6 0-10.7-3-13.8-8.1-1.4-2.4-2.1-5-2.1-7.8v-1.1c0-6 3-10.7 8.1-13.8 2.4-1.4 5-2.1 7.8-2.1h1.1c4.1 0 7.6 1.6 10.5 4.2z"/></svg>