<svg id="Layer_1" xmlns="http://www.w3.org/2000/svg" viewBox="0 0 180 180"><style>.st0{fill:#fff}.st1{display:none}.st2{display:inline;fill:#fff}.st3{fill-rule:evenodd;clip-rule:evenodd;fill:#fff}.st4{clip-path:url(#SVGID_2_)}.st5{clip-path:url(#SVGID_4_);fill:#fff}.st6{clip-path:url(#SVGID_6_)}.st7{clip-path:url(#SVGID_8_);fill:#fff}.st8{clip-path:url(#SVGID_10_)}.st9{clip-path:url(#SVGID_12_);fill:#fff}</style><g id="Layer_1_1_"><path id="docker_16_" class="st0" d="M127.9 146.1c3.5-3 7-6 10.5-9.1 1.2-1 2.5-2.1 3.7-3.2-1-1.2-2.5-2.1-3.9-2.6-2.7-1-5.4-.7-7.9.8-3.3 1.9-4.7 4.9-4.6 8.7 0 1.5.4 2.9 1.2 4.2.3.3.6.9 1 1.2m4 2.8c1.7.6 3.7.5 5.5.2.9-.4 3.2-1.4 4.1-1.2h.1l.1.1c.5.3 1 .6 1.3 1.1.6 1.2.3 2.5-.9 3.2l-.4.2c-4.5 2.6-9.3 2.2-13.8-.2-2.1-1.2-3.8-2.9-5-5l-.3-.5c-2.9-5-2.5-10.3.8-15 1.1-1.6 2.6-2.9 4.3-3.9l.6-.4c4.2-2.4 8.8-2.3 13.1-.1 2.3 1.2 4.2 2.9 5.5 5.1l.2.4c.9 1.6-.3 3.1-1.5 4.1-1.5 1.1-3 2.5-4.4 3.7-3 2.9-6.1 5.5-9.3 8.2zm33.7-22.7h.5c1.4 0 2.4 1 2.4 2.4 0 2-1.9 2.5-3.5 2.5-2.1 0-4.2 1.3-5.6 2.7-1.8 1.8-2.6 4.1-2.6 6.6v11.5c0 1.3-.8 2.4-2.2 2.4h-.4c-1.4 0-2.2-1.1-2.2-2.4v-12.1c0-4.7 2.3-8.5 6-11.1 2.3-1.7 4.8-2.5 7.6-2.5zm-59 8.1c1.8-1.8 3.7-3.7 5.6-5.5.5-.5 2.5-2.6 3.3-2.6h.9c1.1.2 1.9.9 1.9 2.1v.5c0 .8-.9 1.7-1.4 2.3-1.1 1.2-2.2 2.3-3.3 3.4l-5.7 5.8 7.4 7.4c.7.7 1.4 1.4 2 2.1.2.2.6.6.8.9.2.3.3.7.3 1.1v.6c-.3 1.1-1 2-2.1 2h-.4c-.8 0-1.7-.9-2.2-1.4-1.1-1-2.2-2.1-3.3-3.2l-3.6-3.6v5.7c0 1.3-.8 2.4-2.2 2.4h-.4c-1.4 0-2.2-1.1-2.2-2.4v-32.2c0-1.3.8-2.4 2.2-2.4h.4c1.4 0 2.2 1.1 2.2 2.4v14.6h-.2zm-15.4-3.2c-.7-.3-2.1-.4-2.8-.5-4-.1-6.8 2.1-8.5 5.6-.6 1.2-.8 2.5-.8 3.8 0 4.1 2.1 6.9 5.8 8.6 1.3.6 3 .8 4.5.8 1.3 0 3.1-.8 4.2-1.3l.2-.1h1c1.1.2 1.9.9 1.9 2.1v.5c0 2.9-5.3 3.5-7.3 3.7-7.1.5-12.4-3.4-14.4-10.2-.4-1.2-.5-2.3-.5-3.6v-.9c0-5.1 2.5-9.2 7-11.8 2-1.2 4.3-1.8 6.7-1.8h.9c2.5 0 4.9.7 6.9 2.1l.2.1.1.2c.2.4.4.8.4 1.2v.5c0 1.2-.9 1.9-2 2.1h-.4c-.9-.1-2.5-.8-3.1-1.1zm-43.2 9c0 3.6 1.8 6.2 4.8 8.1 1.4.9 3 1.3 4.7 1.3 3.6 0 6.2-1.8 8-4.8.9-1.4 1.3-3 1.3-4.7 0-3.3-1.6-5.9-4.4-7.8-1.5-1-3.2-1.5-5-1.5-4 0-6.8 2-8.5 5.6-.6 1.2-.9 2.5-.9 3.8zm8.9-14.1h.7c5.5 0 9.7 2.7 12.3 7.5 1.1 1.9 1.6 4 1.6 6.2v.9c0 5.1-2.5 9.2-7 11.8-2.1 1.2-4.3 1.8-6.7 1.8h-.9c-5.1 0-9.2-2.5-11.8-7-1.2-2.1-1.8-4.3-1.8-6.7v-.9c0-5.1 2.5-9.2 7-11.8 2-1.2 4.2-1.8 6.6-1.8zM17 140.1c0 3.7 1.8 6.5 5 8.3 1.3.7 2.7 1.1 4.2 1.1 3.6 0 6.3-1.7 8.2-4.8.9-1.4 1.3-3 1.3-4.7 0-3.2-1.5-5.7-4.1-7.6-1.6-1.1-3.3-1.7-5.3-1.7-4 0-6.8 2-8.5 5.6-.5 1.2-.8 2.5-.8 3.8zm18.8-10.6v-10c0-1.3.8-2.4 2.2-2.4h.4c1.4 0 2.2 1.1 2.2 2.4v21.1c0 5.1-2.5 9.2-7 11.8-2.1 1.2-4.3 1.8-6.7 1.8H26c-5.1 0-9.2-2.5-11.8-7-1.2-2.1-1.8-4.3-1.8-6.7v-.9c0-5.1 2.5-9.2 7-11.8 2.1-1.2 4.3-1.8 6.7-1.8h.7c3.5 0 6.5 1.3 9 3.5z"/><g id="body_colors_21_"><path class="st0" d="M147.6 56.4c.9-7.3-4.5-13-7.9-15.7-3.9 4.5-4.5 16.3 1.6 21.3-3.4 3-10.6 5.8-18 5.8H33.8c-.7 7.7.6 14.8 3.7 20.8l1 1.9c.6 1.1 1.4 2.2 2.1 3.2 3.7.2 7.1.3 10.2.2 6.1-.1 11.1-.9 14.9-2.2.6-.2 1.2.1 1.4.7.2.6-.1 1.2-.7 1.4-.5.2-1 .3-1.6.5-3 .8-6.2 1.4-10.3 1.7h-.8c-1.6.1-3.4.1-5.2.1-2 0-3.9 0-6-.1h-.1c7.5 8.4 19.1 13.4 33.8 13.4 31 0 57.2-13.7 68.9-44.5 8.3.8 16.2-1.3 19.8-8.3-5.7-3.4-13-2.3-17.3-.2z"/><path class="st0" d="M147.6 56.4c.9-7.3-4.5-13-7.9-15.7-3.9 4.5-4.5 16.3 1.6 21.3-3.4 3-10.6 5.8-18 5.8H39.1c-.4 11.8 4 20.7 11.7 26.1 6.1-.1 11.1-.9 14.9-2.2.6-.2 1.2.1 1.4.7.2.6-.1 1.2-.7 1.4-.5.2-1 .3-1.6.5-3 .8-6.4 1.5-10.5 1.7l-.1-.1c10.5 5.4 25.8 5.4 43.3-1.3 19.6-7.5 37.9-21.9 50.7-38.4-.2 0-.4.1-.6.2z"/><path class="st0" d="M33.9 77.1c.6 4.1 1.8 8 3.5 11.5l1 1.9c.6 1.1 1.4 2.2 2.1 3.2 3.7.2 7.1.3 10.2.2 6.1-.1 11.1-.9 14.9-2.2.6-.2 1.2.1 1.4.7.2.6-.1 1.2-.7 1.4-.5.2-1 .3-1.6.5-3 .8-6.4 1.5-10.5 1.7h-.5c-1.6.1-3.3.1-5.1.1-2 0-4 0-6.1-.1 7.5 8.4 19.2 13.4 33.8 13.4 26.5 0 49.6-10.1 63-32.3H33.9z"/><path class="st0" d="M39.9 77.1c1.6 7.2 5.4 12.9 10.9 16.8 6.1-.1 11.1-.9 14.9-2.2.6-.2 1.2.1 1.4.7.2.6-.1 1.2-.7 1.4-.5.2-1 .3-1.6.5-3 .8-6.5 1.5-10.6 1.7 10.5 5.4 25.8 5.3 43.3-1.4 10.6-4.1 20.8-10.1 29.9-17.4l-87.5-.1z"/></g><g class="st1"><path class="st2" d="M48.6 96c1.8 0 3.5 0 5.1-.1h.4c4.1-.3 7.7-.8 10.6-1.7.5-.2 1.1-.3 1.6-.5.6-.2.9-.8.7-1.4s-.8-.9-1.4-.7c-3.8 1.3-8.8 2-14.9 2.2-3.1.1-6.5 0-10.2-.2h-.6c-.6 0-1.1.4-1.1 1s.4 1.1 1 1.1c.8.1 1.5.1 2.2.1h.3c2.3.2 4.4.2 6.3.2z"/></g><path class="st0" d="M56.1 54.5h1v10.1h-1V54.5zm-1.9 0h1v10.1h-1V54.5zm-1.8 0h1v10.1h-1V54.5zm-1.8 0h1v10.1h-1V54.5zm-1.9 0h1v10.1h-1V54.5zm-1.8 0h1v10.1h-1V54.5zm-1-1H58v12.1H45.9V53.5zm24.2-13h1v10.1h-1V40.5zm-1.9 0h1v10.1h-1V40.5zm-1.8 0h1v10.1h-1V40.5zm-1.8 0h1v10.1h-1V40.5zm-1.9 0h1v10.1h-1V40.5zm-1.8 0h1v10.1h-1V40.5zm-1-1H72v12.1H59.9V39.5zm10.2 15h1v10.1h-1V54.5zm-1.9 0h1v10.1h-1V54.5zm-1.8 0h1v10.1h-1V54.5zm-1.8 0h1v10.1h-1V54.5zm-1.9 0h1v10.1h-1V54.5zm-1.8 0h1v10.1h-1V54.5zm-1-1H72v12.1H59.9V53.5zm24.1 1h1v10.1h-1V54.5zm-1.8 0h1v10.1h-1V54.5zm-1.8 0h1v10.1h-1V54.5zm-1.9 0h1v10.1h-1V54.5zm-1.8 0h1v10.1h-1V54.5zm-1.8 0h1v10.1h-1V54.5zm-1-1H86v12.1H73.9V53.5zm10.1-13h1v10.1h-1V40.5zm-1.8 0h1v10.1h-1V40.5zm-1.8 0h1v10.1h-1V40.5zm-1.9 0h1v10.1h-1V40.5zm-1.8 0h1v10.1h-1V40.5zm-1.8 0h1v10.1h-1V40.5zm-1-1H86v12.1H73.9V39.5zm24.1 15h1v10.1h-1V54.5zm-1.8 0h1v10.1h-1V54.5zm-1.9 0h1v10.1h-1V54.5zm-1.8 0h1v10.1h-1V54.5zm-1.8 0h1v10.1h-1V54.5zm-1.8 0h1v10.1h-1V54.5zm-1-1H100v12.1H87.9V53.5zm10.1-13h1v10.1h-1V40.5zm-1.8 0h1v10.1h-1V40.5zm-1.9 0h1v10.1h-1V40.5zm-1.8 0h1v10.1h-1V40.5zm-1.8 0h1v10.1h-1V40.5zm-1.8 0h1v10.1h-1V40.5zm-1-1H100v12.1H87.9V39.5zm10.1-13h1v10.1h-1V26.5zm-1.8 0h1v10.1h-1V26.5zm-1.9 0h1v10.1h-1V26.5zm-1.8 0h1v10.1h-1V26.5zm-1.8 0h1v10.1h-1V26.5zm-1.8 0h1v10.1h-1V26.5zm-1-1H100v12.1H87.9V25.5zm24.1 29h1v10.1h-1V54.5zm-1.8 0h1v10.1h-1V54.5zm-1.9 0h1v10.1h-1V54.5zm-1.8 0h1v10.1h-1V54.5zm-1.8 0h1v10.1h-1V54.5zm-1.8 0h1v10.1h-1V54.5zm-1.1-1h12.1v12.1h-12.1V53.5z" id="Containers_21_"/><path class="st0" d="M71.3 85.2c1.8 0 3.3 1.5 3.3 3.3s-1.5 3.3-3.3 3.3-3.3-1.5-3.3-3.3c-.1-1.8 1.4-3.3 3.3-3.3"/><path class="st0" d="M71.3 86.2c.3 0 .6.1.9.2-.3.2-.5.5-.5.8 0 .5.4 1 1 1 .4 0 .7-.2.9-.5.1.3.2.6.2.9 0 1.3-1.1 2.4-2.4 2.4S69 89.9 69 88.6c-.1-1.4.9-2.4 2.3-2.4m-59.2-7.9h155.5c-3.4-.9-10.7-2-9.5-6.5-6.2 7.1-21 5-24.7 1.5-4.2 6.1-28.5 3.8-30.2-1-5.2 6.1-21.4 6.1-26.7 0-1.7 4.7-26 7-30.2 1-3.7 3.5-18.6 5.6-24.7-1.5 1.3 4.5-6.1 5.6-9.5 6.5m68.1 31c-8.3-3.9-12.8-9.3-15.3-15.1-3.1.9-6.8 1.4-11.1 1.7-1.6.1-3.3.1-5.1.1-2.1 0-4.2-.1-6.5-.2 7.6 7.6 16.9 13.4 34.2 13.5 1.2.1 2.5 0 3.8 0z"/><path class="st0" d="M67.9 99.6c-1.1-1.6-2.3-3.5-3.1-5.4-3.1.9-6.8 1.4-11.1 1.7 3 1.6 7.2 3.1 14.2 3.7z"/></g></svg>