<svg id="Layer_1" xmlns="http://www.w3.org/2000/svg" xmlns:xlink="http://www.w3.org/1999/xlink" viewBox="0 0 180 180"><style>.st0{fill:#fff}.st1{display:none}.st2{display:inline;fill:#fff}.st3{fill-rule:evenodd;clip-rule:evenodd;fill:#fff}.st4{clip-path:url(#SVGID_2_)}.st5{clip-path:url(#SVGID_4_);fill:#fff}.st6{clip-path:url(#SVGID_6_)}.st7{clip-path:url(#SVGID_8_);fill:#fff}.st8{clip-path:url(#SVGID_10_)}.st9{clip-path:url(#SVGID_12_);fill:#fff}</style><defs><path id="SVGID_1_" d="M51.7-146.6l-6.3 6.3c-.4.4-.4.9 0 1.3l44.7 44.7c.4.4.9.4 1.3 0l44.7-44.7c.4-.4.4-.9 0-1.3l-6.3-6.3-36.4 36.4c-1.4 1.4-3.7 1.4-5.2 0l-36.5-36.4z"/></defs><use xlink:href="#SVGID_1_" overflow="visible" fill-rule="evenodd" clip-rule="evenodd" fill="#fff"/><clipPath id="SVGID_2_"><use xlink:href="#SVGID_1_" overflow="visible"/></clipPath><g class="st4"><defs><path id="SVGID_3_" d="M-91.7-264.8h364.8V8.8H-91.7z"/></defs><use xlink:href="#SVGID_3_" overflow="visible" fill="#fff"/><clipPath id="SVGID_4_"><use xlink:href="#SVGID_3_" overflow="visible"/></clipPath></g><defs><path id="SVGID_5_" d="M-212.6-119.1l-7.2 7.2c-.4.4-.4 1.1 0 1.5l51.1 51.1c.4.4 1.1.4 1.5 0l51.1-51.1c.4-.4.4-1.1 0-1.5l-7.2-7.2-41.6 41.6c-1.6 1.6-4.3 1.6-5.9 0l-41.8-41.6z"/></defs><use xlink:href="#SVGID_5_" overflow="visible" fill-rule="evenodd" clip-rule="evenodd" fill="#fff"/><clipPath id="SVGID_6_"><use xlink:href="#SVGID_5_" overflow="visible"/></clipPath><g class="st6"><defs><path id="SVGID_7_" d="M-376.4-254.1H40.4V58.5h-416.8z"/></defs><use xlink:href="#SVGID_7_" overflow="visible" fill="#fff"/><clipPath id="SVGID_8_"><use xlink:href="#SVGID_7_" overflow="visible"/></clipPath></g><defs><path id="SVGID_9_" d="M274-119.4l-6.7 6.7c-.4.4-.4 1 0 1.4L315-63.5c.4.4 1 .4 1.4 0l47.7-47.7c.4-.4.4-1 0-1.4l-6.7-6.7-38.9 38.9c-1.5 1.5-4 1.5-5.5 0l-39-39z"/></defs><use xlink:href="#SVGID_9_" overflow="visible" fill-rule="evenodd" clip-rule="evenodd" fill="#fff"/><clipPath id="SVGID_10_"><use xlink:href="#SVGID_9_" overflow="visible"/></clipPath><g class="st8"><defs><path id="SVGID_11_" d="M120.9-245.6h389.6V46.6H120.9z"/></defs><use xlink:href="#SVGID_11_" overflow="visible" fill="#fff"/><clipPath id="SVGID_12_"><use xlink:href="#SVGID_11_" overflow="visible"/></clipPath></g><path class="st0" d="M18.2 129h-6.6v-27.1c.1 0 .1-.1.2-.1 4.3 0 8.6 0 12.9.2 3.7.2 6.3 2.5 6.8 5.7.7 4-1 7.2-4.5 8.8-.2.1-.5.2-.5.3 1 1.8 1.9 3.6 2.8 5.3.6 1.1 1.3 2.1 2.7 2.4 1.1.2 1.5 0 1.8-1.1 2.3-6.9 4.6-13.8 6.9-20.6.2-.6.5-.9 1.2-.9 1.7.1 3.5 0 5.2 0 .3 0 .7.3.8.5 3 8.7 5.9 17.5 8.9 26.2 0 .1.1.3.1.5h-6.2c-.2 0-.5-.3-.6-.6-.5-1.3-.9-2.7-1.3-4-.1-.5-.4-.7-.9-.7H40c-.5 0-.8.2-.9.7l-1.2 3.9c-.1.5-.4.7-.9.7-2.2 0-4.4.1-6.5.2-2.4.1-4.4-.8-5.7-3-.7-1.3-1.3-2.7-2-4l-1.5-3c-.6-1-1.6-1.2-2.6-1-.2 0-.4.5-.4.8v8.7c-.1.3-.1.7-.1 1.2zm0-15.4c1.7-.2 3.4-.2 4.9-.6 1.4-.4 2-1.9 1.9-3.5-.1-1.5-.9-2.5-2.5-2.7-1.3-.2-2.5-.1-3.8-.1-.2 0-.5.4-.5.6v6.3zm25.8-4.7c-.9 3.1-1.9 6.5-2.9 9.9h5.7c-1-3.4-1.9-6.8-2.8-9.9zm18.7 2.2v18h-4.8c-.2 0-.4-.3-.5-.5-.1-.2 0-.4 0-.6v-24.9c0-.9.2-1.3 1.2-1.2 1.7.1 3.5 0 5.2 0 .5 0 .8.2 1.1.6 2.9 5.8 6.3 11.3 8.7 17.4 0 .1.1.2.4.3v-.8c-.1-5.6-.2-11.1-.2-16.7 0-.4-.1-.8.6-.8h4.8v27.3h-3.6c-1.1 0-2.4.3-3.3-.2-.8-.5-1.1-1.8-1.7-2.7-1.9-3.5-3.9-7-5.8-10.6-.8-1.6-1.4-3.1-2.1-4.6zm42.4 17.9v-27.1h6.6V112h8.5v-10.2h6.6V129h-6.6c0-.4-.1-.7-.1-1.1v-9.6c0-.7-.2-1-1-.9h-7.5v11.5c-2.1.1-4.2.1-6.5.1zm44.4 0v-27.1c.3 0 .5-.1.7-.1h10.7c1.1 0 2.2.2 3.2.4 3.2.8 5 2.9 5.4 6.3.4 2.9-1.1 5.9-3.7 7.4-.5.3-1 .5-1.4.7 1 1.8 1.9 3.6 2.9 5.4.8 1.6 1.9 2.6 4 2.2-.2 1.5-.3 2.9-.5 4.3 0 .2-.4.4-.6.4-3.5.7-6.1.1-7.9-3.3-.7-1.3-1.3-2.8-1.9-4.2-.3-.7-.7-1.4-1.1-2.1-.5-.9-1.2-1.3-2.3-1.3-.7 0-.9.2-.9.9v9.9c-2.2.2-4.4.2-6.6.2zm6.7-15.4c1.7-.2 3.2-.2 4.7-.5 1.5-.4 2.2-1.9 2.1-3.6-.1-1.6-1-2.6-2.5-2.8-1.2-.2-2.5-.1-3.7-.1-.2 0-.5.4-.5.6-.2 2-.1 4-.1 6.4zm-8.4-11.8v4.4c0 .2-.5.4-.8.4h-10.5v5.9c.4 0 .7.1 1.1.1h6c2.4 0 2.4 0 2.4 2.4v2.4h-9.5v6.5h11.6v4.9h-18.3v-27.1c6 .1 12 .1 18 .1zM98 119.4c1.8.2 3.4.4 5.1.5.8.1.7.6.7 1.1-.2 3.7-2 6.3-5.5 7.6-3.4 1.3-6.8 1.3-10.3.1-3.4-1.2-5.4-3.7-6.4-7.1-1.2-4.2-1.2-8.4-.1-12.6 1.3-4.6 4.7-7.3 9.5-7.8 2.4-.2 4.7-.1 7 .6 4.1 1.3 6.2 5.1 5.3 9.5-1.9.2-3.9.4-6 .6v-1.8c0-2.2-.8-3.5-2.6-4.1-2.1-.7-4.2 0-5.4 1.6-1 1.4-1.4 3.1-1.5 4.8-.3 2.7-.3 5.4.5 8 .9 3.2 3.1 4.6 6.1 4.1 2.3-.4 3.6-2 3.6-4.4v-.7z"/><path class="st0" d="M57.1 101.8h5.6v27.4h-5.6zm-45.8 0h7.1v27.4h-7.1z"/><path class="st0" d="M79 129.1h-7l-14.9-27.3h7.6zm-21.9 0h-7l-9.2-27.3h6.9z"/><path class="st0" d="M30.5 129.1h7.1l9.2-27.3h-6.9zm42.9-27.3H79v27.4h-5.6zm31.5 0h7v27.4h-7zm15 0h7v27.4h-7zm9.7 0h7v27.4h-7zm19.7 0h7v27.4h-7z"/><path class="st0" d="M135.1 101.8h12.8v5h-12.8zm-2 10.8h12.8v5h-12.8zm-23.2-.5h12.8v5.6h-12.8zm-72.5 6.4h12.8v5.6H37.4zm95.7 5.6h15.1v5h-15.1zM60 63.2c-1.4 1.1-2.7 2.1-3.9 3.1-.6.5-.9.4-1.4-.1-1-1.2-1-1.2-.1-2.5 1.8-2.8 3.7-5.6 5.5-8.4.5-.8 1.2-1.1 2.1-1.1h32.5c1.7 0 2.3.8 2 2.4l-.6 3.3c-.2 1.5.6 2.4 2.1 2.5h6.2c1.2 0 1.7-.4 1.9-1.4h-5.8c-2 0-3-1.2-2.6-3.1.3-1.7.5-3.3.9-5 .2-.8.6-1.5 1-2.5 1.1 1.3.9 2.5 1 3.8h15.5c2.4 0 3.4.8 3.5 3.2.1 3.2 0 6.4 0 9.7v5.1c0 1.5-1.1 2.6-2.7 2.6h-7.9c-1.6 0-2.7-1.2-2.7-2.7v-6c-.4.3-.7.5-.8.7-.3.6-.5 1.3-.6 1.9-.1 1.5 0 2.9 0 4.4 0 2 1.3 3.3 3.3 3.3h3.8c.6 0 .8.2.8.8V84c0 1.1-.7 1.7-1.8 1.7h-9.1c-1.2 0-1.8-.7-1.8-1.9v-6.4c0-1.7-.7-2.4-2.5-2.4H75.3c-1.8 0-2.5.7-2.5 2.5v6.2c0 1.4-.6 2-2 2h-8.5c-1.6 0-2.2-.6-2.2-2.2V64.9c0-.6-.1-1-.1-1.7zm66.6-12.6c.3.6.7 1.2.8 1.8.4 2 .7 3.9 1 5.9.2 1.7-.7 2.7-2.4 2.7h-4.8v-2.8c0-.2.3-.4.5-.5.4-.1.7 0 1.1-.1 1.7-.3 2.7-1.4 2.8-3.3 0-.9.1-1.9.2-2.8 0-.3.3-.6.4-.9h.4z"/></svg>