<?xml version="1.0" encoding="UTF-8"?>
<svg width="150px" height="150px" viewBox="0 0 150 150" version="1.1" xmlns="http://www.w3.org/2000/svg" xmlns:xlink="http://www.w3.org/1999/xlink">
    <!-- Generator: Sketch 48.2 (47327) - http://www.bohemiancoding.com/sketch -->
    <title>Group 5</title>
    <desc>Created with Sketch.</desc>
    <defs></defs>
    <g id="Page-1" stroke="none" stroke-width="1" fill="none" fill-rule="evenodd">
        <g id="Group-5" transform="translate(33.000000, 11.000000)" fill-rule="nonzero">
            <g id="Group-4">
                <g id="Group-3">
                    <path d="M53.0727273,18.9394564 L55.6181818,18.9394564 L62.8727273,11.6550501 L63.2290909,8.56237233 C54.7800133,1.07422052 43.0791122,-1.50237632 32.2846493,1.74825184 C21.4901865,4.99888 13.132529,13.6158808 10.1818182,24.5369476 C10.990007,24.2043224 11.8852732,24.1503854 12.7272727,24.3835917 L27.2363636,21.9810155 C27.2363636,21.9810155 27.9745455,20.7541682 28.3563636,20.8308461 C34.8103708,13.7135126 45.6719042,12.8840554 53.1236364,18.9394564 L53.0727273,18.9394564 Z" id="Shape" fill="#2D5E72"></path>
                    <path d="M73.2072727,24.5369476 C71.5397797,18.3711015 68.1161317,12.8280785 63.3563636,8.58793165 L53.1745455,18.8116598 C57.4739828,22.3391654 59.9230016,27.6530813 59.8181818,33.2271165 L59.8181818,35.0418283 C64.8228858,35.0418283 68.88,39.1156422 68.88,44.1409463 C68.88,49.1662505 64.8228858,53.2400644 59.8181818,53.2400644 L41.6945455,53.2400644 L39.8872727,55.0803354 L39.8872727,65.9941653 L41.6945455,67.808877 L59.8181818,67.808877 C70.2095924,67.8901122 79.4279764,61.1285969 82.5112098,51.1639578 C85.5944432,41.1993188 81.8149888,30.3828686 73.2072727,24.5369476 Z" id="Shape" fill="#183B4D"></path>
                    <path d="M23.5454545,67.7066397 L41.6690909,67.7066397 L41.6690909,53.1378271 L23.5454545,53.1378271 C22.2542276,53.1375406 20.9781423,52.8586099 19.8036364,52.3199288 L17.2581818,53.1122678 L9.95272727,60.3966741 L9.31636364,62.9526061 C13.4130993,66.0588482 18.4119818,67.729008 23.5454545,67.7066397 Z" id="Shape" fill="#CBD8E0"></path>
                    <path d="M23.5454545,20.4474563 C13.4783931,20.5078403 4.56074727,26.9815515 1.347909,36.5616308 C-1.86492928,46.14171 1.33631908,56.7132204 9.31636364,62.8759282 L19.8290909,52.3199288 C16.1560818,50.6536439 14.0205531,46.7517112 14.5887619,42.7450584 C15.1569707,38.7384055 18.292333,35.5901375 22.2825615,35.0195899 C26.2727899,34.4490423 30.1587275,36.5933612 31.8181818,40.2814889 L42.3309091,29.7254896 C37.8580039,23.8539319 30.9074729,20.4211027 23.5454545,20.4474563 Z" id="Shape" fill="#45778F"></path>
                </g>
            </g>
            <path d="M17.3099777,106.213622 C15.0965357,106.241904 12.9670496,105.364962 11.4121054,103.784823 C9.80720706,102.270802 8.90923114,100.15096 8.93678622,97.9413647 C8.91033334,95.7319871 9.80812869,93.6125717 11.4121054,92.0979066 C12.9595192,90.501306 15.0899606,89.6077832 17.3099777,89.6242955 C19.4245101,89.5960315 21.4620565,90.4192495 22.9665735,91.909697 L21.3759352,93.531884 C20.2866313,92.4760762 18.8246719,91.8960236 17.3099777,91.9186594 C15.7213103,91.8990899 14.1974504,92.5494413 13.1099777,93.7111312 C11.9804346,94.8350061 11.3574566,96.3727356 11.3852969,97.9682518 C11.3720482,99.5451896 11.9939019,101.060755 13.1099777,102.171598 C15.4110832,104.471507 19.1198708,104.51522 21.474233,102.270184 C22.1751844,101.500312 22.6052194,100.52124 22.6984883,99.4828905 L17.3367862,99.4828905 L17.3367862,97.1885265 L24.9235947,97.1885265 C24.9981452,97.6506024 25.028071,98.1188141 25.0129564,98.5866546 C25.1083029,100.543379 24.401173,102.454015 23.0559352,103.874446 C21.5589977,105.437547 19.4696844,106.288106 17.3099777,106.213622 Z M34.9499777,104.690021 C32.8344729,106.723818 29.4965463,106.723818 27.3810415,104.690021 C26.3564159,103.693638 25.7955839,102.311833 25.8350841,100.881018 C25.7966885,99.4504049 26.3573466,98.0690292 27.3810415,97.0720159 C29.4983839,95.0428098 32.8326354,95.0428098 34.9499777,97.0720159 C35.9736727,98.0690292 36.5343307,99.4504049 36.4959352,100.881018 C36.5331082,102.313185 35.968952,103.695191 34.9410415,104.690021 L34.9499777,104.690021 Z M29.0521054,103.193307 C29.5995191,103.779615 30.3646271,104.112323 31.1655096,104.112323 C31.9663922,104.112323 32.7315002,103.779615 33.2789139,103.193307 C33.8754821,102.574926 34.1977265,101.741099 34.1725309,100.881018 C34.199136,100.018037 33.876862,99.1809016 33.2789139,98.5597675 C32.7244177,97.9796411 31.9578529,97.6516337 31.1565735,97.6516337 C30.355294,97.6516337 29.5887292,97.9796411 29.034233,98.5597675 C28.4362849,99.1809016 28.114011,100.018037 28.140616,100.881018 C28.1177996,101.742392 28.4433365,102.576398 29.0431692,103.193307 L29.0521054,103.193307 Z M46.5848713,104.690021 C44.4693665,106.723818 41.13144,106.723818 39.0159352,104.690021 C37.9913095,103.693638 37.4304775,102.311833 37.4699777,100.881018 C37.4315821,99.4504049 37.9922402,98.0690292 39.0159352,97.0720159 C41.13144,95.0382188 44.4693665,95.0382188 46.5848713,97.0720159 C47.6085663,98.0690292 48.1692244,99.4504049 48.1308288,100.881018 C48.170329,102.311833 47.609497,103.693638 46.5848713,104.690021 Z M40.686999,103.193307 C41.2344127,103.779615 41.9995207,104.112323 42.8004032,104.112323 C43.6012858,104.112323 44.3663938,103.779615 44.9138075,103.193307 C45.5103757,102.574926 45.8326201,101.741099 45.8074245,100.881018 C45.8340296,100.018037 45.5117556,99.1809016 44.9138075,98.5597675 C44.3593113,97.9796411 43.5927465,97.6516337 42.7914671,97.6516337 C41.9901877,97.6516337 41.2236229,97.9796411 40.6691266,98.5597675 C40.0711786,99.1809016 39.7489046,100.018037 39.7755096,100.881018 C39.7526932,101.742392 40.0782301,102.576398 40.6780628,103.193307 L40.686999,103.193307 Z M54.234233,110.999522 C53.1631511,111.033685 52.1127914,110.698357 51.2584883,110.049512 C50.499959,109.477607 49.9025765,108.717881 49.5248713,107.844772 L51.5623181,106.993347 C51.7840505,107.515132 52.1309317,107.973864 52.5721054,108.328739 C53.0443174,108.710513 53.6368809,108.910732 54.2431692,108.893368 C55.0211235,108.940831 55.7811603,108.646394 56.3252969,108.086755 C56.8636752,107.435434 57.1295132,106.600248 57.066999,105.756542 L57.066999,104.985779 L56.9865735,104.985779 C56.2961417,105.808216 55.2598209,106.256501 54.1895522,106.195697 C52.833105,106.199809 51.5368666,105.634293 50.6150841,104.636247 C49.6153388,103.646609 49.0631516,102.289624 49.086999,100.881018 C49.062066,99.4643069 49.6138584,98.0985829 50.6150841,97.098903 C51.5346411,96.0966273 52.8315128,95.5275832 54.1895522,95.5304901 C54.7579905,95.5294919 55.3195692,95.6549931 55.8338075,95.8979468 C56.2786648,96.0927863 56.6752889,96.3834764 56.9955096,96.749371 L57.0759352,96.749371 L57.0759352,95.8979468 L59.2921054,95.8979468 L59.2921054,105.442859 C59.4100084,106.968873 58.8960948,108.476232 57.8712543,109.610356 C56.8954623,110.546615 55.583802,111.047606 54.234233,110.999522 Z M54.3950841,104.11643 C55.1676084,104.133458 55.9076706,103.805037 56.4146586,103.220194 C56.9660181,102.586504 57.2566978,101.766371 57.22785,100.92583 C57.26095,100.071104 56.9704458,99.2354581 56.4146586,98.5866546 C55.9084319,98.0007781 55.167859,97.6721306 54.3950841,97.6904187 C53.6020676,97.6740861 52.840343,98.0005634 52.3040203,98.5866546 C51.712908,99.2121431 51.391778,100.046307 51.4104032,100.907906 C51.3920461,101.761475 51.7136459,102.587183 52.3040203,103.20227 C52.8378021,103.794022 53.5995095,104.127021 54.3950841,104.11643 Z M63.2329564,90.2247735 L63.2329564,105.890977 L60.900616,105.890977 L60.900616,90.2247735 L63.2329564,90.2247735 Z M69.6312543,106.213622 C68.2192181,106.250027 66.8559199,105.694665 65.8691266,104.681059 C64.86814,103.675216 64.3222613,102.301661 64.3589139,100.881018 C64.3055204,99.4571594 64.8312572,98.0726516 65.8155096,97.0451288 C66.7437431,96.0637362 68.0415178,95.5203273 69.3899777,95.5484148 C70.0032144,95.5419195 70.6113366,95.6608508 71.1772117,95.8979468 C71.6869363,96.1042854 72.1514257,96.408763 72.5444458,96.7941827 C72.8819164,97.1209186 73.181673,97.4846871 73.4380628,97.8786282 C73.6454392,98.2112382 73.8219248,98.5622439 73.9652969,98.9272242 L74.2065735,99.5366646 L67.0576373,102.485281 C67.5002191,103.505151 68.5232554,104.146423 69.6312543,104.098505 C70.7025245,104.101433 71.6966405,103.539966 72.2495522,102.619716 L74.0367862,103.829635 C73.5806869,104.484078 72.9970128,105.038974 72.3210415,105.460784 C71.5171564,105.970168 70.5819678,106.231915 69.6312543,106.213622 Z M66.6465735,100.719696 L71.400616,98.7390147 C71.2541395,98.3897747 70.9922235,98.1017723 70.6589139,97.92344 C70.2856973,97.7120645 69.8632311,97.6038188 69.4346586,97.6097574 C68.7074064,97.6286492 68.0169703,97.9346197 67.513382,98.4611815 C66.9032067,99.0467894 66.5853787,99.8749066 66.6465735,100.719696 Z" id="Shape" fill="#2D5E72"></path>
            <g id="Group-2" transform="translate(17.872340, 116.510668)" fill="#2D5E72">
                <path d="M6.06018141,12.5463883 C4.43861911,12.5751934 2.87573321,11.9224321 1.73236078,10.7388131 C0.588988337,9.55519409 -0.0360309226,7.94303618 0.0016066219,6.27455229 C-0.0360309226,4.6060684 0.588988337,2.9939105 1.73236078,1.81029147 C2.87573321,0.626672449 4.43861911,-0.0260888226 6.06018141,0.00271632458 C7.70567689,-0.0502270352 9.2845637,0.673110318 10.3474545,1.96685001 L9.3063629,3.00843605 C8.52511677,1.99724437 7.32172364,1.43058244 6.06741122,1.48325649 C4.86447993,1.45536754 3.70254652,1.93364718 2.85014895,2.80755874 C1.96349704,3.72505909 1.48917746,4.98172274 1.54155463,6.27455229 C1.48917746,7.56738185 1.96349704,8.82404549 2.85014895,9.74154584 C3.70254652,10.6154574 4.86447993,11.093737 6.06741122,11.0658481 C7.4670687,11.0819887 8.79765581,10.4411779 9.68231264,9.32491142 L10.7234043,10.3962571 C10.1783005,11.0670274 9.49395723,11.6034627 8.72074886,11.966076 C7.88729624,12.362049 6.97807188,12.5603654 6.06018141,12.5463883 Z" id="Shape"></path>
                <polygon id="Shape" points="14.2978723 11.6510668 12.5106383 11.6510668 12.5106383 0 14.2978723 0"></polygon>
                <path d="M16.451623,4.8662342 C18.2268947,3.15784679 21.0922542,3.15784679 22.867526,4.8662342 C23.7098552,5.72799621 24.1626528,6.87972805 24.1255462,8.06612319 C24.1626528,9.25251833 23.7098552,10.4042502 22.867526,11.2660122 C21.0922542,12.9743996 18.2268947,12.9743996 16.451623,11.2660122 C15.6092937,10.4042502 15.1564962,9.25251833 15.1936028,8.06612319 C15.1564962,6.87972805 15.6092937,5.72799621 16.451623,4.8662342 Z M17.6624674,10.2755703 C18.1807453,10.8063062 18.9015797,11.1069902 19.6556432,11.1069902 C20.4097066,11.1069902 21.130541,10.8063062 21.6488189,10.2755703 C22.2234629,9.67807977 22.5265559,8.88208879 22.4901199,8.06612319 C22.5265559,7.25015759 22.2234629,6.4541666 21.6488189,5.85667603 C21.130541,5.3259402 20.4097066,5.0252562 19.6556432,5.0252562 C18.9015797,5.0252562 18.1807453,5.3259402 17.6624674,5.85667603 C17.0878234,6.4541666 16.7847304,7.25015759 16.8211664,8.06612319 C16.7889755,8.88056728 17.0948067,9.6735686 17.67033,10.2679516 L17.6624674,10.2755703 Z" id="Shape"></path>
                <path d="M32.1702128,12.2270711 L30.7094269,12.2270711 L30.7094269,11.029385 L30.6656033,11.029385 C30.4056141,11.4842752 30.0376276,11.8570556 29.5992296,12.1096509 C29.1443081,12.3922245 28.6277258,12.5407644 28.1019241,12.5401917 C27.2370836,12.6035988 26.3925477,12.2403919 25.8084902,11.5538619 C25.2551869,10.8038193 24.9771905,9.86265146 25.0269698,8.90799317 L25.0269698,3.58494364 L26.5388832,3.58494364 L26.5388832,8.61052864 C26.5388832,10.2230995 27.2035407,11.029385 28.5328559,11.029385 C29.1321164,11.0494107 29.7034646,10.757818 30.0666811,10.2465836 C30.4585609,9.7143064 30.6674776,9.05364184 30.6582994,8.37568822 L30.6582994,3.58494364 L32.1702128,3.58494364 L32.1702128,12.2270711 Z" id="Shape"></path>
                <path d="M37.7690693,12.5470617 C36.7377517,12.550647 35.7566047,12.0813511 35.083916,11.2627168 C34.3315232,10.3924981 33.9286111,9.25193276 33.9590544,8.0784534 C33.9286111,6.90497403 34.3315232,5.76440869 35.083916,4.89419002 C35.7566047,4.07555564 36.7377517,3.60625983 37.7690693,3.60984512 C38.339993,3.60040636 38.9040097,3.74153165 39.4091899,4.02022751 C39.8531071,4.25415587 40.2290151,4.60843994 40.4977656,5.04618349 L40.5630801,5.04618349 L40.4977656,3.88343338 L40.4977656,0 L42,0 L42,12.2734734 L40.5485658,12.2734734 L40.5485658,11.1107233 L40.4832512,11.1107233 C40.2145007,11.5484669 39.8385928,11.9027509 39.3946756,12.1366793 C38.8938255,12.4129044 38.3350952,12.5539552 37.7690693,12.5470617 Z M38.0158131,11.1107233 C38.7026907,11.1211963 39.3607912,10.8222837 39.8228487,10.2899585 C40.3331626,9.68147632 40.5939087,8.88689474 40.5485658,8.0784534 C40.5939087,7.27001206 40.3331626,6.47543047 39.8228487,5.86694828 C39.3579931,5.33194596 38.6992802,5.02697969 38.0085559,5.02697969 C37.3178316,5.02697969 36.6591187,5.33194596 36.1942631,5.86694828 C35.6822829,6.4713956 35.421152,7.26441537 35.468546,8.07085372 C35.421152,8.87729207 35.6822829,9.67031184 36.1942631,10.2747592 C36.6570309,10.8167354 37.3216216,11.1217361 38.0158131,11.1107233 Z" id="Shape"></path>
            </g>
        </g>
    </g>
</svg>