<?xml version="1.0" encoding="utf-8"?>
<!-- Generator: Adobe Illustrator 19.2.1, SVG Export Plug-In . SVG Version: 6.00 Build 0)  -->
<svg version="1.1" id="Layer_1" xmlns="http://www.w3.org/2000/svg" xmlns:xlink="http://www.w3.org/1999/xlink" x="0px" y="0px"
	 viewBox="0 0 180 180" style="enable-background:new 0 0 180 180;" xml:space="preserve">
<style type="text/css">
	.st0{fill:#234B5F;}
	.st1{display:none;}
	.st2{display:inline;fill:#234B5F;}
	.st3{fill:#FFFFFF;}
	.st4{fill-rule:evenodd;clip-rule:evenodd;fill:#234B5F;}
	.st5{clip-path:url(#SVGID_2_);}
	.st6{clip-path:url(#SVGID_4_);fill:#234B5F;}
	.st7{clip-path:url(#SVGID_6_);}
	.st8{clip-path:url(#SVGID_8_);fill:#234B5F;}
	.st9{fill-rule:evenodd;clip-rule:evenodd;fill:#FFFFFF;}
	.st10{clip-path:url(#SVGID_10_);}
	.st11{clip-path:url(#SVGID_12_);fill:#234B5F;}
</style>
<g>
	<path class="st0" d="M66.1,153.5c-3.1,0-6-1.4-8-3.9L27.9,112c-2-2.5-2.8-5.7-2-8.8l10.8-46.9c0.7-3.1,2.8-5.6,5.6-7L86,28.5
		c1.4-0.7,2.9-1,4.5-1c1.6,0,3.1,0.3,4.5,1l43.7,20.8c2.8,1.4,4.9,3.9,5.6,7l10.8,46.9c0.7,3.1,0,6.3-2,8.8l-30.2,37.5
		c-2,2.4-4.9,3.9-8,3.9L66.1,153.5L66.1,153.5z"/>
	<path class="st3" d="M134.1,99.9L134.1,99.9L134.1,99.9C134.1,99.9,134.1,99.9,134.1,99.9L134.1,99.9c-0.2,0-0.3,0-0.3-0.1
		c-0.2,0-0.3-0.1-0.5-0.1c-0.6-0.1-1.1-0.2-1.6-0.2c-0.3,0-0.5,0-0.9-0.1h-0.1c-1.8-0.2-3.3-0.3-4.7-0.8c-0.6-0.3-0.8-0.6-0.9-0.9
		c0-0.1-0.1-0.1-0.1-0.2l0,0l-1.1-0.3c0.5-4,0.3-8.1-0.6-12.2c-0.9-4.1-2.6-7.9-4.8-11.3l0.9-0.8v-0.2c0-0.4,0.1-0.9,0.4-1.3
		c1-0.9,2.3-1.7,3.9-2.7l0,0c0.3-0.2,0.5-0.3,0.8-0.4c0.5-0.3,0.9-0.5,1.5-0.9c0.1-0.1,0.3-0.2,0.4-0.3c0.1-0.1,0.2-0.1,0.2-0.2l0,0
		c1.2-1,1.5-2.8,0.6-3.9c-0.4-0.6-1.2-0.9-2-0.9c-0.7,0-1.3,0.3-1.9,0.7l0,0l0,0c-0.1,0.1-0.1,0.1-0.2,0.2c-0.2,0.1-0.3,0.3-0.4,0.3
		c-0.4,0.4-0.8,0.8-1.1,1.2c-0.2,0.2-0.3,0.4-0.6,0.6l0,0c-1.2,1.3-2.3,2.3-3.5,3.1c-0.3,0.2-0.5,0.3-0.8,0.3c-0.2,0-0.3,0-0.5-0.1
		H116l0,0l-1,0.7c-1.1-1.2-2.3-2.2-3.5-3.3c-5.2-4.1-11.5-6.6-18-7.2l-0.1-1.1c-0.1-0.1-0.1-0.1-0.2-0.2c-0.3-0.3-0.6-0.5-0.7-1.1
		c-0.1-1.4,0.1-2.9,0.3-4.7v-0.1c0-0.3,0.1-0.6,0.2-0.9c0.1-0.5,0.2-1,0.3-1.6v-0.5v-0.3l0,0l0,0c0-1.6-1.2-2.8-2.7-2.8
		c-0.7,0-1.4,0.3-1.9,0.9c-0.5,0.5-0.8,1.2-0.8,2l0,0l0,0v0.2V49c0,0.6,0.1,1.1,0.3,1.6c0.1,0.3,0.1,0.5,0.2,0.9v0.1
		c0.2,1.7,0.4,3.3,0.3,4.7c-0.1,0.6-0.4,0.9-0.7,1.1c-0.1,0.1-0.1,0.1-0.2,0.2l0,0l-0.1,1.1c-1.6,0.2-3.1,0.3-4.7,0.7
		c-6.6,1.5-12.5,4.8-17.1,9.7l-0.9-0.6h-0.2c-0.2,0-0.3,0.1-0.5,0.1c-0.3,0-0.5-0.1-0.8-0.3c-1.1-0.8-2.2-1.9-3.5-3.2l0,0
		c-0.2-0.2-0.3-0.4-0.6-0.6c-0.3-0.4-0.7-0.8-1.1-1.2c-0.1-0.1-0.3-0.2-0.4-0.3c-0.1-0.1-0.2-0.1-0.2-0.2l0,0
		c-0.5-0.4-1.2-0.7-1.9-0.7c-0.8,0-1.6,0.3-2,0.9c-0.9,1.1-0.6,2.8,0.6,3.9l0,0l0,0c0.1,0,0.1,0.1,0.2,0.1c0.2,0.1,0.3,0.3,0.4,0.3
		c0.5,0.3,0.9,0.6,1.5,0.9c0.3,0.1,0.5,0.3,0.8,0.4l0,0c1.6,0.9,2.8,1.7,3.9,2.7c0.4,0.4,0.4,0.9,0.4,1.3v0.2l0,0l0.9,0.8
		c-0.2,0.3-0.3,0.4-0.4,0.7C57.7,81,56,89.1,57.1,97L56,97.4c0,0.1-0.1,0.1-0.1,0.2c-0.2,0.3-0.4,0.7-0.9,0.9
		c-1.3,0.4-2.8,0.6-4.7,0.8h-0.1c-0.3,0-0.6,0-0.9,0.1c-0.5,0-1,0.1-1.6,0.2c-0.2,0-0.3,0.1-0.5,0.1c-0.1,0-0.2,0-0.3,0.1l0,0l0,0
		c-1.6,0.3-2.5,1.8-2.2,3.2c0.3,1.2,1.4,2,2.8,2c0.3,0,0.4,0,0.7-0.1l0,0l0,0c0.1,0,0.2,0,0.2-0.1c0.2,0,0.3-0.1,0.5-0.1
		c0.6-0.2,1-0.3,1.6-0.6c0.3-0.1,0.5-0.3,0.8-0.3h0.1c1.6-0.6,3.1-1.1,4.5-1.3h0.2c0.5,0,0.9,0.3,1.1,0.4c0.1,0,0.1,0.1,0.2,0.1l0,0
		l1.2-0.2c2.1,6.4,6,12.1,11.3,16.2c1.2,0.9,2.4,1.7,3.7,2.5l-0.5,1.1c0,0.1,0.1,0.1,0.1,0.2c0.2,0.3,0.3,0.8,0.2,1.4
		c-0.5,1.3-1.3,2.6-2.2,4.1v0.1c-0.2,0.3-0.3,0.4-0.5,0.7c-0.3,0.4-0.6,0.9-0.9,1.4c-0.1,0.1-0.2,0.3-0.3,0.4c0,0.1-0.1,0.2-0.1,0.2
		l0,0l0,0c-0.7,1.5-0.2,3.1,1.1,3.7c0.3,0.2,0.7,0.3,1,0.3c1,0,2.1-0.7,2.6-1.6l0,0l0,0c0-0.1,0.1-0.2,0.1-0.2
		c0.1-0.2,0.2-0.3,0.3-0.4c0.3-0.6,0.3-1,0.5-1.6c0.1-0.3,0.2-0.5,0.3-0.8l0,0c0.6-1.7,1-3.1,1.8-4.3c0.3-0.5,0.8-0.6,1.1-0.8
		c0.1,0,0.1,0,0.2-0.1l0,0l0.6-1.1c3.8,1.5,7.9,2.2,12.1,2.2c2.5,0,5.1-0.3,7.5-0.9c1.6-0.3,3-0.8,4.5-1.3l0.5,0.9
		c0.1,0,0.1,0,0.2,0.1c0.4,0.1,0.8,0.3,1.1,0.8c0.7,1.2,1.2,2.7,1.8,4.3v0.1c0.1,0.3,0.2,0.5,0.3,0.8c0.2,0.5,0.3,1,0.5,1.6
		c0.1,0.2,0.2,0.3,0.3,0.4c0,0.1,0.1,0.2,0.1,0.2l0,0l0,0c0.5,1,1.6,1.6,2.6,1.6c0.3,0,0.7-0.1,1-0.3c0.6-0.3,1.1-0.9,1.3-1.6
		c0.2-0.7,0.2-1.5-0.2-2.2l0,0l0,0c0-0.1-0.1-0.1-0.1-0.2c-0.1-0.2-0.2-0.3-0.3-0.4c-0.3-0.5-0.6-0.9-0.9-1.4
		c-0.2-0.3-0.3-0.4-0.5-0.7v-0.1c-0.9-1.5-1.8-2.8-2.2-4.1c-0.2-0.6,0-0.9,0.1-1.4c0-0.1,0.1-0.1,0.1-0.2l0,0l-0.4-1
		c4.6-2.7,8.5-6.5,11.4-11.1c1.6-2.4,2.8-5.1,3.6-7.8l1,0.2c0.1,0,0.1-0.1,0.2-0.1c0.3-0.2,0.6-0.4,1.1-0.4h0.2
		c1.4,0.2,2.8,0.7,4.5,1.3h0.1c0.3,0.1,0.5,0.3,0.8,0.3c0.5,0.3,0.9,0.4,1.6,0.6c0.2,0,0.3,0.1,0.5,0.1c0.1,0,0.2,0,0.3,0.1l0,0
		c0.3,0.1,0.4,0.1,0.7,0.1c1.3,0,2.4-0.9,2.8-2C136.6,101.8,135.7,100.4,134.1,99.9L134.1,99.9z M94.2,95.7l-3.8,1.8l-3.8-1.8
		l-0.9-4.1l2.6-3.3h4.2l2.6,3.3L94.2,95.7L94.2,95.7z M116.7,86.7c0.7,2.9,0.9,5.9,0.6,8.7l-13.2-3.8c-1.2-0.3-1.9-1.6-1.6-2.8
		c0.1-0.3,0.3-0.7,0.5-0.9l10.4-9.4C114.9,80.9,116,83.7,116.7,86.7L116.7,86.7z M109.3,73.4l-11.3,8c-0.9,0.6-2.2,0.4-3-0.5
		c-0.3-0.3-0.3-0.6-0.4-0.9l-0.8-14.1C99.7,66.5,105.1,69.2,109.3,73.4L109.3,73.4z M84.2,66.3c0.9-0.2,1.8-0.3,2.8-0.5l-0.8,13.8
		c-0.1,1.2-1,2.2-2.3,2.2c-0.3,0-0.8-0.1-1-0.3l-11.5-8.2C74.9,69.8,79.3,67.4,84.2,66.3L84.2,66.3z M67.2,78.5l10.3,9.2
		c0.9,0.8,1,2.2,0.3,3.2c-0.3,0.3-0.6,0.6-1,0.7l-13.4,3.9C62.8,89.6,64.1,83.6,67.2,78.5L67.2,78.5z M64.9,101.9l13.7-2.3
		c1.1-0.1,2.2,0.7,2.4,1.8c0.1,0.5,0.1,0.9-0.1,1.4l0,0l-5.3,12.7C70.9,112.4,67,107.6,64.9,101.9L64.9,101.9z M96.4,119.1
		c-2,0.4-4,0.7-6,0.7c-3,0-6-0.5-8.7-1.4l6.8-12.3c0.7-0.8,1.8-1.1,2.8-0.6c0.4,0.3,0.8,0.6,1,0.9l0,0l6.6,12
		C98.1,118.7,97.3,118.8,96.4,119.1L96.4,119.1z M113.3,107.1c-2.2,3.5-5,6.2-8.3,8.4l-5.4-13c-0.3-1,0.2-2.2,1.2-2.7
		c0.3-0.2,0.8-0.3,1.2-0.3l13.8,2.3C115.2,103.7,114.4,105.5,113.3,107.1L113.3,107.1z"/>
</g>
<g>
	<g>
		<defs>
			<path id="SVGID_1_" d="M309.7,283.4l-6.3,6.3c-0.4,0.4-0.4,0.9,0,1.3l44.7,44.7c0.4,0.4,0.9,0.4,1.3,0l44.7-44.7
				c0.4-0.4,0.4-0.9,0-1.3l-6.3-6.3l-36.4,36.4c-1.4,1.4-3.7,1.4-5.2,0L309.7,283.4z"/>
		</defs>
		<use xlink:href="#SVGID_1_"  style="overflow:visible;fill-rule:evenodd;clip-rule:evenodd;fill:#234B5F;"/>
		<clipPath id="SVGID_2_">
			<use xlink:href="#SVGID_1_"  style="overflow:visible;"/>
		</clipPath>
		<g class="st5">
			<defs>
				<rect id="SVGID_3_" x="166.3" y="165.2" width="364.8" height="273.6"/>
			</defs>
			<use xlink:href="#SVGID_3_"  style="overflow:visible;fill:#234B5F;"/>
			<clipPath id="SVGID_4_">
				<use xlink:href="#SVGID_3_"  style="overflow:visible;"/>
			</clipPath>
		</g>
	</g>
</g>
<g>
	<g>
		<defs>
			<path id="SVGID_5_" d="M45.4,310.9l-7.2,7.2c-0.4,0.4-0.4,1.1,0,1.5l51.1,51.1c0.4,0.4,1.1,0.4,1.5,0l51.1-51.1
				c0.4-0.4,0.4-1.1,0-1.5l-7.2-7.2l-41.6,41.6c-1.6,1.6-4.3,1.6-5.9,0L45.4,310.9z"/>
		</defs>
		<use xlink:href="#SVGID_5_"  style="overflow:visible;fill-rule:evenodd;clip-rule:evenodd;fill:#234B5F;"/>
		<clipPath id="SVGID_6_">
			<use xlink:href="#SVGID_5_"  style="overflow:visible;"/>
		</clipPath>
		<g class="st7">
			<defs>
				<rect id="SVGID_7_" x="-118.4" y="175.9" width="416.8" height="312.6"/>
			</defs>
			<use xlink:href="#SVGID_7_"  style="overflow:visible;fill:#234B5F;"/>
			<clipPath id="SVGID_8_">
				<use xlink:href="#SVGID_7_"  style="overflow:visible;"/>
			</clipPath>
		</g>
	</g>
</g>
</svg>
