<?xml version="1.0" encoding="utf-8"?>
<!-- Generator: Adobe Illustrator 19.2.1, SVG Export Plug-In . SVG Version: 6.00 Build 0)  -->
<svg version="1.1" xmlns="http://www.w3.org/2000/svg" xmlns:xlink="http://www.w3.org/1999/xlink" x="0px" y="0px"
	 viewBox="0 0 150 125" style="enable-background:new 0 0 150 125;" xml:space="preserve">
<style type="text/css">
	.st0{fill:none;stroke:#FF405E;stroke-width:1.5;stroke-linejoin:round;stroke-miterlimit:10;}
	.st1{fill:#FFFFFF;}
	.st2{fill:#1A3442;}
</style>
<g id="Layer_1">
	<g>
		<polygon class="st1" points="27,77.5 22,77.5 17.5,77.5 17.5,82.5 22,82.5 27,82.5 32,82.5 37.5,82.5 37.5,77.5 32,77.5 		"/>
		<rect x="7.5" y="77.5" class="st1" width="5" height="5"/>
		<polygon class="st1" points="32.5,87.5 27,87.5 22.5,87.5 22.5,92.5 27,92.5 32.5,92.5 		"/>
		<polygon class="st1" points="27.5,97.5 27.5,102.5 32,102.5 37.5,102.5 37.5,97.5 32,97.5 		"/>
		<rect x="12.5" y="97.5" class="st1" width="5" height="5"/>
		<polygon class="st2" points="52.5,82.5 57.5,82.5 57.5,77.5 62,77.5 67,77.5 72,77.5 77,77.5 82.5,77.5 82.5,82.5 87.5,82.5 
			87.5,77.5 92.5,77.5 92.5,72.5 87,72.5 82,72.5 77,72.5 72,72.5 67,72.5 62,72.5 57,72.5 52,72.5 47.5,72.5 47.5,77.5 52.5,77.5 
					"/>
		<rect x="57.5" y="82.5" class="st2" width="5" height="5"/>
		<rect x="62.5" y="87.5" class="st2" width="5" height="5"/>
		<rect x="67.5" y="92.5" class="st2" width="5" height="5"/>
		<rect x="72.5" y="87.5" class="st2" width="5" height="5"/>
		<rect x="77.5" y="82.5" class="st2" width="5" height="5"/>
		<polygon class="st2" points="82,107.5 77,107.5 72,107.5 67,107.5 62,107.5 57,107.5 52,107.5 47.5,107.5 47.5,112.5 52,112.5 
			57,112.5 62,112.5 67,112.5 72,112.5 77,112.5 82,112.5 87,112.5 92.5,112.5 92.5,107.5 87,107.5 		"/>
		<polygon class="st2" points="92.5,82.8 92.5,87.8 92.5,92.8 92.5,97.8 92.5,102.8 92.5,107.5 97.5,107.5 97.5,102.8 97.5,97.8 
			97.5,92.8 97.5,87.8 97.5,82.8 97.5,77.5 92.5,77.5 		"/>
		<polygon class="st2" points="47.5,97.8 47.5,92.8 47.5,87.8 47.5,82.8 47.5,77.5 42.5,77.5 42.5,82.8 42.5,87.8 42.5,92.8 
			42.5,97.8 42.5,102.8 42.5,107.5 47.5,107.5 47.5,102.8 		"/>
		<path class="st2" d="M137.5,27.5v-5h-5v-5h-5.4h-5h-4.6v-5h-5v5V19v3.5h-5v5v5h-5v-5h-5v-5v-4.7v-5.3h-5v5H87h-5h-5h-5h0h-1.7
			h-2.8v-5h-5v5.3v5v0v4.7h-6v5h-4v-5v-5h-5v-2.8v-2.2v-5h-5v5H42h0h-5h-5h-4.5v5h-5v5h-5v5.3v5v5v4.7h5v-5h5v-5h5h5v-5H42h0.5v5H47
			h5.5v5h5v5.3v0v4.7h5v5h5v5h5v5h5v-5h5v5h5v-5h5v-5h5v-5h5v-4.7v0v-5v-0.3h5v-5h4.6h5.4v-5h5v5h5h5v5h5v5h5v-4.7v-5v-5v-5.3H137.5
			z M67.5,27.5h2.8h2.2v5H72h-4.5V27.5z M92.5,47.8L92.5,47.8v4.7h-5v5H82h-5h-4.5v-5h-5v-4.7v0v-5.3h5v5h5v-5h5v5h5v-5h5V47.8z
			 M92.5,32.5h-5v-5H92h0.5V32.5z"/>
	</g>
</g>
<g id="Layer_2">
</g>
</svg>
