<?xml version="1.0" encoding="utf-8"?>
<!-- Generator: Adobe Illustrator 19.2.1, SVG Export Plug-In . SVG Version: 6.00 Build 0)  -->
<svg version="1.1" id="Layer_1" xmlns="http://www.w3.org/2000/svg" xmlns:xlink="http://www.w3.org/1999/xlink" x="0px" y="0px"
	 viewBox="0 0 87.9 80.2" style="enable-background:new 0 0 87.9 80.2;" xml:space="preserve">
<style type="text/css">
	.st0{fill:#FF405E;}
</style>
<g>
	<path class="st0" d="M2.7,20h50.9c1.3,0,2.4,0.3,3.3,0.9L68.6,0.1H12.9C7.5,0,3.4,2.4,1.3,6s-1.7,8.3,1,13L2.7,20z"/>
	<path class="st0" d="M86.6,6C84.5,2.4,80.4,0,75,0h-1.3L48.4,44.4l0,0c-0.6,1.1-1.4,1.9-2.3,2.4l3.9,6.7l0,0l7.9,13.7L85.6,19
		C88.3,14.3,88.7,9.6,86.6,6z"/>
	<path class="st0" d="M47.4,58.2L29.8,27.8c-0.6-1.1-0.8-2.2-0.8-3.2h-7.4l0,0l-16-0.1L33.4,73c2.7,4.7,6.4,7.2,10.6,7.2
		c4.1,0,7.9-2.6,10.6-7.2l0.7-1.2L47.4,58.2z"/>
</g>
</svg>
