<?xml version="1.0" encoding="utf-8"?>
<!-- Generator: Adobe Illustrator 19.2.1, SVG Export Plug-In . SVG Version: 6.00 Build 0)  -->
<svg version="1.1" id="Layer_1" xmlns="http://www.w3.org/2000/svg" xmlns:xlink="http://www.w3.org/1999/xlink" x="0px" y="0px"
	 viewBox="0 0 50 50" style="enable-background:new 0 0 50 50;" xml:space="preserve">
<style type="text/css">
	.st0{fill:#FF405E;}
</style>
<g id="Layer_2">
</g>
<path class="st0" d="M46.5,7.8C45.4,6,43.4,5,40.6,5H29.9H9.4C6.6,5,4.6,6,3.5,7.8c-1,1.8-0.9,4.1,0.5,6.5l15.6,27.1
	C21,43.7,22.9,45,25,45c2.1,0,4-1.3,5.3-3.7L46,14.3C47.3,11.9,47.5,9.6,46.5,7.8z M5.9,9.2c0.5-0.9,1.8-1.4,3.4-1.4h20.5
	c1.7,0,2.9,0.5,3.4,1.4c0.5,0.9,0.3,2.2-0.5,3.7l-0.9,1.6c-0.5-0.3-1.1-0.4-1.7-0.4l-15.7,0c-2.7,0-4.8,1-5.8,2.8l-2.3-3.9
	C5.6,11.4,5.4,10.1,5.9,9.2z M25,26.4c0,0-0.1-0.1-0.2-0.2L21,19.5l-1.4-2.4c-0.1-0.1-0.1-0.2-0.1-0.3c0.1,0,0.2,0,0.3,0h10.4
	c0.1,0,0.2,0,0.3,0c0,0,0,0,0,0.1l-5.3,9.3C25.1,26.3,25,26.4,25,26.4z M27.9,40c-0.8,1.4-1.9,2.3-2.9,2.3c-1,0-2.1-0.8-2.9-2.3
	L11.2,21.2c-0.5-1.2-0.5-2.2-0.1-2.9c0.5-0.9,1.8-1.4,3.4-1.4h2.2c0,0.6,0.2,1.1,0.5,1.7L25,32.1c1.4,2.4,3.3,3.7,5.3,3.7
	c0,0,0,0,0,0L27.9,40z M43.6,12.9L33,31.3c-0.8,1.1-1.7,1.7-2.6,1.7c-1,0-2.1-0.8-2.9-2.3l-1.1-1.9c0.5-0.3,0.9-0.7,1.2-1.3
	l7.6-13.3c1.4-2.4,1.5-4.6,0.5-6.4c0,0,0,0,0,0h5c1.7,0,2.9,0.5,3.4,1.4C44.6,10.1,44.4,11.4,43.6,12.9z"/>
<g id="Layer_2_1_">
</g>
</svg>
