<svg id="Layer_1" xmlns="http://www.w3.org/2000/svg" viewBox="0 0 30 30"><style>.st0{fill:#c3d2dc}</style><path class="st0" d="M22.8 22.8l-1.4 1.4 1.4 1.4 1.4-1.4 1.4-1.4-1.4-1.4z"/><path transform="rotate(-45.001 19.92 24.233)" class="st0" d="M18.9 23.2h2v2h-2z"/><path transform="rotate(-45.001 5.837 10.09)" class="st0" d="M4.8 9.1h2v2h-2z"/><path class="st0" d="M22.8 19.9l1.4 1.5 1.4-1.5-1.4-1.4-1.4-1.4-1.4-1.4-1.5 1.4 1.5 1.4zm-12.7-7l1.4 1.4 1.4 1.4 1.4 1.4 1.4 1.4 1.4 1.4 1.4-1.4 1.4-1.4-1.4-1.4-1.4 1.4-1.4-1.4-1.4-1.4-1.4-1.4 1.4-1.4-1.4-1.4-1.4 1.4z"/><path transform="rotate(-45.001 17.111 24.213)" class="st0" d="M16.1 23.2h2v2h-2z"/><path class="st0" d="M12.9 21.4l-1.4-1.5-1.4-1.4-1.5-1.4-1.4-1.4-1.4-1.4-1.4 1.4 1.4 1.4 1.4 1.4 1.4 1.4 1.5 1.5 1.4 1.4 1.4 1.4 1.4 1.4 1.4-1.4-1.4-1.4z"/><path transform="rotate(-45.001 5.817 12.899)" class="st0" d="M4.8 11.9h2v2h-2z"/><path class="st0" d="M11.5 8.6l1.4 1.5 1.4-1.5-1.4-1.4-1.4-1.4-1.4-1.4-1.5 1.4 1.5 1.4zM8.6 5.8L7.2 4.4 5.8 5.8 4.4 7.2l1.4 1.4 1.4-1.4z"/></svg>