<?xml version="1.0" encoding="utf-8"?>
<!-- Generator: Adobe Illustrator 19.2.1, SVG Export Plug-In . SVG Version: 6.00 Build 0)  -->
<svg version="1.1" id="Layer_1" xmlns="http://www.w3.org/2000/svg" xmlns:xlink="http://www.w3.org/1999/xlink" x="0px" y="0px"
	 viewBox="0 0 180 180" style="enable-background:new 0 0 180 180;" xml:space="preserve">
<style type="text/css">
	.st0{fill:#183B4D;}
	.st1{display:none;}
	.st2{display:inline;fill:#183B4D;}
	.st3{fill:#FFFFFF;}
	.st4{fill-rule:evenodd;clip-rule:evenodd;fill:#183B4D;}
	.st5{clip-path:url(#SVGID_2_);}
	.st6{clip-path:url(#SVGID_4_);fill:#183B4D;}
	.st7{clip-path:url(#SVGID_6_);}
	.st8{clip-path:url(#SVGID_8_);fill:#183B4D;}
	.st9{fill-rule:evenodd;clip-rule:evenodd;fill:#FFFFFF;}
	.st10{clip-path:url(#SVGID_10_);}
	.st11{clip-path:url(#SVGID_12_);fill:#183B4D;}
	.st12{fill:#234B5F;}
	.st13{fill:#2D5E72;}
	.st14{fill:#45778F;}
	.st15{fill:#7B9FB6;}
	.st16{fill:#CBD8E0;}
	.st17{fill:#F0F4F8;}
	.st18{fill:#CECDCA;}
	.st19{fill:#DC462F;}
	.st20{fill:#FFFFFF;stroke:#2D5E72;stroke-miterlimit:10;}
</style>
<g>
	<g>
		<path class="st4" d="M132.2,134.1c0.4-0.2,0.5-0.2,0.3-0.7c-0.9-2.7-4.5-4.2-7.5-2.9c-2.4,1-4.1,3.5-4.1,6.4
			c0,3.8,2.8,7.2,6.5,7.2c1.7,0,2.9-0.2,4-0.9c0.2-0.2,1.5-1.3,1.6-1.5c0-0.1-0.2,0.1-0.5,0.3c-0.8,0.4-2.1,0.6-3.1,0.6
			c-2,0-3.6-1.3-4.7-3c-0.7-1-1.1-2.2-1.2-3.5c-0.2-2,0.3-4.2,2.5-4.8c1.5-0.4,2.9,0.5,3.4,1.9c0.2,0.6,0.1,1-0.5,1.2l-5.4,2.2
			l1.8,0.1C127.6,135.8,130,135,132.2,134.1L132.2,134.1z"/>
		<path class="st4" d="M115.7,123.1c1.4,0,2.6,0,4,0c-0.6,0.4-0.7,0.5-1,0.9c-0.2,0.3-0.2,0.8-0.2,1.3c-0.2,5.3-0.1,10.7-0.1,16.1
			c0,1.5,0.6,1.3,2.5,1.2c-0.3,0.2-0.7,0.7-1.1,0.9c-1.7,0-3.3,0-5.1,0c0.6-0.7,1-1.1,0.9-2.8c0-5.6-0.2-11,0.2-16.3
			c-0.8,0-1.5,0-2.3,0C114.2,124,114.9,123.4,115.7,123.1L115.7,123.1z"/>
		<path class="st4" d="M108.5,144.4c0.3,0.2,0.6,0.4,0.9,0.6c1.7,1.1,2.2,2.4,2.1,3.6c-0.2,1.4-1.6,2.6-3.9,2.7
			c-2.5,0.2-6-0.9-5.3-4.2c0.3-1.8,2.7-2.7,4.7-2.8C107.4,144.3,107.9,144.4,108.5,144.4L108.5,144.4z M114.2,130.5l-1.7,1.1h-1.9
			c0.8,0.6,1.5,1.4,1.8,2.3c0.4,1,0.4,2.1,0,3.1c-0.4,0.9-1.1,1.8-2.1,2.4c-0.6,0.4-0.9,0.8-0.9,1.2c-0.1,1.2,1.4,2.2,2.3,2.8
			c1.9,1.4,2.7,3.8,1.4,6.1c-1.2,2.2-4.1,3.2-7.2,3.2c-3.8,0-6.3-1.8-6.4-4.2c-0.2-3.1,3-4.6,5.9-4.9c0.8-0.1,1.5-0.1,2.2,0
			c-1-0.7-1.4-2-0.9-2.9c0.1-0.2,0-0.2-0.2-0.1c-2.3,0.4-4.8-1.2-5.3-3.5c-0.3-1.2-0.1-2.4,0.3-3.4c1-2.1,3.1-3.2,5.5-3.2
			C109.5,130.5,111.8,130.5,114.2,130.5L114.2,130.5z M109.9,135.6c0.3,1.9-0.2,3.6-1.8,4.1c-1.7,0.5-3.6-0.9-4.2-3.2
			c-0.7-2.6,0-4.3,1.6-4.8C107.4,131,109.4,132.7,109.9,135.6L109.9,135.6z"/>
		<path class="st4" d="M92.4,130.1c4.6,0,7,3.1,7.2,6.6c0.2,3.6-2.7,6.8-6.3,7.1c-4.3,0.5-8.1-2.5-8.1-6.9
			C85.2,133.2,88.4,130.1,92.4,130.1L92.4,130.1z M96.8,137.2c0.3,2.6-0.6,5.1-3,5.6c-2.4,0.6-5-1.4-5.6-4.8
			c-0.7-3.7,0.5-6.2,2.7-6.8C93.6,130.5,96.4,133.2,96.8,137.2L96.8,137.2z"/>
		<path class="st4" d="M76.7,130.1c4.7,0,7.1,3.1,7.3,6.6c0.2,3.6-2.8,6.8-6.4,7.1c-4.4,0.5-8.2-2.5-8.2-6.9
			C69.4,133.2,72.6,130.1,76.7,130.1L76.7,130.1z M81.1,137.2c0.3,2.6-0.6,5.1-3,5.6c-2.4,0.6-5-1.4-5.7-4.8
			c-0.7-3.7,0.5-6.2,2.8-6.8C77.9,130.5,80.7,133.2,81.1,137.2L81.1,137.2z"/>
		<path class="st4" d="M65.1,128.2l2.1-2.1c-3.5-2.9-9.6-3.3-13.7-1.3c-3.5,1.8-6.1,5.3-6.2,9.2c-0.1,4.1,2.3,7.4,4.7,9.1
			c4,2.7,11,2.1,15.2,0l0-0.4h0v-4.3l1-1.1h-6.1l-2.3,1.3l4.4-0.1c0,1.2,0,2.6,0,3.8c0,0.5,0,0.6-0.9,0.9c-1.3,0.3-2.7,0.4-4,0.3
			c-4.4-0.4-7.8-3.8-8.6-8.2c-0.8-4.1,1.2-8,4.5-9.6c1.6-0.8,3.5-1.2,5.6-0.5c1.3,0.4,2.5,1.2,3.5,2.2l-0.7,1.3L65.1,128.2
			L65.1,128.2z"/>
	</g>
	<g>
		<path class="st0" d="M49.1,157.5c-1,0-1.7,0.3-2.3,0.9c-0.5,0.6-0.8,1.4-0.8,2.5c0,1.1,0.3,1.9,0.8,2.5c0.5,0.6,1.3,0.9,2.2,0.9
			c0.6,0,1.2-0.1,1.8-0.2v0.5c-0.5,0.2-1.1,0.3-1.9,0.3c-1.1,0-1.9-0.3-2.5-1c-0.6-0.7-0.9-1.7-0.9-2.9c0-0.8,0.1-1.5,0.4-2
			c0.3-0.6,0.7-1,1.3-1.4c0.6-0.3,1.2-0.5,1.9-0.5c0.7,0,1.4,0.1,2,0.4l-0.2,0.5C50.2,157.6,49.7,157.5,49.1,157.5z"/>
		<path class="st0" d="M52.7,164.7h-0.5v-8.1h0.5V164.7z"/>
		<path class="st0" d="M59.3,161.9c0,0.9-0.2,1.6-0.7,2.2c-0.4,0.5-1.1,0.8-1.9,0.8c-0.5,0-0.9-0.1-1.3-0.4c-0.4-0.2-0.7-0.6-0.9-1
			c-0.2-0.4-0.3-1-0.3-1.6c0-0.9,0.2-1.6,0.7-2.2c0.4-0.5,1.1-0.8,1.8-0.8c0.8,0,1.4,0.3,1.8,0.8C59,160.2,59.3,161,59.3,161.9z
			 M54.8,161.9c0,0.8,0.2,1.4,0.5,1.8c0.3,0.4,0.8,0.7,1.5,0.7c0.6,0,1.1-0.2,1.5-0.7c0.3-0.4,0.5-1,0.5-1.8c0-0.8-0.2-1.4-0.5-1.8
			c-0.3-0.4-0.8-0.6-1.5-0.6c-0.6,0-1.1,0.2-1.4,0.6C55,160.5,54.8,161.1,54.8,161.9z"/>
		<path class="st0" d="M61.1,159v3.7c0,0.6,0.1,1,0.4,1.2c0.2,0.3,0.6,0.4,1.1,0.4c0.7,0,1.2-0.2,1.5-0.5c0.3-0.3,0.5-0.9,0.5-1.7
			V159h0.5v5.7h-0.4l-0.1-0.8h0c-0.4,0.6-1,0.9-2,0.9c-1.3,0-1.9-0.7-1.9-2.1V159H61.1z"/>
		<path class="st0" d="M68.8,158.9c0.4,0,0.8,0.1,1.1,0.2c0.3,0.1,0.6,0.4,0.8,0.8h0c0-0.4,0-0.9,0-1.3v-2h0.5v8.1h-0.3l-0.1-0.9h0
			c-0.4,0.6-1,1-1.9,1c-0.8,0-1.4-0.2-1.8-0.7c-0.4-0.5-0.6-1.2-0.6-2.1c0-1,0.2-1.7,0.6-2.2C67.5,159.2,68.1,158.9,68.8,158.9z
			 M68.8,159.4c-0.6,0-1.1,0.2-1.4,0.7c-0.3,0.4-0.5,1.1-0.5,1.9c0,1.6,0.6,2.4,1.9,2.4c0.6,0,1.1-0.2,1.4-0.6
			c0.3-0.4,0.4-1,0.4-1.8v-0.1c0-0.9-0.1-1.5-0.4-1.9C70,159.6,69.5,159.4,68.8,159.4z"/>
		<path class="st0" d="M80.2,159.3c0,0.7-0.3,1.3-0.8,1.7c-0.5,0.4-1.2,0.6-2.1,0.6h-1.2v3.1h-0.5v-7.6h1.9
			C79.3,157.1,80.2,157.8,80.2,159.3z M76.1,161.1h1c0.9,0,1.5-0.1,1.9-0.4c0.4-0.3,0.6-0.7,0.6-1.4c0-0.6-0.2-1-0.5-1.3
			c-0.4-0.3-0.9-0.4-1.7-0.4h-1.3V161.1z"/>
		<path class="st0" d="M81.9,164.7h-0.5v-8.1h0.5V164.7z"/>
		<path class="st0" d="M87.1,164.7l-0.1-0.9h0c-0.3,0.4-0.6,0.6-0.9,0.8c-0.3,0.2-0.7,0.2-1.1,0.2c-0.6,0-1-0.1-1.3-0.4
			c-0.3-0.3-0.5-0.7-0.5-1.2c0-0.6,0.2-1,0.7-1.3c0.5-0.3,1.1-0.5,2-0.5l1.1,0V161c0-0.5-0.1-0.9-0.3-1.2c-0.2-0.3-0.6-0.4-1.1-0.4
			c-0.5,0-1.1,0.1-1.6,0.4l-0.2-0.4c0.6-0.3,1.2-0.4,1.8-0.4c0.6,0,1.1,0.2,1.4,0.5c0.3,0.3,0.5,0.8,0.5,1.5v3.8H87.1z M85,164.3
			c0.6,0,1.1-0.2,1.4-0.5c0.3-0.3,0.5-0.8,0.5-1.4v-0.6l-1,0c-0.8,0-1.4,0.2-1.7,0.4c-0.3,0.2-0.5,0.5-0.5,1c0,0.4,0.1,0.6,0.3,0.8
			C84.3,164.2,84.6,164.3,85,164.3z"/>
		<path class="st0" d="M90.8,164.4c0.3,0,0.6,0,0.9-0.1v0.4c-0.3,0.1-0.5,0.1-0.9,0.1c-0.5,0-0.9-0.1-1.1-0.4
			c-0.2-0.3-0.4-0.7-0.4-1.3v-3.7h-0.8v-0.3l0.8-0.2l0.3-1.3h0.3v1.4h1.7v0.4h-1.7v3.6c0,0.4,0.1,0.8,0.2,1
			C90.2,164.2,90.5,164.4,90.8,164.4z"/>
		<path class="st0" d="M95,159.5h-1.3v5.2h-0.5v-5.2h-1.1v-0.3l1.1-0.2v-0.4c0-0.7,0.1-1.2,0.4-1.5c0.3-0.3,0.7-0.5,1.3-0.5
			c0.3,0,0.6,0,0.9,0.1l-0.1,0.4c-0.3-0.1-0.6-0.1-0.8-0.1c-0.4,0-0.7,0.1-0.9,0.4c-0.2,0.2-0.3,0.6-0.3,1.2v0.5H95V159.5z"/>
		<path class="st0" d="M100.6,161.9c0,0.9-0.2,1.6-0.7,2.2c-0.4,0.5-1.1,0.8-1.9,0.8c-0.5,0-0.9-0.1-1.3-0.4c-0.4-0.2-0.7-0.6-0.9-1
			c-0.2-0.4-0.3-1-0.3-1.6c0-0.9,0.2-1.6,0.7-2.2c0.4-0.5,1.1-0.8,1.8-0.8c0.8,0,1.4,0.3,1.8,0.8C100.3,160.2,100.6,161,100.6,161.9
			z M96.1,161.9c0,0.8,0.2,1.4,0.5,1.8c0.3,0.4,0.8,0.7,1.5,0.7c0.6,0,1.1-0.2,1.5-0.7c0.3-0.4,0.5-1,0.5-1.8c0-0.8-0.2-1.4-0.5-1.8
			c-0.3-0.4-0.8-0.6-1.5-0.6c-0.6,0-1.1,0.2-1.4,0.6C96.3,160.5,96.1,161.1,96.1,161.9z"/>
		<path class="st0" d="M104.3,158.9c0.2,0,0.5,0,0.8,0.1l-0.1,0.5c-0.2-0.1-0.5-0.1-0.7-0.1c-0.5,0-0.9,0.2-1.2,0.6
			c-0.3,0.4-0.5,0.9-0.5,1.6v3.1h-0.5V159h0.4l0.1,1h0c0.2-0.4,0.5-0.7,0.7-0.9C103.7,159,104,158.9,104.3,158.9z"/>
		<path class="st0" d="M113.1,164.7V161c0-0.6-0.1-1-0.3-1.2c-0.2-0.3-0.5-0.4-1-0.4c-0.6,0-1,0.2-1.3,0.5c-0.3,0.3-0.4,0.8-0.4,1.5
			v3.3h-0.5v-3.9c0-1-0.4-1.4-1.3-1.4c-0.6,0-1,0.2-1.3,0.5c-0.3,0.3-0.4,0.9-0.4,1.7v3.1h-0.5V159h0.4l0.1,0.8h0
			c0.2-0.3,0.4-0.5,0.7-0.7c0.3-0.2,0.6-0.2,1-0.2c0.9,0,1.5,0.3,1.7,1h0c0.2-0.3,0.4-0.6,0.7-0.7c0.3-0.2,0.7-0.3,1.1-0.3
			c0.6,0,1.1,0.2,1.4,0.5c0.3,0.3,0.5,0.9,0.5,1.6v3.7H113.1z"/>
		<path class="st0" d="M117.9,164.7v-7.6h0.5v7.1h3.6v0.5H117.9z"/>
		<path class="st0" d="M123.2,157.5c0-0.3,0.1-0.5,0.3-0.5c0.1,0,0.2,0,0.3,0.1c0.1,0.1,0.1,0.2,0.1,0.4c0,0.2,0,0.3-0.1,0.4
			c-0.1,0.1-0.1,0.1-0.3,0.1C123.3,158,123.2,157.8,123.2,157.5z M123.8,164.7h-0.5V159h0.5V164.7z"/>
		<path class="st0" d="M126.9,164.7l-2.2-5.7h0.5l1.5,3.8c0.2,0.5,0.3,0.9,0.4,1.3h0c0.1-0.5,0.3-0.9,0.4-1.3l1.5-3.8h0.5l-2.2,5.7
			H126.9z"/>
		<path class="st0" d="M132.9,164.8c-0.8,0-1.5-0.3-1.9-0.8c-0.5-0.5-0.7-1.2-0.7-2.1c0-0.9,0.2-1.6,0.7-2.2c0.4-0.5,1-0.8,1.8-0.8
			c0.7,0,1.2,0.2,1.6,0.7c0.4,0.5,0.6,1.1,0.6,1.9v0.4h-4.1c0,0.8,0.2,1.4,0.5,1.8c0.4,0.4,0.9,0.6,1.5,0.6c0.3,0,0.6,0,0.9-0.1
			c0.2,0,0.6-0.1,0.9-0.3v0.5c-0.3,0.1-0.6,0.2-0.9,0.3C133.5,164.8,133.2,164.8,132.9,164.8z M132.7,159.4c-0.5,0-1,0.2-1.3,0.5
			c-0.3,0.4-0.5,0.9-0.6,1.6h3.5c0-0.7-0.1-1.2-0.4-1.5C133.6,159.6,133.2,159.4,132.7,159.4z"/>
	</g>
</g>
<g>
	<polygon class="st18" points="74.9,84.1 60.2,58.7 74.9,33.2 104.3,33.2 119,58.7 104.3,84.1 	"/>
	<path class="st14" d="M77.4,80.9L64.3,58.6l-7.2-12.2c-0.5-0.9-0.7-2.1-0.7-3.3L49,56c-0.9,1.6-0.9,4.1,0,5.7l18.1,31.4
		c0.9,1.6,3.1,2.8,4.9,2.8h21.6c0.9-0.5,1.6-1.2,2.1-2l7.4-13H77.4z"/>
	<polygon class="st19" points="131.3,56 113.2,24.7 120.5,37.4 	"/>
	<path class="st0" d="M131.3,56l-10.8-18.6c-0.9-0.6-2-0.9-3-0.9H103l12.6,22.2L103,80.9l-7.4,13c-0.4,0.8-1.2,1.5-2.1,2h14.7
		c1.8,0,4-1.3,4.9-2.8l7.2-12.5l10.9-18.9C132.2,60.1,132.2,57.6,131.3,56z"/>
	<path class="st13" d="M113.2,24.7c-0.9-1.6-3.1-2.8-4.9-2.8H94H72c-1.8,0-4,1.3-4.9,2.8L56.5,43c-0.1,1.2,0.1,2.4,0.7,3.3l7.2,12.2
		l12.8-22.1H103h14.6c1,0,2,0.4,3,0.9L113.2,24.7z"/>
	<polygon class="st16" points="64.3,58.6 77.4,80.9 103,80.9 115.6,58.7 103,36.5 77.1,36.5 	"/>
	<circle class="st3" cx="73" cy="29" r="2.2"/>
	<path class="st13" d="M73,27c1.1,0,2,0.9,2,2c0,1.1-0.9,2-2,2c-1.1,0-2-0.9-2-2C70.9,27.9,71.8,27,73,27 M73,26.7
		c-1.3,0-2.4,1.1-2.4,2.4c0,1.3,1.1,2.4,2.4,2.4c1.3,0,2.4-1.1,2.4-2.4C75.3,27.7,74.3,26.7,73,26.7L73,26.7z"/>
	<circle class="st20" cx="107.1" cy="29" r="2"/>
	<circle class="st3" cx="73" cy="88.3" r="2.2"/>
	<path class="st14" d="M73,86.2c1.1,0,2,0.9,2,2c0,1.1-0.9,2-2,2c-1.1,0-2-0.9-2-2C70.9,87.1,71.8,86.2,73,86.2 M73,85.9
		c-1.3,0-2.4,1.1-2.4,2.4c0,1.3,1.1,2.4,2.4,2.4c1.3,0,2.4-1.1,2.4-2.4C75.3,87,74.3,85.9,73,85.9L73,85.9z"/>
	<circle class="st3" cx="107.1" cy="88.3" r="2.2"/>
	<path class="st0" d="M107.1,86.2c1.1,0,2,0.9,2,2c0,1.1-0.9,2-2,2c-1.1,0-2-0.9-2-2C105.1,87.1,106,86.2,107.1,86.2 M107.1,85.9
		c-1.3,0-2.4,1.1-2.4,2.4c0,1.3,1.1,2.4,2.4,2.4c1.3,0,2.4-1.1,2.4-2.4C109.5,87,108.4,85.9,107.1,85.9L107.1,85.9z"/>
	<path class="st3" d="M124.3,56.8c1.1,0,2,0.9,2,2c0,1.1-0.9,2-2,2c-1.1,0-2-0.9-2-2C122.3,57.7,123.2,56.8,124.3,56.8"/>
	<circle class="st3" cx="55.7" cy="58.8" r="2.2"/>
	<path class="st14" d="M55.7,56.8c1.1,0,2,0.9,2,2c0,1.1-0.9,2-2,2c-1.1,0-2-0.9-2-2C53.7,57.7,54.6,56.8,55.7,56.8 M55.7,56.4
		c-1.3,0-2.4,1.1-2.4,2.4c0,1.3,1.1,2.4,2.4,2.4c1.3,0,2.4-1.1,2.4-2.4C58.1,57.5,57,56.4,55.7,56.4L55.7,56.4z"/>
	<path class="st3" d="M90.1,70.3c-6.3,0-11.5-5.1-11.5-11.5c0-6.3,5.1-11.5,11.5-11.5c6.3,0,11.5,5.1,11.5,11.5
		C101.6,65.1,96.4,70.3,90.1,70.3z"/>
</g>
</svg>
