<?xml version="1.0" encoding="UTF-8" standalone="no"?>
<svg width="865px" height="209px" viewBox="0 0 865 209" version="1.1" xmlns="http://www.w3.org/2000/svg" xmlns:xlink="http://www.w3.org/1999/xlink" xmlns:sketch="http://www.bohemiancoding.com/sketch/ns">
    <!-- Generator: Sketch 3.3.2 (12043) - http://www.bohemiancoding.com/sketch -->
    <title>Group + Shape</title>
    <desc>Created with Sketch.</desc>
    <defs></defs>
    <g id="Page-1" stroke="none" stroke-width="1" fill="none" fill-rule="evenodd" sketch:type="MSPage">
        <g id="Group-+-Shape" sketch:type="MSLayerGroup" transform="translate(103.000000, 18.000000)">
            <g id="Group" transform="translate(151.351706, 0.000000)" sketch:type="MSShapeGroup">
                <path d="M19.9146982,28.4602285 L10.355643,28.4602285 L0.796587927,28.4602285 L0.796587927,14.8914212 L0.796587927,1.32261385 L10.355643,1.32261385 L19.9146982,1.32261385 L19.9146982,6.11160468 L19.9146982,10.9005955 L60.2220472,10.5813294 L100.370079,10.1024304 L100.848031,5.79233862 L101.325984,1.32261385 L141.792651,1.32261385 L182.259318,1.32261385 L182.73727,5.79233862 L183.215223,10.1024304 L224.31916,10.5813294 L265.26378,10.9005955 L265.26378,6.11160468 L265.26378,1.32261385 L305.730446,1.32261385 L346.35643,1.32261385 L346.834383,5.79233862 L347.312336,10.1024304 L387.93832,10.1024304 L428.564304,10.1024304 L429.042257,5.79233862 C429.2136,4.18997481 428.684238,1.98203717 429.360892,1.32261385 C430.571736,0.142604247 434.191549,1.32261385 442.265617,1.32261385 L454.851706,1.32261385 L454.851706,14.8914212 L454.851706,28.4602285 L442.106299,28.4602285 L429.360892,28.4602285 L429.360892,33.2492194 L429.360892,38.0382102 L388.416273,37.7189441 L347.312336,37.240045 L346.834383,32.9299533 L346.35643,28.4602285 L305.730446,28.4602285 L265.26378,28.4602285 L265.26378,33.2492194 L265.26378,38.0382102 L223.841207,38.0382102 L182.418635,38.0382102 L182.418635,33.2492194 L182.418635,28.4602285 L141.792651,28.4602285 L101.166667,28.4602285 L101.166667,33.2492194 L101.166667,38.0382102 L60.5406824,38.0382102 L19.9146982,38.0382102 L19.9146982,33.2492194 L19.9146982,28.4602285 Z" id="Shape" fill="#FF2A0C" transform="translate(227.824147, 19.418188) scale(1, -1) translate(-227.824147, -19.418188) "></path>
                <path d="M19.9146982,55.0733945 L10.355643,55.0733945 L0.796587927,55.0733945 L0.796587927,41.5045872 L0.796587927,27.9357798 L10.355643,27.9357798 L19.9146982,27.9357798 L19.9146982,32.7247706 L19.9146982,37.5137615 L60.2220472,37.1944954 L100.370079,36.7155963 L100.848031,32.4055046 L101.325984,27.9357798 L141.792651,27.9357798 L182.259318,27.9357798 L182.73727,32.4055046 L183.215223,36.7155963 L224.31916,37.1944954 L265.26378,37.5137615 L265.26378,32.7247706 L265.26378,27.9357798 L305.730446,27.9357798 L346.35643,27.9357798 L346.834383,32.4055046 L347.312336,36.7155963 L387.93832,36.7155963 L428.564304,36.7155963 L429.042257,32.4055046 C429.52021,27.9357798 429.679528,27.9357798 442.265617,27.9357798 L454.851706,27.9357798 L454.851706,41.5045872 L454.851706,55.0733945 L442.106299,55.0733945 L429.360892,55.0733945 L429.360892,59.8623853 L429.360892,64.6513761 L388.416273,64.3321101 L347.312336,63.853211 L346.834383,59.5431193 L346.35643,55.0733945 L305.730446,55.0733945 L265.26378,55.0733945 L265.26378,59.8623853 L265.26378,64.6513761 L223.841207,64.6513761 L182.418635,64.6513761 L182.418635,59.8623853 L182.418635,55.0733945 L141.792651,55.0733945 L101.166667,55.0733945 L101.166667,59.8623853 L101.166667,64.6513761 L60.5406824,64.6513761 L19.9146982,64.6513761 L19.9146982,59.8623853 L19.9146982,55.0733945 Z" id="Shape-Copy" fill="#FFA700" transform="translate(227.824147, 46.293578) scale(1, -1) translate(-227.824147, -46.293578) "></path>
                <path d="M19.9146982,81.412844 L10.355643,81.412844 L0.796587927,81.412844 L0.796587927,67.8440367 L0.796587927,54.2752294 L10.355643,54.2752294 L19.9146982,54.2752294 L19.9146982,59.0642202 L19.9146982,63.853211 L60.2220472,63.533945 L100.370079,63.0550459 L100.848031,58.7449541 L101.325984,54.2752294 L141.792651,54.2752294 L182.259318,54.2752294 L182.73727,58.7449541 L183.215223,63.0550459 L224.31916,63.533945 L265.26378,63.853211 L265.26378,59.0642202 L265.26378,54.2752294 L305.730446,54.2752294 L346.35643,54.2752294 L346.834383,58.7449541 L347.312336,63.0550459 L387.93832,63.0550459 L428.564304,63.0550459 L429.042257,58.7449541 C429.364575,55.7306952 429.360892,54.2752294 433.483373,54.4295573 C437.605853,54.5838852 438.167238,54.2752294 442.265617,54.2752294 L454.851706,54.2752294 L454.851706,67.8440367 L454.851706,81.412844 L442.106299,81.412844 L429.360892,81.412844 L429.360892,86.2018349 L429.360892,90.9908257 L388.416273,90.6715596 L347.312336,90.1926606 L346.834383,85.8825688 L346.35643,81.412844 L305.730446,81.412844 L265.26378,81.412844 L265.26378,86.2018349 L265.26378,90.9908257 L223.841207,90.9908257 L182.418635,90.9908257 L182.418635,86.2018349 L182.418635,81.412844 L141.792651,81.412844 L101.166667,81.412844 L101.166667,86.2018349 L101.166667,90.9908257 L60.5406824,90.9908257 L19.9146982,90.9908257 L19.9146982,86.2018349 L19.9146982,81.412844 Z" id="Shape-Copy-2" fill="#FFF501" transform="translate(227.824147, 72.633028) scale(1, -1) translate(-227.824147, -72.633028) "></path>
                <path d="M19.9146982,107.799652 L10.355643,107.799652 L0.796587927,107.799652 L0.796587927,94.2308445 L0.796587927,80.6620372 L10.355643,80.6620372 L19.9146982,80.6620372 L19.9146982,85.451028 L19.9146982,90.2400188 L60.2220472,89.9207528 L100.370079,89.4418537 L100.848031,85.1317619 L101.325984,80.6620372 L141.792651,80.6620372 L182.259318,80.6620372 L182.73727,85.1317619 L183.215223,89.4418537 L224.31916,89.9207528 L265.26378,90.2400188 L265.26378,85.451028 L265.26378,80.6620372 L305.730446,80.6620372 L346.35643,80.6620372 L346.834383,85.1317619 L347.312336,89.4418537 L387.93832,89.4418537 L428.564304,89.4418537 L429.042257,85.1317619 C429.382653,81.9484487 424.739584,80.9257174 429.360892,80.6620372 C431.228414,80.5554811 438.643271,80.6620372 442.265617,80.6620372 L454.851706,80.6620372 L454.851706,94.2308445 L454.851706,107.799652 L442.106299,107.799652 L429.360892,107.799652 L429.360892,112.588643 L429.360892,117.377633 L388.416273,117.058367 L347.312336,116.579468 L346.834383,112.269377 L346.35643,107.799652 L305.730446,107.799652 L265.26378,107.799652 L265.26378,112.588643 L265.26378,117.377633 L223.841207,117.377633 L182.418635,117.377633 L182.418635,112.588643 L182.418635,107.799652 L141.792651,107.799652 L101.166667,107.799652 L101.166667,112.588643 L101.166667,117.377633 L60.5406824,117.377633 L19.9146982,117.377633 L19.9146982,112.588643 L19.9146982,107.799652 Z" id="Shape-Copy-3" fill="#30E906" transform="translate(227.824147, 98.996156) scale(1, -1) translate(-227.824147, -98.996156) "></path>
                <path d="M19.9146982,134.179774 L10.355643,134.179774 L0.796587927,134.179774 L0.796587927,120.610967 L0.796587927,107.04216 L10.355643,107.04216 L19.9146982,107.04216 L19.9146982,111.83115 L19.9146982,116.620141 L60.2220472,116.300875 L100.370079,115.821976 L100.848031,111.511884 L101.325984,107.04216 L141.792651,107.04216 L182.259318,107.04216 L182.73727,111.511884 L183.215223,115.821976 L224.31916,116.300875 L265.26378,116.620141 L265.26378,111.83115 L265.26378,107.04216 L305.730446,107.04216 L346.35643,107.04216 L346.834383,111.511884 L347.312336,115.821976 L387.93832,115.821976 L428.564304,115.821976 L429.042257,111.511884 C429.351076,108.62387 417.117626,107.403812 420.598425,107.04216 C422.504792,106.844089 437.811753,107.04216 442.265617,107.04216 L454.851706,107.04216 L454.851706,120.610967 L454.851706,134.179774 L442.106299,134.179774 L429.360892,134.179774 L429.360892,138.968765 L429.360892,143.757756 L388.416273,143.43849 L347.312336,142.959591 L346.834383,138.649499 L346.35643,134.179774 L305.730446,134.179774 L265.26378,134.179774 L265.26378,138.968765 L265.26378,143.757756 L223.841207,143.757756 L182.418635,143.757756 L182.418635,138.968765 L182.418635,134.179774 L141.792651,134.179774 L101.166667,134.179774 L101.166667,138.968765 L101.166667,143.757756 L60.5406824,143.757756 L19.9146982,143.757756 L19.9146982,138.968765 L19.9146982,134.179774 Z" id="Shape-Copy-4" fill="#02A1FF" transform="translate(227.824147, 125.355942) scale(1, -1) translate(-227.824147, -125.355942) "></path>
                <path d="M19.9146982,160.431193 L10.355643,160.431193 L0.796587927,160.431193 L0.796587927,146.862385 L0.796587927,133.293578 L10.355643,133.293578 L14.3385827,137.763303 L19.9146982,138.082569 L19.9146982,142.87156 L60.2220472,142.552294 L100.370079,142.073394 L100.848031,137.763303 L101.325984,133.293578 L141.792651,133.293578 L182.259318,133.293578 L182.73727,137.763303 L183.215223,142.073394 L224.31916,142.552294 L265.26378,142.87156 L265.26378,138.082569 L265.26378,133.293578 L305.730446,133.293578 L346.35643,133.293578 L346.834383,137.763303 L347.312336,142.073394 L387.93832,142.073394 L428.564304,142.073394 L429.042257,137.763303 C429.52021,133.293578 429.572552,133.608248 434.633665,133.377069 C436.461518,133.293578 454.851706,133.293578 454.851706,133.293578 L454.851706,146.862385 L454.851706,160.431193 L442.106299,160.431193 L429.360892,160.431193 L429.360892,165.220183 L429.360892,170.009174 L388.416273,169.689908 L347.312336,169.211009 L346.834383,164.900917 L346.35643,160.431193 L305.730446,160.431193 L265.26378,160.431193 L265.26378,165.220183 L265.26378,170.009174 L223.841207,170.009174 L182.418635,170.009174 L182.418635,165.220183 L182.418635,160.431193 L141.792651,160.431193 L101.166667,160.431193 L101.166667,165.220183 L101.166667,170.009174 L60.5406824,170.009174 L19.9146982,170.009174 L19.9146982,165.220183 L19.9146982,160.431193 Z" id="Shape-Copy-5" fill="#7755FF" transform="translate(227.824147, 151.651376) scale(1, -1) translate(-227.824147, -151.651376) "></path>
            </g>
            <g id="Shape" sketch:type="MSShapeGroup">
                <path d="M174.046974,55.2148401 L200.970551,55.2148401 L200.970551,83.1081999 L214.583995,83.1081999 C220.871086,83.1081999 227.336728,81.9737199 233.290749,79.92864 C236.215109,78.9240801 239.498865,77.5251201 242.38431,75.7653999 C238.584358,70.7356401 236.644322,64.38696 236.072039,58.1276001 C235.297169,49.6131999 236.991125,38.5317201 242.677317,31.8686799 L245.50668,28.5510801 L248.87971,31.2979599 C257.370085,38.2115601 264.51102,47.8731999 265.770041,58.8862401 C275.994431,55.8389199 287.997473,56.5592799 297.00977,61.8303201 L300.70671,63.9925599 L298.760952,67.8426 C291.139301,82.91796 275.205826,87.5869599 259.62831,86.7610401 C236.318121,145.60204 185.5693,173.4606 124.035252,173.4606 C92.2449878,173.4606 63.0780645,161.415159 46.4692968,132.83044 L46.1980351,132.36296 L43.7772824,127.3738 C38.1631961,114.79128 36.2987015,101.007 37.5634446,87.2343201 L37.9434398,83.1081999 L60.966344,83.1081999 L60.966344,55.2148401 L87.8887773,55.2148401 L87.8887773,27.9281601 L141.737078,27.9281601 L141.737078,0.64032 L174.046974,0.64032 L174.046974,55.2148401 L174.046974,55.2148401 Z" fill="#3A4E55"></path>
                <path d="M261.275339,65.5341999 C263.080316,51.3149199 252.58123,40.1464401 246.069805,34.8440799 C238.566044,43.6368801 237.399734,66.6791199 249.172719,76.3802001 C242.602921,82.29504 228.759421,87.6565599 214.583995,87.6565599 L42.0329669,87.6565599 C40.6549119,102.65304 43.2519274,116.46168 49.185347,128.28324 L51.1482743,131.921 C52.3912707,134.05888 53.7487236,136.12252 55.2160545,138.10844 L55.2171991,138.10844 C62.3100619,138.57128 68.851245,138.7302 74.8350255,138.5968 L74.8384591,138.5968 C86.5965646,138.33232 96.1914444,136.9264 103.464004,134.37208 C104.546761,133.99044 105.726807,134.57276 106.101079,135.66896 C106.474207,136.76516 105.901925,137.96228 104.820312,138.3416 C103.8543,138.68148 102.845939,138.99932 101.804386,139.29976 C101.803241,139.30092 101.802097,139.30092 101.800952,139.30092 C96.0746988,140.9574 89.9352577,142.07332 82.012586,142.56864 C82.4830018,142.5756 81.5227126,142.64056 81.5204236,142.64056 C81.251451,142.6568 80.9115154,142.69624 80.6413984,142.71132 C77.5236061,142.8888 74.1585882,142.92592 70.7180288,142.92592 C66.9558471,142.92592 63.2486044,142.854 59.1052829,142.64056 L58.9999831,142.71132 C73.3768509,159.0882 95.8572316,168.911079 124.034107,168.911079 C183.671612,168.911079 234.255616,142.11972 256.654734,81.96792 C272.54586,83.6197599 287.818921,79.5133599 294.766423,65.7696801 C283.70078,59.2968801 269.469271,61.3605201 261.275339,65.5341999" fill="#00AADA"></path>
                <path d="M261.275339,65.5341999 C263.080316,51.3149199 252.58123,40.1464401 246.069805,34.8440799 C238.566044,43.6368801 237.399734,66.6791199 249.172719,76.3802001 C242.602921,82.29504 228.759421,87.6565599 214.583995,87.6565599 L52.2504894,87.6565599 C51.5465826,110.62224 59.9556939,128.05704 74.8350255,138.5968 L74.8384591,138.5968 C86.5965646,138.33232 96.1914444,136.9264 103.464004,134.37208 C104.546761,133.99044 105.726807,134.57276 106.101079,135.66896 C106.474207,136.76516 105.901925,137.96228 104.820312,138.3416 C103.8543,138.68148 102.845939,138.99932 101.804386,139.29976 C101.803241,139.30092 101.802097,139.30092 101.800952,139.30092 C96.0746988,140.9574 89.4076138,142.216 81.4860867,142.71132 C81.4837974,142.71132 81.2937999,142.52572 81.2915107,142.52572 C101.586919,153.07708 131.015947,153.03996 164.755404,139.90412 C202.588965,125.1756 237.791175,97.1117199 262.355807,65.0145201 C261.984968,65.18388 261.624431,65.3567199 261.275339,65.5341999" fill="#27B9EC"></path>
                <path d="M42.355734,105.87668 C43.4281904,113.90968 45.7459324,121.43112 49.185347,128.28324 L51.1482743,131.92216 C52.3912707,134.05888 53.7487236,136.12252 55.2171991,138.10844 C62.3123512,138.57128 68.8535342,138.7302 74.8384591,138.5968 C86.5965646,138.33232 96.1914444,136.9264 103.464004,134.37208 C104.546761,133.9916 105.726807,134.57276 106.101079,135.66896 C106.475351,136.76516 105.901925,137.96228 104.820312,138.3416 C103.8543,138.68148 102.845939,138.99932 101.804386,139.29976 C101.803241,139.30092 101.802097,139.30092 101.800952,139.30092 C96.0746988,140.9574 89.4430953,142.14524 81.5204236,142.64056 C81.2491618,142.6568 80.7741677,142.66028 80.5006171,142.67652 C77.3839693,142.854 74.0532882,142.96188 70.6115845,142.96188 C66.8505471,142.96188 63.0025232,142.8888 58.8603461,142.67652 C73.2372141,159.0534 95.8572316,168.911079 124.034107,168.911079 C175.089673,168.911079 219.507909,149.27112 245.288069,105.87668 L42.355734,105.87668 L42.355734,105.87668 Z" fill="#088CB9"></path>
                <path d="M53.8036627,105.87668 C56.8562147,119.98228 64.1905806,131.05448 74.8384591,138.5968 C86.5965646,138.33232 96.1914444,136.9264 103.464004,134.37208 C104.546761,133.9916 105.726807,134.57276 106.101079,135.66896 C106.475351,136.76516 105.901925,137.96228 104.820312,138.3416 C103.8543,138.68148 102.845939,138.99932 101.804386,139.29976 C101.803241,139.30092 101.802097,139.30092 101.800952,139.30092 C96.0746988,140.9574 89.3023138,142.14524 81.3807866,142.64056 C101.673906,153.19076 131.018237,153.0388 164.755404,139.90528 C185.166413,131.95696 204.80942,120.12612 222.432271,105.87668 L53.8036627,105.87668 L53.8036627,105.87668 Z" fill="#039CC7"></path>
                <path d="M85.0010425,61.7328801 L86.8437905,61.7328801 L86.8437905,81.4412799 L85.0010425,81.4412799 L85.0010425,61.7328801 L85.0010425,61.7328801 Z M81.4654845,61.7328801 L83.3803399,61.7328801 L83.3803399,81.4412799 L81.4654845,81.4412799 L81.4654845,61.7328801 L81.4654845,61.7328801 Z M77.9299263,61.7328801 L79.8447819,61.7328801 L79.8447819,81.4412799 L77.9299263,81.4412799 L77.9299263,61.7328801 L77.9299263,61.7328801 Z M74.3932238,61.7328801 L76.3092237,61.7328801 L76.3092237,81.4412799 L74.3932238,81.4412799 L74.3932238,61.7328801 L74.3932238,61.7328801 Z M70.8588102,61.7328801 L72.7736657,61.7328801 L72.7736657,81.4412799 L70.8588102,81.4412799 L70.8588102,61.7328801 L70.8588102,61.7328801 Z M67.3965043,61.7328801 L69.2381077,61.7328801 L69.2381077,81.4412799 L67.3965043,81.4412799 L67.3965043,61.7328801 L67.3965043,61.7328801 Z M65.4530346,59.76204 L88.7861156,59.76204 L88.7861156,83.41212 L65.4530346,83.41212 L65.4530346,59.76204 L65.4530346,59.76204 Z" fill="#00ACD3"></path>
                <path d="M111.924621,34.4462001 L113.768513,34.4462001 L113.768513,54.1534401 L111.924621,54.1534401 L111.924621,34.4462001 L111.924621,34.4462001 Z M108.390207,34.4462001 L110.305063,34.4462001 L110.305063,54.1534401 L108.390207,54.1534401 L108.390207,34.4462001 L108.390207,34.4462001 Z M104.853504,34.4462001 L106.76836,34.4462001 L106.76836,54.1534401 L104.853504,54.1534401 L104.853504,34.4462001 L104.853504,34.4462001 Z M101.317946,34.4462001 L103.232802,34.4462001 L103.232802,54.1534401 L101.317946,54.1534401 L101.317946,34.4462001 L101.317946,34.4462001 Z M97.7835329,34.4462001 L99.6972438,34.4462001 L99.6972438,54.1534401 L97.7835329,54.1534401 L97.7835329,34.4462001 L97.7835329,34.4462001 Z M94.3212269,34.4462001 L96.1616856,34.4462001 L96.1616856,54.1534401 L94.3212269,54.1534401 L94.3212269,34.4462001 L94.3212269,34.4462001 Z M92.3754681,32.47536 L115.711983,32.47536 L115.711983,56.1242799 L92.3754681,56.1242799 L92.3754681,32.47536 L92.3754681,32.47536 Z" fill="#00ACD3"></path>
                <path d="M111.924621,61.7328801 L113.768513,61.7328801 L113.768513,81.4412799 L111.924621,81.4412799 L111.924621,61.7328801 L111.924621,61.7328801 Z M108.390207,61.7328801 L110.305063,61.7328801 L110.305063,81.4412799 L108.390207,81.4412799 L108.390207,61.7328801 L108.390207,61.7328801 Z M104.853504,61.7328801 L106.76836,61.7328801 L106.76836,81.4412799 L104.853504,81.4412799 L104.853504,61.7328801 L104.853504,61.7328801 Z M101.317946,61.7328801 L103.232802,61.7328801 L103.232802,81.4412799 L101.317946,81.4412799 L101.317946,61.7328801 L101.317946,61.7328801 Z M97.7835329,61.7328801 L99.6972438,61.7328801 L99.6972438,81.4412799 L97.7835329,81.4412799 L97.7835329,61.7328801 L97.7835329,61.7328801 Z M94.3212269,61.7328801 L96.1616856,61.7328801 L96.1616856,81.4412799 L94.3212269,81.4412799 L94.3212269,61.7328801 L94.3212269,61.7328801 Z M92.3754681,59.76204 L115.711983,59.76204 L115.711983,83.41212 L92.3754681,83.41212 L92.3754681,59.76204 L92.3754681,59.76204 Z" fill="#26C2EE"></path>
                <path d="M138.849343,61.7328801 L140.690947,61.7328801 L140.690947,81.4412799 L138.849343,81.4412799 L138.849343,61.7328801 L138.849343,61.7328801 Z M135.313785,61.7328801 L137.229785,61.7328801 L137.229785,81.4412799 L135.313785,81.4412799 L135.313785,61.7328801 L135.313785,61.7328801 Z M131.778227,61.7328801 L133.694227,61.7328801 L133.694227,81.4412799 L131.778227,81.4412799 L131.778227,61.7328801 L131.778227,61.7328801 Z M128.242669,61.7328801 L130.157524,61.7328801 L130.157524,81.4412799 L128.242669,81.4412799 L128.242669,61.7328801 L128.242669,61.7328801 Z M124.707111,61.7328801 L126.621966,61.7328801 L126.621966,81.4412799 L124.707111,81.4412799 L124.707111,61.7328801 L124.707111,61.7328801 Z M121.244805,61.7328801 L123.085264,61.7328801 L123.085264,81.4412799 L121.244805,81.4412799 L121.244805,61.7328801 L121.244805,61.7328801 Z M119.300191,59.76204 L142.635561,59.76204 L142.635561,83.41212 L119.300191,83.41212 L119.300191,59.76204 L119.300191,59.76204 Z" fill="#00ACD3"></path>
                <path d="M138.849343,34.4462001 L140.690947,34.4462001 L140.690947,54.1534401 L138.849343,54.1534401 L138.849343,34.4462001 L138.849343,34.4462001 Z M135.313785,34.4462001 L137.229785,34.4462001 L137.229785,54.1534401 L135.313785,54.1534401 L135.313785,34.4462001 L135.313785,34.4462001 Z M131.778227,34.4462001 L133.694227,34.4462001 L133.694227,54.1534401 L131.778227,54.1534401 L131.778227,34.4462001 L131.778227,34.4462001 Z M128.242669,34.4462001 L130.157524,34.4462001 L130.157524,54.1534401 L128.242669,54.1534401 L128.242669,34.4462001 L128.242669,34.4462001 Z M124.707111,34.4462001 L126.621966,34.4462001 L126.621966,54.1534401 L124.707111,54.1534401 L124.707111,34.4462001 L124.707111,34.4462001 Z M121.244805,34.4462001 L123.085264,34.4462001 L123.085264,54.1534401 L121.244805,54.1534401 L121.244805,34.4462001 L121.244805,34.4462001 Z M119.300191,32.47536 L142.635561,32.47536 L142.635561,56.1242799 L119.300191,56.1242799 L119.300191,32.47536 L119.300191,32.47536 Z" fill="#26C2EE"></path>
                <path d="M165.774066,61.7328801 L167.616814,61.7328801 L167.616814,81.4412799 L165.774066,81.4412799 L165.774066,61.7328801 L165.774066,61.7328801 Z M162.238508,61.7328801 L164.153363,61.7328801 L164.153363,81.4412799 L162.238508,81.4412799 L162.238508,61.7328801 L162.238508,61.7328801 Z M158.70295,61.7328801 L160.617805,61.7328801 L160.617805,81.4412799 L158.70295,81.4412799 L158.70295,61.7328801 L158.70295,61.7328801 Z M155.166247,61.7328801 L157.081102,61.7328801 L157.081102,81.4412799 L155.166247,81.4412799 L155.166247,61.7328801 L155.166247,61.7328801 Z M151.631834,61.7328801 L153.546689,61.7328801 L153.546689,81.4412799 L151.631834,81.4412799 L151.631834,61.7328801 L151.631834,61.7328801 Z M148.169527,61.7328801 L150.011131,61.7328801 L150.011131,81.4412799 L148.169527,81.4412799 L148.169527,61.7328801 L148.169527,61.7328801 Z M146.224913,59.76204 L169.560283,59.76204 L169.560283,83.41212 L146.224913,83.41212 L146.224913,59.76204 L146.224913,59.76204 Z" fill="#26C2EE"></path>
                <path d="M165.774066,34.4462001 L167.616814,34.4462001 L167.616814,54.1534401 L165.774066,54.1534401 L165.774066,34.4462001 L165.774066,34.4462001 Z M162.238508,34.4462001 L164.153363,34.4462001 L164.153363,54.1534401 L162.238508,54.1534401 L162.238508,34.4462001 L162.238508,34.4462001 Z M158.70295,34.4462001 L160.617805,34.4462001 L160.617805,54.1534401 L158.70295,54.1534401 L158.70295,34.4462001 L158.70295,34.4462001 Z M155.166247,34.4462001 L157.081102,34.4462001 L157.081102,54.1534401 L155.166247,54.1534401 L155.166247,34.4462001 L155.166247,34.4462001 Z M151.631834,34.4462001 L153.546689,34.4462001 L153.546689,54.1534401 L151.631834,54.1534401 L151.631834,34.4462001 L151.631834,34.4462001 Z M148.169527,34.4462001 L150.011131,34.4462001 L150.011131,54.1534401 L148.169527,54.1534401 L148.169527,34.4462001 L148.169527,34.4462001 Z M146.224913,32.47536 L169.560283,32.47536 L169.560283,56.1242799 L146.224913,56.1242799 L146.224913,32.47536 L146.224913,32.47536 Z" fill="#00ACD3"></path>
                <path d="M165.774066,7.15836 L167.616814,7.15836 L167.616814,26.8667601 L165.774066,26.8667601 L165.774066,7.15836 L165.774066,7.15836 Z M162.238508,7.15836 L164.153363,7.15836 L164.153363,26.8667601 L162.238508,26.8667601 L162.238508,7.15836 L162.238508,7.15836 Z M158.70295,7.15836 L160.617805,7.15836 L160.617805,26.8667601 L158.70295,26.8667601 L158.70295,7.15836 L158.70295,7.15836 Z M155.166247,7.15836 L157.081102,7.15836 L157.081102,26.8667601 L155.166247,26.8667601 L155.166247,7.15836 L155.166247,7.15836 Z M151.631834,7.15836 L153.546689,7.15836 L153.546689,26.8667601 L151.631834,26.8667601 L151.631834,7.15836 L151.631834,7.15836 Z M148.169527,7.15836 L150.011131,7.15836 L150.011131,26.8667601 L148.169527,26.8667601 L148.169527,7.15836 L148.169527,7.15836 Z M146.224913,5.18868 L169.560283,5.18868 L169.560283,28.8375999 L146.224913,28.8375999 L146.224913,5.18868 L146.224913,5.18868 Z" fill="#26C2EE"></path>
                <path d="M192.697643,61.7328801 L194.539248,61.7328801 L194.539248,81.4412799 L192.697643,81.4412799 L192.697643,61.7328801 L192.697643,61.7328801 Z M189.16323,61.7328801 L191.076941,61.7328801 L191.076941,81.4412799 L189.16323,81.4412799 L189.16323,61.7328801 L189.16323,61.7328801 Z M185.625383,61.7328801 L187.540238,61.7328801 L187.540238,81.4412799 L185.625383,81.4412799 L185.625383,61.7328801 L185.625383,61.7328801 Z M182.09097,61.7328801 L184.005825,61.7328801 L184.005825,81.4412799 L182.09097,81.4412799 L182.09097,61.7328801 L182.09097,61.7328801 Z M178.554268,61.7328801 L180.469122,61.7328801 L180.469122,81.4412799 L178.554268,81.4412799 L178.554268,61.7328801 L178.554268,61.7328801 Z M175.09196,61.7328801 L176.934709,61.7328801 L176.934709,81.4412799 L175.09196,81.4412799 L175.09196,61.7328801 L175.09196,61.7328801 Z M173.148491,59.76204 L196.483861,59.76204 L196.483861,83.41212 L173.148491,83.41212 L173.148491,59.76204 L173.148491,59.76204 Z" fill="#00ACD3"></path>
                <path d="M114.251519,121.75476 C117.80539,121.75476 120.688547,124.67796 120.688547,128.27976 C120.688547,131.88156 117.80539,134.80244 114.251519,134.80244 C110.695359,134.80244 107.813347,131.88156 107.813347,128.27976 C107.813347,124.67796 110.695359,121.75476 114.251519,121.75476" fill="#D5EEF2"></path>
                <path d="M114.251519,123.60612 C114.839825,123.60612 115.401806,123.71864 115.920293,123.92164 C115.358312,124.25108 114.978317,124.8682 114.978317,125.57348 C114.978317,126.62676 115.820716,127.47936 116.85998,127.47936 C117.571899,127.47936 118.189964,127.078 118.510442,126.48756 C118.735921,127.03856 118.860678,127.64408 118.860678,128.27976 C118.860678,130.8596 116.797029,132.95224 114.251519,132.95224 C111.704864,132.95224 109.640071,130.8596 109.640071,128.27976 C109.640071,125.6976 111.704864,123.60612 114.251519,123.60612" fill="#3A4E55"></path>
                <path d="M0.385718054,108.23496 L141.397142,108.23496 L158.838008,108.23496 L299.845999,108.23496 C293.325418,106.55876 279.215233,104.29444 281.542132,95.63388 C269.686738,109.53764 241.093242,105.38948 233.877911,98.5315599 C225.841927,110.345 179.061309,105.85464 175.799302,96.6523599 C165.724849,108.634 134.509157,108.634 124.43356,96.6523599 C121.169264,105.85464 74.3909345,110.345 66.3538064,98.5315599 C59.1373308,105.38948 30.5472675,109.53764 18.6907295,95.63388 C21.017628,104.29444 6.9074435,106.55876 0.385718054,108.23496" fill="#3A4E55"></path>
                <path d="M131.36275,168.770721 C115.420119,161.10312 106.669927,150.68052 101.800952,139.30092 C95.8789783,141.0154 88.7609351,142.10928 80.4891714,142.58024 C77.3736683,142.75772 74.0967817,142.8482 70.6562224,142.8482 C66.6914528,142.8482 62.5126498,142.72988 58.1266807,142.49324 C72.7461962,157.3018 90.7318743,168.70344 124.034107,168.911079 C126.492631,168.911079 128.933986,168.862359 131.36275,168.770721" fill="#C0DBE1"></path>
                <path d="M107.722926,149.80008 C105.517351,146.76552 103.377017,142.9526 101.804386,139.29976 C95.8824121,141.01308 88.7620797,142.10928 80.4891714,142.57908 C86.1719315,145.70644 94.2983355,148.6018 107.722926,149.80008" fill="#D5EEF2"></path>
            </g>
        </g>
    </g>
</svg>