<?xml version="1.0" encoding="UTF-8" standalone="no"?>
<!-- Created with Inkscape (http://www.inkscape.org/) -->

<svg
   xmlns:dc="http://purl.org/dc/elements/1.1/"
   xmlns:cc="http://creativecommons.org/ns#"
   xmlns:rdf="http://www.w3.org/1999/02/22-rdf-syntax-ns#"
   xmlns:svg="http://www.w3.org/2000/svg"
   xmlns="http://www.w3.org/2000/svg"
   xmlns:sodipodi="http://sodipodi.sourceforge.net/DTD/sodipodi-0.dtd"
   xmlns:inkscape="http://www.inkscape.org/namespaces/inkscape"
   width="708.69067"
   height="181.60097"
   id="svg3585"
   version="1.1"
   inkscape:version="0.48.5 r10040"
   sodipodi:docname="feat2.svg">
  <defs
     id="defs3587" />
  <sodipodi:namedview
     id="base"
     pagecolor="#ffffff"
     bordercolor="#666666"
     borderopacity="1.0"
     inkscape:pageopacity="0.0"
     inkscape:pageshadow="2"
     inkscape:zoom="0.7"
     inkscape:cx="481.94062"
     inkscape:cy="134.47337"
     inkscape:document-units="px"
     inkscape:current-layer="layer1"
     showgrid="false"
     fit-margin-top="0"
     fit-margin-left="0"
     fit-margin-right="0"
     fit-margin-bottom="0"
     inkscape:window-width="1143"
     inkscape:window-height="588"
     inkscape:window-x="80"
     inkscape:window-y="80"
     inkscape:window-maximized="0" />
  <metadata
     id="metadata3590">
    <rdf:RDF>
      <cc:Work
         rdf:about="">
        <dc:format>image/svg+xml</dc:format>
        <dc:type
           rdf:resource="http://purl.org/dc/dcmitype/StillImage" />
      </cc:Work>
    </rdf:RDF>
  </metadata>
  <g
     inkscape:label="Layer 1"
     inkscape:groupmode="layer"
     id="layer1"
     transform="translate(-136.42943,-169.6021)">
    <g
       transform="matrix(0.05816608,0,0,0.05816608,390.39099,568.4544)"
       id="5151e0c8492e5103c096af88a528db77"
       style="fill:#ffffff;fill-opacity:1">
      <path
         inkscape:connector-curvature="0"
         display="inline"
         d="M 337.432,0.5 1.246,48.306 V 418.863 L 169.339,511.5 510.754,462.191 V 94.629 L 337.432,0.5 z m 147.846,114.759 -0.727,-5.867 0.727,0.393 v 5.474 z M 172.571,129.305 56.197,66.224 329.789,27.319 v 16.579 h 15.285 V 33.638 L 456.693,94.262 172.571,129.305 z M 41.798,400.175 26.722,402.36 V 79.225 l 129.879,70.401 V 475.392 L 43.679,413.162 41.798,400.175 z m 437.544,40.81 3.374,-6.255 -22.426,-12.09 -7.254,13.454 12.718,6.856 -283.677,40.97 v -88.626 l 13.183,-1.911 -2.189,-15.126 -10.994,1.592 V 153.8 l 147.712,-18.216 v 10.215 h 15.285 v -12.101 l 140.204,-17.295 v 323.726 l -5.936,0.856 z M 92.224,392.87 l 2.189,15.126 -25.214,3.652 -2.189,-15.126 25.214,-3.652 z m 246.611,-35.729 9.344,5.04 -7.254,13.454 -4.896,-2.643 -14.708,2.13 -2.189,-15.126 19.703,-2.855 z m -193.999,43.551 -25.212,3.652 -2.189,-15.126 25.211,-3.652 2.19,15.126 z m 270.614,-2.234 22.42,12.091 -7.255,13.454 -22.42,-12.091 7.255,-13.454 z m -171.954,-27.505 2.189,15.125 -25.212,3.652 -2.189,-15.126 25.212,-3.651 z m 50.424,-7.305 2.188,15.126 -25.211,3.652 -2.189,-15.126 25.212,-3.652 z m 76.68,10.623 22.425,12.091 -7.254,13.454 -22.426,-12.091 7.255,-13.454 z M 329.789,69.373 h 15.285 V 94.849 H 329.789 V 69.373 z m 15.285,229.278 h -15.285 v -25.476 h 15.285 v 25.476 z m 0,50.952 h -15.285 v -25.476 h 15.285 v 25.476 z m 0,-152.853 h -15.285 v -25.476 h 15.285 v 25.476 z m 0,50.951 h -15.285 v -25.476 h 15.285 v 25.476 z"
         id="path7042"
         style="fill:#ffffff;fill-opacity:1;display:inline" />
    </g>
    <flowRoot
       transform="translate(72.318457,38.999639)"
       xml:space="preserve"
       id="flowRoot3109"
       style="font-size:22px;font-style:normal;font-variant:normal;font-weight:300;font-stretch:normal;line-height:125%;letter-spacing:0px;word-spacing:0px;fill:#000000;fill-opacity:1;stroke:none;font-family:Lato;-inkscape-font-specification:Lato Light"><flowRegion
         id="flowRegion3111"><rect
           id="rect3113"
           width="241.42857"
           height="100"
           x="141.42857"
           y="260.93362" /></flowRegion><flowPara
         id="flowPara3115" /></flowRoot>    <g
       transform="translate(273.74703,-111.00036)"
       style="font-size:22px;font-style:normal;font-variant:normal;font-weight:300;font-stretch:normal;line-height:125%;letter-spacing:0px;word-spacing:0px;fill:#000000;fill-opacity:1;stroke:none;font-family:Lato;-inkscape-font-specification:Lato Light"
       id="flowRoot3133">
      <path
         d="m 160.60254,291.4734 0,7.45508 -1.98731,0 0,-7.45508 c 0,-1.08137 -0.18978,-1.87629 -0.56933,-2.38476 -0.37957,-0.50846 -0.97397,-0.76269 -1.7832,-0.7627 -0.92384,10e-6 -1.6364,0.32944 -2.1377,0.98828 -0.49414,0.65171 -0.74122,1.58986 -0.74121,2.81446 l 0,6.7998 -1.97656,0 0,-12.03125 1.97656,0 0,1.80469 c 0.35091,-0.68749 0.82714,-1.2067 1.42871,-1.55762 0.60156,-0.35806 1.31412,-0.5371 2.1377,-0.53711 1.2246,10e-6 2.13768,0.40464 2.73925,1.21387 0.60872,0.80209 0.91308,2.01954 0.91309,3.65234"
         style="font-weight:normal;text-align:start;line-height:125%;writing-mode:lr-tb;text-anchor:start;fill:#000000;font-family:Menlo;-inkscape-font-specification:Menlo"
         id="path4162" />
      <path
         d="m 170.08789,292.88063 -0.65527,0 c -1.153,1e-5 -2.02312,0.20411 -2.61035,0.6123 -0.58009,0.40105 -0.87012,1.00261 -0.87012,1.80469 0,0.72331 0.21842,1.28549 0.65527,1.68653 0.43685,0.40104 1.04199,0.60156 1.81543,0.60156 1.08854,0 1.94433,-0.37598 2.56738,-1.12793 0.62304,-0.75911 0.93815,-1.80468 0.94532,-3.13672 l 0,-0.44043 -1.84766,0 m 3.83496,-0.81641 0,6.86426 -1.9873,0 0,-1.7832 c -0.42254,0.71615 -0.95607,1.24609 -1.60059,1.58984 -0.63738,0.33659 -1.41439,0.50488 -2.33105,0.50488 -1.22462,0 -2.20216,-0.34374 -2.93262,-1.03125 -0.73047,-0.69466 -1.09571,-1.62206 -1.0957,-2.78222 -1e-5,-1.33919 0.44759,-2.35612 1.34277,-3.05078 0.90234,-0.69466 2.22363,-1.04199 3.96387,-1.042 l 2.65332,0 0,-0.31152 c -0.007,-0.95963 -0.25066,-1.65429 -0.73047,-2.08398 -0.47983,-0.43684 -1.2461,-0.65527 -2.29883,-0.65528 -0.67318,1e-5 -1.35352,0.0967 -2.04102,0.29004 -0.6875,0.19337 -1.35709,0.47625 -2.00878,0.84864 l 0,-1.97657 c 0.73046,-0.27928 1.4287,-0.48696 2.09472,-0.62304 0.67317,-0.14322 1.32487,-0.21484 1.95508,-0.21485 0.99544,10e-6 1.84407,0.14682 2.5459,0.44043 0.70897,0.29363 1.28189,0.73406 1.71875,1.32129 0.27212,0.35808 0.46548,0.80209 0.58008,1.33203 0.11457,0.5228 0.17186,1.31056 0.17187,2.36328"
         style="font-weight:normal;text-align:start;line-height:125%;writing-mode:lr-tb;text-anchor:start;fill:#000000;font-family:Menlo;-inkscape-font-specification:Menlo"
         id="path4164" />
      <path
         d="m 183.04297,288.12184 c 0.24348,-0.51561 0.55142,-0.89517 0.92383,-1.13867 0.37955,-0.25064 0.8343,-0.37597 1.36425,-0.37598 0.96679,10e-6 1.64713,0.37599 2.04102,1.12793 0.40103,0.7448 0.60155,2.15203 0.60156,4.22168 l 0,6.97168 -1.80468,0 0,-6.88574 c -2e-5,-1.69726 -0.0967,-2.74999 -0.29004,-3.1582 -0.18621,-0.41536 -0.52996,-0.62304 -1.03125,-0.62305 -0.57293,1e-5 -0.96681,0.22202 -1.18164,0.66601 -0.20769,0.43686 -0.31154,1.47527 -0.31153,3.11524 l 0,6.88574 -1.80469,0 0,-6.88574 c 0,-1.71874 -0.10384,-2.77864 -0.31152,-3.17969 -0.20052,-0.40103 -0.56576,-0.60155 -1.0957,-0.60156 -0.52279,1e-5 -0.88803,0.22202 -1.09571,0.66601 -0.20052,0.43686 -0.30078,1.47527 -0.30078,3.11524 l 0,6.88574 -1.79394,0 0,-12.03125 1.79394,0 0,1.03125 c 0.23633,-0.42967 0.52995,-0.75552 0.88086,-0.97754 0.35807,-0.22915 0.76269,-0.34374 1.21387,-0.34375 0.54427,10e-6 0.99544,0.12534 1.35352,0.37598 0.36522,0.25066 0.6481,0.63022 0.84863,1.13867"
         style="font-weight:normal;text-align:start;line-height:125%;writing-mode:lr-tb;text-anchor:start;fill:#000000;font-family:Menlo;-inkscape-font-specification:Menlo"
         id="path4166" />
      <path
         d="m 201.04687,291.92458 0,0.96679 -8.56152,0 0,0.0645 c -0.0573,1.63997 0.25423,2.81803 0.93457,3.53417 0.6875,0.71615 1.65429,1.07423 2.90039,1.07422 0.6302,1e-5 1.28906,-0.10026 1.97656,-0.30078 0.6875,-0.20052 1.42154,-0.50488 2.20215,-0.91308 l 0,1.96582 c -0.75196,0.30794 -1.47885,0.53711 -2.18066,0.6875 -0.69467,0.15755 -1.36785,0.23632 -2.01953,0.23632 -1.86915,0 -3.33008,-0.55859 -4.38281,-1.67578 -1.05274,-1.12434 -1.57911,-2.67122 -1.57911,-4.64062 0,-1.91926 0.51563,-3.45181 1.54688,-4.59766 1.03125,-1.14582 2.40624,-1.71874 4.125,-1.71875 1.53254,10e-6 2.73925,0.51922 3.62012,1.55762 0.88801,1.03842 1.36066,2.29167 1.41796,3.75977 m -1.97656,-0.58008 c -0.0859,-0.83072 -0.39031,-1.54687 -0.91308,-2.14844 -0.51564,-0.60871 -1.26043,-0.91308 -2.23438,-0.91309 -0.95248,1e-5 -1.73666,0.31512 -2.35254,0.94532 -0.61589,0.63021 -0.95248,1.3392 -1.00976,2.12695 l 6.50976,-0.0107"
         style="font-weight:normal;text-align:start;line-height:125%;writing-mode:lr-tb;text-anchor:start;fill:#000000;font-family:Menlo;-inkscape-font-specification:Menlo"
         id="path4168" />
      <path
         d="m 206.8584,286.90797 3.35156,0 0,3.87793 -3.35156,0 0,-3.87793 m 0,8.11036 3.35156,0 0,3.91015 -3.35156,0 0,-3.91015"
         style="font-weight:normal;text-align:start;line-height:125%;writing-mode:lr-tb;text-anchor:start;fill:#000000;font-family:Menlo;-inkscape-font-specification:Menlo"
         id="path4170" />
      <path
         d="m 239.1709,287.31618 0,1.93359 c -0.56577,-0.32942 -1.1351,-0.57649 -1.70801,-0.74121 -0.57292,-0.1647 -1.15658,-0.24706 -1.75098,-0.24707 -0.89518,1e-5 -1.56478,0.14682 -2.00879,0.44043 -0.43685,0.28647 -0.65527,0.7269 -0.65527,1.32129 0,0.53712 0.16471,0.93816 0.49414,1.20312 0.32942,0.26498 1.14941,0.5228 2.45996,0.77344 l 0.79492,0.15039 c 0.98112,0.18621 1.72233,0.5586 2.22364,1.11719 0.50845,0.5586 0.76268,1.28548 0.76269,2.18066 -1e-5,1.18881 -0.42253,2.1198 -1.26758,2.79297 -0.84506,0.66602 -2.01953,0.99902 -3.52343,0.99902 -0.59441,0 -1.21746,-0.0645 -1.86914,-0.19335 -0.6517,-0.12175 -1.3571,-0.30795 -2.11621,-0.5586 l 0,-2.04101 c 0.73762,0.37956 1.44303,0.66601 2.11621,0.85937 0.67317,0.1862 1.31054,0.2793 1.91211,0.2793 0.87369,0 1.55044,-0.17546 2.03027,-0.52637 0.47981,-0.35807 0.71972,-0.85579 0.71973,-1.49316 -1e-5,-0.91667 -0.87729,-1.55045 -2.63184,-1.90137 l -0.0859,-0.0215 -0.74121,-0.1504 c -1.13867,-0.22199 -1.9694,-0.59439 -2.49219,-1.11718 -0.52278,-0.52994 -0.78418,-1.24967 -0.78418,-2.15918 0,-1.15299 0.3903,-2.04101 1.1709,-2.66407 0.7806,-0.63019 1.8942,-0.9453 3.34082,-0.94531 0.64453,10e-6 1.26399,0.0609 1.8584,0.18262 0.59439,0.1146 1.17805,0.29005 1.75098,0.52637"
         style="font-weight:normal;text-align:start;line-height:125%;writing-mode:lr-tb;text-anchor:start;fill:#000000;font-family:Menlo;-inkscape-font-specification:Menlo"
         id="path4172" />
      <path
         d="m 253.98437,291.92458 0,0.96679 -8.56152,0 0,0.0645 c -0.0573,1.63997 0.25423,2.81803 0.93457,3.53417 0.6875,0.71615 1.65429,1.07423 2.90039,1.07422 0.6302,1e-5 1.28906,-0.10026 1.97656,-0.30078 0.6875,-0.20052 1.42154,-0.50488 2.20215,-0.91308 l 0,1.96582 c -0.75196,0.30794 -1.47885,0.53711 -2.18066,0.6875 -0.69467,0.15755 -1.36785,0.23632 -2.01953,0.23632 -1.86915,0 -3.33008,-0.55859 -4.38281,-1.67578 -1.05274,-1.12434 -1.57911,-2.67122 -1.57911,-4.64062 0,-1.91926 0.51563,-3.45181 1.54688,-4.59766 1.03125,-1.14582 2.40624,-1.71874 4.125,-1.71875 1.53254,10e-6 2.73925,0.51922 3.62012,1.55762 0.88801,1.03842 1.36066,2.29167 1.41796,3.75977 m -1.97656,-0.58008 c -0.0859,-0.83072 -0.39031,-1.54687 -0.91308,-2.14844 -0.51564,-0.60871 -1.26043,-0.91308 -2.23438,-0.91309 -0.95248,1e-5 -1.73666,0.31512 -2.35254,0.94532 -0.61589,0.63021 -0.95248,1.3392 -1.00976,2.12695 l 6.50976,-0.0107"
         style="font-weight:normal;text-align:start;line-height:125%;writing-mode:lr-tb;text-anchor:start;fill:#000000;font-family:Menlo;-inkscape-font-specification:Menlo"
         id="path4174" />
      <path
         d="m 267.59473,289.37868 c -0.42254,-0.32942 -0.85223,-0.56933 -1.28907,-0.71973 -0.43686,-0.15038 -0.91667,-0.22558 -1.43945,-0.22559 -1.23178,1e-5 -2.17351,0.38673 -2.82519,1.16016 -0.6517,0.77345 -0.97755,1.89063 -0.97754,3.35156 l 0,5.9834 -1.98731,0 0,-12.03125 1.98731,0 0,2.35254 c 0.32942,-0.8522 0.8343,-1.50389 1.51464,-1.95508 0.6875,-0.45832 1.50032,-0.68749 2.43848,-0.6875 0.48697,10e-6 0.94172,0.0609 1.36426,0.18262 0.42251,0.12176 0.82714,0.31153 1.21387,0.56934 l 0,2.01953"
         style="font-weight:normal;text-align:start;line-height:125%;writing-mode:lr-tb;text-anchor:start;fill:#000000;font-family:Menlo;-inkscape-font-specification:Menlo"
         id="path4176" />
      <path
         d="m 269.49609,286.89723 2.05176,0 3.49121,10.09766 3.50196,-10.09766 2.05175,0 -4.27539,12.03125 -2.5459,0 -4.27539,-12.03125"
         style="font-weight:normal;text-align:start;line-height:125%;writing-mode:lr-tb;text-anchor:start;fill:#000000;font-family:Menlo;-inkscape-font-specification:Menlo"
         id="path4178" />
      <path
         d="m 285.05078,286.9402 5.05957,0 0,10.45215 3.9209,0 0,1.53613 -9.81836,0 0,-1.53613 3.9209,0 0,-8.91602 -3.08301,0 0,-1.53613 m 3.08301,-4.67285 1.97656,0 0,2.49219 -1.97656,0 0,-2.49219"
         style="font-weight:normal;text-align:start;line-height:125%;writing-mode:lr-tb;text-anchor:start;fill:#000000;font-family:Menlo;-inkscape-font-specification:Menlo"
         id="path4180" />
      <path
         d="m 306.28809,298.31618 c -0.52996,0.30794 -1.07781,0.53711 -1.64356,0.6875 -0.5586,0.15755 -1.13152,0.23632 -1.71875,0.23632 -1.86198,0 -3.31934,-0.55859 -4.37207,-1.67578 -1.04557,-1.11718 -1.56836,-2.66405 -1.56836,-4.64062 0,-1.97656 0.52279,-3.52343 1.56836,-4.64063 1.05273,-1.11717 2.51009,-1.67577 4.37207,-1.67578 0.58007,10e-6 1.14583,0.0752 1.69727,0.22559 0.55142,0.1504 1.10643,0.38315 1.66504,0.69824 l 0,2.07324 c -0.5228,-0.46548 -1.04917,-0.80207 -1.57911,-1.00976 -0.52279,-0.20767 -1.11719,-0.31152 -1.7832,-0.31153 -1.23894,1e-5 -2.19141,0.40106 -2.85742,1.20313 -0.66602,0.80209 -0.99903,1.94792 -0.99902,3.4375 -1e-5,1.48243 0.333,2.62826 0.99902,3.4375 0.67317,0.80208 1.62564,1.20313 2.85742,1.20312 0.68749,1e-5 1.30338,-0.10384 1.84766,-0.31152 0.54426,-0.21484 1.04914,-0.54427 1.51465,-0.98828 l 0,2.05176"
         style="font-weight:normal;text-align:start;line-height:125%;writing-mode:lr-tb;text-anchor:start;fill:#000000;font-family:Menlo;-inkscape-font-specification:Menlo"
         id="path4182" />
      <path
         d="m 320.15625,291.92458 0,0.96679 -8.56152,0 0,0.0645 c -0.0573,1.63997 0.25422,2.81803 0.93457,3.53417 0.68749,0.71615 1.65429,1.07423 2.90039,1.07422 0.6302,1e-5 1.28905,-0.10026 1.97656,-0.30078 0.68749,-0.20052 1.42154,-0.50488 2.20215,-0.91308 l 0,1.96582 c -0.75197,0.30794 -1.47885,0.53711 -2.18067,0.6875 -0.69467,0.15755 -1.36784,0.23632 -2.01953,0.23632 -1.86914,0 -3.33008,-0.55859 -4.38281,-1.67578 -1.05274,-1.12434 -1.5791,-2.67122 -1.5791,-4.64062 0,-1.91926 0.51562,-3.45181 1.54687,-4.59766 1.03125,-1.14582 2.40625,-1.71874 4.125,-1.71875 1.53255,10e-6 2.73925,0.51922 3.62012,1.55762 0.88801,1.03842 1.36067,2.29167 1.41797,3.75977 m -1.97656,-0.58008 c -0.0859,-0.83072 -0.39031,-1.54687 -0.91309,-2.14844 -0.51563,-0.60871 -1.26042,-0.91308 -2.23437,-0.91309 -0.95248,1e-5 -1.73666,0.31512 -2.35254,0.94532 -0.61589,0.63021 -0.95248,1.3392 -1.00977,2.12695 l 6.50977,-0.0107"
         style="font-weight:normal;text-align:start;line-height:125%;writing-mode:lr-tb;text-anchor:start;fill:#000000;font-family:Menlo;-inkscape-font-specification:Menlo"
         id="path4184" />
      <path
         d="m 334.50781,300.9695 0,1.82617 -13.14844,0 0,-1.82617 13.14844,0"
         style="font-weight:normal;text-align:start;line-height:125%;writing-mode:lr-tb;text-anchor:start;fill:#000000;font-family:Menlo;-inkscape-font-specification:Menlo"
         id="path4186" />
      <path
         d="m 335.66797,286.89723 2.05176,0 3.49121,10.09766 3.50195,-10.09766 2.05176,0 -4.27539,12.03125 -2.5459,0 -4.27539,-12.03125"
         style="font-weight:normal;text-align:start;line-height:125%;writing-mode:lr-tb;text-anchor:start;fill:#000000;font-family:Menlo;-inkscape-font-specification:Menlo"
         id="path4188" />
      <path
         d="m 351.83496,297.10231 7.36914,0 0,1.82617 -9.74316,0 0,-1.82617 c 1.33919,-1.4108 2.51008,-2.6569 3.51269,-3.73828 1.0026,-1.08138 1.69368,-1.84407 2.07324,-2.28809 0.71614,-0.87369 1.19954,-1.57909 1.4502,-2.11621 0.25064,-0.54426 0.37597,-1.09927 0.37598,-1.66504 -10e-6,-0.89517 -0.26499,-1.59699 -0.79493,-2.10547 -0.52279,-0.50845 -1.24252,-0.76268 -2.15917,-0.76269 -0.6517,10e-6 -1.33562,0.11818 -2.05176,0.35449 -0.71615,0.23634 -1.47527,0.59442 -2.27735,1.07422 l 0,-2.19141 c 0.73763,-0.35089 1.46094,-0.61587 2.16993,-0.79492 0.71614,-0.17902 1.42154,-0.26854 2.11621,-0.26855 1.56835,10e-6 2.82876,0.41896 3.78125,1.25683 0.95962,0.83075 1.43944,1.92287 1.43945,3.27637 -10e-6,0.68751 -0.16114,1.37501 -0.4834,2.0625 -0.31511,0.68751 -0.83074,1.44662 -1.54687,2.27734 -0.40105,0.46551 -0.98471,1.11004 -1.75098,1.9336 -0.75912,0.82357 -1.91928,2.05534 -3.48047,3.69531"
         style="font-weight:normal;text-align:start;line-height:125%;writing-mode:lr-tb;text-anchor:start;fill:#000000;font-family:Menlo;-inkscape-font-specification:Menlo"
         id="path4190" />
      <path
         d="m 161.71973,316.87868 c -0.42254,-0.32942 -0.85223,-0.56933 -1.28907,-0.71973 -0.43686,-0.15038 -0.91667,-0.22558 -1.43945,-0.22559 -1.23178,1e-5 -2.17351,0.38673 -2.82519,1.16016 -0.6517,0.77345 -0.97755,1.89063 -0.97754,3.35156 l 0,5.9834 -1.98731,0 0,-12.03125 1.98731,0 0,2.35254 c 0.32942,-0.8522 0.8343,-1.50389 1.51464,-1.95508 0.6875,-0.45832 1.50032,-0.68749 2.43848,-0.6875 0.48697,10e-6 0.94172,0.0609 1.36426,0.18262 0.42251,0.12176 0.82714,0.31153 1.21387,0.56934 l 0,2.01953"
         style="font-weight:normal;text-align:start;line-height:125%;writing-mode:lr-tb;text-anchor:start;fill:#000000;font-family:Menlo;-inkscape-font-specification:Menlo"
         id="path4192" />
      <path
         d="m 169.16406,315.78297 c -1.00261,1e-5 -1.76172,0.39031 -2.27734,1.1709 -0.51563,0.78061 -0.77344,1.93718 -0.77344,3.46973 0,1.52539 0.25781,2.68197 0.77344,3.46973 0.51562,0.7806 1.27473,1.1709 2.27734,1.17089 1.00976,1e-5 1.77246,-0.39029 2.28809,-1.17089 0.51561,-0.78776 0.77343,-1.94434 0.77344,-3.46973 -1e-5,-1.53255 -0.25783,-2.68912 -0.77344,-3.46973 -0.51563,-0.78059 -1.27833,-1.17089 -2.28809,-1.1709 m 0,-1.67578 c 1.66861,10e-6 2.94335,0.5407 3.82422,1.62207 0.88801,1.08139 1.33202,2.64617 1.33203,4.69434 -1e-5,2.05534 -0.44044,3.6237 -1.32129,4.70508 -0.88087,1.07422 -2.15918,1.61132 -3.83496,1.61132 -1.66862,0 -2.94336,-0.5371 -3.82422,-1.61132 -0.88086,-1.08138 -1.32129,-2.64974 -1.32129,-4.70508 0,-2.04817 0.44043,-3.61295 1.32129,-4.69434 0.88086,-1.08137 2.1556,-1.62206 3.82422,-1.62207"
         style="font-weight:normal;text-align:start;line-height:125%;writing-mode:lr-tb;text-anchor:start;fill:#000000;font-family:Menlo;-inkscape-font-specification:Menlo"
         id="path4194" />
      <path
         d="m 177.87598,321.87379 0,-7.45507 1.97656,0 0,7.45507 c -1e-5,1.08139 0.18977,1.87631 0.56933,2.38477 0.38672,0.50846 0.98112,0.7627 1.78321,0.76269 0.93098,10e-6 1.64354,-0.32584 2.13769,-0.97753 0.49414,-0.65886 0.74121,-1.60059 0.74121,-2.8252 l 0,-6.7998 1.98731,0 0,12.00976 -1.98731,0 0,-1.80469 c -0.35092,0.69467 -0.83073,1.22103 -1.43945,1.57911 -0.60157,0.35807 -1.30697,0.5371 -2.11621,0.5371 -1.23178,0 -2.14844,-0.40104 -2.75,-1.20312 -0.60156,-0.80924 -0.90235,-2.03027 -0.90234,-3.66309"
         style="font-weight:normal;text-align:start;line-height:125%;writing-mode:lr-tb;text-anchor:start;fill:#000000;font-family:Menlo;-inkscape-font-specification:Menlo"
         id="path4196" />
      <path
         d="m 195.61133,310.98122 0,3.41601 4.49023,0 0,1.53613 -4.49023,0 0,6.53125 c -1e-5,0.88803 0.16829,1.50749 0.50488,1.8584 0.33658,0.35092 0.92382,0.52637 1.76172,0.52637 l 2.22363,0 0,1.5791 -2.41699,0 c -1.48243,0 -2.528,-0.2972 -3.13672,-0.8916 -0.60873,-0.5944 -0.91309,-1.61849 -0.91308,-3.07227 l 0,-6.53125 -3.21192,0 0,-1.53613 3.21192,0 0,-3.41601 1.97656,0"
         style="font-weight:normal;text-align:start;line-height:125%;writing-mode:lr-tb;text-anchor:start;fill:#000000;font-family:Menlo;-inkscape-font-specification:Menlo"
         id="path4198" />
      <path
         d="m 205.64453,314.4402 5.05957,0 0,10.45215 3.9209,0 0,1.53613 -9.81836,0 0,-1.53613 3.9209,0 0,-8.91602 -3.08301,0 0,-1.53613 m 3.08301,-4.67285 1.97656,0 0,2.49219 -1.97656,0 0,-2.49219"
         style="font-weight:normal;text-align:start;line-height:125%;writing-mode:lr-tb;text-anchor:start;fill:#000000;font-family:Menlo;-inkscape-font-specification:Menlo"
         id="path4200" />
      <path
         d="m 226.77441,318.9734 0,7.45508 -1.9873,0 0,-7.45508 c -1e-5,-1.08137 -0.18979,-1.87629 -0.56934,-2.38476 -0.37956,-0.50846 -0.97396,-0.76269 -1.7832,-0.7627 -0.92383,10e-6 -1.6364,0.32944 -2.1377,0.98828 -0.49414,0.65171 -0.74121,1.58986 -0.74121,2.81446 l 0,6.7998 -1.97656,0 0,-12.03125 1.97656,0 0,1.80469 c 0.35091,-0.68749 0.82715,-1.2067 1.42871,-1.55762 0.60156,-0.35806 1.31413,-0.5371 2.1377,-0.53711 1.2246,10e-6 2.13769,0.40464 2.73926,1.21387 0.60871,0.80209 0.91307,2.01954 0.91308,3.65234"
         style="font-weight:normal;text-align:start;line-height:125%;writing-mode:lr-tb;text-anchor:start;fill:#000000;font-family:Menlo;-inkscape-font-specification:Menlo"
         id="path4202" />
      <path
         d="m 237.93555,320.31618 c -1e-5,-1.48242 -0.2435,-2.60677 -0.73047,-3.37305 -0.47983,-0.77343 -1.18165,-1.16015 -2.10547,-1.16016 -0.9668,1e-5 -1.70443,0.38673 -2.21289,1.16016 -0.50847,0.76628 -0.7627,1.89063 -0.7627,3.37305 0,1.48242 0.25423,2.61393 0.7627,3.39453 0.51562,0.77344 1.26041,1.16016 2.23437,1.16015 0.9095,1e-5 1.60416,-0.39029 2.08399,-1.17089 0.48697,-0.7806 0.73046,-1.90853 0.73047,-3.38379 m 1.97656,5.33886 c -1e-5,1.80469 -0.42612,3.17253 -1.27832,4.10352 -0.85222,0.93098 -2.10548,1.39648 -3.75977,1.39648 -0.54427,0 -1.11361,-0.0501 -1.708,-0.15039 -0.59441,-0.10026 -1.18881,-0.24707 -1.78321,-0.44043 l 0,-1.95507 c 0.70182,0.32942 1.33919,0.57291 1.91211,0.73046 0.57291,0.15755 1.09928,0.23633 1.5791,0.23633 1.06705,0 1.84407,-0.29004 2.33106,-0.87011 0.48697,-0.58008 0.73046,-1.50033 0.73047,-2.76075 l 0,-0.0859 0,-1.34278 c -0.31512,0.67318 -0.7448,1.17448 -1.28907,1.50391 -0.54427,0.32943 -1.20671,0.49414 -1.9873,0.49414 -1.40365,0 -2.52442,-0.56217 -3.36231,-1.68652 -0.83789,-1.12435 -1.25683,-2.62826 -1.25683,-4.51172 0,-1.89062 0.41894,-3.39811 1.25683,-4.52246 0.83789,-1.12434 1.95866,-1.68652 3.36231,-1.68653 0.77343,10e-6 1.4287,0.15399 1.96582,0.46192 0.5371,0.30795 0.97395,0.78419 1.31055,1.42871 l 0,-1.55762 1.97656,0 0,11.21484"
         style="font-weight:normal;text-align:start;line-height:125%;writing-mode:lr-tb;text-anchor:start;fill:#000000;font-family:Menlo;-inkscape-font-specification:Menlo"
         id="path4204" />
      <path
         d="m 246.56152,314.40797 3.35157,0 0,3.87793 -3.35157,0 0,-3.87793 m 0,8.11036 3.35157,0 0,3.91015 -3.35157,0 0,-3.91015"
         style="font-weight:normal;text-align:start;line-height:125%;writing-mode:lr-tb;text-anchor:start;fill:#000000;font-family:Menlo;-inkscape-font-specification:Menlo"
         id="path4206" />
      <path
         d="m 187.2002,337.21364 0,1.64355 -2.24512,0 c -0.70899,2e-5 -1.20313,0.14683 -1.48242,0.44043 -0.27215,0.28647 -0.40821,0.79852 -0.40821,1.53613 l 0,1.06348 4.13575,0 0,1.53613 -4.13575,0 0,10.49512 -1.97656,0 0,-10.49512 -3.21191,0 0,-1.53613 3.21191,0 0,-0.83789 c 0,-1.31769 0.30078,-2.28807 0.90234,-2.91113 0.60872,-0.62303 1.55403,-0.93456 2.83594,-0.93457 l 2.37403,0"
         style="font-weight:normal;text-align:start;line-height:125%;writing-mode:lr-tb;text-anchor:start;fill:#000000;font-family:Menlo;-inkscape-font-specification:Menlo"
         id="path4208" />
      <path
         d="m 192.41016,341.9402 5.05957,0 0,10.45215 3.92089,0 0,1.53613 -9.81835,0 0,-1.53613 3.92089,0 0,-8.91602 -3.083,0 0,-1.53613 m 3.083,-4.67285 1.97657,0 0,2.49219 -1.97657,0 0,-2.49219"
         style="font-weight:normal;text-align:start;line-height:125%;writing-mode:lr-tb;text-anchor:start;fill:#000000;font-family:Menlo;-inkscape-font-specification:Menlo"
         id="path4210" />
      <path
         d="m 209.97363,349.5779 c 0,0.88802 0.16113,1.55762 0.4834,2.00878 0.32942,0.45118 0.81282,0.67676 1.4502,0.67676 l 2.30957,0 0,1.66504 -2.50293,0 c -1.18165,0 -2.09832,-0.37597 -2.75,-1.12793 -0.64454,-0.75911 -0.96681,-1.83333 -0.9668,-3.22265 l 0,-10.88184 -3.16895,0 0,-1.54688 5.14551,0 0,12.42872"
         style="font-weight:normal;text-align:start;line-height:125%;writing-mode:lr-tb;text-anchor:start;fill:#000000;font-family:Menlo;-inkscape-font-specification:Menlo"
         id="path4212" />
      <path
         d="m 222.08008,338.48122 0,3.41601 4.49023,0 0,1.53613 -4.49023,0 0,6.53125 c -1e-5,0.88803 0.16829,1.50749 0.50488,1.8584 0.33658,0.35092 0.92382,0.52637 1.76172,0.52637 l 2.22363,0 0,1.5791 -2.41699,0 c -1.48243,0 -2.528,-0.2972 -3.13672,-0.8916 -0.60873,-0.5944 -0.91309,-1.61849 -0.91308,-3.07227 l 0,-6.53125 -3.21192,0 0,-1.53613 3.21192,0 0,-3.41601 1.97656,0"
         style="font-weight:normal;text-align:start;line-height:125%;writing-mode:lr-tb;text-anchor:start;fill:#000000;font-family:Menlo;-inkscape-font-specification:Menlo"
         id="path4214" />
      <path
         d="m 240.75,346.92458 0,0.96679 -8.56152,0 0,0.0645 c -0.0573,1.63997 0.25422,2.81803 0.93457,3.53417 0.68749,0.71615 1.65429,1.07423 2.90039,1.07422 0.6302,1e-5 1.28905,-0.10026 1.97656,-0.30078 0.68749,-0.20052 1.42154,-0.50488 2.20215,-0.91308 l 0,1.96582 c -0.75197,0.30794 -1.47885,0.53711 -2.18067,0.6875 -0.69467,0.15755 -1.36784,0.23632 -2.01953,0.23632 -1.86914,0 -3.33008,-0.55859 -4.38281,-1.67578 -1.05274,-1.12434 -1.5791,-2.67122 -1.5791,-4.64062 0,-1.91926 0.51562,-3.45181 1.54687,-4.59766 1.03125,-1.14582 2.40625,-1.71874 4.125,-1.71875 1.53255,10e-6 2.73925,0.51922 3.62012,1.55762 0.88801,1.03842 1.36067,2.29167 1.41797,3.75977 m -1.97656,-0.58008 c -0.0859,-0.83072 -0.39031,-1.54687 -0.91309,-2.14844 -0.51563,-0.60871 -1.26042,-0.91308 -2.23437,-0.91309 -0.95248,1e-5 -1.73666,0.31512 -2.35254,0.94532 -0.61589,0.63021 -0.95248,1.3392 -1.00977,2.12695 l 6.50977,-0.0107"
         style="font-weight:normal;text-align:start;line-height:125%;writing-mode:lr-tb;text-anchor:start;fill:#000000;font-family:Menlo;-inkscape-font-specification:Menlo"
         id="path4216" />
      <path
         d="m 254.36035,344.37868 c -0.42254,-0.32942 -0.85222,-0.56933 -1.28906,-0.71973 -0.43686,-0.15038 -0.91668,-0.22558 -1.43945,-0.22559 -1.23178,1e-5 -2.17351,0.38673 -2.8252,1.16016 -0.6517,0.77345 -0.97754,1.89063 -0.97754,3.35156 l 0,5.9834 -1.9873,0 0,-12.03125 1.9873,0 0,2.35254 c 0.32942,-0.8522 0.8343,-1.50389 1.51465,-1.95508 0.68749,-0.45832 1.50032,-0.68749 2.43848,-0.6875 0.48697,10e-6 0.94172,0.0609 1.36425,0.18262 0.42252,0.12176 0.82714,0.31153 1.21387,0.56934 l 0,2.01953"
         style="font-weight:normal;text-align:start;line-height:125%;writing-mode:lr-tb;text-anchor:start;fill:#000000;font-family:Menlo;-inkscape-font-specification:Menlo"
         id="path4218" />
      <path
         d="m 265.63965,342.31618 0,1.93359 c -0.56577,-0.32942 -1.1351,-0.57649 -1.70801,-0.74121 -0.57292,-0.1647 -1.15658,-0.24706 -1.75098,-0.24707 -0.89518,1e-5 -1.56478,0.14682 -2.00879,0.44043 -0.43685,0.28647 -0.65527,0.7269 -0.65527,1.32129 0,0.53712 0.16471,0.93816 0.49414,1.20312 0.32942,0.26498 1.14941,0.5228 2.45996,0.77344 l 0.79492,0.15039 c 0.98112,0.18621 1.72233,0.5586 2.22364,1.11719 0.50845,0.5586 0.76268,1.28548 0.76269,2.18066 -1e-5,1.18881 -0.42253,2.1198 -1.26758,2.79297 -0.84506,0.66602 -2.01953,0.99902 -3.52343,0.99902 -0.59441,0 -1.21746,-0.0645 -1.86914,-0.19335 -0.6517,-0.12175 -1.3571,-0.30795 -2.11621,-0.5586 l 0,-2.04101 c 0.73762,0.37956 1.44303,0.66601 2.11621,0.85937 0.67317,0.1862 1.31054,0.2793 1.91211,0.2793 0.87369,0 1.55044,-0.17546 2.03027,-0.52637 0.47981,-0.35807 0.71972,-0.85579 0.71973,-1.49316 -1e-5,-0.91667 -0.87729,-1.55045 -2.63184,-1.90137 l -0.0859,-0.0215 -0.74121,-0.1504 c -1.13867,-0.22199 -1.9694,-0.59439 -2.49219,-1.11718 -0.52278,-0.52994 -0.78418,-1.24967 -0.78418,-2.15918 0,-1.15299 0.3903,-2.04101 1.1709,-2.66407 0.7806,-0.63019 1.8942,-0.9453 3.34082,-0.94531 0.64453,10e-6 1.26399,0.0609 1.8584,0.18262 0.59439,0.1146 1.17805,0.29005 1.75098,0.52637"
         style="font-weight:normal;text-align:start;line-height:125%;writing-mode:lr-tb;text-anchor:start;fill:#000000;font-family:Menlo;-inkscape-font-specification:Menlo"
         id="path4220" />
      <path
         d="m 273.03027,341.90797 3.35157,0 0,3.87793 -3.35157,0 0,-3.87793 m 0,8.11036 3.35157,0 0,3.91015 -3.35157,0 0,-3.91015"
         style="font-weight:normal;text-align:start;line-height:125%;writing-mode:lr-tb;text-anchor:start;fill:#000000;font-family:Menlo;-inkscape-font-specification:Menlo"
         id="path4222" />
      <path
         d="m 190.11133,373.65114 11.38672,0 0,1.81543 -11.38672,0 0,-1.81543"
         style="font-weight:normal;text-align:start;line-height:125%;writing-mode:lr-tb;text-anchor:start;fill:#000000;font-family:Menlo;-inkscape-font-specification:Menlo"
         id="path4224" />
      <path
         d="m 226.88184,380.81618 c -0.52996,0.30794 -1.07781,0.53711 -1.64356,0.6875 -0.5586,0.15755 -1.13152,0.23632 -1.71875,0.23632 -1.86198,0 -3.31934,-0.55859 -4.37207,-1.67578 -1.04557,-1.11718 -1.56836,-2.66405 -1.56836,-4.64062 0,-1.97656 0.52279,-3.52343 1.56836,-4.64063 1.05273,-1.11717 2.51009,-1.67577 4.37207,-1.67578 0.58007,10e-6 1.14583,0.0752 1.69727,0.22559 0.55142,0.1504 1.10643,0.38315 1.66504,0.69824 l 0,2.07324 c -0.5228,-0.46548 -1.04917,-0.80207 -1.57911,-1.00976 -0.52279,-0.20767 -1.11719,-0.31152 -1.7832,-0.31153 -1.23894,1e-5 -2.19141,0.40106 -2.85742,1.20313 -0.66602,0.80209 -0.99903,1.94792 -0.99902,3.4375 -1e-5,1.48243 0.333,2.62826 0.99902,3.4375 0.67317,0.80208 1.62564,1.20313 2.85742,1.20312 0.68749,1e-5 1.30338,-0.10384 1.84766,-0.31152 0.54426,-0.21484 1.04914,-0.54427 1.51465,-0.98828 l 0,2.05176"
         style="font-weight:normal;text-align:start;line-height:125%;writing-mode:lr-tb;text-anchor:start;fill:#000000;font-family:Menlo;-inkscape-font-specification:Menlo"
         id="path4226" />
      <path
         d="m 235.33594,370.78297 c -1.00261,1e-5 -1.76173,0.39031 -2.27735,1.1709 -0.51563,0.78061 -0.77344,1.93718 -0.77343,3.46973 -1e-5,1.52539 0.2578,2.68197 0.77343,3.46973 0.51562,0.7806 1.27474,1.1709 2.27735,1.17089 1.00976,1e-5 1.77245,-0.39029 2.28808,-1.17089 0.51562,-0.78776 0.77343,-1.94434 0.77344,-3.46973 -1e-5,-1.53255 -0.25782,-2.68912 -0.77344,-3.46973 -0.51563,-0.78059 -1.27832,-1.17089 -2.28808,-1.1709 m 0,-1.67578 c 1.66861,10e-6 2.94335,0.5407 3.82422,1.62207 0.88801,1.08139 1.33202,2.64617 1.33203,4.69434 -1e-5,2.05534 -0.44044,3.6237 -1.32129,4.70508 -0.88087,1.07422 -2.15919,1.61132 -3.83496,1.61132 -1.66863,0 -2.94337,-0.5371 -3.82422,-1.61132 -0.88086,-1.08138 -1.32129,-2.64974 -1.32129,-4.70508 0,-2.04817 0.44043,-3.61295 1.32129,-4.69434 0.88085,-1.08137 2.15559,-1.62206 3.82422,-1.62207"
         style="font-weight:normal;text-align:start;line-height:125%;writing-mode:lr-tb;text-anchor:start;fill:#000000;font-family:Menlo;-inkscape-font-specification:Menlo"
         id="path4228" />
      <path
         d="m 253.24316,373.9734 0,7.45508 -1.9873,0 0,-7.45508 c -1e-5,-1.08137 -0.18979,-1.87629 -0.56934,-2.38476 -0.37956,-0.50846 -0.97396,-0.76269 -1.7832,-0.7627 -0.92383,10e-6 -1.6364,0.32944 -2.1377,0.98828 -0.49414,0.65171 -0.74121,1.58986 -0.74121,2.81446 l 0,6.7998 -1.97656,0 0,-12.03125 1.97656,0 0,1.80469 c 0.35091,-0.68749 0.82715,-1.2067 1.42871,-1.55762 0.60156,-0.35806 1.31413,-0.5371 2.1377,-0.53711 1.2246,10e-6 2.13769,0.40464 2.73926,1.21387 0.60871,0.80209 0.91307,2.01954 0.91308,3.65234"
         style="font-weight:normal;text-align:start;line-height:125%;writing-mode:lr-tb;text-anchor:start;fill:#000000;font-family:Menlo;-inkscape-font-specification:Menlo"
         id="path4230" />
      <path
         d="m 264.4043,370.93336 0,-6.21972 1.97656,0 0,16.71484 -1.97656,0 0,-1.51465 c -0.32944,0.59441 -0.76987,1.04916 -1.32129,1.36426 -0.54428,0.30794 -1.17449,0.46191 -1.89063,0.46191 -1.45378,0 -2.59961,-0.56217 -3.4375,-1.68652 -0.83073,-1.13151 -1.24609,-2.68912 -1.24609,-4.67285 0,-1.95507 0.41894,-3.48762 1.25683,-4.59766 0.83789,-1.11717 1.98014,-1.67577 3.42676,-1.67578 0.7233,10e-6 1.36067,0.15757 1.91211,0.47266 0.55143,0.30795 0.98469,0.75912 1.29981,1.35351 m -5.81153,4.49024 c 0,1.53256 0.24349,2.68913 0.73047,3.46973 0.48698,0.7806 1.2067,1.1709 2.15918,1.17089 0.95247,1e-5 1.67578,-0.39387 2.16992,-1.18164 0.5013,-0.78775 0.75195,-1.94075 0.75196,-3.45898 -10e-6,-1.52538 -0.25066,-2.67838 -0.75196,-3.45899 -0.49414,-0.78775 -1.21745,-1.18163 -2.16992,-1.18164 -0.95248,1e-5 -1.6722,0.39031 -2.15918,1.1709 -0.48698,0.78061 -0.73047,1.93718 -0.73047,3.46973"
         style="font-weight:normal;text-align:start;line-height:125%;writing-mode:lr-tb;text-anchor:start;fill:#000000;font-family:Menlo;-inkscape-font-specification:Menlo"
         id="path4232" />
      <path
         d="m 271.81641,369.4402 5.05957,0 0,10.45215 3.92089,0 0,1.53613 -9.81835,0 0,-1.53613 3.92089,0 0,-8.91602 -3.083,0 0,-1.53613 m 3.083,-4.67285 1.97657,0 0,2.49219 -1.97657,0 0,-2.49219"
         style="font-weight:normal;text-align:start;line-height:125%;writing-mode:lr-tb;text-anchor:start;fill:#000000;font-family:Menlo;-inkscape-font-specification:Menlo"
         id="path4234" />
      <path
         d="m 288.25195,365.98122 0,3.41601 4.49024,0 0,1.53613 -4.49024,0 0,6.53125 c 0,0.88803 0.16829,1.50749 0.50489,1.8584 0.33658,0.35092 0.92382,0.52637 1.76171,0.52637 l 2.22364,0 0,1.5791 -2.41699,0 c -1.48243,0 -2.52801,-0.2972 -3.13672,-0.8916 -0.60873,-0.5944 -0.91309,-1.61849 -0.91309,-3.07227 l 0,-6.53125 -3.21191,0 0,-1.53613 3.21191,0 0,-3.41601 1.97656,0"
         style="font-weight:normal;text-align:start;line-height:125%;writing-mode:lr-tb;text-anchor:start;fill:#000000;font-family:Menlo;-inkscape-font-specification:Menlo"
         id="path4236" />
      <path
         d="m 298.28516,369.4402 5.05957,0 0,10.45215 3.92089,0 0,1.53613 -9.81835,0 0,-1.53613 3.92089,0 0,-8.91602 -3.083,0 0,-1.53613 m 3.083,-4.67285 1.97657,0 0,2.49219 -1.97657,0 0,-2.49219"
         style="font-weight:normal;text-align:start;line-height:125%;writing-mode:lr-tb;text-anchor:start;fill:#000000;font-family:Menlo;-inkscape-font-specification:Menlo"
         id="path4238" />
      <path
         d="m 314.74219,370.78297 c -1.00261,1e-5 -1.76173,0.39031 -2.27735,1.1709 -0.51563,0.78061 -0.77344,1.93718 -0.77343,3.46973 -1e-5,1.52539 0.2578,2.68197 0.77343,3.46973 0.51562,0.7806 1.27474,1.1709 2.27735,1.17089 1.00976,1e-5 1.77245,-0.39029 2.28808,-1.17089 0.51562,-0.78776 0.77343,-1.94434 0.77344,-3.46973 -1e-5,-1.53255 -0.25782,-2.68912 -0.77344,-3.46973 -0.51563,-0.78059 -1.27832,-1.17089 -2.28808,-1.1709 m 0,-1.67578 c 1.66861,10e-6 2.94335,0.5407 3.82422,1.62207 0.88801,1.08139 1.33202,2.64617 1.33203,4.69434 -10e-6,2.05534 -0.44044,3.6237 -1.32129,4.70508 -0.88087,1.07422 -2.15919,1.61132 -3.83496,1.61132 -1.66863,0 -2.94337,-0.5371 -3.82422,-1.61132 -0.88086,-1.08138 -1.32129,-2.64974 -1.32129,-4.70508 0,-2.04817 0.44043,-3.61295 1.32129,-4.69434 0.88085,-1.08137 2.15559,-1.62206 3.82422,-1.62207"
         style="font-weight:normal;text-align:start;line-height:125%;writing-mode:lr-tb;text-anchor:start;fill:#000000;font-family:Menlo;-inkscape-font-specification:Menlo"
         id="path4240" />
      <path
         d="m 332.64941,373.9734 0,7.45508 -1.9873,0 0,-7.45508 c -10e-6,-1.08137 -0.18979,-1.87629 -0.56934,-2.38476 -0.37956,-0.50846 -0.97396,-0.76269 -1.7832,-0.7627 -0.92383,10e-6 -1.6364,0.32944 -2.1377,0.98828 -0.49414,0.65171 -0.74121,1.58986 -0.74121,2.81446 l 0,6.7998 -1.97656,0 0,-12.03125 1.97656,0 0,1.80469 c 0.35091,-0.68749 0.82715,-1.2067 1.42871,-1.55762 0.60156,-0.35806 1.31413,-0.5371 2.1377,-0.53711 1.2246,10e-6 2.13769,0.40464 2.73926,1.21387 0.60871,0.80209 0.91307,2.01954 0.91308,3.65234"
         style="font-weight:normal;text-align:start;line-height:125%;writing-mode:lr-tb;text-anchor:start;fill:#000000;font-family:Menlo;-inkscape-font-specification:Menlo"
         id="path4242" />
      <path
         d="m 339.20215,369.40797 3.35156,0 0,3.87793 -3.35156,0 0,-3.87793 m 0,8.11036 3.35156,0 0,3.91015 -3.35156,0 0,-3.91015"
         style="font-weight:normal;text-align:start;line-height:125%;writing-mode:lr-tb;text-anchor:start;fill:#000000;font-family:Menlo;-inkscape-font-specification:Menlo"
         id="path4244" />
      <path
         d="m 362.6416,375.27321 0,-9.88281 2.18067,0 0,10.87109 c -10e-6,0.7806 0.0215,1.3392 0.0645,1.67578 0.043,0.32943 0.11816,0.58366 0.22558,0.7627 0.22917,0.42252 0.55859,0.74121 0.98829,0.95605 0.43684,0.21485 0.96321,0.32227 1.5791,0.32227 0.62304,0 1.1494,-0.10742 1.5791,-0.32227 0.42968,-0.21484 0.76269,-0.53353 0.99902,-0.95605 0.10742,-0.17904 0.18261,-0.43327 0.22559,-0.7627 0.043,-0.32942 0.0644,-0.88085 0.0644,-1.6543 l 0,-10.89257 2.16992,0 0,9.88281 c -10e-6,1.63998 -0.10385,2.80729 -0.31152,3.50195 -0.20053,0.6875 -0.55144,1.25684 -1.05273,1.70801 -0.47267,0.42253 -1.01336,0.73763 -1.62207,0.94531 -0.60874,0.20768 -1.29266,0.31152 -2.05176,0.31152 -0.75196,0 -1.4323,-0.10384 -2.04102,-0.31152 -0.60873,-0.20768 -1.153,-0.52278 -1.63281,-0.94531 -0.49414,-0.44401 -0.84505,-1.01693 -1.05274,-1.71875 -0.20768,-0.70898 -0.31152,-1.87272 -0.31152,-3.49121"
         style="font-weight:normal;text-align:start;line-height:125%;writing-mode:lr-tb;text-anchor:start;fill:#000000;font-family:Menlo;-inkscape-font-specification:Menlo"
         id="path4246" />
      <path
         d="m 384.74902,369.81618 0,1.93359 c -0.56576,-0.32942 -1.1351,-0.57649 -1.708,-0.74121 -0.57293,-0.1647 -1.15659,-0.24706 -1.75098,-0.24707 -0.89519,1e-5 -1.56479,0.14682 -2.00879,0.44043 -0.43685,0.28647 -0.65528,0.7269 -0.65527,1.32129 -1e-5,0.53712 0.16471,0.93816 0.49414,1.20312 0.32942,0.26498 1.14941,0.5228 2.45996,0.77344 l 0.79492,0.15039 c 0.98111,0.18621 1.72232,0.5586 2.22363,1.11719 0.50846,0.5586 0.76269,1.28548 0.7627,2.18066 -1e-5,1.18881 -0.42254,2.1198 -1.26758,2.79297 -0.84506,0.66602 -2.01954,0.99902 -3.52344,0.99902 -0.5944,0 -1.21745,-0.0645 -1.86914,-0.19335 -0.65169,-0.12175 -1.3571,-0.30795 -2.11621,-0.5586 l 0,-2.04101 c 0.73763,0.37956 1.44303,0.66601 2.11621,0.85937 0.67317,0.1862 1.31054,0.2793 1.91211,0.2793 0.87369,0 1.55045,-0.17546 2.03027,-0.52637 0.47981,-0.35807 0.71972,-0.85579 0.71973,-1.49316 -10e-6,-0.91667 -0.87729,-1.55045 -2.63183,-1.90137 l -0.0859,-0.0215 -0.74121,-0.1504 c -1.13868,-0.22199 -1.96941,-0.59439 -2.49219,-1.11718 -0.52279,-0.52994 -0.78418,-1.24967 -0.78418,-2.15918 0,-1.15299 0.3903,-2.04101 1.1709,-2.66407 0.78059,-0.63019 1.8942,-0.9453 3.34082,-0.94531 0.64452,10e-6 1.26399,0.0609 1.8584,0.18262 0.59439,0.1146 1.17805,0.29005 1.75097,0.52637"
         style="font-weight:normal;text-align:start;line-height:125%;writing-mode:lr-tb;text-anchor:start;fill:#000000;font-family:Menlo;-inkscape-font-specification:Menlo"
         id="path4248" />
      <path
         d="m 399.5625,374.42458 0,0.96679 -8.56152,0 0,0.0645 c -0.0573,1.63997 0.25422,2.81803 0.93457,3.53417 0.68749,0.71615 1.65429,1.07423 2.90039,1.07422 0.6302,1e-5 1.28905,-0.10026 1.97656,-0.30078 0.68749,-0.20052 1.42154,-0.50488 2.20215,-0.91308 l 0,1.96582 c -0.75197,0.30794 -1.47885,0.53711 -2.18067,0.6875 -0.69467,0.15755 -1.36784,0.23632 -2.01953,0.23632 -1.86914,0 -3.33008,-0.55859 -4.38281,-1.67578 -1.05274,-1.12434 -1.5791,-2.67122 -1.5791,-4.64062 0,-1.91926 0.51562,-3.45181 1.54687,-4.59766 1.03125,-1.14582 2.40625,-1.71874 4.125,-1.71875 1.53255,10e-6 2.73925,0.51922 3.62012,1.55762 0.88801,1.03842 1.36067,2.29167 1.41797,3.75977 m -1.97656,-0.58008 c -0.0859,-0.83072 -0.39031,-1.54687 -0.91309,-2.14844 -0.51563,-0.60871 -1.26042,-0.91308 -2.23437,-0.91309 -0.95248,1e-5 -1.73666,0.31512 -2.35254,0.94532 -0.61589,0.63021 -0.95248,1.3392 -1.00977,2.12695 l 6.50977,-0.0107"
         style="font-weight:normal;text-align:start;line-height:125%;writing-mode:lr-tb;text-anchor:start;fill:#000000;font-family:Menlo;-inkscape-font-specification:Menlo"
         id="path4250" />
      <path
         d="m 413.17285,371.87868 c -0.42254,-0.32942 -0.85222,-0.56933 -1.28906,-0.71973 -0.43686,-0.15038 -0.91668,-0.22558 -1.43945,-0.22559 -1.23178,1e-5 -2.17351,0.38673 -2.8252,1.16016 -0.6517,0.77345 -0.97754,1.89063 -0.97754,3.35156 l 0,5.9834 -1.9873,0 0,-12.03125 1.9873,0 0,2.35254 c 0.32942,-0.8522 0.8343,-1.50389 1.51465,-1.95508 0.68749,-0.45832 1.50032,-0.68749 2.43848,-0.6875 0.48697,10e-6 0.94172,0.0609 1.36425,0.18262 0.42252,0.12176 0.82714,0.31153 1.21387,0.56934 l 0,2.01953"
         style="font-weight:normal;text-align:start;line-height:125%;writing-mode:lr-tb;text-anchor:start;fill:#000000;font-family:Menlo;-inkscape-font-specification:Menlo"
         id="path4252" />
      <path
         d="m 415.0957,373.65114 11.38672,0 0,1.81543 -11.38672,0 0,-1.81543"
         style="font-weight:normal;text-align:start;line-height:125%;writing-mode:lr-tb;text-anchor:start;fill:#000000;font-family:Menlo;-inkscape-font-specification:Menlo"
         id="path4254" />
      <path
         d="m 433.85156,367.3025 -2.28808,8.20704 4.57617,0 -2.28809,-8.20704 m -1.31054,-1.9121 2.63183,0 4.90918,16.03808 -2.24512,0 -1.18164,-4.17871 -5.61816,0 -1.16016,4.17871 -2.24511,0 4.90918,-16.03808"
         style="font-weight:normal;text-align:start;line-height:125%;writing-mode:lr-tb;text-anchor:start;fill:#000000;font-family:Menlo;-inkscape-font-specification:Menlo"
         id="path4256" />
      <path
         d="m 449.68555,375.31618 c -10e-6,-1.48242 -0.2435,-2.60677 -0.73047,-3.37305 -0.47983,-0.77343 -1.18165,-1.16015 -2.10547,-1.16016 -0.9668,1e-5 -1.70443,0.38673 -2.21289,1.16016 -0.50847,0.76628 -0.7627,1.89063 -0.7627,3.37305 0,1.48242 0.25423,2.61393 0.7627,3.39453 0.51562,0.77344 1.26041,1.16016 2.23437,1.16015 0.9095,1e-5 1.60416,-0.39029 2.08399,-1.17089 0.48697,-0.7806 0.73046,-1.90853 0.73047,-3.38379 m 1.97656,5.33886 c -10e-6,1.80469 -0.42612,3.17253 -1.27832,4.10352 -0.85222,0.93098 -2.10548,1.39648 -3.75977,1.39648 -0.54427,0 -1.11361,-0.0501 -1.708,-0.15039 -0.59441,-0.10026 -1.18881,-0.24707 -1.78321,-0.44043 l 0,-1.95507 c 0.70182,0.32942 1.33919,0.57291 1.91211,0.73046 0.57291,0.15755 1.09928,0.23633 1.5791,0.23633 1.06705,0 1.84407,-0.29004 2.33106,-0.87011 0.48697,-0.58008 0.73046,-1.50033 0.73047,-2.76075 l 0,-0.0859 0,-1.34278 c -0.31512,0.67318 -0.7448,1.17448 -1.28907,1.50391 -0.54427,0.32943 -1.20671,0.49414 -1.9873,0.49414 -1.40365,0 -2.52442,-0.56217 -3.36231,-1.68652 -0.83789,-1.12435 -1.25683,-2.62826 -1.25683,-4.51172 0,-1.89062 0.41894,-3.39811 1.25683,-4.52246 0.83789,-1.12434 1.95866,-1.68652 3.36231,-1.68653 0.77343,10e-6 1.4287,0.15399 1.96582,0.46192 0.5371,0.30795 0.97395,0.78419 1.31055,1.42871 l 0,-1.55762 1.97656,0 0,11.21484"
         style="font-weight:normal;text-align:start;line-height:125%;writing-mode:lr-tb;text-anchor:start;fill:#000000;font-family:Menlo;-inkscape-font-specification:Menlo"
         id="path4258" />
      <path
         d="m 465.73437,374.42458 0,0.96679 -8.56152,0 0,0.0645 c -0.0573,1.63997 0.25423,2.81803 0.93457,3.53417 0.6875,0.71615 1.65429,1.07423 2.90039,1.07422 0.6302,1e-5 1.28906,-0.10026 1.97656,-0.30078 0.6875,-0.20052 1.42154,-0.50488 2.20215,-0.91308 l 0,1.96582 c -0.75196,0.30794 -1.47885,0.53711 -2.18066,0.6875 -0.69467,0.15755 -1.36785,0.23632 -2.01953,0.23632 -1.86915,0 -3.33008,-0.55859 -4.38281,-1.67578 -1.05274,-1.12434 -1.57911,-2.67122 -1.57911,-4.64062 0,-1.91926 0.51563,-3.45181 1.54688,-4.59766 1.03125,-1.14582 2.40624,-1.71874 4.125,-1.71875 1.53254,10e-6 2.73925,0.51922 3.62012,1.55762 0.88801,1.03842 1.36066,2.29167 1.41796,3.75977 m -1.97656,-0.58008 c -0.0859,-0.83072 -0.39031,-1.54687 -0.91308,-2.14844 -0.51564,-0.60871 -1.26043,-0.91308 -2.23438,-0.91309 -0.95248,1e-5 -1.73666,0.31512 -2.35254,0.94532 -0.61589,0.63021 -0.95248,1.3392 -1.00976,2.12695 l 6.50976,-0.0107"
         style="font-weight:normal;text-align:start;line-height:125%;writing-mode:lr-tb;text-anchor:start;fill:#000000;font-family:Menlo;-inkscape-font-specification:Menlo"
         id="path4260" />
      <path
         d="m 478.22754,373.9734 0,7.45508 -1.98731,0 0,-7.45508 c 0,-1.08137 -0.18978,-1.87629 -0.56933,-2.38476 -0.37957,-0.50846 -0.97397,-0.76269 -1.7832,-0.7627 -0.92384,10e-6 -1.6364,0.32944 -2.1377,0.98828 -0.49414,0.65171 -0.74122,1.58986 -0.74121,2.81446 l 0,6.7998 -1.97656,0 0,-12.03125 1.97656,0 0,1.80469 c 0.35091,-0.68749 0.82714,-1.2067 1.42871,-1.55762 0.60156,-0.35806 1.31412,-0.5371 2.1377,-0.53711 1.2246,10e-6 2.13768,0.40464 2.73925,1.21387 0.60872,0.80209 0.91308,2.01954 0.91309,3.65234"
         style="font-weight:normal;text-align:start;line-height:125%;writing-mode:lr-tb;text-anchor:start;fill:#000000;font-family:Menlo;-inkscape-font-specification:Menlo"
         id="path4262" />
      <path
         d="m 486.76758,365.98122 0,3.41601 4.49023,0 0,1.53613 -4.49023,0 0,6.53125 c -1e-5,0.88803 0.16829,1.50749 0.50488,1.8584 0.33658,0.35092 0.92382,0.52637 1.76172,0.52637 l 2.22363,0 0,1.5791 -2.41699,0 c -1.48243,0 -2.528,-0.2972 -3.13672,-0.8916 -0.60873,-0.5944 -0.91309,-1.61849 -0.91308,-3.07227 l 0,-6.53125 -3.21192,0 0,-1.53613 3.21192,0 0,-3.41601 1.97656,0"
         style="font-weight:normal;text-align:start;line-height:125%;writing-mode:lr-tb;text-anchor:start;fill:#000000;font-family:Menlo;-inkscape-font-specification:Menlo"
         id="path4264" />
      <path
         d="m 507.58594,376.05739 11.35449,0 0,1.81543 -11.35449,0 0,-1.81543 m 0,-5.05957 11.35449,0 0,1.81543 -11.35449,0 0,-1.81543"
         style="font-weight:normal;text-align:start;line-height:125%;writing-mode:lr-tb;text-anchor:start;fill:#000000;font-family:Menlo;-inkscape-font-specification:Menlo"
         id="path4266" />
      <path
         d="m 535.26855,365.3904 8.90528,0 0,1.82617 -3.36231,0 0,12.38574 3.36231,0 0,1.82617 -8.90528,0 0,-1.82617 3.36231,0 0,-12.38574 -3.36231,0 0,-1.82617"
         style="font-weight:normal;text-align:start;line-height:125%;writing-mode:lr-tb;text-anchor:start;fill:#000000;font-family:Menlo;-inkscape-font-specification:Menlo"
         id="path4268" />
      <path
         d="m 556.06543,373.42555 c -10e-6,-2.35611 -0.2435,-4.03905 -0.73047,-5.04883 -0.47983,-1.00975 -1.27117,-1.51463 -2.37402,-1.51464 -1.09571,1e-5 -1.88705,0.50489 -2.37403,1.51464 -0.47982,1.00978 -0.71973,2.69272 -0.71972,5.04883 -1e-5,2.34897 0.2399,4.02833 0.71972,5.03809 0.48698,1.00977 1.27832,1.51465 2.37403,1.51465 1.10285,0 1.89419,-0.5013 2.37402,-1.50391 0.48697,-1.00976 0.73046,-2.6927 0.73047,-5.04883 m 2.2666,0 c -10e-6,2.79298 -0.44402,4.87696 -1.33203,6.25195 -0.88087,1.37501 -2.22722,2.0625 -4.03906,2.0625 -1.81186,0 -3.15821,-0.68391 -4.03907,-2.05175 -0.88086,-1.36784 -1.32129,-3.4554 -1.32128,-6.2627 -10e-6,-2.80012 0.44042,-4.88768 1.32128,-6.26269 0.88802,-1.37499 2.23438,-2.06249 4.03907,-2.0625 1.81184,10e-6 3.15819,0.68751 4.03906,2.0625 0.88801,1.37501 1.33202,3.46257 1.33203,6.26269"
         style="font-weight:normal;text-align:start;line-height:125%;writing-mode:lr-tb;text-anchor:start;fill:#000000;font-family:Menlo;-inkscape-font-specification:Menlo"
         id="path4270" />
      <path
         d="m 570.44922,365.93825 0,2.20215 c -0.65887,-0.42252 -1.3213,-0.7412 -1.98731,-0.95606 -0.65886,-0.21483 -1.32487,-0.32225 -1.99804,-0.32226 -1.0241,1e-5 -1.83334,0.23992 -2.42774,0.71972 -0.5944,0.47267 -0.8916,1.11362 -0.8916,1.92285 0,0.709 0.19336,1.24969 0.58008,1.62207 0.39388,0.37241 1.12434,0.68393 2.19141,0.93457 l 1.13867,0.25782 c 1.50389,0.35092 2.5996,0.90235 3.28711,1.65429 0.68749,0.75196 1.03124,1.77605 1.03125,3.07227 -1e-5,1.52539 -0.47267,2.68913 -1.41797,3.49121 -0.94532,0.80208 -2.32032,1.20312 -4.125,1.20312 -0.75196,0 -1.50749,-0.0824 -2.2666,-0.24707 -0.75912,-0.15755 -1.52182,-0.39746 -2.28809,-0.71972 l 0,-2.30957 c 0.82357,0.52279 1.60058,0.90592 2.33106,1.14941 0.73762,0.24349 1.47883,0.36524 2.22363,0.36524 1.09569,0 1.94791,-0.24349 2.55664,-0.73047 0.60871,-0.49414 0.91307,-1.18164 0.91308,-2.0625 -10e-6,-0.80208 -0.21127,-1.41438 -0.63378,-1.83692 -0.41538,-0.42252 -1.14226,-0.74836 -2.18067,-0.97754 l -1.16015,-0.26855 c -1.48959,-0.33658 -2.57097,-0.84504 -3.24415,-1.52539 -0.67317,-0.68033 -1.00976,-1.59341 -1.00976,-2.73926 0,-1.43228 0.47981,-2.57811 1.43945,-3.4375 0.9668,-0.86652 2.24869,-1.29979 3.84571,-1.2998 0.61587,10e-6 1.26398,0.0716 1.94433,0.21484 0.68033,0.13608 1.39648,0.34377 2.14844,0.62305"
         style="font-weight:normal;text-align:start;line-height:125%;writing-mode:lr-tb;text-anchor:start;fill:#000000;font-family:Menlo;-inkscape-font-specification:Menlo"
         id="path4272" />
    </g>
    <path
       style="fill:none;stroke:#000000;stroke-width:5.95984268;stroke-linecap:butt;stroke-linejoin:round;stroke-miterlimit:4;stroke-opacity:0.21698112;stroke-dasharray:5.95984268, 5.95984268;stroke-dashoffset:0;marker-end:none"
       d="m 167.52407,317.80513 c 0,0 70.47148,5.07853 88.77612,-50.73063 18.72986,-57.10564 46.64336,-62.34219 57.48388,-63.28307"
       id="path5690"
       inkscape:connector-curvature="0"
       sodipodi:nodetypes="csc" />
    <path
       sodipodi:type="arc"
       style="fill:#ff4081;fill-opacity:1;fill-rule:nonzero;stroke:none"
       id="path5045-74"
       sodipodi:cx="183.11292"
       sodipodi:cy="358.29056"
       sodipodi:rx="31.094645"
       sodipodi:ry="31.094645"
       d="m 214.20756,358.29056 c 0,17.1731 -13.92155,31.09464 -31.09464,31.09464 -17.1731,0 -31.09465,-13.92154 -31.09465,-31.09464 0,-17.1731 13.92155,-31.09465 31.09465,-31.09465 17.17309,0 31.09464,13.92155 31.09464,31.09465 z"
       transform="translate(161.76581,-157.59381)" />
    <path
       sodipodi:type="arc"
       style="fill:#03a9f4;fill-opacity:1;fill-rule:nonzero;stroke:none"
       id="path5045"
       sodipodi:cx="183.11292"
       sodipodi:cy="358.29056"
       sodipodi:rx="31.094645"
       sodipodi:ry="31.094645"
       d="m 214.20756,358.29056 c 0,17.1731 -13.92155,31.09464 -31.09464,31.09464 -17.1731,0 -31.09465,-13.92154 -31.09465,-31.09464 0,-17.1731 13.92155,-31.09465 31.09465,-31.09465 17.17309,0 31.09464,13.92155 31.09464,31.09465 z"
       transform="translate(161.76581,-38.18213)" />
    <path
       sodipodi:type="arc"
       style="fill:#03a9f4;fill-opacity:1;fill-rule:nonzero;stroke:none"
       id="path5045-7"
       sodipodi:cx="183.11292"
       sodipodi:cy="358.29056"
       sodipodi:rx="31.094645"
       sodipodi:ry="31.094645"
       d="m 214.20756,358.29056 c 0,17.1731 -13.92155,31.09464 -31.09464,31.09464 -17.1731,0 -31.09465,-13.92154 -31.09465,-31.09464 0,-17.1731 13.92155,-31.09465 31.09465,-31.09465 17.17309,0 31.09464,13.92155 31.09464,31.09465 z"
       transform="translate(-15.588842,-38.18213)" />
    <path
       style="fill:#ff4081;fill-opacity:1;stroke:#03a9f4;stroke-width:7.35608959;stroke-linecap:butt;stroke-linejoin:miter;stroke-miterlimit:4;stroke-opacity:1;stroke-dasharray:none"
       d="m 163.04031,320.10843 204.48977,0"
       id="path5675"
       inkscape:connector-curvature="0" />
    <g
       transform="matrix(0.05816608,0,0,0.05816608,152.63356,305.21791)"
       id="5151e0c8492e5103c096af88a528db77-1-9"
       style="fill:#ffffff;fill-opacity:1">
      <path
         inkscape:connector-curvature="0"
         display="inline"
         d="M 337.432,0.5 1.246,48.306 V 418.863 L 169.339,511.5 510.754,462.191 V 94.629 L 337.432,0.5 z m 147.846,114.759 -0.727,-5.867 0.727,0.393 v 5.474 z M 172.571,129.305 56.197,66.224 329.789,27.319 v 16.579 h 15.285 V 33.638 L 456.693,94.262 172.571,129.305 z M 41.798,400.175 26.722,402.36 V 79.225 l 129.879,70.401 V 475.392 L 43.679,413.162 41.798,400.175 z m 437.544,40.81 3.374,-6.255 -22.426,-12.09 -7.254,13.454 12.718,6.856 -283.677,40.97 v -88.626 l 13.183,-1.911 -2.189,-15.126 -10.994,1.592 V 153.8 l 147.712,-18.216 v 10.215 h 15.285 v -12.101 l 140.204,-17.295 v 323.726 l -5.936,0.856 z M 92.224,392.87 l 2.189,15.126 -25.214,3.652 -2.189,-15.126 25.214,-3.652 z m 246.611,-35.729 9.344,5.04 -7.254,13.454 -4.896,-2.643 -14.708,2.13 -2.189,-15.126 19.703,-2.855 z m -193.999,43.551 -25.212,3.652 -2.189,-15.126 25.211,-3.652 2.19,15.126 z m 270.614,-2.234 22.42,12.091 -7.255,13.454 -22.42,-12.091 7.255,-13.454 z m -171.954,-27.505 2.189,15.125 -25.212,3.652 -2.189,-15.126 25.212,-3.651 z m 50.424,-7.305 2.188,15.126 -25.211,3.652 -2.189,-15.126 25.212,-3.652 z m 76.68,10.623 22.425,12.091 -7.254,13.454 -22.426,-12.091 7.255,-13.454 z M 329.789,69.373 h 15.285 V 94.849 H 329.789 V 69.373 z m 15.285,229.278 h -15.285 v -25.476 h 15.285 v 25.476 z m 0,50.952 h -15.285 v -25.476 h 15.285 v 25.476 z m 0,-152.853 h -15.285 v -25.476 h 15.285 v 25.476 z m 0,50.951 h -15.285 v -25.476 h 15.285 v 25.476 z"
         id="path7042-2-9"
         style="fill:#ffffff;fill-opacity:1;display:inline" />
    </g>
    <g
       transform="matrix(0.05816608,0,0,0.05816608,329.98821,185.80623)"
       id="5151e0c8492e5103c096af88a528db77-1-90"
       style="fill:#ffffff;fill-opacity:1">
      <path
         inkscape:connector-curvature="0"
         display="inline"
         d="M 337.432,0.5 1.246,48.306 V 418.863 L 169.339,511.5 510.754,462.191 V 94.629 L 337.432,0.5 z m 147.846,114.759 -0.727,-5.867 0.727,0.393 v 5.474 z M 172.571,129.305 56.197,66.224 329.789,27.319 v 16.579 h 15.285 V 33.638 L 456.693,94.262 172.571,129.305 z M 41.798,400.175 26.722,402.36 V 79.225 l 129.879,70.401 V 475.392 L 43.679,413.162 41.798,400.175 z m 437.544,40.81 3.374,-6.255 -22.426,-12.09 -7.254,13.454 12.718,6.856 -283.677,40.97 v -88.626 l 13.183,-1.911 -2.189,-15.126 -10.994,1.592 V 153.8 l 147.712,-18.216 v 10.215 h 15.285 v -12.101 l 140.204,-17.295 v 323.726 l -5.936,0.856 z M 92.224,392.87 l 2.189,15.126 -25.214,3.652 -2.189,-15.126 25.214,-3.652 z m 246.611,-35.729 9.344,5.04 -7.254,13.454 -4.896,-2.643 -14.708,2.13 -2.189,-15.126 19.703,-2.855 z m -193.999,43.551 -25.212,3.652 -2.189,-15.126 25.211,-3.652 2.19,15.126 z m 270.614,-2.234 22.42,12.091 -7.255,13.454 -22.42,-12.091 7.255,-13.454 z m -171.954,-27.505 2.189,15.125 -25.212,3.652 -2.189,-15.126 25.212,-3.651 z m 50.424,-7.305 2.188,15.126 -25.211,3.652 -2.189,-15.126 25.212,-3.652 z m 76.68,10.623 22.425,12.091 -7.254,13.454 -22.426,-12.091 7.255,-13.454 z M 329.789,69.373 h 15.285 V 94.849 H 329.789 V 69.373 z m 15.285,229.278 h -15.285 v -25.476 h 15.285 v 25.476 z m 0,50.952 h -15.285 v -25.476 h 15.285 v 25.476 z m 0,-152.853 h -15.285 v -25.476 h 15.285 v 25.476 z m 0,50.951 h -15.285 v -25.476 h 15.285 v 25.476 z"
         id="path7042-2-3"
         style="fill:#ffffff;fill-opacity:1;display:inline" />
    </g>
    <g
       id="g7727"
       transform="translate(-104.26616,-81.096613)">
      <path
         inkscape:connector-curvature="0"
         display="inline"
         d="m 451.57802,385.5952 -10.04499,1.42841 v 11.07196 l 5.02249,2.76793 10.20123,-1.47332 V 388.4077 l -5.17873,-2.8125 z m 4.41752,3.42891 -0.0217,-0.1753 0.0217,0.0117 v 0.16356 z m -9.34345,0.41969 -3.47717,-1.88482 8.17473,-1.16245 v 0.49537 h 0.4567 v -0.30656 l 3.33509,1.8114 -8.48935,1.04706 z m -3.9074,8.09339 -0.45046,0.0653 v -9.65504 l 3.88069,2.10353 v 9.73365 l -3.37402,-1.85939 -0.0562,-0.38804 z m 13.07349,1.21937 0.10081,-0.18689 -0.67007,-0.36124 -0.21674,0.40199 0.38,0.20485 -8.47606,1.22416 v -2.64808 l 0.3939,-0.0571 -0.0654,-0.45195 -0.3285,0.0476 v -6.75417 l 4.41353,-0.54428 v 0.30521 h 0.4567 v -0.36156 l 4.18919,-0.51677 v 9.67269 l -0.17736,0.0256 z m -11.5668,-1.43764 0.0654,0.45195 -0.75338,0.10912 -0.0654,-0.45195 0.75337,-0.10912 z m 7.36856,-1.06755 0.27919,0.15059 -0.21675,0.40199 -0.14629,-0.079 -0.43946,0.0636 -0.0654,-0.45195 0.58872,-0.0853 z m -5.79655,1.30127 -0.75331,0.10912 -0.0654,-0.45196 0.75329,-0.10912 0.0654,0.45196 z m 8.08574,-0.0668 0.6699,0.36127 -0.21678,0.40199 -0.66989,-0.36127 0.21677,-0.40199 z m -5.13785,-0.82183 0.0654,0.45192 -0.75331,0.10912 -0.0654,-0.45195 0.75332,-0.10909 z m 1.50663,-0.21827 0.0654,0.45195 -0.75328,0.10912 -0.0654,-0.45195 0.75332,-0.10912 z m 2.29114,0.31741 0.67004,0.36127 -0.21674,0.40199 -0.67007,-0.36127 0.21677,-0.40199 z m -1.2194,-9.11013 h 0.4567 v 0.76121 h -0.4567 v -0.76121 z m 0.4567,6.85066 h -0.4567 v -0.76121 h 0.4567 v 0.76121 z m 0,1.52241 h -0.4567 v -0.76121 h 0.4567 v 0.76121 z m 0,-4.56714 h -0.4567 v -0.7612 h 0.4567 v 0.7612 z m 0,1.52238 h -0.4567 v -0.7612 h 0.4567 v 0.7612 z"
         id="path7042-2-3-1-2"
         style="fill:#ffffff;fill-opacity:1;display:inline" />
      <g
         transform="translate(2,0)"
         id="g7723">
        <path
           style="fill:#ffffff;fill-opacity:1;display:inline"
           id="path7042-2-3-1"
           d="m 439.44432,401.54658 -10.04499,1.42841 v 11.07196 l 5.02249,2.76793 10.20123,-1.47332 v -10.98248 l -5.17873,-2.8125 z m 4.41752,3.42891 -0.0217,-0.1753 0.0217,0.0117 v 0.16356 z m -9.34345,0.41969 -3.47717,-1.88482 8.17473,-1.16245 v 0.49537 h 0.4567 v -0.30656 l 3.33509,1.8114 -8.48935,1.04706 z m -3.9074,8.09339 -0.45046,0.0653 v -9.65504 l 3.88069,2.10353 v 9.73365 l -3.37402,-1.85939 -0.0562,-0.38804 z m 13.07349,1.21937 0.10081,-0.18689 -0.67007,-0.36124 -0.21674,0.40199 0.38,0.20485 -8.47606,1.22416 v -2.64808 l 0.3939,-0.0571 -0.0654,-0.45195 -0.3285,0.0476 v -6.75417 l 4.41353,-0.54428 v 0.30521 h 0.4567 v -0.36156 l 4.18919,-0.51677 v 9.67269 l -0.17736,0.0256 z m -11.5668,-1.43764 0.0654,0.45195 -0.75338,0.10912 -0.0654,-0.45195 0.75337,-0.10912 z m 7.36856,-1.06755 0.27919,0.15059 -0.21675,0.40199 -0.14629,-0.079 -0.43946,0.0636 -0.0654,-0.45195 0.58872,-0.0853 z m -5.79655,1.30127 -0.75331,0.10912 -0.0654,-0.45196 0.75329,-0.10912 0.0654,0.45196 z m 8.08574,-0.0668 0.6699,0.36127 -0.21678,0.40199 -0.66989,-0.36127 0.21677,-0.40199 z m -5.13785,-0.82183 0.0654,0.45192 -0.75331,0.10912 -0.0654,-0.45195 0.75332,-0.10909 z m 1.50663,-0.21827 0.0654,0.45195 -0.75328,0.10912 -0.0654,-0.45195 0.75332,-0.10912 z m 2.29114,0.31741 0.67004,0.36127 -0.21674,0.40199 -0.67007,-0.36127 0.21677,-0.40199 z m -1.2194,-9.11013 h 0.4567 v 0.76121 h -0.4567 v -0.76121 z m 0.4567,6.85066 h -0.4567 v -0.76121 h 0.4567 v 0.76121 z m 0,1.52241 h -0.4567 v -0.76121 h 0.4567 v 0.76121 z m 0,-4.56714 h -0.4567 v -0.7612 h 0.4567 v 0.7612 z m 0,1.52238 h -0.4567 v -0.7612 h 0.4567 v 0.7612 z"
           display="inline"
           inkscape:connector-curvature="0" />
        <path
           style="fill:#ffffff;fill-opacity:1;display:inline"
           id="path7042-2-3-1-0"
           d="m 459.71171,401.54658 -10.04499,1.42841 v 11.07196 l 5.02249,2.76793 10.20123,-1.47332 v -10.98248 l -5.17873,-2.8125 z m 4.41752,3.42891 -0.0217,-0.1753 0.0217,0.0117 v 0.16356 z m -9.34345,0.41969 -3.47717,-1.88482 8.17473,-1.16245 v 0.49537 h 0.4567 v -0.30656 l 3.33509,1.8114 -8.48935,1.04706 z m -3.9074,8.09339 -0.45046,0.0653 v -9.65504 l 3.88069,2.10353 v 9.73365 l -3.37402,-1.85939 -0.0562,-0.38804 z m 13.07349,1.21937 0.10081,-0.18689 -0.67007,-0.36124 -0.21674,0.40199 0.38,0.20485 -8.47606,1.22416 v -2.64808 l 0.3939,-0.0571 -0.0654,-0.45195 -0.3285,0.0476 v -6.75417 l 4.41353,-0.54428 v 0.30521 h 0.4567 v -0.36156 l 4.18919,-0.51677 v 9.67269 l -0.17736,0.0256 z m -11.5668,-1.43764 0.0654,0.45195 -0.75338,0.10912 -0.0654,-0.45195 0.75337,-0.10912 z m 7.36856,-1.06755 0.27919,0.15059 -0.21675,0.40199 -0.14629,-0.079 -0.43946,0.0636 -0.0654,-0.45195 0.58872,-0.0853 z m -5.79655,1.30127 -0.75331,0.10912 -0.0654,-0.45196 0.75329,-0.10912 0.0654,0.45196 z m 8.08574,-0.0668 0.6699,0.36127 -0.21678,0.40199 -0.66989,-0.36127 0.21677,-0.40199 z m -5.13785,-0.82183 0.0654,0.45192 -0.75331,0.10912 -0.0654,-0.45195 0.75332,-0.10909 z m 1.50663,-0.21827 0.0654,0.45195 -0.75328,0.10912 -0.0654,-0.45195 0.75332,-0.10912 z m 2.29114,0.31741 0.67004,0.36127 -0.21674,0.40199 -0.67007,-0.36127 0.21677,-0.40199 z m -1.2194,-9.11013 h 0.4567 v 0.76121 h -0.4567 v -0.76121 z m 0.4567,6.85066 h -0.4567 v -0.76121 h 0.4567 v 0.76121 z m 0,1.52241 h -0.4567 v -0.76121 h 0.4567 v 0.76121 z m 0,-4.56714 h -0.4567 v -0.7612 h 0.4567 v 0.7612 z m 0,1.52238 h -0.4567 v -0.7612 h 0.4567 v 0.7612 z"
           display="inline"
           inkscape:connector-curvature="0" />
      </g>
    </g>
  </g>
</svg>
