<?xml version="1.0" encoding="UTF-8" standalone="no"?>
<!-- Created with Inkscape (http://www.inkscape.org/) -->

<svg
   xmlns:dc="http://purl.org/dc/elements/1.1/"
   xmlns:cc="http://creativecommons.org/ns#"
   xmlns:rdf="http://www.w3.org/1999/02/22-rdf-syntax-ns#"
   xmlns:svg="http://www.w3.org/2000/svg"
   xmlns="http://www.w3.org/2000/svg"
   xmlns:sodipodi="http://sodipodi.sourceforge.net/DTD/sodipodi-0.dtd"
   xmlns:inkscape="http://www.inkscape.org/namespaces/inkscape"
   width="526.71155"
   height="317.29782"
   id="svg3062"
   version="1.1"
   inkscape:version="0.48.5 r10040"
   sodipodi:docname="feat1.svg">
  <defs
     id="defs3064" />
  <sodipodi:namedview
     id="base"
     pagecolor="#ffffff"
     bordercolor="#666666"
     borderopacity="1.0"
     inkscape:pageopacity="0.0"
     inkscape:pageshadow="2"
     inkscape:zoom="0.7"
     inkscape:cx="340.21862"
     inkscape:cy="151.57943"
     inkscape:document-units="px"
     inkscape:current-layer="layer1"
     showgrid="false"
     fit-margin-top="0"
     fit-margin-left="0"
     fit-margin-right="0"
     fit-margin-bottom="0"
     inkscape:window-width="1225"
     inkscape:window-height="679"
     inkscape:window-x="60"
     inkscape:window-y="60"
     inkscape:window-maximized="0"
     showguides="true"
     inkscape:guide-bbox="true">
    <sodipodi:guide
       orientation="1,0"
       position="288.57143,157.14286"
       id="guide3849" />
  </sodipodi:namedview>
  <metadata
     id="metadata3067">
    <rdf:RDF>
      <cc:Work
         rdf:about="">
        <dc:format>image/svg+xml</dc:format>
        <dc:type
           rdf:resource="http://purl.org/dc/dcmitype/StillImage" />
        <dc:title />
      </cc:Work>
    </rdf:RDF>
  </metadata>
  <g
     inkscape:label="Layer 1"
     inkscape:groupmode="layer"
     id="layer1"
     transform="translate(-124.51375,-263.28507)">
    <path
       style="fill:none;stroke:#000000;stroke-width:5.95984268;stroke-linecap:butt;stroke-linejoin:round;stroke-miterlimit:4;stroke-opacity:0.21698112;stroke-dasharray:5.95984268, 5.95984268;stroke-dashoffset:0;marker-end:none"
       d="m 155.60839,420.73703 c 0,0 70.47148,-5.07853 88.77612,50.73063 18.72986,57.10564 46.64336,62.34219 57.48388,63.28307"
       id="path5690-9"
       inkscape:connector-curvature="0"
       sodipodi:nodetypes="csc" />
    <path
       style="fill:none;stroke:#000000;stroke-width:5.95984268;stroke-linecap:butt;stroke-linejoin:round;stroke-miterlimit:4;stroke-opacity:0.21698112;stroke-dasharray:5.95984268, 5.95984268;stroke-dashoffset:0;marker-end:none"
       d="m 155.60839,414.63033 c 0,0 70.47148,5.07853 88.77612,-50.73063 18.72986,-57.10564 46.64336,-62.34219 57.48388,-63.28307"
       id="path5690"
       inkscape:connector-curvature="0"
       sodipodi:nodetypes="csc" />
    <path
       sodipodi:type="arc"
       style="fill:#ff4081;fill-opacity:1;fill-rule:nonzero;stroke:none"
       id="path5045-6"
       sodipodi:cx="183.11292"
       sodipodi:cy="358.29056"
       sodipodi:rx="31.094645"
       sodipodi:ry="31.094645"
       d="m 214.20756,358.29056 c 0,17.1731 -13.92155,31.09464 -31.09464,31.09464 -17.1731,0 -31.09465,-13.92154 -31.09465,-31.09464 0,-17.1731 13.92155,-31.09465 31.09465,-31.09465 17.17309,0 31.09464,13.92155 31.09464,31.09465 z"
       transform="translate(149.85013,186.05472)" />
    <path
       sodipodi:type="arc"
       style="fill:#95a5a6;fill-opacity:1;fill-rule:nonzero;stroke:none"
       id="path5045-74"
       sodipodi:cx="183.11292"
       sodipodi:cy="358.29056"
       sodipodi:rx="31.094645"
       sodipodi:ry="31.094645"
       d="m 214.20756,358.29056 c 0,17.1731 -13.92155,31.09464 -31.09464,31.09464 -17.1731,0 -31.09465,-13.92154 -31.09465,-31.09464 0,-17.1731 13.92155,-31.09465 31.09465,-31.09465 17.17309,0 31.09464,13.92155 31.09464,31.09465 z"
       transform="translate(149.85013,-60.768611)" />
    <path
       sodipodi:type="arc"
       style="fill:#03a9f4;fill-opacity:1;fill-rule:nonzero;stroke:none"
       id="path5045-7"
       sodipodi:cx="183.11292"
       sodipodi:cy="358.29056"
       sodipodi:rx="31.094645"
       sodipodi:ry="31.094645"
       d="m 214.20756,358.29056 c 0,17.1731 -13.92155,31.09464 -31.09464,31.09464 -17.1731,0 -31.09465,-13.92154 -31.09465,-31.09464 0,-17.1731 13.92155,-31.09465 31.09465,-31.09465 17.17309,0 31.09464,13.92155 31.09464,31.09465 z"
       transform="translate(-27.504522,58.643069)" />
    <g
       transform="matrix(0.05816608,0,0,0.05816608,318.07253,529.45476)"
       id="5151e0c8492e5103c096af88a528db77"
       style="fill:#ffffff;fill-opacity:1">
      <path
         inkscape:connector-curvature="0"
         display="inline"
         d="M 337.432,0.5 1.246,48.306 V 418.863 L 169.339,511.5 510.754,462.191 V 94.629 L 337.432,0.5 z m 147.846,114.759 -0.727,-5.867 0.727,0.393 v 5.474 z M 172.571,129.305 56.197,66.224 329.789,27.319 v 16.579 h 15.285 V 33.638 L 456.693,94.262 172.571,129.305 z M 41.798,400.175 26.722,402.36 V 79.225 l 129.879,70.401 V 475.392 L 43.679,413.162 41.798,400.175 z m 437.544,40.81 3.374,-6.255 -22.426,-12.09 -7.254,13.454 12.718,6.856 -283.677,40.97 v -88.626 l 13.183,-1.911 -2.189,-15.126 -10.994,1.592 V 153.8 l 147.712,-18.216 v 10.215 h 15.285 v -12.101 l 140.204,-17.295 v 323.726 l -5.936,0.856 z M 92.224,392.87 l 2.189,15.126 -25.214,3.652 -2.189,-15.126 25.214,-3.652 z m 246.611,-35.729 9.344,5.04 -7.254,13.454 -4.896,-2.643 -14.708,2.13 -2.189,-15.126 19.703,-2.855 z m -193.999,43.551 -25.212,3.652 -2.189,-15.126 25.211,-3.652 2.19,15.126 z m 270.614,-2.234 22.42,12.091 -7.255,13.454 -22.42,-12.091 7.255,-13.454 z m -171.954,-27.505 2.189,15.125 -25.212,3.652 -2.189,-15.126 25.212,-3.651 z m 50.424,-7.305 2.188,15.126 -25.211,3.652 -2.189,-15.126 25.212,-3.652 z m 76.68,10.623 22.425,12.091 -7.254,13.454 -22.426,-12.091 7.255,-13.454 z M 329.789,69.373 h 15.285 V 94.849 H 329.789 V 69.373 z m 15.285,229.278 h -15.285 v -25.476 h 15.285 v 25.476 z m 0,50.952 h -15.285 v -25.476 h 15.285 v 25.476 z m 0,-152.853 h -15.285 v -25.476 h 15.285 v 25.476 z m 0,50.951 h -15.285 v -25.476 h 15.285 v 25.476 z"
         id="path7042"
         style="fill:#ffffff;fill-opacity:1;display:inline" />
    </g>
    <g
       transform="matrix(0.05816608,0,0,0.05816608,140.71788,402.04311)"
       id="5151e0c8492e5103c096af88a528db77-1-9"
       style="fill:#ffffff;fill-opacity:1">
      <path
         inkscape:connector-curvature="0"
         display="inline"
         d="M 337.432,0.5 1.246,48.306 V 418.863 L 169.339,511.5 510.754,462.191 V 94.629 L 337.432,0.5 z m 147.846,114.759 -0.727,-5.867 0.727,0.393 v 5.474 z M 172.571,129.305 56.197,66.224 329.789,27.319 v 16.579 h 15.285 V 33.638 L 456.693,94.262 172.571,129.305 z M 41.798,400.175 26.722,402.36 V 79.225 l 129.879,70.401 V 475.392 L 43.679,413.162 41.798,400.175 z m 437.544,40.81 3.374,-6.255 -22.426,-12.09 -7.254,13.454 12.718,6.856 -283.677,40.97 v -88.626 l 13.183,-1.911 -2.189,-15.126 -10.994,1.592 V 153.8 l 147.712,-18.216 v 10.215 h 15.285 v -12.101 l 140.204,-17.295 v 323.726 l -5.936,0.856 z M 92.224,392.87 l 2.189,15.126 -25.214,3.652 -2.189,-15.126 25.214,-3.652 z m 246.611,-35.729 9.344,5.04 -7.254,13.454 -4.896,-2.643 -14.708,2.13 -2.189,-15.126 19.703,-2.855 z m -193.999,43.551 -25.212,3.652 -2.189,-15.126 25.211,-3.652 2.19,15.126 z m 270.614,-2.234 22.42,12.091 -7.255,13.454 -22.42,-12.091 7.255,-13.454 z m -171.954,-27.505 2.189,15.125 -25.212,3.652 -2.189,-15.126 25.212,-3.651 z m 50.424,-7.305 2.188,15.126 -25.211,3.652 -2.189,-15.126 25.212,-3.652 z m 76.68,10.623 22.425,12.091 -7.254,13.454 -22.426,-12.091 7.255,-13.454 z M 329.789,69.373 h 15.285 V 94.849 H 329.789 V 69.373 z m 15.285,229.278 h -15.285 v -25.476 h 15.285 v 25.476 z m 0,50.952 h -15.285 v -25.476 h 15.285 v 25.476 z m 0,-152.853 h -15.285 v -25.476 h 15.285 v 25.476 z m 0,50.951 h -15.285 v -25.476 h 15.285 v 25.476 z"
         id="path7042-2-9"
         style="fill:#ffffff;fill-opacity:1;display:inline" />
    </g>
    <g
       transform="matrix(0.05816608,0,0,0.05816608,318.07253,282.63143)"
       id="5151e0c8492e5103c096af88a528db77-1-90"
       style="fill:#ffffff;fill-opacity:1">
      <path
         inkscape:connector-curvature="0"
         display="inline"
         d="M 337.432,0.5 1.246,48.306 V 418.863 L 169.339,511.5 510.754,462.191 V 94.629 L 337.432,0.5 z m 147.846,114.759 -0.727,-5.867 0.727,0.393 v 5.474 z M 172.571,129.305 56.197,66.224 329.789,27.319 v 16.579 h 15.285 V 33.638 L 456.693,94.262 172.571,129.305 z M 41.798,400.175 26.722,402.36 V 79.225 l 129.879,70.401 V 475.392 L 43.679,413.162 41.798,400.175 z m 437.544,40.81 3.374,-6.255 -22.426,-12.09 -7.254,13.454 12.718,6.856 -283.677,40.97 v -88.626 l 13.183,-1.911 -2.189,-15.126 -10.994,1.592 V 153.8 l 147.712,-18.216 v 10.215 h 15.285 v -12.101 l 140.204,-17.295 v 323.726 l -5.936,0.856 z M 92.224,392.87 l 2.189,15.126 -25.214,3.652 -2.189,-15.126 25.214,-3.652 z m 246.611,-35.729 9.344,5.04 -7.254,13.454 -4.896,-2.643 -14.708,2.13 -2.189,-15.126 19.703,-2.855 z m -193.999,43.551 -25.212,3.652 -2.189,-15.126 25.211,-3.652 2.19,15.126 z m 270.614,-2.234 22.42,12.091 -7.255,13.454 -22.42,-12.091 7.255,-13.454 z m -171.954,-27.505 2.189,15.125 -25.212,3.652 -2.189,-15.126 25.212,-3.651 z m 50.424,-7.305 2.188,15.126 -25.211,3.652 -2.189,-15.126 25.212,-3.652 z m 76.68,10.623 22.425,12.091 -7.254,13.454 -22.426,-12.091 7.255,-13.454 z M 329.789,69.373 h 15.285 V 94.849 H 329.789 V 69.373 z m 15.285,229.278 h -15.285 v -25.476 h 15.285 v 25.476 z m 0,50.952 h -15.285 v -25.476 h 15.285 v 25.476 z m 0,-152.853 h -15.285 v -25.476 h 15.285 v 25.476 z m 0,50.951 h -15.285 v -25.476 h 15.285 v 25.476 z"
         id="path7042-2-3"
         style="fill:#ffffff;fill-opacity:1;display:inline" />
    </g>
    <flowRoot
       xml:space="preserve"
       id="flowRoot3109"
       style="font-size:22px;font-style:normal;font-variant:normal;font-weight:300;font-stretch:normal;line-height:125%;letter-spacing:0px;word-spacing:0px;fill:#000000;fill-opacity:1;stroke:none;font-family:Lato;-inkscape-font-specification:Lato Light"><flowRegion
         id="flowRegion3111"><rect
           id="rect3113"
           width="241.42857"
           height="100"
           x="141.42857"
           y="260.93362" /></flowRegion><flowPara
         id="flowPara3115" /></flowRoot>    <g
       transform="translate(290.24143,10)"
       style="font-size:22px;font-style:normal;font-variant:normal;font-weight:300;font-stretch:normal;line-height:125%;letter-spacing:0px;word-spacing:0px;fill:#000000;fill-opacity:1;stroke:none;font-family:Lato;-inkscape-font-specification:Lato Light"
       id="flowRoot3133">
      <path
         d="m 134.13379,263.9734 0,7.45508 -1.98731,0 0,-7.45508 c 0,-1.08137 -0.18978,-1.87629 -0.56933,-2.38476 -0.37957,-0.50846 -0.97397,-0.76269 -1.7832,-0.7627 -0.92384,10e-6 -1.6364,0.32944 -2.1377,0.98828 -0.49414,0.65171 -0.74122,1.58986 -0.74121,2.81446 l 0,6.7998 -1.97656,0 0,-12.03125 1.97656,0 0,1.80469 c 0.35091,-0.68749 0.82714,-1.2067 1.42871,-1.55762 0.60156,-0.35806 1.31412,-0.5371 2.1377,-0.53711 1.2246,10e-6 2.13768,0.40464 2.73925,1.21387 0.60872,0.80209 0.91308,2.01954 0.91309,3.65234"
         style="font-weight:normal;text-align:start;line-height:125%;writing-mode:lr-tb;text-anchor:start;fill:#000000;font-family:Menlo;-inkscape-font-specification:Menlo"
         id="path4342" />
      <path
         d="m 143.61914,265.38063 -0.65527,0 c -1.153,1e-5 -2.02312,0.20411 -2.61035,0.6123 -0.58009,0.40105 -0.87012,1.00261 -0.87012,1.80469 0,0.72331 0.21842,1.28549 0.65527,1.68653 0.43685,0.40104 1.04199,0.60156 1.81543,0.60156 1.08854,0 1.94433,-0.37598 2.56738,-1.12793 0.62304,-0.75911 0.93815,-1.80468 0.94532,-3.13672 l 0,-0.44043 -1.84766,0 m 3.83496,-0.81641 0,6.86426 -1.9873,0 0,-1.7832 c -0.42254,0.71615 -0.95607,1.24609 -1.60059,1.58984 -0.63738,0.33659 -1.41439,0.50488 -2.33105,0.50488 -1.22462,0 -2.20216,-0.34374 -2.93262,-1.03125 -0.73047,-0.69466 -1.09571,-1.62206 -1.0957,-2.78222 -1e-5,-1.33919 0.44759,-2.35612 1.34277,-3.05078 0.90234,-0.69466 2.22363,-1.04199 3.96387,-1.042 l 2.65332,0 0,-0.31152 c -0.007,-0.95963 -0.25066,-1.65429 -0.73047,-2.08398 -0.47983,-0.43684 -1.2461,-0.65527 -2.29883,-0.65528 -0.67318,1e-5 -1.35352,0.0967 -2.04102,0.29004 -0.6875,0.19337 -1.35709,0.47625 -2.00878,0.84864 l 0,-1.97657 c 0.73046,-0.27928 1.4287,-0.48696 2.09472,-0.62304 0.67317,-0.14322 1.32487,-0.21484 1.95508,-0.21485 0.99544,10e-6 1.84407,0.14682 2.5459,0.44043 0.70897,0.29363 1.28189,0.73406 1.71875,1.32129 0.27212,0.35808 0.46548,0.80209 0.58008,1.33203 0.11457,0.5228 0.17186,1.31056 0.17187,2.36328"
         style="font-weight:normal;text-align:start;line-height:125%;writing-mode:lr-tb;text-anchor:start;fill:#000000;font-family:Menlo;-inkscape-font-specification:Menlo"
         id="path4344" />
      <path
         d="m 156.57422,260.62184 c 0.24348,-0.51561 0.55142,-0.89517 0.92383,-1.13867 0.37955,-0.25064 0.8343,-0.37597 1.36425,-0.37598 0.96679,10e-6 1.64713,0.37599 2.04102,1.12793 0.40103,0.7448 0.60155,2.15203 0.60156,4.22168 l 0,6.97168 -1.80468,0 0,-6.88574 c -2e-5,-1.69726 -0.0967,-2.74999 -0.29004,-3.1582 -0.18621,-0.41536 -0.52996,-0.62304 -1.03125,-0.62305 -0.57293,1e-5 -0.96681,0.22202 -1.18164,0.66601 -0.20769,0.43686 -0.31154,1.47527 -0.31153,3.11524 l 0,6.88574 -1.80469,0 0,-6.88574 c 0,-1.71874 -0.10384,-2.77864 -0.31152,-3.17969 -0.20052,-0.40103 -0.56576,-0.60155 -1.0957,-0.60156 -0.52279,1e-5 -0.88803,0.22202 -1.09571,0.66601 -0.20052,0.43686 -0.30078,1.47527 -0.30078,3.11524 l 0,6.88574 -1.79394,0 0,-12.03125 1.79394,0 0,1.03125 c 0.23633,-0.42967 0.52995,-0.75552 0.88086,-0.97754 0.35807,-0.22915 0.76269,-0.34374 1.21387,-0.34375 0.54427,10e-6 0.99544,0.12534 1.35352,0.37598 0.36522,0.25066 0.6481,0.63022 0.84863,1.13867"
         style="font-weight:normal;text-align:start;line-height:125%;writing-mode:lr-tb;text-anchor:start;fill:#000000;font-family:Menlo;-inkscape-font-specification:Menlo"
         id="path4346" />
      <path
         d="m 174.57812,264.42458 0,0.96679 -8.56152,0 0,0.0645 c -0.0573,1.63997 0.25423,2.81803 0.93457,3.53417 0.6875,0.71615 1.65429,1.07423 2.90039,1.07422 0.6302,1e-5 1.28906,-0.10026 1.97656,-0.30078 0.6875,-0.20052 1.42154,-0.50488 2.20215,-0.91308 l 0,1.96582 c -0.75196,0.30794 -1.47885,0.53711 -2.18066,0.6875 -0.69467,0.15755 -1.36785,0.23632 -2.01953,0.23632 -1.86915,0 -3.33008,-0.55859 -4.38281,-1.67578 -1.05274,-1.12434 -1.57911,-2.67122 -1.57911,-4.64062 0,-1.91926 0.51563,-3.45181 1.54688,-4.59766 1.03125,-1.14582 2.40624,-1.71874 4.125,-1.71875 1.53254,10e-6 2.73925,0.51922 3.62012,1.55762 0.88801,1.03842 1.36066,2.29167 1.41796,3.75977 m -1.97656,-0.58008 c -0.0859,-0.83072 -0.39031,-1.54687 -0.91308,-2.14844 -0.51564,-0.60871 -1.26043,-0.91308 -2.23438,-0.91309 -0.95248,1e-5 -1.73666,0.31512 -2.35254,0.94532 -0.61589,0.63021 -0.95248,1.3392 -1.00976,2.12695 l 6.50976,-0.0107"
         style="font-weight:normal;text-align:start;line-height:125%;writing-mode:lr-tb;text-anchor:start;fill:#000000;font-family:Menlo;-inkscape-font-specification:Menlo"
         id="path4348" />
      <path
         d="m 180.38965,259.40797 3.35156,0 0,3.87793 -3.35156,0 0,-3.87793 m 0,8.11036 3.35156,0 0,3.91015 -3.35156,0 0,-3.91015"
         style="font-weight:normal;text-align:start;line-height:125%;writing-mode:lr-tb;text-anchor:start;fill:#000000;font-family:Menlo;-inkscape-font-specification:Menlo"
         id="path4350" />
      <path
         d="m 212.70215,259.81618 0,1.93359 c -0.56577,-0.32942 -1.1351,-0.57649 -1.70801,-0.74121 -0.57292,-0.1647 -1.15658,-0.24706 -1.75098,-0.24707 -0.89518,1e-5 -1.56478,0.14682 -2.00879,0.44043 -0.43685,0.28647 -0.65527,0.7269 -0.65527,1.32129 0,0.53712 0.16471,0.93816 0.49414,1.20312 0.32942,0.26498 1.14941,0.5228 2.45996,0.77344 l 0.79492,0.15039 c 0.98112,0.18621 1.72233,0.5586 2.22364,1.11719 0.50845,0.5586 0.76268,1.28548 0.76269,2.18066 -1e-5,1.18881 -0.42253,2.1198 -1.26758,2.79297 -0.84506,0.66602 -2.01953,0.99902 -3.52343,0.99902 -0.59441,0 -1.21746,-0.0645 -1.86914,-0.19335 -0.6517,-0.12175 -1.3571,-0.30795 -2.11621,-0.5586 l 0,-2.04101 c 0.73762,0.37956 1.44303,0.66601 2.11621,0.85937 0.67317,0.1862 1.31054,0.2793 1.91211,0.2793 0.87369,0 1.55044,-0.17546 2.03027,-0.52637 0.47981,-0.35807 0.71972,-0.85579 0.71973,-1.49316 -1e-5,-0.91667 -0.87729,-1.55045 -2.63184,-1.90137 l -0.0859,-0.0215 -0.74121,-0.1504 c -1.13867,-0.22199 -1.9694,-0.59439 -2.49219,-1.11718 -0.52278,-0.52994 -0.78418,-1.24967 -0.78418,-2.15918 0,-1.15299 0.3903,-2.04101 1.1709,-2.66407 0.7806,-0.63019 1.8942,-0.9453 3.34082,-0.94531 0.64453,10e-6 1.26399,0.0609 1.8584,0.18262 0.59439,0.1146 1.17805,0.29005 1.75098,0.52637"
         style="font-weight:normal;text-align:start;line-height:125%;writing-mode:lr-tb;text-anchor:start;fill:#000000;font-family:Menlo;-inkscape-font-specification:Menlo"
         id="path4352" />
      <path
         d="m 227.51562,264.42458 0,0.96679 -8.56152,0 0,0.0645 c -0.0573,1.63997 0.25423,2.81803 0.93457,3.53417 0.6875,0.71615 1.65429,1.07423 2.90039,1.07422 0.6302,1e-5 1.28906,-0.10026 1.97656,-0.30078 0.6875,-0.20052 1.42154,-0.50488 2.20215,-0.91308 l 0,1.96582 c -0.75196,0.30794 -1.47885,0.53711 -2.18066,0.6875 -0.69467,0.15755 -1.36785,0.23632 -2.01953,0.23632 -1.86915,0 -3.33008,-0.55859 -4.38281,-1.67578 -1.05274,-1.12434 -1.57911,-2.67122 -1.57911,-4.64062 0,-1.91926 0.51563,-3.45181 1.54688,-4.59766 1.03125,-1.14582 2.40624,-1.71874 4.125,-1.71875 1.53254,10e-6 2.73925,0.51922 3.62012,1.55762 0.88801,1.03842 1.36066,2.29167 1.41796,3.75977 m -1.97656,-0.58008 c -0.0859,-0.83072 -0.39031,-1.54687 -0.91308,-2.14844 -0.51564,-0.60871 -1.26043,-0.91308 -2.23438,-0.91309 -0.95248,1e-5 -1.73666,0.31512 -2.35254,0.94532 -0.61589,0.63021 -0.95248,1.3392 -1.00976,2.12695 l 6.50976,-0.0107"
         style="font-weight:normal;text-align:start;line-height:125%;writing-mode:lr-tb;text-anchor:start;fill:#000000;font-family:Menlo;-inkscape-font-specification:Menlo"
         id="path4354" />
      <path
         d="m 241.12598,261.87868 c -0.42254,-0.32942 -0.85223,-0.56933 -1.28907,-0.71973 -0.43686,-0.15038 -0.91667,-0.22558 -1.43945,-0.22559 -1.23178,1e-5 -2.17351,0.38673 -2.82519,1.16016 -0.6517,0.77345 -0.97755,1.89063 -0.97754,3.35156 l 0,5.9834 -1.98731,0 0,-12.03125 1.98731,0 0,2.35254 c 0.32942,-0.8522 0.8343,-1.50389 1.51464,-1.95508 0.6875,-0.45832 1.50032,-0.68749 2.43848,-0.6875 0.48697,10e-6 0.94172,0.0609 1.36426,0.18262 0.42251,0.12176 0.82714,0.31153 1.21387,0.56934 l 0,2.01953"
         style="font-weight:normal;text-align:start;line-height:125%;writing-mode:lr-tb;text-anchor:start;fill:#000000;font-family:Menlo;-inkscape-font-specification:Menlo"
         id="path4356" />
      <path
         d="m 243.02734,259.39723 2.05176,0 3.49121,10.09766 3.50196,-10.09766 2.05175,0 -4.27539,12.03125 -2.5459,0 -4.27539,-12.03125"
         style="font-weight:normal;text-align:start;line-height:125%;writing-mode:lr-tb;text-anchor:start;fill:#000000;font-family:Menlo;-inkscape-font-specification:Menlo"
         id="path4358" />
      <path
         d="m 258.58203,259.4402 5.05957,0 0,10.45215 3.9209,0 0,1.53613 -9.81836,0 0,-1.53613 3.9209,0 0,-8.91602 -3.08301,0 0,-1.53613 m 3.08301,-4.67285 1.97656,0 0,2.49219 -1.97656,0 0,-2.49219"
         style="font-weight:normal;text-align:start;line-height:125%;writing-mode:lr-tb;text-anchor:start;fill:#000000;font-family:Menlo;-inkscape-font-specification:Menlo"
         id="path4360" />
      <path
         d="m 279.81934,270.81618 c -0.52996,0.30794 -1.07781,0.53711 -1.64356,0.6875 -0.5586,0.15755 -1.13152,0.23632 -1.71875,0.23632 -1.86198,0 -3.31934,-0.55859 -4.37207,-1.67578 -1.04557,-1.11718 -1.56836,-2.66405 -1.56836,-4.64062 0,-1.97656 0.52279,-3.52343 1.56836,-4.64063 1.05273,-1.11717 2.51009,-1.67577 4.37207,-1.67578 0.58007,10e-6 1.14583,0.0752 1.69727,0.22559 0.55142,0.1504 1.10643,0.38315 1.66504,0.69824 l 0,2.07324 c -0.5228,-0.46548 -1.04917,-0.80207 -1.57911,-1.00976 -0.52279,-0.20767 -1.11719,-0.31152 -1.7832,-0.31153 -1.23894,1e-5 -2.19141,0.40106 -2.85742,1.20313 -0.66602,0.80209 -0.99903,1.94792 -0.99902,3.4375 -1e-5,1.48243 0.333,2.62826 0.99902,3.4375 0.67317,0.80208 1.62564,1.20313 2.85742,1.20312 0.68749,1e-5 1.30338,-0.10384 1.84766,-0.31152 0.54426,-0.21484 1.04914,-0.54427 1.51465,-0.98828 l 0,2.05176"
         style="font-weight:normal;text-align:start;line-height:125%;writing-mode:lr-tb;text-anchor:start;fill:#000000;font-family:Menlo;-inkscape-font-specification:Menlo"
         id="path4362" />
      <path
         d="m 293.6875,264.42458 0,0.96679 -8.56152,0 0,0.0645 c -0.0573,1.63997 0.25422,2.81803 0.93457,3.53417 0.68749,0.71615 1.65429,1.07423 2.90039,1.07422 0.6302,1e-5 1.28905,-0.10026 1.97656,-0.30078 0.68749,-0.20052 1.42154,-0.50488 2.20215,-0.91308 l 0,1.96582 c -0.75197,0.30794 -1.47885,0.53711 -2.18067,0.6875 -0.69467,0.15755 -1.36784,0.23632 -2.01953,0.23632 -1.86914,0 -3.33008,-0.55859 -4.38281,-1.67578 -1.05274,-1.12434 -1.5791,-2.67122 -1.5791,-4.64062 0,-1.91926 0.51562,-3.45181 1.54687,-4.59766 1.03125,-1.14582 2.40625,-1.71874 4.125,-1.71875 1.53255,10e-6 2.73925,0.51922 3.62012,1.55762 0.88801,1.03842 1.36067,2.29167 1.41797,3.75977 m -1.97656,-0.58008 c -0.0859,-0.83072 -0.39031,-1.54687 -0.91309,-2.14844 -0.51563,-0.60871 -1.26042,-0.91308 -2.23437,-0.91309 -0.95248,1e-5 -1.73666,0.31512 -2.35254,0.94532 -0.61589,0.63021 -0.95248,1.3392 -1.00977,2.12695 l 6.50977,-0.0107"
         style="font-weight:normal;text-align:start;line-height:125%;writing-mode:lr-tb;text-anchor:start;fill:#000000;font-family:Menlo;-inkscape-font-specification:Menlo"
         id="path4364" />
      <path
         d="m 308.03906,273.4695 0,1.82617 -13.14844,0 0,-1.82617 13.14844,0"
         style="font-weight:normal;text-align:start;line-height:125%;writing-mode:lr-tb;text-anchor:start;fill:#000000;font-family:Menlo;-inkscape-font-specification:Menlo"
         id="path4366" />
      <path
         d="m 309.19922,259.39723 2.05176,0 3.49121,10.09766 3.50195,-10.09766 2.05176,0 -4.27539,12.03125 -2.5459,0 -4.27539,-12.03125"
         style="font-weight:normal;text-align:start;line-height:125%;writing-mode:lr-tb;text-anchor:start;fill:#000000;font-family:Menlo;-inkscape-font-specification:Menlo"
         id="path4368" />
      <path
         d="m 324.25977,269.61305 3.37304,0 0,-12.11719 -4.03906,1.94434 0,-2.08398 4.01758,-1.91211 2.16992,0 0,14.16894 3.33008,0 0,1.81543 -8.85156,0 0,-1.81543"
         style="font-weight:normal;text-align:start;line-height:125%;writing-mode:lr-tb;text-anchor:start;fill:#000000;font-family:Menlo;-inkscape-font-specification:Menlo"
         id="path4370" />
      <path
         d="m 161.71973,289.37868 c -0.42254,-0.32942 -0.85223,-0.56933 -1.28907,-0.71973 -0.43686,-0.15038 -0.91667,-0.22558 -1.43945,-0.22559 -1.23178,1e-5 -2.17351,0.38673 -2.82519,1.16016 -0.6517,0.77345 -0.97755,1.89063 -0.97754,3.35156 l 0,5.9834 -1.98731,0 0,-12.03125 1.98731,0 0,2.35254 c 0.32942,-0.8522 0.8343,-1.50389 1.51464,-1.95508 0.6875,-0.45832 1.50032,-0.68749 2.43848,-0.6875 0.48697,10e-6 0.94172,0.0609 1.36426,0.18262 0.42251,0.12176 0.82714,0.31153 1.21387,0.56934 l 0,2.01953"
         style="font-weight:normal;text-align:start;line-height:125%;writing-mode:lr-tb;text-anchor:start;fill:#000000;font-family:Menlo;-inkscape-font-specification:Menlo"
         id="path4372" />
      <path
         d="m 169.16406,288.28297 c -1.00261,1e-5 -1.76172,0.39031 -2.27734,1.1709 -0.51563,0.78061 -0.77344,1.93718 -0.77344,3.46973 0,1.52539 0.25781,2.68197 0.77344,3.46973 0.51562,0.7806 1.27473,1.1709 2.27734,1.17089 1.00976,1e-5 1.77246,-0.39029 2.28809,-1.17089 0.51561,-0.78776 0.77343,-1.94434 0.77344,-3.46973 -1e-5,-1.53255 -0.25783,-2.68912 -0.77344,-3.46973 -0.51563,-0.78059 -1.27833,-1.17089 -2.28809,-1.1709 m 0,-1.67578 c 1.66861,10e-6 2.94335,0.5407 3.82422,1.62207 0.88801,1.08139 1.33202,2.64617 1.33203,4.69434 -1e-5,2.05534 -0.44044,3.6237 -1.32129,4.70508 -0.88087,1.07422 -2.15918,1.61132 -3.83496,1.61132 -1.66862,0 -2.94336,-0.5371 -3.82422,-1.61132 -0.88086,-1.08138 -1.32129,-2.64974 -1.32129,-4.70508 0,-2.04817 0.44043,-3.61295 1.32129,-4.69434 0.88086,-1.08137 2.1556,-1.62206 3.82422,-1.62207"
         style="font-weight:normal;text-align:start;line-height:125%;writing-mode:lr-tb;text-anchor:start;fill:#000000;font-family:Menlo;-inkscape-font-specification:Menlo"
         id="path4374" />
      <path
         d="m 177.87598,294.37379 0,-7.45507 1.97656,0 0,7.45507 c -1e-5,1.08139 0.18977,1.87631 0.56933,2.38477 0.38672,0.50846 0.98112,0.7627 1.78321,0.76269 0.93098,10e-6 1.64354,-0.32584 2.13769,-0.97753 0.49414,-0.65886 0.74121,-1.60059 0.74121,-2.8252 l 0,-6.7998 1.98731,0 0,12.00976 -1.98731,0 0,-1.80469 c -0.35092,0.69467 -0.83073,1.22103 -1.43945,1.57911 -0.60157,0.35807 -1.30697,0.5371 -2.11621,0.5371 -1.23178,0 -2.14844,-0.40104 -2.75,-1.20312 -0.60156,-0.80924 -0.90235,-2.03027 -0.90234,-3.66309"
         style="font-weight:normal;text-align:start;line-height:125%;writing-mode:lr-tb;text-anchor:start;fill:#000000;font-family:Menlo;-inkscape-font-specification:Menlo"
         id="path4376" />
      <path
         d="m 195.61133,283.48122 0,3.41601 4.49023,0 0,1.53613 -4.49023,0 0,6.53125 c -1e-5,0.88803 0.16829,1.50749 0.50488,1.8584 0.33658,0.35092 0.92382,0.52637 1.76172,0.52637 l 2.22363,0 0,1.5791 -2.41699,0 c -1.48243,0 -2.528,-0.2972 -3.13672,-0.8916 -0.60873,-0.5944 -0.91309,-1.61849 -0.91308,-3.07227 l 0,-6.53125 -3.21192,0 0,-1.53613 3.21192,0 0,-3.41601 1.97656,0"
         style="font-weight:normal;text-align:start;line-height:125%;writing-mode:lr-tb;text-anchor:start;fill:#000000;font-family:Menlo;-inkscape-font-specification:Menlo"
         id="path4378" />
      <path
         d="m 205.64453,286.9402 5.05957,0 0,10.45215 3.9209,0 0,1.53613 -9.81836,0 0,-1.53613 3.9209,0 0,-8.91602 -3.08301,0 0,-1.53613 m 3.08301,-4.67285 1.97656,0 0,2.49219 -1.97656,0 0,-2.49219"
         style="font-weight:normal;text-align:start;line-height:125%;writing-mode:lr-tb;text-anchor:start;fill:#000000;font-family:Menlo;-inkscape-font-specification:Menlo"
         id="path4380" />
      <path
         d="m 226.77441,291.4734 0,7.45508 -1.9873,0 0,-7.45508 c -1e-5,-1.08137 -0.18979,-1.87629 -0.56934,-2.38476 -0.37956,-0.50846 -0.97396,-0.76269 -1.7832,-0.7627 -0.92383,10e-6 -1.6364,0.32944 -2.1377,0.98828 -0.49414,0.65171 -0.74121,1.58986 -0.74121,2.81446 l 0,6.7998 -1.97656,0 0,-12.03125 1.97656,0 0,1.80469 c 0.35091,-0.68749 0.82715,-1.2067 1.42871,-1.55762 0.60156,-0.35806 1.31413,-0.5371 2.1377,-0.53711 1.2246,10e-6 2.13769,0.40464 2.73926,1.21387 0.60871,0.80209 0.91307,2.01954 0.91308,3.65234"
         style="font-weight:normal;text-align:start;line-height:125%;writing-mode:lr-tb;text-anchor:start;fill:#000000;font-family:Menlo;-inkscape-font-specification:Menlo"
         id="path4382" />
      <path
         d="m 237.93555,292.81618 c -1e-5,-1.48242 -0.2435,-2.60677 -0.73047,-3.37305 -0.47983,-0.77343 -1.18165,-1.16015 -2.10547,-1.16016 -0.9668,1e-5 -1.70443,0.38673 -2.21289,1.16016 -0.50847,0.76628 -0.7627,1.89063 -0.7627,3.37305 0,1.48242 0.25423,2.61393 0.7627,3.39453 0.51562,0.77344 1.26041,1.16016 2.23437,1.16015 0.9095,1e-5 1.60416,-0.39029 2.08399,-1.17089 0.48697,-0.7806 0.73046,-1.90853 0.73047,-3.38379 m 1.97656,5.33886 c -1e-5,1.80469 -0.42612,3.17253 -1.27832,4.10352 -0.85222,0.93098 -2.10548,1.39648 -3.75977,1.39648 -0.54427,0 -1.11361,-0.0501 -1.708,-0.15039 -0.59441,-0.10026 -1.18881,-0.24707 -1.78321,-0.44043 l 0,-1.95507 c 0.70182,0.32942 1.33919,0.57291 1.91211,0.73046 0.57291,0.15755 1.09928,0.23633 1.5791,0.23633 1.06705,0 1.84407,-0.29004 2.33106,-0.87011 0.48697,-0.58008 0.73046,-1.50033 0.73047,-2.76075 l 0,-0.0859 0,-1.34278 c -0.31512,0.67318 -0.7448,1.17448 -1.28907,1.50391 -0.54427,0.32943 -1.20671,0.49414 -1.9873,0.49414 -1.40365,0 -2.52442,-0.56217 -3.36231,-1.68652 -0.83789,-1.12435 -1.25683,-2.62826 -1.25683,-4.51172 0,-1.89062 0.41894,-3.39811 1.25683,-4.52246 0.83789,-1.12434 1.95866,-1.68652 3.36231,-1.68653 0.77343,10e-6 1.4287,0.15399 1.96582,0.46192 0.5371,0.30795 0.97395,0.78419 1.31055,1.42871 l 0,-1.55762 1.97656,0 0,11.21484"
         style="font-weight:normal;text-align:start;line-height:125%;writing-mode:lr-tb;text-anchor:start;fill:#000000;font-family:Menlo;-inkscape-font-specification:Menlo"
         id="path4384" />
      <path
         d="m 246.56152,286.90797 3.35157,0 0,3.87793 -3.35157,0 0,-3.87793 m 0,8.11036 3.35157,0 0,3.91015 -3.35157,0 0,-3.91015"
         style="font-weight:normal;text-align:start;line-height:125%;writing-mode:lr-tb;text-anchor:start;fill:#000000;font-family:Menlo;-inkscape-font-specification:Menlo"
         id="path4386" />
      <path
         d="m 175.78125,314.39723 1.95508,0 2.09472,9.72168 1.71875,-6.20898 1.68653,0 1.74023,6.20898 2.09473,-9.72168 1.95508,0 -2.81446,12.03125 -1.89062,0 -1.92285,-6.5957 -1.91211,6.5957 -1.89063,0 -2.81445,-12.03125"
         style="font-weight:normal;text-align:start;line-height:125%;writing-mode:lr-tb;text-anchor:start;fill:#000000;font-family:Menlo;-inkscape-font-specification:Menlo"
         id="path4388" />
      <path
         d="m 201.04687,319.42458 0,0.96679 -8.56152,0 0,0.0645 c -0.0573,1.63997 0.25423,2.81803 0.93457,3.53417 0.6875,0.71615 1.65429,1.07423 2.90039,1.07422 0.6302,1e-5 1.28906,-0.10026 1.97656,-0.30078 0.6875,-0.20052 1.42154,-0.50488 2.20215,-0.91308 l 0,1.96582 c -0.75196,0.30794 -1.47885,0.53711 -2.18066,0.6875 -0.69467,0.15755 -1.36785,0.23632 -2.01953,0.23632 -1.86915,0 -3.33008,-0.55859 -4.38281,-1.67578 -1.05274,-1.12434 -1.57911,-2.67122 -1.57911,-4.64062 0,-1.91926 0.51563,-3.45181 1.54688,-4.59766 1.03125,-1.14582 2.40624,-1.71874 4.125,-1.71875 1.53254,10e-6 2.73925,0.51922 3.62012,1.55762 0.88801,1.03842 1.36066,2.29167 1.41796,3.75977 m -1.97656,-0.58008 c -0.0859,-0.83072 -0.39031,-1.54687 -0.91308,-2.14844 -0.51564,-0.60871 -1.26043,-0.91308 -2.23438,-0.91309 -0.95248,1e-5 -1.73666,0.31512 -2.35254,0.94532 -0.61589,0.63021 -0.95248,1.3392 -1.00976,2.12695 l 6.50976,-0.0107"
         style="font-weight:normal;text-align:start;line-height:125%;writing-mode:lr-tb;text-anchor:start;fill:#000000;font-family:Menlo;-inkscape-font-specification:Menlo"
         id="path4390" />
      <path
         d="m 205.64453,314.4402 5.05957,0 0,10.45215 3.9209,0 0,1.53613 -9.81836,0 0,-1.53613 3.9209,0 0,-8.91602 -3.08301,0 0,-1.53613 m 3.08301,-4.67285 1.97656,0 0,2.49219 -1.97656,0 0,-2.49219"
         style="font-weight:normal;text-align:start;line-height:125%;writing-mode:lr-tb;text-anchor:start;fill:#000000;font-family:Menlo;-inkscape-font-specification:Menlo"
         id="path4392" />
      <path
         d="m 224.70117,320.31618 c -1e-5,-1.48242 -0.2435,-2.60677 -0.73047,-3.37305 -0.47982,-0.77343 -1.18164,-1.16015 -2.10547,-1.16016 -0.9668,1e-5 -1.70443,0.38673 -2.21289,1.16016 -0.50846,0.76628 -0.76269,1.89063 -0.76269,3.37305 0,1.48242 0.25423,2.61393 0.76269,3.39453 0.51562,0.77344 1.26041,1.16016 2.23438,1.16015 0.9095,1e-5 1.60416,-0.39029 2.08398,-1.17089 0.48697,-0.7806 0.73046,-1.90853 0.73047,-3.38379 m 1.97656,5.33886 c -1e-5,1.80469 -0.42611,3.17253 -1.27832,4.10352 -0.85222,0.93098 -2.10547,1.39648 -3.75976,1.39648 -0.54428,0 -1.11361,-0.0501 -1.70801,-0.15039 -0.5944,-0.10026 -1.1888,-0.24707 -1.7832,-0.44043 l 0,-1.95507 c 0.70182,0.32942 1.33919,0.57291 1.91211,0.73046 0.57291,0.15755 1.09928,0.23633 1.5791,0.23633 1.06705,0 1.84407,-0.29004 2.33105,-0.87011 0.48697,-0.58008 0.73046,-1.50033 0.73047,-2.76075 l 0,-0.0859 0,-1.34278 c -0.31511,0.67318 -0.7448,1.17448 -1.28906,1.50391 -0.54428,0.32943 -1.20671,0.49414 -1.98731,0.49414 -1.40365,0 -2.52441,-0.56217 -3.3623,-1.68652 -0.83789,-1.12435 -1.25684,-2.62826 -1.25684,-4.51172 0,-1.89062 0.41895,-3.39811 1.25684,-4.52246 0.83789,-1.12434 1.95865,-1.68652 3.3623,-1.68653 0.77344,10e-6 1.42871,0.15399 1.96582,0.46192 0.53711,0.30795 0.97395,0.78419 1.31055,1.42871 l 0,-1.55762 1.97656,0 0,11.21484"
         style="font-weight:normal;text-align:start;line-height:125%;writing-mode:lr-tb;text-anchor:start;fill:#000000;font-family:Menlo;-inkscape-font-specification:Menlo"
         id="path4394" />
      <path
         d="m 240.00879,318.9734 0,7.45508 -1.98731,0 0,-7.45508 c 0,-1.08137 -0.18978,-1.87629 -0.56933,-2.38476 -0.37957,-0.50846 -0.97397,-0.76269 -1.7832,-0.7627 -0.92384,10e-6 -1.6364,0.32944 -2.1377,0.98828 -0.49414,0.65171 -0.74122,1.58986 -0.74121,2.81446 l 0,6.7998 -1.97656,0 0,-16.71484 1.97656,0 0,6.48828 c 0.35091,-0.68749 0.82714,-1.2067 1.42871,-1.55762 0.60156,-0.35806 1.31412,-0.5371 2.1377,-0.53711 1.2246,10e-6 2.13768,0.40464 2.73925,1.21387 0.60872,0.80209 0.91308,2.01954 0.91309,3.65234"
         style="font-weight:normal;text-align:start;line-height:125%;writing-mode:lr-tb;text-anchor:start;fill:#000000;font-family:Menlo;-inkscape-font-specification:Menlo"
         id="path4396" />
      <path
         d="m 248.54883,310.98122 0,3.41601 4.49023,0 0,1.53613 -4.49023,0 0,6.53125 c -1e-5,0.88803 0.16829,1.50749 0.50488,1.8584 0.33658,0.35092 0.92382,0.52637 1.76172,0.52637 l 2.22363,0 0,1.5791 -2.41699,0 c -1.48243,0 -2.528,-0.2972 -3.13672,-0.8916 -0.60873,-0.5944 -0.91309,-1.61849 -0.91308,-3.07227 l 0,-6.53125 -3.21192,0 0,-1.53613 3.21192,0 0,-3.41601 1.97656,0"
         style="font-weight:normal;text-align:start;line-height:125%;writing-mode:lr-tb;text-anchor:start;fill:#000000;font-family:Menlo;-inkscape-font-specification:Menlo"
         id="path4398" />
      <path
         d="m 259.7959,314.40797 3.35156,0 0,3.87793 -3.35156,0 0,-3.87793 m 0,8.11036 3.35156,0 0,3.91015 -3.35156,0 0,-3.91015"
         style="font-weight:normal;text-align:start;line-height:125%;writing-mode:lr-tb;text-anchor:start;fill:#000000;font-family:Menlo;-inkscape-font-specification:Menlo"
         id="path4400" />
      <path
         d="m 288.05859,319.31715 c 0.92382,10e-6 1.64713,-0.333 2.16993,-0.99902 0.52993,-0.66601 0.79491,-1.58625 0.79492,-2.76074 -10e-6,-1.17447 -0.26499,-2.09472 -0.79492,-2.76074 -0.5228,-0.66601 -1.24611,-0.99901 -2.16993,-0.99903 -0.95964,2e-5 -1.68294,0.3187 -2.16992,0.95606 -0.48698,0.63022 -0.73047,1.56479 -0.73047,2.80371 0,1.2461 0.23991,2.18425 0.71973,2.81445 0.48697,0.63022 1.21386,0.94532 2.18066,0.94531 m -3.86718,6.77832 0,-1.99804 c 0.45117,0.26497 0.93098,0.46907 1.43945,0.6123 0.50846,0.13607 1.03841,0.2041 1.58984,0.2041 1.375,0 2.41341,-0.51562 3.11524,-1.54687 0.70897,-1.03841 1.06346,-2.5638 1.06347,-4.57617 -0.33659,0.71615 -0.80925,1.26758 -1.41796,1.65429 -0.60874,0.37957 -1.30698,0.56934 -2.09473,0.56934 -1.54688,0 -2.74642,-0.47623 -3.59863,-1.42871 -0.84506,-0.95247 -1.26758,-2.3024 -1.26758,-4.04981 0,-1.7259 0.43326,-3.06151 1.2998,-4.00683 0.8737,-0.95246 2.10547,-1.4287 3.69531,-1.42871 1.86198,10e-6 3.22623,0.66961 4.09278,2.00879 0.86652,1.3392 1.29979,3.44467 1.2998,6.3164 -1e-5,2.69988 -0.52279,4.76237 -1.56836,6.1875 -1.03842,1.41797 -2.54948,2.12695 -4.5332,2.12695 -0.52279,0 -1.04916,-0.0573 -1.5791,-0.17187 -0.52995,-0.10742 -1.042,-0.26497 -1.53613,-0.47266"
         style="font-weight:normal;text-align:start;line-height:125%;writing-mode:lr-tb;text-anchor:start;fill:#000000;font-family:Menlo;-inkscape-font-specification:Menlo"
         id="path4402" />
      <path
         d="m 297.11426,310.3904 8.12109,0 0,1.82617 -6.14453,0 0,3.94238 c 0.30794,-0.11457 0.61588,-0.19693 0.92383,-0.24707 0.3151,-0.0573 0.6302,-0.0859 0.94531,-0.0859 1.66145,10e-6 2.97916,0.49057 3.95313,1.47168 0.97394,0.98113 1.46092,2.30958 1.46093,3.98535 -10e-6,1.69011 -0.51205,3.02214 -1.53613,3.9961 -1.01694,0.97396 -2.40984,1.46093 -4.17871,1.46093 -0.85222,0 -1.63282,-0.0573 -2.3418,-0.17187 -0.70182,-0.11458 -1.33203,-0.28646 -1.89062,-0.51563 l 0,-2.20214 c 0.65885,0.35807 1.32128,0.62663 1.9873,0.80566 0.66601,0.17188 1.34635,0.25781 2.04102,0.25781 1.19595,0 2.1162,-0.3151 2.76074,-0.94531 0.65168,-0.6302 0.97753,-1.52539 0.97754,-2.68555 -10e-6,-1.14582 -0.3366,-2.03742 -1.00977,-2.6748 -0.66602,-0.63736 -1.59701,-0.95605 -2.79297,-0.95606 -0.58008,1e-5 -1.14583,0.0681 -1.69726,0.20411 -0.55144,0.12891 -1.0778,0.32585 -1.5791,0.59082 l 0,-8.05664"
         style="font-weight:normal;text-align:start;line-height:125%;writing-mode:lr-tb;text-anchor:start;fill:#000000;font-family:Menlo;-inkscape-font-specification:Menlo"
         id="path4404" />
    </g>
    <g
       transform="translate(290.24143,246.28498)"
       style="font-size:22px;font-style:normal;font-variant:normal;font-weight:300;font-stretch:normal;line-height:125%;letter-spacing:0px;word-spacing:0px;fill:#000000;fill-opacity:1;stroke:none;font-family:Lato;-inkscape-font-specification:Lato Light"
       id="flowRoot3133-2">
      <path
         d="m 134.13379,263.9734 0,7.45508 -1.98731,0 0,-7.45508 c 0,-1.08137 -0.18978,-1.87629 -0.56933,-2.38476 -0.37957,-0.50846 -0.97397,-0.76269 -1.7832,-0.7627 -0.92384,10e-6 -1.6364,0.32944 -2.1377,0.98828 -0.49414,0.65171 -0.74122,1.58986 -0.74121,2.81446 l 0,6.7998 -1.97656,0 0,-12.03125 1.97656,0 0,1.80469 c 0.35091,-0.68749 0.82714,-1.2067 1.42871,-1.55762 0.60156,-0.35806 1.31412,-0.5371 2.1377,-0.53711 1.2246,10e-6 2.13768,0.40464 2.73925,1.21387 0.60872,0.80209 0.91308,2.01954 0.91309,3.65234"
         style="font-weight:normal;text-align:start;line-height:125%;writing-mode:lr-tb;text-anchor:start;fill:#000000;font-family:Menlo;-inkscape-font-specification:Menlo"
         id="path4279"
         inkscape:connector-curvature="0" />
      <path
         d="m 143.61914,265.38063 -0.65527,0 c -1.153,1e-5 -2.02312,0.20411 -2.61035,0.6123 -0.58009,0.40105 -0.87012,1.00261 -0.87012,1.80469 0,0.72331 0.21842,1.28549 0.65527,1.68653 0.43685,0.40104 1.04199,0.60156 1.81543,0.60156 1.08854,0 1.94433,-0.37598 2.56738,-1.12793 0.62304,-0.75911 0.93815,-1.80468 0.94532,-3.13672 l 0,-0.44043 -1.84766,0 m 3.83496,-0.81641 0,6.86426 -1.9873,0 0,-1.7832 c -0.42254,0.71615 -0.95607,1.24609 -1.60059,1.58984 -0.63738,0.33659 -1.41439,0.50488 -2.33105,0.50488 -1.22462,0 -2.20216,-0.34374 -2.93262,-1.03125 -0.73047,-0.69466 -1.09571,-1.62206 -1.0957,-2.78222 -1e-5,-1.33919 0.44759,-2.35612 1.34277,-3.05078 0.90234,-0.69466 2.22363,-1.04199 3.96387,-1.042 l 2.65332,0 0,-0.31152 c -0.007,-0.95963 -0.25066,-1.65429 -0.73047,-2.08398 -0.47983,-0.43684 -1.2461,-0.65527 -2.29883,-0.65528 -0.67318,1e-5 -1.35352,0.0967 -2.04102,0.29004 -0.6875,0.19337 -1.35709,0.47625 -2.00878,0.84864 l 0,-1.97657 c 0.73046,-0.27928 1.4287,-0.48696 2.09472,-0.62304 0.67317,-0.14322 1.32487,-0.21484 1.95508,-0.21485 0.99544,10e-6 1.84407,0.14682 2.5459,0.44043 0.70897,0.29363 1.28189,0.73406 1.71875,1.32129 0.27212,0.35808 0.46548,0.80209 0.58008,1.33203 0.11457,0.5228 0.17186,1.31056 0.17187,2.36328"
         style="font-weight:normal;text-align:start;line-height:125%;writing-mode:lr-tb;text-anchor:start;fill:#000000;font-family:Menlo;-inkscape-font-specification:Menlo"
         id="path4281"
         inkscape:connector-curvature="0" />
      <path
         d="m 156.57422,260.62184 c 0.24348,-0.51561 0.55142,-0.89517 0.92383,-1.13867 0.37955,-0.25064 0.8343,-0.37597 1.36425,-0.37598 0.96679,10e-6 1.64713,0.37599 2.04102,1.12793 0.40103,0.7448 0.60155,2.15203 0.60156,4.22168 l 0,6.97168 -1.80468,0 0,-6.88574 c -2e-5,-1.69726 -0.0967,-2.74999 -0.29004,-3.1582 -0.18621,-0.41536 -0.52996,-0.62304 -1.03125,-0.62305 -0.57293,1e-5 -0.96681,0.22202 -1.18164,0.66601 -0.20769,0.43686 -0.31154,1.47527 -0.31153,3.11524 l 0,6.88574 -1.80469,0 0,-6.88574 c 0,-1.71874 -0.10384,-2.77864 -0.31152,-3.17969 -0.20052,-0.40103 -0.56576,-0.60155 -1.0957,-0.60156 -0.52279,1e-5 -0.88803,0.22202 -1.09571,0.66601 -0.20052,0.43686 -0.30078,1.47527 -0.30078,3.11524 l 0,6.88574 -1.79394,0 0,-12.03125 1.79394,0 0,1.03125 c 0.23633,-0.42967 0.52995,-0.75552 0.88086,-0.97754 0.35807,-0.22915 0.76269,-0.34374 1.21387,-0.34375 0.54427,10e-6 0.99544,0.12534 1.35352,0.37598 0.36522,0.25066 0.6481,0.63022 0.84863,1.13867"
         style="font-weight:normal;text-align:start;line-height:125%;writing-mode:lr-tb;text-anchor:start;fill:#000000;font-family:Menlo;-inkscape-font-specification:Menlo"
         id="path4283"
         inkscape:connector-curvature="0" />
      <path
         d="m 174.57812,264.42458 0,0.96679 -8.56152,0 0,0.0645 c -0.0573,1.63997 0.25423,2.81803 0.93457,3.53417 0.6875,0.71615 1.65429,1.07423 2.90039,1.07422 0.6302,1e-5 1.28906,-0.10026 1.97656,-0.30078 0.6875,-0.20052 1.42154,-0.50488 2.20215,-0.91308 l 0,1.96582 c -0.75196,0.30794 -1.47885,0.53711 -2.18066,0.6875 -0.69467,0.15755 -1.36785,0.23632 -2.01953,0.23632 -1.86915,0 -3.33008,-0.55859 -4.38281,-1.67578 -1.05274,-1.12434 -1.57911,-2.67122 -1.57911,-4.64062 0,-1.91926 0.51563,-3.45181 1.54688,-4.59766 1.03125,-1.14582 2.40624,-1.71874 4.125,-1.71875 1.53254,10e-6 2.73925,0.51922 3.62012,1.55762 0.88801,1.03842 1.36066,2.29167 1.41796,3.75977 m -1.97656,-0.58008 c -0.0859,-0.83072 -0.39031,-1.54687 -0.91308,-2.14844 -0.51564,-0.60871 -1.26043,-0.91308 -2.23438,-0.91309 -0.95248,1e-5 -1.73666,0.31512 -2.35254,0.94532 -0.61589,0.63021 -0.95248,1.3392 -1.00976,2.12695 l 6.50976,-0.0107"
         style="font-weight:normal;text-align:start;line-height:125%;writing-mode:lr-tb;text-anchor:start;fill:#000000;font-family:Menlo;-inkscape-font-specification:Menlo"
         id="path4285"
         inkscape:connector-curvature="0" />
      <path
         d="m 180.38965,259.40797 3.35156,0 0,3.87793 -3.35156,0 0,-3.87793 m 0,8.11036 3.35156,0 0,3.91015 -3.35156,0 0,-3.91015"
         style="font-weight:normal;text-align:start;line-height:125%;writing-mode:lr-tb;text-anchor:start;fill:#000000;font-family:Menlo;-inkscape-font-specification:Menlo"
         id="path4287"
         inkscape:connector-curvature="0" />
      <path
         d="m 212.70215,259.81618 0,1.93359 c -0.56577,-0.32942 -1.1351,-0.57649 -1.70801,-0.74121 -0.57292,-0.1647 -1.15658,-0.24706 -1.75098,-0.24707 -0.89518,1e-5 -1.56478,0.14682 -2.00879,0.44043 -0.43685,0.28647 -0.65527,0.7269 -0.65527,1.32129 0,0.53712 0.16471,0.93816 0.49414,1.20312 0.32942,0.26498 1.14941,0.5228 2.45996,0.77344 l 0.79492,0.15039 c 0.98112,0.18621 1.72233,0.5586 2.22364,1.11719 0.50845,0.5586 0.76268,1.28548 0.76269,2.18066 -1e-5,1.18881 -0.42253,2.1198 -1.26758,2.79297 -0.84506,0.66602 -2.01953,0.99902 -3.52343,0.99902 -0.59441,0 -1.21746,-0.0645 -1.86914,-0.19335 -0.6517,-0.12175 -1.3571,-0.30795 -2.11621,-0.5586 l 0,-2.04101 c 0.73762,0.37956 1.44303,0.66601 2.11621,0.85937 0.67317,0.1862 1.31054,0.2793 1.91211,0.2793 0.87369,0 1.55044,-0.17546 2.03027,-0.52637 0.47981,-0.35807 0.71972,-0.85579 0.71973,-1.49316 -1e-5,-0.91667 -0.87729,-1.55045 -2.63184,-1.90137 l -0.0859,-0.0215 -0.74121,-0.1504 c -1.13867,-0.22199 -1.9694,-0.59439 -2.49219,-1.11718 -0.52278,-0.52994 -0.78418,-1.24967 -0.78418,-2.15918 0,-1.15299 0.3903,-2.04101 1.1709,-2.66407 0.7806,-0.63019 1.8942,-0.9453 3.34082,-0.94531 0.64453,1e-5 1.26399,0.0609 1.8584,0.18262 0.59439,0.1146 1.17805,0.29005 1.75098,0.52637"
         style="font-weight:normal;text-align:start;line-height:125%;writing-mode:lr-tb;text-anchor:start;fill:#000000;font-family:Menlo;-inkscape-font-specification:Menlo"
         id="path4289"
         inkscape:connector-curvature="0" />
      <path
         d="m 227.51562,264.42458 0,0.96679 -8.56152,0 0,0.0645 c -0.0573,1.63997 0.25423,2.81803 0.93457,3.53417 0.6875,0.71615 1.65429,1.07423 2.90039,1.07422 0.6302,1e-5 1.28906,-0.10026 1.97656,-0.30078 0.6875,-0.20052 1.42154,-0.50488 2.20215,-0.91308 l 0,1.96582 c -0.75196,0.30794 -1.47885,0.53711 -2.18066,0.6875 -0.69467,0.15755 -1.36785,0.23632 -2.01953,0.23632 -1.86915,0 -3.33008,-0.55859 -4.38281,-1.67578 -1.05274,-1.12434 -1.57911,-2.67122 -1.57911,-4.64062 0,-1.91926 0.51563,-3.45181 1.54688,-4.59766 1.03125,-1.14582 2.40624,-1.71874 4.125,-1.71875 1.53254,10e-6 2.73925,0.51922 3.62012,1.55762 0.88801,1.03842 1.36066,2.29167 1.41796,3.75977 m -1.97656,-0.58008 c -0.0859,-0.83072 -0.39031,-1.54687 -0.91308,-2.14844 -0.51564,-0.60871 -1.26043,-0.91308 -2.23438,-0.91309 -0.95248,1e-5 -1.73666,0.31512 -2.35254,0.94532 -0.61589,0.63021 -0.95248,1.3392 -1.00976,2.12695 l 6.50976,-0.0107"
         style="font-weight:normal;text-align:start;line-height:125%;writing-mode:lr-tb;text-anchor:start;fill:#000000;font-family:Menlo;-inkscape-font-specification:Menlo"
         id="path4291"
         inkscape:connector-curvature="0" />
      <path
         d="m 241.12598,261.87868 c -0.42254,-0.32942 -0.85223,-0.56933 -1.28907,-0.71973 -0.43686,-0.15038 -0.91667,-0.22558 -1.43945,-0.22559 -1.23178,1e-5 -2.17351,0.38673 -2.82519,1.16016 -0.6517,0.77345 -0.97755,1.89063 -0.97754,3.35156 l 0,5.9834 -1.98731,0 0,-12.03125 1.98731,0 0,2.35254 c 0.32942,-0.8522 0.8343,-1.50389 1.51464,-1.95508 0.6875,-0.45832 1.50032,-0.68749 2.43848,-0.6875 0.48697,10e-6 0.94172,0.0609 1.36426,0.18262 0.42251,0.12176 0.82714,0.31153 1.21387,0.56934 l 0,2.01953"
         style="font-weight:normal;text-align:start;line-height:125%;writing-mode:lr-tb;text-anchor:start;fill:#000000;font-family:Menlo;-inkscape-font-specification:Menlo"
         id="path4293"
         inkscape:connector-curvature="0" />
      <path
         d="m 243.02734,259.39723 2.05176,0 3.49121,10.09766 3.50196,-10.09766 2.05175,0 -4.27539,12.03125 -2.5459,0 -4.27539,-12.03125"
         style="font-weight:normal;text-align:start;line-height:125%;writing-mode:lr-tb;text-anchor:start;fill:#000000;font-family:Menlo;-inkscape-font-specification:Menlo"
         id="path4295"
         inkscape:connector-curvature="0" />
      <path
         d="m 258.58203,259.4402 5.05957,0 0,10.45215 3.9209,0 0,1.53613 -9.81836,0 0,-1.53613 3.9209,0 0,-8.91602 -3.08301,0 0,-1.53613 m 3.08301,-4.67285 1.97656,0 0,2.49219 -1.97656,0 0,-2.49219"
         style="font-weight:normal;text-align:start;line-height:125%;writing-mode:lr-tb;text-anchor:start;fill:#000000;font-family:Menlo;-inkscape-font-specification:Menlo"
         id="path4297"
         inkscape:connector-curvature="0" />
      <path
         d="m 279.81934,270.81618 c -0.52996,0.30794 -1.07781,0.53711 -1.64356,0.6875 -0.5586,0.15755 -1.13152,0.23632 -1.71875,0.23632 -1.86198,0 -3.31934,-0.55859 -4.37207,-1.67578 -1.04557,-1.11718 -1.56836,-2.66405 -1.56836,-4.64062 0,-1.97656 0.52279,-3.52343 1.56836,-4.64063 1.05273,-1.11717 2.51009,-1.67577 4.37207,-1.67578 0.58007,10e-6 1.14583,0.0752 1.69727,0.22559 0.55142,0.1504 1.10643,0.38315 1.66504,0.69824 l 0,2.07324 c -0.5228,-0.46548 -1.04917,-0.80207 -1.57911,-1.00976 -0.52279,-0.20767 -1.11719,-0.31152 -1.7832,-0.31153 -1.23894,1e-5 -2.19141,0.40106 -2.85742,1.20313 -0.66602,0.80209 -0.99903,1.94792 -0.99902,3.4375 -1e-5,1.48243 0.333,2.62826 0.99902,3.4375 0.67317,0.80208 1.62564,1.20313 2.85742,1.20312 0.68749,1e-5 1.30338,-0.10384 1.84766,-0.31152 0.54426,-0.21484 1.04914,-0.54427 1.51465,-0.98828 l 0,2.05176"
         style="font-weight:normal;text-align:start;line-height:125%;writing-mode:lr-tb;text-anchor:start;fill:#000000;font-family:Menlo;-inkscape-font-specification:Menlo"
         id="path4299"
         inkscape:connector-curvature="0" />
      <path
         d="m 293.6875,264.42458 0,0.96679 -8.56152,0 0,0.0645 c -0.0573,1.63997 0.25422,2.81803 0.93457,3.53417 0.68749,0.71615 1.65429,1.07423 2.90039,1.07422 0.6302,1e-5 1.28905,-0.10026 1.97656,-0.30078 0.68749,-0.20052 1.42154,-0.50488 2.20215,-0.91308 l 0,1.96582 c -0.75197,0.30794 -1.47885,0.53711 -2.18067,0.6875 -0.69467,0.15755 -1.36784,0.23632 -2.01953,0.23632 -1.86914,0 -3.33008,-0.55859 -4.38281,-1.67578 -1.05274,-1.12434 -1.5791,-2.67122 -1.5791,-4.64062 0,-1.91926 0.51562,-3.45181 1.54687,-4.59766 1.03125,-1.14582 2.40625,-1.71874 4.125,-1.71875 1.53255,10e-6 2.73925,0.51922 3.62012,1.55762 0.88801,1.03842 1.36067,2.29167 1.41797,3.75977 m -1.97656,-0.58008 c -0.0859,-0.83072 -0.39031,-1.54687 -0.91309,-2.14844 -0.51563,-0.60871 -1.26042,-0.91308 -2.23437,-0.91309 -0.95248,1e-5 -1.73666,0.31512 -2.35254,0.94532 -0.61589,0.63021 -0.95248,1.3392 -1.00977,2.12695 l 6.50977,-0.0107"
         style="font-weight:normal;text-align:start;line-height:125%;writing-mode:lr-tb;text-anchor:start;fill:#000000;font-family:Menlo;-inkscape-font-specification:Menlo"
         id="path4301"
         inkscape:connector-curvature="0" />
      <path
         d="m 308.03906,273.4695 0,1.82617 -13.14844,0 0,-1.82617 13.14844,0"
         style="font-weight:normal;text-align:start;line-height:125%;writing-mode:lr-tb;text-anchor:start;fill:#000000;font-family:Menlo;-inkscape-font-specification:Menlo"
         id="path4303"
         inkscape:connector-curvature="0" />
      <path
         d="m 309.19922,259.39723 2.05176,0 3.49121,10.09766 3.50195,-10.09766 2.05176,0 -4.27539,12.03125 -2.5459,0 -4.27539,-12.03125"
         style="font-weight:normal;text-align:start;line-height:125%;writing-mode:lr-tb;text-anchor:start;fill:#000000;font-family:Menlo;-inkscape-font-specification:Menlo"
         id="path4305"
         inkscape:connector-curvature="0" />
      <path
         d="m 325.36621,269.60231 7.36914,0 0,1.82617 -9.74316,0 0,-1.82617 c 1.33919,-1.4108 2.51008,-2.6569 3.51269,-3.73828 1.0026,-1.08138 1.69368,-1.84407 2.07324,-2.28809 0.71614,-0.87369 1.19954,-1.57909 1.4502,-2.11621 0.25064,-0.54426 0.37597,-1.09927 0.37598,-1.66504 -10e-6,-0.89517 -0.26499,-1.59699 -0.79493,-2.10547 -0.52279,-0.50845 -1.24252,-0.76268 -2.15917,-0.76269 -0.6517,10e-6 -1.33562,0.11818 -2.05176,0.35449 -0.71615,0.23634 -1.47527,0.59442 -2.27735,1.07422 l 0,-2.19141 c 0.73763,-0.35089 1.46094,-0.61587 2.16993,-0.79492 0.71614,-0.17902 1.42154,-0.26854 2.11621,-0.26855 1.56835,1e-5 2.82876,0.41896 3.78125,1.25683 0.95962,0.83075 1.43944,1.92287 1.43945,3.27637 -10e-6,0.68751 -0.16114,1.37501 -0.4834,2.0625 -0.31511,0.68751 -0.83074,1.44662 -1.54687,2.27734 -0.40105,0.46551 -0.98471,1.11004 -1.75098,1.9336 -0.75912,0.82357 -1.91928,2.05534 -3.48047,3.69531"
         style="font-weight:normal;text-align:start;line-height:125%;writing-mode:lr-tb;text-anchor:start;fill:#000000;font-family:Menlo;-inkscape-font-specification:Menlo"
         id="path4307"
         inkscape:connector-curvature="0" />
      <path
         d="m 161.71973,289.37868 c -0.42254,-0.32942 -0.85223,-0.56933 -1.28907,-0.71973 -0.43686,-0.15038 -0.91667,-0.22558 -1.43945,-0.22559 -1.23178,1e-5 -2.17351,0.38673 -2.82519,1.16016 -0.6517,0.77345 -0.97755,1.89063 -0.97754,3.35156 l 0,5.9834 -1.98731,0 0,-12.03125 1.98731,0 0,2.35254 c 0.32942,-0.8522 0.8343,-1.50389 1.51464,-1.95508 0.6875,-0.45832 1.50032,-0.68749 2.43848,-0.6875 0.48697,10e-6 0.94172,0.0609 1.36426,0.18262 0.42251,0.12176 0.82714,0.31153 1.21387,0.56934 l 0,2.01953"
         style="font-weight:normal;text-align:start;line-height:125%;writing-mode:lr-tb;text-anchor:start;fill:#000000;font-family:Menlo;-inkscape-font-specification:Menlo"
         id="path4309"
         inkscape:connector-curvature="0" />
      <path
         d="m 169.16406,288.28297 c -1.00261,1e-5 -1.76172,0.39031 -2.27734,1.1709 -0.51563,0.78061 -0.77344,1.93718 -0.77344,3.46973 0,1.52539 0.25781,2.68197 0.77344,3.46973 0.51562,0.7806 1.27473,1.1709 2.27734,1.17089 1.00976,1e-5 1.77246,-0.39029 2.28809,-1.17089 0.51561,-0.78776 0.77343,-1.94434 0.77344,-3.46973 -1e-5,-1.53255 -0.25783,-2.68912 -0.77344,-3.46973 -0.51563,-0.78059 -1.27833,-1.17089 -2.28809,-1.1709 m 0,-1.67578 c 1.66861,10e-6 2.94335,0.5407 3.82422,1.62207 0.88801,1.08139 1.33202,2.64617 1.33203,4.69434 -1e-5,2.05534 -0.44044,3.6237 -1.32129,4.70508 -0.88087,1.07422 -2.15918,1.61132 -3.83496,1.61132 -1.66862,0 -2.94336,-0.5371 -3.82422,-1.61132 -0.88086,-1.08138 -1.32129,-2.64974 -1.32129,-4.70508 0,-2.04817 0.44043,-3.61295 1.32129,-4.69434 0.88086,-1.08137 2.1556,-1.62206 3.82422,-1.62207"
         style="font-weight:normal;text-align:start;line-height:125%;writing-mode:lr-tb;text-anchor:start;fill:#000000;font-family:Menlo;-inkscape-font-specification:Menlo"
         id="path4311"
         inkscape:connector-curvature="0" />
      <path
         d="m 177.87598,294.37379 0,-7.45507 1.97656,0 0,7.45507 c -1e-5,1.08139 0.18977,1.87631 0.56933,2.38477 0.38672,0.50846 0.98112,0.7627 1.78321,0.76269 0.93098,10e-6 1.64354,-0.32584 2.13769,-0.97753 0.49414,-0.65886 0.74121,-1.60059 0.74121,-2.8252 l 0,-6.7998 1.98731,0 0,12.00976 -1.98731,0 0,-1.80469 c -0.35092,0.69467 -0.83073,1.22103 -1.43945,1.57911 -0.60157,0.35807 -1.30697,0.5371 -2.11621,0.5371 -1.23178,0 -2.14844,-0.40104 -2.75,-1.20312 -0.60156,-0.80924 -0.90235,-2.03027 -0.90234,-3.66309"
         style="font-weight:normal;text-align:start;line-height:125%;writing-mode:lr-tb;text-anchor:start;fill:#000000;font-family:Menlo;-inkscape-font-specification:Menlo"
         id="path4313"
         inkscape:connector-curvature="0" />
      <path
         d="m 195.61133,283.48122 0,3.41601 4.49023,0 0,1.53613 -4.49023,0 0,6.53125 c -1e-5,0.88803 0.16829,1.50749 0.50488,1.8584 0.33658,0.35092 0.92382,0.52637 1.76172,0.52637 l 2.22363,0 0,1.5791 -2.41699,0 c -1.48243,0 -2.528,-0.2972 -3.13672,-0.8916 -0.60873,-0.5944 -0.91309,-1.61849 -0.91308,-3.07227 l 0,-6.53125 -3.21192,0 0,-1.53613 3.21192,0 0,-3.41601 1.97656,0"
         style="font-weight:normal;text-align:start;line-height:125%;writing-mode:lr-tb;text-anchor:start;fill:#000000;font-family:Menlo;-inkscape-font-specification:Menlo"
         id="path4315"
         inkscape:connector-curvature="0" />
      <path
         d="m 205.64453,286.9402 5.05957,0 0,10.45215 3.9209,0 0,1.53613 -9.81836,0 0,-1.53613 3.9209,0 0,-8.91602 -3.08301,0 0,-1.53613 m 3.08301,-4.67285 1.97656,0 0,2.49219 -1.97656,0 0,-2.49219"
         style="font-weight:normal;text-align:start;line-height:125%;writing-mode:lr-tb;text-anchor:start;fill:#000000;font-family:Menlo;-inkscape-font-specification:Menlo"
         id="path4317"
         inkscape:connector-curvature="0" />
      <path
         d="m 226.77441,291.4734 0,7.45508 -1.9873,0 0,-7.45508 c -1e-5,-1.08137 -0.18979,-1.87629 -0.56934,-2.38476 -0.37956,-0.50846 -0.97396,-0.76269 -1.7832,-0.7627 -0.92383,10e-6 -1.6364,0.32944 -2.1377,0.98828 -0.49414,0.65171 -0.74121,1.58986 -0.74121,2.81446 l 0,6.7998 -1.97656,0 0,-12.03125 1.97656,0 0,1.80469 c 0.35091,-0.68749 0.82715,-1.2067 1.42871,-1.55762 0.60156,-0.35806 1.31413,-0.5371 2.1377,-0.53711 1.2246,10e-6 2.13769,0.40464 2.73926,1.21387 0.60871,0.80209 0.91307,2.01954 0.91308,3.65234"
         style="font-weight:normal;text-align:start;line-height:125%;writing-mode:lr-tb;text-anchor:start;fill:#000000;font-family:Menlo;-inkscape-font-specification:Menlo"
         id="path4319"
         inkscape:connector-curvature="0" />
      <path
         d="m 237.93555,292.81618 c -1e-5,-1.48242 -0.2435,-2.60677 -0.73047,-3.37305 -0.47983,-0.77343 -1.18165,-1.16015 -2.10547,-1.16016 -0.9668,1e-5 -1.70443,0.38673 -2.21289,1.16016 -0.50847,0.76628 -0.7627,1.89063 -0.7627,3.37305 0,1.48242 0.25423,2.61393 0.7627,3.39453 0.51562,0.77344 1.26041,1.16016 2.23437,1.16015 0.9095,1e-5 1.60416,-0.39029 2.08399,-1.17089 0.48697,-0.7806 0.73046,-1.90853 0.73047,-3.38379 m 1.97656,5.33886 c -1e-5,1.80469 -0.42612,3.17253 -1.27832,4.10352 -0.85222,0.93098 -2.10548,1.39648 -3.75977,1.39648 -0.54427,0 -1.11361,-0.0501 -1.708,-0.15039 -0.59441,-0.10026 -1.18881,-0.24707 -1.78321,-0.44043 l 0,-1.95507 c 0.70182,0.32942 1.33919,0.57291 1.91211,0.73046 0.57291,0.15755 1.09928,0.23633 1.5791,0.23633 1.06705,0 1.84407,-0.29004 2.33106,-0.87011 0.48697,-0.58008 0.73046,-1.50033 0.73047,-2.76075 l 0,-0.0859 0,-1.34278 c -0.31512,0.67318 -0.7448,1.17448 -1.28907,1.50391 -0.54427,0.32943 -1.20671,0.49414 -1.9873,0.49414 -1.40365,0 -2.52442,-0.56217 -3.36231,-1.68652 -0.83789,-1.12435 -1.25683,-2.62826 -1.25683,-4.51172 0,-1.89062 0.41894,-3.39811 1.25683,-4.52246 0.83789,-1.12434 1.95866,-1.68652 3.36231,-1.68653 0.77343,1e-5 1.4287,0.15399 1.96582,0.46192 0.5371,0.30795 0.97395,0.78419 1.31055,1.42871 l 0,-1.55762 1.97656,0 0,11.21484"
         style="font-weight:normal;text-align:start;line-height:125%;writing-mode:lr-tb;text-anchor:start;fill:#000000;font-family:Menlo;-inkscape-font-specification:Menlo"
         id="path4321"
         inkscape:connector-curvature="0" />
      <path
         d="m 246.56152,286.90797 3.35157,0 0,3.87793 -3.35157,0 0,-3.87793 m 0,8.11036 3.35157,0 0,3.91015 -3.35157,0 0,-3.91015"
         style="font-weight:normal;text-align:start;line-height:125%;writing-mode:lr-tb;text-anchor:start;fill:#000000;font-family:Menlo;-inkscape-font-specification:Menlo"
         id="path4323"
         inkscape:connector-curvature="0" />
      <path
         d="m 175.78125,314.39723 1.95508,0 2.09472,9.72168 1.71875,-6.20898 1.68653,0 1.74023,6.20898 2.09473,-9.72168 1.95508,0 -2.81446,12.03125 -1.89062,0 -1.92285,-6.5957 -1.91211,6.5957 -1.89063,0 -2.81445,-12.03125"
         style="font-weight:normal;text-align:start;line-height:125%;writing-mode:lr-tb;text-anchor:start;fill:#000000;font-family:Menlo;-inkscape-font-specification:Menlo"
         id="path4325"
         inkscape:connector-curvature="0" />
      <path
         d="m 201.04687,319.42458 0,0.96679 -8.56152,0 0,0.0645 c -0.0573,1.63997 0.25423,2.81803 0.93457,3.53417 0.6875,0.71615 1.65429,1.07423 2.90039,1.07422 0.6302,1e-5 1.28906,-0.10026 1.97656,-0.30078 0.6875,-0.20052 1.42154,-0.50488 2.20215,-0.91308 l 0,1.96582 c -0.75196,0.30794 -1.47885,0.53711 -2.18066,0.6875 -0.69467,0.15755 -1.36785,0.23632 -2.01953,0.23632 -1.86915,0 -3.33008,-0.55859 -4.38281,-1.67578 -1.05274,-1.12434 -1.57911,-2.67122 -1.57911,-4.64062 0,-1.91926 0.51563,-3.45181 1.54688,-4.59766 1.03125,-1.14582 2.40624,-1.71874 4.125,-1.71875 1.53254,10e-6 2.73925,0.51922 3.62012,1.55762 0.88801,1.03842 1.36066,2.29167 1.41796,3.75977 m -1.97656,-0.58008 c -0.0859,-0.83072 -0.39031,-1.54687 -0.91308,-2.14844 -0.51564,-0.60871 -1.26043,-0.91308 -2.23438,-0.91309 -0.95248,1e-5 -1.73666,0.31512 -2.35254,0.94532 -0.61589,0.63021 -0.95248,1.3392 -1.00976,2.12695 l 6.50976,-0.0107"
         style="font-weight:normal;text-align:start;line-height:125%;writing-mode:lr-tb;text-anchor:start;fill:#000000;font-family:Menlo;-inkscape-font-specification:Menlo"
         id="path4327"
         inkscape:connector-curvature="0" />
      <path
         d="m 205.64453,314.4402 5.05957,0 0,10.45215 3.9209,0 0,1.53613 -9.81836,0 0,-1.53613 3.9209,0 0,-8.91602 -3.08301,0 0,-1.53613 m 3.08301,-4.67285 1.97656,0 0,2.49219 -1.97656,0 0,-2.49219"
         style="font-weight:normal;text-align:start;line-height:125%;writing-mode:lr-tb;text-anchor:start;fill:#000000;font-family:Menlo;-inkscape-font-specification:Menlo"
         id="path4329"
         inkscape:connector-curvature="0" />
      <path
         d="m 224.70117,320.31618 c -1e-5,-1.48242 -0.2435,-2.60677 -0.73047,-3.37305 -0.47982,-0.77343 -1.18164,-1.16015 -2.10547,-1.16016 -0.9668,1e-5 -1.70443,0.38673 -2.21289,1.16016 -0.50846,0.76628 -0.76269,1.89063 -0.76269,3.37305 0,1.48242 0.25423,2.61393 0.76269,3.39453 0.51562,0.77344 1.26041,1.16016 2.23438,1.16015 0.9095,1e-5 1.60416,-0.39029 2.08398,-1.17089 0.48697,-0.7806 0.73046,-1.90853 0.73047,-3.38379 m 1.97656,5.33886 c -1e-5,1.80469 -0.42611,3.17253 -1.27832,4.10352 -0.85222,0.93098 -2.10547,1.39648 -3.75976,1.39648 -0.54428,0 -1.11361,-0.0501 -1.70801,-0.15039 -0.5944,-0.10026 -1.1888,-0.24707 -1.7832,-0.44043 l 0,-1.95507 c 0.70182,0.32942 1.33919,0.57291 1.91211,0.73046 0.57291,0.15755 1.09928,0.23633 1.5791,0.23633 1.06705,0 1.84407,-0.29004 2.33105,-0.87011 0.48697,-0.58008 0.73046,-1.50033 0.73047,-2.76075 l 0,-0.0859 0,-1.34278 c -0.31511,0.67318 -0.7448,1.17448 -1.28906,1.50391 -0.54428,0.32943 -1.20671,0.49414 -1.98731,0.49414 -1.40365,0 -2.52441,-0.56217 -3.3623,-1.68652 -0.83789,-1.12435 -1.25684,-2.62826 -1.25684,-4.51172 0,-1.89062 0.41895,-3.39811 1.25684,-4.52246 0.83789,-1.12434 1.95865,-1.68652 3.3623,-1.68653 0.77344,1e-5 1.42871,0.15399 1.96582,0.46192 0.53711,0.30795 0.97395,0.78419 1.31055,1.42871 l 0,-1.55762 1.97656,0 0,11.21484"
         style="font-weight:normal;text-align:start;line-height:125%;writing-mode:lr-tb;text-anchor:start;fill:#000000;font-family:Menlo;-inkscape-font-specification:Menlo"
         id="path4331"
         inkscape:connector-curvature="0" />
      <path
         d="m 240.00879,318.9734 0,7.45508 -1.98731,0 0,-7.45508 c 0,-1.08137 -0.18978,-1.87629 -0.56933,-2.38476 -0.37957,-0.50846 -0.97397,-0.76269 -1.7832,-0.7627 -0.92384,10e-6 -1.6364,0.32944 -2.1377,0.98828 -0.49414,0.65171 -0.74122,1.58986 -0.74121,2.81446 l 0,6.7998 -1.97656,0 0,-16.71484 1.97656,0 0,6.48828 c 0.35091,-0.68749 0.82714,-1.2067 1.42871,-1.55762 0.60156,-0.35806 1.31412,-0.5371 2.1377,-0.53711 1.2246,10e-6 2.13768,0.40464 2.73925,1.21387 0.60872,0.80209 0.91308,2.01954 0.91309,3.65234"
         style="font-weight:normal;text-align:start;line-height:125%;writing-mode:lr-tb;text-anchor:start;fill:#000000;font-family:Menlo;-inkscape-font-specification:Menlo"
         id="path4333"
         inkscape:connector-curvature="0" />
      <path
         d="m 248.54883,310.98122 0,3.41601 4.49023,0 0,1.53613 -4.49023,0 0,6.53125 c -1e-5,0.88803 0.16829,1.50749 0.50488,1.8584 0.33658,0.35092 0.92382,0.52637 1.76172,0.52637 l 2.22363,0 0,1.5791 -2.41699,0 c -1.48243,0 -2.528,-0.2972 -3.13672,-0.8916 -0.60873,-0.5944 -0.91309,-1.61849 -0.91308,-3.07227 l 0,-6.53125 -3.21192,0 0,-1.53613 3.21192,0 0,-3.41601 1.97656,0"
         style="font-weight:normal;text-align:start;line-height:125%;writing-mode:lr-tb;text-anchor:start;fill:#000000;font-family:Menlo;-inkscape-font-specification:Menlo"
         id="path4335"
         inkscape:connector-curvature="0" />
      <path
         d="m 259.7959,314.40797 3.35156,0 0,3.87793 -3.35156,0 0,-3.87793 m 0,8.11036 3.35156,0 0,3.91015 -3.35156,0 0,-3.91015"
         style="font-weight:normal;text-align:start;line-height:125%;writing-mode:lr-tb;text-anchor:start;fill:#000000;font-family:Menlo;-inkscape-font-specification:Menlo"
         id="path4337"
         inkscape:connector-curvature="0" />
      <path
         d="m 283.87988,310.3904 8.1211,0 0,1.82617 -6.14453,0 0,3.94238 c 0.30793,-0.11457 0.61588,-0.19693 0.92382,-0.24707 0.3151,-0.0573 0.63021,-0.0859 0.94532,-0.0859 1.66145,10e-6 2.97915,0.49057 3.95312,1.47168 0.97395,0.98113 1.46093,2.30958 1.46094,3.98535 -1e-5,1.69011 -0.51206,3.02214 -1.53613,3.9961 -1.01694,0.97396 -2.40984,1.46093 -4.17872,1.46093 -0.85221,0 -1.63281,-0.0573 -2.34179,-0.17187 -0.70183,-0.11458 -1.33204,-0.28646 -1.89063,-0.51563 l 0,-2.20214 c 0.65885,0.35807 1.32129,0.62663 1.98731,0.80566 0.66601,0.17188 1.34635,0.25781 2.04101,0.25781 1.19596,0 2.11621,-0.3151 2.76075,-0.94531 0.65168,-0.6302 0.97753,-1.52539 0.97753,-2.68555 0,-1.14582 -0.33659,-2.03742 -1.00976,-2.6748 -0.66602,-0.63736 -1.59701,-0.95605 -2.79297,-0.95606 -0.58008,10e-6 -1.14584,0.0681 -1.69727,0.20411 -0.55143,0.12891 -1.0778,0.32585 -1.5791,0.59082 l 0,-8.05664"
         style="font-weight:normal;text-align:start;line-height:125%;writing-mode:lr-tb;text-anchor:start;fill:#000000;font-family:Menlo;-inkscape-font-specification:Menlo"
         id="path4339"
         inkscape:connector-curvature="0" />
    </g>
  </g>
</svg>
