<?xml version="1.0" encoding="UTF-8" standalone="no"?>
<svg width="46px" height="30px" viewBox="0 0 46 30" version="1.1" xmlns="http://www.w3.org/2000/svg" xmlns:xlink="http://www.w3.org/1999/xlink" xmlns:sketch="http://www.bohemiancoding.com/sketch/ns">
    <!-- Generator: Sketch 3.3.2 (12043) - http://www.bohemiancoding.com/sketch -->
    <title>logo-docker</title>
    <desc>Created with Sketch.</desc>
    <defs></defs>
    <g id="Page-1" stroke="none" stroke-width="1" fill="none" fill-rule="evenodd" sketch:type="MSPage">
        <g id="logo-docker" sketch:type="MSLayerGroup" transform="translate(1.000000, 1.000000)">
            <g id="Group" sketch:type="MSShapeGroup">
                <g>
                    <g id="Shape">
                        <path d="M22.795,8.83 L27.24,8.83 L27.24,13.343 L29.488,13.343 C30.526,13.343 31.593,13.159 32.578,12.828 C33.06,12.665 33.601,12.438 34.078,12.155 C33.45,11.341 33.13,10.313 33.036,9.301 C32.908,7.924 33.186,6.131 34.126,5.053 L34.593,4.516 L35.15,4.961 C36.552,6.081 37.73,7.641 37.938,9.424 C39.628,8.932 41.608,9.048 43.098,9.901 L43.708,10.251 L43.385,10.873 C42.127,13.313 39.497,14.068 36.925,13.933 C33.075,23.453 24.697,27.961 14.538,27.961 C9.288,27.961 4.474,26.011 1.732,21.389 L1.687,21.312 L1.287,20.506 C0.361,18.47 0.053,16.24 0.262,14.012 L0.324,13.345 L4.126,13.345 L4.126,8.83 L8.571,8.83 L8.571,4.414 L17.461,4.414 L17.461,0 L22.796,0 L22.796,8.83" stroke="#FFFFFF" fill="#FFFFFF"></path>
                        <path d="M37.197,10.5 C37.495,8.198 35.761,6.39 34.687,5.534 C33.447,6.956 33.254,10.684 35.197,12.254 C34.113,13.211 31.827,14.078 29.487,14.078 L1,14.078 C0.772,16.504 1.2,18.738 2.18,20.651 L2.504,21.241 C2.71,21.587 2.934,21.921 3.176,22.241 C4.348,22.316 5.426,22.341 6.416,22.321 C8.356,22.278 9.941,22.051 11.142,21.637 C11.322,21.575 11.515,21.67 11.577,21.847 C11.639,22.024 11.544,22.217 11.367,22.279 C11.207,22.334 11.04,22.385 10.867,22.435 C9.922,22.703 8.907,22.883 7.6,22.963 C7.475,22.978 7.42,22.985 7.374,22.985 C6.859,23.015 6.304,23.022 5.736,23.022 C5.114,23.022 4.502,23.012 3.818,22.976 C6.176,25.636 9.887,27.226 14.539,27.226 C24.385,27.226 32.737,22.892 36.434,13.159 C39.058,13.427 41.58,12.763 42.727,10.539 C40.9,9.492 38.55,9.826 37.197,10.501 L22,21" fill="#3498DB"></path>
                        <path d="M4.866,9.565 L8.719,9.565 L8.719,13.391 L4.865,13.391 L4.865,9.566 L4.866,9.565 L4.866,9.565 Z" fill="#3498DB"></path>
                        <path d="M9.31,5.15 L13.164,5.15 L13.164,8.977 L9.31,8.977 L9.31,5.15 L9.31,5.15 Z" fill="#3498DB"></path>
                        <path d="M9.31,9.565 L13.164,9.565 L13.164,13.391 L9.31,13.391 L9.31,9.566 L9.31,9.565 L9.31,9.565 Z" fill="#3498DB"></path>
                        <path d="M13.757,9.565 L17.609,9.565 L17.609,13.391 L13.756,13.391 L13.756,9.566 L13.757,9.565 L13.757,9.565 Z" fill="#3498DB"></path>
                        <path d="M13.757,5.15 L17.609,5.15 L17.609,8.977 L13.756,8.977 L13.756,5.15 L13.757,5.15 L13.757,5.15 Z" fill="#3498DB"></path>
                        <path d="M18.202,9.565 L22.055,9.565 L22.055,13.391 L18.202,13.391 L18.202,9.566 L18.202,9.565 L18.202,9.565 Z" fill="#3498DB"></path>
                        <path d="M22.055,5.15 L22.055,8.977 L18.202,8.977 L18.202,5.15 L22.055,5.15 Z" fill="#3498DB"></path>
                        <path d="M18.202,0.736 L22.055,0.736 L22.055,4.562 L18.202,4.562 L18.202,0.736 L18.202,0.736 Z" fill="#3498DB"></path>
                        <path d="M22.647,9.565 L26.5,9.565 L26.5,13.391 L22.647,13.391 L22.647,9.566 L22.647,9.565 L22.647,9.565 Z" fill="#3498DB"></path>
                        <path d="M12.923,19.595 C13.51,19.595 13.986,20.068 13.986,20.65 C13.986,21.234 13.51,21.706 12.923,21.706 C12.335,21.706 11.86,21.234 11.86,20.65 C11.86,20.068 12.335,19.595 12.923,19.595" fill="#FFFFFF"></path>
                    </g>
                </g>
            </g>
        </g>
    </g>
</svg>