<?xml version="1.0" encoding="UTF-8" standalone="no"?>
<svg width="386px" height="71px" viewBox="0 0 386 71" version="1.1" xmlns="http://www.w3.org/2000/svg" xmlns:xlink="http://www.w3.org/1999/xlink" xmlns:sketch="http://www.bohemiancoding.com/sketch/ns">
    <!-- Generator: Sketch 3.2.2 (9983) - http://www.bohemiancoding.com/sketch -->
    <title>Slice 1</title>
    <desc>Created with Sketch.</desc>
    <defs></defs>
    <g id="Page-1" stroke="none" stroke-width="1" fill="none" fill-rule="evenodd" sketch:type="MSPage">
        <g id="Group" sketch:type="MSLayerGroup" fill="#BDC3C7">
            <path d="M0,56.569 L0,17.538 L5.744,17.538 C6.961,17.538 7.76,18.109 8.141,19.25 L8.75,22.141 C9.435,21.38 10.145,20.683 10.88,20.049 C11.641,19.415 12.44,18.87 13.277,18.413 C14.139,17.957 15.052,17.601 16.016,17.348 C17.005,17.069 18.083,16.93 19.25,16.93 C21.71,16.93 23.726,17.602 25.299,18.946 C26.897,20.265 28.089,22.027 28.875,24.234 C29.484,22.941 30.244,21.837 31.158,20.924 C32.071,19.986 33.073,19.225 34.163,18.641 C35.253,18.058 36.407,17.627 37.625,17.348 C38.868,17.069 40.11,16.93 41.353,16.93 C43.509,16.93 45.423,17.26 47.097,17.919 C48.771,18.578 50.178,19.542 51.32,20.81 C52.461,22.078 53.323,23.625 53.907,25.451 C54.516,27.277 54.82,29.369 54.82,31.728 L54.82,56.569 L45.424,56.569 L45.424,31.728 C45.424,29.243 44.879,27.379 43.788,26.136 C42.697,24.868 41.1,24.234 38.995,24.234 C38.031,24.234 37.131,24.399 36.294,24.729 C35.482,25.059 34.76,25.541 34.126,26.175 C33.517,26.784 33.035,27.557 32.68,28.496 C32.325,29.434 32.147,30.512 32.147,31.73 L32.147,56.571 L22.713,56.571 L22.713,31.73 C22.713,29.118 22.18,27.216 21.115,26.024 C20.075,24.832 18.541,24.236 16.512,24.236 C15.142,24.236 13.862,24.578 12.67,25.263 C11.503,25.922 10.413,26.835 9.398,28.002 L9.398,56.572 L0.002,56.572" id="Shape" sketch:type="MSShapeGroup"></path>
            <path d="M89.276,56.569 C88.388,56.569 87.704,56.442 87.222,56.189 C86.74,55.91 86.36,55.365 86.081,54.553 L85.244,51.776 C84.255,52.664 83.291,53.45 82.353,54.135 C81.415,54.794 80.438,55.352 79.424,55.809 C78.41,56.266 77.319,56.608 76.152,56.836 C75.011,57.064 73.743,57.178 72.348,57.178 C70.699,57.178 69.178,56.962 67.783,56.531 C66.388,56.074 65.183,55.402 64.169,54.515 C63.155,53.627 62.368,52.524 61.81,51.205 C61.252,49.886 60.973,48.352 60.973,46.602 C60.973,45.131 61.353,43.685 62.114,42.265 C62.9,40.819 64.194,39.526 65.994,38.385 C67.795,37.218 70.191,36.255 73.184,35.494 C76.177,34.733 79.905,34.302 84.368,34.201 L84.368,31.918 C84.368,29.306 83.81,27.378 82.694,26.136 C81.578,24.868 79.968,24.234 77.863,24.234 C76.341,24.234 75.073,24.412 74.059,24.767 C73.07,25.122 72.195,25.528 71.434,25.984 C70.673,26.415 69.976,26.808 69.342,27.163 C68.733,27.518 68.049,27.696 67.288,27.696 C66.629,27.696 66.071,27.531 65.614,27.201 C65.157,26.846 64.79,26.44 64.511,25.984 L62.837,22.979 C67.326,18.87 72.728,16.816 79.043,16.816 C81.326,16.816 83.367,17.196 85.168,17.957 C86.969,18.693 88.49,19.732 89.733,21.076 C90.976,22.395 91.914,23.98 92.548,25.831 C93.207,27.682 93.537,29.711 93.537,31.918 L93.537,56.569 L89.276,56.569 M75.238,50.711 C77.165,50.711 78.827,50.369 80.222,49.684 C81.642,48.974 83.024,47.909 84.369,46.488 L84.369,39.907 C81.63,40.034 79.335,40.275 77.483,40.63 C75.657,40.96 74.186,41.391 73.07,41.923 C71.954,42.456 71.155,43.077 70.673,43.787 C70.191,44.497 69.95,45.271 69.95,46.108 C69.95,47.757 70.432,48.936 71.396,49.646 C72.385,50.356 73.666,50.711 75.238,50.711" id="Shape" sketch:type="MSShapeGroup"></path>
            <path d="M116.652,16.853 C118.326,16.853 119.886,17.031 121.331,17.386 C122.802,17.716 124.159,18.21 125.402,18.87 L136.624,18.87 L136.624,22.37 C136.624,23.486 135.952,24.171 134.608,24.424 L131.108,25.071 C131.362,25.73 131.552,26.428 131.679,27.163 C131.831,27.899 131.907,28.672 131.907,29.484 C131.907,31.411 131.514,33.161 130.728,34.734 C129.967,36.281 128.902,37.6 127.532,38.69 C126.162,39.781 124.539,40.63 122.663,41.239 C120.812,41.822 118.808,42.114 116.652,42.114 C115.181,42.114 113.748,41.975 112.353,41.696 C111.136,42.432 110.527,43.256 110.527,44.169 C110.527,44.955 110.882,45.539 111.592,45.919 C112.327,46.274 113.291,46.528 114.483,46.68 C115.675,46.832 117.032,46.934 118.553,46.984 C120.075,47.009 121.634,47.085 123.232,47.212 C124.83,47.339 126.389,47.567 127.911,47.897 C129.433,48.201 130.789,48.696 131.982,49.381 C133.174,50.066 134.125,51.004 134.835,52.196 C135.57,53.363 135.938,54.872 135.938,56.723 C135.938,58.448 135.507,60.121 134.645,61.745 C133.808,63.368 132.578,64.814 130.955,66.082 C129.357,67.35 127.379,68.365 125.02,69.125 C122.687,69.911 120.024,70.304 117.031,70.304 C114.089,70.304 111.528,70.012 109.347,69.429 C107.166,68.871 105.353,68.11 103.907,67.146 C102.461,66.208 101.384,65.117 100.673,63.874 C99.963,62.631 99.608,61.338 99.608,59.994 C99.608,58.193 100.153,56.672 101.244,55.429 C102.36,54.186 103.869,53.197 105.771,52.462 C104.757,51.929 103.945,51.219 103.336,50.332 C102.727,49.444 102.423,48.278 102.423,46.832 C102.423,46.249 102.524,45.653 102.727,45.044 C102.93,44.41 103.234,43.789 103.64,43.18 C104.071,42.571 104.604,42.001 105.238,41.468 C105.897,40.91 106.658,40.416 107.521,39.984 C105.543,38.919 103.983,37.499 102.842,35.723 C101.726,33.948 101.168,31.868 101.168,29.484 C101.168,27.557 101.548,25.819 102.309,24.272 C103.095,22.7 104.173,21.368 105.543,20.278 C106.938,19.162 108.574,18.313 110.45,17.729 C112.352,17.146 114.419,16.854 116.651,16.854 M127.265,58.32 C127.265,57.559 127.037,56.95 126.58,56.494 C126.123,56.012 125.502,55.632 124.716,55.353 C123.93,55.074 123.004,54.871 121.939,54.744 C120.899,54.617 119.783,54.528 118.591,54.478 C117.424,54.402 116.207,54.339 114.939,54.288 C113.696,54.237 112.479,54.136 111.287,53.984 C110.247,54.567 109.398,55.252 108.738,56.038 C108.104,56.824 107.787,57.737 107.787,58.777 C107.787,59.462 107.952,60.096 108.282,60.679 C108.637,61.288 109.182,61.808 109.918,62.239 C110.679,62.67 111.655,63 112.847,63.228 C114.039,63.482 115.497,63.608 117.222,63.608 C118.972,63.608 120.481,63.469 121.749,63.19 C123.017,62.936 124.057,62.569 124.868,62.087 C125.705,61.63 126.314,61.073 126.694,60.413 C127.074,59.779 127.265,59.082 127.265,58.321 M116.651,36.104 C117.818,36.104 118.832,35.952 119.694,35.647 C120.556,35.317 121.266,34.874 121.824,34.316 C122.407,33.758 122.838,33.086 123.117,32.3 C123.421,31.514 123.573,30.652 123.574,29.713 C123.574,27.786 122.991,26.264 121.824,25.148 C120.683,24.007 118.958,23.436 116.65,23.436 C114.342,23.436 112.605,24.007 111.438,25.148 C110.297,26.264 109.726,27.786 109.726,29.713 C109.726,30.626 109.865,31.476 110.144,32.262 C110.448,33.048 110.879,33.733 111.437,34.316 C112.02,34.874 112.743,35.318 113.605,35.647 C114.493,35.951 115.507,36.104 116.648,36.104" id="Shape" sketch:type="MSShapeGroup"></path>
            <path d="M142.509,56.569 L142.509,17.538 L148.253,17.538 C149.47,17.538 150.269,18.109 150.65,19.25 L151.297,22.331 C152.083,21.519 152.907,20.784 153.77,20.125 C154.658,19.466 155.583,18.895 156.547,18.413 C157.536,17.931 158.589,17.563 159.704,17.31 C160.82,17.056 162.037,16.93 163.356,16.93 C165.486,16.93 167.376,17.298 169.024,18.033 C170.672,18.743 172.042,19.758 173.133,21.076 C174.249,22.369 175.086,23.929 175.644,25.755 C176.227,27.556 176.519,29.547 176.519,31.728 L176.519,56.569 L167.123,56.569 L167.123,31.728 C167.123,29.344 166.578,27.505 165.487,26.212 C164.396,24.893 162.735,24.234 160.503,24.234 C158.88,24.234 157.358,24.602 155.938,25.337 C154.518,26.073 153.174,27.074 151.906,28.342 L151.906,56.569 L142.51,56.569" id="Shape" sketch:type="MSShapeGroup"></path>
            <path d="M202.079,16.929 C204.539,16.929 206.809,17.322 208.889,18.108 C210.969,18.894 212.757,20.048 214.253,21.57 C215.749,23.066 216.916,24.918 217.753,27.124 C218.615,29.305 219.046,31.803 219.046,34.618 C219.046,36.038 218.894,37.002 218.589,37.509 C218.285,37.991 217.701,38.232 216.839,38.232 L192.682,38.232 C192.834,40.236 193.189,41.973 193.747,43.444 C194.305,44.89 195.04,46.094 195.953,47.058 C196.866,47.996 197.944,48.707 199.187,49.188 C200.455,49.645 201.85,49.873 203.372,49.873 C204.894,49.873 206.2,49.695 207.29,49.34 C208.406,48.985 209.37,48.592 210.181,48.161 C211.018,47.73 211.741,47.337 212.349,46.982 C212.983,46.627 213.592,46.449 214.175,46.449 C214.961,46.449 215.544,46.741 215.925,47.324 L218.626,50.748 C217.586,51.965 216.42,52.992 215.126,53.829 C213.833,54.641 212.476,55.3 211.055,55.807 C209.66,56.289 208.227,56.631 206.756,56.834 C205.31,57.037 203.903,57.138 202.533,57.138 C199.819,57.138 197.296,56.694 194.963,55.807 C192.63,54.894 190.601,53.563 188.876,51.813 C187.151,50.038 185.795,47.857 184.805,45.27 C183.816,42.658 183.321,39.64 183.321,36.216 C183.321,33.553 183.752,31.055 184.614,28.722 C185.476,26.363 186.706,24.322 188.304,22.597 C189.927,20.847 191.893,19.465 194.201,18.45 C196.534,17.436 199.159,16.928 202.076,16.928 M202.266,23.661 C199.527,23.661 197.384,24.435 195.837,25.982 C194.29,27.529 193.301,29.723 192.87,32.563 L210.598,32.563 C210.598,31.346 210.42,30.204 210.065,29.139 C209.735,28.048 209.228,27.097 208.543,26.286 C207.858,25.474 206.983,24.84 205.918,24.384 C204.878,23.902 203.661,23.661 202.266,23.661" id="Shape" sketch:type="MSShapeGroup"></path>
            <path d="M238.588,57.178 C235.19,57.178 232.577,56.227 230.751,54.325 C228.95,52.398 228.05,49.747 228.05,46.374 L228.05,24.576 L224.056,24.576 C223.549,24.576 223.118,24.411 222.763,24.081 C222.408,23.751 222.23,23.257 222.23,22.597 L222.23,18.869 L228.507,17.842 L230.485,7.19 C230.612,6.683 230.853,6.29 231.208,6.011 C231.563,5.732 232.02,5.593 232.578,5.593 L237.447,5.593 L237.447,17.881 L264.951,17.881 L264.951,56.57 L255.555,56.57 L255.555,24.577 L237.447,24.577 L237.447,45.728 C237.447,46.945 237.739,47.896 238.322,48.581 C238.931,49.266 239.755,49.608 240.795,49.608 C241.378,49.608 241.86,49.545 242.241,49.418 C242.647,49.266 242.989,49.114 243.268,48.961 C243.572,48.809 243.839,48.669 244.067,48.543 C244.295,48.391 244.523,48.315 244.752,48.315 C245.031,48.315 245.259,48.391 245.437,48.543 C245.615,48.67 245.805,48.873 246.008,49.152 L248.823,53.717 C247.453,54.858 245.881,55.721 244.106,56.304 C242.331,56.887 240.492,57.179 238.59,57.179 M266.589,6.012 C266.589,6.824 266.424,7.597 266.094,8.333 C265.764,9.043 265.32,9.665 264.763,10.197 C264.23,10.73 263.584,11.161 262.823,11.49 C262.087,11.794 261.301,11.947 260.464,11.947 C259.652,11.947 258.892,11.795 258.181,11.49 C257.471,11.16 256.85,10.729 256.317,10.197 C255.784,9.664 255.353,9.043 255.024,8.333 C254.72,7.598 254.567,6.824 254.567,6.012 C254.567,5.175 254.719,4.402 255.024,3.691 C255.354,2.956 255.785,2.322 256.317,1.789 C256.85,1.231 257.471,0.8 258.181,0.496 C258.891,0.166 259.652,0.002 260.464,0.001 C261.301,0.001 262.087,0.166 262.823,0.496 C263.584,0.8 264.231,1.232 264.763,1.789 C265.321,2.322 265.765,2.956 266.094,3.691 C266.424,4.401 266.588,5.175 266.589,6.012" id="Shape" sketch:type="MSShapeGroup"></path>
            <path d="M302.428,25.793 C302.149,26.148 301.87,26.427 301.591,26.63 C301.337,26.833 300.957,26.934 300.45,26.934 C299.968,26.934 299.499,26.795 299.042,26.516 C298.585,26.212 298.04,25.882 297.406,25.527 C296.772,25.147 296.011,24.817 295.123,24.538 C294.261,24.234 293.183,24.082 291.889,24.081 C290.24,24.081 288.795,24.385 287.552,24.994 C286.309,25.577 285.269,26.427 284.433,27.543 C283.621,28.659 283.013,30.016 282.607,31.614 C282.201,33.186 281.998,34.974 281.998,36.978 C281.998,39.058 282.214,40.909 282.645,42.532 C283.102,44.155 283.748,45.525 284.585,46.641 C285.422,47.732 286.436,48.568 287.628,49.152 C288.82,49.71 290.164,49.989 291.66,49.989 C293.156,49.989 294.361,49.811 295.274,49.456 C296.212,49.076 296.999,48.67 297.633,48.239 C298.267,47.783 298.812,47.377 299.269,47.022 C299.751,46.642 300.283,46.451 300.867,46.451 C301.628,46.451 302.198,46.743 302.579,47.326 L305.28,50.75 C304.24,51.967 303.112,52.994 301.894,53.831 C300.677,54.643 299.409,55.302 298.09,55.809 C296.797,56.291 295.452,56.633 294.058,56.836 C292.688,57.039 291.319,57.14 289.949,57.14 C287.54,57.14 285.27,56.696 283.139,55.809 C281.009,54.896 279.145,53.577 277.547,51.853 C275.949,50.128 274.681,48.023 273.743,45.538 C272.83,43.027 272.373,40.174 272.373,36.979 C272.373,34.113 272.779,31.463 273.59,29.028 C274.427,26.568 275.644,24.45 277.242,22.675 C278.84,20.874 280.818,19.467 283.177,18.452 C285.536,17.438 288.249,16.93 291.318,16.93 C294.235,16.93 296.783,17.399 298.964,18.338 C301.17,19.276 303.149,20.621 304.899,22.37 L302.426,25.794" id="Shape" sketch:type="MSShapeGroup"></path>
            <path d="M309.802,51.395 C309.802,50.609 309.941,49.861 310.22,49.151 C310.524,48.441 310.93,47.832 311.437,47.325 C311.944,46.818 312.553,46.412 313.263,46.108 C313.973,45.804 314.734,45.652 315.546,45.651 C316.358,45.651 317.106,45.803 317.79,46.108 C318.5,46.412 319.109,46.818 319.616,47.325 C320.149,47.832 320.567,48.441 320.871,49.151 C321.175,49.861 321.327,50.609 321.328,51.395 C321.328,52.207 321.176,52.967 320.871,53.678 C320.567,54.363 320.148,54.959 319.616,55.466 C319.109,55.973 318.5,56.366 317.79,56.645 C317.105,56.949 316.357,57.102 315.546,57.102 C314.734,57.102 313.974,56.95 313.263,56.645 C312.553,56.366 311.944,55.973 311.437,55.466 C310.93,54.959 310.524,54.363 310.22,53.678 C309.941,52.968 309.802,52.207 309.802,51.395" id="Shape" sketch:type="MSShapeGroup"></path>
            <path d="M339.04,17.537 L339.04,56.568 L329.606,56.568 L329.606,17.537 L339.04,17.537 M340.333,6.162 C340.333,6.974 340.168,7.734 339.838,8.445 C339.508,9.155 339.064,9.777 338.507,10.309 C337.974,10.842 337.34,11.273 336.605,11.602 C335.87,11.906 335.083,12.059 334.246,12.059 C333.434,12.059 332.661,11.907 331.925,11.602 C331.215,11.272 330.594,10.841 330.061,10.309 C329.528,9.776 329.097,9.155 328.768,8.445 C328.464,7.735 328.311,6.974 328.311,6.162 C328.311,5.325 328.463,4.539 328.768,3.803 C329.098,3.068 329.529,2.434 330.061,1.901 C330.594,1.368 331.215,0.95 331.925,0.646 C332.66,0.316 333.434,0.152 334.246,0.151 C335.083,0.151 335.869,0.316 336.605,0.646 C337.34,0.95 337.974,1.369 338.507,1.901 C339.065,2.434 339.509,3.068 339.838,3.803 C340.168,4.539 340.333,5.325 340.333,6.162" id="Shape" sketch:type="MSShapeGroup"></path>
            <path d="M365.891,16.929 C368.782,16.929 371.407,17.398 373.766,18.337 C376.15,19.275 378.179,20.607 379.853,22.331 C381.552,24.056 382.858,26.161 383.771,28.646 C384.684,31.131 385.14,33.909 385.141,36.977 C385.141,40.071 384.684,42.861 383.771,45.346 C382.858,47.831 381.552,49.949 379.853,51.699 C378.179,53.449 376.15,54.793 373.766,55.731 C371.407,56.669 368.782,57.139 365.891,57.139 C362.974,57.139 360.324,56.67 357.94,55.731 C355.556,54.793 353.514,53.448 351.815,51.699 C350.141,49.949 348.835,47.831 347.897,45.346 C346.984,42.861 346.527,40.071 346.527,36.977 C346.527,33.908 346.984,31.131 347.897,28.646 C348.835,26.161 350.141,24.056 351.815,22.331 C353.514,20.606 355.556,19.275 357.94,18.337 C360.324,17.399 362.974,16.929 365.891,16.929 M365.891,49.911 C369.137,49.911 371.534,48.82 373.081,46.639 C374.653,44.458 375.44,41.262 375.44,37.052 C375.44,32.842 374.654,29.634 373.081,27.427 C371.534,25.221 369.137,24.117 365.891,24.117 C362.594,24.117 360.147,25.233 358.549,27.465 C356.977,29.671 356.19,32.867 356.19,37.052 C356.19,41.237 356.976,44.432 358.549,46.639 C360.147,48.82 362.594,49.911 365.891,49.911" id="Shape" sketch:type="MSShapeGroup"></path>
        </g>
    </g>
</svg>