<?xml version="1.0" encoding="UTF-8" standalone="no"?>
<svg width="300px" height="805px" viewBox="0 0 300 805" version="1.1" xmlns="http://www.w3.org/2000/svg" xmlns:xlink="http://www.w3.org/1999/xlink" xmlns:sketch="http://www.bohemiancoding.com/sketch/ns">
    <!-- Generator: Sketch 3.3.3 (12072) - http://www.bohemiancoding.com/sketch -->
    <title>services_bg_blue</title>
    <desc>Created with Sketch.</desc>
    <defs>
        <linearGradient x1="108.305942%" y1="448.765121%" x2="110.957592%" y2="-386.890526%" id="linearGradient-1">
            <stop stop-color="#03A9F4" stop-opacity="0" offset="0%"></stop>
            <stop stop-color="#333333" stop-opacity="0" offset="100%"></stop>
        </linearGradient>
        <linearGradient x1="10.7534877%" y1="1128.82472%" x2="15.1242659%" y2="-245.324155%" id="linearGradient-2">
            <stop stop-color="#03A9F4" stop-opacity="0" offset="0%"></stop>
            <stop stop-color="#333333" stop-opacity="0" offset="100%"></stop>
        </linearGradient>
        <linearGradient x1="26.5955534%" y1="707.401349%" x2="29.2472032%" y2="-128.301706%" id="linearGradient-3">
            <stop stop-color="#03A9F4" stop-opacity="0" offset="0%"></stop>
            <stop stop-color="#333333" stop-opacity="0" offset="100%"></stop>
        </linearGradient>
        <linearGradient x1="48.3436883%" y1="99.4328215%" x2="49.0593344%" y2="4.30569918%" id="linearGradient-4">
            <stop stop-color="#03A9F4" stop-opacity="0" offset="0%"></stop>
            <stop stop-color="#333333" stop-opacity="0" offset="100%"></stop>
        </linearGradient>
        <linearGradient x1="-51.1462783%" y1="1399.67448%" x2="-46.775501%" y2="25.5255457%" id="linearGradient-5">
            <stop stop-color="#03A9F4" stop-opacity="0" offset="0%"></stop>
            <stop stop-color="#333333" stop-opacity="0" offset="100%"></stop>
        </linearGradient>
        <linearGradient x1="-10.9576029%" y1="872.074745%" x2="-8.30595349%" y2="36.4191286%" id="linearGradient-6">
            <stop stop-color="#03A9F4" stop-opacity="0" offset="0%"></stop>
            <stop stop-color="#333333" stop-opacity="0" offset="100%"></stop>
        </linearGradient>
        <linearGradient x1="-416.397109%" y1="6986.98917%" x2="-392.59592%" y2="-517.892243%" id="linearGradient-7">
            <stop stop-color="#03A9F4" stop-opacity="0" offset="0%"></stop>
            <stop stop-color="#333333" stop-opacity="0" offset="100%"></stop>
        </linearGradient>
        <linearGradient x1="-540.560769%" y1="1307.58354%" x2="-508.370361%" y2="-117.350606%" id="linearGradient-8">
            <stop stop-color="#03A9F4" stop-opacity="0" offset="0%"></stop>
            <stop stop-color="#333333" stop-opacity="0" offset="100%"></stop>
        </linearGradient>
        <linearGradient x1="-80.3717142%" y1="529.696977%" x2="-77.7200644%" y2="-305.958669%" id="linearGradient-9">
            <stop stop-color="#03A9F4" stop-opacity="0" offset="0%"></stop>
            <stop stop-color="#333333" stop-opacity="0" offset="100%"></stop>
        </linearGradient>
        <linearGradient x1="-209.750222%" y1="829.31919%" x2="-204.454805%" y2="-531.203056%" id="linearGradient-10">
            <stop stop-color="#03A9F4" stop-opacity="0" offset="0%"></stop>
            <stop stop-color="#333333" stop-opacity="0" offset="100%"></stop>
        </linearGradient>
        <linearGradient x1="126.068933%" y1="1130.54561%" x2="128.498684%" y2="-345.819661%" id="linearGradient-11">
            <stop stop-color="#03A9F4" stop-opacity="0" offset="0%"></stop>
            <stop stop-color="#333333" stop-opacity="0" offset="100%"></stop>
        </linearGradient>
        <linearGradient x1="528.021839%" y1="1789.55779%" x2="536.393594%" y2="-842.475193%" id="linearGradient-12">
            <stop stop-color="#03A9F4" stop-opacity="0" offset="0%"></stop>
            <stop stop-color="#333333" stop-opacity="0" offset="100%"></stop>
        </linearGradient>
        <linearGradient x1="340.410206%" y1="1109.43405%" x2="345.489155%" y2="-491.568144%" id="linearGradient-13">
            <stop stop-color="#03A9F4" stop-opacity="0" offset="0%"></stop>
            <stop stop-color="#333333" stop-opacity="0" offset="100%"></stop>
        </linearGradient>
        <linearGradient x1="263.351595%" y1="1786.50893%" x2="271.723349%" y2="-845.524052%" id="linearGradient-14">
            <stop stop-color="#03A9F4" stop-opacity="0" offset="0%"></stop>
            <stop stop-color="#333333" stop-opacity="0" offset="100%"></stop>
        </linearGradient>
        <linearGradient x1="179.840981%" y1="1107.53622%" x2="184.919931%" y2="-493.400628%" id="linearGradient-15">
            <stop stop-color="#03A9F4" stop-opacity="0" offset="0%"></stop>
            <stop stop-color="#333333" stop-opacity="0" offset="100%"></stop>
        </linearGradient>
        <linearGradient x1="-162.608932%" y1="684.540981%" x2="-156.214593%" y2="-233.805825%" id="linearGradient-16">
            <stop stop-color="#03A9F4" stop-opacity="0" offset="0%"></stop>
            <stop stop-color="#333333" stop-opacity="0" offset="100%"></stop>
        </linearGradient>
        <linearGradient x1="201.870805%" y1="1152.06879%" x2="211.319307%" y2="-353.907444%" id="linearGradient-17">
            <stop stop-color="#03A9F4" stop-opacity="0" offset="0%"></stop>
            <stop stop-color="#333333" stop-opacity="0" offset="100%"></stop>
        </linearGradient>
        <linearGradient x1="84.8757142%" y1="432.736047%" x2="89.2464924%" y2="-941.413102%" id="linearGradient-18">
            <stop stop-color="#03A9F4" stop-opacity="0" offset="0%"></stop>
            <stop stop-color="#333333" stop-opacity="0" offset="100%"></stop>
        </linearGradient>
        <linearGradient x1="70.7527763%" y1="284.067679%" x2="73.4044258%" y2="-551.635376%" id="linearGradient-19">
            <stop stop-color="#03A9F4" stop-opacity="0" offset="0%"></stop>
            <stop stop-color="#333333" stop-opacity="0" offset="100%"></stop>
        </linearGradient>
        <linearGradient x1="146.77549%" y1="703.585686%" x2="151.146268%" y2="-670.563193%" id="linearGradient-20">
            <stop stop-color="#03A9F4" stop-opacity="0" offset="0%"></stop>
            <stop stop-color="#333333" stop-opacity="0" offset="100%"></stop>
        </linearGradient>
        <linearGradient x1="608.370735%" y1="585.768987%" x2="640.561175%" y2="-839.165071%" id="linearGradient-21">
            <stop stop-color="#03A9F4" stop-opacity="0" offset="0%"></stop>
            <stop stop-color="#333333" stop-opacity="0" offset="100%"></stop>
        </linearGradient>
        <linearGradient x1="177.720037%" y1="106.387323%" x2="180.371687%" y2="-729.268324%" id="linearGradient-22">
            <stop stop-color="#03A9F4" stop-opacity="0" offset="0%"></stop>
            <stop stop-color="#333333" stop-opacity="0" offset="100%"></stop>
        </linearGradient>
        <linearGradient x1="304.454447%" y1="140.133154%" x2="309.749855%" y2="-1220.38909%" id="linearGradient-23">
            <stop stop-color="#03A9F4" stop-opacity="0" offset="0%"></stop>
            <stop stop-color="#333333" stop-opacity="0" offset="100%"></stop>
        </linearGradient>
        <linearGradient x1="256.214552%" y1="219.343313%" x2="262.608891%" y2="-699.003599%" id="linearGradient-24">
            <stop stop-color="#03A9F4" stop-opacity="0" offset="0%"></stop>
            <stop stop-color="#333333" stop-opacity="0" offset="100%"></stop>
        </linearGradient>
        <linearGradient x1="-28.4986951%" y1="382.678142%" x2="-26.0689434%" y2="-1093.68713%" id="linearGradient-25">
            <stop stop-color="#03A9F4" stop-opacity="0" offset="0%"></stop>
            <stop stop-color="#333333" stop-opacity="0" offset="100%"></stop>
        </linearGradient>
        <linearGradient x1="-436.393393%" y1="456.275379%" x2="-428.021642%" y2="-2175.7576%" id="linearGradient-26">
            <stop stop-color="#03A9F4" stop-opacity="0" offset="0%"></stop>
            <stop stop-color="#333333" stop-opacity="0" offset="100%"></stop>
        </linearGradient>
        <linearGradient x1="-245.489123%" y1="298.503102%" x2="-240.410175%" y2="-1302.96691%" id="linearGradient-27">
            <stop stop-color="#03A9F4" stop-opacity="0" offset="0%"></stop>
            <stop stop-color="#333333" stop-opacity="0" offset="100%"></stop>
        </linearGradient>
        <linearGradient x1="-171.723381%" y1="453.226519%" x2="-163.351626%" y2="-2178.80646%" id="linearGradient-28">
            <stop stop-color="#03A9F4" stop-opacity="0" offset="0%"></stop>
            <stop stop-color="#333333" stop-opacity="0" offset="100%"></stop>
        </linearGradient>
        <linearGradient x1="-84.9199434%" y1="296.565784%" x2="-79.8409941%" y2="-1304.37107%" id="linearGradient-29">
            <stop stop-color="#03A9F4" stop-opacity="0" offset="0%"></stop>
            <stop stop-color="#333333" stop-opacity="0" offset="100%"></stop>
        </linearGradient>
        <linearGradient x1="-111.31935%" y1="389.201592%" x2="-101.870848%" y2="-1116.77464%" id="linearGradient-30">
            <stop stop-color="#03A9F4" stop-opacity="0" offset="0%"></stop>
            <stop stop-color="#333333" stop-opacity="0" offset="100%"></stop>
        </linearGradient>
        <linearGradient x1="225.232336%" y1="720.3398%" x2="229.420956%" y2="-429.888098%" id="linearGradient-31">
            <stop stop-color="#03A9F4" stop-opacity="0" offset="0%"></stop>
            <stop stop-color="#333333" stop-opacity="0" offset="100%"></stop>
        </linearGradient>
        <linearGradient x1="582.223731%" y1="726.55596%" x2="602.183074%" y2="-432.795469%" id="linearGradient-32">
            <stop stop-color="#03A9F4" stop-opacity="0" offset="0%"></stop>
            <stop stop-color="#333333" stop-opacity="0" offset="100%"></stop>
        </linearGradient>
    </defs>
    <g id="Page-1" stroke="none" stroke-width="1" fill="none" fill-rule="evenodd" sketch:type="MSPage">
        <g id="services_bg_blue" sketch:type="MSLayerGroup" transform="translate(1.000000, 0.000000)" stroke="#03A9F4">
            <path d="M57.868999,476.64824 C57.860999,461.72523 65.781043,447.93237 78.643844,440.46854 C91.506645,433.00472 107.35658,433.00472 120.21938,440.46854 C133.08218,447.93237 141.00222,461.72523 140.99422,476.64824 C141.00222,491.57124 133.08218,505.36411 120.21938,512.82793 C107.35658,520.29175 91.506645,520.29175 78.643844,512.82793 C65.781043,505.36411 57.861003,491.57124 57.868999,476.64824 L57.868999,476.64824 L57.868999,476.64824 Z" id="path3969-65-91" stroke-opacity="0.5" fill="url(#linearGradient-1)" sketch:type="MSShapeGroup"></path>
            <path d="M175.75062,236.25804 L142.47556,241.0117 L142.47556,277.85857 L159.1131,287.07008 L192.90571,282.16694 L192.90571,245.6179 L175.75062,236.25804 L175.75062,236.25804 Z M190.38415,247.66926 L190.31215,247.08587 L190.38415,247.12497 L190.38415,247.66927 L190.38415,247.66926 Z M159.43299,249.06594 L147.91451,242.7934 L174.99414,238.92481 L174.99414,240.57339 L176.50701,240.57339 L176.50701,239.55316 L187.55485,245.58141 L159.43299,249.06594 L159.43299,249.06594 Z M146.48932,276.0003 L144.99713,276.21757 L144.99713,244.08616 L157.85231,251.08659 L157.85231,283.47963 L146.6755,277.29169 L146.48932,276.0003 L146.48932,276.0003 Z M189.79661,280.0583 L190.13056,279.43634 L187.91088,278.23415 L187.19289,279.57195 L188.45169,280.25369 L160.37388,284.32762 L160.37388,275.51497 L161.67871,275.32493 L161.46204,273.82085 L160.37388,273.97917 L160.37388,251.50165 L174.99414,249.6903 L174.99414,250.70605 L176.50701,250.70605 L176.50701,249.50278 L190.38415,247.78303 L190.38415,279.97319 L189.79661,280.05829 L189.79661,280.0583 Z M151.4804,275.27391 L151.69706,276.77799 L149.20142,277.14114 L148.98476,275.63706 L151.4804,275.27391 L151.4804,275.27391 Z M175.88949,271.72116 L176.81434,272.22232 L176.09636,273.56014 L175.61176,273.29733 L174.15599,273.50913 L173.93933,272.00505 L175.88949,271.72116 L175.88949,271.72116 Z M156.68783,276.05173 L154.1924,276.41485 L153.97573,274.91079 L156.47107,274.54765 L156.68783,276.05173 L156.68783,276.05173 Z M183.4727,275.82957 L185.69179,277.03185 L184.9737,278.36967 L182.75461,277.16739 L183.4727,275.82957 L183.4727,275.82957 Z M166.45301,273.09458 L166.66968,274.59856 L164.17424,274.96169 L163.95758,273.45761 L166.45301,273.09458 L166.45301,273.09458 Z M171.44389,272.3682 L171.66045,273.87227 L169.16511,274.23542 L168.94845,272.73134 L171.44389,272.3682 L171.44389,272.3682 Z M179.03353,273.4245 L181.25312,274.62681 L180.53513,275.96461 L178.31544,274.76233 L179.03353,273.4245 L179.03353,273.4245 Z M174.99414,243.10652 L176.50701,243.10652 L176.50701,245.63978 L174.99414,245.63978 L174.99414,243.10652 L174.99414,243.10652 Z M176.50701,265.90513 L174.99414,265.90513 L174.99414,263.37187 L176.50701,263.37187 L176.50701,265.90513 L176.50701,265.90513 Z M176.50701,270.97161 L174.99414,270.97161 L174.99414,268.43836 L176.50701,268.43836 L176.50701,270.97161 L176.50701,270.97161 Z M176.50701,255.77244 L174.99414,255.77244 L174.99414,253.23921 L176.50701,253.23921 L176.50701,255.77244 L176.50701,255.77244 Z M176.50701,260.83883 L174.99414,260.83883 L174.99414,258.30558 L176.50701,258.30558 L176.50701,260.83883 L176.50701,260.83883 Z" id="path3172" stroke-opacity="0.5" fill="url(#linearGradient-2)" sketch:type="MSShapeGroup"></path>
            <path d="M208.91617,260.57558 C208.92317,245.65314 201.0031,231.86116 188.14065,224.39787 C175.27819,216.93457 159.42893,216.93457 146.56647,224.39787 C133.70402,231.86116 125.78379,245.65314 125.79095,260.57558 C125.78395,275.49803 133.70402,289.29 146.56647,296.7533 C159.42893,304.2166 175.27819,304.2166 188.14065,296.7533 C201.0031,289.29 208.92333,275.49803 208.91617,260.57558 L208.91617,260.57558 L208.91617,260.57558 Z" id="path3969" stroke-opacity="0.5" fill="url(#linearGradient-3)" sketch:type="MSShapeGroup"></path>
            <path d="M188.56757,223.00808 C188.56757,220.43893 186.49446,218.35623 183.93716,218.35623 C181.37985,218.35623 179.30674,220.43893 179.30674,223.00808 C179.30674,225.57723 181.37985,227.65994 183.93716,227.65994 C186.49446,227.65994 188.56757,225.57723 188.56757,223.00808 L188.56757,223.00808 L188.56757,223.00808 Z" id="path3969-6" stroke-opacity="0.5" fill="#FFFFFF" sketch:type="MSShapeGroup"></path>
            <g id="a3556" transform="translate(173.000000, 98.000000)" stroke-opacity="0.499971694" fill="url(#linearGradient-5)" sketch:type="MSShapeGroup">
                <path d="M33.96677,0.633782 L0.69171,5.387461 L0.69171,42.234332 L17.32924,51.44582 L51.12187,46.542707 L51.12187,9.99364 L33.96677,0.633782 L33.96677,0.633782 Z M48.60029,12.045026 L48.52829,11.461637 L48.60029,11.500697 L48.60029,12.045028 L48.60029,12.045026 Z M17.64914,13.441705 L6.13066,7.169162 L33.21029,3.300574 L33.21029,4.949126 L34.72317,4.949126 L34.72317,3.928927 L45.771,9.957147 L17.64914,13.441705 L17.64914,13.441705 Z M4.70547,40.376063 L3.21328,40.59333 L3.21328,8.461926 L16.06846,15.462356 L16.06846,47.855363 L4.89165,41.667447 L4.70547,40.376063 L4.70547,40.376063 Z M48.01277,44.434064 L48.34671,43.8121 L46.12703,42.609892 L45.40905,43.947717 L46.66784,44.629455 L18.59002,48.70338 L18.59002,39.890708 L19.89485,39.700689 L19.6782,38.196611 L18.59002,38.354927 L18.59002,15.877386 L33.21029,14.066065 L33.21029,15.081811 L34.72317,15.081811 L34.72317,13.878539 L48.60029,12.158766 L48.60029,44.348953 L48.01277,44.434063 L48.01277,44.434064 Z M9.69655,39.649676 L9.91321,41.153754 L7.41757,41.516899 L7.20091,40.012821 L9.69655,39.649676 L9.69655,39.649676 Z M34.10564,36.096922 L35.03049,36.59808 L34.31251,37.935904 L33.8279,37.673092 L32.37214,37.884891 L32.15548,36.380812 L34.10564,36.096922 L34.10564,36.096922 Z M14.90399,40.427464 L12.40855,40.790609 L12.19189,39.28653 L14.68722,38.923385 L14.90399,40.427464 L14.90399,40.427464 Z M41.68885,40.205332 L43.90793,41.407612 L43.18985,42.745436 L40.97075,41.543156 L41.68885,40.205332 L41.68885,40.205332 Z M24.66916,37.47032 L24.88583,38.974302 L22.39039,39.337447 L22.17374,37.833369 L24.66916,37.47032 L24.66916,37.47032 Z M29.66004,36.743957 L29.8766,38.248012 L27.38127,38.611157 L27.1646,37.107078 L29.66004,36.743957 L29.66004,36.743957 Z M37.24969,37.800263 L39.46927,39.002543 L38.75129,40.340368 L36.53159,39.138088 L37.24969,37.800263 L37.24969,37.800263 Z M33.21029,7.482285 L34.72317,7.482285 L34.72317,10.015517 L33.21029,10.015517 L33.21029,7.482285 L33.21029,7.482285 Z M34.72317,30.280888 L33.21029,30.280888 L33.21029,27.747632 L34.72317,27.747632 L34.72317,30.280888 L34.72317,30.280888 Z M34.72317,35.347351 L33.21029,35.347351 L33.21029,32.814119 L34.72317,32.814119 L34.72317,35.347351 L34.72317,35.347351 Z M34.72317,20.148202 L33.21029,20.148202 L33.21029,17.614946 L34.72317,17.614946 L34.72317,20.148202 L34.72317,20.148202 Z M34.72317,25.214593 L33.21029,25.214593 L33.21029,22.681337 L34.72317,22.681337 L34.72317,25.214593 L34.72317,25.214593 Z" id="path3172-6"></path>
            </g>
            <path d="M240.13233,122.951346 C240.14033,108.028339 232.22028,94.235475 219.35748,86.771652 C206.49468,79.3078284 190.64475,79.3078284 177.78194,86.771652 C164.91914,94.235475 156.9991,108.028339 157.0071,122.951346 C156.9991,137.874352 164.91914,151.667217 177.78194,159.13104 C190.64475,166.594863 206.49468,166.594863 219.35748,159.13104 C232.22028,151.667217 240.14032,137.874352 240.13233,122.951346 L240.13233,122.951346 L240.13233,122.951346 Z" id="path3969-65" stroke-opacity="0.5" fill="url(#linearGradient-6)" sketch:type="MSShapeGroup"></path>
            <path d="M195.72127,164.43893 C195.72127,161.869779 193.64816,159.787071 191.09085,159.787071 C188.53354,159.787071 186.46043,161.869779 186.46043,164.43893 C186.46043,167.008082 188.53354,169.09079 191.09085,169.09079 C193.64816,169.09079 195.72127,167.008082 195.72127,164.43893 L195.72127,164.43893 L195.72127,164.43893 Z" id="path3969-6-8" stroke-opacity="0.5" fill="url(#linearGradient-7)" sketch:type="MSShapeGroup"></path>
            <g id="a3561" transform="translate(184.000000, 169.000000)" stroke-opacity="0.75" fill="url(#linearGradient-8)" sketch:type="MSShapeGroup" stroke-dasharray="6,6">
                <path d="M7.41602,0.106893 C7.41602,0.106893 10.01737,27.54749 0.91265,49.10797" id="path4051"></path>
            </g>
            <g id="a3564" transform="translate(214.000000, 367.000000)" stroke-opacity="0.75" fill="url(#linearGradient-9)" sketch:type="MSShapeGroup" stroke-dasharray="6,6">
                <path d="M83.83296,42.02552 C83.84096,27.10252 75.92092,13.30965 63.05812,5.84583 C50.19532,-1.61799 34.34538,-1.61799 21.48258,5.84583 C8.61978,13.30965 0.69974,27.10252 0.70774,42.02552 C0.69974,56.94853 8.61978,70.74139 21.48258,78.20522 C34.34538,85.66904 50.19532,85.66904 63.05812,78.20522 C75.92092,70.74139 83.84096,56.94853 83.83296,42.02552 L83.83296,42.02552 L83.83296,42.02552 Z" id="path3969-7"></path>
            </g>
            <path d="M276.83051,391.24077 C276.83051,387.36478 267.51266,384.22234 256.01825,384.22234 C244.52387,384.22234 235.20602,387.36478 235.20602,391.24077 L235.20602,428.60884 L235.21202,428.60884 C235.34549,432.44597 244.60675,435.5433 256.01796,435.5433 C267.42919,435.5433 276.69045,432.44597 276.8238,428.60884 L276.8298,428.60884 L276.8298,391.41281 L276.8163,391.41881 C276.8213,391.35941 276.8298,391.3004 276.8298,391.24065 L276.82997,391.24072 L276.83051,391.24077 Z M273.36196,428.60884 C273.13363,429.02232 272.98069,430.18663 269.50104,431.28096 C265.86115,432.42658 261.07271,433.05772 256.01825,433.05772 C250.96389,433.05772 246.17547,432.42658 242.53539,431.28096 C239.05584,430.18663 238.90268,429.02232 238.67476,428.60884 L238.67476,420.13959 C242.40093,422.03305 248.77427,423.28223 256.01825,423.28223 C263.26225,423.28223 269.6356,422.03305 273.36196,420.13959 L273.36196,428.60884 L273.36196,428.60884 Z M273.36196,416.34726 C273.13363,416.76163 272.98069,417.92505 269.50104,419.02027 C265.86115,420.1659 261.07271,420.79672 256.01825,420.79672 C250.96389,420.79672 246.17547,420.16599 242.53539,419.02027 C239.05584,417.92505 238.90268,416.76163 238.67476,416.34726 L238.67476,407.71158 C242.40093,409.60492 248.77427,410.85432 256.01825,410.85432 C263.26225,410.85432 269.6356,409.60492 273.36196,407.71158 L273.36196,416.34726 L273.36196,416.34726 Z M273.36196,403.91935 C273.13363,404.33334 272.98069,405.49714 269.50104,406.59217 C265.86115,407.7377 261.07271,408.36861 256.01825,408.36861 C250.96389,408.36861 246.17547,407.7377 242.53539,406.59217 C239.05584,405.49714 238.90268,404.33331 238.67476,403.91935 L238.67476,395.11957 C242.40302,397.01163 248.77767,398.25918 256.01825,398.25918 C263.25885,398.25918 269.63331,397.01163 273.36196,395.11957 L273.36196,403.91935 L273.36196,403.91935 Z M269.50104,393.99684 C265.86115,395.14247 261.07271,395.77339 256.01825,395.77339 C250.96389,395.77339 246.17547,395.14247 242.53539,393.99684 C238.78653,392.81716 237.73835,391.55632 237.63797,391.24077 C237.73835,390.92521 238.78692,389.66429 242.53577,388.48451 C246.17585,387.33877 250.96411,386.70806 256.01825,386.70806 C261.07242,386.70806 265.86046,387.33877 269.50063,388.48451 C273.24959,389.66429 274.29838,390.92521 274.39844,391.24077 C274.29838,391.55632 273.25,392.81726 269.50104,393.99684 L269.50104,393.99684 L269.50104,393.99684 Z" id="path4241" stroke-opacity="0.5" fill="url(#linearGradient-10)" sketch:type="MSShapeGroup"></path>
            <path d="M244.1445,370.09716 C244.1455,368.43427 243.26367,366.89708 241.83043,366.06523 C240.3972,365.23337 238.63097,365.23337 237.19774,366.06523 C235.7645,366.89708 234.88226,368.43427 234.88367,370.09716 C234.88267,371.76006 235.7645,373.29724 237.19774,374.1291 C238.63097,374.96095 240.3972,374.96095 241.83043,374.1291 C243.26367,373.29724 244.14591,371.76006 244.1445,370.09716 L244.1445,370.09716 L244.1445,370.09716 Z" id="path3969-6-85" stroke-opacity="0.5" fill="#FFFFFF" sketch:type="MSShapeGroup"></path>
            <path d="M33.533011,322.45005 C33.533011,322.45005 56.363904,290.02694 124.24969,275.15599" id="path4051-8" stroke-opacity="0.5" fill="url(#linearGradient-11)" sketch:type="MSShapeGroup"></path>
            <path d="M205.65744,285.1387 C205.65819,283.47625 204.77581,281.93976 203.34284,281.10831 C201.90988,280.27686 200.14417,280.27686 198.71121,281.10831 C197.27824,281.93976 196.39586,283.47625 196.39661,285.1387 C196.39586,286.80116 197.27824,288.33765 198.71121,289.1691 C200.14417,290.00055 201.90988,290.00055 203.34284,289.1691 C204.77581,288.33765 205.65819,286.80116 205.65744,285.1387 L205.65744,285.1387 L205.65744,285.1387 Z" id="path3969-6-85-4" stroke-opacity="0.5" fill="#FFFFFF" sketch:type="MSShapeGroup"></path>
            <path d="M26.248745,335.09803 L8.876292,337.57986 L8.876292,356.8171 L17.56252,361.62629 L35.205178,359.06644 L35.205178,339.98464 L26.248745,335.09801 L26.248745,335.09803 L26.248745,335.09803 Z M33.888706,341.05568 L33.851136,340.75108 L33.888706,340.77138 L33.888706,341.05556 L33.888706,341.05565 L33.888706,341.05568 Z M17.729533,341.78488 L11.715894,338.51006 L25.85379,336.49033 L25.85379,337.351 L26.643643,337.351 L26.643643,336.81836 L32.411571,339.96564 L17.729533,341.78485 L17.729533,341.78488 L17.729533,341.78488 Z M10.971823,355.84692 L10.192769,355.96037 L10.192769,339.185 L16.904279,342.83983 L16.904279,359.75176 L11.069023,356.52116 L10.971823,355.84692 L10.971823,355.84692 Z M33.581959,357.96556 L33.756311,357.64084 L32.597447,357.01319 L32.222594,357.71165 L32.879799,358.06758 L18.220756,360.19452 L18.220756,355.59354 L18.90199,355.49434 L18.788871,354.70905 L18.220756,354.79175 L18.220756,343.05651 L25.85379,342.11087 L25.85379,342.64117 L26.643643,342.64117 L26.643643,342.01296 L33.888706,341.11507 L33.888706,357.92112 L33.581959,357.96562 L33.581959,357.96556 Z M13.577589,355.46771 L13.690709,356.25297 L12.387771,356.44255 L12.274657,355.65729 L13.577589,355.46771 L13.577589,355.46771 Z M26.321244,353.61285 L26.804097,353.8745 L26.429244,354.57293 L26.176246,354.43572 L25.416204,354.54634 L25.30309,353.76107 L26.321244,353.61285 L26.321244,353.61285 Z M16.29632,355.87378 L14.993492,356.06334 L14.880372,355.27812 L16.183155,355.08849 L16.29632,355.87378 L16.29632,355.87378 Z M30.280335,355.75779 L31.438891,356.38549 L31.063988,357.08395 L29.905429,356.45625 L30.280335,355.75779 L30.280335,355.75779 Z M21.394591,354.32989 L21.507705,355.11511 L20.204874,355.30469 L20.091757,354.51943 L21.394591,354.32989 L21.394591,354.32989 Z M24.000256,353.95063 L24.113322,354.73592 L22.810539,354.92548 L22.697422,354.14026 L24.000256,353.95063 L24.000256,353.95063 Z M27.962705,354.50215 L29.121517,355.12985 L28.746667,355.82831 L27.587802,355.20061 L27.962705,354.50215 L27.962705,354.50215 Z M25.85379,338.67356 L26.643643,338.67356 L26.643643,339.99611 L25.85379,339.99611 L25.85379,338.67356 L25.85379,338.67356 Z M26.643643,350.57638 L25.85379,350.57638 L25.85379,349.25377 L26.643643,349.25377 L26.643643,350.57638 L26.643643,350.57638 Z M26.643643,353.22153 L25.85379,353.22153 L25.85379,351.89893 L26.643643,351.89893 L26.643643,353.22153 L26.643643,353.22153 Z M26.643643,345.28623 L25.85379,345.28623 L25.85379,343.96363 L26.643643,343.96363 L26.643643,345.28623 L26.643643,345.28623 Z M26.643643,347.93132 L25.85379,347.93132 L25.85379,346.60874 L26.643643,346.60874 L26.643643,347.93132 L26.643643,347.93132 Z" id="path3172-6-2" stroke-opacity="0.5" fill="url(#linearGradient-12)" sketch:type="MSShapeGroup"></path>
            <path d="M43.564042,347.79388 C43.566342,340.00407 39.430948,332.805 32.71624,328.90943 C26.001532,325.01387 17.728016,325.01387 11.013307,328.90943 C4.2985992,332.805 0.1632378,340.00407 0.1655048,347.79388 C0.1632348,355.5837 4.2985992,362.78277 11.013307,366.67834 C17.728016,370.5739 26.001532,370.5739 32.71624,366.67834 C39.430948,362.78277 43.566309,355.5837 43.564042,347.79388 L43.564042,347.79388 L43.564042,347.79388 Z" id="path3969-65-9" stroke-opacity="0.5" fill="url(#linearGradient-13)" sketch:type="MSShapeGroup"></path>
            <path d="M35.396971,326.22549 C35.396971,323.65634 33.323863,321.57363 30.766554,321.57363 C28.209246,321.57363 26.136138,323.65634 26.136138,326.22549 C26.136138,328.79464 28.209246,330.87735 30.766554,330.87735 C33.323863,330.87735 35.396971,328.79464 35.396971,326.22549 L35.396971,326.22549 L35.396971,326.22549 Z" id="path3969-6-85-4-8" stroke-opacity="0.5" fill="#FFFFFF" sketch:type="MSShapeGroup"></path>
            <g id="a3574" transform="translate(78.000000, 335.000000)" stroke-opacity="0.499971694" fill="url(#linearGradient-14)" sketch:type="MSShapeGroup">
                <path d="M17.933466,0.90687 L0.561011,3.3887 L0.561011,22.62593 L9.24724,27.4351 L26.8899,24.87527 L26.8899,5.79348 L17.933466,0.90682 L17.933466,0.90687 L17.933466,0.90687 Z M25.57343,6.86452 L25.53583,6.55994 L25.57343,6.58024 L25.57343,6.86442 L25.57343,6.86449 L25.57343,6.86452 Z M9.414255,7.59372 L3.400616,4.31887 L17.538512,2.29917 L17.538512,3.15984 L18.328362,3.15984 L18.328362,2.62722 L24.09629,5.77446 L9.414255,7.59369 L9.414255,7.59372 L9.414255,7.59372 Z M2.656543,21.65575 L1.877491,21.76918 L1.877491,4.99384 L8.588999,8.64864 L8.588999,25.56062 L2.753742,22.32997 L2.656542,21.65575 L2.656543,21.65575 Z M25.26668,23.77439 L25.44103,23.44965 L24.28217,22.82203 L23.90732,23.52049 L24.56452,23.8764 L9.905478,26.00333 L9.905478,21.40236 L10.58671,21.30316 L10.473593,20.51789 L9.905478,20.60059 L9.905478,8.86538 L17.538512,7.91972 L17.538512,8.44999 L18.328362,8.44999 L18.328362,7.82181 L25.57343,6.92394 L25.57343,23.72999 L25.26668,23.77439 L25.26668,23.77439 Z M5.262311,21.27652 L5.375428,22.06178 L4.072491,22.25137 L3.959379,21.46612 L5.262311,21.27652 L5.262311,21.27652 Z M18.005965,19.42168 L18.488818,19.68333 L18.113963,20.38179 L17.860967,20.24458 L17.100923,20.35515 L16.987811,19.56988 L18.005965,19.42168 L18.005965,19.42168 Z M7.981042,21.68259 L6.678211,21.8722 L6.565094,21.08693 L7.867877,20.89735 L7.981042,21.68259 L7.981042,21.68259 Z M21.96505,21.5666 L23.12361,22.19433 L22.74871,22.89279 L21.59015,22.26506 L21.96505,21.5666 L21.96505,21.5666 Z M13.079313,20.13873 L13.192425,20.92392 L11.889596,21.11351 L11.776477,20.32826 L13.079313,20.13873 L13.079313,20.13873 Z M15.684975,19.75949 L15.798044,20.54473 L14.495261,20.73434 L14.382142,19.94907 L15.684975,19.75949 L15.684975,19.75949 Z M19.647424,20.31096 L20.806238,20.93866 L20.431388,21.63712 L19.272524,21.00942 L19.647424,20.31096 L19.647424,20.31096 Z M17.538512,4.48237 L18.328362,4.48237 L18.328362,5.80495 L17.538512,5.80495 L17.538512,4.48237 L17.538512,4.48237 Z M18.328362,16.38521 L17.538512,16.38521 L17.538512,15.06263 L18.328362,15.06263 L18.328362,16.38521 L18.328362,16.38521 Z M18.328362,19.03035 L17.538512,19.03035 L17.538512,17.70777 L18.328362,17.70777 L18.328362,19.03035 L18.328362,19.03035 Z M18.328362,11.09507 L17.538512,11.09507 L17.538512,9.77247 L18.328362,9.77247 L18.328362,11.09507 L18.328362,11.09507 Z M18.328362,13.74013 L17.538512,13.74013 L17.538512,12.4176 L18.328362,12.4176 L18.328362,13.74013 L18.328362,13.74013 Z" id="path3172-6-2-2"></path>
            </g>
            <path d="M113.24874,348.60275 C113.25174,340.81271 109.11603,333.61332 102.4012,329.71755 C95.68636,325.82179 87.41259,325.82179 80.697752,329.71755 C73.982914,333.61332 69.847622,340.81271 69.850205,348.60275 C69.847605,356.39278 73.982914,363.59217 80.697752,367.48794 C87.41259,371.3837 95.68636,371.3837 102.4012,367.48794 C109.11603,363.59217 113.25133,356.39278 113.24874,348.60275 L113.24874,348.60275 L113.24874,348.60275 Z" id="path3969-65-9-3" stroke-opacity="0.5" fill="url(#linearGradient-15)" sketch:type="MSShapeGroup"></path>
            <path d="M105.08166,327.03428 C105.08166,324.46513 103.00855,322.38242 100.45125,322.38242 C97.89394,322.38242 95.82083,324.46513 95.82083,327.03428 C95.82083,329.60343 97.89394,331.68614 100.45125,331.68614 C103.00855,331.68614 105.08166,329.60343 105.08166,327.03428 L105.08166,327.03428 L105.08166,327.03428 Z" id="path3969-6-85-4-8-7" stroke-opacity="0.5" fill="#FFFFFF" sketch:type="MSShapeGroup"></path>
            <path d="M133.13415,273.30239 C133.13415,270.73324 131.06105,268.65053 128.50374,268.65053 C125.94643,268.65053 123.87332,270.73324 123.87332,273.30239 C123.87332,275.87154 125.94643,277.95425 128.50374,277.95425 C131.06105,277.95425 133.13415,275.87154 133.13415,273.30239 L133.13415,273.30239 L133.13415,273.30239 Z" id="path3969-6-85-4-5" stroke-opacity="0.5" fill="#FFFFFF" sketch:type="MSShapeGroup"></path>
            <path d="M203.95142,289.57139 C205.73207,286.31884 230.15525,322.92647 238.42238,365.40149" id="path4051-8-8" stroke-opacity="0.5" fill="url(#linearGradient-16)" sketch:type="MSShapeGroup"></path>
            <path d="M192.111418,81.5179568 C192.112418,79.8550668 191.230588,78.3178768 189.797348,77.4860268 C188.364118,76.6541668 186.597888,76.6541668 185.164658,77.4860268 C183.731418,78.3178768 182.849178,79.8550668 182.850588,81.5179568 C182.849588,83.1808568 183.731418,84.7180368 185.164658,85.5498968 C186.597888,86.3817468 188.364118,86.3817468 189.797348,85.5498968 C191.230588,84.7180368 192.112828,83.1808568 192.111418,81.5179568 L192.111418,81.5179568 L192.111418,81.5179568 Z" id="path3969-6-85-copy" stroke-opacity="0.5" fill="#FFFFFF" sketch:type="MSShapeGroup"></path>
            <path d="M151.918338,0.9921868 C153.698988,-2.2603632 178.122168,34.3472668 186.389298,76.8222868" id="path4051-8-8-copy" stroke-opacity="0.5" fill="url(#linearGradient-16)" sketch:type="MSShapeGroup"></path>
            <path d="M100.80521,322.05416 C100.80521,322.05416 103.27154,298.9305 124.13367,275.69001" id="path4051-8-3" stroke-opacity="0.5" fill="url(#linearGradient-17)" sketch:type="MSShapeGroup"></path>
            <g id="a3582" transform="translate(105.000000, 589.000000)" stroke-opacity="0.499971694" fill="url(#linearGradient-18)" sketch:type="MSShapeGroup">
                <path d="M17.2507,0.95494 L50.52576,5.70859 L50.52576,42.55546 L33.88823,51.76697 L0.09561,46.86384 L0.09561,10.31479 L17.2507,0.95494 L17.2507,0.95494 Z M2.61718,12.36616 L2.68918,11.78277 L2.61718,11.82187 L2.61718,12.36618 L2.61718,12.36616 Z M33.56833,13.76283 L45.08681,7.49029 L18.00719,3.6217 L18.00719,5.27028 L16.49431,5.27028 L16.49431,4.25006 L5.44647,10.2783 L33.56833,13.76283 L33.56833,13.76283 Z M46.512,40.69719 L48.00419,40.91446 L48.00419,8.78305 L35.14901,15.78349 L35.14901,48.17652 L46.32582,41.98858 L46.512,40.69719 L46.512,40.69719 Z M3.20472,44.75519 L2.87076,44.13323 L5.09045,42.93105 L5.80844,44.26885 L4.54963,44.95058 L32.62745,49.02451 L32.62745,40.21186 L31.32262,40.02182 L31.53928,38.51774 L32.62745,38.67606 L32.62745,16.19854 L18.00719,14.38719 L18.00719,15.40294 L16.49431,15.40294 L16.49431,14.19967 L2.61718,12.47992 L2.61718,44.67008 L3.20472,44.75518 L3.20472,44.75519 Z M41.52093,39.97081 L41.30427,41.47488 L43.7999,41.83803 L44.01656,40.33395 L41.52093,39.97081 L41.52093,39.97081 Z M17.11183,36.41805 L16.18698,36.91921 L16.90497,38.25703 L17.38957,37.99422 L18.84534,38.20602 L19.062,36.70194 L17.11183,36.41805 L17.11183,36.41805 Z M36.31349,40.74862 L38.80893,41.11174 L39.02559,39.60768 L36.53025,39.24454 L36.31349,40.74862 L36.31349,40.74862 Z M9.52863,40.52646 L7.30954,41.72874 L8.02762,43.06657 L10.24671,41.86428 L9.52863,40.52646 L9.52863,40.52646 Z M26.54831,37.79147 L26.33164,39.29545 L28.82708,39.65858 L29.04374,38.1545 L26.54831,37.79147 L26.54831,37.79147 Z M21.55744,37.06509 L21.34087,38.56916 L23.83621,38.93231 L24.05287,37.42823 L21.55744,37.06509 L21.55744,37.06509 Z M13.96779,38.12139 L11.74821,39.3237 L12.46619,40.6615 L14.68588,39.45922 L13.96779,38.12139 L13.96779,38.12139 Z M18.00719,7.80341 L16.49431,7.80341 L16.49431,10.33667 L18.00719,10.33667 L18.00719,7.80341 L18.00719,7.80341 Z M16.49431,30.60202 L18.00719,30.60202 L18.00719,28.06876 L16.49431,28.06876 L16.49431,30.60202 L16.49431,30.60202 Z M16.49431,35.6685 L18.00719,35.6685 L18.00719,33.13525 L16.49431,33.13525 L16.49431,35.6685 L16.49431,35.6685 Z M16.49431,20.46933 L18.00719,20.46933 L18.00719,17.9361 L16.49431,17.9361 L16.49431,20.46933 L16.49431,20.46933 Z M16.49431,25.53572 L18.00719,25.53572 L18.00719,23.00247 L16.49431,23.00247 L16.49431,25.53572 L16.49431,25.53572 Z" id="path3172-9"></path>
            </g>
            <path d="M109.86068,578.09476 C122.72313,570.63146 138.57239,570.63146 151.43485,578.09476 C164.2973,585.55805 172.21753,599.35003 172.21038,614.27247 C172.21738,629.19492 164.2973,642.9869 151.43485,650.45019 C138.57239,657.91349 122.72313,657.91349 109.86068,650.45019 C96.99822,642.9869 89.077999,629.19492 89.08515,614.27247 C89.07795,599.35003 96.99822,585.55805 109.86068,578.09476 Z" id="path3969-71" stroke-opacity="0.5" fill="url(#linearGradient-19)" sketch:type="MSShapeGroup"></path>
            <path d="M109.43375,576.70498 C109.43375,574.13582 111.50686,572.05312 114.06417,572.05312 C116.62148,572.05312 118.69459,574.13582 118.69459,576.70498 C118.69459,579.27413 116.62148,581.35683 114.06417,581.35683 C111.50686,581.35683 109.43375,579.27413 109.43375,576.70498 L109.43375,576.70498 L109.43375,576.70498 Z" id="path3969-6-1" stroke-opacity="0.5" fill="#FFFFFF" sketch:type="MSShapeGroup"></path>
            <path d="M91.034556,452.33067 L124.30961,457.08435 L124.30961,493.93122 L107.67208,503.14271 L73.879459,498.2396 L73.879459,461.69053 L91.034556,452.33067 L91.034556,452.33067 Z M76.401038,463.74192 L76.472988,463.15853 L76.401038,463.19763 L76.401038,463.74196 L76.401038,463.74192 Z M107.35218,465.1386 L118.87066,458.86605 L91.79103,454.99746 L91.79103,456.64602 L90.278155,456.64602 L90.278155,455.62582 L79.230323,461.65404 L107.35218,465.1386 L107.35218,465.1386 Z M120.29585,492.07295 L121.78804,492.29022 L121.78804,460.15882 L108.93287,467.15925 L108.93287,499.55225 L120.10967,493.36434 L120.29585,492.07295 L120.29585,492.07295 Z M76.988556,496.13095 L76.654617,495.50899 L78.874296,494.30678 L79.592276,495.64461 L78.333486,496.32635 L106.4113,500.40027 L106.4113,491.5876 L105.10648,491.39758 L105.32313,489.8935 L106.4113,490.05182 L106.4113,467.57428 L91.79103,465.76296 L91.79103,466.7787 L90.278155,466.7787 L90.278155,465.57543 L76.401038,463.85566 L76.401038,496.04584 L76.988556,496.13094 L76.988556,496.13095 Z M115.30478,491.34657 L115.08812,492.85064 L117.58375,493.21379 L117.80041,491.70971 L115.30478,491.34657 L115.30478,491.34657 Z M90.895687,487.79381 L89.970834,488.29497 L90.688815,489.63279 L91.173426,489.36998 L92.629188,489.58178 L92.845839,488.0777 L90.895687,487.79381 L90.895687,487.79381 Z M110.09734,492.12435 L112.59278,492.4875 L112.80944,490.98342 L110.31411,490.62028 L110.09734,492.12435 L110.09734,492.12435 Z M83.312473,491.90222 L81.093397,493.1045 L81.811473,494.44233 L84.030574,493.24005 L83.312473,491.90222 L83.312473,491.90222 Z M100.33217,489.16721 L100.11549,490.67119 L102.61094,491.03434 L102.82759,489.53026 L100.33217,489.16721 L100.33217,489.16721 Z M95.34128,488.44085 L95.12473,489.9449 L97.62005,490.30805 L97.83673,488.80397 L95.34128,488.44085 L95.34128,488.44085 Z M87.751638,489.49715 L85.532055,490.69943 L86.250036,492.03726 L88.469739,490.83498 L87.751638,489.49715 L87.751638,489.49715 Z M91.79103,459.17918 L90.278155,459.17918 L90.278155,461.71241 L91.79103,461.71241 L91.79103,459.17918 L91.79103,459.17918 Z M90.278155,481.97778 L91.79103,481.97778 L91.79103,479.44452 L90.278155,479.44452 L90.278155,481.97778 L90.278155,481.97778 Z M90.278155,487.04424 L91.79103,487.04424 L91.79103,484.51101 L90.278155,484.51101 L90.278155,487.04424 L90.278155,487.04424 Z M90.278155,471.84509 L91.79103,471.84509 L91.79103,469.31184 L90.278155,469.31184 L90.278155,471.84509 L90.278155,471.84509 Z M90.278155,476.91148 L91.79103,476.91148 L91.79103,474.37823 L90.278155,474.37823 L90.278155,476.91148 L90.278155,476.91148 Z" id="path3172-6-4" stroke-opacity="0.5" fill="url(#linearGradient-20)" sketch:type="MSShapeGroup"></path>
            <path d="M102.28006,518.13582 C102.28006,515.56667 104.35317,513.48396 106.91048,513.48396 C109.46778,513.48396 111.54089,515.56667 111.54089,518.13582 C111.54089,520.70497 109.46778,522.78768 106.91048,522.78768 C104.35317,522.78768 102.28006,520.70497 102.28006,518.13582 L102.28006,518.13582 L102.28006,518.13582 Z" id="path3969-6-8-1" stroke-opacity="0.5" fill="#FFFFFF" sketch:type="MSShapeGroup"></path>
            <path d="M106.58531,522.80378 C106.58531,522.80378 103.98395,550.24438 113.08867,571.80486" id="path4051-5" stroke-opacity="0.5" fill="url(#linearGradient-21)" sketch:type="MSShapeGroup"></path>
            <path d="M0.1683622,762.72241 C0.1603622,747.79941 8.080406,734.00654 20.943207,726.54272 C33.806008,719.0789 49.655942,719.0789 62.518743,726.54272 C75.381544,734.00654 83.301584,747.79941 83.293588,762.72241 C83.301588,777.64542 75.381544,791.43828 62.518743,798.90211 C49.655942,806.36593 33.806008,806.36593 20.943207,798.90211 C8.080406,791.43828 0.160366,777.64542 0.1683622,762.72241 L0.1683622,762.72241 L0.1683622,762.72241 Z" id="path3969-7-5" stroke-opacity="0.5" fill="url(#linearGradient-22)" sketch:type="MSShapeGroup"></path>
            <path d="M21.170819,744.93767 C21.170819,741.06167 30.488666,737.91923 41.983074,737.91923 C53.477457,737.91923 62.795302,741.06167 62.795302,744.93767 L62.795302,782.30573 L62.789002,782.30573 C62.655528,786.14286 53.394267,789.24019 41.983061,789.24019 C30.571831,789.24019 21.310567,786.14286 21.177214,782.30573 L21.170914,782.30573 L21.170914,745.1097 L21.184404,745.1157 C21.179804,745.0563 21.170914,744.99729 21.170914,744.93754 L21.170745,744.93762 L21.170819,744.93767 Z M24.639364,782.30573 C24.867698,782.71921 25.020636,783.88352 28.500285,784.97785 C32.140171,786.12347 36.928618,786.75461 41.983074,786.75461 C47.037433,786.75461 51.825856,786.12347 55.465935,784.97785 C58.945485,783.88352 59.09864,782.71921 59.326565,782.30573 L59.326565,773.83648 C55.600397,775.72994 49.22705,776.97912 41.983074,776.97912 C34.739074,776.97912 28.365727,775.72994 24.639364,773.83648 L24.639364,782.30573 L24.639364,782.30573 Z M24.639364,770.04415 C24.867698,770.45852 25.020636,771.62194 28.500285,772.71716 C32.140171,773.86279 36.928618,774.49361 41.983074,774.49361 C47.037433,774.49361 51.825856,773.86288 55.465935,772.71716 C58.945485,771.62194 59.09864,770.45852 59.326565,770.04415 L59.326565,761.40847 C55.600397,763.30181 49.22705,764.55121 41.983074,764.55121 C34.739074,764.55121 28.365727,763.30181 24.639364,761.40847 L24.639364,770.04415 L24.639364,770.04415 Z M24.639364,757.61624 C24.867698,758.03023 25.020636,759.19403 28.500285,760.28906 C32.140171,761.43459 36.928618,762.06551 41.983074,762.06551 C47.037433,762.06551 51.825856,761.43459 55.465935,760.28906 C58.945485,759.19403 59.09864,758.0302 59.326565,757.61624 L59.326565,748.81646 C55.598301,750.70852 49.223653,751.95608 41.983074,751.95608 C34.74247,751.95608 28.368015,750.70852 24.639364,748.81646 L24.639364,757.61624 L24.639364,757.61624 Z M28.500285,747.69373 C32.140171,748.83936 36.928618,749.47028 41.983074,749.47028 C47.037433,749.47028 51.825856,748.83936 55.465935,747.69373 C59.214794,746.51405 60.262979,745.25321 60.363356,744.93767 C60.262979,744.6221 59.214409,743.36118 55.46555,742.18141 C51.825471,741.03566 47.037217,740.40496 41.983074,740.40496 C36.928907,740.40496 32.140869,741.03566 28.500695,742.18141 C24.751736,743.36118 23.702949,744.6221 23.602886,744.93767 C23.702949,745.25321 24.751327,746.51415 28.500285,747.69373 L28.500285,747.69373 L28.500285,747.69373 Z" id="path4241-0" stroke-opacity="0.5" fill="url(#linearGradient-23)" sketch:type="MSShapeGroup"></path>
            <path d="M53.856826,723.79405 C53.855426,722.13116 54.737656,720.59397 56.170892,719.76212 C57.604127,718.93026 59.370353,718.93026 60.803588,719.76212 C62.236823,720.59397 63.119066,722.13116 63.117654,723.79405 C63.119054,725.45695 62.236823,726.99413 60.803588,727.82599 C59.370353,728.65784 57.604127,728.65784 56.170892,727.82599 C54.737656,726.99413 53.855414,725.45695 53.856826,723.79405 L53.856826,723.79405 L53.856826,723.79405 Z" id="path3969-6-85-1" stroke-opacity="0.5" fill="#FFFFFF" sketch:type="MSShapeGroup"></path>
            <path d="M92.343884,638.8356 C92.34313,637.17314 93.225516,635.63665 94.658482,634.8052 C96.09145,633.97375 97.85715,633.97375 99.29012,634.8052 C100.72308,635.63665 101.60547,637.17314 101.60471,638.8356 C101.60547,640.49805 100.72308,642.03454 99.29012,642.86599 C97.85715,643.69744 96.09145,643.69744 94.658482,642.86599 C93.225516,642.03454 92.34313,640.49805 92.343884,638.8356 L92.343884,638.8356 L92.343884,638.8356 Z" id="path3969-6-85-4-7" stroke-opacity="0.5" fill="#FFFFFF" sketch:type="MSShapeGroup"></path>
            <g id="a3595" transform="translate(59.000000, 643.000000)" stroke-opacity="0.75" fill="url(#linearGradient-24)" sketch:type="MSShapeGroup" stroke-dasharray="6,6">
                <path d="M35.049901,0.26829 C33.269258,-2.98427 8.846072,33.62336 0.578939,76.09838" id="path4051-8-8-8"></path>
            </g>
            <path d="M264.46831,676.14694 C264.46831,676.14694 241.63742,643.72383 173.75163,628.85288" id="path4051-8-4" stroke-opacity="0.5" fill="url(#linearGradient-25)" sketch:type="MSShapeGroup"></path>
            <path d="M271.75259,688.79492 L289.12504,691.27675 L289.12504,710.51399 L280.43881,715.32318 L262.79614,712.76333 L262.79614,693.68153 L271.75259,688.7949 L271.75259,688.79492 L271.75259,688.79492 Z M264.11262,694.75258 L264.15022,694.44797 L264.11262,694.46827 L264.11262,694.75245 L264.11262,694.75255 L264.11262,694.75258 Z M280.27178,695.48177 L286.28544,692.20695 L272.14754,690.18722 L272.14754,691.0479 L271.35768,691.0479 L271.35768,690.51525 L265.58975,693.66254 L280.27178,695.48175 L280.27178,695.48177 L280.27178,695.48177 Z M287.02951,709.54381 L287.80855,709.65726 L287.80855,692.88189 L281.09705,696.53672 L281.09705,713.44865 L286.93231,710.21805 L287.02951,709.54381 L287.02951,709.54381 Z M264.41936,711.66245 L264.24501,711.33773 L265.40388,710.71008 L265.77872,711.40854 L265.12152,711.76447 L279.78057,713.89141 L279.78057,709.29043 L279.09933,709.19123 L279.21244,708.40594 L279.78057,708.48864 L279.78057,696.7534 L272.14754,695.80776 L272.14754,696.33806 L271.35768,696.33806 L271.35768,695.70985 L264.11262,694.81196 L264.11262,711.61801 L264.41936,711.66251 L264.41936,711.66245 Z M284.42374,709.16459 L284.31062,709.94986 L285.61356,710.13944 L285.72666,709.35418 L284.42374,709.16459 L284.42374,709.16459 Z M271.68008,707.30974 L271.19723,707.57139 L271.57209,708.26982 L271.82507,708.13261 L272.58513,708.24323 L272.69823,707.45796 L271.68008,707.30974 L271.68008,707.30974 Z M281.705,709.57067 L283.00784,709.76023 L283.12096,708.97501 L281.81816,708.78538 L281.705,709.57067 L281.705,709.57067 Z M267.721,709.45468 L266.56244,710.08238 L266.93733,710.78084 L268.09589,710.15314 L267.721,709.45468 L267.721,709.45468 Z M276.60672,708.02678 L276.49363,708.812 L277.79645,709.00158 L277.90957,708.21632 L276.60672,708.02678 L276.60672,708.02678 Z M274.00108,707.64752 L273.88801,708.43281 L275.19078,708.62237 L275.3039,707.83715 L274.00108,707.64752 L274.00108,707.64752 Z M270.03862,708.19904 L268.8798,708.82674 L269.25466,709.5252 L270.41353,708.8975 L270.03862,708.19904 L270.03862,708.19904 Z M272.14754,692.37045 L271.35768,692.37045 L271.35768,693.693 L272.14754,693.693 L272.14754,692.37045 L272.14754,692.37045 Z M271.35768,704.27327 L272.14754,704.27327 L272.14754,702.95066 L271.35768,702.95066 L271.35768,704.27327 L271.35768,704.27327 Z M271.35768,706.91842 L272.14754,706.91842 L272.14754,705.59582 L271.35768,705.59582 L271.35768,706.91842 L271.35768,706.91842 Z M271.35768,698.98312 L272.14754,698.98312 L272.14754,697.66052 L271.35768,697.66052 L271.35768,698.98312 L271.35768,698.98312 Z M271.35768,701.62821 L272.14754,701.62821 L272.14754,700.30563 L271.35768,700.30563 L271.35768,701.62821 L271.35768,701.62821 Z" id="path3172-6-2-4" stroke-opacity="0.5" fill="url(#linearGradient-26)" sketch:type="MSShapeGroup"></path>
            <path d="M254.43728,701.49077 C254.43728,689.4511 264.15237,679.69102 276.13655,679.69102 C288.12073,679.69102 297.83583,689.4511 297.83583,701.49077 C297.83583,713.53045 288.12073,723.29053 276.13655,723.29053 C264.15237,723.29053 254.43728,713.53045 254.43728,701.49077 L254.43728,701.49077 L254.43728,701.49077 Z" id="path3969-65-9-9" stroke-opacity="0.5" fill="url(#linearGradient-27)" sketch:type="MSShapeGroup"></path>
            <path d="M262.60435,679.92238 C262.60335,678.25963 263.48544,676.72268 264.91859,675.89096 C266.35174,675.05924 268.11779,675.05924 269.55093,675.89096 C270.98408,676.72268 271.86637,678.25963 271.86518,679.92238 C271.86318,682.49022 269.79077,684.57088 267.23476,684.57088 C264.67876,684.57088 262.60619,682.49022 262.60435,679.92238 L262.60435,679.92238 L262.60435,679.92238 Z" id="path3969-6-85-4-8-2" stroke-opacity="0.5" fill="#FFFFFF" sketch:type="MSShapeGroup"></path>
            <path d="M202.06786,689.60376 L219.44031,692.08559 L219.44031,711.32282 L210.75408,716.13199 L193.11142,713.57217 L193.11142,694.49037 L202.06786,689.60371 L202.06786,689.60376 L202.06786,689.60376 Z M194.4279,695.56141 L194.4655,695.25683 L194.4279,695.27713 L194.4279,695.56131 L194.4279,695.56138 L194.4279,695.56141 Z M210.58707,696.29061 L216.60071,693.01577 L202.46281,690.99606 L202.46281,691.85673 L201.67296,691.85673 L201.67296,691.32411 L195.90503,694.47135 L210.58707,696.29058 L210.58707,696.29061 L210.58707,696.29061 Z M217.34478,710.35265 L218.12383,710.46607 L218.12383,693.69073 L211.41233,697.34553 L211.41233,714.25751 L217.24758,711.02686 L217.34478,710.35265 L217.34478,710.35265 Z M194.73465,712.47128 L194.56029,712.14654 L195.71916,711.51892 L196.09401,712.21738 L195.4368,712.57329 L210.09585,714.70022 L210.09585,710.09925 L209.41461,710.00005 L209.52773,709.21479 L210.09585,709.29749 L210.09585,697.56228 L202.46281,696.61662 L202.46281,697.14689 L201.67296,697.14689 L201.67296,696.51871 L194.4279,695.62084 L194.4279,712.42689 L194.73465,712.47129 L194.73465,712.47128 Z M214.73901,709.97341 L214.6259,710.75867 L215.92883,710.94826 L216.04195,710.16301 L214.73901,709.97341 L214.73901,709.97341 Z M201.99536,708.11857 L201.51251,708.38022 L201.88736,709.07868 L202.14036,708.94147 L202.9004,709.05204 L203.01351,708.26678 L201.99536,708.11857 L201.99536,708.11857 Z M212.02028,710.37948 L213.32311,710.56909 L213.43623,709.78382 L212.13345,709.59424 L212.02028,710.37948 L212.02028,710.37948 Z M198.03627,710.26349 L196.87771,710.89122 L197.25262,711.58968 L198.41118,710.96195 L198.03627,710.26349 L198.03627,710.26349 Z M206.92201,708.83562 L206.8089,709.62081 L208.11173,709.8104 L208.22485,709.02516 L206.92201,708.83562 L206.92201,708.83562 Z M204.31635,708.45638 L204.20328,709.24162 L205.50606,709.43123 L205.61918,708.64597 L204.31635,708.45638 L204.31635,708.45638 Z M200.3539,709.00785 L199.19509,709.63555 L199.56994,710.33401 L200.7288,709.70631 L200.3539,709.00785 L200.3539,709.00785 Z M202.46281,693.17926 L201.67296,693.17926 L201.67296,694.50184 L202.46281,694.50184 L202.46281,693.17926 L202.46281,693.17926 Z M201.67296,705.0821 L202.46281,705.0821 L202.46281,703.75953 L201.67296,703.75953 L201.67296,705.0821 L201.67296,705.0821 Z M201.67296,707.72724 L202.46281,707.72724 L202.46281,706.40466 L201.67296,706.40466 L201.67296,707.72724 L201.67296,707.72724 Z M201.67296,699.79196 L202.46281,699.79196 L202.46281,698.46936 L201.67296,698.46936 L201.67296,699.79196 L201.67296,699.79196 Z M201.67296,702.43702 L202.46281,702.43702 L202.46281,701.11449 L201.67296,701.11449 L201.67296,702.43702 L201.67296,702.43702 Z" id="path3172-6-2-2-8" stroke-opacity="0.5" fill="url(#linearGradient-28)" sketch:type="MSShapeGroup"></path>
            <path d="M184.75258,702.29964 C184.74958,694.5096 188.88529,687.31021 195.60013,683.41444 C202.31497,679.51868 210.58874,679.51868 217.30357,683.41444 C224.01841,687.31021 228.1537,694.5096 228.15112,702.29964 C228.15412,710.08967 224.01841,717.28906 217.30357,721.18483 C210.58874,725.08059 202.31497,725.08059 195.60013,721.18483 C188.88529,717.28906 184.75,710.08967 184.75258,702.29964 L184.75258,702.29964 L184.75258,702.29964 Z" id="path3969-65-9-3-6" stroke-opacity="0.5" fill="url(#linearGradient-29)" sketch:type="MSShapeGroup"></path>
            <path d="M192.91966,680.73117 C192.91966,678.16202 194.99277,676.07931 197.55008,676.07931 C200.10739,676.07931 202.1805,678.16202 202.1805,680.73117 C202.1805,683.30032 200.10739,685.38303 197.55008,685.38303 C194.99277,685.38303 192.91966,683.30032 192.91966,680.73117 L192.91966,680.73117 L192.91966,680.73117 Z" id="path3969-6-85-4-8-7-4" stroke-opacity="0.5" fill="#FFFFFF" sketch:type="MSShapeGroup"></path>
            <path d="M164.86717,626.99928 C164.86717,624.43013 166.94028,622.34742 169.49759,622.34742 C172.05489,622.34742 174.128,624.43013 174.128,626.99928 C174.128,629.56843 172.05489,631.65114 169.49759,631.65114 C166.94028,631.65114 164.86717,629.56843 164.86717,626.99928 L164.86717,626.99928 L164.86717,626.99928 Z" id="path3969-6-85-4-5-6" stroke-opacity="0.5" fill="#FFFFFF" sketch:type="MSShapeGroup"></path>
            <path d="M197.19611,675.75105 C197.19611,675.75105 194.72979,652.62739 173.86765,629.3869" id="path4051-8-3-6" stroke-opacity="0.5" fill="url(#linearGradient-30)" sketch:type="MSShapeGroup"></path>
            <path d="M79.76521,437.5037 C79.76521,434.93455 81.838318,432.85184 84.395627,432.85184 C86.952936,432.85184 89.026044,434.93455 89.026044,437.5037 C89.026044,439.16564 88.143492,440.70135 86.710836,441.53233 C85.27818,442.3633 83.513075,442.3633 82.080418,441.53233 C80.647762,440.70135 79.76521,439.16564 79.76521,437.5037 L79.76521,437.5037 L79.76521,437.5037 Z" id="path3969-6-8-1-6" stroke-opacity="0.5" fill="#FFFFFF" sketch:type="MSShapeGroup"></path>
            <g id="a3608" transform="translate(29.000000, 372.000000)" stroke-opacity="0.75" fill="url(#linearGradient-31)" sketch:type="MSShapeGroup" stroke-dasharray="6,6">
                <path d="M0.373879,0.56263 C0.373879,0.56263 16.791056,36.84005 52.997176,61.26652" id="path4051-5-6"></path>
            </g>
            <path d="M22.946859,368.60063 C22.946325,366.93833 23.828761,365.40206 25.261636,364.57075 C26.694511,363.73945 28.460041,363.73945 29.892916,364.57075 C31.325791,365.40206 32.208227,366.93833 32.207693,368.60063 C32.206868,371.1692 30.134002,373.25099 27.577276,373.25099 C25.02055,373.25099 22.947684,371.1692 22.946859,368.60063 L22.946859,368.60063 L22.946859,368.60063 Z" id="path3969-6-8-1-6-2" stroke-opacity="0.5" fill="#FFFFFF" sketch:type="MSShapeGroup"></path>
            <path d="M92.339948,368.40236 C92.338748,366.73962 93.221046,365.20266 94.654192,364.37094 C96.08734,363.53922 97.85339,363.53922 99.28654,364.37094 C100.71968,365.20266 101.60197,366.73962 101.60078,368.40236 C101.59878,370.9702 99.52637,373.05087 96.97036,373.05087 C94.41436,373.05087 92.341792,370.9702 92.339948,368.40236 L92.339948,368.40236 L92.339948,368.40236 Z" id="path3969-6-8-1-6-2-0" stroke-opacity="0.5" fill="#FFFFFF" sketch:type="MSShapeGroup"></path>
            <path d="M94.644666,372.26001 C94.644666,372.26001 80.394465,398.50644 84.269086,432.48619" id="path4051-5-6-2" stroke-opacity="0.5" fill="url(#linearGradient-32)" sketch:type="MSShapeGroup"></path>
        </g>
    </g>
</svg>