<?xml version="1.0" encoding="UTF-8" standalone="no"?>
<svg width="110px" height="252px" viewBox="0 0 110 252" version="1.1" xmlns="http://www.w3.org/2000/svg" xmlns:xlink="http://www.w3.org/1999/xlink" xmlns:sketch="http://www.bohemiancoding.com/sketch/ns">
    <!-- Generator: Sketch 3.2.2 (9983) - http://www.bohemiancoding.com/sketch -->
    <title>services_bg</title>
    <desc>Created with Sketch.</desc>
    <defs></defs>
    <g id="Page-1" stroke="none" stroke-width="1" fill="none" fill-rule="evenodd" sketch:type="MSPage">
        <g id="services_bg" sketch:type="MSLayerGroup" transform="translate(5.000000, 5.000000)" stroke="#FBFBFB" stroke-opacity="0.5">
            <path d="M58.916874,52.0860149 L47.8251877,53.6705664 L47.8251877,65.9528569 L53.371032,69.023361 L64.6352374,67.3889817 L64.6352374,55.2059677 L58.916874,52.0860149 L58.916874,52.0860149 Z M63.8006023,55.8897548 L63.7707293,55.6952917 L63.8006023,55.7083193 L63.8006023,55.8897548 L63.8006023,55.8897548 Z M53.4776644,56.3553144 L49.6381706,54.2644667 L58.664712,52.9749374 L58.664712,53.5244629 L59.1690046,53.5244629 L59.1690046,53.1843884 L62.8516183,55.1938031 L53.4776644,56.3553144 L53.4776644,56.3553144 Z M49.1631077,65.3334337 L48.6657109,65.4058563 L48.6657109,54.695388 L52.9507704,57.0288649 L52.9507704,67.8265419 L49.2251676,65.7638953 L49.1631077,65.3334337 L49.1631077,65.3334337 Z M63.5988694,66.6861008 L63.710187,66.4787794 L62.9702925,66.0780516 L62.7309633,66.523985 L63.1505649,66.7512311 L53.791292,68.109206 L53.791292,65.1716567 L54.2262355,65.1083092 L54.1540143,64.6069497 L53.791292,64.6597219 L53.791292,57.1672163 L58.664712,56.5634344 L58.664712,56.9020166 L59.1690046,56.9020166 L59.1690046,56.5009258 L63.7947158,55.9276762 L63.7947158,66.6577303 L63.5988694,66.6861008 L63.5988694,66.6861008 Z M50.8267992,65.0913047 L50.8990196,65.5926641 L50.0671409,65.7137125 L49.9949205,65.2123531 L50.8267992,65.0913047 L50.8267992,65.0913047 Z M58.9631639,63.9070535 L59.271448,64.0741061 L59.0321187,64.5200475 L58.8705864,64.4324435 L58.3853293,64.503043 L58.3131089,64.0016835 L58.9631639,63.9070535 L58.9631639,63.9070535 Z M52.5626115,65.3505754 L51.7307995,65.4716157 L51.6585783,64.9702643 L52.4903566,64.8492159 L52.5626115,65.3505754 L52.5626115,65.3505754 Z M61.4908994,65.2765234 L62.2305963,65.6772835 L61.9912342,66.1232249 L61.251538,65.7224649 L61.4908994,65.2765234 L61.4908994,65.2765234 Z M55.8176713,64.364861 L55.8898933,64.8661882 L55.0580805,64.9872285 L54.9858601,64.4858691 L55.8176713,64.364861 L55.8176713,64.364861 Z M57.4812961,64.1227319 L57.5534844,64.6240914 L56.7217045,64.7451398 L56.6494833,64.2437803 L57.4812961,64.1227319 L57.4812961,64.1227319 Z M60.011177,64.4748339 L60.7510394,64.875602 L60.5117102,65.3215354 L59.7718149,64.9207753 L60.011177,64.4748339 L60.011177,64.4748339 Z M58.664712,54.3688413 L59.1690046,54.3688413 L59.1690046,55.2132599 L58.664712,55.2132599 L58.664712,54.3688413 L58.664712,54.3688413 Z M59.1690046,61.9683753 L58.664712,61.9683753 L58.664712,61.1239567 L59.1690046,61.1239567 L59.1690046,61.9683753 L59.1690046,61.9683753 Z M59.1690046,63.6572046 L58.664712,63.6572046 L58.664712,62.8127859 L59.1690046,62.8127859 L59.1690046,63.6572046 L59.1690046,63.6572046 Z M59.1690046,58.5908136 L58.664712,58.5908136 L58.664712,57.746403 L59.1690046,57.746403 L59.1690046,58.5908136 L59.1690046,58.5908136 Z M59.1690046,60.2796106 L58.664712,60.2796106 L58.664712,59.4351919 L59.1690046,59.4351919 L59.1690046,60.2796106 L59.1690046,60.2796106 Z" id="path3172" fill="#FBFBFB" sketch:type="MSShapeGroup"></path>
            <path d="M69.9720582,60.1918614 C69.9744421,55.2177142 67.3343671,50.6203877 63.0468822,48.1326224 C58.7593973,45.6448572 53.4763098,45.6448572 49.1888249,48.1326224 C44.90134,50.6203877 42.261265,55.2177142 42.2636489,60.1918614 C42.261265,65.1660086 44.90134,69.7633351 49.1888249,72.2511004 C53.4763098,74.7388656 58.7593973,74.7388656 63.0468822,72.2511004 C67.3343671,69.7633351 69.9744421,65.1660086 69.9720582,60.1918614 L69.9720582,60.1918614 Z" id="path3969" stroke-width="9.70045948" fill-opacity="0" fill="#34495E" sketch:type="MSShapeGroup"></path>
            <path d="M63.1891907,47.6693617 C63.1891907,46.8129782 62.4981547,46.1187422 61.6457187,46.1187422 C60.7932826,46.1187422 60.1022466,46.8129782 60.1022466,47.6693617 C60.1022466,48.5257451 60.7932826,49.2199811 61.6457187,49.2199811 C62.4981547,49.2199811 63.1891907,48.5257451 63.1891907,47.6693617 L63.1891907,47.6693617 Z" id="path3969-6" stroke-width="9.70045853" fill="#FFFFFF" sketch:type="MSShapeGroup"></path>
            <path d="M69.3222561,6.21126073 L58.2305715,7.79582027 L58.2305715,20.0781108 L63.776415,23.1486068 L75.040622,21.5142356 L75.040622,9.33121347 L69.3222561,6.21126073 L69.3222561,6.21126073 Z M74.2059815,10.0150087 L74.1761115,9.82054553 L74.2059815,9.83356513 L74.2059815,10.0150087 L74.2059815,10.0150087 Z M63.8830473,10.4805683 L60.0435543,8.38972053 L69.0700982,7.10019127 L69.0700982,7.64970873 L69.57439,7.64970873 L69.57439,7.30964227 L73.2570005,9.31904893 L63.8830473,10.4805683 L63.8830473,10.4805683 Z M59.5684915,19.4586876 L59.0710939,19.5311101 L59.0710939,8.82064187 L63.3561534,11.1541188 L63.3561534,21.9517877 L59.6305506,19.8891491 L59.5684915,19.4586876 L59.5684915,19.4586876 Z M74.0042564,20.8113547 L74.1155692,20.6040333 L73.3756763,20.2032974 L73.1363495,20.6492389 L73.5559462,20.8764849 L64.196675,22.2344599 L64.196675,19.2969025 L64.6316161,19.2335631 L64.5593989,18.7322036 L64.196675,18.7849757 L64.196675,11.2924621 L69.0700982,10.6886883 L69.0700982,11.0272705 L69.57439,11.0272705 L69.57439,10.6261797 L74.2000956,10.052922 L74.2000956,20.7829842 L74.0042564,20.8113547 L74.0042564,20.8113547 Z M61.2321822,19.2165585 L61.3044026,19.717918 L60.4725247,19.8389664 L60.4003035,19.3376069 L61.2321822,19.2165585 L61.2321822,19.2165585 Z M69.3685461,18.0323073 L69.6768301,18.1993599 L69.4375033,18.6453014 L69.2759661,18.5576974 L68.7907123,18.6282969 L68.7184951,18.1269374 L69.3685461,18.0323073 L69.3685461,18.0323073 Z M62.9679953,19.4758212 L62.1361825,19.5968696 L62.0639621,19.0955101 L62.8957396,18.9744617 L62.9679953,19.4758212 L62.9679953,19.4758212 Z M71.896284,19.4017773 L72.6359761,19.8025373 L72.3966172,20.2484788 L71.656917,19.8477187 L71.896284,19.4017773 L71.896284,19.4017773 Z M66.2230518,18.4901068 L66.2952771,18.991434 L65.4634626,19.1124824 L65.3912455,18.6111229 L66.2230518,18.4901068 L66.2230518,18.4901068 Z M67.8866807,18.2479858 L67.9588658,18.7493372 L67.1270915,18.8703856 L67.0548663,18.3690261 L67.8866807,18.2479858 L67.8866807,18.2479858 Z M70.4165624,18.6000877 L71.1564232,19.0008478 L70.9170964,19.4467893 L70.1771955,19.0460292 L70.4165624,18.6000877 L70.4165624,18.6000877 Z M69.0700982,8.49409513 L69.57439,8.49409513 L69.57439,9.33850573 L69.0700982,9.33850573 L69.0700982,8.49409513 L69.0700982,8.49409513 Z M69.57439,16.0936292 L69.0700982,16.0936292 L69.0700982,15.2492105 L69.57439,15.2492105 L69.57439,16.0936292 L69.57439,16.0936292 Z M69.57439,17.7824504 L69.0700982,17.7824504 L69.0700982,16.9380398 L69.57439,16.9380398 L69.57439,17.7824504 L69.57439,17.7824504 Z M69.57439,12.7160675 L69.0700982,12.7160675 L69.0700982,11.8716488 L69.57439,11.8716488 L69.57439,12.7160675 L69.57439,12.7160675 Z M69.57439,14.4048645 L69.0700982,14.4048645 L69.0700982,13.5604458 L69.57439,13.5604458 L69.57439,14.4048645 L69.57439,14.4048645 Z" id="path3172-6" opacity="0.98999999" fill="#FBFBFB" sketch:type="MSShapeGroup"></path>
            <path d="M80.377442,14.3171153 C80.3801074,9.34277982 77.7400941,4.74515824 73.4524937,2.25721719 C69.1648933,-0.230723865 63.8815822,-0.230723865 59.5939818,2.25721719 C55.3063814,4.74515824 52.6663681,9.34277982 52.6690335,14.3171153 C52.6663681,19.2914507 55.3063814,23.8890723 59.5939818,26.3770133 C63.8815822,28.8649544 69.1648933,28.8649544 73.4524937,26.3770133 C77.7400941,23.8890723 80.3801074,19.2914507 80.377442,14.3171153 L80.377442,14.3171153 Z" id="path3969-65" stroke-width="9.7007103" opacity="0.98999999" fill-opacity="0" fill="#EDEDED" sketch:type="MSShapeGroup"></path>
            <path d="M65.5737556,28.1463101 C65.5737556,27.2899264 64.8827195,26.5956903 64.0302832,26.5956903 C63.1778469,26.5956903 62.4868108,27.2899264 62.4868108,28.1463101 C62.4868108,29.0026938 63.1778469,29.69693 64.0302832,29.69693 C64.8827195,29.69693 65.5737556,29.0026938 65.5737556,28.1463101 L65.5737556,28.1463101 Z" id="path3969-6-8" stroke-width="9.70045853" fill="#FFFFFF" sketch:type="MSShapeGroup"></path>
            <path d="M64.1386724,29.7022975 C64.1386724,29.7022975 65.0057901,38.8491635 61.9708843,46.0359907" id="path4051" stroke-width="5.38914394" stroke-dasharray="10.77828803,10.77828803" sketch:type="MSShapeGroup"></path>
            <path d="M99.6109875,109.675174 C99.613653,104.700839 96.9736396,100.103217 92.6860392,97.6152763 C88.3984389,95.1273353 83.1151278,95.1273353 78.8275274,97.6152763 C74.539927,100.103217 71.8999136,104.700839 71.9025791,109.675174 C71.8999136,114.64951 74.539927,119.247131 78.8275274,121.735072 C83.1151278,124.223014 88.3984389,124.223014 92.6860392,121.735072 C96.9736396,119.247131 99.613653,114.64951 99.6109875,109.675174 L99.6109875,109.675174 Z" id="path3969-7" stroke-width="9.70045948" fill-opacity="0" fill="#34495E" sketch:type="MSShapeGroup"></path>
            <path d="M92.6101685,103.746925 C92.6101685,102.454927 89.5042195,101.407446 85.6727503,101.407446 C81.8412892,101.407446 78.735341,102.454927 78.735341,103.746925 L78.735341,116.202947 L78.7374286,116.202947 C78.78192,117.48199 81.869007,118.514434 85.6727423,118.514434 C89.4764857,118.514434 92.5635734,117.48199 92.6080247,116.202947 L92.6101123,116.202947 L92.6101123,103.804271 L92.6056158,103.806287 C92.6071414,103.786475 92.6101123,103.766817 92.6101123,103.7469 L92.6101685,103.746925 Z M91.453987,116.202947 C91.3778756,116.340774 91.3268964,116.728877 90.1670133,117.093652 C88.9537181,117.475528 87.357569,117.685907 85.6727503,117.685907 C83.9879638,117.685907 82.3918228,117.475528 81.1784633,117.093652 C80.0186131,116.728877 79.9675617,116.340774 79.8915867,116.202947 L79.8915867,113.379864 C81.1336427,114.011016 83.2580917,114.427409 85.6727503,114.427409 C88.087417,114.427409 90.211866,114.011016 91.453987,113.379864 L91.453987,116.202947 L91.453987,116.202947 Z M91.453987,112.115752 C91.3778756,112.253878 91.3268964,112.641683 90.1670133,113.006756 C88.9537181,113.388632 87.357569,113.598906 85.6727503,113.598906 C83.9879638,113.598906 82.3918228,113.388664 81.1784633,113.006756 C80.0186131,112.641683 79.9675617,112.253878 79.8915867,112.115752 L79.8915867,109.237195 C81.1336427,109.868307 83.2580917,110.284772 85.6727503,110.284772 C88.087417,110.284772 90.211866,109.868307 91.453987,109.237195 L91.453987,112.115752 L91.453987,112.115752 Z M91.453987,107.973116 C91.3778756,108.111112 91.3268964,108.499046 90.1670133,108.864055 C88.9537181,109.245899 87.357569,109.456205 85.6727503,109.456205 C83.9879638,109.456205 82.3918228,109.245899 81.1784633,108.864055 C80.0186131,108.499046 79.9675617,108.111104 79.8915867,107.973116 L79.8915867,105.039858 C81.1343413,105.670542 83.2592239,106.086395 85.6727503,106.086395 C88.0862848,106.086395 90.2111032,105.670542 91.453987,105.039858 L91.453987,107.973116 L91.453987,107.973116 Z M90.1670133,104.665613 C88.9537181,105.047489 87.357569,105.257795 85.6727503,105.257795 C83.9879638,105.257795 82.3918228,105.047489 81.1784633,104.665613 C79.9288435,104.272387 79.5794485,103.852106 79.5459897,103.746925 C79.5794485,103.641735 79.928972,103.22143 81.1785918,102.828172 C82.3919512,102.446255 83.9880361,102.236022 85.6727503,102.236022 C87.3574726,102.236022 88.9534852,102.446255 90.1668768,102.828172 C91.4165295,103.22143 91.7661252,103.641735 91.7994797,103.746925 C91.7661252,103.852106 91.416666,104.27242 90.1670133,104.665613 L90.1670133,104.665613 Z" id="path4241" fill="#FBFBFB" sketch:type="MSShapeGroup"></path>
            <path d="M81.7148329,96.6990537 C81.7153037,96.1447559 81.4212228,95.632361 80.9434778,95.3550754 C80.4657327,95.0777898 79.8769906,95.0777898 79.3992455,95.3550754 C78.9215005,95.632361 78.6274195,96.1447559 78.6278904,96.6990537 C78.6274195,97.2533516 78.9215005,97.7657465 79.3992455,98.0430321 C79.8769906,98.3203176 80.4657327,98.3203176 80.9434778,98.0430321 C81.4212228,97.7657465 81.7153037,97.2533516 81.7148329,96.6990537 L81.7148329,96.6990537 Z" id="path3969-6-85" stroke-width="9.70045853" fill="#FFFFFF" sketch:type="MSShapeGroup"></path>
            <path d="M11.5110036,80.8166825 C11.5110036,80.8166825 19.1213014,70.0089786 41.7498968,65.0519958" id="path4051-8" stroke-width="5.38914394" stroke-dasharray="10.77828803,10.77828803" sketch:type="MSShapeGroup"></path>
            <path d="M68.8858135,68.3795684 C68.8860651,67.8254171 68.5919361,67.313252 68.114281,67.0361033 C67.6366259,66.7589547 67.0480579,66.7589547 66.5704027,67.0361033 C66.0927476,67.313252 65.7986186,67.8254171 65.7988703,68.3795684 C65.7986186,68.9337197 66.0927476,69.4458848 66.5704027,69.7230335 C67.0480579,70.0001821 67.6366259,70.0001821 68.114281,69.7230335 C68.5919361,69.4458848 68.8860651,68.9337197 68.8858135,68.3795684 L68.8858135,68.3795684 Z" id="path3969-6-85-4" stroke-width="9.70045853" fill="#FFFFFF" sketch:type="MSShapeGroup"></path>
            <path d="M9.08291486,85.0326774 L3.29209722,85.8599544 L3.29209722,92.2723655 L6.18750676,93.87543 L12.0683927,93.0221461 L12.0683927,86.6615471 L9.08291486,85.0326693 L9.08291486,85.0326774 Z M11.632642,87.0185617 L11.617045,86.9170265 L11.632642,86.9238025 L11.632642,87.0185294 L11.632642,87.0185617 Z M6.24317759,87.2616265 L4.23863129,86.1700209 L8.95126344,85.4967769 L8.95126344,85.7836679 L9.21454782,85.7836679 L9.21454782,85.6061206 L11.1371902,86.6552148 L6.24317759,87.2616184 L6.24317759,87.2616265 Z M3.99060775,91.9489729 L3.73092299,91.9867894 L3.73092299,86.3950003 L5.96809308,87.6132767 L5.96809308,93.250586 L4.02300752,92.1737183 L3.99060775,91.9489729 L3.99060775,91.9489729 Z M11.5273195,92.6551853 L11.5854369,92.5469468 L11.1991489,92.3377297 L11.0741981,92.5705499 L11.2932665,92.6891944 L6.40691885,93.3981737 L6.40691885,91.8645149 L6.63399668,91.8314496 L6.59629022,91.5696863 L6.40691885,91.597242 L6.40691885,87.6854975 L8.95126344,87.3702845 L8.95126344,87.5470493 L9.21454782,87.5470493 L9.21454782,87.3376467 L11.6295686,87.0383492 L11.6295686,92.6403669 L11.5273195,92.6551853 L11.5273195,92.6551853 Z M4.85919641,91.8225682 L4.89690287,92.0843235 L4.46259047,92.1475177 L4.42488562,91.8857625 L4.85919641,91.8225682 L4.85919641,91.8225682 Z M9.1070812,91.2042824 L9.26803221,91.2914992 L9.14308139,91.5243113 L9.05874852,91.4785733 L8.80540143,91.515446 L8.76769658,91.2536907 L9.1070812,91.2042824 L9.1070812,91.2042824 Z M5.76544014,91.9579269 L5.33116387,92.0211131 L5.29345742,91.7593739 L5.72771842,91.6961635 L5.76544014,91.9579269 L5.76544014,91.9579269 Z M10.4267783,91.9192633 L10.8129636,92.1284965 L10.6879959,92.3613167 L10.3018098,92.1520835 L10.4267783,91.9192633 L10.4267783,91.9192633 Z M7.46486362,91.4432977 L7.50256847,91.7050369 L7.06829141,91.7682311 L7.03058575,91.5064759 L7.46486362,91.4432977 L7.46486362,91.4432977 Z M8.33341871,91.3168769 L8.37110751,91.5786403 L7.93684634,91.6418265 L7.89914068,91.3800873 L8.33341871,91.3168769 L8.33341871,91.3168769 Z M9.65423515,91.5007163 L10.0405055,91.7099495 L9.91555552,91.9427696 L9.52926747,91.7335364 L9.65423515,91.5007163 L9.65423515,91.5007163 Z M8.95126344,86.2245193 L9.21454782,86.2245193 L9.21454782,86.6653707 L8.95126344,86.6653707 L8.95126344,86.2245193 L8.95126344,86.2245193 Z M9.21454782,90.1921255 L8.95126344,90.1921255 L8.95126344,89.7512579 L9.21454782,89.7512579 L9.21454782,90.1921255 L9.21454782,90.1921255 Z M9.21454782,91.0738444 L8.95126344,91.0738444 L8.95126344,90.6329769 L9.21454782,90.6329769 L9.21454782,91.0738444 L9.21454782,91.0738444 Z M9.21454782,88.4287441 L8.95126344,88.4287441 L8.95126344,87.9878765 L9.21454782,87.9878765 L9.21454782,88.4287441 L9.21454782,88.4287441 Z M9.21454782,89.3104388 L8.95126344,89.3104388 L8.95126344,88.8695793 L9.21454782,88.8695793 L9.21454782,89.3104388 L9.21454782,89.3104388 Z" id="path3172-6-2" fill="#FBFBFB" sketch:type="MSShapeGroup"></path>
            <path d="M14.8546808,89.2646282 C14.8554364,86.6680217 13.4769826,84.2683335 11.2387466,82.9698111 C9.00051054,81.6712887 6.24267184,81.6712887 4.00443579,82.9698111 C1.76619974,84.2683335 0.387745933,86.6680217 0.388501594,89.2646282 C0.387745933,91.8612347 1.76619974,94.2609229 4.00443579,95.5594453 C6.24267184,96.8579677 9.00051054,96.8579677 11.2387466,95.5594453 C13.4769826,94.2609229 14.8554364,91.8612347 14.8546808,89.2646282 L14.8546808,89.2646282 Z" id="path3969-65-9" stroke-width="9.7007103" fill-opacity="0" fill="#34495E" sketch:type="MSShapeGroup"></path>
            <path d="M12.1323235,82.0751631 C12.1323235,81.2187797 11.4412875,80.5245437 10.5888515,80.5245437 C9.7364154,80.5245437 9.04537943,81.2187797 9.04537943,82.0751631 C9.04537943,82.9315466 9.7364154,83.6257826 10.5888515,83.6257826 C11.4412875,83.6257826 12.1323235,82.9315466 12.1323235,82.0751631 L12.1323235,82.0751631 Z" id="path3969-6-85-4-8" stroke-width="9.70045853" fill="#FFFFFF" sketch:type="MSShapeGroup"></path>
            <path d="M32.3111554,85.3022896 L26.5203371,86.1295666 L26.5203371,92.5419777 L29.4157466,94.1450341 L35.2966332,93.2917583 L35.2966332,86.9311593 L32.3111554,85.3022735 L32.3111554,85.3022896 Z M34.8608815,87.2881739 L34.8452855,87.1866468 L34.8608815,87.1934228 L34.8608815,87.2881497 L34.8608815,87.2881739 Z M29.4714182,87.5312387 L27.466872,86.4396251 L32.1795039,85.7663891 L32.1795039,86.0532801 L32.4427875,86.0532801 L32.4427875,85.8757409 L34.3654307,86.9248189 L29.4714182,87.5312306 L29.4714182,87.5312387 Z M27.2188476,92.2185851 L26.9591636,92.2563935 L26.9591636,86.6646125 L29.1963329,87.8828808 L29.1963329,93.5202063 L27.2512474,92.4433224 L27.2188476,92.2185851 L27.2188476,92.2185851 Z M34.7555592,92.9247975 L34.8136766,92.8165509 L34.4273886,92.6073419 L34.3024386,92.8401621 L34.521507,92.9587985 L29.6351595,93.6677779 L29.6351595,92.134119 L29.8622365,92.1010537 L29.8245309,91.8392985 L29.6351595,91.8668542 L29.6351595,87.9551178 L32.1795039,87.6398967 L32.1795039,87.8166535 L32.4427875,87.8166535 L32.4427875,87.6072589 L34.8578083,87.3079695 L34.8578083,92.9099871 L34.7555592,92.9247975 L34.7555592,92.9247975 Z M28.0874371,92.0921723 L28.1251427,92.3539276 L27.6908303,92.4171219 L27.6531263,92.1553747 L28.0874371,92.0921723 L28.0874371,92.0921723 Z M32.3353217,91.4738946 L32.4962727,91.5611114 L32.3713211,91.7939315 L32.286989,91.7481935 L32.0336411,91.7850501 L31.9959371,91.5232949 L32.3353217,91.4738946 L32.3353217,91.4738946 Z M28.9936808,92.227531 L28.5594037,92.2907333 L28.5216981,92.0289781 L28.9559591,91.9657838 L28.9936808,92.227531 L28.9936808,92.227531 Z M33.655018,92.1888675 L34.0412033,92.3981087 L33.9162364,92.6309289 L33.5300495,92.4216876 L33.655018,92.1888675 L33.655018,92.1888675 Z M30.6931043,91.7129099 L30.7308083,91.974641 L30.2965321,92.0378353 L30.2588256,91.7760881 L30.6931043,91.7129099 L30.6931043,91.7129099 Z M31.5616584,91.5864972 L31.599348,91.8482444 L31.165087,91.9114467 L31.1273805,91.6496915 L31.5616584,91.5864972 L31.5616584,91.5864972 Z M32.8824748,91.7703204 L33.268746,91.9795536 L33.143796,92.2123737 L32.757508,92.0031405 L32.8824748,91.7703204 L32.8824748,91.7703204 Z M32.1795039,86.4941235 L32.4427875,86.4941235 L32.4427875,86.9349829 L32.1795039,86.9349829 L32.1795039,86.4941235 L32.1795039,86.4941235 Z M32.4427875,90.4617377 L32.1795039,90.4617377 L32.1795039,90.0208782 L32.4427875,90.0208782 L32.4427875,90.4617377 L32.4427875,90.4617377 Z M32.4427875,91.3434485 L32.1795039,91.3434485 L32.1795039,90.9025891 L32.4427875,90.9025891 L32.4427875,91.3434485 L32.4427875,91.3434485 Z M32.4427875,88.6983563 L32.1795039,88.6983563 L32.1795039,88.2574887 L32.4427875,88.2574887 L32.4427875,88.6983563 L32.4427875,88.6983563 Z M32.4427875,89.5800429 L32.1795039,89.5800429 L32.1795039,89.1391996 L32.4427875,89.1391996 L32.4427875,89.5800429 L32.4427875,89.5800429 Z" id="path3172-6-2-2" fill="#FBFBFB" sketch:type="MSShapeGroup"></path>
            <path d="M38.0829141,89.5342485 C38.0837752,86.9375714 36.7053445,84.5377726 34.4670652,83.2391842 C32.2287858,81.9405959 29.4708633,81.9405959 27.2325839,83.2391842 C24.9943046,84.5377726 23.6158739,86.9375714 23.6167351,89.5342485 C23.6158739,92.1309255 24.9943046,94.5307244 27.2325839,95.8293127 C29.4708633,97.1279011 32.2287858,97.1279011 34.4670652,95.8293127 C36.7053445,94.5307244 38.0837752,92.1309255 38.0829141,89.5342485 L38.0829141,89.5342485 Z" id="path3969-65-9-3" stroke-width="9.7007103" fill-opacity="0" fill="#34495E" sketch:type="MSShapeGroup"></path>
            <path d="M35.3605536,82.3447592 C35.3605536,81.4883757 34.6695176,80.7941398 33.8170815,80.7941398 C32.9646455,80.7941398 32.2736095,81.4883757 32.2736095,82.3447592 C32.2736095,83.2011427 32.9646455,83.8953786 33.8170815,83.8953786 C34.6695176,83.8953786 35.3605536,83.2011427 35.3605536,82.3447592 L35.3605536,82.3447592 Z" id="path3969-6-85-4-8-7" stroke-width="9.70045853" fill="#FFFFFF" sketch:type="MSShapeGroup"></path>
            <path d="M44.711385,64.4341295 C44.711385,63.577746 44.020349,62.88351 43.167913,62.88351 C42.3154769,62.88351 41.6244409,63.577746 41.6244409,64.4341295 C41.6244409,65.2905129 42.3154769,65.9847489 43.167913,65.9847489 C44.020349,65.9847489 44.711385,65.2905129 44.711385,64.4341295 L44.711385,64.4341295 Z" id="path3969-6-85-4-5" stroke-width="9.70045853" fill="#FFFFFF" sketch:type="MSShapeGroup"></path>
            <path d="M68.3171413,69.8571317 C68.9106888,68.7729475 77.0517508,80.9754909 79.8074618,95.13383" id="path4051-8-8" stroke-width="5.38914394" stroke-dasharray="10.77828803,10.77828803" sketch:type="MSShapeGroup"></path>
            <path d="M33.9350704,80.6847199 C33.9350704,80.6847199 34.7571788,72.9768343 41.7112244,65.2300029" id="path4051-8-3" stroke-width="5.38914394" stroke-dasharray="10.77828803,10.77828803" sketch:type="MSShapeGroup"></path>
            <path d="M41.0835677,169.984979 L52.1752539,171.56953 L52.1752539,183.851821 L46.6294096,186.922325 L35.3652042,185.287945 L35.3652042,173.104931 L41.0835677,169.984979 L41.0835677,169.984979 Z M36.2057258,173.788718 L36.2355988,173.594255 L36.2057258,173.607283 L36.2057258,173.788718 L36.2057258,173.788718 Z M46.5227772,174.254278 L50.3622711,172.16343 L41.3357296,170.873901 L41.3357296,171.423427 L40.831437,171.423427 L40.831437,171.083352 L37.1488233,173.092767 L46.5227772,174.254278 L46.5227772,174.254278 Z M50.8373339,183.232397 L51.3347307,183.30482 L51.3347307,172.594352 L47.0496712,174.927829 L47.0496712,185.725506 L50.775274,183.662859 L50.8373339,183.232397 L50.8373339,183.232397 Z M36.4015722,184.585064 L36.2902546,184.377743 L37.0301491,183.977015 L37.2694783,184.422949 L36.8498767,184.650195 L46.2091496,186.00817 L46.2091496,183.07062 L45.7742061,183.007273 L45.8464273,182.505913 L46.2091496,182.558685 L46.2091496,175.06618 L41.3357296,174.462398 L41.3357296,174.80098 L40.831437,174.80098 L40.831437,174.399889 L36.2057258,173.82664 L36.2057258,184.556694 L36.4015722,184.585064 L36.4015722,184.585064 Z M49.1736424,182.990268 L49.101422,183.491628 L49.9333007,183.612676 L50.0055211,183.111317 L49.1736424,182.990268 L49.1736424,182.990268 Z M41.0372777,181.806017 L40.7289937,181.97307 L40.9683229,182.419011 L41.1298552,182.331407 L41.6151123,182.402007 L41.6873327,181.900647 L41.0372777,181.806017 L41.0372777,181.806017 Z M47.4378301,183.249539 L48.2696421,183.370579 L48.3418633,182.869228 L47.510085,182.74818 L47.4378301,183.249539 L47.4378301,183.249539 Z M38.5095422,183.175487 L37.7698453,183.576247 L38.0092074,184.022189 L38.7489036,183.621428 L38.5095422,183.175487 L38.5095422,183.175487 Z M44.1827703,182.263825 L44.1105483,182.765152 L44.9423612,182.886192 L45.0145815,182.384833 L44.1827703,182.263825 L44.1827703,182.263825 Z M42.5191455,182.021696 L42.4469572,182.523055 L43.2787371,182.644103 L43.3509583,182.142744 L42.5191455,182.021696 L42.5191455,182.021696 Z M39.9892646,182.373797 L39.2494022,182.774566 L39.4887314,183.220499 L40.2286267,182.819739 L39.9892646,182.373797 L39.9892646,182.373797 Z M41.3357296,172.267805 L40.831437,172.267805 L40.831437,173.112224 L41.3357296,173.112224 L41.3357296,172.267805 L41.3357296,172.267805 Z M40.831437,179.867339 L41.3357296,179.867339 L41.3357296,179.02292 L40.831437,179.02292 L40.831437,179.867339 L40.831437,179.867339 Z M40.831437,181.556168 L41.3357296,181.556168 L41.3357296,180.71175 L40.831437,180.71175 L40.831437,181.556168 L40.831437,181.556168 Z M40.831437,176.489777 L41.3357296,176.489777 L41.3357296,175.645367 L40.831437,175.645367 L40.831437,176.489777 L40.831437,176.489777 Z M40.831437,178.178574 L41.3357296,178.178574 L41.3357296,177.334156 L40.831437,177.334156 L40.831437,178.178574 L40.831437,178.178574 Z" id="path3172-9" fill="#FBFBFB" sketch:type="MSShapeGroup"></path>
            <path d="M30.0283834,178.090825 C30.0259995,173.116678 32.6660745,168.519351 36.9535594,166.031586 C41.2410443,163.543821 46.5241318,163.543821 50.8116167,166.031586 C55.0991016,168.519351 57.7391766,173.116678 57.7367927,178.090825 C57.7391766,183.064972 55.0991016,187.662299 50.8116167,190.150064 C46.5241318,192.637829 41.2410443,192.637829 36.9535594,190.150064 C32.6660745,187.662299 30.0259995,183.064972 30.0283834,178.090825 L30.0283834,178.090825 Z" id="path3969-71" stroke-width="9.70045948" fill-opacity="0" fill="#34495E" sketch:type="MSShapeGroup"></path>
            <path d="M36.8112509,165.568325 C36.8112509,164.711942 37.5022869,164.017706 38.3547229,164.017706 C39.207159,164.017706 39.898195,164.711942 39.898195,165.568325 C39.898195,166.424709 39.207159,167.118945 38.3547229,167.118945 C37.5022869,167.118945 36.8112509,166.424709 36.8112509,165.568325 L36.8112509,165.568325 Z" id="path3969-6-1" stroke-width="9.70045853" fill="#FFFFFF" sketch:type="MSShapeGroup"></path>
            <path d="M30.6781855,124.110224 L41.7698702,125.694784 L41.7698702,137.977074 L36.2240266,141.04757 L24.9598197,139.413199 L24.9598197,127.230177 L30.6781855,124.110224 L30.6781855,124.110224 Z M25.8003461,127.913972 L25.8302161,127.719509 L25.8003461,127.732529 L25.8003461,127.913972 L25.8003461,127.913972 Z M36.1173943,128.379532 L39.9568873,126.288684 L30.9303434,124.999155 L30.9303434,125.548672 L30.4260517,125.548672 L30.4260517,125.208606 L26.7434411,127.218013 L36.1173943,128.379532 L36.1173943,128.379532 Z M40.4319501,137.357651 L40.9293478,137.430074 L40.9293478,126.719605 L36.6442882,129.053082 L36.6442882,139.850751 L40.369891,137.788113 L40.4319501,137.357651 L40.4319501,137.357651 Z M25.9961852,138.710318 L25.8848725,138.502997 L26.6247653,138.102261 L26.8640921,138.548202 L26.4444954,138.775449 L35.8037666,140.133423 L35.8037666,137.195866 L35.3688255,137.132527 L35.4410427,136.631167 L35.8037666,136.683939 L35.8037666,129.191426 L30.9303434,128.587652 L30.9303434,128.926234 L30.4260517,128.926234 L30.4260517,128.525143 L25.8003461,127.951886 L25.8003461,138.681948 L25.9961852,138.710318 L25.9961852,138.710318 Z M38.7682594,137.115522 L38.6960391,137.616882 L39.5279169,137.73793 L39.6001381,137.236571 L38.7682594,137.115522 L38.7682594,137.115522 Z M30.6318955,135.931271 L30.3236115,136.098324 L30.5629383,136.544265 L30.7244755,136.456661 L31.2097293,136.52726 L31.2819465,136.025901 L30.6318955,135.931271 L30.6318955,135.931271 Z M37.0324463,137.374785 L37.8642592,137.495833 L37.9364796,136.994474 L37.1047021,136.873425 L37.0324463,137.374785 L37.0324463,137.374785 Z M28.1041577,137.300741 L27.3644655,137.701501 L27.6038244,138.147442 L28.3435246,137.746682 L28.1041577,137.300741 L28.1041577,137.300741 Z M33.7773898,136.38907 L33.7051646,136.890398 L34.536979,137.011446 L34.6091962,136.510087 L33.7773898,136.38907 L33.7773898,136.38907 Z M32.1137609,136.146949 L32.0415759,136.648301 L32.8733501,136.769349 L32.9455754,136.26799 L32.1137609,136.146949 L32.1137609,136.146949 Z M29.5838792,136.499051 L28.8440184,136.899811 L29.0833452,137.345753 L29.8232462,136.944993 L29.5838792,136.499051 L29.5838792,136.499051 Z M30.9303434,126.393059 L30.4260517,126.393059 L30.4260517,127.237469 L30.9303434,127.237469 L30.9303434,126.393059 L30.9303434,126.393059 Z M30.4260517,133.992593 L30.9303434,133.992593 L30.9303434,133.148174 L30.4260517,133.148174 L30.4260517,133.992593 L30.4260517,133.992593 Z M30.4260517,135.681414 L30.9303434,135.681414 L30.9303434,134.837003 L30.4260517,134.837003 L30.4260517,135.681414 L30.4260517,135.681414 Z M30.4260517,130.615031 L30.9303434,130.615031 L30.9303434,129.770612 L30.4260517,129.770612 L30.4260517,130.615031 L30.4260517,130.615031 Z M30.4260517,132.303828 L30.9303434,132.303828 L30.9303434,131.459409 L30.4260517,131.459409 L30.4260517,132.303828 L30.4260517,132.303828 Z" id="path3172-6-4" opacity="0.98999999" fill="#FBFBFB" sketch:type="MSShapeGroup"></path>
            <path d="M19.6229997,132.216079 C19.6203342,127.241743 22.2603476,122.644122 26.547948,120.156181 C30.8355483,117.66824 36.1188594,117.66824 40.4064598,120.156181 C44.6940602,122.644122 47.3340736,127.241743 47.3314081,132.216079 C47.3340736,137.190414 44.6940602,141.788036 40.4064598,144.275977 C36.1188594,146.763918 30.8355483,146.763918 26.547948,144.275977 C22.2603476,141.788036 19.6203342,137.190414 19.6229997,132.216079 L19.6229997,132.216079 Z" id="path3969-65-91" stroke-width="9.7007103" opacity="0.98999999" fill-opacity="0" fill="#EDEDED" sketch:type="MSShapeGroup"></path>
            <path d="M34.426686,146.045274 C34.426686,145.18889 35.1177221,144.494654 35.9701584,144.494654 C36.8225947,144.494654 37.5136309,145.18889 37.5136309,146.045274 C37.5136309,146.901657 36.8225947,147.595894 35.9701584,147.595894 C35.1177221,147.595894 34.426686,146.901657 34.426686,146.045274 L34.426686,146.045274 Z" id="path3969-6-8-1" stroke-width="9.70045853" fill="#FFFFFF" sketch:type="MSShapeGroup"></path>
            <path d="M35.8617692,147.601261 C35.8617692,147.601261 34.9946516,156.748127 38.0295573,163.934954" id="path4051-5" stroke-width="5.38914394" stroke-dasharray="10.77828803,10.77828803" sketch:type="MSShapeGroup"></path>
            <path d="M0.389454075,227.574138 C0.386788649,222.599803 3.02680198,218.002181 7.31440238,215.51424 C11.6020028,213.026299 16.8853139,213.026299 21.1729143,215.51424 C25.4605146,218.002181 28.100528,222.599803 28.0978626,227.574138 C28.100528,232.548473 25.4605146,237.146095 21.1729143,239.634036 C16.8853139,242.121977 11.6020028,242.121977 7.31440238,239.634036 C3.02680198,237.146095 0.386788649,232.548473 0.389454075,227.574138 L0.389454075,227.574138 Z" id="path3969-7-5" stroke-width="9.70045948" fill-opacity="0" fill="#34495E" sketch:type="MSShapeGroup"></path>
            <path d="M7.39027308,221.645888 C7.39027308,220.353891 10.4962221,219.30641 14.3276913,219.30641 C18.1591524,219.30641 21.2651006,220.353891 21.2651006,221.645888 L21.2651006,234.101911 L21.263013,234.101911 C21.2185216,235.380953 18.1314346,236.413398 14.3276993,236.413398 C10.523956,236.413398 7.43686818,235.380953 7.39241696,234.101911 L7.39032929,234.101911 L7.39032929,221.703234 L7.3948258,221.705251 C7.3933002,221.685439 7.39032929,221.665781 7.39032929,221.645864 L7.39027308,221.645888 Z M8.54645458,234.101911 C8.62256606,234.239738 8.67354526,234.627841 9.83342835,234.992616 C11.0467236,235.374492 12.6428726,235.58487 14.3276913,235.58487 C16.0124778,235.58487 17.6086188,235.374492 18.8219783,234.992616 C19.9818285,234.627841 20.0328799,234.239738 20.1088549,234.101911 L20.1088549,231.278827 C18.8667989,231.909979 16.7423499,232.326373 14.3276913,232.326373 C11.9130246,232.326373 9.78857565,231.909979 8.54645458,231.278827 L8.54645458,234.101911 L8.54645458,234.101911 Z M8.54645458,230.014716 C8.62256606,230.152842 8.67354526,230.540647 9.83342835,230.90572 C11.0467236,231.287596 12.6428726,231.49787 14.3276913,231.49787 C16.0124778,231.49787 17.6086188,231.287628 18.8219783,230.90572 C19.9818285,230.540647 20.0328799,230.152842 20.1088549,230.014716 L20.1088549,227.136158 C18.8667989,227.76727 16.7423499,228.183736 14.3276913,228.183736 C11.9130246,228.183736 9.78857565,227.76727 8.54645458,227.136158 L8.54645458,230.014716 L8.54645458,230.014716 Z M8.54645458,225.872079 C8.62256606,226.010076 8.67354526,226.39801 9.83342835,226.763019 C11.0467236,227.144862 12.6428726,227.355168 14.3276913,227.355168 C16.0124778,227.355168 17.6086188,227.144862 18.8219783,226.763019 C19.9818285,226.39801 20.0328799,226.010068 20.1088549,225.872079 L20.1088549,222.938822 C18.8661003,223.569506 16.7412178,223.985359 14.3276913,223.985359 C11.9141568,223.985359 9.78933845,223.569506 8.54645458,222.938822 L8.54645458,225.872079 L8.54645458,225.872079 Z M9.83342835,222.564577 C11.0467236,222.946453 12.6428726,223.156759 14.3276913,223.156759 C16.0124778,223.156759 17.6086188,222.946453 18.8219783,222.564577 C20.0715981,222.171351 20.4209931,221.751069 20.4544519,221.645888 C20.4209931,221.540699 20.0714696,221.120393 18.8218498,220.727135 C17.6084904,220.345219 16.0124056,220.134985 14.3276913,220.134985 C12.642969,220.134985 11.0469564,220.345219 9.83356485,220.727135 C8.58391213,221.120393 8.23431641,221.540699 8.20096193,221.645888 C8.23431641,221.751069 8.58377562,222.171383 9.83342835,222.564577 L9.83342835,222.564577 Z" id="path4241-0" fill="#FBFBFB" sketch:type="MSShapeGroup"></path>
            <path d="M18.2856088,214.598017 C18.2851379,214.043719 18.5792188,213.531325 19.0569639,213.254039 C19.5347089,212.976753 20.123451,212.976753 20.6011961,213.254039 C21.0789411,213.531325 21.3730221,214.043719 21.3725512,214.598017 C21.3730221,215.152315 21.0789411,215.66471 20.6011961,215.941996 C20.123451,216.219281 19.5347089,216.219281 19.0569639,215.941996 C18.5792188,215.66471 18.2851379,215.152315 18.2856088,214.598017 L18.2856088,214.598017 Z" id="path3969-6-85-1" stroke-width="9.70045853" fill="#FFFFFF" sketch:type="MSShapeGroup"></path>
            <path d="M31.1146281,186.278532 C31.1143765,185.724381 31.4085055,185.212216 31.8861606,184.935067 C32.3638157,184.657918 32.9523838,184.657918 33.4300389,184.935067 C33.907694,185.212216 34.201823,185.724381 34.2015714,186.278532 C34.201823,186.832683 33.907694,187.344848 33.4300389,187.621997 C32.9523838,187.899146 32.3638157,187.899146 31.8861606,187.621997 C31.4085055,187.344848 31.1143765,186.832683 31.1146281,186.278532 L31.1146281,186.278532 Z" id="path3969-6-85-4-7" stroke-width="9.70045853" fill="#FFFFFF" sketch:type="MSShapeGroup"></path>
            <path d="M31.6833003,187.756095 C31.0897528,186.671911 22.9486908,198.874455 20.1929798,213.032794" id="path4051-8-8-8" stroke-width="5.38914394" stroke-dasharray="10.77828803,10.77828803" sketch:type="MSShapeGroup"></path>
            <path d="M88.4894372,198.715646 C88.4894372,198.715646 80.8791402,187.907942 58.2505448,182.950959" id="path4051-8-4" stroke-width="5.38914394" stroke-dasharray="10.77828803,10.77828803" sketch:type="MSShapeGroup"></path>
            <path d="M90.9175292,202.931641 L96.708345,203.758918 L96.708345,210.171329 L93.8129371,211.774394 L87.9320465,210.92111 L87.9320465,204.560511 L90.9175292,202.931633 L90.9175292,202.931641 Z M88.3708738,204.917525 L88.3864738,204.81599 L88.3708738,204.822766 L88.3708738,204.917493 L88.3708738,204.917525 Z M93.7572607,205.16059 L95.7618134,204.068985 L91.0491806,203.395741 L91.0491806,203.682632 L90.7858938,203.682632 L90.7858938,203.505084 L88.8632499,204.554178 L93.7572607,205.160582 L93.7572607,205.16059 Z M96.0098361,209.847936 L96.2695177,209.885753 L96.2695177,204.293964 L94.0323508,205.51224 L94.0323508,211.14955 L95.9774371,210.072682 L96.0098361,209.847936 L96.0098361,209.847936 Z M88.4731213,210.554149 L88.4150039,210.44591 L88.8012944,210.236693 L88.9262412,210.469513 L88.7071727,210.588158 L93.5935234,211.297137 L93.5935234,209.763478 L93.3664416,209.730413 L93.404148,209.46865 L93.5935234,209.496206 L93.5935234,205.584461 L91.0491806,205.269248 L91.0491806,205.446013 L90.7858938,205.446013 L90.7858938,205.23661 L88.3708738,204.937313 L88.3708738,210.53933 L88.4731213,210.554149 L88.4731213,210.554149 Z M95.1412467,209.721532 L95.1035402,209.983287 L95.537855,210.046481 L95.5755534,209.784726 L95.1412467,209.721532 L95.1412467,209.721532 Z M90.8933604,209.103246 L90.7324094,209.190463 L90.8573642,209.423275 L90.9416899,209.377537 L91.1950442,209.41441 L91.2327426,209.152654 L90.8933604,209.103246 L90.8933604,209.103246 Z M94.2349989,209.85689 L94.6692816,209.920077 L94.7069881,209.658338 L94.2727214,209.595127 L94.2349989,209.85689 L94.2349989,209.85689 Z M89.5736665,209.818227 L89.1874804,210.02746 L89.3124433,210.26028 L89.6986294,210.051047 L89.5736665,209.818227 L89.5736665,209.818227 Z M92.5355746,209.342261 L92.4978762,209.604 L92.9321509,209.667195 L92.9698573,209.405439 L92.5355746,209.342261 L92.5355746,209.342261 Z M91.6670253,209.215841 L91.6293349,209.477604 L92.0635935,209.54079 L92.1013,209.279051 L91.6670253,209.215841 L91.6670253,209.215841 Z M90.3462073,209.39968 L89.9599329,209.608913 L90.0848877,209.841733 L90.4711782,209.6325 L90.3462073,209.39968 L90.3462073,209.39968 Z M91.0491806,204.123483 L90.7858938,204.123483 L90.7858938,204.564334 L91.0491806,204.564334 L91.0491806,204.123483 L91.0491806,204.123483 Z M90.7858938,208.091089 L91.0491806,208.091089 L91.0491806,207.650222 L90.7858938,207.650222 L90.7858938,208.091089 L90.7858938,208.091089 Z M90.7858938,208.972808 L91.0491806,208.972808 L91.0491806,208.53194 L90.7858938,208.53194 L90.7858938,208.972808 L90.7858938,208.972808 Z M90.7858938,206.327708 L91.0491806,206.327708 L91.0491806,205.88684 L90.7858938,205.88684 L90.7858938,206.327708 L90.7858938,206.327708 Z M90.7858938,207.209402 L91.0491806,207.209402 L91.0491806,206.768543 L90.7858938,206.768543 L90.7858938,207.209402 L90.7858938,207.209402 Z" id="path3172-6-2-4" fill="#FBFBFB" sketch:type="MSShapeGroup"></path>
            <path d="M85.1457592,207.163592 C85.1457592,203.150367 88.3841248,199.897005 92.3788511,199.897005 C96.3735775,199.897005 99.6119431,203.150367 99.6119431,207.163592 C99.6119431,211.176817 96.3735775,214.430178 92.3788511,214.430178 C88.3841248,214.430178 85.1457592,211.176817 85.1457592,207.163592 L85.1457592,207.163592 Z" id="path3969-65-9-9" stroke-width="9.7007103" fill-opacity="0" fill="#34495E" sketch:type="MSShapeGroup"></path>
            <path d="M87.8681157,199.974127 C87.8677178,199.419878 88.1618148,198.907559 88.63953,198.630319 C89.1172452,198.353079 89.7059295,198.353079 90.1836447,198.630319 C90.6613599,198.907559 90.9554569,199.419878 90.955059,199.974127 C90.9544445,200.830073 90.2635887,201.523628 89.4115873,201.523628 C88.559586,201.523628 87.8687302,200.830073 87.8681157,199.974127 L87.8681157,199.974127 Z" id="path3969-6-85-4-8-2" stroke-width="9.70045853" fill="#FFFFFF" sketch:type="MSShapeGroup"></path>
            <path d="M67.6892863,203.201253 L73.4801045,204.02853 L73.4801045,210.440941 L70.584695,212.043998 L64.7038084,211.190722 L64.7038084,204.830123 L67.6892863,203.201237 L67.6892863,203.201253 Z M65.1426333,205.187137 L65.1582293,205.08561 L65.1426333,205.092386 L65.1426333,205.187113 L65.1426333,205.187137 Z M70.5290234,205.430202 L72.5335697,204.338589 L67.8209377,203.665353 L67.8209377,203.952244 L67.5576541,203.952244 L67.5576541,203.774704 L65.635011,204.823783 L70.5290234,205.430194 L70.5290234,205.430202 Z M72.781594,210.117549 L73.041278,210.155357 L73.041278,204.563576 L70.8041087,205.781844 L70.8041087,211.41917 L72.7491942,210.342286 L72.781594,210.117549 L72.781594,210.117549 Z M65.2448824,210.823761 L65.186765,210.715515 L65.5730531,210.506306 L65.6980031,210.739126 L65.4789346,210.857762 L70.3652821,211.566741 L70.3652821,210.033083 L70.1382051,210.000017 L70.1759107,209.738262 L70.3652821,209.765818 L70.3652821,205.854081 L67.8209377,205.53886 L67.8209377,205.715617 L67.5576541,205.715617 L67.5576541,205.506223 L65.1426333,205.206933 L65.1426333,210.808951 L65.2448824,210.823761 L65.2448824,210.823761 Z M71.9130046,209.991136 L71.8752989,210.252891 L72.3096113,210.316085 L72.3473153,210.054338 L71.9130046,209.991136 L71.9130046,209.991136 Z M67.6651199,209.372858 L67.5041689,209.460075 L67.6291205,209.692895 L67.7134526,209.647157 L67.9668005,209.684014 L68.0045045,209.422258 L67.6651199,209.372858 L67.6651199,209.372858 Z M71.0067608,210.126495 L71.4410379,210.189697 L71.4787435,209.927942 L71.0444825,209.864747 L71.0067608,210.126495 L71.0067608,210.126495 Z M66.3454236,210.087831 L65.9592383,210.297072 L66.0842052,210.529892 L66.4703921,210.320651 L66.3454236,210.087831 L66.3454236,210.087831 Z M69.3073373,209.611874 L69.2696333,209.873605 L69.7039096,209.936799 L69.741616,209.675052 L69.3073373,209.611874 L69.3073373,209.611874 Z M68.4387832,209.485461 L68.4010936,209.747208 L68.8353546,209.81041 L68.8730611,209.548655 L68.4387832,209.485461 L68.4387832,209.485461 Z M67.1179668,209.669284 L66.7316956,209.878517 L66.8566456,210.111337 L67.2429337,209.902104 L67.1179668,209.669284 L67.1179668,209.669284 Z M67.8209377,204.393087 L67.5576541,204.393087 L67.5576541,204.833947 L67.8209377,204.833947 L67.8209377,204.393087 L67.8209377,204.393087 Z M67.5576541,208.360701 L67.8209377,208.360701 L67.8209377,207.919842 L67.5576541,207.919842 L67.5576541,208.360701 L67.5576541,208.360701 Z M67.5576541,209.242412 L67.8209377,209.242412 L67.8209377,208.801553 L67.5576541,208.801553 L67.5576541,209.242412 L67.5576541,209.242412 Z M67.5576541,206.59732 L67.8209377,206.59732 L67.8209377,206.156452 L67.5576541,206.156452 L67.5576541,206.59732 L67.5576541,206.59732 Z M67.5576541,207.479007 L67.8209377,207.479007 L67.8209377,207.038163 L67.5576541,207.038163 L67.5576541,207.479007 L67.5576541,207.479007 Z" id="path3172-6-2-2-8" fill="#FBFBFB" sketch:type="MSShapeGroup"></path>
            <path d="M61.9175276,207.433212 C61.9166664,204.836535 63.2950971,202.436736 65.5333764,201.138148 C67.7716558,199.839559 70.5295783,199.839559 72.7678577,201.138148 C75.006137,202.436736 76.3845677,204.836535 76.3837066,207.433212 C76.3845677,210.029889 75.006137,212.429688 72.7678577,213.728276 C70.5295783,215.026865 67.7716558,215.026865 65.5333764,213.728276 C63.2950971,212.429688 61.9166664,210.029889 61.9175276,207.433212 L61.9175276,207.433212 Z" id="path3969-65-9-3-6" stroke-width="9.7007103" fill-opacity="0" fill="#34495E" sketch:type="MSShapeGroup"></path>
            <path d="M64.6398881,200.243723 C64.6398881,199.387339 65.330924,198.693103 66.1833601,198.693103 C67.0357962,198.693103 67.7268321,199.387339 67.7268321,200.243723 C67.7268321,201.100106 67.0357962,201.794342 66.1833601,201.794342 C65.330924,201.794342 64.6398881,201.100106 64.6398881,200.243723 L64.6398881,200.243723 Z" id="path3969-6-85-4-8-7-4" stroke-width="9.70045853" fill="#FFFFFF" sketch:type="MSShapeGroup"></path>
            <path d="M55.2890566,182.333093 C55.2890566,181.47671 55.9800926,180.782474 56.8325286,180.782474 C57.6849647,180.782474 58.3760007,181.47671 58.3760007,182.333093 C58.3760007,183.189477 57.6849647,183.883713 56.8325286,183.883713 C55.9800926,183.883713 55.2890566,183.189477 55.2890566,182.333093 L55.2890566,182.333093 Z" id="path3969-6-85-4-5-6" stroke-width="9.70045853" fill="#FFFFFF" sketch:type="MSShapeGroup"></path>
            <path d="M66.0653712,198.583683 C66.0653712,198.583683 65.2432629,190.875798 58.2892172,183.128967" id="path4051-8-3-6" stroke-width="5.38914394" stroke-dasharray="10.77828803,10.77828803" sketch:type="MSShapeGroup"></path>
            <path d="M26.9217366,119.167899 C26.9217366,118.311515 27.6127728,117.617279 28.465209,117.617279 C29.3176453,117.617279 30.0086815,118.311515 30.0086815,119.167899 C30.0086815,119.721882 29.7144973,120.233783 29.2369453,120.510775 C28.7593932,120.787766 28.1710249,120.787766 27.6934728,120.510775 C27.2159208,120.233783 26.9217366,119.721882 26.9217366,119.167899 L26.9217366,119.167899 Z" id="path3969-6-8-1-6" stroke-width="9.70045853" fill="#FFFFFF" sketch:type="MSShapeGroup"></path>
            <path d="M10.1246264,97.5208777 C10.1246264,97.5208777 15.5970187,109.613351 27.6657253,117.755506" id="path4051-5-6" stroke-width="5.38914394" stroke-dasharray="10.77828803,10.77828803" sketch:type="MSShapeGroup"></path>
            <path d="M7.98228632,96.2002111 C7.98210841,95.6461089 8.27625366,95.1340208 8.75387873,94.8569181 C9.23150381,94.5798154 9.82001352,94.5798154 10.2976386,94.8569181 C10.7752637,95.1340208 11.0694089,95.6461089 11.069231,96.2002111 C11.0689561,97.0563994 10.3780005,97.7503307 9.52575867,97.7503307 C8.6735168,97.7503307 7.98256121,97.0563994 7.98228632,96.2002111 L7.98228632,96.2002111 Z" id="path3969-6-8-1-6-2" stroke-width="9.70045853" fill="#FFFFFF" sketch:type="MSShapeGroup"></path>
            <path d="M31.1133161,96.1341209 C31.1129182,95.5798715 31.4070152,95.0675529 31.8847306,94.7903127 C32.3624459,94.5130726 32.9511304,94.5130726 33.4288457,94.7903127 C33.906561,95.0675529 34.2006581,95.5798715 34.2002602,96.1341209 C34.1996456,96.9900676 33.5087897,97.6836223 32.6567881,97.6836223 C31.8047866,97.6836223 31.1139306,96.9900676 31.1133161,96.1341209 L31.1133161,96.1341209 Z" id="path3969-6-8-1-6-2-0" stroke-width="9.70045853" fill="#FFFFFF" sketch:type="MSShapeGroup"></path>
            <path d="M31.8815555,97.420004 C31.8815555,97.420004 27.1314884,106.168812 28.4230286,117.495396" id="path4051-5-6-2" stroke-width="5.38914394" stroke-dasharray="10.77828803,10.77828803" sketch:type="MSShapeGroup"></path>
        </g>
    </g>
</svg>