<?xml version="1.0" encoding="UTF-8" standalone="no"?>
<svg width="752px" height="129px" viewBox="0 0 752 129" version="1.1" xmlns="http://www.w3.org/2000/svg" xmlns:xlink="http://www.w3.org/1999/xlink" xmlns:sketch="http://www.bohemiancoding.com/sketch/ns">
    <!-- Generator: Sketch 3.3 (11970) - http://www.bohemiancoding.com/sketch -->
    <title>services_atob</title>
    <desc>Created with Sketch.</desc>
    <defs></defs>
    <g id="Page-1" stroke="none" stroke-width="1" fill="none" fill-rule="evenodd" sketch:type="MSPage">
        <g id="services_atob" sketch:type="MSLayerGroup">
            <g id="Page-1">
                <g id="Group">
                    <rect id="Rectangle-1" fill="#EDEDED" sketch:type="MSShapeGroup" x="0" y="0" width="225" height="129" rx="8"></rect>
                    <g id="path5045-8-+-1" transform="translate(21.808930, 26.732460)">
                        <path d="M39.6322017,78.92449 C18.0513405,78.92449 0.556593621,61.4297557 0.556593621,39.8488945 C0.556593621,18.2680333 18.0513405,0.773286379 39.6322017,0.773286379 C61.2130503,0.773286379 78.7077972,18.2680333 78.7077972,39.8488945 C78.7077972,61.4297557 61.2130503,78.92449 39.6322017,78.92449 L39.6322017,78.92449 Z" id="path5045-8" fill="#03A9F4" sketch:type="MSShapeGroup"></path>
                        <g id="1" transform="translate(30.132195, 20.848888)" font-size="30.9014656" font-family="Helvetica Neue" fill="#FFFFFF" sketch:type="MSTextLayer" font-weight="normal">
                            <text>
                                <tspan x="0.1321954" y="29.3488882" fill="#000000">1</tspan>
                            </text>
                        </g>
                    </g>
                    <g id="path5045-8-+-1-copy" transform="translate(124.362760, 26.732460)">
                        <path d="M39.6322017,78.92449 C18.0513405,78.92449 0.556593621,61.4297557 0.556593621,39.8488945 C0.556593621,18.2680333 18.0513405,0.773286379 39.6322017,0.773286379 C61.2130503,0.773286379 78.7077972,18.2680333 78.7077972,39.8488945 C78.7077972,61.4297557 61.2130503,78.92449 39.6322017,78.92449 L39.6322017,78.92449 Z" id="path5045-8" stroke="#FF4081" stroke-dasharray="5,4" sketch:type="MSShapeGroup"></path>
                        <g id="2" transform="translate(30.132195, 20.848888)" font-size="30.9014656" font-family="Helvetica Neue" fill="#FFFFFF" sketch:type="MSTextLayer" font-weight="normal">
                            <text>
                                <tspan x="0.1321954" y="29.3488882" fill="#000000">2</tspan>
                            </text>
                        </g>
                    </g>
                    <rect id="Rectangle-1-Copy" fill="#EDEDED" sketch:type="MSShapeGroup" x="262" y="0" width="225" height="129" rx="8"></rect>
                    <g id="path5045-8-+-1-copy-2" transform="translate(283.808930, 26.732460)">
                        <path d="M39.6322017,78.92449 C18.0513405,78.92449 0.556593621,61.4297557 0.556593621,39.8488945 C0.556593621,18.2680333 18.0513405,0.773286379 39.6322017,0.773286379 C61.2130503,0.773286379 78.7077972,18.2680333 78.7077972,39.8488945 C78.7077972,61.4297557 61.2130503,78.92449 39.6322017,78.92449 L39.6322017,78.92449 Z" id="path5045-8" fill="#03A9F4" sketch:type="MSShapeGroup"></path>
                        <g id="1" transform="translate(30.132195, 20.848888)" font-size="30.9014656" font-family="Helvetica Neue" fill="#FFFFFF" sketch:type="MSTextLayer" font-weight="normal">
                            <text>
                                <tspan x="0.1321954" y="29.3488882" fill="#000000">1</tspan>
                            </text>
                        </g>
                    </g>
                    <g id="path5045-8-+-1-copy-3" transform="translate(386.362760, 26.732460)">
                        <path d="M39.6322017,78.92449 C18.0513405,78.92449 0.556593621,61.4297557 0.556593621,39.8488945 C0.556593621,18.2680333 18.0513405,0.773286379 39.6322017,0.773286379 C61.2130503,0.773286379 78.7077972,18.2680333 78.7077972,39.8488945 C78.7077972,61.4297557 61.2130503,78.92449 39.6322017,78.92449 L39.6322017,78.92449 Z" id="path5045-8" fill="#FF4081" sketch:type="MSShapeGroup"></path>
                        <g id="2" transform="translate(30.132195, 20.848888)" font-size="30.9014656" font-family="Helvetica Neue" fill="#FFFFFF" sketch:type="MSTextLayer" font-weight="normal">
                            <text>
                                <tspan x="0.1321954" y="29.3488882" fill="#000000">2</tspan>
                            </text>
                        </g>
                    </g>
                    <rect id="Rectangle-1-Copy-2" fill="#EDEDED" sketch:type="MSShapeGroup" x="526.55383" y="0" width="225" height="129" rx="8"></rect>
                    <g id="path5045-8-+-1-copy-4" transform="translate(548.362760, 26.732460)">
                        <path d="M39.6322017,78.92449 C18.0513405,78.92449 0.556593621,61.4297557 0.556593621,39.8488945 C0.556593621,18.2680333 18.0513405,0.773286379 39.6322017,0.773286379 C61.2130503,0.773286379 78.7077972,18.2680333 78.7077972,39.8488945 C78.7077972,61.4297557 61.2130503,78.92449 39.6322017,78.92449 L39.6322017,78.92449 Z" id="path5045-8" stroke="#03A9F4" stroke-dasharray="5,4" sketch:type="MSShapeGroup"></path>
                        <g id="1" transform="translate(30.132195, 20.848888)" font-size="30.9014656" font-family="Helvetica Neue" fill="#FFFFFF" sketch:type="MSTextLayer" font-weight="normal">
                            <text>
                                <tspan x="0.1321954" y="29.3488882" fill="#000000">1</tspan>
                            </text>
                        </g>
                    </g>
                    <g id="path5045-8-+-1-copy-5" transform="translate(650.916590, 26.732460)">
                        <path d="M39.6322017,78.92449 C18.0513405,78.92449 0.556593621,61.4297557 0.556593621,39.8488945 C0.556593621,18.2680333 18.0513405,0.773286379 39.6322017,0.773286379 C61.2130503,0.773286379 78.7077972,18.2680333 78.7077972,39.8488945 C78.7077972,61.4297557 61.2130503,78.92449 39.6322017,78.92449 L39.6322017,78.92449 Z" id="path5045-8" fill="#FF4081" sketch:type="MSShapeGroup"></path>
                        <g id="2" transform="translate(30.132195, 20.848888)" font-size="30.9014656" font-family="Helvetica Neue" fill="#FFFFFF" sketch:type="MSTextLayer" font-weight="normal">
                            <text>
                                <tspan x="0.1321954" y="29.3488882" fill="#000000">2</tspan>
                            </text>
                        </g>
                    </g>
                    <path d="M361.5,66.5 L387.5,66.5" id="Line" stroke="#03A9F4" stroke-width="7" fill="#03A9F4" sketch:type="MSShapeGroup"></path>
                    <path id="Line-decoration-1" d="M387.5,66.5 L376.7,63.5 L376.7,69.5 L387.5,66.5 Z" stroke="#03A9F4" stroke-width="7" fill="#03A9F4"></path>
                </g>
            </g>
        </g>
    </g>
</svg>