<?xml version="1.0" encoding="UTF-8" standalone="no"?>
<svg width="472px" height="512px" viewBox="0 0 472 512" version="1.1" xmlns="http://www.w3.org/2000/svg" xmlns:xlink="http://www.w3.org/1999/xlink" xmlns:sketch="http://www.bohemiancoding.com/sketch/ns">
    <!-- Generator: Sketch 3.3.3 (12072) - http://www.bohemiancoding.com/sketch -->
    <title>Shape + Path Copy</title>
    <desc>Created with Sketch.</desc>
    <defs></defs>
    <g id="Page-1" stroke="none" stroke-width="1" fill="none" fill-rule="evenodd" sketch:type="MSPage">
        <g id="Shape-+-Path-Copy" sketch:type="MSLayerGroup">
            <path d="M450.62,480.84 L471.059,480.84 L471.059,511.5 L440.4,511.5 L440.4,491.06 L450.62,491.06 L450.62,480.84 L450.62,480.84 Z M308.194,511.5 L342.982,511.5 L342.982,491.06 L308.194,491.06 L308.194,511.5 L308.194,511.5 Z M374.297,511.5 L409.085,511.5 L409.085,491.06 L374.297,491.06 L374.297,511.5 L374.297,511.5 Z M266.66,480.84 L246.22,480.84 L246.22,511.5 L276.88,511.5 L276.88,491.06 L266.66,491.06 L266.66,480.84 L266.66,480.84 Z M266.66,348.635 L246.22,348.635 L246.22,383.423 L266.66,383.423 L266.66,348.635 L266.66,348.635 Z M246.22,449.525 L266.66,449.525 L266.66,414.737 L246.22,414.737 L246.22,449.525 L246.22,449.525 Z M246.22,317.32 L266.66,317.32 L266.66,307.1 L276.88,307.1 L276.88,286.66 L246.22,286.66 L246.22,317.32 L246.22,317.32 Z M374.297,307.1 L409.085,307.1 L409.085,286.66 L374.297,286.66 L374.297,307.1 L374.297,307.1 Z M308.194,307.1 L342.982,307.1 L342.982,286.66 L308.194,286.66 L308.194,307.1 L308.194,307.1 Z M440.4,286.66 L440.4,307.1 L450.62,307.1 L450.62,317.321 L471.059,317.321 L471.059,286.661 L440.4,286.661 L440.4,286.66 Z M450.62,383.423 L471.059,383.423 L471.059,348.635 L450.62,348.635 L450.62,383.423 L450.62,383.423 Z M450.62,449.525 L471.059,449.525 L471.059,414.737 L450.62,414.737 L450.62,449.525 L450.62,449.525 Z M389.3,0.5 L0.94,0.5 L0.94,388.86 L215.56,388.86 L215.56,368.42 L21.38,368.42 L21.38,20.94 L368.86,20.94 L368.86,256 L389.3,256 L389.3,0.5 Z" id="Shape" fill="#A8A8A8" sketch:type="MSShapeGroup"></path>
            <path d="M62.069,177.103 L90.831,148.343 L208.206,265.72 L239.641,234.286 L122.266,116.911 L151.026,88.149 L51.54,77.62 L62.069,177.103 Z" id="Path-Copy" fill="#FF4081" sketch:type="MSShapeGroup"></path>
        </g>
    </g>
</svg>